<svg width="1000" height="500" viewBox="0 0 1000 500" fill="none" xmlns="http://www.w3.org/2000/svg">
<rect width="1000" height="500" fill="#202124"/>
<circle cx="150.5" cy="371.5" r="106.5" fill="#5BA2A1"/>
<path d="M79.54 368.6L78.415 373.64H73.015L74.185 368.735L69.19 368.6L68.02 373.64H62.35L62.845 378.005H66.985L65.86 383.045H62.35L62.845 387.365H64.87L63.745 392.45L68.695 392.675L69.91 387.365H75.31L74.185 392.45L79.18 392.675L80.35 387.365H85.93L85.48 383.045H81.34L82.51 378.005H85.93L85.48 373.64H83.5L84.58 368.735L79.54 368.6ZM77.425 378.005L76.255 383.045H70.945L72.07 378.005H77.425ZM95.5143 382.73C95.7543 382.19 96.2193 381.71 96.9093 381.29C97.5993 380.84 98.4243 380.615 99.3843 380.615C100.704 380.615 101.784 381.05 102.624 381.92C103.464 382.79 103.884 383.945 103.884 385.385C103.884 386.945 103.344 388.19 102.264 389.12C101.214 390.05 99.8793 390.515 98.2593 390.515C96.9693 390.515 95.7993 390.365 94.7493 390.065C93.6993 389.735 92.5443 389.225 91.2843 388.535L88.4043 392.63C89.8743 393.44 91.4643 394.1 93.1743 394.61C94.9143 395.15 96.5643 395.42 98.1243 395.42C100.374 395.42 102.324 395 103.974 394.16C105.654 393.32 106.944 392.135 107.844 390.605C108.744 389.075 109.194 387.335 109.194 385.385C109.164 383.645 108.774 382.07 108.024 380.66C107.274 379.22 106.149 378.08 104.649 377.24C103.149 376.37 101.319 375.935 99.1593 375.935C97.8093 375.935 96.6993 376.16 95.8293 376.61L96.0993 371.255H106.989L107.619 366.53H91.1493L90.3393 382.73H95.5143ZM126.687 392C129.987 392 132.612 391.205 134.562 389.615C136.512 387.995 137.487 385.79 137.487 383C137.487 379.58 135.912 377.045 132.762 375.395C134.952 373.685 136.047 371.87 136.047 369.95C136.047 367.01 135.162 364.85 133.392 363.47C131.622 362.09 129.162 361.4 126.012 361.4H114.132V392H126.687ZM125.157 366.26C126.717 366.26 127.887 366.545 128.667 367.115C129.477 367.685 129.882 368.66 129.882 370.04C129.882 371.3 129.372 372.26 128.352 372.92C127.332 373.55 125.967 373.865 124.257 373.865H119.937V366.26H125.157ZM126.642 378.59C128.112 378.59 129.267 378.98 130.107 379.76C130.977 380.54 131.412 381.635 131.412 383.045C131.412 384.365 130.947 385.385 130.017 386.105C129.087 386.825 127.827 387.185 126.237 387.185H119.937V378.59H126.642ZM150.982 361.4L139.057 392H144.907L147.607 384.8H159.217L161.962 392.45L167.812 391.64L155.932 361.4H150.982ZM157.417 380.075H149.317L153.322 369.41L157.417 380.075ZM178.666 365.945C175.486 365.945 172.591 366.725 169.981 368.285L171.016 372.965C173.686 371.435 176.041 370.67 178.081 370.67C179.581 370.67 180.766 370.97 181.636 371.57C182.536 372.14 182.986 372.98 182.986 374.09C182.986 374.96 182.626 375.89 181.906 376.88C181.186 377.87 180.046 379.025 178.486 380.345L169.396 388.085V392H189.286L188.746 387.545H177.361L181.636 383.99C183.946 382.04 185.566 380.36 186.496 378.95C187.426 377.54 187.891 375.845 187.891 373.865C187.891 372.365 187.516 371.015 186.766 369.815C186.016 368.615 184.951 367.67 183.571 366.98C182.191 366.29 180.556 365.945 178.666 365.945ZM202.574 361.4L190.649 392H196.499L199.199 384.8H210.809L213.554 392.45L219.404 391.64L207.524 361.4H202.574ZM209.009 380.075H200.909L204.914 369.41L209.009 380.075ZM233.497 392V366.53H229.582L220.312 370.625L222.517 374.99L227.647 373.01V392H233.497Z" fill="white"/>
<circle cx="383.5" cy="371.5" r="106.5" fill="#EC99C0"/>
<path d="M310.54 367.6L309.415 372.64H304.015L305.185 367.735L300.19 367.6L299.02 372.64H293.35L293.845 377.005H297.985L296.86 382.045H293.35L293.845 386.365H295.87L294.745 391.45L299.695 391.675L300.91 386.365H306.31L305.185 391.45L310.18 391.675L311.35 386.365H316.93L316.48 382.045H312.34L313.51 377.005H316.93L316.48 372.64H314.5L315.58 367.735L310.54 367.6ZM308.425 377.005L307.255 382.045H301.945L303.07 377.005H308.425ZM343.524 391L342.579 386.455H327.909V377.86H338.844L337.899 373.225H327.909V364.99H341.274L340.374 360.4H322.104V391H343.524ZM368.862 361.75C367.662 361.09 366.282 360.595 364.722 360.265C363.162 359.935 361.842 359.77 360.762 359.77C357.822 359.77 355.227 360.46 352.977 361.84C350.757 363.19 349.032 365.08 347.802 367.51C346.602 369.94 346.002 372.715 346.002 375.835C346.002 378.835 346.557 381.535 347.667 383.935C348.777 386.305 350.427 388.18 352.617 389.56C354.807 390.94 357.447 391.63 360.537 391.63C361.857 391.63 363.327 391.45 364.947 391.09C366.597 390.73 367.992 390.25 369.132 389.65L366.927 385.33C364.677 386.26 362.442 386.725 360.222 386.725C358.542 386.725 357.087 386.245 355.857 385.285C354.627 384.295 353.682 382.975 353.022 381.325C352.392 379.645 352.077 377.8 352.077 375.79C352.077 373.54 352.437 371.575 353.157 369.895C353.907 368.215 354.927 366.925 356.217 366.025C357.507 365.125 358.962 364.675 360.582 364.675C361.602 364.675 362.457 364.75 363.147 364.9C363.837 365.02 364.767 365.26 365.937 365.62L367.062 365.935L368.862 361.75ZM380.672 364.945C382.952 364.945 384.962 365.41 386.702 366.34C388.472 367.24 389.852 368.59 390.842 370.39C391.832 372.16 392.327 374.32 392.327 376.87C392.327 380.17 391.412 383.065 389.582 385.555C387.752 388.015 385.487 389.965 382.787 391.405C380.087 392.845 377.417 393.73 374.777 394.06L373.967 389.245C379.547 387.715 383.327 385.495 385.307 382.585C383.867 383.275 382.367 383.62 380.807 383.62C378.947 383.62 377.267 383.2 375.767 382.36C374.267 381.52 373.082 380.395 372.212 378.985C371.372 377.575 370.952 376.015 370.952 374.305C370.952 372.475 371.372 370.855 372.212 369.445C373.052 368.035 374.207 366.94 375.677 366.16C377.147 365.35 378.812 364.945 380.672 364.945ZM376.172 374.08C376.172 375.49 376.622 376.675 377.522 377.635C378.422 378.565 379.562 379.03 380.942 379.03C383.252 379.03 385.232 378.415 386.882 377.185C386.852 374.665 386.297 372.805 385.217 371.605C384.137 370.375 382.682 369.76 380.852 369.76C379.532 369.76 378.422 370.18 377.522 371.02C376.622 371.86 376.172 372.88 376.172 374.08ZM404.315 364.945C406.595 364.945 408.605 365.41 410.345 366.34C412.115 367.24 413.495 368.59 414.485 370.39C415.475 372.16 415.97 374.32 415.97 376.87C415.97 380.17 415.055 383.065 413.225 385.555C411.395 388.015 409.13 389.965 406.43 391.405C403.73 392.845 401.06 393.73 398.42 394.06L397.61 389.245C403.19 387.715 406.97 385.495 408.95 382.585C407.51 383.275 406.01 383.62 404.45 383.62C402.59 383.62 400.91 383.2 399.41 382.36C397.91 381.52 396.725 380.395 395.855 378.985C395.015 377.575 394.595 376.015 394.595 374.305C394.595 372.475 395.015 370.855 395.855 369.445C396.695 368.035 397.85 366.94 399.32 366.16C400.79 365.35 402.455 364.945 404.315 364.945ZM399.815 374.08C399.815 375.49 400.265 376.675 401.165 377.635C402.065 378.565 403.205 379.03 404.585 379.03C406.895 379.03 408.875 378.415 410.525 377.185C410.495 374.665 409.94 372.805 408.86 371.605C407.78 370.375 406.325 369.76 404.495 369.76C403.175 369.76 402.065 370.18 401.165 371.02C400.265 371.86 399.815 372.88 399.815 374.08ZM441.547 361.75C440.347 361.09 438.967 360.595 437.407 360.265C435.847 359.935 434.527 359.77 433.447 359.77C430.507 359.77 427.912 360.46 425.662 361.84C423.442 363.19 421.717 365.08 420.487 367.51C419.287 369.94 418.687 372.715 418.687 375.835C418.687 378.835 419.242 381.535 420.352 383.935C421.462 386.305 423.112 388.18 425.302 389.56C427.492 390.94 430.132 391.63 433.222 391.63C434.542 391.63 436.012 391.45 437.632 391.09C439.282 390.73 440.677 390.25 441.817 389.65L439.612 385.33C437.362 386.26 435.127 386.725 432.907 386.725C431.227 386.725 429.772 386.245 428.542 385.285C427.312 384.295 426.367 382.975 425.707 381.325C425.077 379.645 424.762 377.8 424.762 375.79C424.762 373.54 425.122 371.575 425.842 369.895C426.592 368.215 427.612 366.925 428.902 366.025C430.192 365.125 431.647 364.675 433.267 364.675C434.287 364.675 435.142 364.75 435.832 364.9C436.522 365.02 437.452 365.26 438.622 365.62L439.747 365.935L441.547 361.75ZM443.638 378.175C443.638 380.725 444.178 383.02 445.258 385.06C446.338 387.1 447.823 388.705 449.713 389.875C451.633 391.015 453.778 391.585 456.148 391.585C458.518 391.585 460.648 391.015 462.538 389.875C464.458 388.705 465.958 387.1 467.038 385.06C468.118 382.99 468.658 380.665 468.658 378.085C468.658 375.595 468.118 373.345 467.038 371.335C465.988 369.325 464.503 367.765 462.583 366.655C460.693 365.515 458.563 364.945 456.193 364.945C453.793 364.945 451.633 365.515 449.713 366.655C447.823 367.795 446.338 369.37 445.258 371.38C444.178 373.39 443.638 375.655 443.638 378.175ZM448.993 378.04C448.993 376.48 449.293 375.085 449.893 373.855C450.523 372.625 451.378 371.665 452.458 370.975C453.568 370.255 454.798 369.895 456.148 369.895C457.528 369.895 458.758 370.255 459.838 370.975C460.948 371.695 461.818 372.7 462.448 373.99C463.078 375.25 463.393 376.675 463.393 378.265C463.393 379.855 463.078 381.28 462.448 382.54C461.848 383.8 460.993 384.79 459.883 385.51C458.803 386.23 457.573 386.59 456.193 386.59C454.813 386.59 453.568 386.23 452.458 385.51C451.378 384.76 450.523 383.74 449.893 382.45C449.293 381.13 448.993 379.66 448.993 378.04Z" fill="white"/>
<circle cx="616.5" cy="371.5" r="106.5" fill="#5B3CD3"/>
<path d="M543.54 368.6L542.415 373.64H537.015L538.185 368.735L533.19 368.6L532.02 373.64H526.35L526.845 378.005H530.985L529.86 383.045H526.35L526.845 387.365H528.87L527.745 392.45L532.695 392.675L533.91 387.365H539.31L538.185 392.45L543.18 392.675L544.35 387.365H549.93L549.48 383.045H545.34L546.51 378.005H549.93L549.48 373.64H547.5L548.58 368.735L543.54 368.6ZM541.425 378.005L540.255 383.045H534.945L536.07 378.005H541.425ZM559.514 382.73C559.754 382.19 560.219 381.71 560.909 381.29C561.599 380.84 562.424 380.615 563.384 380.615C564.704 380.615 565.784 381.05 566.624 381.92C567.464 382.79 567.884 383.945 567.884 385.385C567.884 386.945 567.344 388.19 566.264 389.12C565.214 390.05 563.879 390.515 562.259 390.515C560.969 390.515 559.799 390.365 558.749 390.065C557.699 389.735 556.544 389.225 555.284 388.535L552.404 392.63C553.874 393.44 555.464 394.1 557.174 394.61C558.914 395.15 560.564 395.42 562.124 395.42C564.374 395.42 566.324 395 567.974 394.16C569.654 393.32 570.944 392.135 571.844 390.605C572.744 389.075 573.194 387.335 573.194 385.385C573.164 383.645 572.774 382.07 572.024 380.66C571.274 379.22 570.149 378.08 568.649 377.24C567.149 376.37 565.319 375.935 563.159 375.935C561.809 375.935 560.699 376.16 559.829 376.61L560.099 371.255H570.989L571.619 366.53H555.149L554.339 382.73H559.514ZM590.687 392C593.987 392 596.612 391.205 598.562 389.615C600.512 387.995 601.487 385.79 601.487 383C601.487 379.58 599.912 377.045 596.762 375.395C598.952 373.685 600.047 371.87 600.047 369.95C600.047 367.01 599.162 364.85 597.392 363.47C595.622 362.09 593.162 361.4 590.012 361.4H578.132V392H590.687ZM589.157 366.26C590.717 366.26 591.887 366.545 592.667 367.115C593.477 367.685 593.882 368.66 593.882 370.04C593.882 371.3 593.372 372.26 592.352 372.92C591.332 373.55 589.967 373.865 588.257 373.865H583.937V366.26H589.157ZM590.642 378.59C592.112 378.59 593.267 378.98 594.107 379.76C594.977 380.54 595.412 381.635 595.412 383.045C595.412 384.365 594.947 385.385 594.017 386.105C593.087 386.825 591.827 387.185 590.237 387.185H583.937V378.59H590.642ZM613.047 365.945C611.337 365.945 609.702 366.215 608.142 366.755C606.582 367.295 605.022 368.075 603.462 369.095L606.207 373.01C608.457 371.45 610.692 370.67 612.912 370.67C614.172 370.67 615.192 370.985 615.972 371.615C616.752 372.215 617.142 372.965 617.142 373.865C617.142 374.975 616.602 375.875 615.522 376.565C614.442 377.225 613.002 377.555 611.202 377.555H608.232L609.042 382.1H610.932C613.212 382.1 614.907 382.505 616.017 383.315C617.127 384.095 617.682 385.19 617.682 386.6C617.682 387.83 617.172 388.82 616.152 389.57C615.132 390.32 613.917 390.695 612.507 390.695C611.187 390.695 610.002 390.545 608.952 390.245C607.902 389.915 606.777 389.39 605.577 388.67L602.607 392.585C604.137 393.395 605.772 394.07 607.512 394.61C609.252 395.15 610.887 395.42 612.417 395.42C614.517 395.42 616.377 395.03 617.997 394.25C619.617 393.47 620.862 392.405 621.732 391.055C622.602 389.705 623.037 388.205 623.037 386.555C623.037 385.385 622.812 384.305 622.362 383.315C621.912 382.325 621.357 381.515 620.697 380.885C620.067 380.255 619.452 379.865 618.852 379.715C619.782 379.295 620.622 378.53 621.372 377.42C622.122 376.28 622.497 375.065 622.497 373.775C622.497 372.335 622.137 371.03 621.417 369.86C620.697 368.66 619.617 367.715 618.177 367.025C616.767 366.305 615.057 365.945 613.047 365.945ZM648.839 362.75C647.639 362.09 646.259 361.595 644.699 361.265C643.139 360.935 641.819 360.77 640.739 360.77C637.799 360.77 635.204 361.46 632.954 362.84C630.734 364.19 629.009 366.08 627.779 368.51C626.579 370.94 625.979 373.715 625.979 376.835C625.979 379.835 626.534 382.535 627.644 384.935C628.754 387.305 630.404 389.18 632.594 390.56C634.784 391.94 637.424 392.63 640.514 392.63C641.834 392.63 643.304 392.45 644.924 392.09C646.574 391.73 647.969 391.25 649.109 390.65L646.904 386.33C644.654 387.26 642.419 387.725 640.199 387.725C638.519 387.725 637.064 387.245 635.834 386.285C634.604 385.295 633.659 383.975 632.999 382.325C632.369 380.645 632.054 378.8 632.054 376.79C632.054 374.54 632.414 372.575 633.134 370.895C633.884 369.215 634.904 367.925 636.194 367.025C637.484 366.125 638.939 365.675 640.559 365.675C641.579 365.675 642.434 365.75 643.124 365.9C643.814 366.02 644.744 366.26 645.914 366.62L647.039 366.935L648.839 362.75ZM665.24 392C669.74 391.94 673.205 390.56 675.635 387.86C678.095 385.13 679.325 381.35 679.325 376.52C679.325 373.52 678.8 370.895 677.75 368.645C676.73 366.365 675.155 364.595 673.025 363.335C670.925 362.045 668.33 361.4 665.24 361.4H653.63V392H665.24ZM665.465 366.35C668.105 366.35 670.07 367.235 671.36 369.005C672.65 370.745 673.295 373.25 673.295 376.52C673.295 380.18 672.575 382.865 671.135 384.575C669.725 386.255 667.73 387.095 665.15 387.095H659.435V366.35H665.465ZM691.358 365.945C689.648 365.945 688.013 366.215 686.453 366.755C684.893 367.295 683.333 368.075 681.773 369.095L684.518 373.01C686.768 371.45 689.003 370.67 691.223 370.67C692.483 370.67 693.503 370.985 694.283 371.615C695.063 372.215 695.453 372.965 695.453 373.865C695.453 374.975 694.913 375.875 693.833 376.565C692.753 377.225 691.313 377.555 689.513 377.555H686.543L687.353 382.1H689.243C691.523 382.1 693.218 382.505 694.328 383.315C695.438 384.095 695.993 385.19 695.993 386.6C695.993 387.83 695.483 388.82 694.463 389.57C693.443 390.32 692.228 390.695 690.818 390.695C689.498 390.695 688.313 390.545 687.263 390.245C686.213 389.915 685.088 389.39 683.888 388.67L680.918 392.585C682.448 393.395 684.083 394.07 685.823 394.61C687.563 395.15 689.198 395.42 690.728 395.42C692.828 395.42 694.688 395.03 696.308 394.25C697.928 393.47 699.173 392.405 700.043 391.055C700.913 389.705 701.348 388.205 701.348 386.555C701.348 385.385 701.123 384.305 700.673 383.315C700.223 382.325 699.668 381.515 699.008 380.885C698.378 380.255 697.763 379.865 697.163 379.715C698.093 379.295 698.933 378.53 699.683 377.42C700.433 376.28 700.808 375.065 700.808 373.775C700.808 372.335 700.448 371.03 699.728 369.86C699.008 368.66 697.928 367.715 696.488 367.025C695.078 366.305 693.368 365.945 691.358 365.945Z" fill="white"/>
<circle cx="849.5" cy="371.5" r="106.5" fill="#64AAD5"/>
<path d="M769.54 366.6L768.415 371.64H763.015L764.185 366.735L759.19 366.6L758.02 371.64H752.35L752.845 376.005H756.985L755.86 381.045H752.35L752.845 385.365H754.87L753.745 390.45L758.695 390.675L759.91 385.365H765.31L764.185 390.45L769.18 390.675L770.35 385.365H775.93L775.48 381.045H771.34L772.51 376.005H775.93L775.48 371.64H773.5L774.58 366.735L769.54 366.6ZM767.425 376.005L766.255 381.045H760.945L762.07 376.005H767.425ZM789.924 371.91C791.784 371.91 793.464 372.33 794.964 373.17C796.464 374.01 797.634 375.135 798.474 376.545C799.344 377.955 799.779 379.515 799.779 381.225C799.779 383.055 799.359 384.675 798.519 386.085C797.679 387.495 796.524 388.605 795.054 389.415C793.584 390.195 791.919 390.585 790.059 390.585C787.779 390.585 785.754 390.135 783.984 389.235C782.244 388.305 780.879 386.955 779.889 385.185C778.899 383.385 778.404 381.21 778.404 378.66C778.404 375.36 779.319 372.48 781.149 370.02C782.979 367.53 785.244 365.565 787.944 364.125C790.644 362.685 793.314 361.8 795.954 361.47L796.764 366.285C791.184 367.815 787.404 370.035 785.424 372.945C786.864 372.255 788.364 371.91 789.924 371.91ZM789.879 385.77C791.199 385.77 792.309 385.35 793.209 384.51C794.109 383.67 794.559 382.65 794.559 381.45C794.559 380.04 794.109 378.87 793.209 377.94C792.309 376.98 791.169 376.5 789.789 376.5C787.479 376.5 785.499 377.115 783.849 378.345C783.879 380.865 784.434 382.74 785.514 383.97C786.594 385.17 788.049 385.77 789.879 385.77ZM825.222 382.53H820.497V364.305H816.132L801.372 382.53L802.137 387.345H814.602V393.105H820.497V387.345H824.637L825.222 382.53ZM814.602 373.665V382.53H807.672L814.602 373.665ZM838.478 359.4L826.553 390H832.403L835.103 382.8H846.713L849.458 390.45L855.308 389.64L843.428 359.4H838.478ZM844.913 378.075H836.813L840.818 367.41L844.913 378.075ZM868.141 359.4L856.216 390H862.066L864.766 382.8H876.376L879.121 390.45L884.971 389.64L873.091 359.4H868.141ZM874.576 378.075H866.476L870.481 367.41L874.576 378.075ZM900.864 390C905.364 389.94 908.829 388.56 911.259 385.86C913.719 383.13 914.949 379.35 914.949 374.52C914.949 371.52 914.424 368.895 913.374 366.645C912.354 364.365 910.779 362.595 908.649 361.335C906.549 360.045 903.954 359.4 900.864 359.4H889.254V390H900.864ZM901.089 364.35C903.729 364.35 905.694 365.235 906.984 367.005C908.274 368.745 908.919 371.25 908.919 374.52C908.919 378.18 908.199 380.865 906.759 382.575C905.349 384.255 903.354 385.095 900.774 385.095H895.059V364.35H901.089ZM924.777 380.73C925.017 380.19 925.482 379.71 926.172 379.29C926.862 378.84 927.687 378.615 928.647 378.615C929.967 378.615 931.047 379.05 931.887 379.92C932.727 380.79 933.147 381.945 933.147 383.385C933.147 384.945 932.607 386.19 931.527 387.12C930.477 388.05 929.142 388.515 927.522 388.515C926.232 388.515 925.062 388.365 924.012 388.065C922.962 387.735 921.807 387.225 920.547 386.535L917.667 390.63C919.137 391.44 920.727 392.1 922.437 392.61C924.177 393.15 925.827 393.42 927.387 393.42C929.637 393.42 931.587 393 933.237 392.16C934.917 391.32 936.207 390.135 937.107 388.605C938.007 387.075 938.457 385.335 938.457 383.385C938.427 381.645 938.037 380.07 937.287 378.66C936.537 377.22 935.412 376.08 933.912 375.24C932.412 374.37 930.582 373.935 928.422 373.935C927.072 373.935 925.962 374.16 925.092 374.61L925.362 369.255H936.252L936.882 364.53H920.412L919.602 380.73H924.777Z" fill="white"/>
<circle cx="378.5" cy="127.5" r="106.5" fill="white"/>
<path d="M303.54 126.6L302.415 131.64H297.015L298.185 126.735L293.19 126.6L292.02 131.64H286.35L286.845 136.005H290.985L289.86 141.045H286.35L286.845 145.365H288.87L287.745 150.45L292.695 150.675L293.91 145.365H299.31L298.185 150.45L303.18 150.675L304.35 145.365H309.93L309.48 141.045H305.34L306.51 136.005H309.93L309.48 131.64H307.5L308.58 126.735L303.54 126.6ZM301.425 136.005L300.255 141.045H294.945L296.07 136.005H301.425ZM319.514 140.73C319.754 140.19 320.219 139.71 320.909 139.29C321.599 138.84 322.424 138.615 323.384 138.615C324.704 138.615 325.784 139.05 326.624 139.92C327.464 140.79 327.884 141.945 327.884 143.385C327.884 144.945 327.344 146.19 326.264 147.12C325.214 148.05 323.879 148.515 322.259 148.515C320.969 148.515 319.799 148.365 318.749 148.065C317.699 147.735 316.544 147.225 315.284 146.535L312.404 150.63C313.874 151.44 315.464 152.1 317.174 152.61C318.914 153.15 320.564 153.42 322.124 153.42C324.374 153.42 326.324 153 327.974 152.16C329.654 151.32 330.944 150.135 331.844 148.605C332.744 147.075 333.194 145.335 333.194 143.385C333.164 141.645 332.774 140.07 332.024 138.66C331.274 137.22 330.149 136.08 328.649 135.24C327.149 134.37 325.319 133.935 323.159 133.935C321.809 133.935 320.699 134.16 319.829 134.61L320.099 129.255H330.989L331.619 124.53H315.149L314.339 140.73H319.514ZM350.687 150C353.987 150 356.612 149.205 358.562 147.615C360.512 145.995 361.487 143.79 361.487 141C361.487 137.58 359.912 135.045 356.762 133.395C358.952 131.685 360.047 129.87 360.047 127.95C360.047 125.01 359.162 122.85 357.392 121.47C355.622 120.09 353.162 119.4 350.012 119.4H338.132V150H350.687ZM349.157 124.26C350.717 124.26 351.887 124.545 352.667 125.115C353.477 125.685 353.882 126.66 353.882 128.04C353.882 129.3 353.372 130.26 352.352 130.92C351.332 131.55 349.967 131.865 348.257 131.865H343.937V124.26H349.157ZM350.642 136.59C352.112 136.59 353.267 136.98 354.107 137.76C354.977 138.54 355.412 139.635 355.412 141.045C355.412 142.365 354.947 143.385 354.017 144.105C353.087 144.825 351.827 145.185 350.237 145.185H343.937V136.59H350.642ZM374.982 119.4L363.057 150H368.907L371.607 142.8H383.217L385.962 150.45L391.812 149.64L379.932 119.4H374.982ZM381.417 138.075H373.317L377.322 127.41L381.417 138.075ZM402.666 123.945C399.486 123.945 396.591 124.725 393.981 126.285L395.016 130.965C397.686 129.435 400.041 128.67 402.081 128.67C403.581 128.67 404.766 128.97 405.636 129.57C406.536 130.14 406.986 130.98 406.986 132.09C406.986 132.96 406.626 133.89 405.906 134.88C405.186 135.87 404.046 137.025 402.486 138.345L393.396 146.085V150H413.286L412.746 145.545H401.361L405.636 141.99C407.946 140.04 409.566 138.36 410.496 136.95C411.426 135.54 411.891 133.845 411.891 131.865C411.891 130.365 411.516 129.015 410.766 127.815C410.016 126.615 408.951 125.67 407.571 124.98C406.191 124.29 404.556 123.945 402.666 123.945ZM426.574 119.4L414.649 150H420.499L423.199 142.8H434.809L437.554 150.45L443.404 149.64L431.524 119.4H426.574ZM433.009 138.075H424.909L428.914 127.41L433.009 138.075ZM457.497 150V124.53H453.582L444.312 128.625L446.517 132.99L451.647 131.01V150H457.497Z" fill="#202124"/>
<circle cx="615.5" cy="127.5" r="104.5" fill="#202124" stroke="white" stroke-width="4"/>
<path d="M552.54 126.6L551.415 131.64H546.015L547.185 126.735L542.19 126.6L541.02 131.64H535.35L535.845 136.005H539.985L538.86 141.045H535.35L535.845 145.365H537.87L536.745 150.45L541.695 150.675L542.91 145.365H548.31L547.185 150.45L552.18 150.675L553.35 145.365H558.93L558.48 141.045H554.34L555.51 136.005H558.93L558.48 131.64H556.5L557.58 126.735L552.54 126.6ZM550.425 136.005L549.255 141.045H543.945L545.07 136.005H550.425ZM570.674 123.945C567.494 123.945 564.599 124.725 561.989 126.285L563.024 130.965C565.694 129.435 568.049 128.67 570.089 128.67C571.589 128.67 572.774 128.97 573.644 129.57C574.544 130.14 574.994 130.98 574.994 132.09C574.994 132.96 574.634 133.89 573.914 134.88C573.194 135.87 572.054 137.025 570.494 138.345L561.404 146.085V150H581.294L580.754 145.545H569.369L573.644 141.99C575.954 140.04 577.574 138.36 578.504 136.95C579.434 135.54 579.899 133.845 579.899 131.865C579.899 130.365 579.524 129.015 578.774 127.815C578.024 126.615 576.959 125.67 575.579 124.98C574.199 124.29 572.564 123.945 570.674 123.945ZM583.333 137.175C583.333 139.725 583.873 142.02 584.953 144.06C586.033 146.1 587.518 147.705 589.408 148.875C591.328 150.015 593.473 150.585 595.843 150.585C598.213 150.585 600.343 150.015 602.233 148.875C604.153 147.705 605.653 146.1 606.733 144.06C607.813 141.99 608.353 139.665 608.353 137.085C608.353 134.595 607.813 132.345 606.733 130.335C605.683 128.325 604.198 126.765 602.278 125.655C600.388 124.515 598.258 123.945 595.888 123.945C593.488 123.945 591.328 124.515 589.408 125.655C587.518 126.795 586.033 128.37 584.953 130.38C583.873 132.39 583.333 134.655 583.333 137.175ZM588.688 137.04C588.688 135.48 588.988 134.085 589.588 132.855C590.218 131.625 591.073 130.665 592.153 129.975C593.263 129.255 594.493 128.895 595.843 128.895C597.223 128.895 598.453 129.255 599.533 129.975C600.643 130.695 601.513 131.7 602.143 132.99C602.773 134.25 603.088 135.675 603.088 137.265C603.088 138.855 602.773 140.28 602.143 141.54C601.543 142.8 600.688 143.79 599.578 144.51C598.498 145.23 597.268 145.59 595.888 145.59C594.508 145.59 593.263 145.23 592.153 144.51C591.073 143.76 590.218 142.74 589.588 141.45C588.988 140.13 588.688 138.66 588.688 137.04ZM619.893 123.945C616.713 123.945 613.818 124.725 611.208 126.285L612.243 130.965C614.913 129.435 617.268 128.67 619.308 128.67C620.808 128.67 621.993 128.97 622.863 129.57C623.763 130.14 624.213 130.98 624.213 132.09C624.213 132.96 623.853 133.89 623.133 134.88C622.413 135.87 621.273 137.025 619.713 138.345L610.623 146.085V150H630.513L629.973 145.545H618.588L622.863 141.99C625.173 140.04 626.793 138.36 627.723 136.95C628.653 135.54 629.118 133.845 629.118 131.865C629.118 130.365 628.743 129.015 627.993 127.815C627.243 126.615 626.178 125.67 624.798 124.98C623.418 124.29 621.783 123.945 619.893 123.945ZM645.062 150V124.53H641.147L631.877 128.625L634.082 132.99L639.212 131.01V150H645.062ZM658.389 123.945C655.209 123.945 652.314 124.725 649.704 126.285L650.739 130.965C653.409 129.435 655.764 128.67 657.804 128.67C659.304 128.67 660.489 128.97 661.359 129.57C662.259 130.14 662.709 130.98 662.709 132.09C662.709 132.96 662.349 133.89 661.629 134.88C660.909 135.87 659.769 137.025 658.209 138.345L649.119 146.085V150H669.009L668.469 145.545H657.084L661.359 141.99C663.669 140.04 665.289 138.36 666.219 136.95C667.149 135.54 667.614 133.845 667.614 131.865C667.614 130.365 667.239 129.015 666.489 127.815C665.739 126.615 664.674 125.67 663.294 124.98C661.914 124.29 660.279 123.945 658.389 123.945ZM694.223 142.53H689.498V124.305H685.133L670.373 142.53L671.138 147.345H683.603V153.105H689.498V147.345H693.638L694.223 142.53ZM683.603 133.665V142.53H676.673L683.603 133.665Z" fill="white"/>
</svg>
