<svg width="1165" height="645" viewBox="0 0 1165 645" fill="none" xmlns="http://www.w3.org/2000/svg">
<rect width="1165" height="645" fill="#313235"/>
<path d="M619.114 208.947L654.793 242L619.114 275.053L619.103 275.063L619.092 275.074L584 308.916L548.908 275.074L548.897 275.063L548.886 275.053L513.207 242L548.886 208.947L548.897 208.937L548.908 208.926L584 175.084L619.092 208.926L619.103 208.937L619.114 208.947Z" stroke="white" stroke-width="3"/>
<path d="M555.107 225.12L552.131 236H550.915L548.419 227.008L546.067 236H544.851L541.715 225.2L542.963 225.008L545.475 234.272L547.827 225.12H549.059L551.523 234.272L553.891 225.12H555.107ZM560.521 228C561.343 228 561.951 228.251 562.345 228.752C562.751 229.243 562.953 229.904 562.953 230.736V235.984H561.689V230.912C561.689 230.336 561.583 229.888 561.369 229.568C561.156 229.248 560.799 229.088 560.297 229.088C559.913 229.088 559.476 229.221 558.985 229.488C558.505 229.755 558.079 230.091 557.705 230.496V236H556.441V224.864L557.705 224.704V229.232C558.079 228.869 558.521 228.576 559.033 228.352C559.556 228.117 560.052 228 560.521 228ZM565.562 229.664C565.946 229.493 566.298 229.365 566.618 229.28C566.949 229.184 567.344 229.136 567.802 229.136C568.389 229.136 568.816 229.301 569.082 229.632C569.36 229.963 569.498 230.416 569.498 230.992V231.424H567.498C566.656 231.424 565.978 231.632 565.466 232.048C564.954 232.464 564.698 233.045 564.698 233.792C564.698 234.507 564.922 235.088 565.37 235.536C565.829 235.984 566.49 236.208 567.354 236.208C567.76 236.208 568.176 236.112 568.602 235.92C569.029 235.717 569.386 235.483 569.674 235.216L569.834 236H570.778V230.64C570.778 230.139 570.65 229.691 570.394 229.296C570.138 228.901 569.781 228.592 569.322 228.368C568.864 228.144 568.341 228.032 567.754 228.032C567.402 228.032 566.954 228.096 566.41 228.224C565.877 228.352 565.472 228.512 565.194 228.704L565.562 229.664ZM565.866 233.792C565.866 233.365 566.005 233.008 566.282 232.72C566.57 232.421 566.965 232.272 567.466 232.272H569.514V234.032C569.226 234.373 568.89 234.651 568.506 234.864C568.133 235.077 567.738 235.184 567.322 235.184C566.842 235.184 566.48 235.045 566.234 234.768C565.989 234.491 565.866 234.165 565.866 233.792ZM574.367 228.368V226.032L573.103 226.384V228.368H571.967L571.983 229.328H573.103V233.984C573.103 234.709 573.295 235.269 573.679 235.664C574.074 236.048 574.607 236.24 575.279 236.24C575.684 236.24 576.079 236.149 576.463 235.968L576.175 234.976C575.908 235.083 575.674 235.136 575.471 235.136C575.098 235.136 574.82 235.019 574.639 234.784C574.458 234.549 574.367 234.224 574.367 233.808V229.328H576.191L575.775 228.368H574.367ZM583.002 236V233.088L584.074 232.016L586.634 236H588.122L584.922 231.184L587.29 228.832L586.522 228.032L583.002 231.568V224.704L581.738 224.864V236H583.002ZM589.749 226.688C589.984 226.688 590.187 226.608 590.357 226.448C590.528 226.277 590.613 226.075 590.613 225.84C590.613 225.605 590.528 225.403 590.357 225.232C590.187 225.061 589.984 224.976 589.749 224.976C589.504 224.976 589.301 225.061 589.141 225.232C588.981 225.392 588.901 225.595 588.901 225.84C588.901 226.085 588.981 226.288 589.141 226.448C589.301 226.608 589.504 226.688 589.749 226.688ZM590.405 236V228.24H589.125V236H590.405ZM593.67 230.496C594.044 230.091 594.47 229.755 594.95 229.488C595.441 229.221 595.878 229.088 596.262 229.088C596.764 229.088 597.121 229.248 597.334 229.568C597.548 229.888 597.654 230.336 597.654 230.912V235.984H598.918V230.736C598.918 229.904 598.716 229.243 598.31 228.752C597.916 228.251 597.308 228 596.486 228C595.996 228 595.478 228.128 594.934 228.384C594.39 228.64 593.932 228.96 593.558 229.344L593.35 228.24H592.406V236H593.67V230.496ZM607.195 224.72V236H606.427L606.187 235.408C605.867 235.664 605.521 235.861 605.147 236C604.774 236.139 604.422 236.208 604.091 236.208C602.939 236.208 602.033 235.835 601.371 235.088C600.721 234.331 600.395 233.328 600.395 232.08C600.395 231.291 600.545 230.592 600.843 229.984C601.153 229.365 601.585 228.885 602.139 228.544C602.705 228.203 603.366 228.032 604.123 228.032C604.401 228.032 604.694 228.085 605.003 228.192C605.323 228.299 605.627 228.443 605.915 228.624V224.864L607.195 224.72ZM604.075 235.136C604.459 235.136 604.795 235.077 605.083 234.96C605.382 234.832 605.659 234.64 605.915 234.384V229.792C605.403 229.333 604.795 229.104 604.091 229.104C603.323 229.104 602.731 229.381 602.315 229.936C601.899 230.48 601.686 231.189 601.675 232.064C601.675 232.992 601.878 233.739 602.283 234.304C602.699 234.859 603.297 235.136 604.075 235.136ZM620.15 232.144C620.15 232.933 619.99 233.637 619.67 234.256C619.361 234.864 618.913 235.344 618.326 235.696C617.739 236.037 617.057 236.208 616.278 236.208C615.531 236.208 614.881 236.037 614.326 235.696C613.771 235.344 613.345 234.859 613.046 234.24C612.758 233.611 612.614 232.896 612.614 232.096C612.625 231.307 612.779 230.608 613.078 230C613.387 229.381 613.83 228.901 614.406 228.56C614.982 228.208 615.654 228.032 616.422 228.032C617.585 228.032 618.497 228.405 619.158 229.152C619.819 229.888 620.15 230.885 620.15 232.144ZM616.342 235.136C617.11 235.136 617.718 234.859 618.166 234.304C618.614 233.739 618.843 233.024 618.854 232.16C618.854 231.243 618.641 230.507 618.214 229.952C617.787 229.387 617.185 229.104 616.406 229.104C615.638 229.104 615.03 229.387 614.582 229.952C614.134 230.507 613.905 231.216 613.894 232.08C613.894 232.987 614.107 233.723 614.534 234.288C614.961 234.853 615.563 235.136 616.342 235.136ZM622.104 229.328V236H623.368V229.328H625.208L624.792 228.368H623.368V227.232C623.368 226.347 623.731 225.904 624.456 225.904C624.563 225.904 624.685 225.92 624.824 225.952C624.963 225.984 625.075 226.021 625.16 226.064L625.448 225.04C625.309 224.965 625.133 224.901 624.92 224.848C624.707 224.795 624.493 224.768 624.28 224.768C623.608 224.768 623.075 224.987 622.68 225.424C622.296 225.851 622.104 226.427 622.104 227.152V228.368H620.92L620.936 229.328H622.104ZM561.08 260.592C560.707 260.784 560.371 260.923 560.072 261.008C559.773 261.093 559.389 261.136 558.92 261.136C558.141 261.136 557.539 260.853 557.112 260.288C556.685 259.723 556.472 258.987 556.472 258.08C556.483 257.216 556.712 256.507 557.16 255.952C557.608 255.387 558.216 255.104 558.984 255.104C559.432 255.104 559.795 255.147 560.072 255.232C560.36 255.317 560.717 255.451 561.144 255.632L561.528 254.736C561.219 254.533 560.808 254.368 560.296 254.24C559.795 254.101 559.368 254.032 559.016 254.032C558.248 254.032 557.576 254.208 557 254.56C556.424 254.901 555.976 255.381 555.656 256C555.347 256.608 555.192 257.307 555.192 258.096C555.192 258.896 555.341 259.611 555.64 260.24C555.939 260.859 556.371 261.344 556.936 261.696C557.501 262.037 558.168 262.208 558.936 262.208C559.288 262.208 559.72 262.139 560.232 262C560.744 261.872 561.16 261.707 561.48 261.504L561.08 260.592ZM570.056 258.144C570.056 258.933 569.896 259.637 569.576 260.256C569.267 260.864 568.819 261.344 568.232 261.696C567.646 262.037 566.963 262.208 566.184 262.208C565.438 262.208 564.787 262.037 564.232 261.696C563.678 261.344 563.251 260.859 562.952 260.24C562.664 259.611 562.52 258.896 562.52 258.096C562.531 257.307 562.686 256.608 562.984 256C563.294 255.381 563.736 254.901 564.312 254.56C564.888 254.208 565.56 254.032 566.328 254.032C567.491 254.032 568.403 254.405 569.064 255.152C569.726 255.888 570.056 256.885 570.056 258.144ZM566.248 261.136C567.016 261.136 567.624 260.859 568.072 260.304C568.52 259.739 568.75 259.024 568.76 258.16C568.76 257.243 568.547 256.507 568.12 255.952C567.694 255.387 567.091 255.104 566.312 255.104C565.544 255.104 564.936 255.387 564.488 255.952C564.04 256.507 563.811 257.216 563.8 258.08C563.8 258.987 564.014 259.723 564.44 260.288C564.867 260.853 565.47 261.136 566.248 261.136ZM572.842 256.496C573.216 256.091 573.642 255.755 574.122 255.488C574.613 255.221 575.05 255.088 575.434 255.088C575.936 255.088 576.293 255.248 576.506 255.568C576.72 255.888 576.826 256.336 576.826 256.912V261.984H578.09V256.736C578.09 255.904 577.888 255.243 577.482 254.752C577.088 254.251 576.48 254 575.658 254C575.168 254 574.65 254.128 574.106 254.384C573.562 254.64 573.104 254.96 572.73 255.344L572.522 254.24H571.578V262H572.842V256.496ZM581.695 254.368V252.032L580.431 252.384V254.368H579.295L579.311 255.328H580.431V259.984C580.431 260.709 580.623 261.269 581.007 261.664C581.402 262.048 581.935 262.24 582.607 262.24C583.012 262.24 583.407 262.149 583.791 261.968L583.503 260.976C583.236 261.083 583.002 261.136 582.799 261.136C582.426 261.136 582.148 261.019 581.967 260.784C581.786 260.549 581.695 260.224 581.695 259.808V255.328H583.519L583.103 254.368H581.695ZM591.62 258.32C591.62 257.04 591.348 256.005 590.804 255.216C590.271 254.427 589.439 254.032 588.308 254.032C587.561 254.032 586.911 254.208 586.356 254.56C585.812 254.901 585.396 255.381 585.108 256C584.831 256.608 584.692 257.307 584.692 258.096C584.692 259.344 585.039 260.341 585.732 261.088C586.425 261.835 587.433 262.208 588.756 262.208C589.289 262.208 589.775 262.139 590.212 262C590.649 261.851 591.087 261.653 591.524 261.408L591.124 260.48C590.644 260.715 590.228 260.885 589.876 260.992C589.535 261.099 589.156 261.152 588.74 261.152C587.823 261.152 587.14 260.901 586.692 260.4C586.255 259.888 586.02 259.195 585.988 258.32H591.62ZM586.02 257.456C586.095 256.731 586.319 256.16 586.692 255.744C587.076 255.317 587.599 255.104 588.26 255.104C589.487 255.104 590.191 255.888 590.372 257.456H586.02ZM594.42 256.496C594.794 256.091 595.22 255.755 595.7 255.488C596.191 255.221 596.628 255.088 597.012 255.088C597.514 255.088 597.871 255.248 598.084 255.568C598.298 255.888 598.404 256.336 598.404 256.912V261.984H599.668V256.736C599.668 255.904 599.466 255.243 599.06 254.752C598.666 254.251 598.058 254 597.236 254C596.746 254 596.228 254.128 595.684 254.384C595.14 254.64 594.682 254.96 594.308 255.344L594.1 254.24H593.156V262H594.42V256.496ZM603.273 254.368V252.032L602.009 252.384V254.368H600.873L600.889 255.328H602.009V259.984C602.009 260.709 602.201 261.269 602.585 261.664C602.98 262.048 603.513 262.24 604.185 262.24C604.591 262.24 604.985 262.149 605.369 261.968L605.081 260.976C604.815 261.083 604.58 261.136 604.377 261.136C604.004 261.136 603.727 261.019 603.545 260.784C603.364 260.549 603.273 260.224 603.273 259.808V255.328H605.097L604.681 254.368H603.273ZM608.798 250.768C608.222 250.768 607.721 250.848 607.294 251.008C606.878 251.157 606.414 251.397 605.902 251.728L606.062 252.832C606.542 252.501 606.985 252.256 607.39 252.096C607.806 251.936 608.26 251.856 608.75 251.856C609.358 251.856 609.817 251.989 610.126 252.256C610.436 252.512 610.59 252.917 610.59 253.472C610.59 254.027 610.334 254.539 609.822 255.008C609.321 255.477 608.649 255.845 607.806 256.112L607.934 259.248L608.862 259.616L609.022 256.752C609.876 256.357 610.558 255.861 611.07 255.264C611.593 254.656 611.854 254.053 611.854 253.456C611.854 252.635 611.598 251.984 611.086 251.504C610.574 251.013 609.812 250.768 608.798 250.768ZM608.35 260.288C608.116 260.288 607.913 260.373 607.742 260.544C607.582 260.704 607.502 260.901 607.502 261.136C607.502 261.381 607.582 261.589 607.742 261.76C607.913 261.92 608.116 262 608.35 262C608.596 262 608.804 261.915 608.974 261.744C609.145 261.573 609.23 261.371 609.23 261.136C609.23 260.901 609.145 260.704 608.974 260.544C608.804 260.373 608.596 260.288 608.35 260.288Z" fill="white"/>
<path d="M582.293 165.707C582.683 166.098 583.317 166.098 583.707 165.707L590.071 159.343C590.462 158.953 590.462 158.319 590.071 157.929C589.681 157.538 589.047 157.538 588.657 157.929L583 163.586L577.343 157.929C576.953 157.538 576.319 157.538 575.929 157.929C575.538 158.319 575.538 158.953 575.929 159.343L582.293 165.707ZM582 105V165H584V105H582Z" fill="white"/>
<path d="M790.707 242.707C791.098 242.317 791.098 241.683 790.707 241.293L784.343 234.929C783.953 234.538 783.319 234.538 782.929 234.929C782.538 235.319 782.538 235.953 782.929 236.343L788.586 242L782.929 247.657C782.538 248.047 782.538 248.681 782.929 249.071C783.319 249.462 783.953 249.462 784.343 249.071L790.707 242.707ZM662 243H790V241H662V243Z" fill="white"/>
<path d="M377.29 241.861C376.901 242.253 376.904 242.886 377.296 243.275L383.688 249.611C384.08 250 384.713 249.997 385.102 249.605C385.491 249.212 385.488 248.579 385.096 248.19L379.414 242.558L385.046 236.877C385.435 236.484 385.432 235.851 385.04 235.463C384.648 235.074 384.014 235.076 383.626 235.469L377.29 241.861ZM505.994 241L377.996 241.565L378.004 243.565L506.003 243L505.994 241Z" fill="white"/>
<path d="M899.668 212.933L932.728 242L899.668 271.067L899.657 271.077L899.646 271.087L867 300.967L834.354 271.087L834.343 271.077L834.332 271.067L801.272 242L834.332 212.933L834.343 212.923L834.354 212.913L867 183.033L899.646 212.913L899.657 212.923L899.668 212.933Z" stroke="white" stroke-width="3"/>
<path d="M851.398 235.344V238.8C850.801 239.013 850.182 239.12 849.542 239.12C848.763 239.12 848.059 238.939 847.43 238.576C846.811 238.203 846.321 237.675 845.958 236.992C845.606 236.309 845.43 235.515 845.43 234.608C845.43 233.659 845.627 232.837 846.022 232.144C846.427 231.44 846.955 230.907 847.606 230.544C848.267 230.171 848.977 229.984 849.734 229.984C850.225 229.984 850.625 230.021 850.934 230.096C851.243 230.16 851.611 230.272 852.038 230.432L852.438 229.52C852.129 229.328 851.691 229.179 851.126 229.072C850.571 228.955 850.097 228.896 849.702 228.896C848.657 228.896 847.707 229.141 846.854 229.632C846.001 230.112 845.329 230.789 844.838 231.664C844.347 232.528 844.102 233.515 844.102 234.624C844.102 235.68 844.326 236.635 844.774 237.488C845.222 238.331 845.857 238.997 846.678 239.488C847.51 239.979 848.47 240.224 849.558 240.224C850.091 240.224 850.646 240.149 851.222 240C851.798 239.861 852.257 239.685 852.598 239.472L852.614 234.4H849.11L848.998 235.344H851.398ZM861.509 236.144C861.509 236.933 861.349 237.637 861.029 238.256C860.72 238.864 860.272 239.344 859.685 239.696C859.099 240.037 858.416 240.208 857.637 240.208C856.891 240.208 856.24 240.037 855.685 239.696C855.131 239.344 854.704 238.859 854.405 238.24C854.117 237.611 853.973 236.896 853.973 236.096C853.984 235.307 854.139 234.608 854.437 234C854.747 233.381 855.189 232.901 855.765 232.56C856.341 232.208 857.013 232.032 857.781 232.032C858.944 232.032 859.856 232.405 860.517 233.152C861.179 233.888 861.509 234.885 861.509 236.144ZM857.701 239.136C858.469 239.136 859.077 238.859 859.525 238.304C859.973 237.739 860.203 237.024 860.213 236.16C860.213 235.243 860 234.507 859.573 233.952C859.147 233.387 858.544 233.104 857.765 233.104C856.997 233.104 856.389 233.387 855.941 233.952C855.493 234.507 855.264 235.216 855.253 236.08C855.253 236.987 855.467 237.723 855.893 238.288C856.32 238.853 856.923 239.136 857.701 239.136ZM870.087 236.144C870.087 236.933 869.927 237.637 869.607 238.256C869.298 238.864 868.85 239.344 868.263 239.696C867.677 240.037 866.994 240.208 866.215 240.208C865.469 240.208 864.818 240.037 864.263 239.696C863.709 239.344 863.282 238.859 862.983 238.24C862.695 237.611 862.551 236.896 862.551 236.096C862.562 235.307 862.717 234.608 863.015 234C863.325 233.381 863.767 232.901 864.343 232.56C864.919 232.208 865.591 232.032 866.359 232.032C867.522 232.032 868.434 232.405 869.095 233.152C869.757 233.888 870.087 234.885 870.087 236.144ZM866.279 239.136C867.047 239.136 867.655 238.859 868.103 238.304C868.551 237.739 868.781 237.024 868.791 236.16C868.791 235.243 868.578 234.507 868.151 233.952C867.725 233.387 867.122 233.104 866.343 233.104C865.575 233.104 864.967 233.387 864.519 233.952C864.071 234.507 863.842 235.216 863.831 236.08C863.831 236.987 864.045 237.723 864.471 238.288C864.898 238.853 865.501 239.136 866.279 239.136ZM877.93 232.24V240.848C877.93 241.392 877.791 241.877 877.514 242.304C877.236 242.731 876.831 243.067 876.298 243.312C875.764 243.557 875.14 243.68 874.426 243.68C874.063 243.68 873.599 243.611 873.034 243.472C872.479 243.344 872.042 243.179 871.722 242.976L872.106 242.048C872.522 242.251 872.89 242.4 873.21 242.496C873.54 242.592 873.93 242.64 874.378 242.64C875.05 242.64 875.594 242.485 876.01 242.176C876.436 241.867 876.65 241.419 876.65 240.832V239.6C876.362 239.792 876.052 239.941 875.722 240.048C875.402 240.155 875.103 240.208 874.826 240.208C873.674 240.208 872.767 239.835 872.106 239.088C871.455 238.331 871.13 237.328 871.13 236.08C871.13 235.291 871.279 234.592 871.578 233.984C871.887 233.365 872.319 232.885 872.874 232.544C873.439 232.203 874.1 232.032 874.858 232.032C875.178 232.032 875.519 232.101 875.882 232.24C876.244 232.379 876.58 232.565 876.89 232.8L877.162 232.24H877.93ZM874.81 239.136C875.194 239.136 875.53 239.077 875.818 238.96C876.116 238.832 876.394 238.64 876.65 238.384V233.792C876.138 233.333 875.53 233.104 874.826 233.104C874.058 233.104 873.466 233.381 873.05 233.936C872.634 234.48 872.42 235.189 872.41 236.064C872.41 236.992 872.612 237.739 873.018 238.304C873.434 238.859 874.031 239.136 874.81 239.136ZM881.455 240V228.704L880.191 228.864V240H881.455ZM890.058 236.32C890.058 235.04 889.786 234.005 889.242 233.216C888.708 232.427 887.876 232.032 886.746 232.032C885.999 232.032 885.348 232.208 884.794 232.56C884.25 232.901 883.834 233.381 883.546 234C883.268 234.608 883.13 235.307 883.13 236.096C883.13 237.344 883.476 238.341 884.17 239.088C884.863 239.835 885.871 240.208 887.194 240.208C887.727 240.208 888.212 240.139 888.65 240C889.087 239.851 889.524 239.653 889.962 239.408L889.562 238.48C889.082 238.715 888.666 238.885 888.314 238.992C887.972 239.099 887.594 239.152 887.178 239.152C886.26 239.152 885.578 238.901 885.13 238.4C884.692 237.888 884.458 237.195 884.426 236.32H890.058ZM884.458 235.456C884.532 234.731 884.756 234.16 885.13 233.744C885.514 233.317 886.036 233.104 886.698 233.104C887.924 233.104 888.628 233.888 888.81 235.456H884.458ZM851.333 265.472C851.621 265.664 852.074 265.835 852.693 265.984C853.311 266.133 853.855 266.208 854.325 266.208C855.114 266.208 855.797 266.085 856.373 265.84C856.959 265.595 857.402 265.259 857.701 264.832C858.01 264.405 858.165 263.915 858.165 263.36C858.165 262.848 858.058 262.411 857.845 262.048C857.631 261.675 857.317 261.344 856.901 261.056C856.495 260.768 855.957 260.469 855.285 260.16C854.538 259.819 853.973 259.536 853.589 259.312C853.205 259.088 852.906 258.843 852.693 258.576C852.49 258.299 852.389 257.968 852.389 257.584C852.389 257.072 852.597 256.672 853.013 256.384C853.439 256.096 854.005 255.952 854.709 255.952C855.178 255.952 855.573 256 855.893 256.096C856.223 256.192 856.586 256.331 856.981 256.512L857.413 255.536C857.039 255.344 856.607 255.184 856.117 255.056C855.637 254.928 855.141 254.864 854.629 254.864C853.935 254.864 853.322 254.987 852.789 255.232C852.266 255.467 851.861 255.792 851.573 256.208C851.295 256.624 851.157 257.088 851.157 257.6C851.157 258.325 851.386 258.939 851.845 259.44C852.314 259.941 853.045 260.405 854.037 260.832C854.73 261.131 855.274 261.397 855.669 261.632C856.074 261.856 856.383 262.112 856.597 262.4C856.81 262.677 856.917 263.003 856.917 263.376C856.917 263.899 856.687 264.325 856.229 264.656C855.781 264.976 855.141 265.136 854.309 265.136C853.839 265.136 853.359 265.072 852.869 264.944C852.389 264.805 851.978 264.651 851.637 264.48L851.333 265.472ZM864.864 263.728C864.491 264.133 864.059 264.469 863.568 264.736C863.088 265.003 862.656 265.136 862.272 265.136C861.771 265.136 861.413 264.976 861.2 264.656C860.987 264.336 860.88 263.888 860.88 263.312V258.24H859.616V263.488C859.616 264.32 859.813 264.987 860.208 265.488C860.613 265.979 861.227 266.224 862.048 266.224C862.539 266.224 863.056 266.096 863.6 265.84C864.144 265.584 864.603 265.264 864.976 264.88L865.184 266H866.128V258.224H864.864V263.728ZM868.773 256.688C869.007 256.688 869.21 256.608 869.381 256.448C869.551 256.277 869.637 256.075 869.637 255.84C869.637 255.605 869.551 255.403 869.381 255.232C869.21 255.061 869.007 254.976 868.773 254.976C868.527 254.976 868.325 255.061 868.165 255.232C868.005 255.392 867.925 255.595 867.925 255.84C867.925 256.085 868.005 256.288 868.165 256.448C868.325 256.608 868.527 256.688 868.773 256.688ZM869.429 266V258.24H868.149V266H869.429ZM873.078 258.368V256.032L871.814 256.384V258.368H870.678L870.694 259.328H871.814V263.984C871.814 264.709 872.006 265.269 872.39 265.664C872.785 266.048 873.318 266.24 873.99 266.24C874.395 266.24 874.79 266.149 875.174 265.968L874.886 264.976C874.619 265.083 874.385 265.136 874.182 265.136C873.809 265.136 873.531 265.019 873.35 264.784C873.169 264.549 873.078 264.224 873.078 263.808V259.328H874.902L874.486 258.368H873.078ZM883.003 262.32C883.003 261.04 882.731 260.005 882.187 259.216C881.654 258.427 880.822 258.032 879.691 258.032C878.944 258.032 878.294 258.208 877.739 258.56C877.195 258.901 876.779 259.381 876.491 260C876.214 260.608 876.075 261.307 876.075 262.096C876.075 263.344 876.422 264.341 877.115 265.088C877.808 265.835 878.816 266.208 880.139 266.208C880.672 266.208 881.158 266.139 881.595 266C882.032 265.851 882.47 265.653 882.907 265.408L882.507 264.48C882.027 264.715 881.611 264.885 881.259 264.992C880.918 265.099 880.539 265.152 880.123 265.152C879.206 265.152 878.523 264.901 878.075 264.4C877.638 263.888 877.403 263.195 877.371 262.32H883.003ZM877.403 261.456C877.478 260.731 877.702 260.16 878.075 259.744C878.459 259.317 878.982 259.104 879.643 259.104C880.87 259.104 881.574 259.888 881.755 261.456H877.403Z" fill="white"/>
<path d="M331.114 208.947L366.793 242L331.114 275.053L331.103 275.063L331.092 275.074L296 308.916L260.908 275.074L260.897 275.063L260.886 275.053L225.207 242L260.886 208.947L260.897 208.937L260.908 208.926L296 175.084L331.092 208.926L331.103 208.937L331.114 208.947Z" stroke="white" stroke-width="3"/>
<path d="M272.009 234.336L275.049 229.808V238H276.329V227.12H275.529L271.753 232.672L267.849 227.12H267.097V238H268.361V229.776L271.577 234.416L272.009 234.336ZM279.445 228.688C279.679 228.688 279.882 228.608 280.053 228.448C280.223 228.277 280.309 228.075 280.309 227.84C280.309 227.605 280.223 227.403 280.053 227.232C279.882 227.061 279.679 226.976 279.445 226.976C279.199 226.976 278.997 227.061 278.837 227.232C278.677 227.392 278.597 227.595 278.597 227.84C278.597 228.085 278.677 228.288 278.837 228.448C278.997 228.608 279.199 228.688 279.445 228.688ZM280.101 238V230.24H278.821V238H280.101ZM287.51 236.592C287.136 236.784 286.8 236.923 286.502 237.008C286.203 237.093 285.819 237.136 285.35 237.136C284.571 237.136 283.968 236.853 283.542 236.288C283.115 235.723 282.902 234.987 282.902 234.08C282.912 233.216 283.142 232.507 283.59 231.952C284.038 231.387 284.646 231.104 285.414 231.104C285.862 231.104 286.224 231.147 286.502 231.232C286.79 231.317 287.147 231.451 287.574 231.632L287.958 230.736C287.648 230.533 287.238 230.368 286.726 230.24C286.224 230.101 285.798 230.032 285.446 230.032C284.678 230.032 284.006 230.208 283.43 230.56C282.854 230.901 282.406 231.381 282.086 232C281.776 232.608 281.622 233.307 281.622 234.096C281.622 234.896 281.771 235.611 282.07 236.24C282.368 236.859 282.8 237.344 283.366 237.696C283.931 238.037 284.598 238.208 285.366 238.208C285.718 238.208 286.15 238.139 286.662 238C287.174 237.872 287.59 237.707 287.91 237.504L287.51 236.592ZM290.694 232.656C291.057 232.283 291.499 231.957 292.022 231.68C292.545 231.392 293.019 231.248 293.446 231.248L293.142 230.24C292.769 230.24 292.337 230.373 291.846 230.64C291.355 230.907 290.934 231.189 290.582 231.488L290.182 230.24H289.43V238H290.694V232.656ZM301.673 234.144C301.673 234.933 301.513 235.637 301.193 236.256C300.884 236.864 300.436 237.344 299.849 237.696C299.263 238.037 298.58 238.208 297.801 238.208C297.055 238.208 296.404 238.037 295.849 237.696C295.295 237.344 294.868 236.859 294.569 236.24C294.281 235.611 294.137 234.896 294.137 234.096C294.148 233.307 294.303 232.608 294.601 232C294.911 231.381 295.353 230.901 295.929 230.56C296.505 230.208 297.177 230.032 297.945 230.032C299.108 230.032 300.02 230.405 300.681 231.152C301.343 231.888 301.673 232.885 301.673 234.144ZM297.865 237.136C298.633 237.136 299.241 236.859 299.689 236.304C300.137 235.739 300.367 235.024 300.377 234.16C300.377 233.243 300.164 232.507 299.737 231.952C299.311 231.387 298.708 231.104 297.929 231.104C297.161 231.104 296.553 231.387 296.105 231.952C295.657 232.507 295.428 233.216 295.417 234.08C295.417 234.987 295.631 235.723 296.057 236.288C296.484 236.853 297.087 237.136 297.865 237.136ZM302.796 237.552C303.084 237.755 303.478 237.915 303.98 238.032C304.481 238.149 304.913 238.208 305.276 238.208C306.278 238.208 307.046 238.011 307.58 237.616C308.124 237.221 308.396 236.667 308.396 235.952C308.396 234.949 307.526 234.128 305.788 233.488C305.212 233.296 304.769 233.099 304.46 232.896C304.15 232.693 303.99 232.453 303.98 232.176C303.98 231.845 304.129 231.579 304.428 231.376C304.737 231.163 305.132 231.056 305.612 231.056C306.006 231.056 306.358 231.104 306.668 231.2C306.977 231.296 307.308 231.424 307.66 231.584L308.06 230.72C307.782 230.517 307.398 230.352 306.908 230.224C306.428 230.096 306.006 230.032 305.644 230.032C304.748 230.032 304.038 230.229 303.516 230.624C303.004 231.008 302.748 231.541 302.748 232.224C302.748 232.789 302.982 233.253 303.452 233.616C303.921 233.979 304.529 234.283 305.276 234.528C306.556 234.955 307.196 235.456 307.196 236.032C307.196 236.395 307.025 236.677 306.684 236.88C306.342 237.083 305.878 237.184 305.292 237.184C304.62 237.184 303.921 237.003 303.196 236.64L302.796 237.552ZM316.97 234.144C316.97 234.933 316.81 235.637 316.49 236.256C316.181 236.864 315.733 237.344 315.146 237.696C314.56 238.037 313.877 238.208 313.098 238.208C312.352 238.208 311.701 238.037 311.146 237.696C310.592 237.344 310.165 236.859 309.866 236.24C309.578 235.611 309.434 234.896 309.434 234.096C309.445 233.307 309.6 232.608 309.898 232C310.208 231.381 310.65 230.901 311.226 230.56C311.802 230.208 312.474 230.032 313.242 230.032C314.405 230.032 315.317 230.405 315.978 231.152C316.64 231.888 316.97 232.885 316.97 234.144ZM313.162 237.136C313.93 237.136 314.538 236.859 314.986 236.304C315.434 235.739 315.664 235.024 315.674 234.16C315.674 233.243 315.461 232.507 315.034 231.952C314.608 231.387 314.005 231.104 313.226 231.104C312.458 231.104 311.85 231.387 311.402 231.952C310.954 232.507 310.725 233.216 310.714 234.08C310.714 234.987 310.928 235.723 311.354 236.288C311.781 236.853 312.384 237.136 313.162 237.136ZM318.924 231.328V238H320.188V231.328H322.028L321.612 230.368H320.188V229.232C320.188 228.347 320.551 227.904 321.276 227.904C321.383 227.904 321.506 227.92 321.644 227.952C321.783 227.984 321.895 228.021 321.98 228.064L322.268 227.04C322.13 226.965 321.954 226.901 321.74 226.848C321.527 226.795 321.314 226.768 321.1 226.768C320.428 226.768 319.895 226.987 319.5 227.424C319.116 227.851 318.924 228.427 318.924 229.152V230.368H317.74L317.756 231.328H318.924ZM324.922 230.368V228.032L323.658 228.384V230.368H322.522L322.538 231.328H323.658V235.984C323.658 236.709 323.85 237.269 324.234 237.664C324.628 238.048 325.162 238.24 325.834 238.24C326.239 238.24 326.634 238.149 327.018 237.968L326.73 236.976C326.463 237.083 326.228 237.136 326.026 237.136C325.652 237.136 325.375 237.019 325.194 236.784C325.012 236.549 324.922 236.224 324.922 235.808V231.328H326.746L326.33 230.368H324.922ZM282.449 252.864C281.468 252.885 280.588 253.147 279.809 253.648C279.03 254.149 278.417 254.832 277.969 255.696C277.532 256.56 277.313 257.531 277.313 258.608C277.313 259.685 277.532 260.651 277.969 261.504C278.406 262.357 279.009 263.024 279.777 263.504C280.545 263.984 281.414 264.224 282.385 264.224C283.366 264.213 284.252 263.957 285.041 263.456C285.83 262.955 286.444 262.272 286.881 261.408C287.329 260.533 287.553 259.557 287.553 258.48C287.553 257.403 287.334 256.437 286.897 255.584C286.46 254.731 285.852 254.064 285.073 253.584C284.294 253.104 283.42 252.864 282.449 252.864ZM278.641 258.592C278.641 257.707 278.806 256.917 279.137 256.224C279.468 255.52 279.921 254.971 280.497 254.576C281.084 254.171 281.745 253.968 282.481 253.968C283.196 253.968 283.83 254.165 284.385 254.56C284.95 254.944 285.393 255.483 285.713 256.176C286.033 256.859 286.193 257.632 286.193 258.496C286.193 259.381 286.028 260.176 285.697 260.88C285.366 261.584 284.908 262.133 284.321 262.528C283.745 262.923 283.089 263.12 282.353 263.12C281.638 263.12 280.998 262.928 280.433 262.544C279.878 262.149 279.441 261.611 279.121 260.928C278.801 260.235 278.641 259.456 278.641 258.592ZM289.659 257.328V264H290.923V257.328H292.763L292.347 256.368H290.923V255.232C290.923 254.347 291.285 253.904 292.011 253.904C292.117 253.904 292.24 253.92 292.379 253.952C292.517 253.984 292.629 254.021 292.715 254.064L293.003 253.04C292.864 252.965 292.688 252.901 292.475 252.848C292.261 252.795 292.048 252.768 291.835 252.768C291.163 252.768 290.629 252.987 290.235 253.424C289.851 253.851 289.659 254.427 289.659 255.152V256.368H288.475L288.491 257.328H289.659ZM294.44 257.328V264H295.704V257.328H297.544L297.128 256.368H295.704V255.232C295.704 254.347 296.067 253.904 296.792 253.904C296.899 253.904 297.021 253.92 297.16 253.952C297.299 253.984 297.411 254.021 297.496 254.064L297.784 253.04C297.645 252.965 297.469 252.901 297.256 252.848C297.043 252.795 296.829 252.768 296.616 252.768C295.944 252.768 295.411 252.987 295.016 253.424C294.632 253.851 294.44 254.427 294.44 255.152V256.368H293.256L293.272 257.328H294.44ZM299.413 254.688C299.648 254.688 299.851 254.608 300.021 254.448C300.192 254.277 300.277 254.075 300.277 253.84C300.277 253.605 300.192 253.403 300.021 253.232C299.851 253.061 299.648 252.976 299.413 252.976C299.168 252.976 298.965 253.061 298.805 253.232C298.645 253.392 298.565 253.595 298.565 253.84C298.565 254.085 298.645 254.288 298.805 254.448C298.965 254.608 299.168 254.688 299.413 254.688ZM300.069 264V256.24H298.789V264H300.069ZM307.479 262.592C307.105 262.784 306.769 262.923 306.471 263.008C306.172 263.093 305.788 263.136 305.319 263.136C304.54 263.136 303.937 262.853 303.511 262.288C303.084 261.723 302.871 260.987 302.871 260.08C302.881 259.216 303.111 258.507 303.559 257.952C304.007 257.387 304.615 257.104 305.383 257.104C305.831 257.104 306.193 257.147 306.471 257.232C306.759 257.317 307.116 257.451 307.543 257.632L307.927 256.736C307.617 256.533 307.207 256.368 306.695 256.24C306.193 256.101 305.767 256.032 305.415 256.032C304.647 256.032 303.975 256.208 303.399 256.56C302.823 256.901 302.375 257.381 302.055 258C301.745 258.608 301.59 259.307 301.59 260.096C301.59 260.896 301.74 261.611 302.039 262.24C302.337 262.859 302.769 263.344 303.335 263.696C303.9 264.037 304.567 264.208 305.335 264.208C305.687 264.208 306.119 264.139 306.631 264C307.143 263.872 307.559 263.707 307.879 263.504L307.479 262.592ZM315.847 260.32C315.847 259.04 315.575 258.005 315.031 257.216C314.497 256.427 313.665 256.032 312.535 256.032C311.788 256.032 311.137 256.208 310.583 256.56C310.039 256.901 309.623 257.381 309.335 258C309.057 258.608 308.919 259.307 308.919 260.096C308.919 261.344 309.265 262.341 309.959 263.088C310.652 263.835 311.66 264.208 312.983 264.208C313.516 264.208 314.001 264.139 314.439 264C314.876 263.851 315.313 263.653 315.751 263.408L315.351 262.48C314.871 262.715 314.455 262.885 314.103 262.992C313.761 263.099 313.383 263.152 312.967 263.152C312.049 263.152 311.367 262.901 310.919 262.4C310.481 261.888 310.247 261.195 310.215 260.32H315.847ZM310.247 259.456C310.321 258.731 310.545 258.16 310.919 257.744C311.303 257.317 311.825 257.104 312.487 257.104C313.713 257.104 314.417 257.888 314.599 259.456H310.247Z" fill="white"/>
<path d="M187.5 339.474L187.5 338.474L186.5 338.474L186.5 339.474L187.5 339.474ZM186.793 367.207C187.184 367.598 187.817 367.598 188.207 367.207L194.571 360.843C194.962 360.453 194.962 359.819 194.571 359.429C194.181 359.038 193.548 359.038 193.157 359.429L187.5 365.086L181.844 359.429C181.453 359.038 180.82 359.038 180.429 359.429C180.039 359.819 180.039 360.453 180.429 360.843L186.793 367.207ZM288.617 338.474L187.5 338.474L187.5 340.474L288.617 340.474L288.617 338.474ZM186.5 339.474L186.5 366.5L188.5 366.5L188.5 339.474L186.5 339.474Z" fill="white"/>
<path d="M432.5 338.494L433.5 338.494L433.5 337.494L432.5 337.494L432.5 338.494ZM431.793 366.707C432.183 367.098 432.817 367.098 433.207 366.707L439.571 360.343C439.962 359.953 439.962 359.319 439.571 358.929C439.181 358.538 438.547 358.538 438.157 358.929L432.5 364.586L426.843 358.929C426.453 358.538 425.819 358.538 425.429 358.929C425.038 359.319 425.038 359.953 425.429 360.343L431.793 366.707ZM304.617 339.494L432.5 339.494L432.5 337.494L304.617 337.494V339.494ZM431.5 338.494L431.5 366L433.5 366L433.5 338.494L431.5 338.494Z" fill="white"/>
<path d="M295.684 361.715C296.072 362.107 296.705 362.111 297.098 361.722L303.497 355.394C303.89 355.005 303.893 354.372 303.505 353.979C303.116 353.587 302.483 353.583 302.091 353.972L296.403 359.597L290.777 353.909C290.389 353.517 289.756 353.513 289.363 353.902C288.97 354.29 288.967 354.923 289.355 355.316L295.684 361.715ZM295.615 320.994L295.395 361.006L297.395 361.017L297.615 321.006L295.615 320.994Z" fill="white"/>
<path d="M751.116 327.479L751.116 326.479L750.116 326.479L750.116 327.479L751.116 327.479ZM750.409 354.707C750.8 355.098 751.433 355.098 751.823 354.707L758.187 348.343C758.578 347.953 758.578 347.319 758.187 346.929C757.797 346.538 757.164 346.538 756.773 346.929L751.116 352.586L745.459 346.929C745.069 346.538 744.436 346.538 744.045 346.929C743.655 347.319 743.655 347.953 744.045 348.343L750.409 354.707ZM859.617 326.474L751.116 326.479L751.116 328.479L859.618 328.474L859.617 326.474ZM750.116 327.479L750.116 354L752.116 354L752.116 327.479L750.116 327.479Z" fill="white"/>
<path d="M984.119 326.474L985.119 326.474L985.119 325.474L984.118 325.474L984.119 326.474ZM983.412 354.16C983.802 354.551 984.435 354.551 984.826 354.16L991.19 347.796C991.58 347.406 991.58 346.773 991.19 346.382C990.799 345.991 990.166 345.992 989.775 346.382L984.119 352.039L978.462 346.382C978.071 345.992 977.438 345.992 977.048 346.382C976.657 346.773 976.657 347.406 977.048 347.796L983.412 354.16ZM875.617 327.494L984.119 327.474L984.118 325.474L875.617 325.494L875.617 327.494ZM983.119 326.475L983.119 353.453L985.119 353.453L985.119 326.474L983.119 326.475Z" fill="white"/>
<path d="M867.591 349.729C867.989 350.112 868.622 350.099 869.005 349.701L875.242 343.213C875.625 342.815 875.613 342.182 875.214 341.799C874.816 341.416 874.183 341.429 873.801 341.827L868.256 347.594L862.489 342.05C862.091 341.667 861.458 341.679 861.075 342.078C860.692 342.476 860.705 343.109 861.103 343.492L867.591 349.729ZM866.496 309.023L867.284 349.028L869.284 348.988L868.495 308.984L866.496 309.023Z" fill="white"/>
<rect x="132.5" y="384.5" width="107" height="47" stroke="white" stroke-width="3"/>
<rect x="253.5" y="384.5" width="107" height="47" stroke="white" stroke-width="3"/>
<rect x="377.5" y="384.5" width="107" height="47" stroke="white" stroke-width="3"/>
<rect x="687.5" y="374.5" width="107" height="47" stroke="white" stroke-width="3"/>
<rect x="814.5" y="374.5" width="107" height="47" stroke="white" stroke-width="3"/>
<rect x="940.5" y="374.5" width="107" height="47" stroke="white" stroke-width="3"/>
<path d="M146.752 410.888H148.288C149.504 410.888 150.501 410.6 151.28 410.024C152.059 409.437 152.453 408.579 152.464 407.448C152.464 406.307 152.101 405.469 151.376 404.936C150.651 404.392 149.675 404.12 148.448 404.12H145.488V415H146.752V410.888ZM148.464 405.192C149.349 405.192 150.021 405.368 150.48 405.72C150.939 406.061 151.168 406.653 151.168 407.496C151.147 408.285 150.88 408.872 150.368 409.256C149.856 409.629 149.179 409.816 148.336 409.816H146.752V405.192H148.464ZM161.048 411.144C161.048 411.933 160.888 412.637 160.568 413.256C160.259 413.864 159.811 414.344 159.224 414.696C158.638 415.037 157.955 415.208 157.176 415.208C156.43 415.208 155.779 415.037 155.224 414.696C154.67 414.344 154.243 413.859 153.944 413.24C153.656 412.611 153.512 411.896 153.512 411.096C153.523 410.307 153.678 409.608 153.976 409C154.286 408.381 154.728 407.901 155.304 407.56C155.88 407.208 156.552 407.032 157.32 407.032C158.483 407.032 159.395 407.405 160.056 408.152C160.718 408.888 161.048 409.885 161.048 411.144ZM157.24 414.136C158.008 414.136 158.616 413.859 159.064 413.304C159.512 412.739 159.742 412.024 159.752 411.16C159.752 410.243 159.539 409.507 159.112 408.952C158.686 408.387 158.083 408.104 157.304 408.104C156.536 408.104 155.928 408.387 155.48 408.952C155.032 409.507 154.803 410.216 154.792 411.08C154.792 411.987 155.006 412.723 155.432 413.288C155.859 413.853 156.462 414.136 157.24 414.136ZM169.867 415L172.155 407.24H170.875L169.243 413.192L167.515 407.24H166.235L164.603 413.192L162.875 407L161.723 407.48L163.979 415H165.211L166.859 409.096L168.619 415H169.867ZM179.769 411.32C179.769 410.04 179.497 409.005 178.953 408.216C178.419 407.427 177.587 407.032 176.457 407.032C175.71 407.032 175.059 407.208 174.505 407.56C173.961 407.901 173.545 408.381 173.257 409C172.979 409.608 172.84 410.307 172.84 411.096C172.84 412.344 173.187 413.341 173.881 414.088C174.574 414.835 175.582 415.208 176.905 415.208C177.438 415.208 177.923 415.139 178.361 415C178.798 414.851 179.235 414.653 179.673 414.408L179.273 413.48C178.793 413.715 178.377 413.885 178.025 413.992C177.683 414.099 177.305 414.152 176.889 414.152C175.971 414.152 175.289 413.901 174.841 413.4C174.403 412.888 174.169 412.195 174.137 411.32H179.769ZM174.169 410.456C174.243 409.731 174.467 409.16 174.841 408.744C175.225 408.317 175.747 408.104 176.409 408.104C177.635 408.104 178.339 408.888 178.521 410.456H174.169ZM182.569 409.656C182.932 409.283 183.374 408.957 183.897 408.68C184.42 408.392 184.894 408.248 185.321 408.248L185.017 407.24C184.644 407.24 184.212 407.373 183.721 407.64C183.23 407.907 182.809 408.189 182.457 408.488L182.057 407.24H181.305V415H182.569V409.656ZM188.236 410.888H189.772C190.988 410.888 191.986 410.6 192.764 410.024C193.543 409.437 193.938 408.579 193.948 407.448C193.948 406.307 193.586 405.469 192.86 404.936C192.135 404.392 191.159 404.12 189.932 404.12H186.972V415H188.236V410.888ZM189.948 405.192C190.834 405.192 191.506 405.368 191.964 405.72C192.423 406.061 192.652 406.653 192.652 407.496C192.631 408.285 192.364 408.872 191.852 409.256C191.34 409.629 190.663 409.816 189.82 409.816H188.236V405.192H189.948ZM202.533 411.144C202.533 411.933 202.373 412.637 202.053 413.256C201.743 413.864 201.295 414.344 200.709 414.696C200.122 415.037 199.439 415.208 198.661 415.208C197.914 415.208 197.263 415.037 196.709 414.696C196.154 414.344 195.727 413.859 195.429 413.24C195.141 412.611 194.997 411.896 194.997 411.096C195.007 410.307 195.162 409.608 195.461 409C195.77 408.381 196.213 407.901 196.789 407.56C197.365 407.208 198.037 407.032 198.805 407.032C199.967 407.032 200.879 407.405 201.541 408.152C202.202 408.888 202.533 409.885 202.533 411.144ZM198.725 414.136C199.493 414.136 200.101 413.859 200.549 413.304C200.997 412.739 201.226 412.024 201.237 411.16C201.237 410.243 201.023 409.507 200.597 408.952C200.17 408.387 199.567 408.104 198.789 408.104C198.021 408.104 197.413 408.387 196.965 408.952C196.517 409.507 196.287 410.216 196.277 411.08C196.277 411.987 196.49 412.723 196.917 413.288C197.343 413.853 197.946 414.136 198.725 414.136ZM204.679 405.688C204.914 405.688 205.116 405.608 205.287 405.448C205.458 405.277 205.543 405.075 205.543 404.84C205.543 404.605 205.458 404.403 205.287 404.232C205.116 404.061 204.914 403.976 204.679 403.976C204.434 403.976 204.231 404.061 204.071 404.232C203.911 404.392 203.831 404.595 203.831 404.84C203.831 405.085 203.911 405.288 204.071 405.448C204.231 405.608 204.434 405.688 204.679 405.688ZM205.335 415V407.24H204.055V415H205.335ZM208.6 409.496C208.973 409.091 209.4 408.755 209.88 408.488C210.371 408.221 210.808 408.088 211.192 408.088C211.693 408.088 212.051 408.248 212.264 408.568C212.477 408.888 212.584 409.336 212.584 409.912V414.984H213.848V409.736C213.848 408.904 213.645 408.243 213.24 407.752C212.845 407.251 212.237 407 211.416 407C210.925 407 210.408 407.128 209.864 407.384C209.32 407.64 208.861 407.96 208.488 408.344L208.28 407.24H207.336V415H208.6V409.496ZM217.453 407.368V405.032L216.189 405.384V407.368H215.053L215.069 408.328H216.189V412.984C216.189 413.709 216.381 414.269 216.765 414.664C217.16 415.048 217.693 415.24 218.365 415.24C218.77 415.24 219.165 415.149 219.549 414.968L219.261 413.976C218.994 414.083 218.76 414.136 218.557 414.136C218.184 414.136 217.906 414.019 217.725 413.784C217.544 413.549 217.453 413.224 217.453 412.808V408.328H219.277L218.861 407.368H217.453Z" fill="white"/>
<path d="M299.552 404.12L296.576 415H295.36L292.864 406.008L290.512 415H289.296L286.16 404.2L287.408 404.008L289.92 413.272L292.272 404.12H293.504L295.968 413.272L298.336 404.12H299.552ZM307.783 411.144C307.783 411.933 307.623 412.637 307.303 413.256C306.993 413.864 306.545 414.344 305.959 414.696C305.372 415.037 304.689 415.208 303.911 415.208C303.164 415.208 302.513 415.037 301.959 414.696C301.404 414.344 300.977 413.859 300.679 413.24C300.391 412.611 300.247 411.896 300.247 411.096C300.257 410.307 300.412 409.608 300.711 409C301.02 408.381 301.463 407.901 302.039 407.56C302.615 407.208 303.287 407.032 304.055 407.032C305.217 407.032 306.129 407.405 306.791 408.152C307.452 408.888 307.783 409.885 307.783 411.144ZM303.975 414.136C304.743 414.136 305.351 413.859 305.799 413.304C306.247 412.739 306.476 412.024 306.487 411.16C306.487 410.243 306.273 409.507 305.847 408.952C305.42 408.387 304.817 408.104 304.039 408.104C303.271 408.104 302.663 408.387 302.215 408.952C301.767 409.507 301.537 410.216 301.527 411.08C301.527 411.987 301.74 412.723 302.167 413.288C302.593 413.853 303.196 414.136 303.975 414.136ZM310.569 409.656C310.932 409.283 311.374 408.957 311.897 408.68C312.42 408.392 312.894 408.248 313.321 408.248L313.017 407.24C312.644 407.24 312.212 407.373 311.721 407.64C311.23 407.907 310.809 408.189 310.457 408.488L310.057 407.24H309.305V415H310.569V409.656ZM320.812 403.72V415H320.044L319.804 414.408C319.484 414.664 319.138 414.861 318.764 415C318.391 415.139 318.039 415.208 317.708 415.208C316.556 415.208 315.65 414.835 314.988 414.088C314.338 413.331 314.012 412.328 314.012 411.08C314.012 410.291 314.162 409.592 314.46 408.984C314.77 408.365 315.202 407.885 315.756 407.544C316.322 407.203 316.983 407.032 317.74 407.032C318.018 407.032 318.311 407.085 318.62 407.192C318.94 407.299 319.244 407.443 319.532 407.624V403.864L320.812 403.72ZM317.692 414.136C318.076 414.136 318.412 414.077 318.7 413.96C318.999 413.832 319.276 413.64 319.532 413.384V408.792C319.02 408.333 318.412 408.104 317.708 408.104C316.94 408.104 316.348 408.381 315.932 408.936C315.516 409.48 315.303 410.189 315.292 411.064C315.292 411.992 315.495 412.739 315.9 413.304C316.316 413.859 316.914 414.136 317.692 414.136Z" fill="white"/>
<path d="M423.048 415L422.888 413.992H417.752V409.912H421.656L421.512 408.968H417.752V405.064H422.568L422.424 404.12H416.488V415H423.048ZM424.959 415L426.863 412.008L428.783 415H430.175L427.743 411.272L430.415 407.24H429.023L427.039 410.312L424.943 407.016L423.807 407.496L426.143 411.064L423.535 415H424.959ZM436.994 413.592C436.621 413.784 436.285 413.923 435.986 414.008C435.687 414.093 435.303 414.136 434.834 414.136C434.055 414.136 433.453 413.853 433.026 413.288C432.599 412.723 432.386 411.987 432.386 411.08C432.397 410.216 432.626 409.507 433.074 408.952C433.522 408.387 434.13 408.104 434.898 408.104C435.346 408.104 435.709 408.147 435.986 408.232C436.274 408.317 436.631 408.451 437.058 408.632L437.442 407.736C437.133 407.533 436.722 407.368 436.21 407.24C435.709 407.101 435.282 407.032 434.93 407.032C434.162 407.032 433.49 407.208 432.914 407.56C432.338 407.901 431.89 408.381 431.57 409C431.261 409.608 431.106 410.307 431.106 411.096C431.106 411.896 431.255 412.611 431.554 413.24C431.853 413.859 432.285 414.344 432.85 414.696C433.415 415.037 434.082 415.208 434.85 415.208C435.202 415.208 435.634 415.139 436.146 415C436.658 414.872 437.074 414.707 437.394 414.504L436.994 413.592ZM445.362 411.32C445.362 410.04 445.09 409.005 444.546 408.216C444.013 407.427 443.181 407.032 442.05 407.032C441.304 407.032 440.653 407.208 440.098 407.56C439.554 407.901 439.138 408.381 438.85 409C438.573 409.608 438.434 410.307 438.434 411.096C438.434 412.344 438.781 413.341 439.474 414.088C440.168 414.835 441.176 415.208 442.498 415.208C443.032 415.208 443.517 415.139 443.954 415C444.392 414.851 444.829 414.653 445.266 414.408L444.866 413.48C444.386 413.715 443.97 413.885 443.618 413.992C443.277 414.099 442.898 414.152 442.482 414.152C441.565 414.152 440.882 413.901 440.434 413.4C439.997 412.888 439.762 412.195 439.73 411.32H445.362ZM439.762 410.456C439.837 409.731 440.061 409.16 440.434 408.744C440.818 408.317 441.341 408.104 442.002 408.104C443.229 408.104 443.933 408.888 444.114 410.456H439.762ZM448.323 415V403.704L447.059 403.864V415H448.323Z" fill="white"/>
<path d="M697.752 400.888H699.288C700.504 400.888 701.501 400.6 702.28 400.024C703.059 399.437 703.453 398.579 703.464 397.448C703.464 396.307 703.101 395.469 702.376 394.936C701.651 394.392 700.675 394.12 699.448 394.12H696.488V405H697.752V400.888ZM699.464 395.192C700.349 395.192 701.021 395.368 701.48 395.72C701.939 396.061 702.168 396.653 702.168 397.496C702.147 398.285 701.88 398.872 701.368 399.256C700.856 399.629 700.179 399.816 699.336 399.816H697.752V395.192H699.464ZM706.256 399.656C706.619 399.283 707.062 398.957 707.584 398.68C708.107 398.392 708.582 398.248 709.008 398.248L708.704 397.24C708.331 397.24 707.899 397.373 707.408 397.64C706.918 397.907 706.496 398.189 706.144 398.488L705.744 397.24H704.992V405H706.256V399.656ZM716.628 401.32C716.628 400.04 716.356 399.005 715.812 398.216C715.279 397.427 714.447 397.032 713.316 397.032C712.569 397.032 711.919 397.208 711.364 397.56C710.82 397.901 710.404 398.381 710.116 399C709.839 399.608 709.7 400.307 709.7 401.096C709.7 402.344 710.047 403.341 710.74 404.088C711.433 404.835 712.441 405.208 713.764 405.208C714.297 405.208 714.783 405.139 715.22 405C715.657 404.851 716.095 404.653 716.532 404.408L716.132 403.48C715.652 403.715 715.236 403.885 714.884 403.992C714.543 404.099 714.164 404.152 713.748 404.152C712.831 404.152 712.148 403.901 711.7 403.4C711.263 402.888 711.028 402.195 710.996 401.32H716.628ZM711.028 400.456C711.103 399.731 711.327 399.16 711.7 398.744C712.084 398.317 712.607 398.104 713.268 398.104C714.495 398.104 715.199 398.888 715.38 400.456H711.028ZM717.764 404.552C718.052 404.755 718.447 404.915 718.948 405.032C719.45 405.149 719.882 405.208 720.244 405.208C721.247 405.208 722.015 405.011 722.548 404.616C723.092 404.221 723.364 403.667 723.364 402.952C723.364 401.949 722.495 401.128 720.756 400.488C720.18 400.296 719.738 400.099 719.428 399.896C719.119 399.693 718.959 399.453 718.948 399.176C718.948 398.845 719.098 398.579 719.396 398.376C719.706 398.163 720.1 398.056 720.58 398.056C720.975 398.056 721.327 398.104 721.636 398.2C721.946 398.296 722.276 398.424 722.628 398.584L723.028 397.72C722.751 397.517 722.367 397.352 721.876 397.224C721.396 397.096 720.975 397.032 720.612 397.032C719.716 397.032 719.007 397.229 718.484 397.624C717.972 398.008 717.716 398.541 717.716 399.224C717.716 399.789 717.951 400.253 718.42 400.616C718.89 400.979 719.498 401.283 720.244 401.528C721.524 401.955 722.164 402.456 722.164 403.032C722.164 403.395 721.994 403.677 721.652 403.88C721.311 404.083 720.847 404.184 720.26 404.184C719.588 404.184 718.89 404.003 718.164 403.64L717.764 404.552ZM731.331 401.32C731.331 400.04 731.059 399.005 730.515 398.216C729.982 397.427 729.15 397.032 728.019 397.032C727.272 397.032 726.622 397.208 726.067 397.56C725.523 397.901 725.107 398.381 724.819 399C724.542 399.608 724.403 400.307 724.403 401.096C724.403 402.344 724.75 403.341 725.443 404.088C726.136 404.835 727.144 405.208 728.467 405.208C729 405.208 729.486 405.139 729.923 405C730.36 404.851 730.798 404.653 731.235 404.408L730.835 403.48C730.355 403.715 729.939 403.885 729.587 403.992C729.246 404.099 728.867 404.152 728.451 404.152C727.534 404.152 726.851 403.901 726.403 403.4C725.966 402.888 725.731 402.195 725.699 401.32H731.331ZM725.731 400.456C725.806 399.731 726.03 399.16 726.403 398.744C726.787 398.317 727.31 398.104 727.971 398.104C729.198 398.104 729.902 398.888 730.083 400.456H725.731ZM734.131 399.496C734.505 399.091 734.931 398.755 735.411 398.488C735.902 398.221 736.339 398.088 736.723 398.088C737.225 398.088 737.582 398.248 737.795 398.568C738.009 398.888 738.115 399.336 738.115 399.912V404.984H739.379V399.736C739.379 398.904 739.177 398.243 738.771 397.752C738.377 397.251 737.769 397 736.947 397C736.457 397 735.939 397.128 735.395 397.384C734.851 397.64 734.393 397.96 734.019 398.344L733.811 397.24H732.867V405H734.131V399.496ZM742.984 397.368V395.032L741.72 395.384V397.368H740.584L740.6 398.328H741.72V402.984C741.72 403.709 741.912 404.269 742.296 404.664C742.691 405.048 743.224 405.24 743.896 405.24C744.301 405.24 744.696 405.149 745.08 404.968L744.792 403.976C744.525 404.083 744.291 404.136 744.088 404.136C743.715 404.136 743.437 404.019 743.256 403.784C743.075 403.549 742.984 403.224 742.984 402.808V398.328H744.808L744.392 397.368H742.984ZM747.117 398.664C747.501 398.493 747.853 398.365 748.173 398.28C748.504 398.184 748.898 398.136 749.357 398.136C749.944 398.136 750.37 398.301 750.637 398.632C750.914 398.963 751.053 399.416 751.053 399.992V400.424H749.053C748.21 400.424 747.533 400.632 747.021 401.048C746.509 401.464 746.253 402.045 746.253 402.792C746.253 403.507 746.477 404.088 746.925 404.536C747.384 404.984 748.045 405.208 748.909 405.208C749.314 405.208 749.73 405.112 750.157 404.92C750.584 404.717 750.941 404.483 751.229 404.216L751.389 405H752.333V399.64C752.333 399.139 752.205 398.691 751.949 398.296C751.693 397.901 751.336 397.592 750.877 397.368C750.418 397.144 749.896 397.032 749.309 397.032C748.957 397.032 748.509 397.096 747.965 397.224C747.432 397.352 747.026 397.512 746.749 397.704L747.117 398.664ZM747.421 402.792C747.421 402.365 747.56 402.008 747.837 401.72C748.125 401.421 748.52 401.272 749.021 401.272H751.069V403.032C750.781 403.373 750.445 403.651 750.061 403.864C749.688 404.077 749.293 404.184 748.877 404.184C748.397 404.184 748.034 404.045 747.789 403.768C747.544 403.491 747.421 403.165 747.421 402.792ZM755.922 397.368V395.032L754.658 395.384V397.368H753.522L753.538 398.328H754.658V402.984C754.658 403.709 754.85 404.269 755.234 404.664C755.628 405.048 756.162 405.24 756.834 405.24C757.239 405.24 757.634 405.149 758.018 404.968L757.73 403.976C757.463 404.083 757.228 404.136 757.026 404.136C756.652 404.136 756.375 404.019 756.194 403.784C756.012 403.549 755.922 403.224 755.922 402.808V398.328H757.746L757.33 397.368H755.922ZM760.023 395.688C760.257 395.688 760.46 395.608 760.631 395.448C760.801 395.277 760.887 395.075 760.887 394.84C760.887 394.605 760.801 394.403 760.631 394.232C760.46 394.061 760.257 393.976 760.023 393.976C759.777 393.976 759.575 394.061 759.415 394.232C759.255 394.392 759.175 394.595 759.175 394.84C759.175 395.085 759.255 395.288 759.415 395.448C759.575 395.608 759.777 395.688 760.023 395.688ZM760.679 405V397.24H759.399V405H760.679ZM769.736 401.144C769.736 401.933 769.576 402.637 769.256 403.256C768.947 403.864 768.499 404.344 767.912 404.696C767.325 405.037 766.643 405.208 765.864 405.208C765.117 405.208 764.467 405.037 763.912 404.696C763.357 404.344 762.931 403.859 762.632 403.24C762.344 402.611 762.2 401.896 762.2 401.096C762.211 400.307 762.365 399.608 762.664 399C762.973 398.381 763.416 397.901 763.992 397.56C764.568 397.208 765.24 397.032 766.008 397.032C767.171 397.032 768.083 397.405 768.744 398.152C769.405 398.888 769.736 399.885 769.736 401.144ZM765.928 404.136C766.696 404.136 767.304 403.859 767.752 403.304C768.2 402.739 768.429 402.024 768.44 401.16C768.44 400.243 768.227 399.507 767.8 398.952C767.373 398.387 766.771 398.104 765.992 398.104C765.224 398.104 764.616 398.387 764.168 398.952C763.72 399.507 763.491 400.216 763.48 401.08C763.48 401.987 763.693 402.723 764.12 403.288C764.547 403.853 765.149 404.136 765.928 404.136ZM772.522 399.496C772.895 399.091 773.322 398.755 773.802 398.488C774.293 398.221 774.73 398.088 775.114 398.088C775.615 398.088 775.973 398.248 776.186 398.568C776.399 398.888 776.506 399.336 776.506 399.912V404.984H777.77V399.736C777.77 398.904 777.567 398.243 777.162 397.752C776.767 397.251 776.159 397 775.338 397C774.847 397 774.33 397.128 773.786 397.384C773.242 397.64 772.783 397.96 772.41 398.344L772.202 397.24H771.258V405H772.522V399.496ZM779.327 404.552C779.615 404.755 780.009 404.915 780.511 405.032C781.012 405.149 781.444 405.208 781.807 405.208C782.809 405.208 783.577 405.011 784.111 404.616C784.655 404.221 784.927 403.667 784.927 402.952C784.927 401.949 784.057 401.128 782.319 400.488C781.743 400.296 781.3 400.099 780.991 399.896C780.681 399.693 780.521 399.453 780.511 399.176C780.511 398.845 780.66 398.579 780.959 398.376C781.268 398.163 781.663 398.056 782.143 398.056C782.537 398.056 782.889 398.104 783.199 398.2C783.508 398.296 783.839 398.424 784.191 398.584L784.591 397.72C784.313 397.517 783.929 397.352 783.439 397.224C782.959 397.096 782.537 397.032 782.175 397.032C781.279 397.032 780.569 397.229 780.047 397.624C779.535 398.008 779.279 398.541 779.279 399.224C779.279 399.789 779.513 400.253 779.983 400.616C780.452 400.979 781.06 401.283 781.807 401.528C783.087 401.955 783.727 402.456 783.727 403.032C783.727 403.395 783.556 403.677 783.215 403.88C782.873 404.083 782.409 404.184 781.823 404.184C781.151 404.184 780.452 404.003 779.727 403.64L779.327 404.552Z" fill="white"/>
<path d="M856.2 405C857.235 405 858.115 404.76 858.84 404.28C859.576 403.8 860.131 403.149 860.504 402.328C860.877 401.496 861.064 400.552 861.064 399.496C861.064 397.896 860.669 396.6 859.88 395.608C859.091 394.616 857.896 394.12 856.296 394.12H852.488V405H856.2ZM856.36 395.192C857.491 395.192 858.344 395.587 858.92 396.376C859.507 397.165 859.8 398.211 859.8 399.512C859.8 400.419 859.651 401.208 859.352 401.88C859.053 402.541 858.632 403.053 858.088 403.416C857.555 403.768 856.931 403.944 856.216 403.944H853.752V395.192H856.36ZM869.798 401.144C869.798 401.933 869.638 402.637 869.318 403.256C869.009 403.864 868.561 404.344 867.974 404.696C867.388 405.037 866.705 405.208 865.926 405.208C865.18 405.208 864.529 405.037 863.974 404.696C863.42 404.344 862.993 403.859 862.694 403.24C862.406 402.611 862.262 401.896 862.262 401.096C862.273 400.307 862.428 399.608 862.726 399C863.036 398.381 863.478 397.901 864.054 397.56C864.63 397.208 865.302 397.032 866.07 397.032C867.233 397.032 868.145 397.405 868.806 398.152C869.468 398.888 869.798 399.885 869.798 401.144ZM865.99 404.136C866.758 404.136 867.366 403.859 867.814 403.304C868.262 402.739 868.492 402.024 868.502 401.16C868.502 400.243 868.289 399.507 867.862 398.952C867.436 398.387 866.833 398.104 866.054 398.104C865.286 398.104 864.678 398.387 864.23 398.952C863.782 399.507 863.553 400.216 863.542 401.08C863.542 401.987 863.756 402.723 864.182 403.288C864.609 403.853 865.212 404.136 865.99 404.136ZM876.729 403.592C876.355 403.784 876.019 403.923 875.721 404.008C875.422 404.093 875.038 404.136 874.569 404.136C873.79 404.136 873.187 403.853 872.761 403.288C872.334 402.723 872.121 401.987 872.121 401.08C872.131 400.216 872.361 399.507 872.809 398.952C873.257 398.387 873.865 398.104 874.633 398.104C875.081 398.104 875.443 398.147 875.721 398.232C876.009 398.317 876.366 398.451 876.793 398.632L877.177 397.736C876.867 397.533 876.457 397.368 875.945 397.24C875.443 397.101 875.017 397.032 874.665 397.032C873.897 397.032 873.225 397.208 872.649 397.56C872.073 397.901 871.625 398.381 871.305 399C870.995 399.608 870.84 400.307 870.84 401.096C870.84 401.896 870.99 402.611 871.289 403.24C871.587 403.859 872.019 404.344 872.585 404.696C873.15 405.037 873.817 405.208 874.585 405.208C874.937 405.208 875.369 405.139 875.881 405C876.393 404.872 876.809 404.707 877.129 404.504L876.729 403.592ZM878.249 404.552C878.537 404.755 878.931 404.915 879.433 405.032C879.934 405.149 880.366 405.208 880.729 405.208C881.731 405.208 882.499 405.011 883.033 404.616C883.577 404.221 883.849 403.667 883.849 402.952C883.849 401.949 882.979 401.128 881.241 400.488C880.665 400.296 880.222 400.099 879.913 399.896C879.603 399.693 879.443 399.453 879.433 399.176C879.433 398.845 879.582 398.579 879.881 398.376C880.19 398.163 880.585 398.056 881.065 398.056C881.459 398.056 881.811 398.104 882.121 398.2C882.43 398.296 882.761 398.424 883.113 398.584L883.513 397.72C883.235 397.517 882.851 397.352 882.361 397.224C881.881 397.096 881.459 397.032 881.097 397.032C880.201 397.032 879.491 397.229 878.969 397.624C878.457 398.008 878.201 398.541 878.201 399.224C878.201 399.789 878.435 400.253 878.905 400.616C879.374 400.979 879.982 401.283 880.729 401.528C882.009 401.955 882.649 402.456 882.649 403.032C882.649 403.395 882.478 403.677 882.137 403.88C881.795 404.083 881.331 404.184 880.745 404.184C880.073 404.184 879.374 404.003 878.649 403.64L878.249 404.552Z" fill="white"/>
<path d="M972.672 398.93C971.385 398.56 970.448 398.107 969.859 397.57C969.276 397.029 968.984 396.362 968.984 395.57C968.984 394.674 969.341 393.935 970.055 393.352C970.773 392.763 971.706 392.469 972.852 392.469C973.633 392.469 974.328 392.62 974.938 392.922C975.552 393.224 976.026 393.641 976.359 394.172C976.698 394.703 976.867 395.284 976.867 395.914H975.359C975.359 395.227 975.141 394.688 974.703 394.297C974.266 393.901 973.648 393.703 972.852 393.703C972.112 393.703 971.534 393.867 971.117 394.195C970.706 394.518 970.5 394.969 970.5 395.547C970.5 396.01 970.695 396.404 971.086 396.727C971.482 397.044 972.151 397.336 973.094 397.602C974.042 397.867 974.781 398.161 975.312 398.484C975.849 398.802 976.245 399.174 976.5 399.602C976.76 400.029 976.891 400.531 976.891 401.109C976.891 402.031 976.531 402.771 975.812 403.328C975.094 403.88 974.133 404.156 972.93 404.156C972.148 404.156 971.419 404.008 970.742 403.711C970.065 403.409 969.542 402.997 969.172 402.477C968.807 401.956 968.625 401.365 968.625 400.703H970.133C970.133 401.391 970.385 401.935 970.891 402.336C971.401 402.732 972.081 402.93 972.93 402.93C973.721 402.93 974.328 402.768 974.75 402.445C975.172 402.122 975.383 401.682 975.383 401.125C975.383 400.568 975.188 400.138 974.797 399.836C974.406 399.529 973.698 399.227 972.672 398.93ZM980.039 396.57C980.68 395.784 981.513 395.391 982.539 395.391C984.326 395.391 985.227 396.398 985.242 398.414V404H983.797V398.406C983.792 397.797 983.651 397.346 983.375 397.055C983.104 396.763 982.68 396.617 982.102 396.617C981.633 396.617 981.221 396.742 980.867 396.992C980.513 397.242 980.237 397.57 980.039 397.977V404H978.594V392H980.039V396.57ZM990.914 404.156C989.768 404.156 988.836 403.781 988.117 403.031C987.398 402.276 987.039 401.268 987.039 400.008V399.742C987.039 398.904 987.198 398.156 987.516 397.5C987.839 396.839 988.286 396.323 988.859 395.953C989.438 395.578 990.062 395.391 990.734 395.391C991.833 395.391 992.688 395.753 993.297 396.477C993.906 397.201 994.211 398.237 994.211 399.586V400.188H988.484C988.505 401.021 988.747 401.695 989.211 402.211C989.68 402.721 990.273 402.977 990.992 402.977C991.503 402.977 991.935 402.872 992.289 402.664C992.643 402.456 992.953 402.18 993.219 401.836L994.102 402.523C993.393 403.612 992.331 404.156 990.914 404.156ZM990.734 396.578C990.151 396.578 989.661 396.792 989.266 397.219C988.87 397.641 988.625 398.234 988.531 399H992.766V398.891C992.724 398.156 992.526 397.589 992.172 397.188C991.818 396.781 991.339 396.578 990.734 396.578ZM999.398 404.156C998.253 404.156 997.32 403.781 996.602 403.031C995.883 402.276 995.523 401.268 995.523 400.008V399.742C995.523 398.904 995.682 398.156 996 397.5C996.323 396.839 996.771 396.323 997.344 395.953C997.922 395.578 998.547 395.391 999.219 395.391C1000.32 395.391 1001.17 395.753 1001.78 396.477C1002.39 397.201 1002.7 398.237 1002.7 399.586V400.188H996.969C996.99 401.021 997.232 401.695 997.695 402.211C998.164 402.721 998.758 402.977 999.477 402.977C999.987 402.977 1000.42 402.872 1000.77 402.664C1001.13 402.456 1001.44 402.18 1001.7 401.836L1002.59 402.523C1001.88 403.612 1000.82 404.156 999.398 404.156ZM999.219 396.578C998.635 396.578 998.146 396.792 997.75 397.219C997.354 397.641 997.109 398.234 997.016 399H1001.25V398.891C1001.21 398.156 1001.01 397.589 1000.66 397.188C1000.3 396.781 999.823 396.578 999.219 396.578ZM1006.34 393.5V395.547H1007.91V396.664H1006.34V401.906C1006.34 402.245 1006.41 402.5 1006.55 402.672C1006.69 402.839 1006.93 402.922 1007.27 402.922C1007.43 402.922 1007.66 402.891 1007.95 402.828V404C1007.57 404.104 1007.2 404.156 1006.84 404.156C1006.2 404.156 1005.71 403.961 1005.38 403.57C1005.05 403.18 1004.89 402.625 1004.89 401.906V396.664H1003.35V395.547H1004.89V393.5H1006.34ZM1014.53 401.758C1014.53 401.367 1014.38 401.065 1014.09 400.852C1013.79 400.633 1013.28 400.445 1012.55 400.289C1011.82 400.133 1011.24 399.945 1010.8 399.727C1010.38 399.508 1010.06 399.247 1009.85 398.945C1009.65 398.643 1009.55 398.284 1009.55 397.867C1009.55 397.174 1009.84 396.589 1010.42 396.109C1011.01 395.63 1011.76 395.391 1012.67 395.391C1013.63 395.391 1014.41 395.638 1015 396.133C1015.6 396.628 1015.9 397.26 1015.9 398.031H1014.45C1014.45 397.635 1014.28 397.294 1013.94 397.008C1013.6 396.721 1013.18 396.578 1012.67 396.578C1012.15 396.578 1011.73 396.693 1011.44 396.922C1011.14 397.151 1010.99 397.451 1010.99 397.82C1010.99 398.169 1011.13 398.432 1011.41 398.609C1011.68 398.786 1012.18 398.956 1012.9 399.117C1013.62 399.279 1014.21 399.471 1014.66 399.695C1015.1 399.919 1015.43 400.19 1015.65 400.508C1015.87 400.82 1015.98 401.203 1015.98 401.656C1015.98 402.411 1015.67 403.018 1015.07 403.477C1014.47 403.93 1013.68 404.156 1012.72 404.156C1012.04 404.156 1011.44 404.036 1010.92 403.797C1010.4 403.557 1009.99 403.224 1009.7 402.797C1009.4 402.365 1009.26 401.898 1009.26 401.398H1010.7C1010.73 401.883 1010.92 402.268 1011.28 402.555C1011.65 402.836 1012.12 402.977 1012.72 402.977C1013.27 402.977 1013.7 402.867 1014.03 402.648C1014.36 402.424 1014.53 402.128 1014.53 401.758Z" fill="white"/>
<line x1="189" y1="448" x2="189" y2="498" stroke="white" stroke-width="2"/>
<line x1="434" y1="447" x2="434" y2="497" stroke="white" stroke-width="2"/>
<line x1="297" y1="448" x2="297" y2="498" stroke="white" stroke-width="2"/>
<path d="M188 497.5H605" stroke="white" stroke-width="2"/>
<line x1="985" y1="447" x2="985" y2="497" stroke="white" stroke-width="2"/>
<path d="M605 498H986" stroke="white" stroke-width="2"/>
<path d="M604.293 530.207C604.683 530.598 605.317 530.598 605.707 530.207L612.071 523.843C612.462 523.453 612.462 522.819 612.071 522.429C611.681 522.038 611.047 522.038 610.657 522.429L605 528.086L599.343 522.429C598.953 522.038 598.319 522.038 597.929 522.429C597.538 522.819 597.538 523.453 597.929 523.843L604.293 530.207ZM604 497V529.5H606V497H604Z" fill="white"/>
<line x1="869" y1="448" x2="869" y2="498" stroke="white" stroke-width="2"/>
<line x1="752" y1="447" x2="752" y2="497" stroke="white" stroke-width="2"/>
<rect x="502" y="34" width="161" height="60.5177" rx="29" fill="#5BA2A1"/>
<path d="M547.488 73C549.088 72.9787 550.32 72.488 551.184 71.528C552.059 70.5573 552.496 69.2133 552.496 67.496C552.496 66.4293 552.309 65.496 551.936 64.696C551.573 63.8853 551.013 63.256 550.256 62.808C549.509 62.3493 548.587 62.12 547.488 62.12H543.36V73H547.488ZM547.568 63.88C548.507 63.88 549.205 64.1947 549.664 64.824C550.123 65.4427 550.352 66.3333 550.352 67.496C550.352 68.7973 550.096 69.752 549.584 70.36C549.083 70.9573 548.373 71.256 547.456 71.256H545.424V63.88H547.568ZM554.695 67.464C554.993 67.3253 555.356 67.208 555.783 67.112C556.209 67.0053 556.599 66.952 556.951 66.952C557.335 66.952 557.633 67.064 557.847 67.288C558.071 67.5013 558.188 67.8053 558.199 68.2H556.679C555.783 68.2 555.068 68.4187 554.535 68.856C554.001 69.2827 553.735 69.8907 553.735 70.68C553.735 71.448 553.969 72.0613 554.439 72.52C554.908 72.968 555.607 73.192 556.535 73.192C557.249 73.192 557.932 72.8507 558.583 72.168L558.935 73H560.295V67.896C560.295 67.352 560.14 66.8613 559.831 66.424C559.532 65.9867 559.127 65.6453 558.615 65.4C558.103 65.1547 557.537 65.032 556.919 65.032C556.556 65.032 556.071 65.1067 555.463 65.256C554.855 65.3947 554.412 65.5547 554.135 65.736L554.695 67.464ZM555.511 70.68C555.511 70.3813 555.612 70.1253 555.815 69.912C556.028 69.6987 556.305 69.592 556.647 69.592H558.215V70.776C557.692 71.288 557.121 71.544 556.503 71.544C556.215 71.544 555.975 71.4587 555.783 71.288C555.601 71.1173 555.511 70.9147 555.511 70.68ZM561.541 72.392C561.872 72.648 562.304 72.8453 562.837 72.984C563.371 73.1227 563.835 73.192 564.229 73.192C565.275 73.192 566.075 72.984 566.629 72.568C567.184 72.1413 567.461 71.5387 567.461 70.76C567.461 70.1413 567.211 69.6187 566.709 69.192C566.208 68.7653 565.579 68.4133 564.821 68.136C564.427 67.9973 564.123 67.8747 563.909 67.768C563.707 67.6507 563.605 67.5227 563.605 67.384C563.605 67.2027 563.691 67.048 563.861 66.92C564.043 66.7813 564.267 66.712 564.533 66.712C564.875 66.712 565.2 66.7547 565.509 66.84C565.829 66.9253 566.192 67.0587 566.597 67.24L567.221 65.848C566.859 65.6027 566.416 65.4053 565.893 65.256C565.371 65.1067 564.928 65.032 564.565 65.032C563.637 65.032 562.901 65.2453 562.357 65.672C561.813 66.088 561.541 66.664 561.541 67.4C561.541 67.9867 561.787 68.472 562.277 68.856C562.768 69.24 563.381 69.5547 564.117 69.8C565.024 70.0773 565.477 70.424 565.477 70.84C565.477 71.0533 565.344 71.2187 565.077 71.336C564.811 71.4533 564.517 71.512 564.197 71.512C563.632 71.512 562.955 71.336 562.165 70.984L561.541 72.392ZM573.587 64.984C574.569 64.984 575.257 65.2613 575.651 65.816C576.046 66.3707 576.243 67.144 576.243 68.136V73H574.163V68.232C574.163 67.752 574.062 67.3787 573.859 67.112C573.667 66.8453 573.395 66.712 573.043 66.712C572.681 66.712 572.339 66.7973 572.019 66.968C571.699 67.128 571.347 67.3467 570.963 67.624V73H568.899V61.88L570.963 61.704V65.832C571.401 65.5653 571.854 65.3573 572.323 65.208C572.793 65.0587 573.214 64.984 573.587 64.984ZM581.623 65.032C582.828 65.032 583.777 65.4 584.471 66.136C585.175 66.8613 585.527 67.848 585.527 69.096C585.527 69.9067 585.367 70.6213 585.047 71.24C584.737 71.8587 584.284 72.3387 583.687 72.68C583.089 73.0213 582.38 73.192 581.559 73.192C581.239 73.192 580.903 73.1227 580.551 72.984C580.199 72.8453 579.873 72.6693 579.575 72.456L579.159 73H578.103V61.88L580.167 61.704V65.384C580.636 65.1493 581.121 65.032 581.623 65.032ZM581.543 71.416C582.108 71.416 582.556 71.2027 582.887 70.776C583.217 70.3387 583.383 69.7787 583.383 69.096C583.383 68.4133 583.217 67.864 582.887 67.448C582.567 67.0213 582.119 66.808 581.543 66.808C581.095 66.808 580.636 66.9627 580.167 67.272V70.968C580.604 71.2667 581.063 71.416 581.543 71.416ZM594.61 69.096C594.61 69.9173 594.439 70.6373 594.098 71.256C593.757 71.8747 593.271 72.3547 592.642 72.696C592.023 73.0267 591.298 73.192 590.466 73.192C589.634 73.192 588.903 73.0267 588.274 72.696C587.655 72.3653 587.175 71.896 586.834 71.288C586.493 70.6693 586.322 69.9493 586.322 69.128C586.322 68.3067 586.493 67.5867 586.834 66.968C587.175 66.3493 587.655 65.8747 588.274 65.544C588.903 65.2027 589.634 65.032 590.466 65.032C591.298 65.032 592.023 65.1973 592.642 65.528C593.271 65.8587 593.757 66.3333 594.098 66.952C594.439 67.56 594.61 68.2747 594.61 69.096ZM590.466 71.416C591.042 71.416 591.517 71.1973 591.89 70.76C592.274 70.3227 592.466 69.768 592.466 69.096C592.466 68.424 592.279 67.8747 591.906 67.448C591.533 67.0213 591.053 66.808 590.466 66.808C589.89 66.808 589.41 67.0267 589.026 67.464C588.653 67.9013 588.466 68.456 588.466 69.128C588.466 69.8 588.653 70.3493 589.026 70.776C589.399 71.2027 589.879 71.416 590.466 71.416ZM596.648 67.464C596.946 67.3253 597.309 67.208 597.736 67.112C598.162 67.0053 598.552 66.952 598.904 66.952C599.288 66.952 599.586 67.064 599.8 67.288C600.024 67.5013 600.141 67.8053 600.152 68.2H598.632C597.736 68.2 597.021 68.4187 596.488 68.856C595.954 69.2827 595.688 69.8907 595.688 70.68C595.688 71.448 595.922 72.0613 596.392 72.52C596.861 72.968 597.56 73.192 598.488 73.192C599.202 73.192 599.885 72.8507 600.536 72.168L600.888 73H602.248V67.896C602.248 67.352 602.093 66.8613 601.784 66.424C601.485 65.9867 601.08 65.6453 600.568 65.4C600.056 65.1547 599.49 65.032 598.872 65.032C598.509 65.032 598.024 65.1067 597.416 65.256C596.808 65.3947 596.365 65.5547 596.088 65.736L596.648 67.464ZM597.464 70.68C597.464 70.3813 597.565 70.1253 597.768 69.912C597.981 69.6987 598.258 69.592 598.6 69.592H600.168V70.776C599.645 71.288 599.074 71.544 598.456 71.544C598.168 71.544 597.928 71.4587 597.736 71.288C597.554 71.1173 597.464 70.9147 597.464 70.68ZM606.023 68.264C606.471 67.8693 606.951 67.544 607.463 67.288C607.985 67.032 608.423 66.904 608.775 66.904L608.359 65.24C607.975 65.24 607.532 65.3733 607.031 65.64C606.529 65.9067 606.092 66.2053 605.719 66.536L605.031 65.24H603.943V73H606.023V68.264ZM617.05 61.704V73H615.962L615.482 72.296C614.799 72.8933 614.052 73.192 613.242 73.192C612.036 73.192 611.082 72.8293 610.378 72.104C609.684 71.368 609.338 70.376 609.338 69.128C609.338 68.3173 609.492 67.6027 609.802 66.984C610.122 66.3653 610.58 65.8853 611.178 65.544C611.775 65.2027 612.484 65.032 613.306 65.032C613.562 65.032 613.834 65.08 614.122 65.176C614.41 65.2613 614.687 65.384 614.954 65.544V61.88L617.05 61.704ZM611.482 69.128C611.482 69.8107 611.642 70.3653 611.962 70.792C612.292 71.208 612.746 71.416 613.322 71.416C613.599 71.416 613.866 71.3627 614.122 71.256C614.388 71.1493 614.666 70.9893 614.954 70.776V67.464C614.676 67.2293 614.41 67.064 614.154 66.968C613.898 66.8613 613.62 66.808 613.322 66.808C612.756 66.808 612.308 67.0267 611.978 67.464C611.647 67.8907 611.482 68.4453 611.482 69.128Z" fill="black"/>
<rect x="524" y="545" width="161" height="60.5177" rx="29" fill="#5BA2A1"/>
<path d="M569.832 575.776H566.424V572.752H570.84L570.52 571.12H564.36V582H566.424V577.392H570.136L569.832 575.776ZM573.06 573.136C573.391 573.136 573.668 573.024 573.892 572.8C574.127 572.576 574.244 572.299 574.244 571.968C574.244 571.637 574.127 571.36 573.892 571.136C573.668 570.912 573.391 570.8 573.06 570.8C572.74 570.8 572.468 570.912 572.244 571.136C572.02 571.36 571.908 571.637 571.908 571.968C571.908 572.299 572.02 572.576 572.244 572.8C572.468 573.024 572.74 573.136 573.06 573.136ZM574.116 582V574.24H572.036V582H574.116ZM578.104 582V570.704L576.04 570.88V582H578.104ZM586.981 578.096C586.981 577.339 586.853 576.656 586.597 576.048C586.341 575.429 585.946 574.939 585.413 574.576C584.879 574.213 584.223 574.032 583.445 574.032C582.645 574.032 581.951 574.203 581.365 574.544C580.778 574.875 580.325 575.349 580.005 575.968C579.695 576.587 579.541 577.307 579.541 578.128C579.541 579.397 579.919 580.395 580.677 581.12C581.445 581.835 582.565 582.192 584.037 582.192C584.666 582.192 585.21 582.112 585.669 581.952C586.127 581.781 586.554 581.541 586.949 581.232L586.341 579.728C585.946 579.952 585.578 580.123 585.237 580.24C584.895 580.357 584.511 580.416 584.085 580.416C583.349 580.416 582.799 580.272 582.437 579.984C582.085 579.696 581.855 579.28 581.749 578.736H586.981V578.096ZM581.765 577.344C581.85 576.843 582.037 576.464 582.325 576.208C582.613 575.941 582.97 575.808 583.397 575.808C583.823 575.808 584.17 575.936 584.437 576.192C584.714 576.448 584.906 576.832 585.013 577.344H581.765ZM599.657 571.6C599.23 571.365 598.739 571.189 598.185 571.072C597.63 570.955 597.161 570.896 596.777 570.896C595.731 570.896 594.809 571.141 594.009 571.632C593.219 572.112 592.606 572.784 592.169 573.648C591.742 574.512 591.529 575.499 591.529 576.608C591.529 577.675 591.726 578.635 592.121 579.488C592.515 580.331 593.102 580.997 593.881 581.488C594.659 581.979 595.598 582.224 596.697 582.224C597.166 582.224 597.689 582.16 598.265 582.032C598.851 581.904 599.347 581.733 599.753 581.52L598.969 579.984C598.169 580.315 597.374 580.48 596.585 580.48C595.987 580.48 595.47 580.309 595.033 579.968C594.595 579.616 594.259 579.147 594.025 578.56C593.801 577.963 593.689 577.307 593.689 576.592C593.689 575.792 593.817 575.093 594.073 574.496C594.339 573.899 594.702 573.44 595.161 573.12C595.619 572.8 596.137 572.64 596.713 572.64C597.075 572.64 597.379 572.667 597.625 572.72C597.87 572.763 598.201 572.848 598.617 572.976L599.017 573.088L599.657 571.6ZM602.96 577.264C603.408 576.869 603.888 576.544 604.4 576.288C604.923 576.032 605.36 575.904 605.712 575.904L605.296 574.24C604.912 574.24 604.469 574.373 603.968 574.64C603.467 574.907 603.029 575.205 602.656 575.536L601.968 574.24H600.88V582H602.96V577.264ZM613.715 578.096C613.715 577.339 613.587 576.656 613.331 576.048C613.075 575.429 612.68 574.939 612.147 574.576C611.614 574.213 610.958 574.032 610.179 574.032C609.379 574.032 608.686 574.203 608.099 574.544C607.512 574.875 607.059 575.349 606.739 575.968C606.43 576.587 606.275 577.307 606.275 578.128C606.275 579.397 606.654 580.395 607.411 581.12C608.179 581.835 609.299 582.192 610.771 582.192C611.4 582.192 611.944 582.112 612.403 581.952C612.862 581.781 613.288 581.541 613.683 581.232L613.075 579.728C612.68 579.952 612.312 580.123 611.971 580.24C611.63 580.357 611.246 580.416 610.819 580.416C610.083 580.416 609.534 580.272 609.171 579.984C608.819 579.696 608.59 579.28 608.483 578.736H613.715V578.096ZM608.499 577.344C608.584 576.843 608.771 576.464 609.059 576.208C609.347 575.941 609.704 575.808 610.131 575.808C610.558 575.808 610.904 575.936 611.171 576.192C611.448 576.448 611.64 576.832 611.747 577.344H608.499ZM615.741 576.464C616.04 576.325 616.403 576.208 616.829 576.112C617.256 576.005 617.645 575.952 617.997 575.952C618.381 575.952 618.68 576.064 618.893 576.288C619.117 576.501 619.235 576.805 619.245 577.2H617.725C616.829 577.2 616.115 577.419 615.581 577.856C615.048 578.283 614.781 578.891 614.781 579.68C614.781 580.448 615.016 581.061 615.485 581.52C615.955 581.968 616.653 582.192 617.581 582.192C618.296 582.192 618.979 581.851 619.629 581.168L619.981 582H621.341V576.896C621.341 576.352 621.187 575.861 620.877 575.424C620.579 574.987 620.173 574.645 619.661 574.4C619.149 574.155 618.584 574.032 617.965 574.032C617.603 574.032 617.117 574.107 616.509 574.256C615.901 574.395 615.459 574.555 615.181 574.736L615.741 576.464ZM616.557 579.68C616.557 579.381 616.659 579.125 616.861 578.912C617.075 578.699 617.352 578.592 617.693 578.592H619.261V579.776C618.739 580.288 618.168 580.544 617.549 580.544C617.261 580.544 617.021 580.459 616.829 580.288C616.648 580.117 616.557 579.915 616.557 579.68ZM625.42 574.256V572.048L623.356 572.416V574.256H622.316V575.856H623.356V579.52C623.356 580.405 623.628 581.093 624.172 581.584C624.716 582.075 625.474 582.32 626.444 582.32C626.7 582.32 626.983 582.272 627.292 582.176C627.612 582.08 627.852 581.968 628.012 581.84L627.404 580.336C627.116 580.475 626.834 580.544 626.556 580.544C626.194 580.544 625.911 580.416 625.708 580.16C625.516 579.904 625.42 579.568 625.42 579.152V575.856H627.468L626.828 574.256H625.42ZM636.09 578.096C636.09 577.339 635.962 576.656 635.706 576.048C635.45 575.429 635.055 574.939 634.522 574.576C633.989 574.213 633.333 574.032 632.554 574.032C631.754 574.032 631.061 574.203 630.474 574.544C629.887 574.875 629.434 575.349 629.114 575.968C628.805 576.587 628.65 577.307 628.65 578.128C628.65 579.397 629.029 580.395 629.786 581.12C630.554 581.835 631.674 582.192 633.146 582.192C633.775 582.192 634.319 582.112 634.778 581.952C635.237 581.781 635.663 581.541 636.058 581.232L635.45 579.728C635.055 579.952 634.687 580.123 634.346 580.24C634.005 580.357 633.621 580.416 633.194 580.416C632.458 580.416 631.909 580.272 631.546 579.984C631.194 579.696 630.965 579.28 630.858 578.736H636.09V578.096ZM630.874 577.344C630.959 576.843 631.146 576.464 631.434 576.208C631.722 575.941 632.079 575.808 632.506 575.808C632.933 575.808 633.279 575.936 633.546 576.192C633.823 576.448 634.015 576.832 634.122 577.344H630.874ZM644.596 570.704V582H643.508L643.028 581.296C642.346 581.893 641.599 582.192 640.788 582.192C639.583 582.192 638.628 581.829 637.924 581.104C637.231 580.368 636.884 579.376 636.884 578.128C636.884 577.317 637.039 576.603 637.348 575.984C637.668 575.365 638.127 574.885 638.724 574.544C639.322 574.203 640.031 574.032 640.852 574.032C641.108 574.032 641.38 574.08 641.668 574.176C641.956 574.261 642.234 574.384 642.5 574.544V570.88L644.596 570.704ZM639.028 578.128C639.028 578.811 639.188 579.365 639.508 579.792C639.839 580.208 640.292 580.416 640.868 580.416C641.146 580.416 641.412 580.363 641.668 580.256C641.935 580.149 642.212 579.989 642.5 579.776V576.464C642.223 576.229 641.956 576.064 641.7 575.968C641.444 575.861 641.167 575.808 640.868 575.808C640.303 575.808 639.855 576.027 639.524 576.464C639.194 576.891 639.028 577.445 639.028 578.128Z" fill="black"/>
</svg>
