<svg width="1256" height="633" viewBox="0 0 1256 633" fill="none" xmlns="http://www.w3.org/2000/svg">
<rect width="1256" height="633" fill="#313235"/>
<path d="M748.706 170.707C749.097 171.098 749.73 171.098 750.12 170.707L756.484 164.343C756.875 163.953 756.875 163.319 756.484 162.929C756.094 162.538 755.461 162.538 755.07 162.929L749.413 168.586L743.756 162.929C743.366 162.538 742.733 162.538 742.342 162.929C741.952 163.319 741.952 163.953 742.342 164.343L748.706 170.707ZM748.413 140L748.413 170L750.413 170L750.413 140L748.413 140Z" fill="white"/>
<path d="M748.706 266.707C749.097 267.098 749.73 267.098 750.12 266.707L756.484 260.343C756.875 259.953 756.875 259.319 756.484 258.929C756.094 258.538 755.461 258.538 755.07 258.929L749.413 264.586L743.756 258.929C743.366 258.538 742.733 258.538 742.342 258.929C741.952 259.319 741.952 259.953 742.342 260.343L748.706 266.707ZM748.413 236L748.413 266L750.413 266L750.413 236L748.413 236Z" fill="white"/>
<path d="M979.706 495.707C980.097 496.098 980.73 496.098 981.12 495.707L987.484 489.343C987.875 488.953 987.875 488.32 987.484 487.929C987.094 487.538 986.461 487.538 986.07 487.929L980.413 493.586L974.756 487.929C974.366 487.538 973.733 487.538 973.342 487.929C972.952 488.32 972.952 488.953 973.342 489.343L979.706 495.707ZM979.413 424L979.413 495L981.413 495L981.413 424L979.413 424Z" fill="white"/>
<rect x="674" y="181" width="150" height="44" fill="#313235" stroke="white" stroke-width="2"/>
<rect x="482" y="322" width="108" height="48" fill="#313235" stroke="white" stroke-width="2"/>
<rect x="932" y="506" width="105" height="49" fill="#313235" stroke="white" stroke-width="2"/>
<path d="M702.688 195.391C702.547 196.594 702.102 197.523 701.352 198.18C700.607 198.831 699.615 199.156 698.375 199.156C697.031 199.156 695.953 198.674 695.141 197.711C694.333 196.747 693.93 195.458 693.93 193.844V192.75C693.93 191.693 694.117 190.763 694.492 189.961C694.872 189.159 695.409 188.544 696.102 188.117C696.794 187.685 697.596 187.469 698.508 187.469C699.716 187.469 700.685 187.807 701.414 188.484C702.143 189.156 702.568 190.089 702.688 191.281H701.18C701.049 190.375 700.766 189.719 700.328 189.312C699.896 188.906 699.289 188.703 698.508 188.703C697.549 188.703 696.797 189.057 696.25 189.766C695.708 190.474 695.438 191.482 695.438 192.789V193.891C695.438 195.125 695.695 196.107 696.211 196.836C696.727 197.565 697.448 197.93 698.375 197.93C699.208 197.93 699.846 197.742 700.289 197.367C700.737 196.987 701.034 196.328 701.18 195.391H702.688ZM705.961 191.57C706.602 190.784 707.435 190.391 708.461 190.391C710.247 190.391 711.148 191.398 711.164 193.414V199H709.719V193.406C709.714 192.797 709.573 192.346 709.297 192.055C709.026 191.763 708.602 191.617 708.023 191.617C707.555 191.617 707.143 191.742 706.789 191.992C706.435 192.242 706.159 192.57 705.961 192.977V199H704.516V187H705.961V191.57ZM712.945 194.695C712.945 193.867 713.107 193.122 713.43 192.461C713.758 191.799 714.211 191.289 714.789 190.93C715.372 190.57 716.036 190.391 716.781 190.391C717.932 190.391 718.862 190.789 719.57 191.586C720.284 192.383 720.641 193.443 720.641 194.766V194.867C720.641 195.69 720.482 196.43 720.164 197.086C719.852 197.737 719.401 198.245 718.812 198.609C718.229 198.974 717.557 199.156 716.797 199.156C715.651 199.156 714.721 198.758 714.008 197.961C713.299 197.164 712.945 196.109 712.945 194.797V194.695ZM714.398 194.867C714.398 195.805 714.615 196.557 715.047 197.125C715.484 197.693 716.068 197.977 716.797 197.977C717.531 197.977 718.115 197.69 718.547 197.117C718.979 196.539 719.195 195.732 719.195 194.695C719.195 193.768 718.974 193.018 718.531 192.445C718.094 191.867 717.51 191.578 716.781 191.578C716.068 191.578 715.492 191.862 715.055 192.43C714.617 192.997 714.398 193.81 714.398 194.867ZM722.07 194.695C722.07 193.867 722.232 193.122 722.555 192.461C722.883 191.799 723.336 191.289 723.914 190.93C724.497 190.57 725.161 190.391 725.906 190.391C727.057 190.391 727.987 190.789 728.695 191.586C729.409 192.383 729.766 193.443 729.766 194.766V194.867C729.766 195.69 729.607 196.43 729.289 197.086C728.977 197.737 728.526 198.245 727.938 198.609C727.354 198.974 726.682 199.156 725.922 199.156C724.776 199.156 723.846 198.758 723.133 197.961C722.424 197.164 722.07 196.109 722.07 194.797V194.695ZM723.523 194.867C723.523 195.805 723.74 196.557 724.172 197.125C724.609 197.693 725.193 197.977 725.922 197.977C726.656 197.977 727.24 197.69 727.672 197.117C728.104 196.539 728.32 195.732 728.32 194.695C728.32 193.768 728.099 193.018 727.656 192.445C727.219 191.867 726.635 191.578 725.906 191.578C725.193 191.578 724.617 191.862 724.18 192.43C723.742 192.997 723.523 193.81 723.523 194.867ZM736.5 196.758C736.5 196.367 736.352 196.065 736.055 195.852C735.763 195.633 735.25 195.445 734.516 195.289C733.786 195.133 733.206 194.945 732.773 194.727C732.346 194.508 732.029 194.247 731.82 193.945C731.617 193.643 731.516 193.284 731.516 192.867C731.516 192.174 731.807 191.589 732.391 191.109C732.979 190.63 733.729 190.391 734.641 190.391C735.599 190.391 736.375 190.638 736.969 191.133C737.568 191.628 737.867 192.26 737.867 193.031H736.414C736.414 192.635 736.245 192.294 735.906 192.008C735.573 191.721 735.151 191.578 734.641 191.578C734.115 191.578 733.703 191.693 733.406 191.922C733.109 192.151 732.961 192.451 732.961 192.82C732.961 193.169 733.099 193.432 733.375 193.609C733.651 193.786 734.148 193.956 734.867 194.117C735.591 194.279 736.177 194.471 736.625 194.695C737.073 194.919 737.404 195.19 737.617 195.508C737.836 195.82 737.945 196.203 737.945 196.656C737.945 197.411 737.643 198.018 737.039 198.477C736.435 198.93 735.651 199.156 734.688 199.156C734.01 199.156 733.411 199.036 732.891 198.797C732.37 198.557 731.961 198.224 731.664 197.797C731.372 197.365 731.227 196.898 731.227 196.398H732.672C732.698 196.883 732.891 197.268 733.25 197.555C733.615 197.836 734.094 197.977 734.688 197.977C735.234 197.977 735.672 197.867 736 197.648C736.333 197.424 736.5 197.128 736.5 196.758ZM743.336 199.156C742.19 199.156 741.258 198.781 740.539 198.031C739.82 197.276 739.461 196.268 739.461 195.008V194.742C739.461 193.904 739.62 193.156 739.938 192.5C740.26 191.839 740.708 191.323 741.281 190.953C741.859 190.578 742.484 190.391 743.156 190.391C744.255 190.391 745.109 190.753 745.719 191.477C746.328 192.201 746.633 193.237 746.633 194.586V195.188H740.906C740.927 196.021 741.169 196.695 741.633 197.211C742.102 197.721 742.695 197.977 743.414 197.977C743.924 197.977 744.357 197.872 744.711 197.664C745.065 197.456 745.375 197.18 745.641 196.836L746.523 197.523C745.815 198.612 744.753 199.156 743.336 199.156ZM743.156 191.578C742.573 191.578 742.083 191.792 741.688 192.219C741.292 192.641 741.047 193.234 740.953 194H745.188V193.891C745.146 193.156 744.948 192.589 744.594 192.188C744.24 191.781 743.76 191.578 743.156 191.578ZM753.852 199H752.406V190.547H753.852V199ZM752.289 188.305C752.289 188.07 752.359 187.872 752.5 187.711C752.646 187.549 752.859 187.469 753.141 187.469C753.422 187.469 753.635 187.549 753.781 187.711C753.927 187.872 754 188.07 754 188.305C754 188.539 753.927 188.734 753.781 188.891C753.635 189.047 753.422 189.125 753.141 189.125C752.859 189.125 752.646 189.047 752.5 188.891C752.359 188.734 752.289 188.539 752.289 188.305ZM758.133 188.5V190.547H759.711V191.664H758.133V196.906C758.133 197.245 758.203 197.5 758.344 197.672C758.484 197.839 758.724 197.922 759.062 197.922C759.229 197.922 759.458 197.891 759.75 197.828V199C759.37 199.104 759 199.156 758.641 199.156C757.995 199.156 757.508 198.961 757.18 198.57C756.852 198.18 756.688 197.625 756.688 196.906V191.664H755.148V190.547H756.688V188.5H758.133ZM764.914 199.156C763.768 199.156 762.836 198.781 762.117 198.031C761.398 197.276 761.039 196.268 761.039 195.008V194.742C761.039 193.904 761.198 193.156 761.516 192.5C761.839 191.839 762.286 191.323 762.859 190.953C763.438 190.578 764.062 190.391 764.734 190.391C765.833 190.391 766.688 190.753 767.297 191.477C767.906 192.201 768.211 193.237 768.211 194.586V195.188H762.484C762.505 196.021 762.747 196.695 763.211 197.211C763.68 197.721 764.273 197.977 764.992 197.977C765.503 197.977 765.935 197.872 766.289 197.664C766.643 197.456 766.953 197.18 767.219 196.836L768.102 197.523C767.393 198.612 766.331 199.156 764.914 199.156ZM764.734 191.578C764.151 191.578 763.661 191.792 763.266 192.219C762.87 192.641 762.625 193.234 762.531 194H766.766V193.891C766.724 193.156 766.526 192.589 766.172 192.188C765.818 191.781 765.339 191.578 764.734 191.578ZM771.25 190.547L771.289 191.484C771.909 190.755 772.745 190.391 773.797 190.391C774.979 190.391 775.784 190.844 776.211 191.75C776.492 191.344 776.857 191.016 777.305 190.766C777.758 190.516 778.292 190.391 778.906 190.391C780.76 190.391 781.703 191.372 781.734 193.336V199H780.289V193.422C780.289 192.818 780.151 192.367 779.875 192.07C779.599 191.768 779.135 191.617 778.484 191.617C777.948 191.617 777.503 191.779 777.148 192.102C776.794 192.419 776.589 192.849 776.531 193.391V199H775.078V193.461C775.078 192.232 774.477 191.617 773.273 191.617C772.326 191.617 771.677 192.021 771.328 192.828V199H769.883V190.547H771.25ZM783.867 194.383C783.867 193.206 784.023 192.076 784.336 190.992C784.654 189.909 785.125 188.924 785.75 188.039C786.375 187.154 787.023 186.529 787.695 186.164L787.992 187.117C787.232 187.701 786.607 188.591 786.117 189.789C785.633 190.987 785.367 192.328 785.32 193.812L785.312 194.477C785.312 196.487 785.68 198.232 786.414 199.711C786.857 200.596 787.383 201.289 787.992 201.789L787.695 202.672C787.003 202.286 786.341 201.641 785.711 200.734C784.482 198.964 783.867 196.846 783.867 194.383ZM794.312 196.758C794.312 196.367 794.164 196.065 793.867 195.852C793.576 195.633 793.062 195.445 792.328 195.289C791.599 195.133 791.018 194.945 790.586 194.727C790.159 194.508 789.841 194.247 789.633 193.945C789.43 193.643 789.328 193.284 789.328 192.867C789.328 192.174 789.62 191.589 790.203 191.109C790.792 190.63 791.542 190.391 792.453 190.391C793.411 190.391 794.188 190.638 794.781 191.133C795.38 191.628 795.68 192.26 795.68 193.031H794.227C794.227 192.635 794.057 192.294 793.719 192.008C793.385 191.721 792.964 191.578 792.453 191.578C791.927 191.578 791.516 191.693 791.219 191.922C790.922 192.151 790.773 192.451 790.773 192.82C790.773 193.169 790.911 193.432 791.188 193.609C791.464 193.786 791.961 193.956 792.68 194.117C793.404 194.279 793.99 194.471 794.438 194.695C794.885 194.919 795.216 195.19 795.43 195.508C795.648 195.82 795.758 196.203 795.758 196.656C795.758 197.411 795.456 198.018 794.852 198.477C794.247 198.93 793.464 199.156 792.5 199.156C791.823 199.156 791.224 199.036 790.703 198.797C790.182 198.557 789.773 198.224 789.477 197.797C789.185 197.365 789.039 196.898 789.039 196.398H790.484C790.51 196.883 790.703 197.268 791.062 197.555C791.427 197.836 791.906 197.977 792.5 197.977C793.047 197.977 793.484 197.867 793.812 197.648C794.146 197.424 794.312 197.128 794.312 196.758ZM800.977 194.461C800.977 195.622 800.823 196.737 800.516 197.805C800.214 198.867 799.747 199.849 799.117 200.75C798.492 201.651 797.836 202.292 797.148 202.672L796.844 201.789C797.646 201.174 798.289 200.221 798.773 198.93C799.263 197.633 799.513 196.195 799.523 194.617V194.367C799.523 193.273 799.409 192.258 799.18 191.32C798.951 190.378 798.63 189.534 798.219 188.789C797.812 188.044 797.354 187.464 796.844 187.047L797.148 186.164C797.836 186.544 798.49 187.18 799.109 188.07C799.734 188.961 800.201 189.943 800.508 191.016C800.82 192.089 800.977 193.237 800.977 194.461ZM803.156 198.242C803.156 197.992 803.229 197.784 803.375 197.617C803.526 197.451 803.75 197.367 804.047 197.367C804.344 197.367 804.568 197.451 804.719 197.617C804.875 197.784 804.953 197.992 804.953 198.242C804.953 198.482 804.875 198.682 804.719 198.844C804.568 199.005 804.344 199.086 804.047 199.086C803.75 199.086 803.526 199.005 803.375 198.844C803.229 198.682 803.156 198.482 803.156 198.242ZM803.164 191.344C803.164 191.094 803.237 190.885 803.383 190.719C803.534 190.552 803.758 190.469 804.055 190.469C804.352 190.469 804.576 190.552 804.727 190.719C804.883 190.885 804.961 191.094 804.961 191.344C804.961 191.583 804.883 191.784 804.727 191.945C804.576 192.107 804.352 192.188 804.055 192.188C803.758 192.188 803.534 192.107 803.383 191.945C803.237 191.784 803.164 191.583 803.164 191.344ZM700.594 212.977H695.82V218H694.32V206.625H701.367V207.859H695.82V211.75H700.594V212.977ZM704.508 218H703.062V209.547H704.508V218ZM702.945 207.305C702.945 207.07 703.016 206.872 703.156 206.711C703.302 206.549 703.516 206.469 703.797 206.469C704.078 206.469 704.292 206.549 704.438 206.711C704.583 206.872 704.656 207.07 704.656 207.305C704.656 207.539 704.583 207.734 704.438 207.891C704.292 208.047 704.078 208.125 703.797 208.125C703.516 208.125 703.302 208.047 703.156 207.891C703.016 207.734 702.945 207.539 702.945 207.305ZM708.398 218H706.953V206H708.398V218ZM714.227 218.156C713.081 218.156 712.148 217.781 711.43 217.031C710.711 216.276 710.352 215.268 710.352 214.008V213.742C710.352 212.904 710.51 212.156 710.828 211.5C711.151 210.839 711.599 210.323 712.172 209.953C712.75 209.578 713.375 209.391 714.047 209.391C715.146 209.391 716 209.753 716.609 210.477C717.219 211.201 717.523 212.237 717.523 213.586V214.188H711.797C711.818 215.021 712.06 215.695 712.523 216.211C712.992 216.721 713.586 216.977 714.305 216.977C714.815 216.977 715.247 216.872 715.602 216.664C715.956 216.456 716.266 216.18 716.531 215.836L717.414 216.523C716.706 217.612 715.643 218.156 714.227 218.156ZM714.047 210.578C713.464 210.578 712.974 210.792 712.578 211.219C712.182 211.641 711.938 212.234 711.844 213H716.078V212.891C716.036 212.156 715.839 211.589 715.484 211.188C715.13 210.781 714.651 210.578 714.047 210.578ZM724.125 215.758C724.125 215.367 723.977 215.065 723.68 214.852C723.388 214.633 722.875 214.445 722.141 214.289C721.411 214.133 720.831 213.945 720.398 213.727C719.971 213.508 719.654 213.247 719.445 212.945C719.242 212.643 719.141 212.284 719.141 211.867C719.141 211.174 719.432 210.589 720.016 210.109C720.604 209.63 721.354 209.391 722.266 209.391C723.224 209.391 724 209.638 724.594 210.133C725.193 210.628 725.492 211.26 725.492 212.031H724.039C724.039 211.635 723.87 211.294 723.531 211.008C723.198 210.721 722.776 210.578 722.266 210.578C721.74 210.578 721.328 210.693 721.031 210.922C720.734 211.151 720.586 211.451 720.586 211.82C720.586 212.169 720.724 212.432 721 212.609C721.276 212.786 721.773 212.956 722.492 213.117C723.216 213.279 723.802 213.471 724.25 213.695C724.698 213.919 725.029 214.19 725.242 214.508C725.461 214.82 725.57 215.203 725.57 215.656C725.57 216.411 725.268 217.018 724.664 217.477C724.06 217.93 723.276 218.156 722.312 218.156C721.635 218.156 721.036 218.036 720.516 217.797C719.995 217.557 719.586 217.224 719.289 216.797C718.997 216.365 718.852 215.898 718.852 215.398H720.297C720.323 215.883 720.516 216.268 720.875 216.555C721.24 216.836 721.719 216.977 722.312 216.977C722.859 216.977 723.297 216.867 723.625 216.648C723.958 216.424 724.125 216.128 724.125 215.758ZM731.039 213.695C731.039 212.867 731.201 212.122 731.523 211.461C731.852 210.799 732.305 210.289 732.883 209.93C733.466 209.57 734.13 209.391 734.875 209.391C736.026 209.391 736.956 209.789 737.664 210.586C738.378 211.383 738.734 212.443 738.734 213.766V213.867C738.734 214.69 738.576 215.43 738.258 216.086C737.945 216.737 737.495 217.245 736.906 217.609C736.323 217.974 735.651 218.156 734.891 218.156C733.745 218.156 732.815 217.758 732.102 216.961C731.393 216.164 731.039 215.109 731.039 213.797V213.695ZM732.492 213.867C732.492 214.805 732.708 215.557 733.141 216.125C733.578 216.693 734.161 216.977 734.891 216.977C735.625 216.977 736.208 216.69 736.641 216.117C737.073 215.539 737.289 214.732 737.289 213.695C737.289 212.768 737.068 212.018 736.625 211.445C736.188 210.867 735.604 210.578 734.875 210.578C734.161 210.578 733.586 210.862 733.148 211.43C732.711 211.997 732.492 212.81 732.492 213.867ZM744.633 210.844C744.414 210.807 744.177 210.789 743.922 210.789C742.974 210.789 742.331 211.193 741.992 212V218H740.547V209.547H741.953L741.977 210.523C742.451 209.768 743.122 209.391 743.992 209.391C744.273 209.391 744.487 209.427 744.633 209.5V210.844ZM750.648 218V210.664H749.312V209.547H750.648V208.68C750.648 207.773 750.891 207.073 751.375 206.578C751.859 206.083 752.544 205.836 753.43 205.836C753.763 205.836 754.094 205.88 754.422 205.969L754.344 207.141C754.099 207.094 753.839 207.07 753.562 207.07C753.094 207.07 752.732 207.208 752.477 207.484C752.221 207.755 752.094 208.146 752.094 208.656V209.547H753.898V210.664H752.094V218H750.648ZM755.117 213.695C755.117 212.867 755.279 212.122 755.602 211.461C755.93 210.799 756.383 210.289 756.961 209.93C757.544 209.57 758.208 209.391 758.953 209.391C760.104 209.391 761.034 209.789 761.742 210.586C762.456 211.383 762.812 212.443 762.812 213.766V213.867C762.812 214.69 762.654 215.43 762.336 216.086C762.023 216.737 761.573 217.245 760.984 217.609C760.401 217.974 759.729 218.156 758.969 218.156C757.823 218.156 756.893 217.758 756.18 216.961C755.471 216.164 755.117 215.109 755.117 213.797V213.695ZM756.57 213.867C756.57 214.805 756.786 215.557 757.219 216.125C757.656 216.693 758.24 216.977 758.969 216.977C759.703 216.977 760.286 216.69 760.719 216.117C761.151 215.539 761.367 214.732 761.367 213.695C761.367 212.768 761.146 212.018 760.703 211.445C760.266 210.867 759.682 210.578 758.953 210.578C758.24 210.578 757.664 210.862 757.227 211.43C756.789 211.997 756.57 212.81 756.57 213.867ZM766.195 218H764.75V206H766.195V218ZM768.164 213.703C768.164 212.406 768.471 211.365 769.086 210.578C769.701 209.786 770.505 209.391 771.5 209.391C772.49 209.391 773.273 209.729 773.852 210.406V206H775.297V218H773.969L773.898 217.094C773.32 217.802 772.516 218.156 771.484 218.156C770.505 218.156 769.706 217.755 769.086 216.953C768.471 216.151 768.164 215.104 768.164 213.812V213.703ZM769.609 213.867C769.609 214.826 769.807 215.576 770.203 216.117C770.599 216.659 771.146 216.93 771.844 216.93C772.76 216.93 773.43 216.518 773.852 215.695V211.812C773.419 211.016 772.755 210.617 771.859 210.617C771.151 210.617 770.599 210.891 770.203 211.438C769.807 211.984 769.609 212.794 769.609 213.867ZM781.055 218.156C779.909 218.156 778.977 217.781 778.258 217.031C777.539 216.276 777.18 215.268 777.18 214.008V213.742C777.18 212.904 777.339 212.156 777.656 211.5C777.979 210.839 778.427 210.323 779 209.953C779.578 209.578 780.203 209.391 780.875 209.391C781.974 209.391 782.828 209.753 783.438 210.477C784.047 211.201 784.352 212.237 784.352 213.586V214.188H778.625C778.646 215.021 778.888 215.695 779.352 216.211C779.82 216.721 780.414 216.977 781.133 216.977C781.643 216.977 782.076 216.872 782.43 216.664C782.784 216.456 783.094 216.18 783.359 215.836L784.242 216.523C783.534 217.612 782.471 218.156 781.055 218.156ZM780.875 210.578C780.292 210.578 779.802 210.792 779.406 211.219C779.01 211.641 778.766 212.234 778.672 213H782.906V212.891C782.865 212.156 782.667 211.589 782.312 211.188C781.958 210.781 781.479 210.578 780.875 210.578ZM790.117 210.844C789.898 210.807 789.661 210.789 789.406 210.789C788.458 210.789 787.815 211.193 787.477 212V218H786.031V209.547H787.438L787.461 210.523C787.935 209.768 788.607 209.391 789.477 209.391C789.758 209.391 789.971 209.427 790.117 209.5V210.844ZM796.375 215.758C796.375 215.367 796.227 215.065 795.93 214.852C795.638 214.633 795.125 214.445 794.391 214.289C793.661 214.133 793.081 213.945 792.648 213.727C792.221 213.508 791.904 213.247 791.695 212.945C791.492 212.643 791.391 212.284 791.391 211.867C791.391 211.174 791.682 210.589 792.266 210.109C792.854 209.63 793.604 209.391 794.516 209.391C795.474 209.391 796.25 209.638 796.844 210.133C797.443 210.628 797.742 211.26 797.742 212.031H796.289C796.289 211.635 796.12 211.294 795.781 211.008C795.448 210.721 795.026 210.578 794.516 210.578C793.99 210.578 793.578 210.693 793.281 210.922C792.984 211.151 792.836 211.451 792.836 211.82C792.836 212.169 792.974 212.432 793.25 212.609C793.526 212.786 794.023 212.956 794.742 213.117C795.466 213.279 796.052 213.471 796.5 213.695C796.948 213.919 797.279 214.19 797.492 214.508C797.711 214.82 797.82 215.203 797.82 215.656C797.82 216.411 797.518 217.018 796.914 217.477C796.31 217.93 795.526 218.156 794.562 218.156C793.885 218.156 793.286 218.036 792.766 217.797C792.245 217.557 791.836 217.224 791.539 216.797C791.247 216.365 791.102 215.898 791.102 215.398H792.547C792.573 215.883 792.766 216.268 793.125 216.555C793.49 216.836 793.969 216.977 794.562 216.977C795.109 216.977 795.547 216.867 795.875 216.648C796.208 216.424 796.375 216.128 796.375 215.758Z" fill="white"/>
<path d="M519.188 336.93C517.901 336.56 516.964 336.107 516.375 335.57C515.792 335.029 515.5 334.362 515.5 333.57C515.5 332.674 515.857 331.935 516.57 331.352C517.289 330.763 518.221 330.469 519.367 330.469C520.148 330.469 520.844 330.62 521.453 330.922C522.068 331.224 522.542 331.641 522.875 332.172C523.214 332.703 523.383 333.284 523.383 333.914H521.875C521.875 333.227 521.656 332.688 521.219 332.297C520.781 331.901 520.164 331.703 519.367 331.703C518.628 331.703 518.049 331.867 517.633 332.195C517.221 332.518 517.016 332.969 517.016 333.547C517.016 334.01 517.211 334.404 517.602 334.727C517.997 335.044 518.667 335.336 519.609 335.602C520.557 335.867 521.297 336.161 521.828 336.484C522.365 336.802 522.76 337.174 523.016 337.602C523.276 338.029 523.406 338.531 523.406 339.109C523.406 340.031 523.047 340.771 522.328 341.328C521.609 341.88 520.648 342.156 519.445 342.156C518.664 342.156 517.935 342.008 517.258 341.711C516.581 341.409 516.057 340.997 515.688 340.477C515.323 339.956 515.141 339.365 515.141 338.703H516.648C516.648 339.391 516.901 339.935 517.406 340.336C517.917 340.732 518.596 340.93 519.445 340.93C520.237 340.93 520.844 340.768 521.266 340.445C521.688 340.122 521.898 339.682 521.898 339.125C521.898 338.568 521.703 338.138 521.312 337.836C520.922 337.529 520.214 337.227 519.188 336.93ZM528.617 342.156C527.471 342.156 526.539 341.781 525.82 341.031C525.102 340.276 524.742 339.268 524.742 338.008V337.742C524.742 336.904 524.901 336.156 525.219 335.5C525.542 334.839 525.99 334.323 526.562 333.953C527.141 333.578 527.766 333.391 528.438 333.391C529.536 333.391 530.391 333.753 531 334.477C531.609 335.201 531.914 336.237 531.914 337.586V338.188H526.188C526.208 339.021 526.451 339.695 526.914 340.211C527.383 340.721 527.977 340.977 528.695 340.977C529.206 340.977 529.638 340.872 529.992 340.664C530.346 340.456 530.656 340.18 530.922 339.836L531.805 340.523C531.096 341.612 530.034 342.156 528.617 342.156ZM528.438 334.578C527.854 334.578 527.365 334.792 526.969 335.219C526.573 335.641 526.328 336.234 526.234 337H530.469V336.891C530.427 336.156 530.229 335.589 529.875 335.188C529.521 334.781 529.042 334.578 528.438 334.578ZM535.164 342H533.719V330H535.164V342ZM540.992 342.156C539.846 342.156 538.914 341.781 538.195 341.031C537.477 340.276 537.117 339.268 537.117 338.008V337.742C537.117 336.904 537.276 336.156 537.594 335.5C537.917 334.839 538.365 334.323 538.938 333.953C539.516 333.578 540.141 333.391 540.812 333.391C541.911 333.391 542.766 333.753 543.375 334.477C543.984 335.201 544.289 336.237 544.289 337.586V338.188H538.562C538.583 339.021 538.826 339.695 539.289 340.211C539.758 340.721 540.352 340.977 541.07 340.977C541.581 340.977 542.013 340.872 542.367 340.664C542.721 340.456 543.031 340.18 543.297 339.836L544.18 340.523C543.471 341.612 542.409 342.156 540.992 342.156ZM540.812 334.578C540.229 334.578 539.74 334.792 539.344 335.219C538.948 335.641 538.703 336.234 538.609 337H542.844V336.891C542.802 336.156 542.604 335.589 542.25 335.188C541.896 334.781 541.417 334.578 540.812 334.578ZM549.359 340.977C549.875 340.977 550.326 340.82 550.711 340.508C551.096 340.195 551.31 339.805 551.352 339.336H552.719C552.693 339.82 552.526 340.281 552.219 340.719C551.911 341.156 551.5 341.505 550.984 341.766C550.474 342.026 549.932 342.156 549.359 342.156C548.208 342.156 547.292 341.773 546.609 341.008C545.932 340.237 545.594 339.185 545.594 337.852V337.609C545.594 336.786 545.745 336.055 546.047 335.414C546.349 334.773 546.781 334.276 547.344 333.922C547.911 333.568 548.581 333.391 549.352 333.391C550.299 333.391 551.086 333.674 551.711 334.242C552.341 334.81 552.677 335.547 552.719 336.453H551.352C551.31 335.906 551.102 335.458 550.727 335.109C550.357 334.755 549.898 334.578 549.352 334.578C548.617 334.578 548.047 334.844 547.641 335.375C547.24 335.901 547.039 336.664 547.039 337.664V337.938C547.039 338.911 547.24 339.661 547.641 340.188C548.042 340.714 548.615 340.977 549.359 340.977ZM556.305 331.5V333.547H557.883V334.664H556.305V339.906C556.305 340.245 556.375 340.5 556.516 340.672C556.656 340.839 556.896 340.922 557.234 340.922C557.401 340.922 557.63 340.891 557.922 340.828V342C557.542 342.104 557.172 342.156 556.812 342.156C556.167 342.156 555.68 341.961 555.352 341.57C555.023 341.18 554.859 340.625 554.859 339.906V334.664H553.32V333.547H554.859V331.5H556.305ZM506.797 356.398H504.125V361H502.617V349.625H506.383C507.664 349.625 508.648 349.917 509.336 350.5C510.029 351.083 510.375 351.932 510.375 353.047C510.375 353.755 510.182 354.372 509.797 354.898C509.417 355.424 508.885 355.818 508.203 356.078L510.875 360.906V361H509.266L506.797 356.398ZM504.125 355.172H506.43C507.174 355.172 507.766 354.979 508.203 354.594C508.646 354.208 508.867 353.693 508.867 353.047C508.867 352.344 508.656 351.805 508.234 351.43C507.818 351.055 507.214 350.865 506.422 350.859H504.125V355.172ZM515.766 361.156C514.62 361.156 513.688 360.781 512.969 360.031C512.25 359.276 511.891 358.268 511.891 357.008V356.742C511.891 355.904 512.049 355.156 512.367 354.5C512.69 353.839 513.138 353.323 513.711 352.953C514.289 352.578 514.914 352.391 515.586 352.391C516.685 352.391 517.539 352.753 518.148 353.477C518.758 354.201 519.062 355.237 519.062 356.586V357.188H513.336C513.357 358.021 513.599 358.695 514.062 359.211C514.531 359.721 515.125 359.977 515.844 359.977C516.354 359.977 516.786 359.872 517.141 359.664C517.495 359.456 517.805 359.18 518.07 358.836L518.953 359.523C518.245 360.612 517.182 361.156 515.766 361.156ZM515.586 353.578C515.003 353.578 514.513 353.792 514.117 354.219C513.721 354.641 513.477 355.234 513.383 356H517.617V355.891C517.576 355.156 517.378 354.589 517.023 354.188C516.669 353.781 516.19 353.578 515.586 353.578ZM524.133 359.977C524.648 359.977 525.099 359.82 525.484 359.508C525.87 359.195 526.083 358.805 526.125 358.336H527.492C527.466 358.82 527.299 359.281 526.992 359.719C526.685 360.156 526.273 360.505 525.758 360.766C525.247 361.026 524.706 361.156 524.133 361.156C522.982 361.156 522.065 360.773 521.383 360.008C520.706 359.237 520.367 358.185 520.367 356.852V356.609C520.367 355.786 520.518 355.055 520.82 354.414C521.122 353.773 521.555 353.276 522.117 352.922C522.685 352.568 523.354 352.391 524.125 352.391C525.073 352.391 525.859 352.674 526.484 353.242C527.115 353.81 527.451 354.547 527.492 355.453H526.125C526.083 354.906 525.875 354.458 525.5 354.109C525.13 353.755 524.672 353.578 524.125 353.578C523.391 353.578 522.82 353.844 522.414 354.375C522.013 354.901 521.812 355.664 521.812 356.664V356.938C521.812 357.911 522.013 358.661 522.414 359.188C522.815 359.714 523.388 359.977 524.133 359.977ZM530.688 361H529.242V352.547H530.688V361ZM529.125 350.305C529.125 350.07 529.195 349.872 529.336 349.711C529.482 349.549 529.695 349.469 529.977 349.469C530.258 349.469 530.471 349.549 530.617 349.711C530.763 349.872 530.836 350.07 530.836 350.305C530.836 350.539 530.763 350.734 530.617 350.891C530.471 351.047 530.258 351.125 529.977 351.125C529.695 351.125 529.482 351.047 529.336 350.891C529.195 350.734 529.125 350.539 529.125 350.305ZM540.148 356.867C540.148 358.154 539.854 359.19 539.266 359.977C538.677 360.763 537.88 361.156 536.875 361.156C535.849 361.156 535.042 360.831 534.453 360.18V364.25H533.008V352.547H534.328L534.398 353.484C534.987 352.755 535.805 352.391 536.852 352.391C537.867 352.391 538.669 352.773 539.258 353.539C539.852 354.305 540.148 355.37 540.148 356.734V356.867ZM538.703 356.703C538.703 355.75 538.5 354.997 538.094 354.445C537.688 353.893 537.13 353.617 536.422 353.617C535.547 353.617 534.891 354.005 534.453 354.781V358.82C534.885 359.591 535.547 359.977 536.438 359.977C537.13 359.977 537.68 359.703 538.086 359.156C538.497 358.604 538.703 357.786 538.703 356.703ZM545.5 361.156C544.354 361.156 543.422 360.781 542.703 360.031C541.984 359.276 541.625 358.268 541.625 357.008V356.742C541.625 355.904 541.784 355.156 542.102 354.5C542.424 353.839 542.872 353.323 543.445 352.953C544.023 352.578 544.648 352.391 545.32 352.391C546.419 352.391 547.273 352.753 547.883 353.477C548.492 354.201 548.797 355.237 548.797 356.586V357.188H543.07C543.091 358.021 543.333 358.695 543.797 359.211C544.266 359.721 544.859 359.977 545.578 359.977C546.089 359.977 546.521 359.872 546.875 359.664C547.229 359.456 547.539 359.18 547.805 358.836L548.688 359.523C547.979 360.612 546.917 361.156 545.5 361.156ZM545.32 353.578C544.737 353.578 544.247 353.792 543.852 354.219C543.456 354.641 543.211 355.234 543.117 356H547.352V355.891C547.31 355.156 547.112 354.589 546.758 354.188C546.404 353.781 545.924 353.578 545.32 353.578ZM551.844 352.547L551.891 353.609C552.536 352.797 553.38 352.391 554.422 352.391C556.208 352.391 557.109 353.398 557.125 355.414V361H555.68V355.406C555.674 354.797 555.534 354.346 555.258 354.055C554.987 353.763 554.562 353.617 553.984 353.617C553.516 353.617 553.104 353.742 552.75 353.992C552.396 354.242 552.12 354.57 551.922 354.977V361H550.477V352.547H551.844ZM561.266 350.5V352.547H562.844V353.664H561.266V358.906C561.266 359.245 561.336 359.5 561.477 359.672C561.617 359.839 561.857 359.922 562.195 359.922C562.362 359.922 562.591 359.891 562.883 359.828V361C562.503 361.104 562.133 361.156 561.773 361.156C561.128 361.156 560.641 360.961 560.312 360.57C559.984 360.18 559.82 359.625 559.82 358.906V353.664H558.281V352.547H559.82V350.5H561.266ZM569.461 358.758C569.461 358.367 569.312 358.065 569.016 357.852C568.724 357.633 568.211 357.445 567.477 357.289C566.747 357.133 566.167 356.945 565.734 356.727C565.307 356.508 564.99 356.247 564.781 355.945C564.578 355.643 564.477 355.284 564.477 354.867C564.477 354.174 564.768 353.589 565.352 353.109C565.94 352.63 566.69 352.391 567.602 352.391C568.56 352.391 569.336 352.638 569.93 353.133C570.529 353.628 570.828 354.26 570.828 355.031H569.375C569.375 354.635 569.206 354.294 568.867 354.008C568.534 353.721 568.112 353.578 567.602 353.578C567.076 353.578 566.664 353.693 566.367 353.922C566.07 354.151 565.922 354.451 565.922 354.82C565.922 355.169 566.06 355.432 566.336 355.609C566.612 355.786 567.109 355.956 567.828 356.117C568.552 356.279 569.138 356.471 569.586 356.695C570.034 356.919 570.365 357.19 570.578 357.508C570.797 357.82 570.906 358.203 570.906 358.656C570.906 359.411 570.604 360.018 570 360.477C569.396 360.93 568.612 361.156 567.648 361.156C566.971 361.156 566.372 361.036 565.852 360.797C565.331 360.557 564.922 360.224 564.625 359.797C564.333 359.365 564.188 358.898 564.188 358.398H565.633C565.659 358.883 565.852 359.268 566.211 359.555C566.576 359.836 567.055 359.977 567.648 359.977C568.195 359.977 568.633 359.867 568.961 359.648C569.294 359.424 569.461 359.128 569.461 358.758Z" fill="white"/>
<path d="M784.454 311.58L820.529 345L784.454 378.42L784.446 378.426L784.439 378.433L749 412.611L713.561 378.433L713.554 378.426L713.546 378.42L677.471 345L713.546 311.58L713.554 311.574L713.561 311.567L749 277.389L784.439 311.567L784.446 311.574L784.454 311.58Z" fill="#313235" stroke="white" stroke-width="2"/>
<path d="M368.454 313.58L404.529 347L368.454 380.42L368.446 380.426L368.439 380.433L333 414.611L297.561 380.433L297.554 380.426L297.546 380.42L261.471 347L297.546 313.58L297.554 313.574L297.561 313.567L333 279.389L368.439 313.567L368.446 313.574L368.454 313.58Z" fill="#313235" stroke="white" stroke-width="2"/>
<path d="M709.75 346.742H704.82V350.773H710.547V352H703.32V340.625H710.469V341.859H704.82V345.516H709.75V346.742ZM713.547 343.547L713.586 344.484C714.206 343.755 715.042 343.391 716.094 343.391C717.276 343.391 718.081 343.844 718.508 344.75C718.789 344.344 719.154 344.016 719.602 343.766C720.055 343.516 720.589 343.391 721.203 343.391C723.057 343.391 724 344.372 724.031 346.336V352H722.586V346.422C722.586 345.818 722.448 345.367 722.172 345.07C721.896 344.768 721.432 344.617 720.781 344.617C720.245 344.617 719.799 344.779 719.445 345.102C719.091 345.419 718.885 345.849 718.828 346.391V352H717.375V346.461C717.375 345.232 716.773 344.617 715.57 344.617C714.622 344.617 713.974 345.021 713.625 345.828V352H712.18V343.547H713.547ZM731.438 352C731.354 351.833 731.286 351.536 731.234 351.109C730.562 351.807 729.76 352.156 728.828 352.156C727.995 352.156 727.31 351.922 726.773 351.453C726.242 350.979 725.977 350.38 725.977 349.656C725.977 348.776 726.31 348.094 726.977 347.609C727.648 347.12 728.591 346.875 729.805 346.875H731.211V346.211C731.211 345.706 731.06 345.305 730.758 345.008C730.456 344.706 730.01 344.555 729.422 344.555C728.906 344.555 728.474 344.685 728.125 344.945C727.776 345.206 727.602 345.521 727.602 345.891H726.148C726.148 345.469 726.297 345.062 726.594 344.672C726.896 344.276 727.302 343.964 727.812 343.734C728.328 343.505 728.893 343.391 729.508 343.391C730.482 343.391 731.245 343.635 731.797 344.125C732.349 344.609 732.635 345.279 732.656 346.133V350.023C732.656 350.799 732.755 351.417 732.953 351.875V352H731.438ZM729.039 350.898C729.492 350.898 729.922 350.781 730.328 350.547C730.734 350.312 731.029 350.008 731.211 349.633V347.898H730.078C728.307 347.898 727.422 348.417 727.422 349.453C727.422 349.906 727.573 350.26 727.875 350.516C728.177 350.771 728.565 350.898 729.039 350.898ZM736.492 352H735.047V343.547H736.492V352ZM734.93 341.305C734.93 341.07 735 340.872 735.141 340.711C735.286 340.549 735.5 340.469 735.781 340.469C736.062 340.469 736.276 340.549 736.422 340.711C736.568 340.872 736.641 341.07 736.641 341.305C736.641 341.539 736.568 341.734 736.422 341.891C736.276 342.047 736.062 342.125 735.781 342.125C735.5 342.125 735.286 342.047 735.141 341.891C735 341.734 734.93 341.539 734.93 341.305ZM740.383 352H738.938V340H740.383V352ZM746.289 347.695C746.289 346.867 746.451 346.122 746.773 345.461C747.102 344.799 747.555 344.289 748.133 343.93C748.716 343.57 749.38 343.391 750.125 343.391C751.276 343.391 752.206 343.789 752.914 344.586C753.628 345.383 753.984 346.443 753.984 347.766V347.867C753.984 348.69 753.826 349.43 753.508 350.086C753.195 350.737 752.745 351.245 752.156 351.609C751.573 351.974 750.901 352.156 750.141 352.156C748.995 352.156 748.065 351.758 747.352 350.961C746.643 350.164 746.289 349.109 746.289 347.797V347.695ZM747.742 347.867C747.742 348.805 747.958 349.557 748.391 350.125C748.828 350.693 749.411 350.977 750.141 350.977C750.875 350.977 751.458 350.69 751.891 350.117C752.323 349.539 752.539 348.732 752.539 347.695C752.539 346.768 752.318 346.018 751.875 345.445C751.438 344.867 750.854 344.578 750.125 344.578C749.411 344.578 748.836 344.862 748.398 345.43C747.961 345.997 747.742 346.81 747.742 347.867ZM759.883 344.844C759.664 344.807 759.427 344.789 759.172 344.789C758.224 344.789 757.581 345.193 757.242 346V352H755.797V343.547H757.203L757.227 344.523C757.701 343.768 758.372 343.391 759.242 343.391C759.523 343.391 759.737 343.427 759.883 343.5V344.844ZM766.922 350.773H772.312V352H765.414V340.625H766.922V350.773ZM775.367 352H773.922V343.547H775.367V352ZM773.805 341.305C773.805 341.07 773.875 340.872 774.016 340.711C774.161 340.549 774.375 340.469 774.656 340.469C774.938 340.469 775.151 340.549 775.297 340.711C775.443 340.872 775.516 341.07 775.516 341.305C775.516 341.539 775.443 341.734 775.297 341.891C775.151 342.047 774.938 342.125 774.656 342.125C774.375 342.125 774.161 342.047 774.016 341.891C773.875 341.734 773.805 341.539 773.805 341.305ZM779.055 343.547L779.102 344.609C779.747 343.797 780.591 343.391 781.633 343.391C783.419 343.391 784.32 344.398 784.336 346.414V352H782.891V346.406C782.885 345.797 782.745 345.346 782.469 345.055C782.198 344.763 781.773 344.617 781.195 344.617C780.727 344.617 780.315 344.742 779.961 344.992C779.607 345.242 779.331 345.57 779.133 345.977V352H777.688V343.547H779.055ZM788.875 348.086L787.969 349.031V352H786.523V340H787.969V347.258L788.742 346.328L791.375 343.547H793.133L789.844 347.078L793.516 352H791.82L788.875 348.086Z" fill="white"/>
<path d="M1015.45 311.58L1051.53 345L1015.45 378.42L1015.45 378.426L1015.44 378.433L980 412.611L944.561 378.433L944.554 378.426L944.546 378.42L908.471 345L944.546 311.58L944.554 311.574L944.561 311.567L980 277.389L1015.44 311.567L1015.45 311.574L1015.45 311.58Z" fill="#313235" stroke="white" stroke-width="2"/>
<path d="M944.672 345.93C943.385 345.56 942.448 345.107 941.859 344.57C941.276 344.029 940.984 343.362 940.984 342.57C940.984 341.674 941.341 340.935 942.055 340.352C942.773 339.763 943.706 339.469 944.852 339.469C945.633 339.469 946.328 339.62 946.938 339.922C947.552 340.224 948.026 340.641 948.359 341.172C948.698 341.703 948.867 342.284 948.867 342.914H947.359C947.359 342.227 947.141 341.688 946.703 341.297C946.266 340.901 945.648 340.703 944.852 340.703C944.112 340.703 943.534 340.867 943.117 341.195C942.706 341.518 942.5 341.969 942.5 342.547C942.5 343.01 942.695 343.404 943.086 343.727C943.482 344.044 944.151 344.336 945.094 344.602C946.042 344.867 946.781 345.161 947.312 345.484C947.849 345.802 948.245 346.174 948.5 346.602C948.76 347.029 948.891 347.531 948.891 348.109C948.891 349.031 948.531 349.771 947.812 350.328C947.094 350.88 946.133 351.156 944.93 351.156C944.148 351.156 943.419 351.008 942.742 350.711C942.065 350.409 941.542 349.997 941.172 349.477C940.807 348.956 940.625 348.365 940.625 347.703H942.133C942.133 348.391 942.385 348.935 942.891 349.336C943.401 349.732 944.081 349.93 944.93 349.93C945.721 349.93 946.328 349.768 946.75 349.445C947.172 349.122 947.383 348.682 947.383 348.125C947.383 347.568 947.188 347.138 946.797 346.836C946.406 346.529 945.698 346.227 944.672 345.93ZM954.102 351.156C952.956 351.156 952.023 350.781 951.305 350.031C950.586 349.276 950.227 348.268 950.227 347.008V346.742C950.227 345.904 950.385 345.156 950.703 344.5C951.026 343.839 951.474 343.323 952.047 342.953C952.625 342.578 953.25 342.391 953.922 342.391C955.021 342.391 955.875 342.753 956.484 343.477C957.094 344.201 957.398 345.237 957.398 346.586V347.188H951.672C951.693 348.021 951.935 348.695 952.398 349.211C952.867 349.721 953.461 349.977 954.18 349.977C954.69 349.977 955.122 349.872 955.477 349.664C955.831 349.456 956.141 349.18 956.406 348.836L957.289 349.523C956.581 350.612 955.518 351.156 954.102 351.156ZM953.922 343.578C953.339 343.578 952.849 343.792 952.453 344.219C952.057 344.641 951.812 345.234 951.719 346H955.953V345.891C955.911 345.156 955.714 344.589 955.359 344.188C955.005 343.781 954.526 343.578 953.922 343.578ZM962.469 349.977C962.984 349.977 963.435 349.82 963.82 349.508C964.206 349.195 964.419 348.805 964.461 348.336H965.828C965.802 348.82 965.635 349.281 965.328 349.719C965.021 350.156 964.609 350.505 964.094 350.766C963.583 351.026 963.042 351.156 962.469 351.156C961.318 351.156 960.401 350.773 959.719 350.008C959.042 349.237 958.703 348.185 958.703 346.852V346.609C958.703 345.786 958.854 345.055 959.156 344.414C959.458 343.773 959.891 343.276 960.453 342.922C961.021 342.568 961.69 342.391 962.461 342.391C963.409 342.391 964.195 342.674 964.82 343.242C965.451 343.81 965.786 344.547 965.828 345.453H964.461C964.419 344.906 964.211 344.458 963.836 344.109C963.466 343.755 963.008 343.578 962.461 343.578C961.727 343.578 961.156 343.844 960.75 344.375C960.349 344.901 960.148 345.664 960.148 346.664V346.938C960.148 347.911 960.349 348.661 960.75 349.188C961.151 349.714 961.724 349.977 962.469 349.977ZM972.672 350.164C972.109 350.826 971.284 351.156 970.195 351.156C969.294 351.156 968.607 350.896 968.133 350.375C967.664 349.849 967.427 349.073 967.422 348.047V342.547H968.867V348.008C968.867 349.289 969.388 349.93 970.43 349.93C971.534 349.93 972.268 349.518 972.633 348.695V342.547H974.078V351H972.703L972.672 350.164ZM980.367 343.844C980.148 343.807 979.911 343.789 979.656 343.789C978.708 343.789 978.065 344.193 977.727 345V351H976.281V342.547H977.688L977.711 343.523C978.185 342.768 978.857 342.391 979.727 342.391C980.008 342.391 980.221 342.427 980.367 342.5V343.844ZM985.055 351.156C983.909 351.156 982.977 350.781 982.258 350.031C981.539 349.276 981.18 348.268 981.18 347.008V346.742C981.18 345.904 981.339 345.156 981.656 344.5C981.979 343.839 982.427 343.323 983 342.953C983.578 342.578 984.203 342.391 984.875 342.391C985.974 342.391 986.828 342.753 987.438 343.477C988.047 344.201 988.352 345.237 988.352 346.586V347.188H982.625C982.646 348.021 982.888 348.695 983.352 349.211C983.82 349.721 984.414 349.977 985.133 349.977C985.643 349.977 986.076 349.872 986.43 349.664C986.784 349.456 987.094 349.18 987.359 348.836L988.242 349.523C987.534 350.612 986.471 351.156 985.055 351.156ZM984.875 343.578C984.292 343.578 983.802 343.792 983.406 344.219C983.01 344.641 982.766 345.234 982.672 346H986.906V345.891C986.865 345.156 986.667 344.589 986.312 344.188C985.958 343.781 985.479 343.578 984.875 343.578ZM995.57 351H994.125V339H995.57V351ZM999.461 351H998.016V342.547H999.461V351ZM997.898 340.305C997.898 340.07 997.969 339.872 998.109 339.711C998.255 339.549 998.469 339.469 998.75 339.469C999.031 339.469 999.245 339.549 999.391 339.711C999.536 339.872 999.609 340.07 999.609 340.305C999.609 340.539 999.536 340.734 999.391 340.891C999.245 341.047 999.031 341.125 998.75 341.125C998.469 341.125 998.255 341.047 998.109 340.891C997.969 340.734 997.898 340.539 997.898 340.305ZM1003.15 342.547L1003.2 343.609C1003.84 342.797 1004.68 342.391 1005.73 342.391C1007.51 342.391 1008.41 343.398 1008.43 345.414V351H1006.98V345.406C1006.98 344.797 1006.84 344.346 1006.56 344.055C1006.29 343.763 1005.87 343.617 1005.29 343.617C1004.82 343.617 1004.41 343.742 1004.05 343.992C1003.7 344.242 1003.42 344.57 1003.23 344.977V351H1001.78V342.547H1003.15ZM1012.97 347.086L1012.06 348.031V351H1010.62V339H1012.06V346.258L1012.84 345.328L1015.47 342.547H1017.23L1013.94 346.078L1017.61 351H1015.91L1012.97 347.086Z" fill="white"/>
<path d="M626.757 333.742H621.828V337.773H627.554V339H620.328V327.625H627.476V328.859H621.828V332.516H626.757V333.742ZM630.554 330.547L630.593 331.484C631.213 330.755 632.049 330.391 633.101 330.391C634.283 330.391 635.088 330.844 635.515 331.75C635.797 331.344 636.161 331.016 636.609 330.766C637.062 330.516 637.596 330.391 638.211 330.391C640.065 330.391 641.007 331.372 641.039 333.336V339H639.593V333.422C639.593 332.818 639.455 332.367 639.179 332.07C638.903 331.768 638.44 331.617 637.789 331.617C637.252 331.617 636.807 331.779 636.453 332.102C636.099 332.419 635.893 332.849 635.836 333.391V339H634.382V333.461C634.382 332.232 633.781 331.617 632.578 331.617C631.63 331.617 630.981 332.021 630.632 332.828V339H629.187V330.547H630.554ZM648.445 339C648.362 338.833 648.294 338.536 648.242 338.109C647.57 338.807 646.768 339.156 645.836 339.156C645.002 339.156 644.317 338.922 643.781 338.453C643.25 337.979 642.984 337.38 642.984 336.656C642.984 335.776 643.317 335.094 643.984 334.609C644.656 334.12 645.599 333.875 646.812 333.875H648.218V333.211C648.218 332.706 648.067 332.305 647.765 332.008C647.463 331.706 647.018 331.555 646.429 331.555C645.914 331.555 645.481 331.685 645.132 331.945C644.783 332.206 644.609 332.521 644.609 332.891H643.156C643.156 332.469 643.304 332.062 643.601 331.672C643.903 331.276 644.31 330.964 644.82 330.734C645.336 330.505 645.901 330.391 646.515 330.391C647.489 330.391 648.252 330.635 648.804 331.125C649.356 331.609 649.643 332.279 649.664 333.133V337.023C649.664 337.799 649.763 338.417 649.961 338.875V339H648.445ZM646.047 337.898C646.5 337.898 646.929 337.781 647.336 337.547C647.742 337.312 648.036 337.008 648.218 336.633V334.898H647.086C645.315 334.898 644.429 335.417 644.429 336.453C644.429 336.906 644.58 337.26 644.882 337.516C645.185 337.771 645.573 337.898 646.047 337.898ZM653.5 339H652.054V330.547H653.5V339ZM651.937 328.305C651.937 328.07 652.007 327.872 652.148 327.711C652.294 327.549 652.507 327.469 652.789 327.469C653.07 327.469 653.283 327.549 653.429 327.711C653.575 327.872 653.648 328.07 653.648 328.305C653.648 328.539 653.575 328.734 653.429 328.891C653.283 329.047 653.07 329.125 652.789 329.125C652.507 329.125 652.294 329.047 652.148 328.891C652.007 328.734 651.937 328.539 651.937 328.305ZM657.39 339H655.945V327H657.39V339Z" fill="white"/>
<path d="M238.789 229.336L241.758 223.625H243.461L239.539 230.758V235H238.039V230.758L234.117 223.625H235.836L238.789 229.336ZM247.695 235.156C246.549 235.156 245.617 234.781 244.898 234.031C244.18 233.276 243.82 232.268 243.82 231.008V230.742C243.82 229.904 243.979 229.156 244.297 228.5C244.62 227.839 245.068 227.323 245.641 226.953C246.219 226.578 246.844 226.391 247.516 226.391C248.615 226.391 249.469 226.753 250.078 227.477C250.688 228.201 250.992 229.237 250.992 230.586V231.188H245.266C245.286 232.021 245.529 232.695 245.992 233.211C246.461 233.721 247.055 233.977 247.773 233.977C248.284 233.977 248.716 233.872 249.07 233.664C249.424 233.456 249.734 233.18 250 232.836L250.883 233.523C250.174 234.612 249.112 235.156 247.695 235.156ZM247.516 227.578C246.932 227.578 246.443 227.792 246.047 228.219C245.651 228.641 245.406 229.234 245.312 230H249.547V229.891C249.505 229.156 249.307 228.589 248.953 228.188C248.599 227.781 248.12 227.578 247.516 227.578ZM257.594 232.758C257.594 232.367 257.445 232.065 257.148 231.852C256.857 231.633 256.344 231.445 255.609 231.289C254.88 231.133 254.299 230.945 253.867 230.727C253.44 230.508 253.122 230.247 252.914 229.945C252.711 229.643 252.609 229.284 252.609 228.867C252.609 228.174 252.901 227.589 253.484 227.109C254.073 226.63 254.823 226.391 255.734 226.391C256.693 226.391 257.469 226.638 258.062 227.133C258.661 227.628 258.961 228.26 258.961 229.031H257.508C257.508 228.635 257.339 228.294 257 228.008C256.667 227.721 256.245 227.578 255.734 227.578C255.208 227.578 254.797 227.693 254.5 227.922C254.203 228.151 254.055 228.451 254.055 228.82C254.055 229.169 254.193 229.432 254.469 229.609C254.745 229.786 255.242 229.956 255.961 230.117C256.685 230.279 257.271 230.471 257.719 230.695C258.167 230.919 258.497 231.19 258.711 231.508C258.93 231.82 259.039 232.203 259.039 232.656C259.039 233.411 258.737 234.018 258.133 234.477C257.529 234.93 256.745 235.156 255.781 235.156C255.104 235.156 254.505 235.036 253.984 234.797C253.464 234.557 253.055 234.224 252.758 233.797C252.466 233.365 252.32 232.898 252.32 232.398H253.766C253.792 232.883 253.984 233.268 254.344 233.555C254.708 233.836 255.188 233.977 255.781 233.977C256.328 233.977 256.766 233.867 257.094 233.648C257.427 233.424 257.594 233.128 257.594 232.758Z" fill="white"/>
<path d="M244.062 505H242.555L236.828 496.234V505H235.32V493.625H236.828L242.57 502.43V493.625H244.062V505ZM246.117 500.695C246.117 499.867 246.279 499.122 246.602 498.461C246.93 497.799 247.383 497.289 247.961 496.93C248.544 496.57 249.208 496.391 249.953 496.391C251.104 496.391 252.034 496.789 252.742 497.586C253.456 498.383 253.812 499.443 253.812 500.766V500.867C253.812 501.69 253.654 502.43 253.336 503.086C253.023 503.737 252.573 504.245 251.984 504.609C251.401 504.974 250.729 505.156 249.969 505.156C248.823 505.156 247.893 504.758 247.18 503.961C246.471 503.164 246.117 502.109 246.117 500.797V500.695ZM247.57 500.867C247.57 501.805 247.786 502.557 248.219 503.125C248.656 503.693 249.24 503.977 249.969 503.977C250.703 503.977 251.286 503.69 251.719 503.117C252.151 502.539 252.367 501.732 252.367 500.695C252.367 499.768 252.146 499.018 251.703 498.445C251.266 497.867 250.682 497.578 249.953 497.578C249.24 497.578 248.664 497.862 248.227 498.43C247.789 498.997 247.57 499.81 247.57 500.867Z" fill="white"/>
<path d="M289.602 349.031H284.836L283.766 352H282.219L286.562 340.625H287.875L292.227 352H290.688L289.602 349.031ZM285.289 347.797H289.156L287.219 342.477L285.289 347.797ZM293.18 347.703C293.18 346.406 293.487 345.365 294.102 344.578C294.716 343.786 295.521 343.391 296.516 343.391C297.505 343.391 298.289 343.729 298.867 344.406V340H300.312V352H298.984L298.914 351.094C298.336 351.802 297.531 352.156 296.5 352.156C295.521 352.156 294.721 351.755 294.102 350.953C293.487 350.151 293.18 349.104 293.18 347.812V347.703ZM294.625 347.867C294.625 348.826 294.823 349.576 295.219 350.117C295.615 350.659 296.161 350.93 296.859 350.93C297.776 350.93 298.445 350.518 298.867 349.695V345.812C298.435 345.016 297.771 344.617 296.875 344.617C296.167 344.617 295.615 344.891 295.219 345.438C294.823 345.984 294.625 346.794 294.625 347.867ZM302.211 347.703C302.211 346.406 302.518 345.365 303.133 344.578C303.747 343.786 304.552 343.391 305.547 343.391C306.536 343.391 307.32 343.729 307.898 344.406V340H309.344V352H308.016L307.945 351.094C307.367 351.802 306.562 352.156 305.531 352.156C304.552 352.156 303.753 351.755 303.133 350.953C302.518 350.151 302.211 349.104 302.211 347.812V347.703ZM303.656 347.867C303.656 348.826 303.854 349.576 304.25 350.117C304.646 350.659 305.193 350.93 305.891 350.93C306.807 350.93 307.477 350.518 307.898 349.695V345.812C307.466 345.016 306.802 344.617 305.906 344.617C305.198 344.617 304.646 344.891 304.25 345.438C303.854 345.984 303.656 346.794 303.656 347.867ZM317.727 340.625L321.445 349.906L325.164 340.625H327.109V352H325.609V347.57L325.75 342.789L322.016 352H320.867L317.141 342.812L317.289 347.57V352H315.789V340.625H317.727ZM333.039 352.156C331.893 352.156 330.961 351.781 330.242 351.031C329.523 350.276 329.164 349.268 329.164 348.008V347.742C329.164 346.904 329.323 346.156 329.641 345.5C329.964 344.839 330.411 344.323 330.984 343.953C331.562 343.578 332.188 343.391 332.859 343.391C333.958 343.391 334.812 343.753 335.422 344.477C336.031 345.201 336.336 346.237 336.336 347.586V348.188H330.609C330.63 349.021 330.872 349.695 331.336 350.211C331.805 350.721 332.398 350.977 333.117 350.977C333.628 350.977 334.06 350.872 334.414 350.664C334.768 350.456 335.078 350.18 335.344 349.836L336.227 350.523C335.518 351.612 334.456 352.156 333.039 352.156ZM332.859 344.578C332.276 344.578 331.786 344.792 331.391 345.219C330.995 345.641 330.75 346.234 330.656 347H334.891V346.891C334.849 346.156 334.651 345.589 334.297 345.188C333.943 344.781 333.464 344.578 332.859 344.578ZM342.938 349.758C342.938 349.367 342.789 349.065 342.492 348.852C342.201 348.633 341.688 348.445 340.953 348.289C340.224 348.133 339.643 347.945 339.211 347.727C338.784 347.508 338.466 347.247 338.258 346.945C338.055 346.643 337.953 346.284 337.953 345.867C337.953 345.174 338.245 344.589 338.828 344.109C339.417 343.63 340.167 343.391 341.078 343.391C342.036 343.391 342.812 343.638 343.406 344.133C344.005 344.628 344.305 345.26 344.305 346.031H342.852C342.852 345.635 342.682 345.294 342.344 345.008C342.01 344.721 341.589 344.578 341.078 344.578C340.552 344.578 340.141 344.693 339.844 344.922C339.547 345.151 339.398 345.451 339.398 345.82C339.398 346.169 339.536 346.432 339.812 346.609C340.089 346.786 340.586 346.956 341.305 347.117C342.029 347.279 342.615 347.471 343.062 347.695C343.51 347.919 343.841 348.19 344.055 348.508C344.273 348.82 344.383 349.203 344.383 349.656C344.383 350.411 344.081 351.018 343.477 351.477C342.872 351.93 342.089 352.156 341.125 352.156C340.448 352.156 339.849 352.036 339.328 351.797C338.807 351.557 338.398 351.224 338.102 350.797C337.81 350.365 337.664 349.898 337.664 349.398H339.109C339.135 349.883 339.328 350.268 339.688 350.555C340.052 350.836 340.531 350.977 341.125 350.977C341.672 350.977 342.109 350.867 342.438 350.648C342.771 350.424 342.938 350.128 342.938 349.758ZM351.188 349.758C351.188 349.367 351.039 349.065 350.742 348.852C350.451 348.633 349.938 348.445 349.203 348.289C348.474 348.133 347.893 347.945 347.461 347.727C347.034 347.508 346.716 347.247 346.508 346.945C346.305 346.643 346.203 346.284 346.203 345.867C346.203 345.174 346.495 344.589 347.078 344.109C347.667 343.63 348.417 343.391 349.328 343.391C350.286 343.391 351.062 343.638 351.656 344.133C352.255 344.628 352.555 345.26 352.555 346.031H351.102C351.102 345.635 350.932 345.294 350.594 345.008C350.26 344.721 349.839 344.578 349.328 344.578C348.802 344.578 348.391 344.693 348.094 344.922C347.797 345.151 347.648 345.451 347.648 345.82C347.648 346.169 347.786 346.432 348.062 346.609C348.339 346.786 348.836 346.956 349.555 347.117C350.279 347.279 350.865 347.471 351.312 347.695C351.76 347.919 352.091 348.19 352.305 348.508C352.523 348.82 352.633 349.203 352.633 349.656C352.633 350.411 352.331 351.018 351.727 351.477C351.122 351.93 350.339 352.156 349.375 352.156C348.698 352.156 348.099 352.036 347.578 351.797C347.057 351.557 346.648 351.224 346.352 350.797C346.06 350.365 345.914 349.898 345.914 349.398H347.359C347.385 349.883 347.578 350.268 347.938 350.555C348.302 350.836 348.781 350.977 349.375 350.977C349.922 350.977 350.359 350.867 350.688 350.648C351.021 350.424 351.188 350.128 351.188 349.758ZM359.734 352C359.651 351.833 359.583 351.536 359.531 351.109C358.859 351.807 358.057 352.156 357.125 352.156C356.292 352.156 355.607 351.922 355.07 351.453C354.539 350.979 354.273 350.38 354.273 349.656C354.273 348.776 354.607 348.094 355.273 347.609C355.945 347.12 356.888 346.875 358.102 346.875H359.508V346.211C359.508 345.706 359.357 345.305 359.055 345.008C358.753 344.706 358.307 344.555 357.719 344.555C357.203 344.555 356.771 344.685 356.422 344.945C356.073 345.206 355.898 345.521 355.898 345.891H354.445C354.445 345.469 354.594 345.062 354.891 344.672C355.193 344.276 355.599 343.964 356.109 343.734C356.625 343.505 357.19 343.391 357.805 343.391C358.779 343.391 359.542 343.635 360.094 344.125C360.646 344.609 360.932 345.279 360.953 346.133V350.023C360.953 350.799 361.052 351.417 361.25 351.875V352H359.734ZM357.336 350.898C357.789 350.898 358.219 350.781 358.625 350.547C359.031 350.312 359.326 350.008 359.508 349.633V347.898H358.375C356.604 347.898 355.719 348.417 355.719 349.453C355.719 349.906 355.87 350.26 356.172 350.516C356.474 350.771 356.862 350.898 357.336 350.898ZM362.875 347.703C362.875 346.385 363.18 345.339 363.789 344.562C364.398 343.781 365.206 343.391 366.211 343.391C367.242 343.391 368.047 343.755 368.625 344.484L368.695 343.547H370.016V351.797C370.016 352.891 369.69 353.753 369.039 354.383C368.393 355.013 367.523 355.328 366.43 355.328C365.82 355.328 365.224 355.198 364.641 354.938C364.057 354.677 363.612 354.32 363.305 353.867L364.055 353C364.674 353.766 365.432 354.148 366.328 354.148C367.031 354.148 367.578 353.951 367.969 353.555C368.365 353.159 368.562 352.602 368.562 351.883V351.156C367.984 351.823 367.195 352.156 366.195 352.156C365.206 352.156 364.404 351.758 363.789 350.961C363.18 350.164 362.875 349.078 362.875 347.703ZM364.328 347.867C364.328 348.82 364.523 349.57 364.914 350.117C365.305 350.659 365.852 350.93 366.555 350.93C367.466 350.93 368.135 350.516 368.562 349.688V345.828C368.12 345.021 367.456 344.617 366.57 344.617C365.867 344.617 365.318 344.891 364.922 345.438C364.526 345.984 364.328 346.794 364.328 347.867ZM375.711 352.156C374.565 352.156 373.633 351.781 372.914 351.031C372.195 350.276 371.836 349.268 371.836 348.008V347.742C371.836 346.904 371.995 346.156 372.312 345.5C372.635 344.839 373.083 344.323 373.656 343.953C374.234 343.578 374.859 343.391 375.531 343.391C376.63 343.391 377.484 343.753 378.094 344.477C378.703 345.201 379.008 346.237 379.008 347.586V348.188H373.281C373.302 349.021 373.544 349.695 374.008 350.211C374.477 350.721 375.07 350.977 375.789 350.977C376.299 350.977 376.732 350.872 377.086 350.664C377.44 350.456 377.75 350.18 378.016 349.836L378.898 350.523C378.19 351.612 377.128 352.156 375.711 352.156ZM375.531 344.578C374.948 344.578 374.458 344.792 374.062 345.219C373.667 345.641 373.422 346.234 373.328 347H377.562V346.891C377.521 346.156 377.323 345.589 376.969 345.188C376.615 344.781 376.135 344.578 375.531 344.578Z" fill="white"/>
<path d="M850.828 337.773H856.219V339H849.32V327.625H850.828V337.773ZM859.273 339H857.828V330.547H859.273V339ZM857.711 328.305C857.711 328.07 857.781 327.872 857.922 327.711C858.068 327.549 858.281 327.469 858.562 327.469C858.844 327.469 859.057 327.549 859.203 327.711C859.349 327.872 859.422 328.07 859.422 328.305C859.422 328.539 859.349 328.734 859.203 328.891C859.057 329.047 858.844 329.125 858.562 329.125C858.281 329.125 858.068 329.047 857.922 328.891C857.781 328.734 857.711 328.539 857.711 328.305ZM862.961 330.547L863.008 331.609C863.654 330.797 864.497 330.391 865.539 330.391C867.326 330.391 868.227 331.398 868.242 333.414V339H866.797V333.406C866.792 332.797 866.651 332.346 866.375 332.055C866.104 331.763 865.68 331.617 865.102 331.617C864.633 331.617 864.221 331.742 863.867 331.992C863.513 332.242 863.237 332.57 863.039 332.977V339H861.594V330.547H862.961ZM872.781 335.086L871.875 336.031V339H870.43V327H871.875V334.258L872.648 333.328L875.281 330.547H877.039L873.75 334.078L877.422 339H875.727L872.781 335.086Z" fill="white"/>
<path d="M959.062 462H957.555L951.828 453.234V462H950.32V450.625H951.828L957.57 459.43V450.625H959.062V462ZM961.117 457.695C961.117 456.867 961.279 456.122 961.602 455.461C961.93 454.799 962.383 454.289 962.961 453.93C963.544 453.57 964.208 453.391 964.953 453.391C966.104 453.391 967.034 453.789 967.742 454.586C968.456 455.383 968.812 456.443 968.812 457.766V457.867C968.812 458.69 968.654 459.43 968.336 460.086C968.023 460.737 967.573 461.245 966.984 461.609C966.401 461.974 965.729 462.156 964.969 462.156C963.823 462.156 962.893 461.758 962.18 460.961C961.471 460.164 961.117 459.109 961.117 457.797V457.695ZM962.57 457.867C962.57 458.805 962.786 459.557 963.219 460.125C963.656 460.693 964.24 460.977 964.969 460.977C965.703 460.977 966.286 460.69 966.719 460.117C967.151 459.539 967.367 458.732 967.367 457.695C967.367 456.768 967.146 456.018 966.703 455.445C966.266 454.867 965.682 454.578 964.953 454.578C964.24 454.578 963.664 454.862 963.227 455.43C962.789 455.997 962.57 456.81 962.57 457.867Z" fill="white"/>
<path d="M600.292 345.844C599.902 346.235 599.903 346.868 600.294 347.259L606.665 353.615C607.056 354.005 607.689 354.005 608.079 353.614C608.469 353.223 608.468 352.59 608.077 352.2L602.414 346.549L608.065 340.886C608.455 340.495 608.454 339.862 608.063 339.472C607.672 339.082 607.039 339.082 606.649 339.473L600.292 345.844ZM666.004 345.478L600.999 345.551L601.001 347.551L666.006 347.478L666.004 345.478Z" fill="white"/>
<path d="M415.29 346.091C414.901 346.483 414.903 347.116 415.295 347.505L421.68 353.848C422.072 354.237 422.705 354.235 423.095 353.843C423.484 353.451 423.482 352.818 423.09 352.429L417.414 346.791L423.052 341.115C423.441 340.723 423.439 340.09 423.047 339.701C422.656 339.312 422.022 339.314 421.633 339.706L415.29 346.091ZM471.002 345.612L415.997 345.795L416.003 347.795L471.009 347.612L471.002 345.612Z" fill="white"/>
<path d="M332.091 482.902L332.091 483.902L333.091 483.902L333.091 482.902L332.091 482.902ZM127.5 482.902L126.5 482.907L126.506 483.902L127.5 483.902L127.5 482.902ZM127.703 394.289C127.31 393.901 126.677 393.904 126.289 394.297L119.961 400.697C119.573 401.09 119.577 401.723 119.969 402.111C120.362 402.499 120.995 402.496 121.383 402.103L127.008 396.414L132.697 402.039C133.09 402.427 133.723 402.423 134.111 402.031C134.499 401.638 134.496 401.005 134.103 400.617L127.703 394.289ZM332.092 456.402L333.092 456.402L333.092 456.402L332.092 456.402ZM332.091 481.902L127.5 481.902L127.5 483.902L332.091 483.902L332.091 481.902ZM128.5 482.896L128 394.994L126 395.006L126.5 482.907L128.5 482.896ZM331.092 436.402L331.092 456.402L333.092 456.402L333.092 436.402L331.092 436.402ZM331.092 456.402L331.091 482.902L333.091 482.902L333.092 456.402L331.092 456.402Z" fill="white"/>
<path d="M897.707 345.886C898.098 345.496 898.098 344.863 897.707 344.472L891.343 338.108C890.953 337.718 890.319 337.718 889.929 338.108C889.538 338.499 889.538 339.132 889.929 339.522L895.586 345.179L889.929 350.836C889.538 351.227 889.538 351.86 889.929 352.25C890.319 352.641 890.953 352.641 891.343 352.25L897.707 345.886ZM832 346.179H897V344.179H832V346.179Z" fill="white"/>
<path d="M1138.79 330.336L1141.76 324.625H1143.46L1139.54 331.758V336H1138.04V331.758L1134.12 324.625H1135.84L1138.79 330.336ZM1147.7 336.156C1146.55 336.156 1145.62 335.781 1144.9 335.031C1144.18 334.276 1143.82 333.268 1143.82 332.008V331.742C1143.82 330.904 1143.98 330.156 1144.3 329.5C1144.62 328.839 1145.07 328.323 1145.64 327.953C1146.22 327.578 1146.84 327.391 1147.52 327.391C1148.62 327.391 1149.47 327.753 1150.08 328.477C1150.69 329.201 1150.99 330.237 1150.99 331.586V332.188H1145.27C1145.29 333.021 1145.53 333.695 1145.99 334.211C1146.46 334.721 1147.06 334.977 1147.77 334.977C1148.28 334.977 1148.72 334.872 1149.07 334.664C1149.43 334.456 1149.74 334.18 1150 333.836L1150.88 334.523C1150.18 335.612 1149.11 336.156 1147.7 336.156ZM1147.52 328.578C1146.93 328.578 1146.44 328.792 1146.05 329.219C1145.65 329.641 1145.41 330.234 1145.31 331H1149.55V330.891C1149.51 330.156 1149.31 329.589 1148.95 329.188C1148.6 328.781 1148.12 328.578 1147.52 328.578ZM1157.59 333.758C1157.59 333.367 1157.45 333.065 1157.15 332.852C1156.86 332.633 1156.34 332.445 1155.61 332.289C1154.88 332.133 1154.3 331.945 1153.87 331.727C1153.44 331.508 1153.12 331.247 1152.91 330.945C1152.71 330.643 1152.61 330.284 1152.61 329.867C1152.61 329.174 1152.9 328.589 1153.49 328.109C1154.07 327.63 1154.82 327.391 1155.74 327.391C1156.69 327.391 1157.47 327.638 1158.06 328.133C1158.66 328.628 1158.96 329.26 1158.96 330.031H1157.51C1157.51 329.635 1157.34 329.294 1157 329.008C1156.67 328.721 1156.25 328.578 1155.74 328.578C1155.21 328.578 1154.8 328.693 1154.5 328.922C1154.2 329.151 1154.06 329.451 1154.06 329.82C1154.06 330.169 1154.19 330.432 1154.47 330.609C1154.75 330.786 1155.24 330.956 1155.96 331.117C1156.69 331.279 1157.27 331.471 1157.72 331.695C1158.17 331.919 1158.5 332.19 1158.71 332.508C1158.93 332.82 1159.04 333.203 1159.04 333.656C1159.04 334.411 1158.74 335.018 1158.13 335.477C1157.53 335.93 1156.75 336.156 1155.78 336.156C1155.1 336.156 1154.51 336.036 1153.99 335.797C1153.46 335.557 1153.06 335.224 1152.76 334.797C1152.47 334.365 1152.32 333.898 1152.32 333.398H1153.77C1153.79 333.883 1153.99 334.268 1154.34 334.555C1154.71 334.836 1155.19 334.977 1155.78 334.977C1156.33 334.977 1156.77 334.867 1157.09 334.648C1157.43 334.424 1157.59 334.128 1157.59 333.758Z" fill="white"/>
<path d="M1193 345.179H1194V344.179H1193V345.179ZM1193 530.5V531.5H1194V530.5H1193ZM1061.79 529.793C1061.4 530.183 1061.4 530.817 1061.79 531.207L1068.16 537.571C1068.55 537.962 1069.18 537.962 1069.57 537.571C1069.96 537.181 1069.96 536.547 1069.57 536.157L1063.91 530.5L1069.57 524.843C1069.96 524.453 1069.96 523.819 1069.57 523.429C1069.18 523.038 1068.55 523.038 1068.16 523.429L1061.79 529.793ZM1062.5 346.179H1193V344.179H1062.5V346.179ZM1192 345.179V530.5H1194V345.179H1192ZM1193 529.5H1062.5V531.5H1193V529.5Z" fill="white"/>
<path d="M333 242H334V241H333V242ZM123.5 242V241H122.5V242H123.5ZM122.793 314.707C123.183 315.098 123.817 315.098 124.207 314.707L130.571 308.343C130.962 307.953 130.962 307.319 130.571 306.929C130.181 306.538 129.547 306.538 129.157 306.929L123.5 312.586L117.843 306.929C117.453 306.538 116.819 306.538 116.429 306.929C116.038 307.319 116.038 307.953 116.429 308.343L122.793 314.707ZM334 258.916V242H332V258.916H334ZM333 241H123.5V243H333V241ZM122.5 242V314H124.5V242H122.5Z" fill="white"/>
<path d="M951.672 529.93C950.385 529.56 949.448 529.107 948.859 528.57C948.276 528.029 947.984 527.362 947.984 526.57C947.984 525.674 948.341 524.935 949.055 524.352C949.773 523.763 950.706 523.469 951.852 523.469C952.633 523.469 953.328 523.62 953.938 523.922C954.552 524.224 955.026 524.641 955.359 525.172C955.698 525.703 955.867 526.284 955.867 526.914H954.359C954.359 526.227 954.141 525.688 953.703 525.297C953.266 524.901 952.648 524.703 951.852 524.703C951.112 524.703 950.534 524.867 950.117 525.195C949.706 525.518 949.5 525.969 949.5 526.547C949.5 527.01 949.695 527.404 950.086 527.727C950.482 528.044 951.151 528.336 952.094 528.602C953.042 528.867 953.781 529.161 954.312 529.484C954.849 529.802 955.245 530.174 955.5 530.602C955.76 531.029 955.891 531.531 955.891 532.109C955.891 533.031 955.531 533.771 954.812 534.328C954.094 534.88 953.133 535.156 951.93 535.156C951.148 535.156 950.419 535.008 949.742 534.711C949.065 534.409 948.542 533.997 948.172 533.477C947.807 532.956 947.625 532.365 947.625 531.703H949.133C949.133 532.391 949.385 532.935 949.891 533.336C950.401 533.732 951.081 533.93 951.93 533.93C952.721 533.93 953.328 533.768 953.75 533.445C954.172 533.122 954.383 532.682 954.383 532.125C954.383 531.568 954.188 531.138 953.797 530.836C953.406 530.529 952.698 530.227 951.672 529.93ZM961.102 535.156C959.956 535.156 959.023 534.781 958.305 534.031C957.586 533.276 957.227 532.268 957.227 531.008V530.742C957.227 529.904 957.385 529.156 957.703 528.5C958.026 527.839 958.474 527.323 959.047 526.953C959.625 526.578 960.25 526.391 960.922 526.391C962.021 526.391 962.875 526.753 963.484 527.477C964.094 528.201 964.398 529.237 964.398 530.586V531.188H958.672C958.693 532.021 958.935 532.695 959.398 533.211C959.867 533.721 960.461 533.977 961.18 533.977C961.69 533.977 962.122 533.872 962.477 533.664C962.831 533.456 963.141 533.18 963.406 532.836L964.289 533.523C963.581 534.612 962.518 535.156 961.102 535.156ZM960.922 527.578C960.339 527.578 959.849 527.792 959.453 528.219C959.057 528.641 958.812 529.234 958.719 530H962.953V529.891C962.911 529.156 962.714 528.589 962.359 528.188C962.005 527.781 961.526 527.578 960.922 527.578ZM967.648 535H966.203V523H967.648V535ZM973.477 535.156C972.331 535.156 971.398 534.781 970.68 534.031C969.961 533.276 969.602 532.268 969.602 531.008V530.742C969.602 529.904 969.76 529.156 970.078 528.5C970.401 527.839 970.849 527.323 971.422 526.953C972 526.578 972.625 526.391 973.297 526.391C974.396 526.391 975.25 526.753 975.859 527.477C976.469 528.201 976.773 529.237 976.773 530.586V531.188H971.047C971.068 532.021 971.31 532.695 971.773 533.211C972.242 533.721 972.836 533.977 973.555 533.977C974.065 533.977 974.497 533.872 974.852 533.664C975.206 533.456 975.516 533.18 975.781 532.836L976.664 533.523C975.956 534.612 974.893 535.156 973.477 535.156ZM973.297 527.578C972.714 527.578 972.224 527.792 971.828 528.219C971.432 528.641 971.188 529.234 971.094 530H975.328V529.891C975.286 529.156 975.089 528.589 974.734 528.188C974.38 527.781 973.901 527.578 973.297 527.578ZM981.844 533.977C982.359 533.977 982.81 533.82 983.195 533.508C983.581 533.195 983.794 532.805 983.836 532.336H985.203C985.177 532.82 985.01 533.281 984.703 533.719C984.396 534.156 983.984 534.505 983.469 534.766C982.958 535.026 982.417 535.156 981.844 535.156C980.693 535.156 979.776 534.773 979.094 534.008C978.417 533.237 978.078 532.185 978.078 530.852V530.609C978.078 529.786 978.229 529.055 978.531 528.414C978.833 527.773 979.266 527.276 979.828 526.922C980.396 526.568 981.065 526.391 981.836 526.391C982.784 526.391 983.57 526.674 984.195 527.242C984.826 527.81 985.161 528.547 985.203 529.453H983.836C983.794 528.906 983.586 528.458 983.211 528.109C982.841 527.755 982.383 527.578 981.836 527.578C981.102 527.578 980.531 527.844 980.125 528.375C979.724 528.901 979.523 529.664 979.523 530.664V530.938C979.523 531.911 979.724 532.661 980.125 533.188C980.526 533.714 981.099 533.977 981.844 533.977ZM988.789 524.5V526.547H990.367V527.664H988.789V532.906C988.789 533.245 988.859 533.5 989 533.672C989.141 533.839 989.38 533.922 989.719 533.922C989.885 533.922 990.115 533.891 990.406 533.828V535C990.026 535.104 989.656 535.156 989.297 535.156C988.651 535.156 988.164 534.961 987.836 534.57C987.508 534.18 987.344 533.625 987.344 532.906V527.664H985.805V526.547H987.344V524.5H988.789ZM1001.25 535C1001.17 534.833 1001.1 534.536 1001.05 534.109C1000.38 534.807 999.573 535.156 998.641 535.156C997.807 535.156 997.122 534.922 996.586 534.453C996.055 533.979 995.789 533.38 995.789 532.656C995.789 531.776 996.122 531.094 996.789 530.609C997.461 530.12 998.404 529.875 999.617 529.875H1001.02V529.211C1001.02 528.706 1000.87 528.305 1000.57 528.008C1000.27 527.706 999.823 527.555 999.234 527.555C998.719 527.555 998.286 527.685 997.938 527.945C997.589 528.206 997.414 528.521 997.414 528.891H995.961C995.961 528.469 996.109 528.062 996.406 527.672C996.708 527.276 997.115 526.964 997.625 526.734C998.141 526.505 998.706 526.391 999.32 526.391C1000.29 526.391 1001.06 526.635 1001.61 527.125C1002.16 527.609 1002.45 528.279 1002.47 529.133V533.023C1002.47 533.799 1002.57 534.417 1002.77 534.875V535H1001.25ZM998.852 533.898C999.305 533.898 999.734 533.781 1000.14 533.547C1000.55 533.312 1000.84 533.008 1001.02 532.633V530.898H999.891C998.12 530.898 997.234 531.417 997.234 532.453C997.234 532.906 997.385 533.26 997.688 533.516C997.99 533.771 998.378 533.898 998.852 533.898ZM1011.88 530.867C1011.88 532.154 1011.58 533.19 1010.99 533.977C1010.4 534.763 1009.61 535.156 1008.6 535.156C1007.58 535.156 1006.77 534.831 1006.18 534.18V538.25H1004.73V526.547H1006.05L1006.12 527.484C1006.71 526.755 1007.53 526.391 1008.58 526.391C1009.59 526.391 1010.4 526.773 1010.98 527.539C1011.58 528.305 1011.88 529.37 1011.88 530.734V530.867ZM1010.43 530.703C1010.43 529.75 1010.23 528.997 1009.82 528.445C1009.41 527.893 1008.86 527.617 1008.15 527.617C1007.27 527.617 1006.62 528.005 1006.18 528.781V532.82C1006.61 533.591 1007.27 533.977 1008.16 533.977C1008.86 533.977 1009.41 533.703 1009.81 533.156C1010.22 532.604 1010.43 531.786 1010.43 530.703ZM1020.86 530.867C1020.86 532.154 1020.57 533.19 1019.98 533.977C1019.39 534.763 1018.59 535.156 1017.59 535.156C1016.56 535.156 1015.75 534.831 1015.16 534.18V538.25H1013.72V526.547H1015.04L1015.11 527.484C1015.7 526.755 1016.52 526.391 1017.56 526.391C1018.58 526.391 1019.38 526.773 1019.97 527.539C1020.56 528.305 1020.86 529.37 1020.86 530.734V530.867ZM1019.41 530.703C1019.41 529.75 1019.21 528.997 1018.8 528.445C1018.4 527.893 1017.84 527.617 1017.13 527.617C1016.26 527.617 1015.6 528.005 1015.16 528.781V532.82C1015.6 533.591 1016.26 533.977 1017.15 533.977C1017.84 533.977 1018.39 533.703 1018.8 533.156C1019.21 532.604 1019.41 531.786 1019.41 530.703Z" fill="white"/>
<path d="M836.293 531.222C835.902 531.612 835.902 532.246 836.293 532.636L842.657 539C843.047 539.391 843.68 539.391 844.071 539C844.461 538.609 844.461 537.976 844.071 537.586L838.414 531.929L844.071 526.272C844.461 525.882 844.461 525.248 844.071 524.858C843.68 524.467 843.047 524.467 842.657 524.858L836.293 531.222ZM920.505 530.929L837 530.929L837 532.929L920.505 532.929L920.505 530.929Z" fill="white"/>
<rect x="676" y="69" width="161" height="60.5177" rx="29" fill="#5BA2A1"/>
<path d="M721.488 108C723.088 107.979 724.32 107.488 725.184 106.528C726.059 105.557 726.496 104.213 726.496 102.496C726.496 101.429 726.309 100.496 725.936 99.696C725.573 98.8853 725.013 98.256 724.256 97.808C723.509 97.3493 722.587 97.12 721.488 97.12H717.36V108H721.488ZM721.568 98.88C722.507 98.88 723.205 99.1947 723.664 99.824C724.123 100.443 724.352 101.333 724.352 102.496C724.352 103.797 724.096 104.752 723.584 105.36C723.083 105.957 722.373 106.256 721.456 106.256H719.424V98.88H721.568ZM728.695 102.464C728.993 102.325 729.356 102.208 729.783 102.112C730.209 102.005 730.599 101.952 730.951 101.952C731.335 101.952 731.633 102.064 731.847 102.288C732.071 102.501 732.188 102.805 732.199 103.2H730.679C729.783 103.2 729.068 103.419 728.535 103.856C728.001 104.283 727.735 104.891 727.735 105.68C727.735 106.448 727.969 107.061 728.439 107.52C728.908 107.968 729.607 108.192 730.535 108.192C731.249 108.192 731.932 107.851 732.583 107.168L732.935 108H734.295V102.896C734.295 102.352 734.14 101.861 733.831 101.424C733.532 100.987 733.127 100.645 732.615 100.4C732.103 100.155 731.537 100.032 730.919 100.032C730.556 100.032 730.071 100.107 729.463 100.256C728.855 100.395 728.412 100.555 728.135 100.736L728.695 102.464ZM729.511 105.68C729.511 105.381 729.612 105.125 729.815 104.912C730.028 104.699 730.305 104.592 730.647 104.592H732.215V105.776C731.692 106.288 731.121 106.544 730.503 106.544C730.215 106.544 729.975 106.459 729.783 106.288C729.601 106.117 729.511 105.915 729.511 105.68ZM735.541 107.392C735.872 107.648 736.304 107.845 736.837 107.984C737.371 108.123 737.835 108.192 738.229 108.192C739.275 108.192 740.075 107.984 740.629 107.568C741.184 107.141 741.461 106.539 741.461 105.76C741.461 105.141 741.211 104.619 740.709 104.192C740.208 103.765 739.579 103.413 738.821 103.136C738.427 102.997 738.123 102.875 737.909 102.768C737.707 102.651 737.605 102.523 737.605 102.384C737.605 102.203 737.691 102.048 737.861 101.92C738.043 101.781 738.267 101.712 738.533 101.712C738.875 101.712 739.2 101.755 739.509 101.84C739.829 101.925 740.192 102.059 740.597 102.24L741.221 100.848C740.859 100.603 740.416 100.405 739.893 100.256C739.371 100.107 738.928 100.032 738.565 100.032C737.637 100.032 736.901 100.245 736.357 100.672C735.813 101.088 735.541 101.664 735.541 102.4C735.541 102.987 735.787 103.472 736.277 103.856C736.768 104.24 737.381 104.555 738.117 104.8C739.024 105.077 739.477 105.424 739.477 105.84C739.477 106.053 739.344 106.219 739.077 106.336C738.811 106.453 738.517 106.512 738.197 106.512C737.632 106.512 736.955 106.336 736.165 105.984L735.541 107.392ZM747.587 99.984C748.569 99.984 749.257 100.261 749.651 100.816C750.046 101.371 750.243 102.144 750.243 103.136V108H748.163V103.232C748.163 102.752 748.062 102.379 747.859 102.112C747.667 101.845 747.395 101.712 747.043 101.712C746.681 101.712 746.339 101.797 746.019 101.968C745.699 102.128 745.347 102.347 744.963 102.624V108H742.899V96.88L744.963 96.704V100.832C745.401 100.565 745.854 100.357 746.323 100.208C746.793 100.059 747.214 99.984 747.587 99.984ZM755.623 100.032C756.828 100.032 757.777 100.4 758.471 101.136C759.175 101.861 759.527 102.848 759.527 104.096C759.527 104.907 759.367 105.621 759.047 106.24C758.737 106.859 758.284 107.339 757.687 107.68C757.089 108.021 756.38 108.192 755.559 108.192C755.239 108.192 754.903 108.123 754.551 107.984C754.199 107.845 753.873 107.669 753.575 107.456L753.159 108H752.103V96.88L754.167 96.704V100.384C754.636 100.149 755.121 100.032 755.623 100.032ZM755.543 106.416C756.108 106.416 756.556 106.203 756.887 105.776C757.217 105.339 757.383 104.779 757.383 104.096C757.383 103.413 757.217 102.864 756.887 102.448C756.567 102.021 756.119 101.808 755.543 101.808C755.095 101.808 754.636 101.963 754.167 102.272V105.968C754.604 106.267 755.063 106.416 755.543 106.416ZM768.61 104.096C768.61 104.917 768.439 105.637 768.098 106.256C767.757 106.875 767.271 107.355 766.642 107.696C766.023 108.027 765.298 108.192 764.466 108.192C763.634 108.192 762.903 108.027 762.274 107.696C761.655 107.365 761.175 106.896 760.834 106.288C760.493 105.669 760.322 104.949 760.322 104.128C760.322 103.307 760.493 102.587 760.834 101.968C761.175 101.349 761.655 100.875 762.274 100.544C762.903 100.203 763.634 100.032 764.466 100.032C765.298 100.032 766.023 100.197 766.642 100.528C767.271 100.859 767.757 101.333 768.098 101.952C768.439 102.56 768.61 103.275 768.61 104.096ZM764.466 106.416C765.042 106.416 765.517 106.197 765.89 105.76C766.274 105.323 766.466 104.768 766.466 104.096C766.466 103.424 766.279 102.875 765.906 102.448C765.533 102.021 765.053 101.808 764.466 101.808C763.89 101.808 763.41 102.027 763.026 102.464C762.653 102.901 762.466 103.456 762.466 104.128C762.466 104.8 762.653 105.349 763.026 105.776C763.399 106.203 763.879 106.416 764.466 106.416ZM770.648 102.464C770.946 102.325 771.309 102.208 771.736 102.112C772.162 102.005 772.552 101.952 772.904 101.952C773.288 101.952 773.586 102.064 773.8 102.288C774.024 102.501 774.141 102.805 774.152 103.2H772.632C771.736 103.2 771.021 103.419 770.488 103.856C769.954 104.283 769.688 104.891 769.688 105.68C769.688 106.448 769.922 107.061 770.392 107.52C770.861 107.968 771.56 108.192 772.488 108.192C773.202 108.192 773.885 107.851 774.536 107.168L774.888 108H776.248V102.896C776.248 102.352 776.093 101.861 775.784 101.424C775.485 100.987 775.08 100.645 774.568 100.4C774.056 100.155 773.49 100.032 772.872 100.032C772.509 100.032 772.024 100.107 771.416 100.256C770.808 100.395 770.365 100.555 770.088 100.736L770.648 102.464ZM771.464 105.68C771.464 105.381 771.565 105.125 771.768 104.912C771.981 104.699 772.258 104.592 772.6 104.592H774.168V105.776C773.645 106.288 773.074 106.544 772.456 106.544C772.168 106.544 771.928 106.459 771.736 106.288C771.554 106.117 771.464 105.915 771.464 105.68ZM780.023 103.264C780.471 102.869 780.951 102.544 781.463 102.288C781.985 102.032 782.423 101.904 782.775 101.904L782.359 100.24C781.975 100.24 781.532 100.373 781.031 100.64C780.529 100.907 780.092 101.205 779.719 101.536L779.031 100.24H777.943V108H780.023V103.264ZM791.05 96.704V108H789.962L789.482 107.296C788.799 107.893 788.052 108.192 787.242 108.192C786.036 108.192 785.082 107.829 784.378 107.104C783.684 106.368 783.338 105.376 783.338 104.128C783.338 103.317 783.492 102.603 783.802 101.984C784.122 101.365 784.58 100.885 785.178 100.544C785.775 100.203 786.484 100.032 787.306 100.032C787.562 100.032 787.834 100.08 788.122 100.176C788.41 100.261 788.687 100.384 788.954 100.544V96.88L791.05 96.704ZM785.482 104.128C785.482 104.811 785.642 105.365 785.962 105.792C786.292 106.208 786.746 106.416 787.322 106.416C787.599 106.416 787.866 106.363 788.122 106.256C788.388 106.149 788.666 105.989 788.954 105.776V102.464C788.676 102.229 788.41 102.064 788.154 101.968C787.898 101.861 787.62 101.808 787.322 101.808C786.756 101.808 786.308 102.027 785.978 102.464C785.647 102.891 785.482 103.445 785.482 104.128Z" fill="black"/>
<rect x="666" y="502" width="161" height="60.5177" rx="29" fill="#5BA2A1"/>
<path d="M720.832 531.776H717.424V528.752H721.84L721.52 527.12H715.36V538H717.424V533.392H721.136L720.832 531.776ZM724.06 529.136C724.391 529.136 724.668 529.024 724.892 528.8C725.127 528.576 725.244 528.299 725.244 527.968C725.244 527.637 725.127 527.36 724.892 527.136C724.668 526.912 724.391 526.8 724.06 526.8C723.74 526.8 723.468 526.912 723.244 527.136C723.02 527.36 722.908 527.637 722.908 527.968C722.908 528.299 723.02 528.576 723.244 528.8C723.468 529.024 723.74 529.136 724.06 529.136ZM725.116 538V530.24H723.036V538H725.116ZM729.104 538V526.704L727.04 526.88V538H729.104ZM737.981 534.096C737.981 533.339 737.853 532.656 737.597 532.048C737.341 531.429 736.946 530.939 736.413 530.576C735.879 530.213 735.223 530.032 734.445 530.032C733.645 530.032 732.951 530.203 732.365 530.544C731.778 530.875 731.325 531.349 731.005 531.968C730.695 532.587 730.541 533.307 730.541 534.128C730.541 535.397 730.919 536.395 731.677 537.12C732.445 537.835 733.565 538.192 735.037 538.192C735.666 538.192 736.21 538.112 736.669 537.952C737.127 537.781 737.554 537.541 737.949 537.232L737.341 535.728C736.946 535.952 736.578 536.123 736.237 536.24C735.895 536.357 735.511 536.416 735.085 536.416C734.349 536.416 733.799 536.272 733.437 535.984C733.085 535.696 732.855 535.28 732.749 534.736H737.981V534.096ZM732.765 533.344C732.85 532.843 733.037 532.464 733.325 532.208C733.613 531.941 733.97 531.808 734.397 531.808C734.823 531.808 735.17 531.936 735.437 532.192C735.714 532.448 735.906 532.832 736.013 533.344H732.765ZM742.721 537.28C743.083 537.504 743.595 537.717 744.257 537.92C744.929 538.112 745.489 538.208 745.937 538.208C746.79 538.208 747.521 538.08 748.129 537.824C748.747 537.568 749.211 537.216 749.521 536.768C749.841 536.32 750.001 535.803 750.001 535.216C750.001 534.693 749.873 534.24 749.617 533.856C749.371 533.461 749.062 533.131 748.689 532.864C748.315 532.587 747.814 532.267 747.185 531.904L746.721 531.632L746.209 531.344C745.665 531.024 745.27 530.763 745.025 530.56C744.79 530.347 744.673 530.085 744.673 529.776C744.673 529.413 744.822 529.141 745.121 528.96C745.43 528.768 745.825 528.672 746.305 528.672C746.721 528.672 747.105 528.731 747.457 528.848C747.819 528.965 748.219 529.131 748.657 529.344L749.345 527.68C748.214 527.136 747.19 526.864 746.273 526.864C745.494 526.864 744.822 526.992 744.257 527.248C743.702 527.493 743.275 527.84 742.977 528.288C742.678 528.725 742.529 529.221 742.529 529.776C742.529 530.299 742.678 530.773 742.977 531.2C743.286 531.616 743.649 531.979 744.065 532.288C744.491 532.597 745.062 532.965 745.777 533.392L746.257 533.68C746.801 533.979 747.201 534.24 747.457 534.464C747.723 534.677 747.857 534.917 747.857 535.184C747.857 535.568 747.691 535.861 747.361 536.064C747.03 536.267 746.545 536.368 745.905 536.368C745.489 536.368 745.03 536.293 744.529 536.144C744.027 535.984 743.579 535.803 743.185 535.6L742.721 537.28ZM758.246 534.096C758.246 533.339 758.118 532.656 757.862 532.048C757.606 531.429 757.212 530.939 756.678 530.576C756.145 530.213 755.489 530.032 754.71 530.032C753.91 530.032 753.217 530.203 752.63 530.544C752.044 530.875 751.59 531.349 751.27 531.968C750.961 532.587 750.806 533.307 750.806 534.128C750.806 535.397 751.185 536.395 751.942 537.12C752.71 537.835 753.83 538.192 755.302 538.192C755.932 538.192 756.476 538.112 756.934 537.952C757.393 537.781 757.82 537.541 758.214 537.232L757.606 535.728C757.212 535.952 756.844 536.123 756.502 536.24C756.161 536.357 755.777 536.416 755.35 536.416C754.614 536.416 754.065 536.272 753.702 535.984C753.35 535.696 753.121 535.28 753.014 534.736H758.246V534.096ZM753.03 533.344C753.116 532.843 753.302 532.464 753.59 532.208C753.878 531.941 754.236 531.808 754.662 531.808C755.089 531.808 755.436 531.936 755.702 532.192C755.98 532.448 756.172 532.832 756.278 533.344H753.03ZM761.601 532.624C761.985 532.347 762.337 532.128 762.657 531.968C762.977 531.797 763.318 531.712 763.681 531.712C764.033 531.712 764.305 531.845 764.497 532.112C764.699 532.379 764.801 532.752 764.801 533.232V538H766.881V533.136C766.881 532.144 766.683 531.371 766.289 530.816C765.894 530.261 765.206 529.984 764.225 529.984C763.798 529.984 763.313 530.08 762.769 530.272C762.225 530.464 761.713 530.731 761.233 531.072L760.881 530.24H759.521V538H761.601V532.624ZM770.967 530.256V528.048L768.903 528.416V530.256H767.863V531.856H768.903V535.52C768.903 536.405 769.175 537.093 769.719 537.584C770.263 538.075 771.02 538.32 771.991 538.32C772.247 538.32 772.53 538.272 772.839 538.176C773.159 538.08 773.399 537.968 773.559 537.84L772.951 536.336C772.663 536.475 772.38 536.544 772.103 536.544C771.74 536.544 771.458 536.416 771.255 536.16C771.063 535.904 770.967 535.568 770.967 535.152V531.856H773.015L772.375 530.256H770.967Z" fill="black"/>
<rect x="55" y="324" width="161" height="60.5177" rx="29" fill="#5BA2A1"/>
<path d="M111.832 354.776H108.424V351.752H112.84L112.52 350.12H106.36V361H108.424V356.392H112.136L111.832 354.776ZM115.06 352.136C115.391 352.136 115.668 352.024 115.892 351.8C116.127 351.576 116.244 351.299 116.244 350.968C116.244 350.637 116.127 350.36 115.892 350.136C115.668 349.912 115.391 349.8 115.06 349.8C114.74 349.8 114.468 349.912 114.244 350.136C114.02 350.36 113.908 350.637 113.908 350.968C113.908 351.299 114.02 351.576 114.244 351.8C114.468 352.024 114.74 352.136 115.06 352.136ZM116.116 361V353.24H114.036V361H116.116ZM120.104 361V349.704L118.04 349.88V361H120.104ZM128.981 357.096C128.981 356.339 128.853 355.656 128.597 355.048C128.341 354.429 127.946 353.939 127.413 353.576C126.879 353.213 126.223 353.032 125.445 353.032C124.645 353.032 123.951 353.203 123.365 353.544C122.778 353.875 122.325 354.349 122.005 354.968C121.695 355.587 121.541 356.307 121.541 357.128C121.541 358.397 121.919 359.395 122.677 360.12C123.445 360.835 124.565 361.192 126.037 361.192C126.666 361.192 127.21 361.112 127.669 360.952C128.127 360.781 128.554 360.541 128.949 360.232L128.341 358.728C127.946 358.952 127.578 359.123 127.237 359.24C126.895 359.357 126.511 359.416 126.085 359.416C125.349 359.416 124.799 359.272 124.437 358.984C124.085 358.696 123.855 358.28 123.749 357.736H128.981V357.096ZM123.765 356.344C123.85 355.843 124.037 355.464 124.325 355.208C124.613 354.941 124.97 354.808 125.397 354.808C125.823 354.808 126.17 354.936 126.437 355.192C126.714 355.448 126.906 355.832 127.013 356.344H123.765ZM133.721 360.28C134.083 360.504 134.595 360.717 135.257 360.92C135.929 361.112 136.489 361.208 136.937 361.208C137.79 361.208 138.521 361.08 139.129 360.824C139.747 360.568 140.211 360.216 140.521 359.768C140.841 359.32 141.001 358.803 141.001 358.216C141.001 357.693 140.873 357.24 140.617 356.856C140.371 356.461 140.062 356.131 139.689 355.864C139.315 355.587 138.814 355.267 138.185 354.904L137.721 354.632L137.209 354.344C136.665 354.024 136.27 353.763 136.025 353.56C135.79 353.347 135.673 353.085 135.673 352.776C135.673 352.413 135.822 352.141 136.121 351.96C136.43 351.768 136.825 351.672 137.305 351.672C137.721 351.672 138.105 351.731 138.457 351.848C138.819 351.965 139.219 352.131 139.657 352.344L140.345 350.68C139.214 350.136 138.19 349.864 137.273 349.864C136.494 349.864 135.822 349.992 135.257 350.248C134.702 350.493 134.275 350.84 133.977 351.288C133.678 351.725 133.529 352.221 133.529 352.776C133.529 353.299 133.678 353.773 133.977 354.2C134.286 354.616 134.649 354.979 135.065 355.288C135.491 355.597 136.062 355.965 136.777 356.392L137.257 356.68C137.801 356.979 138.201 357.24 138.457 357.464C138.723 357.677 138.857 357.917 138.857 358.184C138.857 358.568 138.691 358.861 138.361 359.064C138.03 359.267 137.545 359.368 136.905 359.368C136.489 359.368 136.03 359.293 135.529 359.144C135.027 358.984 134.579 358.803 134.185 358.6L133.721 360.28ZM149.246 357.096C149.246 356.339 149.118 355.656 148.862 355.048C148.606 354.429 148.212 353.939 147.678 353.576C147.145 353.213 146.489 353.032 145.71 353.032C144.91 353.032 144.217 353.203 143.63 353.544C143.044 353.875 142.59 354.349 142.27 354.968C141.961 355.587 141.806 356.307 141.806 357.128C141.806 358.397 142.185 359.395 142.942 360.12C143.71 360.835 144.83 361.192 146.302 361.192C146.932 361.192 147.476 361.112 147.934 360.952C148.393 360.781 148.82 360.541 149.214 360.232L148.606 358.728C148.212 358.952 147.844 359.123 147.502 359.24C147.161 359.357 146.777 359.416 146.35 359.416C145.614 359.416 145.065 359.272 144.702 358.984C144.35 358.696 144.121 358.28 144.014 357.736H149.246V357.096ZM144.03 356.344C144.116 355.843 144.302 355.464 144.59 355.208C144.878 354.941 145.236 354.808 145.662 354.808C146.089 354.808 146.436 354.936 146.702 355.192C146.98 355.448 147.172 355.832 147.278 356.344H144.03ZM152.601 355.624C152.985 355.347 153.337 355.128 153.657 354.968C153.977 354.797 154.318 354.712 154.681 354.712C155.033 354.712 155.305 354.845 155.497 355.112C155.699 355.379 155.801 355.752 155.801 356.232V361H157.881V356.136C157.881 355.144 157.683 354.371 157.289 353.816C156.894 353.261 156.206 352.984 155.225 352.984C154.798 352.984 154.313 353.08 153.769 353.272C153.225 353.464 152.713 353.731 152.233 354.072L151.881 353.24H150.521V361H152.601V355.624ZM161.967 353.256V351.048L159.903 351.416V353.256H158.863V354.856H159.903V358.52C159.903 359.405 160.175 360.093 160.719 360.584C161.263 361.075 162.02 361.32 162.991 361.32C163.247 361.32 163.53 361.272 163.839 361.176C164.159 361.08 164.399 360.968 164.559 360.84L163.951 359.336C163.663 359.475 163.38 359.544 163.103 359.544C162.74 359.544 162.458 359.416 162.255 359.16C162.063 358.904 161.967 358.568 161.967 358.152V354.856H164.015L163.375 353.256H161.967Z" fill="black"/>
</svg>
