<svg width="182" height="90" viewBox="0 0 182 90" fill="none" xmlns="http://www.w3.org/2000/svg">
<circle cx="45" cy="45" r="45" fill="#B2F7EF"/>
<path d="M13.9 49.73L14.98 49.46V37.94L13.9 37.67V37.4H18.67C20.71 37.4 22.18 37.712 23.08 38.336C23.98 38.948 24.43 39.806 24.43 40.91C24.43 41.654 24.232 42.26 23.836 42.728C23.44 43.184 22.93 43.526 22.306 43.754C21.646 44.006 20.944 44.138 20.2 44.15V44.24C20.644 44.264 21.034 44.33 21.37 44.438C22.21 44.702 22.78 45.176 23.08 45.86L24.7 49.46L25.6 49.73V50H23.08C22.096 50 21.376 49.49 20.92 48.47L19.12 44.42H17.95V49.46L19.21 49.73V50H13.9V49.73ZM18.67 43.97C19.51 43.97 20.17 43.706 20.65 43.178C21.13 42.65 21.37 41.894 21.37 40.91C21.37 39.926 21.13 39.17 20.65 38.642C20.17 38.114 19.51 37.85 18.67 37.85H17.95V43.97H18.67ZM31.1835 50.27C29.6475 50.27 28.4535 49.85 27.6015 49.01C26.7495 48.158 26.3235 46.988 26.3235 45.5C26.3235 44.528 26.5095 43.682 26.8815 42.962C27.2535 42.242 27.7695 41.69 28.4295 41.306C29.1015 40.922 29.8695 40.73 30.7335 40.73C31.5975 40.73 32.3535 40.892 33.0015 41.216C33.6615 41.54 34.1655 41.978 34.5135 42.53C34.8735 43.07 35.0535 43.67 35.0535 44.33C35.0535 44.63 35.0235 44.888 34.9635 45.104L34.8735 45.41C34.3575 45.518 33.7995 45.608 33.1995 45.68C31.9395 45.86 30.6675 45.95 29.3835 45.95C29.3835 47.342 29.5755 48.338 29.9595 48.938C30.3435 49.526 30.8715 49.82 31.5435 49.82C32.0115 49.82 32.4435 49.712 32.8395 49.496C33.2475 49.268 33.5655 48.974 33.7935 48.614C34.0335 48.242 34.1535 47.864 34.1535 47.48H34.6035C34.6035 47.96 34.4595 48.416 34.1715 48.848C33.8835 49.28 33.4815 49.628 32.9655 49.892C32.4495 50.144 31.8555 50.27 31.1835 50.27ZM29.3835 45.5C30.1515 45.5 30.7755 45.47 31.2555 45.41C31.4595 45.398 31.6755 45.368 31.9035 45.32C31.9155 45.26 31.9455 45.128 31.9935 44.924C32.0535 44.624 32.0835 44.306 32.0835 43.97C32.0835 42.974 31.9515 42.248 31.6875 41.792C31.4235 41.324 31.1055 41.09 30.7335 41.09C29.8335 41.09 29.3835 42.56 29.3835 45.5ZM39.73 50.27C38.662 50.27 37.84 50.042 37.264 49.586C36.688 49.13 36.4 48.548 36.4 47.84C36.4 47.372 36.502 46.91 36.706 46.454C36.79 46.238 36.898 46.04 37.03 45.86C37.522 45.74 38.056 45.632 38.632 45.536C39.928 45.32 41.074 45.188 42.07 45.14V44.6C42.07 43.268 41.908 42.35 41.584 41.846C41.26 41.342 40.762 41.09 40.09 41.09C39.838 41.09 39.622 41.12 39.442 41.18L39.19 41.27V43.97L38.956 44.024C38.764 44.048 38.602 44.06 38.47 44.06C38.062 44.06 37.732 43.94 37.48 43.7C37.24 43.448 37.12 43.118 37.12 42.71C37.12 42.158 37.396 41.69 37.948 41.306C38.512 40.922 39.346 40.73 40.45 40.73C41.386 40.73 42.19 40.898 42.862 41.234C43.546 41.558 44.062 42.014 44.41 42.602C44.77 43.178 44.95 43.844 44.95 44.6V49.46L46.03 49.73V50H44.41C43.69 50 43.132 49.778 42.736 49.334C42.568 49.154 42.436 48.926 42.34 48.65C42.172 48.95 41.974 49.22 41.746 49.46C41.206 50 40.534 50.27 39.73 50.27ZM40.45 49.64C40.894 49.64 41.296 49.4 41.656 48.92C41.788 48.74 41.926 48.5 42.07 48.2V45.59C41.518 45.59 40.99 45.62 40.486 45.68C40.114 45.728 39.862 45.758 39.73 45.77C39.67 45.902 39.61 46.082 39.55 46.31C39.43 46.766 39.37 47.216 39.37 47.66C39.37 48.332 39.472 48.83 39.676 49.154C39.88 49.478 40.138 49.64 40.45 49.64ZM50.8084 50.27C50.1004 50.27 49.4704 50.09 48.9184 49.73C48.3664 49.358 47.9284 48.818 47.6044 48.11C47.2804 47.39 47.1184 46.52 47.1184 45.5C47.1184 43.964 47.4724 42.788 48.1804 41.972C48.9004 41.144 49.8664 40.73 51.0784 40.73C51.6544 40.73 52.1584 40.85 52.5904 41.09C52.7704 41.174 52.9564 41.294 53.1484 41.45V37.94L52.0684 37.67V37.4H54.4084C55.4884 37.4 56.0284 37.94 56.0284 39.02V49.46L57.1084 49.73V50H55.4884C54.7684 50 54.2104 49.778 53.8144 49.334C53.6464 49.154 53.5144 48.926 53.4184 48.65C53.2624 48.95 53.0644 49.22 52.8244 49.46C52.2844 50 51.6124 50.27 50.8084 50.27ZM51.5284 49.64C51.9724 49.64 52.3744 49.4 52.7344 48.92C52.8664 48.74 53.0044 48.5 53.1484 48.2V41.99C53.0164 41.858 52.8784 41.738 52.7344 41.63C52.4104 41.39 52.0984 41.27 51.7984 41.27C51.2824 41.27 50.8804 41.57 50.5924 42.17C50.3164 42.77 50.1784 43.88 50.1784 45.5C50.1784 47.048 50.3044 48.128 50.5564 48.74C50.8204 49.34 51.1444 49.64 51.5284 49.64ZM69.5355 50.27C67.6155 50.27 66.1155 49.7 65.0355 48.56C63.9555 47.42 63.4155 45.8 63.4155 43.7C63.4155 42.32 63.6495 41.138 64.1175 40.154C64.5975 39.158 65.2635 38.408 66.1155 37.904C66.9795 37.388 67.9755 37.13 69.1035 37.13C69.7875 37.13 70.4775 37.328 71.1735 37.724C71.4375 37.868 71.7015 38.06 71.9655 38.3C72.1695 37.988 72.3795 37.742 72.5955 37.562C72.8115 37.406 72.9315 37.322 72.9555 37.31H73.4055V40.73H72.6855C72.5295 40.154 72.2955 39.632 71.9835 39.164C71.6955 38.708 71.3355 38.33 70.9035 38.03C70.4835 37.73 69.9975 37.58 69.4455 37.58C68.6175 37.58 67.9275 38.06 67.3755 39.02C66.8355 39.98 66.5655 41.54 66.5655 43.7C66.5655 45.896 66.8595 47.468 67.4475 48.416C68.0475 49.352 68.8635 49.82 69.8955 49.82C70.4595 49.82 70.9935 49.664 71.4975 49.352C72.0135 49.028 72.4275 48.602 72.7395 48.074C73.0635 47.546 73.2255 46.988 73.2255 46.4H73.6755C73.6755 47.084 73.4895 47.726 73.1175 48.326C72.7575 48.914 72.2595 49.388 71.6235 49.748C70.9995 50.096 70.3035 50.27 69.5355 50.27ZM78.5425 50.27C77.4745 50.27 76.6525 50.042 76.0765 49.586C75.5005 49.13 75.2125 48.548 75.2125 47.84C75.2125 47.372 75.3145 46.91 75.5185 46.454C75.6025 46.238 75.7105 46.04 75.8425 45.86C76.3345 45.74 76.8685 45.632 77.4445 45.536C78.7405 45.32 79.8865 45.188 80.8825 45.14V44.6C80.8825 43.268 80.7205 42.35 80.3965 41.846C80.0725 41.342 79.5745 41.09 78.9025 41.09C78.6505 41.09 78.4345 41.12 78.2545 41.18L78.0025 41.27V43.97L77.7685 44.024C77.5765 44.048 77.4145 44.06 77.2825 44.06C76.8745 44.06 76.5445 43.94 76.2925 43.7C76.0525 43.448 75.9325 43.118 75.9325 42.71C75.9325 42.158 76.2085 41.69 76.7605 41.306C77.3245 40.922 78.1585 40.73 79.2625 40.73C80.1985 40.73 81.0025 40.898 81.6745 41.234C82.3585 41.558 82.8745 42.014 83.2225 42.602C83.5825 43.178 83.7625 43.844 83.7625 44.6V49.46L84.8425 49.73V50H83.2225C82.5025 50 81.9445 49.778 81.5485 49.334C81.3805 49.154 81.2485 48.926 81.1525 48.65C80.9845 48.95 80.7865 49.22 80.5585 49.46C80.0185 50 79.3465 50.27 78.5425 50.27ZM79.2625 49.64C79.7065 49.64 80.1085 49.4 80.4685 48.92C80.6005 48.74 80.7385 48.5 80.8825 48.2V45.59C80.3305 45.59 79.8025 45.62 79.2985 45.68C78.9265 45.728 78.6745 45.758 78.5425 45.77C78.4825 45.902 78.4225 46.082 78.3625 46.31C78.2425 46.766 78.1825 47.216 78.1825 47.66C78.1825 48.332 78.2845 48.83 78.4885 49.154C78.6925 49.478 78.9505 49.64 79.2625 49.64ZM90.1609 50.27C89.4169 50.27 88.7509 50.108 88.1629 49.784C87.8749 49.628 87.6409 49.46 87.4609 49.28C87.2689 49.544 87.0589 49.748 86.8309 49.892C86.7229 49.964 86.6029 50.03 86.4709 50.09H86.0209V47.03H86.7409C86.8969 47.534 87.1249 48.002 87.4249 48.434C88.0609 49.358 88.8529 49.82 89.8009 49.82C90.3049 49.82 90.6829 49.7 90.9349 49.46C91.1989 49.208 91.3309 48.848 91.3309 48.38C91.3309 47.984 91.1509 47.654 90.7909 47.39C90.4429 47.114 89.8909 46.778 89.1349 46.382C88.4869 46.058 87.9589 45.77 87.5509 45.518C87.1549 45.254 86.8129 44.93 86.5249 44.546C86.2489 44.15 86.1109 43.688 86.1109 43.16C86.1109 42.44 86.4169 41.858 87.0289 41.414C87.6529 40.958 88.6069 40.73 89.8909 40.73C90.5269 40.73 91.1149 40.898 91.6549 41.234C91.9189 41.39 92.1469 41.552 92.3389 41.72C92.4949 41.504 92.7049 41.3 92.9689 41.108C93.1729 40.988 93.2929 40.922 93.3289 40.91H93.7789V43.97H93.0589C92.8789 43.454 92.6569 42.992 92.3929 42.584C91.7929 41.648 91.0789 41.18 90.2509 41.18C89.9269 41.18 89.6509 41.3 89.4229 41.54C89.1949 41.78 89.0809 42.08 89.0809 42.44C89.0809 42.896 89.2729 43.28 89.6569 43.592C90.0409 43.892 90.6229 44.24 91.4029 44.636C92.0389 44.96 92.5429 45.248 92.9149 45.5C93.2989 45.74 93.6229 46.04 93.8869 46.4C94.1629 46.76 94.3009 47.18 94.3009 47.66C94.3009 49.4 92.9209 50.27 90.1609 50.27ZM100.512 50.27C98.9756 50.27 97.7816 49.85 96.9296 49.01C96.0776 48.158 95.6516 46.988 95.6516 45.5C95.6516 44.528 95.8376 43.682 96.2096 42.962C96.5816 42.242 97.0976 41.69 97.7576 41.306C98.4296 40.922 99.1976 40.73 100.062 40.73C100.926 40.73 101.682 40.892 102.33 41.216C102.99 41.54 103.494 41.978 103.842 42.53C104.202 43.07 104.382 43.67 104.382 44.33C104.382 44.63 104.352 44.888 104.292 45.104L104.202 45.41C103.686 45.518 103.128 45.608 102.528 45.68C101.268 45.86 99.9956 45.95 98.7116 45.95C98.7116 47.342 98.9036 48.338 99.2876 48.938C99.6716 49.526 100.2 49.82 100.872 49.82C101.34 49.82 101.772 49.712 102.168 49.496C102.576 49.268 102.894 48.974 103.122 48.614C103.362 48.242 103.482 47.864 103.482 47.48H103.932C103.932 47.96 103.788 48.416 103.5 48.848C103.212 49.28 102.81 49.628 102.294 49.892C101.778 50.144 101.184 50.27 100.512 50.27ZM98.7116 45.5C99.4796 45.5 100.104 45.47 100.584 45.41C100.788 45.398 101.004 45.368 101.232 45.32C101.244 45.26 101.274 45.128 101.322 44.924C101.382 44.624 101.412 44.306 101.412 43.97C101.412 42.974 101.28 42.248 101.016 41.792C100.752 41.324 100.434 41.09 100.062 41.09C99.1616 41.09 98.7116 42.56 98.7116 45.5ZM115.359 50.27C114.507 50.27 113.709 50.078 112.965 49.694C112.629 49.526 112.347 49.328 112.119 49.1C111.951 49.376 111.741 49.622 111.489 49.838C111.273 49.994 111.153 50.078 111.129 50.09H110.679V46.67H111.399C111.579 47.258 111.831 47.786 112.155 48.254C112.887 49.298 113.835 49.82 114.999 49.82C115.683 49.82 116.229 49.616 116.637 49.208C117.045 48.8 117.249 48.254 117.249 47.57C117.249 47.174 117.129 46.82 116.889 46.508C116.661 46.196 116.373 45.92 116.025 45.68C115.677 45.44 115.191 45.14 114.567 44.78C113.775 44.336 113.133 43.934 112.641 43.574C112.149 43.214 111.729 42.764 111.381 42.224C111.033 41.672 110.859 41.024 110.859 40.28C110.859 39.692 111.021 39.164 111.345 38.696C111.681 38.216 112.179 37.838 112.839 37.562C113.499 37.274 114.309 37.13 115.269 37.13C115.965 37.13 116.661 37.328 117.357 37.724C117.621 37.868 117.885 38.06 118.149 38.3C118.353 37.988 118.563 37.742 118.779 37.562C118.995 37.406 119.115 37.322 119.139 37.31H119.589V40.73H118.869C118.713 40.154 118.479 39.632 118.167 39.164C117.879 38.708 117.519 38.33 117.087 38.03C116.667 37.73 116.181 37.58 115.629 37.58C115.161 37.58 114.759 37.766 114.423 38.138C114.087 38.51 113.919 38.984 113.919 39.56C113.919 40.004 114.045 40.406 114.297 40.766C114.561 41.114 114.879 41.42 115.251 41.684C115.635 41.948 116.151 42.266 116.799 42.638C117.555 43.07 118.167 43.454 118.635 43.79C119.103 44.126 119.499 44.546 119.823 45.05C120.147 45.542 120.309 46.112 120.309 46.76C120.309 47.408 120.123 48.002 119.751 48.542C119.379 49.07 118.821 49.49 118.077 49.802C117.333 50.114 116.427 50.27 115.359 50.27ZM126.154 50.27C125.362 50.27 124.672 50.126 124.084 49.838C123.508 49.55 123.064 49.154 122.752 48.65C122.44 48.146 122.284 47.576 122.284 46.94V41.45H121.024V41H122.284V40.1C122.284 39.02 122.824 38.48 123.904 38.48H125.164V41H127.684V41.45H125.164V46.94C125.164 48.044 125.278 48.8 125.506 49.208C125.734 49.616 126.07 49.82 126.514 49.82C126.946 49.82 127.324 49.61 127.648 49.19C127.972 48.77 128.134 48.2 128.134 47.48H128.584C128.584 48.368 128.362 49.058 127.918 49.55C127.474 50.03 126.886 50.27 126.154 50.27ZM133.546 50.27C132.874 50.27 132.268 50.132 131.728 49.856C131.2 49.568 130.786 49.196 130.486 48.74C130.186 48.284 130.036 47.804 130.036 47.3V41.54L128.956 41.27V41H131.296C132.376 41 132.916 41.54 132.916 42.62V47.3C132.916 48.056 133.048 48.638 133.312 49.046C133.588 49.442 133.906 49.64 134.266 49.64C134.71 49.64 135.112 49.4 135.472 48.92C135.604 48.74 135.742 48.5 135.886 48.2V41.54L134.806 41.27V41H139.846V41.27L138.766 41.54V50.09H138.586C137.71 50.09 137.044 49.85 136.588 49.37C136.384 49.154 136.24 48.914 136.156 48.65C135.988 48.95 135.79 49.22 135.562 49.46C135.022 50 134.35 50.27 133.546 50.27ZM144.623 50.27C143.915 50.27 143.285 50.09 142.733 49.73C142.181 49.358 141.743 48.818 141.419 48.11C141.095 47.39 140.933 46.52 140.933 45.5C140.933 43.964 141.287 42.788 141.995 41.972C142.715 41.144 143.681 40.73 144.893 40.73C145.469 40.73 145.973 40.85 146.405 41.09C146.585 41.174 146.771 41.294 146.963 41.45V37.94L145.883 37.67V37.4H148.223C149.303 37.4 149.843 37.94 149.843 39.02V49.46L150.923 49.73V50H149.303C148.583 50 148.025 49.778 147.629 49.334C147.461 49.154 147.329 48.926 147.233 48.65C147.077 48.95 146.879 49.22 146.639 49.46C146.099 50 145.427 50.27 144.623 50.27ZM145.343 49.64C145.787 49.64 146.189 49.4 146.549 48.92C146.681 48.74 146.819 48.5 146.963 48.2V41.99C146.831 41.858 146.693 41.738 146.549 41.63C146.225 41.39 145.913 41.27 145.613 41.27C145.097 41.27 144.695 41.57 144.407 42.17C144.131 42.77 143.993 43.88 143.993 45.5C143.993 47.048 144.119 48.128 144.371 48.74C144.635 49.34 144.959 49.64 145.343 49.64ZM154.075 53.87C153.535 53.87 153.115 53.726 152.815 53.438C152.515 53.15 152.365 52.754 152.365 52.25C152.365 51.794 152.485 51.44 152.725 51.188C152.977 50.936 153.307 50.81 153.715 50.81C153.811 50.81 153.907 50.816 154.003 50.828C154.099 50.852 154.165 50.864 154.201 50.864L154.435 50.9V53.33C154.783 53.27 155.089 53.078 155.353 52.754C155.617 52.43 155.911 51.872 156.235 51.08L156.595 50.18L151.915 41.54L151.015 41.27V41H153.265C153.889 41 154.381 41.132 154.741 41.396C155.113 41.648 155.431 42.026 155.695 42.53L157.945 46.688L159.835 41.81L158.485 41.27V41H161.815V41.27L160.375 41.81L156.775 51.08C156.391 52.064 155.983 52.772 155.551 53.204C155.119 53.648 154.627 53.87 154.075 53.87Z" fill="white"/>
<path d="M181.707 45.7071C182.098 45.3166 182.098 44.6834 181.707 44.2929L175.343 37.9289C174.953 37.5384 174.319 37.5384 173.929 37.9289C173.538 38.3195 173.538 38.9526 173.929 39.3431L179.586 45L173.929 50.6569C173.538 51.0474 173.538 51.6805 173.929 52.0711C174.319 52.4616 174.953 52.4616 175.343 52.0711L181.707 45.7071ZM166 46H181V44H166V46Z" fill="white"/>
</svg>
