<svg width="51" height="50" viewBox="0 0 51 50" fill="none" xmlns="http://www.w3.org/2000/svg">
<path d="M18.7949 37.9579L14.9689 33.3783L12.6396 38.8318L15.8612 42.8079C16.4873 43.3191 16.7135 43.1537 17.0443 42.2994L18.7949 37.9579Z" fill="#228CDB"/>
<path d="M19.6627 19.6404L15.7109 14.8877L13.4064 20.6031L17.3582 25.3558L19.6627 19.6404Z" fill="#B2F7EF"/>
<path d="M20.3015 19.1833L16.3151 14.3546L22.6725 13.303L26.3531 18.0814L20.3015 19.1833Z" fill="#228CDB"/>
<path d="M22.0163 12.6782L18.1779 7.96765L12.8362 8.76444C12.4277 8.83854 12.284 9.00174 12.2645 9.37359C12.245 9.74545 15.8734 13.6831 15.8734 13.6831L22.0163 12.6782Z" fill="#B2F7EF"/>
<path d="M29.0706 11.5073L25.1312 6.88558L19.0327 7.78051L22.871 12.4911L29.0706 11.5073Z" fill="#228CDB"/>
<path d="M29.6588 11.0296L31.4537 6.5782C31.5007 6.17668 31.399 6.0269 30.8494 5.97475L26.1288 6.68626L29.6588 11.0296Z" fill="#5FBFF9"/>
<path d="M27.1321 17.611C27.1888 17.632 29.1043 12.7199 29.1043 12.7199C29.2484 12.3684 29.2594 12.3352 28.7738 12.4076C28.2881 12.4801 23.7031 13.1787 23.5454 13.2465C23.3876 13.3143 27.0754 17.5899 27.1321 17.611Z" fill="#E0ACD5"/>
<path d="M20.9051 19.7863L26.5624 18.8539L24.7675 23.3053C24.4914 23.8033 24.2877 23.8305 23.853 23.4713L20.9051 19.7863Z" fill="#FF5964"/>
<path d="M12.842 19.8897L15.1244 14.2293C15.1244 14.2293 12.3617 11.0553 11.8017 10.342C11.2417 9.62861 11.0026 9.78526 10.6506 10.6096L8.83352 15.116L12.842 19.8897Z" fill="#5FBFF9"/>
<path d="M17.9168 26.0692L20.2656 20.2439C20.2656 20.2439 22.1626 22.6541 22.9964 23.6587C23.8302 24.6633 23.9728 25.0768 23.4587 26.2313L21.7303 30.5179L17.9168 26.0692Z" fill="#5FBFF9"/>
<path d="M8.50391 15.9399L12.4557 20.6926L10.1733 26.3531L6.19936 21.6553L8.50391 15.9399Z" fill="#FF5964"/>
<path d="M16.9327 26.0833L13.1289 21.4487L10.8244 27.1641L14.6282 31.7987L16.9327 26.0833Z" fill="#FF5964"/>
<path d="M21.4075 31.4734L17.4336 26.7756L15.1734 32.3811L19.1695 37.0239L21.4075 31.4734Z" fill="#E0ACD5"/>
<path d="M14.3964 32.5341L10.457 27.9124L8.19681 33.5178L12.1362 38.1396L14.3964 32.5341Z" fill="#B2F7EF"/>
<path d="M9.76245 27.2117L5.96842 22.3912L4.06274 27.1174C3.71022 27.894 3.78705 28.2906 4.37183 28.9381L7.50222 32.8172L9.76245 27.2117Z" fill="#E0ACD5"/>
<path d="M30.5622 13.251L32.9566 7.31273C33.2839 6.75421 33.5504 6.71233 34.2205 7.27625L36.3003 9.94486C36.8689 10.7076 36.9969 11.1551 36.8582 11.9853C36.8582 11.9853 34.29 18.6808 33.7579 20.0004C33.2258 21.32 30.9384 20.4708 31.4705 19.1512L34.1309 12.5531C34.6671 11.4141 34.5121 11.1255 33.8846 10.8812C33.8846 10.8812 33.4004 12.4083 32.6209 14.0153C31.8414 15.6224 30.141 14.2957 30.5622 13.251Z" fill="#FF5964"/>
<path d="M26.7267 22.7633L29.2985 16.3851C29.6317 15.5573 29.9578 15.2392 30.8728 15.5789C31.7877 15.9185 31.9208 16.3157 31.5859 17.2344L29.7679 21.7431L34.1559 20.97L37.2376 13.3272C37.6588 12.2825 38.5975 12.4902 39.7724 13.889L45.232 20.4043C45.9972 21.2539 45.7086 21.4827 44.5283 21.6602L39.3212 22.5084C38.0562 22.6527 37.491 22.5641 37.462 21.2492L38.1808 19.3036C38.4293 18.8403 38.6931 18.7255 39.3361 18.721C40.0032 18.903 40.2991 19.0816 40.4075 19.8142C40.5737 19.9745 40.6836 20.0248 40.9222 20.0053C41.7942 19.9178 41.8576 19.7358 41.2547 19.1805C41.2547 19.1805 39.8589 17.5876 39.3279 16.948C38.7968 16.3083 38.615 16.0266 38.2134 17.1031L36.3289 21.7768C35.9805 22.8256 35.6228 23.1146 34.7617 23.2178L27.8495 24.3812C26.4472 24.4593 26.0723 24.2001 26.7267 22.7633Z" fill="#FF5964"/>
<path d="M22.5143 33.2102L25.4852 25.8424L25.9263 25.5636L26.6183 25.3148L27.9709 25.0584L30.5173 24.6131C31.3617 24.5477 31.6221 24.7069 31.4393 25.5876L29.7322 29.8213C29.3774 30.7011 27.1029 29.983 27.5019 28.9933L28.1892 27.2888L27.3478 27.4189L24.6874 34.017C24.1774 35.2817 21.9379 34.6398 22.5143 33.2102Z" fill="#FF5964"/>
<path d="M18.4793 43.2174L21.4723 35.7945C22.0488 34.3649 24.314 35.2691 23.7597 36.6437L21.9196 41.2074C21.9196 41.2074 28.9811 40.1627 30.4481 39.9487C31.915 39.7348 32.1905 41.9864 31.0982 42.0866C30.0059 42.1867 20.1155 43.888 19.4328 43.9506C18.7501 44.0133 18.1911 43.9321 18.4793 43.2174Z" fill="#FF5964"/>
<path d="M41.94 24.4922C42.3835 23.3925 40.2676 22.6069 39.8242 23.7066L35.767 33.7687C35.3236 34.8684 35.6795 35.127 36.5338 35.1281C37.3881 35.1291 38.5597 34.9952 38.5597 34.9952L36.9191 39.064C36.9191 39.064 35.1219 39.2818 33.4169 39.597C31.7119 39.9122 32.5079 41.8514 33.8733 41.7261C35.2387 41.6009 37.0803 41.2732 37.6486 41.1681C38.2169 41.063 38.8168 40.7168 39.105 40.002L41.8098 33.294C42.0758 32.6341 41.8121 32.473 40.8435 32.4295C39.8748 32.3859 38.7253 32.4649 38.7253 32.4649L39.0135 31.7501C41.358 31.6279 42.392 31.2866 43.2509 29.72L45.4679 24.2216C46.0887 22.682 43.9654 21.7519 43.2949 23.4148L41.0778 28.9132L40.0334 29.2208L41.94 24.4922Z" fill="#FF5964"/>
<path d="M30.143 30.9221C30.143 30.9221 29.8738 30.8661 27.7518 30.9825C25.6298 31.099 25.9421 33.6404 27.8021 33.4666C29.6621 33.2928 30.9519 32.9924 30.9519 32.9924C31.5444 32.7819 31.8178 32.6365 32.0943 32.2787L34.5109 26.2855L35.4667 26.1978L32.4165 33.5994C32.4165 33.5994 27.4474 34.3464 26.5266 34.5102C25.6058 34.6741 25.1741 34.7667 24.8858 35.4814L23.6221 38.6155C23.1122 39.8802 23.5475 40.105 24.7764 39.9923C26.0052 39.8796 34.0959 38.6584 35.7276 38.432C37.3592 38.2056 36.9918 36.0131 35.3948 36.1591C33.7979 36.3052 26.6505 37.4641 26.6505 37.4641L27.0052 36.5844L33.0888 35.6823C33.888 35.606 34.1649 35.3836 34.3993 34.7149L38.4787 24.5978C38.8112 23.773 38.5825 23.6881 37.3758 23.7458C36.1691 23.8035 34.0545 24.1563 34.0545 24.1563C33.1533 24.1659 32.8042 24.4401 32.4044 25.3137L30.143 30.9221Z" fill="#FF5964"/>
</svg>
