<svg width="500" height="500" viewBox="0 0 500 500" fill="none" xmlns="http://www.w3.org/2000/svg">
<rect width="500" height="500" fill="#202124"/>
<circle cx="122.629" cy="75" r="49.5" transform="rotate(-90 122.629 75)" fill="#122732" stroke="white"/>
<circle cx="121.703" cy="144.994" r="49.5" transform="rotate(-90 121.703 144.994)" fill="#1D285B" stroke="white"/>
<circle cx="120.777" cy="214.988" r="50" transform="rotate(-90 120.777 214.988)" fill="#FC3366"/>
<circle cx="119.852" cy="284.981" r="50" transform="rotate(-90 119.852 284.981)" fill="#20CB8A"/>
<circle cx="118.926" cy="354.976" r="50" transform="rotate(-90 118.926 354.976)" fill="#EE9D30"/>
<circle cx="118" cy="424.97" r="50" transform="rotate(-90 118 424.97)" fill="#FAFAFF"/>
<path d="M198.487 81.9854C200.287 81.9614 201.673 81.4094 202.645 80.3294C203.629 79.2374 204.121 77.7254 204.121 75.7934C204.121 74.5934 203.911 73.5434 203.491 72.6434C203.083 71.7314 202.453 71.0234 201.601 70.5194C200.761 70.0034 199.723 69.7454 198.487 69.7454H193.843V81.9854H198.487ZM198.577 71.7254C199.633 71.7254 200.419 72.0794 200.935 72.7874C201.451 73.4834 201.709 74.4854 201.709 75.7934C201.709 77.2574 201.421 78.3314 200.845 79.0154C200.281 79.6874 199.483 80.0234 198.451 80.0234H196.165V71.7254H198.577ZM206.594 75.7574C206.93 75.6014 207.338 75.4694 207.818 75.3614C208.298 75.2414 208.736 75.1814 209.132 75.1814C209.564 75.1814 209.9 75.3074 210.14 75.5594C210.392 75.7994 210.524 76.1414 210.536 76.5854H208.826C207.818 76.5854 207.014 76.8314 206.414 77.3234C205.814 77.8034 205.514 78.4874 205.514 79.3754C205.514 80.2394 205.778 80.9294 206.306 81.4454C206.834 81.9494 207.62 82.2014 208.664 82.2014C209.468 82.2014 210.236 81.8174 210.968 81.0494L211.364 81.9854H212.894V76.2434C212.894 75.6314 212.72 75.0794 212.372 74.5874C212.036 74.0954 211.58 73.7114 211.004 73.4354C210.428 73.1594 209.792 73.0214 209.096 73.0214C208.688 73.0214 208.142 73.1054 207.458 73.2734C206.774 73.4294 206.276 73.6094 205.964 73.8134L206.594 75.7574ZM207.512 79.3754C207.512 79.0394 207.626 78.7514 207.854 78.5114C208.094 78.2714 208.406 78.1514 208.79 78.1514H210.554V79.4834C209.966 80.0594 209.324 80.3474 208.628 80.3474C208.304 80.3474 208.034 80.2514 207.818 80.0594C207.614 79.8674 207.512 79.6394 207.512 79.3754ZM217.141 76.6574C217.645 76.2134 218.185 75.8474 218.761 75.5594C219.349 75.2714 219.841 75.1274 220.237 75.1274L219.769 73.2554C219.337 73.2554 218.839 73.4054 218.275 73.7054C217.711 74.0054 217.219 74.3414 216.799 74.7134L216.025 73.2554H214.801V81.9854H217.141V76.6574ZM223.912 81.9854V79.1234L224.848 78.2954L227.044 81.9854H229.726L226.522 76.8014L228.97 74.6594L227.656 73.0034L223.912 76.4414V69.2774L221.59 69.4754V81.9854H223.912ZM242.204 77.0894V80.0774C241.568 80.2094 240.974 80.2754 240.422 80.2754C239.714 80.2754 239.084 80.1014 238.532 79.7534C237.992 79.3934 237.572 78.8834 237.272 78.2234C236.972 77.5514 236.822 76.7774 236.822 75.9014C236.822 74.9414 236.996 74.1314 237.344 73.4714C237.704 72.7994 238.184 72.2954 238.784 71.9594C239.384 71.6234 240.056 71.4554 240.8 71.4554C241.196 71.4554 241.526 71.4854 241.79 71.5454C242.066 71.5934 242.432 71.6834 242.888 71.8154C242.876 71.8034 243.038 71.8514 243.374 71.9594L244.112 70.2854C243.62 70.0214 243.05 69.8234 242.402 69.6914C241.754 69.5594 241.208 69.4934 240.764 69.4934C239.552 69.4934 238.46 69.7694 237.488 70.3214C236.516 70.8734 235.754 71.6414 235.202 72.6254C234.662 73.5974 234.392 74.6954 234.392 75.9194C234.392 77.0954 234.638 78.1634 235.13 79.1234C235.622 80.0834 236.324 80.8454 237.236 81.4094C238.16 81.9614 239.24 82.2374 240.476 82.2374C241.196 82.2374 241.886 82.1534 242.546 81.9854C243.206 81.8174 243.788 81.6014 244.292 81.3374V75.2894H239.828L239.63 77.0894H242.204ZM251.958 79.3034C251.526 79.6154 251.13 79.8674 250.77 80.0594C250.41 80.2394 250.026 80.3294 249.618 80.3294C249.222 80.3294 248.91 80.1794 248.682 79.8794C248.466 79.5794 248.358 79.1594 248.358 78.6194V73.2554H246.018V78.7274C246.018 79.8434 246.24 80.7134 246.684 81.3374C247.128 81.9614 247.902 82.2734 249.006 82.2734C249.486 82.2734 250.032 82.1654 250.644 81.9494C251.256 81.7334 251.832 81.4334 252.372 81.0494L252.768 81.9854H254.298V73.2554H251.958V79.3034ZM258.625 75.9374C259.057 75.6254 259.453 75.3794 259.813 75.1994C260.173 75.0074 260.557 74.9114 260.965 74.9114C261.361 74.9114 261.667 75.0614 261.883 75.3614C262.111 75.6614 262.225 76.0814 262.225 76.6214V81.9854H264.565V76.5134C264.565 75.3974 264.343 74.5274 263.899 73.9034C263.455 73.2794 262.681 72.9674 261.577 72.9674C261.097 72.9674 260.551 73.0754 259.939 73.2914C259.327 73.5074 258.751 73.8074 258.211 74.1914L257.815 73.2554H256.285V81.9854H258.625V75.9374ZM277.154 72.9674C278.15 72.9674 278.864 73.2374 279.296 73.7774C279.74 74.3054 279.962 75.0974 279.962 76.1534V81.9854H277.622V76.6214C277.622 76.0574 277.532 75.6314 277.352 75.3434C277.184 75.0554 276.914 74.9114 276.542 74.9114C276.182 74.9114 275.852 74.9954 275.552 75.1634C275.252 75.3314 274.868 75.5834 274.4 75.9194V76.1534V81.9854H272.06V76.6214C272.06 76.0574 271.97 75.6314 271.79 75.3434C271.622 75.0554 271.352 74.9114 270.98 74.9114C270.62 74.9114 270.29 74.9954 269.99 75.1634C269.69 75.3314 269.3 75.5894 268.82 75.9374V81.9854H266.48V73.2554H268.01L268.406 74.1914C268.946 73.8074 269.504 73.5074 270.08 73.2914C270.656 73.0754 271.16 72.9674 271.592 72.9674C272.78 72.9674 273.584 73.3634 274.004 74.1554C274.544 73.7834 275.096 73.4954 275.66 73.2914C276.224 73.0754 276.722 72.9674 277.154 72.9674ZM289.709 77.5934C289.709 76.7414 289.565 75.9734 289.277 75.2894C288.989 74.5934 288.545 74.0414 287.945 73.6334C287.345 73.2254 286.607 73.0214 285.731 73.0214C284.831 73.0214 284.051 73.2134 283.391 73.5974C282.731 73.9694 282.221 74.5034 281.861 75.1994C281.513 75.8954 281.339 76.7054 281.339 77.6294C281.339 79.0574 281.765 80.1794 282.617 80.9954C283.481 81.7994 284.741 82.2014 286.397 82.2014C287.105 82.2014 287.717 82.1114 288.233 81.9314C288.749 81.7394 289.229 81.4694 289.673 81.1214L288.989 79.4294C288.545 79.6814 288.131 79.8734 287.747 80.0054C287.363 80.1374 286.931 80.2034 286.451 80.2034C285.623 80.2034 285.005 80.0414 284.597 79.7174C284.201 79.3934 283.943 78.9254 283.823 78.3134H289.709V77.5934ZM283.841 76.7474C283.937 76.1834 284.147 75.7574 284.471 75.4694C284.795 75.1694 285.197 75.0194 285.677 75.0194C286.157 75.0194 286.547 75.1634 286.847 75.4514C287.159 75.7394 287.375 76.1714 287.495 76.7474H283.841ZM293.824 73.2734V70.7894L291.502 71.2034V73.2734H290.332V75.0734H291.502V79.1954C291.502 80.1914 291.808 80.9654 292.42 81.5174C293.032 82.0694 293.884 82.3454 294.976 82.3454C295.264 82.3454 295.582 82.2914 295.93 82.1834C296.29 82.0754 296.56 81.9494 296.74 81.8054L296.056 80.1134C295.732 80.2694 295.414 80.3474 295.102 80.3474C294.694 80.3474 294.376 80.2034 294.148 79.9154C293.932 79.6274 293.824 79.2494 293.824 78.7814V75.0734H296.128L295.408 73.2734H293.824ZM298.844 75.7574C299.18 75.6014 299.588 75.4694 300.068 75.3614C300.548 75.2414 300.986 75.1814 301.382 75.1814C301.814 75.1814 302.15 75.3074 302.39 75.5594C302.642 75.7994 302.774 76.1414 302.786 76.5854H301.076C300.068 76.5854 299.264 76.8314 298.664 77.3234C298.064 77.8034 297.764 78.4874 297.764 79.3754C297.764 80.2394 298.028 80.9294 298.556 81.4454C299.084 81.9494 299.87 82.2014 300.914 82.2014C301.718 82.2014 302.486 81.8174 303.218 81.0494L303.614 81.9854H305.144V76.2434C305.144 75.6314 304.97 75.0794 304.622 74.5874C304.286 74.0954 303.83 73.7114 303.254 73.4354C302.678 73.1594 302.042 73.0214 301.346 73.0214C300.938 73.0214 300.392 73.1054 299.708 73.2734C299.024 73.4294 298.526 73.6094 298.214 73.8134L298.844 75.7574ZM299.762 79.3754C299.762 79.0394 299.876 78.7514 300.104 78.5114C300.344 78.2714 300.656 78.1514 301.04 78.1514H302.804V79.4834C302.216 80.0594 301.574 80.3474 300.878 80.3474C300.554 80.3474 300.284 80.2514 300.068 80.0594C299.864 79.8674 299.762 79.6394 299.762 79.3754ZM309.553 81.9854V69.2774L307.231 69.4754V81.9854H309.553Z" fill="white"/>
<path d="M200.755 147.089V150.077C200.119 150.209 199.525 150.275 198.973 150.275C198.265 150.275 197.635 150.101 197.083 149.753C196.543 149.393 196.123 148.883 195.823 148.223C195.523 147.551 195.373 146.777 195.373 145.901C195.373 144.941 195.547 144.131 195.895 143.471C196.255 142.799 196.735 142.295 197.335 141.959C197.935 141.623 198.607 141.455 199.351 141.455C199.747 141.455 200.077 141.485 200.341 141.545C200.617 141.593 200.983 141.683 201.439 141.815C201.427 141.803 201.589 141.851 201.925 141.959L202.663 140.285C202.171 140.021 201.601 139.823 200.953 139.691C200.305 139.559 199.759 139.493 199.315 139.493C198.103 139.493 197.011 139.769 196.039 140.321C195.067 140.873 194.305 141.641 193.753 142.625C193.213 143.597 192.943 144.695 192.943 145.919C192.943 147.095 193.189 148.163 193.681 149.123C194.173 150.083 194.875 150.845 195.787 151.409C196.711 151.961 197.791 152.237 199.027 152.237C199.747 152.237 200.437 152.153 201.097 151.985C201.757 151.817 202.339 151.601 202.843 151.337V145.289H198.379L198.181 147.089H200.755ZM206.98 146.657C207.484 146.213 208.024 145.847 208.6 145.559C209.188 145.271 209.68 145.127 210.076 145.127L209.608 143.255C209.176 143.255 208.678 143.405 208.114 143.705C207.55 144.005 207.058 144.341 206.638 144.713L205.864 143.255H204.64V151.985H206.98V146.657ZM219.08 147.593C219.08 146.741 218.936 145.973 218.648 145.289C218.36 144.593 217.916 144.041 217.316 143.633C216.716 143.225 215.978 143.021 215.102 143.021C214.202 143.021 213.422 143.213 212.762 143.597C212.102 143.969 211.592 144.503 211.232 145.199C210.884 145.895 210.71 146.705 210.71 147.629C210.71 149.057 211.136 150.179 211.988 150.995C212.852 151.799 214.112 152.201 215.768 152.201C216.476 152.201 217.088 152.111 217.604 151.931C218.12 151.739 218.6 151.469 219.044 151.121L218.36 149.429C217.916 149.681 217.502 149.873 217.118 150.005C216.734 150.137 216.302 150.203 215.822 150.203C214.994 150.203 214.376 150.041 213.968 149.717C213.572 149.393 213.314 148.925 213.194 148.313H219.08V147.593ZM213.212 146.747C213.308 146.183 213.518 145.757 213.842 145.469C214.166 145.169 214.568 145.019 215.048 145.019C215.528 145.019 215.918 145.163 216.218 145.451C216.53 145.739 216.746 146.171 216.866 146.747H213.212ZM228.343 147.593C228.343 146.741 228.199 145.973 227.911 145.289C227.623 144.593 227.179 144.041 226.579 143.633C225.979 143.225 225.241 143.021 224.365 143.021C223.465 143.021 222.685 143.213 222.025 143.597C221.365 143.969 220.855 144.503 220.495 145.199C220.147 145.895 219.973 146.705 219.973 147.629C219.973 149.057 220.399 150.179 221.251 150.995C222.115 151.799 223.375 152.201 225.031 152.201C225.739 152.201 226.351 152.111 226.867 151.931C227.383 151.739 227.863 151.469 228.307 151.121L227.623 149.429C227.179 149.681 226.765 149.873 226.381 150.005C225.997 150.137 225.565 150.203 225.085 150.203C224.257 150.203 223.639 150.041 223.231 149.717C222.835 149.393 222.577 148.925 222.457 148.313H228.343V147.593ZM222.475 146.747C222.571 146.183 222.781 145.757 223.105 145.469C223.429 145.169 223.831 145.019 224.311 145.019C224.791 145.019 225.181 145.163 225.481 145.451C225.793 145.739 226.009 146.171 226.129 146.747H222.475ZM232.117 145.937C232.549 145.625 232.945 145.379 233.305 145.199C233.665 145.007 234.049 144.911 234.457 144.911C234.853 144.911 235.159 145.061 235.375 145.361C235.603 145.661 235.717 146.081 235.717 146.621V151.985H238.057V146.513C238.057 145.397 237.835 144.527 237.391 143.903C236.947 143.279 236.173 142.967 235.069 142.967C234.589 142.967 234.043 143.075 233.431 143.291C232.819 143.507 232.243 143.807 231.703 144.191L231.307 143.255H229.777V151.985H232.117V145.937ZM249.577 151.985C250.897 151.985 251.947 151.667 252.727 151.031C253.507 150.383 253.897 149.501 253.897 148.385C253.897 147.017 253.267 146.003 252.007 145.343C252.883 144.659 253.321 143.933 253.321 143.165C253.321 141.989 252.967 141.125 252.259 140.573C251.551 140.021 250.567 139.745 249.307 139.745H244.555V151.985H249.577ZM248.965 141.689C249.589 141.689 250.057 141.803 250.369 142.031C250.693 142.259 250.855 142.649 250.855 143.201C250.855 143.705 250.651 144.089 250.243 144.353C249.835 144.605 249.289 144.731 248.605 144.731H246.877V141.689H248.965ZM249.559 146.621C250.147 146.621 250.609 146.777 250.945 147.089C251.293 147.401 251.467 147.839 251.467 148.403C251.467 148.931 251.281 149.339 250.909 149.627C250.537 149.915 250.033 150.059 249.397 150.059H246.877V146.621H249.559ZM257.838 151.985V139.277L255.516 139.475V151.985H257.838ZM265.862 149.303C265.43 149.615 265.034 149.867 264.674 150.059C264.314 150.239 263.93 150.329 263.522 150.329C263.126 150.329 262.814 150.179 262.586 149.879C262.37 149.579 262.262 149.159 262.262 148.619V143.255H259.922V148.727C259.922 149.843 260.144 150.713 260.588 151.337C261.032 151.961 261.806 152.273 262.91 152.273C263.39 152.273 263.936 152.165 264.548 151.949C265.16 151.733 265.736 151.433 266.276 151.049L266.672 151.985H268.202V143.255H265.862V149.303ZM278.019 147.593C278.019 146.741 277.875 145.973 277.587 145.289C277.299 144.593 276.855 144.041 276.255 143.633C275.655 143.225 274.917 143.021 274.041 143.021C273.141 143.021 272.361 143.213 271.701 143.597C271.041 143.969 270.531 144.503 270.171 145.199C269.823 145.895 269.649 146.705 269.649 147.629C269.649 149.057 270.075 150.179 270.927 150.995C271.791 151.799 273.051 152.201 274.707 152.201C275.415 152.201 276.027 152.111 276.543 151.931C277.059 151.739 277.539 151.469 277.983 151.121L277.299 149.429C276.855 149.681 276.441 149.873 276.057 150.005C275.673 150.137 275.241 150.203 274.761 150.203C273.933 150.203 273.315 150.041 272.907 149.717C272.511 149.393 272.253 148.925 272.133 148.313H278.019V147.593ZM272.151 146.747C272.247 146.183 272.457 145.757 272.781 145.469C273.105 145.169 273.507 145.019 273.987 145.019C274.467 145.019 274.857 145.163 275.157 145.451C275.469 145.739 275.685 146.171 275.805 146.747H272.151Z" fill="white"/>
<path d="M364.729 72.6254L364.279 74.6414H362.119L362.587 72.6794L360.589 72.6254L360.121 74.6414H357.853L358.051 76.3874H359.707L359.257 78.4034H357.853L358.051 80.1314H358.861L358.411 82.1654L360.391 82.2554L360.877 80.1314H363.037L362.587 82.1654L364.585 82.2554L365.053 80.1314H367.285L367.105 78.4034H365.449L365.917 76.3874H367.285L367.105 74.6414H366.312L366.745 72.6794L364.729 72.6254ZM363.883 76.3874L363.415 78.4034H361.291L361.741 76.3874H363.883ZM373.278 81.9854V71.7974H371.712L368.004 73.4354L368.886 75.1814L370.938 74.3894V81.9854H373.278ZM378.609 71.5634C377.337 71.5634 376.179 71.8754 375.135 72.4994L375.549 74.3714C376.617 73.7594 377.559 73.4534 378.375 73.4534C378.975 73.4534 379.449 73.5734 379.797 73.8134C380.157 74.0414 380.337 74.3774 380.337 74.8214C380.337 75.1694 380.193 75.5414 379.905 75.9374C379.617 76.3334 379.161 76.7954 378.537 77.3234L374.901 80.4194V81.9854H382.857L382.641 80.2034H378.087L379.797 78.7814C380.721 78.0014 381.369 77.3294 381.741 76.7654C382.113 76.2014 382.299 75.5234 382.299 74.7314C382.299 74.1314 382.149 73.5914 381.849 73.1114C381.549 72.6314 381.123 72.2534 380.571 71.9774C380.019 71.7014 379.365 71.5634 378.609 71.5634ZM387.381 71.5634C386.109 71.5634 384.951 71.8754 383.907 72.4994L384.321 74.3714C385.389 73.7594 386.331 73.4534 387.147 73.4534C387.747 73.4534 388.221 73.5734 388.569 73.8134C388.929 74.0414 389.109 74.3774 389.109 74.8214C389.109 75.1694 388.965 75.5414 388.677 75.9374C388.389 76.3334 387.933 76.7954 387.309 77.3234L383.673 80.4194V81.9854H391.629L391.413 80.2034H386.859L388.569 78.7814C389.493 78.0014 390.141 77.3294 390.513 76.7654C390.885 76.2014 391.071 75.5234 391.071 74.7314C391.071 74.1314 390.921 73.5914 390.621 73.1114C390.321 72.6314 389.895 72.2534 389.343 71.9774C388.791 71.7014 388.137 71.5634 387.381 71.5634ZM396.638 83.2274L400.166 72.7334L399.482 71.7974H392.174L392.462 73.6874H397.592L394.46 82.5974L396.638 83.2274ZM404.696 71.5634C404.012 71.5634 403.358 71.6714 402.734 71.8874C402.11 72.1034 401.486 72.4154 400.862 72.8234L401.96 74.3894C402.86 73.7654 403.754 73.4534 404.642 73.4534C405.146 73.4534 405.554 73.5794 405.866 73.8314C406.178 74.0714 406.334 74.3714 406.334 74.7314C406.334 75.1754 406.118 75.5354 405.686 75.8114C405.254 76.0754 404.678 76.2074 403.958 76.2074H402.77L403.094 78.0254H403.85C404.762 78.0254 405.44 78.1874 405.884 78.5114C406.328 78.8234 406.55 79.2614 406.55 79.8254C406.55 80.3174 406.346 80.7134 405.938 81.0134C405.53 81.3134 405.044 81.4634 404.48 81.4634C403.952 81.4634 403.478 81.4034 403.058 81.2834C402.638 81.1514 402.188 80.9414 401.708 80.6534L400.52 82.2194C401.132 82.5434 401.786 82.8134 402.482 83.0294C403.178 83.2454 403.832 83.3534 404.444 83.3534C405.284 83.3534 406.028 83.1974 406.676 82.8854C407.324 82.5734 407.822 82.1474 408.17 81.6074C408.518 81.0674 408.692 80.4674 408.692 79.8074C408.692 79.3394 408.602 78.9074 408.422 78.5114C408.242 78.1154 408.02 77.7914 407.756 77.5394C407.504 77.2874 407.258 77.1314 407.018 77.0714C407.39 76.9034 407.726 76.5974 408.026 76.1534C408.326 75.6974 408.476 75.2114 408.476 74.6954C408.476 74.1194 408.332 73.5974 408.044 73.1294C407.756 72.6494 407.324 72.2714 406.748 71.9954C406.184 71.7074 405.5 71.5634 404.696 71.5634ZM413.396 71.5634C412.124 71.5634 410.966 71.8754 409.922 72.4994L410.336 74.3714C411.404 73.7594 412.346 73.4534 413.162 73.4534C413.762 73.4534 414.236 73.5734 414.584 73.8134C414.944 74.0414 415.124 74.3774 415.124 74.8214C415.124 75.1694 414.98 75.5414 414.692 75.9374C414.404 76.3334 413.948 76.7954 413.324 77.3234L409.688 80.4194V81.9854H417.644L417.428 80.2034H412.874L414.584 78.7814C415.508 78.0014 416.156 77.3294 416.528 76.7654C416.9 76.2014 417.086 75.5234 417.086 74.7314C417.086 74.1314 416.936 73.5914 416.636 73.1114C416.336 72.6314 415.91 72.2534 415.358 71.9774C414.806 71.7014 414.152 71.5634 413.396 71.5634Z" fill="white"/>
<path d="M361.729 142.625L361.279 144.641H359.119L359.587 142.679L357.589 142.625L357.121 144.641H354.853L355.051 146.387H356.707L356.257 148.403H354.853L355.051 150.131H355.861L355.411 152.165L357.391 152.255L357.877 150.131H360.037L359.587 152.165L361.585 152.255L362.053 150.131H364.285L364.105 148.403H362.449L362.917 146.387H364.285L364.105 144.641H363.312L363.745 142.679L361.729 142.625ZM360.883 146.387L360.415 148.403H358.291L358.741 146.387H360.883ZM370.278 151.985V141.797H368.712L365.004 143.435L365.886 145.181L367.938 144.389V151.985H370.278ZM377.625 151.985C379.425 151.961 380.811 151.409 381.783 150.329C382.767 149.237 383.259 147.725 383.259 145.793C383.259 144.593 383.049 143.543 382.629 142.643C382.221 141.731 381.591 141.023 380.739 140.519C379.899 140.003 378.861 139.745 377.625 139.745H372.981V151.985H377.625ZM377.715 141.725C378.771 141.725 379.557 142.079 380.073 142.787C380.589 143.483 380.847 144.485 380.847 145.793C380.847 147.257 380.559 148.331 379.983 149.015C379.419 149.687 378.621 150.023 377.589 150.023H375.303V141.725H377.715ZM388.054 141.563C386.782 141.563 385.624 141.875 384.58 142.499L384.994 144.371C386.062 143.759 387.004 143.453 387.82 143.453C388.42 143.453 388.894 143.573 389.242 143.813C389.602 144.041 389.782 144.377 389.782 144.821C389.782 145.169 389.638 145.541 389.35 145.937C389.062 146.333 388.606 146.795 387.982 147.323L384.346 150.419V151.985H392.302L392.086 150.203H387.532L389.242 148.781C390.166 148.001 390.814 147.329 391.186 146.765C391.558 146.201 391.744 145.523 391.744 144.731C391.744 144.131 391.594 143.591 391.294 143.111C390.994 142.631 390.568 142.253 390.016 141.977C389.464 141.701 388.81 141.563 388.054 141.563ZM397.312 140.411C396.568 140.411 395.914 140.555 395.35 140.843C394.786 141.119 394.348 141.497 394.036 141.977C393.736 142.457 393.586 142.985 393.586 143.561C393.586 144.053 393.724 144.509 394 144.929C394.288 145.349 394.666 145.661 395.134 145.865C394.606 146.045 394.138 146.411 393.73 146.963C393.322 147.503 393.118 148.067 393.118 148.655C393.118 149.315 393.286 149.915 393.622 150.455C393.958 150.995 394.444 151.427 395.08 151.751C395.716 152.063 396.46 152.219 397.312 152.219C398.152 152.219 398.884 152.063 399.508 151.751C400.144 151.427 400.63 150.995 400.966 150.455C401.302 149.903 401.47 149.303 401.47 148.655C401.47 148.067 401.266 147.503 400.858 146.963C400.45 146.411 399.982 146.045 399.454 145.865C399.922 145.649 400.3 145.337 400.588 144.929C400.876 144.509 401.02 144.053 401.02 143.561C401.02 142.985 400.864 142.457 400.552 141.977C400.252 141.497 399.82 141.119 399.256 140.843C398.704 140.555 398.056 140.411 397.312 140.411ZM397.276 142.319C397.732 142.319 398.116 142.445 398.428 142.697C398.752 142.937 398.914 143.225 398.914 143.561C398.914 143.969 398.776 144.299 398.5 144.551C398.236 144.803 397.84 144.971 397.312 145.055C396.784 144.971 396.376 144.809 396.088 144.569C395.812 144.317 395.674 143.993 395.674 143.597C395.674 143.249 395.83 142.949 396.142 142.697C396.454 142.445 396.832 142.319 397.276 142.319ZM397.312 146.801C397.96 146.909 398.464 147.137 398.824 147.485C399.196 147.833 399.382 148.235 399.382 148.691C399.382 149.183 399.172 149.579 398.752 149.879C398.332 150.179 397.846 150.329 397.294 150.329C396.73 150.329 396.244 150.179 395.836 149.879C395.428 149.579 395.224 149.183 395.224 148.691C395.224 148.235 395.404 147.833 395.764 147.485C396.124 147.137 396.64 146.909 397.312 146.801ZM405.208 148.277C405.304 148.061 405.49 147.869 405.766 147.701C406.042 147.521 406.372 147.431 406.756 147.431C407.284 147.431 407.716 147.605 408.052 147.953C408.388 148.301 408.556 148.763 408.556 149.339C408.556 149.963 408.34 150.461 407.908 150.833C407.488 151.205 406.954 151.391 406.306 151.391C405.79 151.391 405.322 151.331 404.902 151.211C404.482 151.079 404.02 150.875 403.516 150.599L402.364 152.237C402.952 152.561 403.588 152.825 404.272 153.029C404.968 153.245 405.628 153.353 406.252 153.353C407.152 153.353 407.932 153.185 408.592 152.849C409.264 152.513 409.78 152.039 410.14 151.427C410.5 150.815 410.68 150.119 410.68 149.339C410.668 148.643 410.512 148.013 410.212 147.449C409.912 146.873 409.462 146.417 408.862 146.081C408.262 145.733 407.53 145.559 406.666 145.559C406.126 145.559 405.682 145.649 405.334 145.829L405.442 143.687H409.798L410.05 141.797H403.462L403.138 148.277H405.208ZM417.677 151.985C418.997 151.985 420.047 151.667 420.827 151.031C421.607 150.383 421.997 149.501 421.997 148.385C421.997 147.017 421.367 146.003 420.107 145.343C420.983 144.659 421.421 143.933 421.421 143.165C421.421 141.989 421.067 141.125 420.359 140.573C419.651 140.021 418.667 139.745 417.407 139.745H412.655V151.985H417.677ZM417.065 141.689C417.689 141.689 418.157 141.803 418.469 142.031C418.793 142.259 418.955 142.649 418.955 143.201C418.955 143.705 418.751 144.089 418.343 144.353C417.935 144.605 417.389 144.731 416.705 144.731H414.977V141.689H417.065ZM417.659 146.621C418.247 146.621 418.709 146.777 419.045 147.089C419.393 147.401 419.567 147.839 419.567 148.403C419.567 148.931 419.381 149.339 419.009 149.627C418.637 149.915 418.133 150.059 417.497 150.059H414.977V146.621H417.659Z" fill="white"/>
<path d="M364.729 210.625L364.279 212.641H362.119L362.587 210.679L360.589 210.625L360.121 212.641H357.853L358.051 214.387H359.707L359.257 216.403H357.853L358.051 218.131H358.861L358.411 220.165L360.391 220.255L360.877 218.131H363.037L362.587 220.165L364.585 220.255L365.053 218.131H367.285L367.105 216.403H365.449L365.917 214.387H367.285L367.105 212.641H366.312L366.745 210.679L364.729 210.625ZM363.883 214.387L363.415 216.403H361.291L361.741 214.387H363.883ZM375.51 212.983H371.676V209.581H376.644L376.284 207.745H369.354V219.985H371.676V214.801H375.852L375.51 212.983ZM386.774 208.285C386.294 208.021 385.742 207.823 385.118 207.691C384.494 207.559 383.966 207.493 383.534 207.493C382.358 207.493 381.32 207.769 380.42 208.321C379.532 208.861 378.842 209.617 378.35 210.589C377.87 211.561 377.63 212.671 377.63 213.919C377.63 215.119 377.852 216.199 378.296 217.159C378.74 218.107 379.4 218.857 380.276 219.409C381.152 219.961 382.208 220.237 383.444 220.237C383.972 220.237 384.56 220.165 385.208 220.021C385.868 219.877 386.426 219.685 386.882 219.445L386 217.717C385.1 218.089 384.206 218.275 383.318 218.275C382.646 218.275 382.064 218.083 381.572 217.699C381.08 217.303 380.702 216.775 380.438 216.115C380.186 215.443 380.06 214.705 380.06 213.901C380.06 213.001 380.204 212.215 380.492 211.543C380.792 210.871 381.2 210.355 381.716 209.995C382.232 209.635 382.814 209.455 383.462 209.455C383.87 209.455 384.212 209.485 384.488 209.545C384.764 209.593 385.136 209.689 385.604 209.833L386.054 209.959L386.774 208.285ZM391.336 209.563C390.652 209.563 389.998 209.671 389.374 209.887C388.75 210.103 388.126 210.415 387.502 210.823L388.6 212.389C389.5 211.765 390.394 211.453 391.282 211.453C391.786 211.453 392.194 211.579 392.506 211.831C392.818 212.071 392.974 212.371 392.974 212.731C392.974 213.175 392.758 213.535 392.326 213.811C391.894 214.075 391.318 214.207 390.598 214.207H389.41L389.734 216.025H390.49C391.402 216.025 392.08 216.187 392.524 216.511C392.968 216.823 393.19 217.261 393.19 217.825C393.19 218.317 392.986 218.713 392.578 219.013C392.17 219.313 391.684 219.463 391.12 219.463C390.592 219.463 390.118 219.403 389.698 219.283C389.278 219.151 388.828 218.941 388.348 218.653L387.16 220.219C387.772 220.543 388.426 220.813 389.122 221.029C389.818 221.245 390.472 221.353 391.084 221.353C391.924 221.353 392.668 221.197 393.316 220.885C393.964 220.573 394.462 220.147 394.81 219.607C395.158 219.067 395.332 218.467 395.332 217.807C395.332 217.339 395.242 216.907 395.062 216.511C394.882 216.115 394.66 215.791 394.396 215.539C394.144 215.287 393.898 215.131 393.658 215.071C394.03 214.903 394.366 214.597 394.666 214.153C394.966 213.697 395.116 213.211 395.116 212.695C395.116 212.119 394.972 211.597 394.684 211.129C394.396 210.649 393.964 210.271 393.388 209.995C392.824 209.707 392.14 209.563 391.336 209.563ZM400.055 209.563C399.371 209.563 398.717 209.671 398.093 209.887C397.469 210.103 396.845 210.415 396.221 210.823L397.319 212.389C398.219 211.765 399.113 211.453 400.001 211.453C400.505 211.453 400.913 211.579 401.225 211.831C401.537 212.071 401.693 212.371 401.693 212.731C401.693 213.175 401.477 213.535 401.045 213.811C400.613 214.075 400.037 214.207 399.317 214.207H398.129L398.453 216.025H399.209C400.121 216.025 400.799 216.187 401.243 216.511C401.687 216.823 401.909 217.261 401.909 217.825C401.909 218.317 401.705 218.713 401.297 219.013C400.889 219.313 400.403 219.463 399.839 219.463C399.311 219.463 398.837 219.403 398.417 219.283C397.997 219.151 397.547 218.941 397.067 218.653L395.879 220.219C396.491 220.543 397.145 220.813 397.841 221.029C398.537 221.245 399.191 221.353 399.803 221.353C400.643 221.353 401.387 221.197 402.035 220.885C402.683 220.573 403.181 220.147 403.529 219.607C403.877 219.067 404.051 218.467 404.051 217.807C404.051 217.339 403.961 216.907 403.781 216.511C403.601 216.115 403.379 215.791 403.115 215.539C402.863 215.287 402.617 215.131 402.377 215.071C402.749 214.903 403.085 214.597 403.385 214.153C403.685 213.697 403.835 213.211 403.835 212.695C403.835 212.119 403.691 211.597 403.403 211.129C403.115 210.649 402.683 210.271 402.107 209.995C401.543 209.707 400.859 209.563 400.055 209.563ZM409.656 212.749C410.4 212.749 411.072 212.917 411.672 213.253C412.272 213.589 412.74 214.039 413.076 214.603C413.424 215.167 413.598 215.791 413.598 216.475C413.598 217.207 413.43 217.855 413.094 218.419C412.758 218.983 412.296 219.427 411.708 219.751C411.12 220.063 410.454 220.219 409.71 220.219C408.798 220.219 407.988 220.039 407.28 219.679C406.584 219.307 406.038 218.767 405.642 218.059C405.246 217.339 405.048 216.469 405.048 215.449C405.048 214.129 405.414 212.977 406.146 211.993C406.878 210.997 407.784 210.211 408.864 209.635C409.944 209.059 411.012 208.705 412.068 208.573L412.392 210.499C410.16 211.111 408.648 211.999 407.856 213.163C408.432 212.887 409.032 212.749 409.656 212.749ZM409.638 218.293C410.166 218.293 410.61 218.125 410.97 217.789C411.33 217.453 411.51 217.045 411.51 216.565C411.51 216.001 411.33 215.533 410.97 215.161C410.61 214.777 410.154 214.585 409.602 214.585C408.678 214.585 407.886 214.831 407.226 215.323C407.238 216.331 407.46 217.081 407.892 217.573C408.324 218.053 408.906 218.293 409.638 218.293ZM419.113 212.749C419.857 212.749 420.529 212.917 421.129 213.253C421.729 213.589 422.197 214.039 422.533 214.603C422.881 215.167 423.055 215.791 423.055 216.475C423.055 217.207 422.887 217.855 422.551 218.419C422.215 218.983 421.753 219.427 421.165 219.751C420.577 220.063 419.911 220.219 419.167 220.219C418.255 220.219 417.445 220.039 416.737 219.679C416.041 219.307 415.495 218.767 415.099 218.059C414.703 217.339 414.505 216.469 414.505 215.449C414.505 214.129 414.871 212.977 415.603 211.993C416.335 210.997 417.241 210.211 418.321 209.635C419.401 209.059 420.469 208.705 421.525 208.573L421.849 210.499C419.617 211.111 418.105 211.999 417.313 213.163C417.889 212.887 418.489 212.749 419.113 212.749ZM419.095 218.293C419.623 218.293 420.067 218.125 420.427 217.789C420.787 217.453 420.967 217.045 420.967 216.565C420.967 216.001 420.787 215.533 420.427 215.161C420.067 214.777 419.611 214.585 419.059 214.585C418.135 214.585 417.343 214.831 416.683 215.323C416.695 216.331 416.917 217.081 417.349 217.573C417.781 218.053 418.363 218.293 419.095 218.293Z" fill="white"/>
<path d="M193.843 219.985H196.165V215.341H198.361L200.953 219.985H203.437L200.431 214.729C201.067 214.417 201.571 213.985 201.943 213.433C202.327 212.881 202.519 212.239 202.519 211.507C202.519 210.283 202.063 209.353 201.151 208.717C200.251 208.069 199.093 207.745 197.677 207.745H193.843V219.985ZM197.604 209.689C199.237 209.689 200.053 210.331 200.053 211.615C200.053 212.239 199.831 212.701 199.387 213.001C198.955 213.289 198.373 213.433 197.641 213.433H196.165V209.689H197.604ZM205.451 213.757C205.787 213.601 206.195 213.469 206.675 213.361C207.155 213.241 207.593 213.181 207.989 213.181C208.421 213.181 208.757 213.307 208.997 213.559C209.249 213.799 209.381 214.141 209.393 214.585H207.683C206.675 214.585 205.871 214.831 205.271 215.323C204.671 215.803 204.371 216.487 204.371 217.375C204.371 218.239 204.635 218.929 205.163 219.445C205.691 219.949 206.477 220.201 207.521 220.201C208.325 220.201 209.093 219.817 209.825 219.049L210.221 219.985H211.751V214.243C211.751 213.631 211.577 213.079 211.229 212.587C210.893 212.095 210.437 211.711 209.861 211.435C209.285 211.159 208.649 211.021 207.953 211.021C207.545 211.021 206.999 211.105 206.315 211.273C205.631 211.429 205.133 211.609 204.821 211.813L205.451 213.757ZM206.369 217.375C206.369 217.039 206.483 216.751 206.711 216.511C206.951 216.271 207.263 216.151 207.647 216.151H209.411V217.483C208.823 218.059 208.181 218.347 207.485 218.347C207.161 218.347 206.891 218.251 206.675 218.059C206.471 217.867 206.369 217.639 206.369 217.375ZM221.794 207.277V219.985H220.57L220.03 219.193C219.262 219.865 218.422 220.201 217.51 220.201C216.154 220.201 215.08 219.793 214.288 218.977C213.508 218.149 213.118 217.033 213.118 215.629C213.118 214.717 213.292 213.913 213.64 213.217C214 212.521 214.516 211.981 215.188 211.597C215.86 211.213 216.658 211.021 217.582 211.021C217.87 211.021 218.176 211.075 218.5 211.183C218.824 211.279 219.136 211.417 219.436 211.597V207.475L221.794 207.277ZM215.53 215.629C215.53 216.397 215.71 217.021 216.07 217.501C216.442 217.969 216.952 218.203 217.6 218.203C217.912 218.203 218.212 218.143 218.5 218.023C218.8 217.903 219.112 217.723 219.436 217.483V213.757C219.124 213.493 218.824 213.307 218.536 213.199C218.248 213.079 217.936 213.019 217.6 213.019C216.964 213.019 216.46 213.265 216.088 213.757C215.716 214.237 215.53 214.861 215.53 215.629ZM225.111 210.013C225.483 210.013 225.795 209.887 226.047 209.635C226.311 209.383 226.443 209.071 226.443 208.699C226.443 208.327 226.311 208.015 226.047 207.763C225.795 207.511 225.483 207.385 225.111 207.385C224.751 207.385 224.445 207.511 224.193 207.763C223.941 208.015 223.815 208.327 223.815 208.699C223.815 209.071 223.941 209.383 224.193 209.635C224.445 209.887 224.751 210.013 225.111 210.013ZM226.299 219.985V211.255H223.959V219.985H226.299ZM235.411 211.939C235.003 211.663 234.499 211.441 233.899 211.273C233.299 211.105 232.795 211.021 232.387 211.021C231.451 211.021 230.629 211.213 229.921 211.597C229.225 211.969 228.685 212.503 228.301 213.199C227.929 213.895 227.743 214.705 227.743 215.629C227.743 216.553 227.929 217.363 228.301 218.059C228.685 218.743 229.225 219.271 229.921 219.643C230.629 220.015 231.451 220.201 232.387 220.201C232.831 220.201 233.353 220.123 233.953 219.967C234.553 219.811 235.039 219.589 235.411 219.301L234.745 217.609C234.289 217.813 233.881 217.963 233.521 218.059C233.161 218.155 232.789 218.203 232.405 218.203C231.745 218.203 231.205 217.963 230.785 217.483C230.365 217.003 230.155 216.385 230.155 215.629C230.155 214.873 230.365 214.249 230.785 213.757C231.217 213.265 231.757 213.019 232.405 213.019C232.789 213.019 233.161 213.067 233.521 213.163C233.881 213.259 234.289 213.409 234.745 213.613L235.411 211.939ZM237.619 213.757C237.955 213.601 238.363 213.469 238.843 213.361C239.323 213.241 239.761 213.181 240.157 213.181C240.589 213.181 240.925 213.307 241.165 213.559C241.417 213.799 241.549 214.141 241.561 214.585H239.851C238.843 214.585 238.039 214.831 237.439 215.323C236.839 215.803 236.539 216.487 236.539 217.375C236.539 218.239 236.803 218.929 237.331 219.445C237.859 219.949 238.645 220.201 239.689 220.201C240.493 220.201 241.261 219.817 241.993 219.049L242.389 219.985H243.919V214.243C243.919 213.631 243.745 213.079 243.397 212.587C243.061 212.095 242.605 211.711 242.029 211.435C241.453 211.159 240.817 211.021 240.121 211.021C239.713 211.021 239.167 211.105 238.483 211.273C237.799 211.429 237.301 211.609 236.989 211.813L237.619 213.757ZM238.537 217.375C238.537 217.039 238.651 216.751 238.879 216.511C239.119 216.271 239.431 216.151 239.815 216.151H241.579V217.483C240.991 218.059 240.349 218.347 239.653 218.347C239.329 218.347 239.059 218.251 238.843 218.059C238.639 217.867 238.537 217.639 238.537 217.375ZM248.328 219.985V207.277L246.006 207.475V219.985H248.328ZM255.067 219.985H257.389V215.341H259.585L262.177 219.985H264.661L261.655 214.729C262.291 214.417 262.795 213.985 263.167 213.433C263.551 212.881 263.743 212.239 263.743 211.507C263.743 210.283 263.287 209.353 262.375 208.717C261.475 208.069 260.317 207.745 258.901 207.745H255.067V219.985ZM258.829 209.689C260.461 209.689 261.277 210.331 261.277 211.615C261.277 212.239 261.055 212.701 260.611 213.001C260.179 213.289 259.597 213.433 258.865 213.433H257.389V209.689H258.829ZM273.66 215.593C273.66 214.741 273.516 213.973 273.228 213.289C272.94 212.593 272.496 212.041 271.896 211.633C271.296 211.225 270.558 211.021 269.682 211.021C268.782 211.021 268.002 211.213 267.342 211.597C266.682 211.969 266.172 212.503 265.812 213.199C265.464 213.895 265.29 214.705 265.29 215.629C265.29 217.057 265.716 218.179 266.568 218.995C267.432 219.799 268.692 220.201 270.348 220.201C271.056 220.201 271.668 220.111 272.184 219.931C272.7 219.739 273.18 219.469 273.624 219.121L272.94 217.429C272.496 217.681 272.082 217.873 271.698 218.005C271.314 218.137 270.882 218.203 270.402 218.203C269.574 218.203 268.956 218.041 268.548 217.717C268.152 217.393 267.894 216.925 267.774 216.313H273.66V215.593ZM267.792 214.747C267.888 214.183 268.098 213.757 268.422 213.469C268.746 213.169 269.148 213.019 269.628 213.019C270.108 213.019 270.498 213.163 270.798 213.451C271.11 213.739 271.326 214.171 271.446 214.747H267.792ZM283.23 207.277V219.985H282.006L281.466 219.193C280.698 219.865 279.858 220.201 278.946 220.201C277.59 220.201 276.516 219.793 275.724 218.977C274.944 218.149 274.554 217.033 274.554 215.629C274.554 214.717 274.728 213.913 275.076 213.217C275.436 212.521 275.952 211.981 276.624 211.597C277.296 211.213 278.094 211.021 279.018 211.021C279.306 211.021 279.612 211.075 279.936 211.183C280.26 211.279 280.572 211.417 280.872 211.597V207.475L283.23 207.277ZM276.966 215.629C276.966 216.397 277.146 217.021 277.506 217.501C277.878 217.969 278.388 218.203 279.036 218.203C279.348 218.203 279.648 218.143 279.936 218.023C280.236 217.903 280.548 217.723 280.872 217.483V213.757C280.56 213.493 280.26 213.307 279.972 213.199C279.684 213.079 279.372 213.019 279.036 213.019C278.4 213.019 277.896 213.265 277.524 213.757C277.152 214.237 276.966 214.861 276.966 215.629Z" fill="white"/>
<path d="M364.729 280.625L364.279 282.641H362.119L362.587 280.679L360.589 280.625L360.121 282.641H357.853L358.051 284.387H359.707L359.257 286.403H357.853L358.051 288.131H358.861L358.411 290.165L360.391 290.255L360.877 288.131H363.037L362.587 290.165L364.585 290.255L365.053 288.131H367.285L367.105 286.403H365.449L365.917 284.387H367.285L367.105 282.641H366.312L366.745 280.679L364.729 280.625ZM363.883 284.387L363.415 286.403H361.291L361.741 284.387H363.883ZM371.982 279.563C370.71 279.563 369.552 279.875 368.508 280.499L368.922 282.371C369.99 281.759 370.932 281.453 371.748 281.453C372.348 281.453 372.822 281.573 373.17 281.813C373.53 282.041 373.71 282.377 373.71 282.821C373.71 283.169 373.566 283.541 373.278 283.937C372.99 284.333 372.534 284.795 371.91 285.323L368.274 288.419V289.985H376.23L376.014 288.203H371.46L373.17 286.781C374.094 286.001 374.742 285.329 375.114 284.765C375.486 284.201 375.672 283.523 375.672 282.731C375.672 282.131 375.522 281.591 375.222 281.111C374.922 280.631 374.496 280.253 373.944 279.977C373.392 279.701 372.738 279.563 371.982 279.563ZM377.046 284.855C377.046 285.875 377.262 286.793 377.694 287.609C378.126 288.425 378.72 289.067 379.476 289.535C380.244 289.991 381.102 290.219 382.05 290.219C382.998 290.219 383.85 289.991 384.606 289.535C385.374 289.067 385.974 288.425 386.406 287.609C386.838 286.781 387.054 285.851 387.054 284.819C387.054 283.823 386.838 282.923 386.406 282.119C385.986 281.315 385.392 280.691 384.624 280.247C383.868 279.791 383.016 279.563 382.068 279.563C381.108 279.563 380.244 279.791 379.476 280.247C378.72 280.703 378.126 281.333 377.694 282.137C377.262 282.941 377.046 283.847 377.046 284.855ZM379.188 284.801C379.188 284.177 379.308 283.619 379.548 283.127C379.8 282.635 380.142 282.251 380.574 281.975C381.018 281.687 381.51 281.543 382.05 281.543C382.602 281.543 383.094 281.687 383.526 281.975C383.97 282.263 384.318 282.665 384.57 283.181C384.822 283.685 384.948 284.255 384.948 284.891C384.948 285.527 384.822 286.097 384.57 286.601C384.33 287.105 383.988 287.501 383.544 287.789C383.112 288.077 382.62 288.221 382.068 288.221C381.516 288.221 381.018 288.077 380.574 287.789C380.142 287.489 379.8 287.081 379.548 286.565C379.308 286.037 379.188 285.449 379.188 284.801ZM397.286 278.285C396.806 278.021 396.254 277.823 395.63 277.691C395.006 277.559 394.478 277.493 394.046 277.493C392.87 277.493 391.832 277.769 390.932 278.321C390.044 278.861 389.354 279.617 388.862 280.589C388.382 281.561 388.142 282.671 388.142 283.919C388.142 285.119 388.364 286.199 388.808 287.159C389.252 288.107 389.912 288.857 390.788 289.409C391.664 289.961 392.72 290.237 393.956 290.237C394.484 290.237 395.072 290.165 395.72 290.021C396.38 289.877 396.938 289.685 397.394 289.445L396.512 287.717C395.612 288.089 394.718 288.275 393.83 288.275C393.158 288.275 392.576 288.083 392.084 287.699C391.592 287.303 391.214 286.775 390.95 286.115C390.698 285.443 390.572 284.705 390.572 283.901C390.572 283.001 390.716 282.215 391.004 281.543C391.304 280.871 391.712 280.355 392.228 279.995C392.744 279.635 393.326 279.455 393.974 279.455C394.382 279.455 394.724 279.485 395 279.545C395.276 279.593 395.648 279.689 396.116 279.833L396.566 279.959L397.286 278.285ZM404.224 289.985C405.544 289.985 406.594 289.667 407.374 289.031C408.154 288.383 408.544 287.501 408.544 286.385C408.544 285.017 407.914 284.003 406.654 283.343C407.53 282.659 407.968 281.933 407.968 281.165C407.968 279.989 407.614 279.125 406.906 278.573C406.198 278.021 405.214 277.745 403.954 277.745H399.202V289.985H404.224ZM403.612 279.689C404.236 279.689 404.704 279.803 405.016 280.031C405.34 280.259 405.502 280.649 405.502 281.201C405.502 281.705 405.298 282.089 404.89 282.353C404.482 282.605 403.936 282.731 403.252 282.731H401.524V279.689H403.612ZM404.206 284.621C404.794 284.621 405.256 284.777 405.592 285.089C405.94 285.401 406.114 285.839 406.114 286.403C406.114 286.931 405.928 287.339 405.556 287.627C405.184 287.915 404.68 288.059 404.044 288.059H401.524V284.621H404.206ZM413.636 278.411C412.892 278.411 412.238 278.555 411.674 278.843C411.11 279.119 410.672 279.497 410.36 279.977C410.06 280.457 409.91 280.985 409.91 281.561C409.91 282.053 410.048 282.509 410.324 282.929C410.612 283.349 410.99 283.661 411.458 283.865C410.93 284.045 410.462 284.411 410.054 284.963C409.646 285.503 409.442 286.067 409.442 286.655C409.442 287.315 409.61 287.915 409.946 288.455C410.282 288.995 410.768 289.427 411.404 289.751C412.04 290.063 412.784 290.219 413.636 290.219C414.476 290.219 415.208 290.063 415.832 289.751C416.468 289.427 416.954 288.995 417.29 288.455C417.626 287.903 417.794 287.303 417.794 286.655C417.794 286.067 417.59 285.503 417.182 284.963C416.774 284.411 416.306 284.045 415.778 283.865C416.246 283.649 416.624 283.337 416.912 282.929C417.2 282.509 417.344 282.053 417.344 281.561C417.344 280.985 417.188 280.457 416.876 279.977C416.576 279.497 416.144 279.119 415.58 278.843C415.028 278.555 414.38 278.411 413.636 278.411ZM413.6 280.319C414.056 280.319 414.44 280.445 414.752 280.697C415.076 280.937 415.238 281.225 415.238 281.561C415.238 281.969 415.1 282.299 414.824 282.551C414.56 282.803 414.164 282.971 413.636 283.055C413.108 282.971 412.7 282.809 412.412 282.569C412.136 282.317 411.998 281.993 411.998 281.597C411.998 281.249 412.154 280.949 412.466 280.697C412.778 280.445 413.156 280.319 413.6 280.319ZM413.636 284.801C414.284 284.909 414.788 285.137 415.148 285.485C415.52 285.833 415.706 286.235 415.706 286.691C415.706 287.183 415.496 287.579 415.076 287.879C414.656 288.179 414.17 288.329 413.618 288.329C413.054 288.329 412.568 288.179 412.16 287.879C411.752 287.579 411.548 287.183 411.548 286.691C411.548 286.235 411.728 285.833 412.088 285.485C412.448 285.137 412.964 284.909 413.636 284.801ZM423.188 277.745L418.418 289.985H420.758L421.838 287.105H426.482L427.58 290.165L429.92 289.841L425.168 277.745H423.188ZM425.762 285.215H422.522L424.124 280.949L425.762 285.215Z" fill="white"/>
<path d="M199.999 286.151L202.285 282.929V289.985H204.643V277.745H203.221L199.459 283.397L195.319 277.745H193.843V289.985H196.165V282.515L199.099 286.277L199.999 286.151ZM215.938 285.593C215.938 286.517 215.746 287.327 215.362 288.023C214.978 288.719 214.432 289.259 213.724 289.643C213.028 290.015 212.212 290.201 211.276 290.201C210.34 290.201 209.518 290.015 208.81 289.643C208.114 289.271 207.574 288.743 207.19 288.059C206.806 287.363 206.614 286.553 206.614 285.629C206.614 284.705 206.806 283.895 207.19 283.199C207.574 282.503 208.114 281.969 208.81 281.597C209.518 281.213 210.34 281.021 211.276 281.021C212.212 281.021 213.028 281.207 213.724 281.579C214.432 281.951 214.978 282.485 215.362 283.181C215.746 283.865 215.938 284.669 215.938 285.593ZM211.276 288.203C211.924 288.203 212.458 287.957 212.878 287.465C213.31 286.973 213.526 286.349 213.526 285.593C213.526 284.837 213.316 284.219 212.896 283.739C212.476 283.259 211.936 283.019 211.276 283.019C210.628 283.019 210.088 283.265 209.656 283.757C209.236 284.249 209.026 284.873 209.026 285.629C209.026 286.385 209.236 287.003 209.656 287.483C210.076 287.963 210.616 288.203 211.276 288.203ZM223.253 287.303C222.821 287.615 222.425 287.867 222.065 288.059C221.705 288.239 221.321 288.329 220.913 288.329C220.517 288.329 220.205 288.179 219.977 287.879C219.761 287.579 219.653 287.159 219.653 286.619V281.255H217.313V286.727C217.313 287.843 217.535 288.713 217.979 289.337C218.423 289.961 219.197 290.273 220.301 290.273C220.781 290.273 221.327 290.165 221.939 289.949C222.551 289.733 223.127 289.433 223.667 289.049L224.063 289.985H225.593V281.255H223.253V287.303ZM229.92 283.937C230.352 283.625 230.748 283.379 231.108 283.199C231.468 283.007 231.852 282.911 232.26 282.911C232.656 282.911 232.962 283.061 233.178 283.361C233.406 283.661 233.52 284.081 233.52 284.621V289.985H235.86V284.513C235.86 283.397 235.638 282.527 235.194 281.903C234.75 281.279 233.976 280.967 232.872 280.967C232.392 280.967 231.846 281.075 231.234 281.291C230.622 281.507 230.046 281.807 229.506 282.191L229.11 281.255H227.58V289.985H229.92V283.937ZM240.457 281.273V278.789L238.135 279.203V281.273H236.965V283.073H238.135V287.195C238.135 288.191 238.441 288.965 239.053 289.517C239.665 290.069 240.517 290.345 241.609 290.345C241.897 290.345 242.215 290.291 242.563 290.183C242.923 290.075 243.193 289.949 243.373 289.805L242.689 288.113C242.365 288.269 242.047 288.347 241.735 288.347C241.327 288.347 241.009 288.203 240.781 287.915C240.565 287.627 240.457 287.249 240.457 286.781V283.073H242.761L242.041 281.273H240.457ZM245.477 283.757C245.813 283.601 246.221 283.469 246.701 283.361C247.181 283.241 247.619 283.181 248.015 283.181C248.447 283.181 248.783 283.307 249.023 283.559C249.275 283.799 249.407 284.141 249.419 284.585H247.709C246.701 284.585 245.897 284.831 245.297 285.323C244.697 285.803 244.397 286.487 244.397 287.375C244.397 288.239 244.661 288.929 245.189 289.445C245.717 289.949 246.503 290.201 247.547 290.201C248.351 290.201 249.119 289.817 249.851 289.049L250.247 289.985H251.777V284.243C251.777 283.631 251.603 283.079 251.255 282.587C250.919 282.095 250.463 281.711 249.887 281.435C249.311 281.159 248.675 281.021 247.979 281.021C247.571 281.021 247.025 281.105 246.341 281.273C245.657 281.429 245.159 281.609 244.847 281.813L245.477 283.757ZM246.395 287.375C246.395 287.039 246.509 286.751 246.737 286.511C246.977 286.271 247.289 286.151 247.673 286.151H249.437V287.483C248.849 288.059 248.207 288.347 247.511 288.347C247.187 288.347 246.917 288.251 246.701 288.059C246.497 287.867 246.395 287.639 246.395 287.375ZM254.835 280.013C255.207 280.013 255.519 279.887 255.771 279.635C256.035 279.383 256.167 279.071 256.167 278.699C256.167 278.327 256.035 278.015 255.771 277.763C255.519 277.511 255.207 277.385 254.835 277.385C254.475 277.385 254.169 277.511 253.917 277.763C253.665 278.015 253.539 278.327 253.539 278.699C253.539 279.071 253.665 279.383 253.917 279.635C254.169 279.887 254.475 280.013 254.835 280.013ZM256.023 289.985V281.255H253.683V289.985H256.023ZM260.348 283.937C260.78 283.625 261.176 283.379 261.536 283.199C261.896 283.007 262.28 282.911 262.688 282.911C263.084 282.911 263.39 283.061 263.606 283.361C263.834 283.661 263.948 284.081 263.948 284.621V289.985H266.288V284.513C266.288 283.397 266.066 282.527 265.622 281.903C265.178 281.279 264.404 280.967 263.3 280.967C262.82 280.967 262.274 281.075 261.662 281.291C261.05 281.507 260.474 281.807 259.934 282.191L259.538 281.255H258.008V289.985H260.348V283.937ZM278.942 286.151L281.228 282.929V289.985H283.586V277.745H282.164L278.402 283.397L274.262 277.745H272.786V289.985H275.108V282.515L278.042 286.277L278.942 286.151ZM293.927 285.593C293.927 284.741 293.783 283.973 293.495 283.289C293.207 282.593 292.763 282.041 292.163 281.633C291.563 281.225 290.825 281.021 289.949 281.021C289.049 281.021 288.269 281.213 287.609 281.597C286.949 281.969 286.439 282.503 286.079 283.199C285.731 283.895 285.557 284.705 285.557 285.629C285.557 287.057 285.983 288.179 286.835 288.995C287.699 289.799 288.959 290.201 290.615 290.201C291.323 290.201 291.935 290.111 292.451 289.931C292.967 289.739 293.447 289.469 293.891 289.121L293.207 287.429C292.763 287.681 292.349 287.873 291.965 288.005C291.581 288.137 291.149 288.203 290.669 288.203C289.841 288.203 289.223 288.041 288.815 287.717C288.419 287.393 288.161 286.925 288.041 286.313H293.927V285.593ZM288.059 284.747C288.155 284.183 288.365 283.757 288.689 283.469C289.013 283.169 289.415 283.019 289.895 283.019C290.375 283.019 290.765 283.163 291.065 283.451C291.377 283.739 291.593 284.171 291.713 284.747H288.059ZM296.207 283.757C296.543 283.601 296.951 283.469 297.431 283.361C297.911 283.241 298.349 283.181 298.745 283.181C299.177 283.181 299.513 283.307 299.753 283.559C300.005 283.799 300.137 284.141 300.149 284.585H298.439C297.431 284.585 296.627 284.831 296.027 285.323C295.427 285.803 295.127 286.487 295.127 287.375C295.127 288.239 295.391 288.929 295.919 289.445C296.447 289.949 297.233 290.201 298.277 290.201C299.081 290.201 299.849 289.817 300.581 289.049L300.977 289.985H302.507V284.243C302.507 283.631 302.333 283.079 301.985 282.587C301.649 282.095 301.193 281.711 300.617 281.435C300.041 281.159 299.405 281.021 298.709 281.021C298.301 281.021 297.755 281.105 297.071 281.273C296.387 281.429 295.889 281.609 295.577 281.813L296.207 283.757ZM297.125 287.375C297.125 287.039 297.239 286.751 297.467 286.511C297.707 286.271 298.019 286.151 298.403 286.151H300.167V287.483C299.579 288.059 298.937 288.347 298.241 288.347C297.917 288.347 297.647 288.251 297.431 288.059C297.227 287.867 297.125 287.639 297.125 287.375ZM312.55 277.277V289.985H311.326L310.786 289.193C310.018 289.865 309.178 290.201 308.266 290.201C306.91 290.201 305.836 289.793 305.044 288.977C304.264 288.149 303.874 287.033 303.874 285.629C303.874 284.717 304.048 283.913 304.396 283.217C304.756 282.521 305.272 281.981 305.944 281.597C306.616 281.213 307.414 281.021 308.338 281.021C308.626 281.021 308.932 281.075 309.256 281.183C309.58 281.279 309.892 281.417 310.192 281.597V277.475L312.55 277.277ZM306.286 285.629C306.286 286.397 306.466 287.021 306.826 287.501C307.198 287.969 307.708 288.203 308.356 288.203C308.668 288.203 308.968 288.143 309.256 288.023C309.556 287.903 309.868 287.723 310.192 287.483V283.757C309.88 283.493 309.58 283.307 309.292 283.199C309.004 283.079 308.692 283.019 308.356 283.019C307.72 283.019 307.216 283.265 306.844 283.757C306.472 284.237 306.286 284.861 306.286 285.629ZM323.499 285.593C323.499 286.517 323.307 287.327 322.923 288.023C322.539 288.719 321.993 289.259 321.285 289.643C320.589 290.015 319.773 290.201 318.837 290.201C317.901 290.201 317.079 290.015 316.371 289.643C315.675 289.271 315.135 288.743 314.751 288.059C314.367 287.363 314.175 286.553 314.175 285.629C314.175 284.705 314.367 283.895 314.751 283.199C315.135 282.503 315.675 281.969 316.371 281.597C317.079 281.213 317.901 281.021 318.837 281.021C319.773 281.021 320.589 281.207 321.285 281.579C321.993 281.951 322.539 282.485 322.923 283.181C323.307 283.865 323.499 284.669 323.499 285.593ZM318.837 288.203C319.485 288.203 320.019 287.957 320.439 287.465C320.871 286.973 321.087 286.349 321.087 285.593C321.087 284.837 320.877 284.219 320.457 283.739C320.037 283.259 319.497 283.019 318.837 283.019C318.189 283.019 317.649 283.265 317.217 283.757C316.797 284.249 316.587 284.873 316.587 285.629C316.587 286.385 316.797 287.003 317.217 287.483C317.637 287.963 318.177 288.203 318.837 288.203ZM333.891 289.985L336.681 281.255H334.215L332.973 286.331L331.623 281.255H329.049L327.789 286.331L326.439 280.931L324.135 281.615L326.745 289.985H328.725L330.291 284.639L331.929 289.985H333.891Z" fill="white"/>
<path d="M364.729 350.625L364.279 352.641H362.119L362.587 350.679L360.589 350.625L360.121 352.641H357.853L358.051 354.387H359.707L359.257 356.403H357.853L358.051 358.131H358.861L358.411 360.165L360.391 360.255L360.877 358.131H363.037L362.587 360.165L364.585 360.255L365.053 358.131H367.285L367.105 356.403H365.449L365.917 354.387H367.285L367.105 352.641H366.312L366.745 350.679L364.729 350.625ZM363.883 354.387L363.415 356.403H361.291L361.741 354.387H363.883ZM377.922 359.985L377.544 358.167H371.676V354.729H376.05L375.672 352.875H371.676V349.581H377.022L376.662 347.745H369.354V359.985H377.922ZM388.381 359.985L388.003 358.167H382.135V354.729H386.509L386.131 352.875H382.135V349.581H387.481L387.121 347.745H379.813V359.985H388.381ZM393.08 349.563C393.992 349.563 394.796 349.749 395.492 350.121C396.2 350.481 396.752 351.021 397.148 351.741C397.544 352.449 397.742 353.313 397.742 354.333C397.742 355.653 397.376 356.811 396.644 357.807C395.912 358.791 395.006 359.571 393.926 360.147C392.846 360.723 391.778 361.077 390.722 361.209L390.398 359.283C392.63 358.671 394.142 357.783 394.934 356.619C394.358 356.895 393.758 357.033 393.134 357.033C392.39 357.033 391.718 356.865 391.118 356.529C390.518 356.193 390.044 355.743 389.696 355.179C389.36 354.615 389.192 353.991 389.192 353.307C389.192 352.575 389.36 351.927 389.696 351.363C390.032 350.799 390.494 350.361 391.082 350.049C391.67 349.725 392.336 349.563 393.08 349.563ZM391.28 353.217C391.28 353.781 391.46 354.255 391.82 354.639C392.18 355.011 392.636 355.197 393.188 355.197C394.112 355.197 394.904 354.951 395.564 354.459C395.552 353.451 395.33 352.707 394.898 352.227C394.466 351.735 393.884 351.489 393.152 351.489C392.624 351.489 392.18 351.657 391.82 351.993C391.46 352.329 391.28 352.737 391.28 353.217ZM404.373 359.985C406.173 359.961 407.559 359.409 408.531 358.329C409.515 357.237 410.007 355.725 410.007 353.793C410.007 352.593 409.797 351.543 409.377 350.643C408.969 349.731 408.339 349.023 407.487 348.519C406.647 348.003 405.609 347.745 404.373 347.745H399.729V359.985H404.373ZM404.463 349.725C405.519 349.725 406.305 350.079 406.821 350.787C407.337 351.483 407.595 352.485 407.595 353.793C407.595 355.257 407.307 356.331 406.731 357.015C406.167 357.687 405.369 358.023 404.337 358.023H402.051V349.725H404.463ZM414.821 349.563C414.137 349.563 413.483 349.671 412.859 349.887C412.235 350.103 411.611 350.415 410.987 350.823L412.085 352.389C412.985 351.765 413.879 351.453 414.767 351.453C415.271 351.453 415.679 351.579 415.991 351.831C416.303 352.071 416.459 352.371 416.459 352.731C416.459 353.175 416.243 353.535 415.811 353.811C415.379 354.075 414.803 354.207 414.083 354.207H412.895L413.219 356.025H413.975C414.887 356.025 415.565 356.187 416.009 356.511C416.453 356.823 416.675 357.261 416.675 357.825C416.675 358.317 416.471 358.713 416.063 359.013C415.655 359.313 415.169 359.463 414.605 359.463C414.077 359.463 413.603 359.403 413.183 359.283C412.763 359.151 412.313 358.941 411.833 358.653L410.645 360.219C411.257 360.543 411.911 360.813 412.607 361.029C413.303 361.245 413.957 361.353 414.569 361.353C415.409 361.353 416.153 361.197 416.801 360.885C417.449 360.573 417.947 360.147 418.295 359.607C418.643 359.067 418.817 358.467 418.817 357.807C418.817 357.339 418.727 356.907 418.547 356.511C418.367 356.115 418.145 355.791 417.881 355.539C417.629 355.287 417.383 355.131 417.143 355.071C417.515 354.903 417.851 354.597 418.151 354.153C418.451 353.697 418.601 353.211 418.601 352.695C418.601 352.119 418.457 351.597 418.169 351.129C417.881 350.649 417.449 350.271 416.873 349.995C416.309 349.707 415.625 349.563 414.821 349.563ZM419.813 354.855C419.813 355.875 420.029 356.793 420.461 357.609C420.893 358.425 421.487 359.067 422.243 359.535C423.011 359.991 423.869 360.219 424.817 360.219C425.765 360.219 426.617 359.991 427.373 359.535C428.141 359.067 428.741 358.425 429.173 357.609C429.605 356.781 429.821 355.851 429.821 354.819C429.821 353.823 429.605 352.923 429.173 352.119C428.753 351.315 428.159 350.691 427.391 350.247C426.635 349.791 425.783 349.563 424.835 349.563C423.875 349.563 423.011 349.791 422.243 350.247C421.487 350.703 420.893 351.333 420.461 352.137C420.029 352.941 419.813 353.847 419.813 354.855ZM421.955 354.801C421.955 354.177 422.075 353.619 422.315 353.127C422.567 352.635 422.909 352.251 423.341 351.975C423.785 351.687 424.277 351.543 424.817 351.543C425.369 351.543 425.861 351.687 426.293 351.975C426.737 352.263 427.085 352.665 427.337 353.181C427.589 353.685 427.715 354.255 427.715 354.891C427.715 355.527 427.589 356.097 427.337 356.601C427.097 357.105 426.755 357.501 426.311 357.789C425.879 358.077 425.387 358.221 424.835 358.221C424.283 358.221 423.785 358.077 423.341 357.789C422.909 357.489 422.567 357.081 422.315 356.565C422.075 356.037 421.955 355.449 421.955 354.801Z" fill="white"/>
<path d="M198.487 359.985C200.287 359.961 201.673 359.409 202.645 358.329C203.629 357.237 204.121 355.725 204.121 353.793C204.121 352.593 203.911 351.543 203.491 350.643C203.083 349.731 202.453 349.023 201.601 348.519C200.761 348.003 199.723 347.745 198.487 347.745H193.843V359.985H198.487ZM198.577 349.725C199.633 349.725 200.419 350.079 200.935 350.787C201.451 351.483 201.709 352.485 201.709 353.793C201.709 355.257 201.421 356.331 200.845 357.015C200.281 357.687 199.483 358.023 198.451 358.023H196.165V349.725H198.577ZM213.578 355.593C213.578 354.741 213.434 353.973 213.146 353.289C212.858 352.593 212.414 352.041 211.814 351.633C211.214 351.225 210.476 351.021 209.6 351.021C208.7 351.021 207.92 351.213 207.26 351.597C206.6 351.969 206.09 352.503 205.73 353.199C205.382 353.895 205.208 354.705 205.208 355.629C205.208 357.057 205.634 358.179 206.486 358.995C207.35 359.799 208.61 360.201 210.266 360.201C210.974 360.201 211.586 360.111 212.102 359.931C212.618 359.739 213.098 359.469 213.542 359.121L212.858 357.429C212.414 357.681 212 357.873 211.616 358.005C211.232 358.137 210.8 358.203 210.32 358.203C209.492 358.203 208.874 358.041 208.466 357.717C208.07 357.393 207.812 356.925 207.692 356.313H213.578V355.593ZM207.71 354.747C207.806 354.183 208.016 353.757 208.34 353.469C208.664 353.169 209.066 353.019 209.546 353.019C210.026 353.019 210.416 353.163 210.716 353.451C211.028 353.739 211.244 354.171 211.364 354.747H207.71ZM222.841 355.593C222.841 354.741 222.697 353.973 222.409 353.289C222.121 352.593 221.677 352.041 221.077 351.633C220.477 351.225 219.739 351.021 218.863 351.021C217.963 351.021 217.183 351.213 216.523 351.597C215.863 351.969 215.353 352.503 214.993 353.199C214.645 353.895 214.471 354.705 214.471 355.629C214.471 357.057 214.897 358.179 215.749 358.995C216.613 359.799 217.873 360.201 219.529 360.201C220.237 360.201 220.849 360.111 221.365 359.931C221.881 359.739 222.361 359.469 222.805 359.121L222.121 357.429C221.677 357.681 221.263 357.873 220.879 358.005C220.495 358.137 220.063 358.203 219.583 358.203C218.755 358.203 218.137 358.041 217.729 357.717C217.333 357.393 217.075 356.925 216.955 356.313H222.841V355.593ZM216.973 354.747C217.069 354.183 217.279 353.757 217.603 353.469C217.927 353.169 218.329 353.019 218.809 353.019C219.289 353.019 219.679 353.163 219.979 353.451C220.291 353.739 220.507 354.171 220.627 354.747H216.973ZM228.343 351.021C229.699 351.021 230.767 351.435 231.547 352.263C232.339 353.079 232.735 354.189 232.735 355.593C232.735 356.505 232.555 357.309 232.195 358.005C231.847 358.701 231.337 359.241 230.665 359.625C229.993 360.009 229.195 360.201 228.271 360.201C227.779 360.201 227.257 360.063 226.705 359.787V363.747L224.383 363.927V351.255H225.571L226.039 351.849C226.747 351.297 227.515 351.021 228.343 351.021ZM228.253 358.203C228.889 358.203 229.393 357.963 229.765 357.483C230.137 356.991 230.323 356.361 230.323 355.593C230.323 354.825 230.137 354.207 229.765 353.739C229.405 353.259 228.901 353.019 228.253 353.019C227.749 353.019 227.233 353.193 226.705 353.541V357.699C227.197 358.035 227.713 358.203 228.253 358.203ZM238.071 359.175C238.479 359.427 239.055 359.667 239.799 359.895C240.555 360.111 241.185 360.219 241.689 360.219C242.649 360.219 243.471 360.075 244.155 359.787C244.851 359.499 245.373 359.103 245.721 358.599C246.081 358.095 246.261 357.513 246.261 356.853C246.261 356.265 246.117 355.755 245.829 355.323C245.553 354.879 245.205 354.507 244.785 354.207C244.365 353.895 243.801 353.535 243.093 353.127L242.571 352.821L241.995 352.497C241.383 352.137 240.939 351.843 240.663 351.615C240.399 351.375 240.267 351.081 240.267 350.733C240.267 350.325 240.435 350.019 240.771 349.815C241.119 349.599 241.563 349.491 242.103 349.491C242.571 349.491 243.003 349.557 243.399 349.689C243.807 349.821 244.257 350.007 244.749 350.247L245.523 348.375C244.251 347.763 243.099 347.457 242.067 347.457C241.191 347.457 240.435 347.601 239.799 347.889C239.175 348.165 238.695 348.555 238.359 349.059C238.023 349.551 237.855 350.109 237.855 350.733C237.855 351.321 238.023 351.855 238.359 352.335C238.707 352.803 239.115 353.211 239.583 353.559C240.063 353.907 240.705 354.321 241.509 354.801L242.049 355.125C242.661 355.461 243.111 355.755 243.399 356.007C243.699 356.247 243.849 356.517 243.849 356.817C243.849 357.249 243.663 357.579 243.291 357.807C242.919 358.035 242.373 358.149 241.653 358.149C241.185 358.149 240.669 358.065 240.105 357.897C239.541 357.717 239.037 357.513 238.593 357.285L238.071 359.175ZM248.553 353.757C248.889 353.601 249.297 353.469 249.777 353.361C250.257 353.241 250.695 353.181 251.091 353.181C251.523 353.181 251.859 353.307 252.099 353.559C252.351 353.799 252.483 354.141 252.495 354.585H250.785C249.777 354.585 248.973 354.831 248.373 355.323C247.773 355.803 247.473 356.487 247.473 357.375C247.473 358.239 247.737 358.929 248.265 359.445C248.793 359.949 249.579 360.201 250.623 360.201C251.427 360.201 252.195 359.817 252.927 359.049L253.323 359.985H254.853V354.243C254.853 353.631 254.679 353.079 254.331 352.587C253.995 352.095 253.539 351.711 252.963 351.435C252.387 351.159 251.751 351.021 251.055 351.021C250.647 351.021 250.101 351.105 249.417 351.273C248.733 351.429 248.235 351.609 247.923 351.813L248.553 353.757ZM249.471 357.375C249.471 357.039 249.585 356.751 249.813 356.511C250.053 356.271 250.365 356.151 250.749 356.151H252.513V357.483C251.925 358.059 251.283 358.347 250.587 358.347C250.263 358.347 249.993 358.251 249.777 358.059C249.573 357.867 249.471 357.639 249.471 357.375ZM257.336 353.073V359.985H259.676V353.073H262.07L261.332 351.273H259.676V350.931C259.676 350.451 259.772 350.073 259.964 349.797C260.156 349.509 260.45 349.365 260.846 349.365C261.098 349.365 261.422 349.443 261.818 349.599L262.484 347.907C262.292 347.751 262.022 347.619 261.674 347.511C261.326 347.403 261.014 347.349 260.738 347.349C259.67 347.349 258.836 347.637 258.236 348.213C257.636 348.789 257.336 349.587 257.336 350.607V351.273H255.986V353.073H257.336ZM264.05 353.073V359.985H266.39V353.073H268.784L268.046 351.273H266.39V350.931C266.39 350.451 266.486 350.073 266.678 349.797C266.87 349.509 267.164 349.365 267.56 349.365C267.812 349.365 268.136 349.443 268.532 349.599L269.198 347.907C269.006 347.751 268.736 347.619 268.388 347.511C268.04 347.403 267.728 347.349 267.452 347.349C266.384 347.349 265.55 347.637 264.95 348.213C264.35 348.789 264.05 349.587 264.05 350.607V351.273H262.7V353.073H264.05ZM272.529 354.657C273.033 354.213 273.573 353.847 274.149 353.559C274.737 353.271 275.229 353.127 275.625 353.127L275.157 351.255C274.725 351.255 274.227 351.405 273.663 351.705C273.099 352.005 272.607 352.341 272.187 352.713L271.413 351.255H270.189V359.985H272.529V354.657ZM285.583 355.593C285.583 356.517 285.391 357.327 285.007 358.023C284.623 358.719 284.077 359.259 283.369 359.643C282.673 360.015 281.857 360.201 280.921 360.201C279.985 360.201 279.163 360.015 278.455 359.643C277.759 359.271 277.219 358.743 276.835 358.059C276.451 357.363 276.259 356.553 276.259 355.629C276.259 354.705 276.451 353.895 276.835 353.199C277.219 352.503 277.759 351.969 278.455 351.597C279.163 351.213 279.985 351.021 280.921 351.021C281.857 351.021 282.673 351.207 283.369 351.579C284.077 351.951 284.623 352.485 285.007 353.181C285.391 353.865 285.583 354.669 285.583 355.593ZM280.921 358.203C281.569 358.203 282.103 357.957 282.523 357.465C282.955 356.973 283.171 356.349 283.171 355.593C283.171 354.837 282.961 354.219 282.541 353.739C282.121 353.259 281.581 353.019 280.921 353.019C280.273 353.019 279.733 353.265 279.301 353.757C278.881 354.249 278.671 354.873 278.671 355.629C278.671 356.385 278.881 357.003 279.301 357.483C279.721 357.963 280.261 358.203 280.921 358.203ZM289.369 353.937C289.801 353.625 290.197 353.379 290.557 353.199C290.917 353.007 291.301 352.911 291.709 352.911C292.105 352.911 292.411 353.061 292.627 353.361C292.855 353.661 292.969 354.081 292.969 354.621V359.985H295.309V354.513C295.309 353.397 295.087 352.527 294.643 351.903C294.199 351.279 293.425 350.967 292.321 350.967C291.841 350.967 291.295 351.075 290.683 351.291C290.071 351.507 289.495 351.807 288.955 352.191L288.559 351.255H287.029V359.985H289.369V353.937Z" fill="white"/>
<path d="M364.729 420.625L364.279 422.641H362.119L362.587 420.679L360.589 420.625L360.121 422.641H357.853L358.051 424.387H359.707L359.257 426.403H357.853L358.051 428.131H358.861L358.411 430.165L360.391 430.255L360.877 428.131H363.037L362.587 430.165L364.585 430.255L365.053 428.131H367.285L367.105 426.403H365.449L365.917 424.387H367.285L367.105 422.641H366.312L366.745 420.679L364.729 420.625ZM363.883 424.387L363.415 426.403H361.291L361.741 424.387H363.883ZM375.51 422.983H371.676V419.581H376.644L376.284 417.745H369.354V429.985H371.676V424.801H375.852L375.51 422.983ZM381.95 417.745L377.18 429.985H379.52L380.6 427.105H385.244L386.342 430.165L388.682 429.841L383.93 417.745H381.95ZM384.524 425.215H381.284L382.886 420.949L384.524 425.215ZM396.551 422.983H392.717V419.581H397.685L397.325 417.745H390.395V429.985H392.717V424.801H396.893L396.551 422.983ZM402.991 417.745L398.221 429.985H400.561L401.641 427.105H406.285L407.383 430.165L409.723 429.841L404.971 417.745H402.991ZM405.565 425.215H402.325L403.927 420.949L405.565 425.215ZM417.592 422.983H413.758V419.581H418.726L418.366 417.745H411.436V429.985H413.758V424.801H417.934L417.592 422.983ZM426.768 422.983H422.934V419.581H427.902L427.542 417.745H420.612V429.985H422.934V424.801H427.11L426.768 422.983Z" fill="white"/>
<path d="M200.755 425.089V428.077C200.119 428.209 199.525 428.275 198.973 428.275C198.265 428.275 197.635 428.101 197.083 427.753C196.543 427.393 196.123 426.883 195.823 426.223C195.523 425.551 195.373 424.777 195.373 423.901C195.373 422.941 195.547 422.131 195.895 421.471C196.255 420.799 196.735 420.295 197.335 419.959C197.935 419.623 198.607 419.455 199.351 419.455C199.747 419.455 200.077 419.485 200.341 419.545C200.617 419.593 200.983 419.683 201.439 419.815C201.427 419.803 201.589 419.851 201.925 419.959L202.663 418.285C202.171 418.021 201.601 417.823 200.953 417.691C200.305 417.559 199.759 417.493 199.315 417.493C198.103 417.493 197.011 417.769 196.039 418.321C195.067 418.873 194.305 419.641 193.753 420.625C193.213 421.597 192.943 422.695 192.943 423.919C192.943 425.095 193.189 426.163 193.681 427.123C194.173 428.083 194.875 428.845 195.787 429.409C196.711 429.961 197.791 430.237 199.027 430.237C199.747 430.237 200.437 430.153 201.097 429.985C201.757 429.817 202.339 429.601 202.843 429.337V423.289H198.379L198.181 425.089H200.755ZM210.094 420.967C211.198 420.967 211.972 421.279 212.416 421.903C212.86 422.527 213.082 423.397 213.082 424.513V429.985H210.742V424.621C210.742 424.081 210.628 423.661 210.4 423.361C210.184 423.061 209.878 422.911 209.482 422.911C209.074 422.911 208.69 423.007 208.33 423.199C207.97 423.379 207.574 423.625 207.142 423.937V429.985H204.82V417.475L207.142 417.277V421.921C207.634 421.621 208.144 421.387 208.672 421.219C209.2 421.051 209.674 420.967 210.094 420.967ZM223.778 425.593C223.778 426.517 223.586 427.327 223.202 428.023C222.818 428.719 222.272 429.259 221.564 429.643C220.868 430.015 220.052 430.201 219.116 430.201C218.18 430.201 217.358 430.015 216.65 429.643C215.954 429.271 215.414 428.743 215.03 428.059C214.646 427.363 214.454 426.553 214.454 425.629C214.454 424.705 214.646 423.895 215.03 423.199C215.414 422.503 215.954 421.969 216.65 421.597C217.358 421.213 218.18 421.021 219.116 421.021C220.052 421.021 220.868 421.207 221.564 421.579C222.272 421.951 222.818 422.485 223.202 423.181C223.586 423.865 223.778 424.669 223.778 425.593ZM219.116 428.203C219.764 428.203 220.298 427.957 220.718 427.465C221.15 426.973 221.366 426.349 221.366 425.593C221.366 424.837 221.156 424.219 220.736 423.739C220.316 423.259 219.776 423.019 219.116 423.019C218.468 423.019 217.928 423.265 217.496 423.757C217.076 424.249 216.866 424.873 216.866 425.629C216.866 426.385 217.076 427.003 217.496 427.483C217.916 427.963 218.456 428.203 219.116 428.203ZM224.72 429.301C225.092 429.589 225.578 429.811 226.178 429.967C226.778 430.123 227.3 430.201 227.744 430.201C228.92 430.201 229.82 429.967 230.444 429.499C231.068 429.019 231.38 428.341 231.38 427.465C231.38 426.769 231.098 426.181 230.534 425.701C229.97 425.221 229.262 424.825 228.41 424.513C227.966 424.357 227.624 424.219 227.384 424.099C227.156 423.967 227.042 423.823 227.042 423.667C227.042 423.463 227.138 423.289 227.33 423.145C227.534 422.989 227.786 422.911 228.086 422.911C228.47 422.911 228.836 422.959 229.184 423.055C229.544 423.151 229.952 423.301 230.408 423.505L231.11 421.939C230.702 421.663 230.204 421.441 229.616 421.273C229.028 421.105 228.53 421.021 228.122 421.021C227.078 421.021 226.25 421.261 225.638 421.741C225.026 422.209 224.72 422.857 224.72 423.685C224.72 424.345 224.996 424.891 225.548 425.323C226.1 425.755 226.79 426.109 227.618 426.385C228.638 426.697 229.148 427.087 229.148 427.555C229.148 427.795 228.998 427.981 228.698 428.113C228.398 428.245 228.068 428.311 227.708 428.311C227.072 428.311 226.31 428.113 225.422 427.717L224.72 429.301ZM235.5 421.273V418.789L233.178 419.203V421.273H232.008V423.073H233.178V427.195C233.178 428.191 233.484 428.965 234.096 429.517C234.708 430.069 235.56 430.345 236.652 430.345C236.94 430.345 237.258 430.291 237.606 430.183C237.966 430.075 238.236 429.949 238.416 429.805L237.732 428.113C237.408 428.269 237.09 428.347 236.778 428.347C236.37 428.347 236.052 428.203 235.824 427.915C235.608 427.627 235.5 427.249 235.5 426.781V423.073H237.804L237.084 421.273H235.5ZM259.197 417.745L255.507 429.985H253.527L251.043 421.057L248.559 429.985H246.579L242.907 417.889L245.247 417.565L247.623 426.781L249.909 417.745H252.249L254.571 426.781L256.857 417.745H259.197ZM265.817 420.967C266.921 420.967 267.695 421.279 268.139 421.903C268.583 422.527 268.805 423.397 268.805 424.513V429.985H266.465V424.621C266.465 424.081 266.351 423.661 266.123 423.361C265.907 423.061 265.601 422.911 265.205 422.911C264.797 422.911 264.413 423.007 264.053 423.199C263.693 423.379 263.297 423.625 262.865 423.937V429.985H260.543V417.475L262.865 417.277V421.921C263.357 421.621 263.867 421.387 264.395 421.219C264.923 421.051 265.397 420.967 265.817 420.967ZM271.869 420.013C272.241 420.013 272.553 419.887 272.805 419.635C273.069 419.383 273.201 419.071 273.201 418.699C273.201 418.327 273.069 418.015 272.805 417.763C272.553 417.511 272.241 417.385 271.869 417.385C271.509 417.385 271.203 417.511 270.951 417.763C270.699 418.015 270.573 418.327 270.573 418.699C270.573 419.071 270.699 419.383 270.951 419.635C271.203 419.887 271.509 420.013 271.869 420.013ZM273.057 429.985V421.255H270.717V429.985H273.057ZM277.723 421.273V418.789L275.401 419.203V421.273H274.231V423.073H275.401V427.195C275.401 428.191 275.707 428.965 276.319 429.517C276.931 430.069 277.783 430.345 278.875 430.345C279.163 430.345 279.481 430.291 279.829 430.183C280.189 430.075 280.459 429.949 280.639 429.805L279.955 428.113C279.631 428.269 279.313 428.347 279.001 428.347C278.593 428.347 278.275 428.203 278.047 427.915C277.831 427.627 277.723 427.249 277.723 426.781V423.073H280.027L279.307 421.273H277.723ZM289.726 425.593C289.726 424.741 289.582 423.973 289.294 423.289C289.006 422.593 288.562 422.041 287.962 421.633C287.362 421.225 286.624 421.021 285.748 421.021C284.848 421.021 284.068 421.213 283.408 421.597C282.748 421.969 282.238 422.503 281.878 423.199C281.53 423.895 281.356 424.705 281.356 425.629C281.356 427.057 281.782 428.179 282.634 428.995C283.498 429.799 284.758 430.201 286.414 430.201C287.122 430.201 287.734 430.111 288.25 429.931C288.766 429.739 289.246 429.469 289.69 429.121L289.006 427.429C288.562 427.681 288.148 427.873 287.764 428.005C287.38 428.137 286.948 428.203 286.468 428.203C285.64 428.203 285.022 428.041 284.614 427.717C284.218 427.393 283.96 426.925 283.84 426.313H289.726V425.593ZM283.858 424.747C283.954 424.183 284.164 423.757 284.488 423.469C284.812 423.169 285.214 423.019 285.694 423.019C286.174 423.019 286.564 423.163 286.864 423.451C287.176 423.739 287.392 424.171 287.512 424.747H283.858Z" fill="white"/>
</svg>
