<svg width="400" height="400" viewBox="0 0 400 400" fill="none" xmlns="http://www.w3.org/2000/svg">
<rect x="0.5" y="0.5" width="399" height="399" fill="white"/>
<path d="M185.058 225.919C185.858 222.881 183.156 220.042 177.705 220.531C171.29 221.218 168.633 220.886 164.65 219.715C161.567 218.515 160.011 218.525 157.747 220.531C155.957 223.342 157 224.364 159.848 225.919L169.002 228.368L177.705 229.675C182.087 229.608 184.258 228.958 185.058 225.919Z" stroke="white" stroke-width="3"/>
<path d="M171.255 187.55C171.255 190.451 169.122 192.581 166.752 192.581C164.382 192.581 162.25 190.451 162.25 187.55C162.25 184.65 164.382 182.52 166.752 182.52C169.122 182.52 171.255 184.65 171.255 187.55Z" stroke="white" stroke-width="3"/>
<path d="M168.853 228.369L159.999 229.512C154.386 230.065 151.838 229.752 149.195 227.226C148.069 225.184 148.071 224.043 149.195 222.001C151.021 220.024 152.857 219.627 157.598 220.205C158.799 216.613 160.177 209.901 159.999 210.097C159.822 210.294 155.277 215.79 152.196 217.43C149.852 218.733 148.538 218.97 146.194 217.43C144.051 215.69 145.413 213.044 146.194 212.368C146.975 211.692 151.889 209.669 154.297 205.511C155.738 202.326 156.802 200.873 159.249 198.98C162.187 197.797 163.891 197.482 167.052 197.511C174.635 197.784 177.276 199.82 179.47 205.511C181.623 208.888 181.265 209.359 186.565 211.138C191.865 212.916 189.658 219.786 186.565 218.349C183.472 216.912 178.924 215.253 176.632 212.651C174.504 209.151 173.71 208.359 174.231 212.651C174.441 215.049 175.798 218.373 177.406 220.205" stroke="white" stroke-width="3"/>
<circle cx="167.941" cy="207.058" r="31.4412" stroke="white" stroke-width="3"/>
<path d="M186.55 224.799C187.3 221.951 184.767 219.289 179.657 219.748C173.643 220.392 171.151 220.08 167.417 218.982C164.527 217.857 163.068 217.866 160.946 219.748C159.267 222.383 160.245 223.341 162.916 224.799L171.497 227.095L179.657 228.32C183.764 228.257 185.8 227.647 186.55 224.799Z" stroke="#122732" stroke-width="4"/>
<path d="M173.016 188.828C173.016 191.267 171.237 192.95 169.389 192.95C167.541 192.95 165.762 191.267 165.762 188.828C165.762 186.389 167.541 184.705 169.389 184.705C171.237 184.705 173.016 186.389 173.016 188.828Z" stroke="#122732" stroke-width="4"/>
<path d="M171.357 227.095L163.057 228.167C157.794 228.685 155.405 228.392 152.928 226.024C151.872 224.11 151.874 223.04 152.928 221.126C154.639 219.272 156.361 218.9 160.806 219.442C161.931 216.075 163.223 209.782 163.057 209.966C162.89 210.15 158.629 215.303 155.741 216.84C153.544 218.062 152.311 218.284 150.114 216.84C148.105 215.209 149.382 212.729 150.114 212.095C150.846 211.461 155.453 209.564 157.711 205.666C159.061 202.68 160.059 201.318 162.353 199.543C165.108 198.434 166.705 198.139 169.669 198.166C176.778 198.422 179.254 200.331 181.31 205.666C183.329 208.832 182.993 209.274 187.962 210.941C192.931 212.609 190.861 219.049 187.962 217.702C185.063 216.355 180.798 214.799 178.65 212.36C176.655 209.078 175.91 208.336 176.399 212.36C176.595 214.608 177.867 217.725 179.376 219.442" stroke="#122732" stroke-width="4"/>
<circle cx="170.507" cy="207.118" r="28.8822" stroke="#122732" stroke-width="4"/>
<path d="M273.691 172.706L265.06 174.02V187.164H255.469V188.917H265.06L265.539 224.843C265.337 227.715 267.457 232.291 273.691 233.606C276.568 234.044 278.077 234.019 280.405 233.606C283.975 232.641 286.159 230.539 287.598 228.786C289.036 227.034 290.475 221.338 290.475 221.338L288.463 220.899C287.184 226.972 282.478 230.17 280.405 230.101C278.332 230.031 273.746 229.214 273.691 224.843V188.917H287.598V187.164H273.691V172.706Z" fill="#122732" stroke="#122732" stroke-width="3"/>
<path d="M209.586 188.091V186.339C215.959 186.811 219.518 186.659 225.89 185.462V195.977C225.89 195.977 226.37 194.225 228.288 191.596C230.206 188.967 231.165 188.091 234.042 186.339C236.92 184.586 240.189 184.995 241.715 185.462L241.74 185.47C243.271 185.939 246.039 186.787 247.469 188.529C249.268 190.72 248.806 192.121 247.949 194.225C246.877 196.646 244.592 198.168 242.194 197.73C239.797 197.292 237.879 195.138 237.879 192.911C237.879 191.158 238.502 190.729 239.797 189.406C239.797 189.406 241.268 188.952 239.797 188.529C238.326 188.106 234.58 190.282 233.141 191.596C232.459 192.219 227.058 196.959 225.89 201.673V224.456C227.8 228.68 230.155 229.67 235.961 229.713V231.466H210.065V229.713C214.589 229.599 216.149 228.473 217.259 224.456V196.416C217.259 196.416 216.779 191.158 216.299 190.282C215.82 189.406 212.482 188.551 209.586 188.091Z" fill="#122732" stroke="#122732" stroke-width="3"/>
<path d="M49 172.249V170.059L69.1406 170.497V172.249C65.6731 172.931 64.8651 173.967 64.8247 176.631L79.6904 218.253H80.17L91.1993 184.955C89.5633 178.148 88.5291 174.474 83.0472 172.249V170.497H104.626V172.249C99.0555 172.15 97.5641 173.079 97.9128 176.631L112.779 218.253H113.258L125.246 183.641L126.206 176.631C126.036 173.349 124.431 172.293 118.053 172.249V170.497H136.755V172.249C133.617 172.882 132.103 173.612 130.521 176.631L110.86 233.149H108.942L92.6379 188.46L76.8132 233.149H75.8541L54.7545 176.631C53.4709 174.144 52.2402 173.161 49 172.249Z" fill="#122732" stroke="#122732" stroke-width="3"/>
<path d="M297.824 166.067V163.876C304.468 164.371 308.078 164.308 314.129 163V195.421C317.714 189.528 322.76 185.783 327.556 185.345C332.351 184.906 335.903 185.371 339.064 187.535C343.236 191.102 344.306 194.964 343.86 205.498V223.9C344.485 227.956 345.8 229.495 351.053 230.034V231.786H328.994V230.034C333.302 229.597 334.607 228.192 335.228 223.9V205.498C335.394 199.837 335.228 194.107 333.79 191.478C332.351 188.85 328.035 187.973 324.199 188.85C320.842 189.726 315.85 194.933 314.129 202.432V223.9C314.434 228.01 315.856 229.306 320.362 230.034V231.786H298.304V230.034C302.687 229.498 304.565 228.517 305.497 223.9V188.85L304.538 169.134C302.863 166.944 301.33 166.338 297.824 166.067Z" fill="#122732" stroke="#122732" stroke-width="3"/>
<rect x="0.5" y="0.5" width="399" height="399" stroke="#202124"/>
</svg>
