<svg width="1014" height="180" viewBox="0 0 1014 180" fill="none" xmlns="http://www.w3.org/2000/svg">
<path d="M142.81 47.33H136.42V41.66H144.7L144.1 38.6H132.55V59H136.42V50.36H143.38L142.81 47.33ZM150.843 50.12C151.683 49.38 152.583 48.77 153.543 48.29C154.523 47.81 155.343 47.57 156.003 47.57L155.223 44.45C154.503 44.45 153.673 44.7 152.733 45.2C151.793 45.7 150.973 46.26 150.273 46.88L148.983 44.45H146.943V59H150.843V50.12ZM159.879 42.38C160.499 42.38 161.019 42.17 161.439 41.75C161.879 41.33 162.099 40.81 162.099 40.19C162.099 39.57 161.879 39.05 161.439 38.63C161.019 38.21 160.499 38 159.879 38C159.279 38 158.769 38.21 158.349 38.63C157.929 39.05 157.719 39.57 157.719 40.19C157.719 40.81 157.929 41.33 158.349 41.75C158.769 42.17 159.279 42.38 159.879 42.38ZM161.859 59V44.45H157.959V59H161.859ZM178.216 51.68C178.216 50.26 177.976 48.98 177.496 47.84C177.016 46.68 176.276 45.76 175.276 45.08C174.276 44.4 173.046 44.06 171.586 44.06C170.086 44.06 168.786 44.38 167.686 45.02C166.586 45.64 165.736 46.53 165.136 47.69C164.556 48.85 164.266 50.2 164.266 51.74C164.266 54.12 164.976 55.99 166.396 57.35C167.836 58.69 169.936 59.36 172.696 59.36C173.876 59.36 174.896 59.21 175.756 58.91C176.616 58.59 177.416 58.14 178.156 57.56L177.016 54.74C176.276 55.16 175.586 55.48 174.946 55.7C174.306 55.92 173.586 56.03 172.786 56.03C171.406 56.03 170.376 55.76 169.696 55.22C169.036 54.68 168.606 53.9 168.406 52.88H178.216V51.68ZM168.436 50.27C168.596 49.33 168.946 48.62 169.486 48.14C170.026 47.64 170.696 47.39 171.496 47.39C172.296 47.39 172.946 47.63 173.446 48.11C173.966 48.59 174.326 49.31 174.526 50.27H168.436ZM184.505 48.92C185.225 48.4 185.885 47.99 186.485 47.69C187.085 47.37 187.725 47.21 188.405 47.21C189.065 47.21 189.575 47.46 189.935 47.96C190.315 48.46 190.505 49.16 190.505 50.06V59H194.405V49.88C194.405 48.02 194.035 46.57 193.295 45.53C192.555 44.49 191.265 43.97 189.425 43.97C188.625 43.97 187.715 44.15 186.695 44.51C185.675 44.87 184.715 45.37 183.815 46.01L183.155 44.45H180.605V59H184.505V48.92ZM211.157 37.82V59H209.117L208.217 57.68C206.937 58.8 205.537 59.36 204.017 59.36C201.757 59.36 199.967 58.68 198.647 57.32C197.347 55.94 196.697 54.08 196.697 51.74C196.697 50.22 196.987 48.88 197.567 47.72C198.167 46.56 199.027 45.66 200.147 45.02C201.267 44.38 202.597 44.06 204.137 44.06C204.617 44.06 205.127 44.15 205.667 44.33C206.207 44.49 206.727 44.72 207.227 45.02V38.15L211.157 37.82ZM200.717 51.74C200.717 53.02 201.017 54.06 201.617 54.86C202.237 55.64 203.087 56.03 204.167 56.03C204.687 56.03 205.187 55.93 205.667 55.73C206.167 55.53 206.687 55.23 207.227 54.83V48.62C206.707 48.18 206.207 47.87 205.727 47.69C205.247 47.49 204.727 47.39 204.167 47.39C203.107 47.39 202.267 47.8 201.647 48.62C201.027 49.42 200.717 50.46 200.717 51.74ZM218.935 59V37.82L215.065 38.15V59H218.935ZM225.499 59.69C225.279 60.29 224.839 60.79 224.179 61.19C223.539 61.59 222.709 62.01 221.689 62.45L223.069 65.66C224.409 65.34 225.649 64.75 226.789 63.89C227.929 63.05 228.719 62.06 229.159 60.92L235.669 44.45H231.559L228.379 53.27L225.019 43.91L221.179 45.05L226.189 57.98L225.499 59.69Z" fill="white"/>
<path d="M474.07 129.84V134.82C473.01 135.04 472.02 135.15 471.1 135.15C469.92 135.15 468.87 134.86 467.95 134.28C467.05 133.68 466.35 132.83 465.85 131.73C465.35 130.61 465.1 129.32 465.1 127.86C465.1 126.26 465.39 124.91 465.97 123.81C466.57 122.69 467.37 121.85 468.37 121.29C469.37 120.73 470.49 120.45 471.73 120.45C472.39 120.45 472.94 120.5 473.38 120.6C473.84 120.68 474.45 120.83 475.21 121.05C475.19 121.03 475.46 121.11 476.02 121.29L477.25 118.5C476.43 118.06 475.48 117.73 474.4 117.51C473.32 117.29 472.41 117.18 471.67 117.18C469.65 117.18 467.83 117.64 466.21 118.56C464.59 119.48 463.32 120.76 462.4 122.4C461.5 124.02 461.05 125.85 461.05 127.89C461.05 129.85 461.46 131.63 462.28 133.23C463.1 134.83 464.27 136.1 465.79 137.04C467.33 137.96 469.13 138.42 471.19 138.42C472.39 138.42 473.54 138.28 474.64 138C475.74 137.72 476.71 137.36 477.55 136.92V126.84H470.11L469.78 129.84H474.07ZM484.446 129.12C485.286 128.38 486.186 127.77 487.146 127.29C488.126 126.81 488.946 126.57 489.606 126.57L488.826 123.45C488.106 123.45 487.276 123.7 486.336 124.2C485.396 124.7 484.576 125.26 483.876 125.88L482.586 123.45H480.546V138H484.446V129.12ZM506.202 130.68C506.202 132.22 505.882 133.57 505.242 134.73C504.602 135.89 503.692 136.79 502.512 137.43C501.352 138.05 499.992 138.36 498.432 138.36C496.872 138.36 495.502 138.05 494.322 137.43C493.162 136.81 492.262 135.93 491.622 134.79C490.982 133.63 490.662 132.28 490.662 130.74C490.662 129.2 490.982 127.85 491.622 126.69C492.262 125.53 493.162 124.64 494.322 124.02C495.502 123.38 496.872 123.06 498.432 123.06C499.992 123.06 501.352 123.37 502.512 123.99C503.692 124.61 504.602 125.5 505.242 126.66C505.882 127.8 506.202 129.14 506.202 130.68ZM498.432 135.03C499.512 135.03 500.402 134.62 501.102 133.8C501.822 132.98 502.182 131.94 502.182 130.68C502.182 129.42 501.832 128.39 501.132 127.59C500.432 126.79 499.532 126.39 498.432 126.39C497.352 126.39 496.452 126.8 495.732 127.62C495.032 128.44 494.682 129.48 494.682 130.74C494.682 132 495.032 133.03 495.732 133.83C496.432 134.63 497.332 135.03 498.432 135.03ZM523.523 138L528.173 123.45H524.063L521.993 131.91L519.743 123.45H515.453L513.353 131.91L511.103 122.91L507.263 124.05L511.613 138H514.913L517.523 129.09L520.253 138H523.523ZM534.587 123.48V119.34L530.717 120.03V123.48H528.767V126.48H530.717V133.35C530.717 135.01 531.227 136.3 532.247 137.22C533.267 138.14 534.687 138.6 536.507 138.6C536.987 138.6 537.517 138.51 538.097 138.33C538.697 138.15 539.147 137.94 539.447 137.7L538.307 134.88C537.767 135.14 537.237 135.27 536.717 135.27C536.037 135.27 535.507 135.03 535.127 134.55C534.767 134.07 534.587 133.44 534.587 132.66V126.48H538.427L537.227 123.48H534.587ZM550.633 122.97C552.473 122.97 553.763 123.49 554.503 124.53C555.243 125.57 555.613 127.02 555.613 128.88V138H551.713V129.06C551.713 128.16 551.523 127.46 551.143 126.96C550.783 126.46 550.273 126.21 549.613 126.21C548.933 126.21 548.293 126.37 547.693 126.69C547.093 126.99 546.433 127.4 545.713 127.92V138H541.843V117.15L545.713 116.82V124.56C546.533 124.06 547.383 123.67 548.263 123.39C549.143 123.11 549.933 122.97 550.633 122.97Z" fill="white"/>
<path d="M749.29 118.5C748.49 118.06 747.57 117.73 746.53 117.51C745.49 117.29 744.61 117.18 743.89 117.18C741.93 117.18 740.2 117.64 738.7 118.56C737.22 119.46 736.07 120.72 735.25 122.34C734.45 123.96 734.05 125.81 734.05 127.89C734.05 129.89 734.42 131.69 735.16 133.29C735.9 134.87 737 136.12 738.46 137.04C739.92 137.96 741.68 138.42 743.74 138.42C744.62 138.42 745.6 138.3 746.68 138.06C747.78 137.82 748.71 137.5 749.47 137.1L748 134.22C746.5 134.84 745.01 135.15 743.53 135.15C742.41 135.15 741.44 134.83 740.62 134.19C739.8 133.53 739.17 132.65 738.73 131.55C738.31 130.43 738.1 129.2 738.1 127.86C738.1 126.36 738.34 125.05 738.82 123.93C739.32 122.81 740 121.95 740.86 121.35C741.72 120.75 742.69 120.45 743.77 120.45C744.45 120.45 745.02 120.5 745.48 120.6C745.94 120.68 746.56 120.84 747.34 121.08L748.09 121.29L749.29 118.5ZM766.224 130.68C766.224 132.22 765.904 133.57 765.264 134.73C764.624 135.89 763.714 136.79 762.534 137.43C761.374 138.05 760.014 138.36 758.454 138.36C756.894 138.36 755.524 138.05 754.344 137.43C753.184 136.81 752.284 135.93 751.644 134.79C751.004 133.63 750.684 132.28 750.684 130.74C750.684 129.2 751.004 127.85 751.644 126.69C752.284 125.53 753.184 124.64 754.344 124.02C755.524 123.38 756.894 123.06 758.454 123.06C760.014 123.06 761.374 123.37 762.534 123.99C763.714 124.61 764.624 125.5 765.264 126.66C765.904 127.8 766.224 129.14 766.224 130.68ZM758.454 135.03C759.534 135.03 760.424 134.62 761.124 133.8C761.844 132.98 762.204 131.94 762.204 130.68C762.204 129.42 761.854 128.39 761.154 127.59C760.454 126.79 759.554 126.39 758.454 126.39C757.374 126.39 756.474 126.8 755.754 127.62C755.054 128.44 754.704 129.48 754.704 130.74C754.704 132 755.054 133.03 755.754 133.83C756.454 134.63 757.354 135.03 758.454 135.03ZM786.424 122.97C788.084 122.97 789.274 123.42 789.994 124.32C790.734 125.2 791.104 126.52 791.104 128.28V138H787.204V129.06C787.204 128.12 787.054 127.41 786.754 126.93C786.474 126.45 786.024 126.21 785.404 126.21C784.804 126.21 784.254 126.35 783.754 126.63C783.254 126.91 782.614 127.33 781.834 127.89V128.28V138H777.934V129.06C777.934 128.12 777.784 127.41 777.484 126.93C777.204 126.45 776.754 126.21 776.134 126.21C775.534 126.21 774.984 126.35 774.484 126.63C773.984 126.91 773.334 127.34 772.534 127.92V138H768.634V123.45H771.184L771.844 125.01C772.744 124.37 773.674 123.87 774.634 123.51C775.594 123.15 776.434 122.97 777.154 122.97C779.134 122.97 780.474 123.63 781.174 124.95C782.074 124.33 782.994 123.85 783.934 123.51C784.874 123.15 785.704 122.97 786.424 122.97ZM795.258 126.48V138H799.158V126.48H803.148L801.918 123.48H799.158V122.91C799.158 122.11 799.318 121.48 799.638 121.02C799.958 120.54 800.448 120.3 801.108 120.3C801.528 120.3 802.068 120.43 802.728 120.69L803.838 117.87C803.518 117.61 803.068 117.39 802.488 117.21C801.908 117.03 801.388 116.94 800.928 116.94C799.148 116.94 797.758 117.42 796.758 118.38C795.758 119.34 795.258 120.67 795.258 122.37V123.48H793.008V126.48H795.258ZM820.13 130.68C820.13 132.22 819.81 133.57 819.17 134.73C818.53 135.89 817.62 136.79 816.44 137.43C815.28 138.05 813.92 138.36 812.36 138.36C810.8 138.36 809.43 138.05 808.25 137.43C807.09 136.81 806.19 135.93 805.55 134.79C804.91 133.63 804.59 132.28 804.59 130.74C804.59 129.2 804.91 127.85 805.55 126.69C806.19 125.53 807.09 124.64 808.25 124.02C809.43 123.38 810.8 123.06 812.36 123.06C813.92 123.06 815.28 123.37 816.44 123.99C817.62 124.61 818.53 125.5 819.17 126.66C819.81 127.8 820.13 129.14 820.13 130.68ZM812.36 135.03C813.44 135.03 814.33 134.62 815.03 133.8C815.75 132.98 816.11 131.94 816.11 130.68C816.11 129.42 815.76 128.39 815.06 127.59C814.36 126.79 813.46 126.39 812.36 126.39C811.28 126.39 810.38 126.8 809.66 127.62C808.96 128.44 808.61 129.48 808.61 130.74C808.61 132 808.96 133.03 809.66 133.83C810.36 134.63 811.26 135.03 812.36 135.03ZM826.441 129.12C827.281 128.38 828.181 127.77 829.141 127.29C830.121 126.81 830.941 126.57 831.601 126.57L830.821 123.45C830.101 123.45 829.271 123.7 828.331 124.2C827.391 124.7 826.571 125.26 825.871 125.88L824.581 123.45H822.541V138H826.441V129.12ZM838.026 123.48V119.34L834.156 120.03V123.48H832.206V126.48H834.156V133.35C834.156 135.01 834.666 136.3 835.686 137.22C836.706 138.14 838.126 138.6 839.946 138.6C840.426 138.6 840.956 138.51 841.536 138.33C842.136 138.15 842.586 137.94 842.886 137.7L841.746 134.88C841.206 135.14 840.676 135.27 840.156 135.27C839.476 135.27 838.946 135.03 838.566 134.55C838.206 134.07 838.026 133.44 838.026 132.66V126.48H841.866L840.666 123.48H838.026ZM846.392 127.62C846.952 127.36 847.632 127.14 848.432 126.96C849.232 126.76 849.962 126.66 850.622 126.66C851.342 126.66 851.902 126.87 852.302 127.29C852.722 127.69 852.942 128.26 852.962 129H850.112C848.432 129 847.092 129.41 846.092 130.23C845.092 131.03 844.592 132.17 844.592 133.65C844.592 135.09 845.032 136.24 845.912 137.1C846.792 137.94 848.102 138.36 849.842 138.36C851.182 138.36 852.462 137.72 853.682 136.44L854.342 138H856.892V128.43C856.892 127.41 856.602 126.49 856.022 125.67C855.462 124.85 854.702 124.21 853.742 123.75C852.782 123.29 851.722 123.06 850.562 123.06C849.882 123.06 848.972 123.2 847.832 123.48C846.692 123.74 845.862 124.04 845.342 124.38L846.392 127.62ZM847.922 133.65C847.922 133.09 848.112 132.61 848.492 132.21C848.892 131.81 849.412 131.61 850.052 131.61H852.992V133.83C852.012 134.79 850.942 135.27 849.782 135.27C849.242 135.27 848.792 135.11 848.432 134.79C848.092 134.47 847.922 134.09 847.922 133.65ZM866.97 123.06C869.23 123.06 871.01 123.75 872.31 125.13C873.63 126.49 874.29 128.34 874.29 130.68C874.29 132.2 873.99 133.54 873.39 134.7C872.81 135.86 871.96 136.76 870.84 137.4C869.72 138.04 868.39 138.36 866.85 138.36C866.25 138.36 865.62 138.23 864.96 137.97C864.3 137.71 863.69 137.38 863.13 136.98L862.35 138H860.37V117.15L864.24 116.82V123.72C865.12 123.28 866.03 123.06 866.97 123.06ZM866.82 135.03C867.88 135.03 868.72 134.63 869.34 133.83C869.96 133.01 870.27 131.96 870.27 130.68C870.27 129.4 869.96 128.37 869.34 127.59C868.74 126.79 867.9 126.39 866.82 126.39C865.98 126.39 865.12 126.68 864.24 127.26V134.19C865.06 134.75 865.92 135.03 866.82 135.03ZM880.851 138V116.82L876.981 117.15V138H880.851ZM897.495 130.68C897.495 129.26 897.255 127.98 896.775 126.84C896.295 125.68 895.555 124.76 894.555 124.08C893.555 123.4 892.325 123.06 890.865 123.06C889.365 123.06 888.065 123.38 886.965 124.02C885.865 124.64 885.015 125.53 884.415 126.69C883.835 127.85 883.545 129.2 883.545 130.74C883.545 133.12 884.255 134.99 885.675 136.35C887.115 137.69 889.215 138.36 891.975 138.36C893.155 138.36 894.175 138.21 895.035 137.91C895.895 137.59 896.695 137.14 897.435 136.56L896.295 133.74C895.555 134.16 894.865 134.48 894.225 134.7C893.585 134.92 892.865 135.03 892.065 135.03C890.685 135.03 889.655 134.76 888.975 134.22C888.315 133.68 887.885 132.9 887.685 131.88H897.495V130.68ZM887.715 129.27C887.875 128.33 888.225 127.62 888.765 127.14C889.305 126.64 889.975 126.39 890.775 126.39C891.575 126.39 892.225 126.63 892.725 127.11C893.245 127.59 893.605 128.31 893.805 129.27H887.715Z" fill="white"/>
<path d="M114.29 138C117.29 137.96 119.6 137.04 121.22 135.24C122.86 133.42 123.68 130.9 123.68 127.68C123.68 125.68 123.33 123.93 122.63 122.43C121.95 120.91 120.9 119.73 119.48 118.89C118.08 118.03 116.35 117.6 114.29 117.6H106.55V138H114.29ZM114.44 120.9C116.2 120.9 117.51 121.49 118.37 122.67C119.23 123.83 119.66 125.5 119.66 127.68C119.66 130.12 119.18 131.91 118.22 133.05C117.28 134.17 115.95 134.73 114.23 134.73H110.42V120.9H114.44ZM139.442 130.68C139.442 129.26 139.202 127.98 138.722 126.84C138.242 125.68 137.502 124.76 136.502 124.08C135.502 123.4 134.272 123.06 132.812 123.06C131.312 123.06 130.012 123.38 128.912 124.02C127.812 124.64 126.962 125.53 126.362 126.69C125.782 127.85 125.492 129.2 125.492 130.74C125.492 133.12 126.202 134.99 127.622 136.35C129.062 137.69 131.162 138.36 133.922 138.36C135.102 138.36 136.122 138.21 136.982 137.91C137.842 137.59 138.642 137.14 139.382 136.56L138.242 133.74C137.502 134.16 136.812 134.48 136.172 134.7C135.532 134.92 134.812 135.03 134.012 135.03C132.632 135.03 131.602 134.76 130.922 134.22C130.262 133.68 129.832 132.9 129.632 131.88H139.442V130.68ZM129.662 129.27C129.822 128.33 130.172 127.62 130.712 127.14C131.252 126.64 131.922 126.39 132.722 126.39C133.522 126.39 134.172 126.63 134.672 127.11C135.192 127.59 135.552 128.31 135.752 129.27H129.662ZM146.302 123.48V119.34L142.432 120.03V123.48H140.482V126.48H142.432V133.35C142.432 135.01 142.942 136.3 143.962 137.22C144.982 138.14 146.402 138.6 148.222 138.6C148.702 138.6 149.232 138.51 149.812 138.33C150.412 138.15 150.862 137.94 151.162 137.7L150.022 134.88C149.482 135.14 148.952 135.27 148.432 135.27C147.752 135.27 147.222 135.03 146.842 134.55C146.482 134.07 146.302 133.44 146.302 132.66V126.48H150.142L148.942 123.48H146.302ZM166.307 130.68C166.307 129.26 166.067 127.98 165.587 126.84C165.107 125.68 164.367 124.76 163.367 124.08C162.367 123.4 161.137 123.06 159.677 123.06C158.177 123.06 156.877 123.38 155.777 124.02C154.677 124.64 153.827 125.53 153.227 126.69C152.647 127.85 152.357 129.2 152.357 130.74C152.357 133.12 153.067 134.99 154.487 136.35C155.927 137.69 158.027 138.36 160.787 138.36C161.967 138.36 162.987 138.21 163.847 137.91C164.707 137.59 165.507 137.14 166.247 136.56L165.107 133.74C164.367 134.16 163.677 134.48 163.037 134.7C162.397 134.92 161.677 135.03 160.877 135.03C159.497 135.03 158.467 134.76 157.787 134.22C157.127 133.68 156.697 132.9 156.497 131.88H166.307V130.68ZM156.527 129.27C156.687 128.33 157.037 127.62 157.577 127.14C158.117 126.64 158.787 126.39 159.587 126.39C160.387 126.39 161.037 126.63 161.537 127.11C162.057 127.59 162.417 128.31 162.617 129.27H156.527ZM172.597 129.12C173.437 128.38 174.337 127.77 175.297 127.29C176.277 126.81 177.097 126.57 177.757 126.57L176.977 123.45C176.257 123.45 175.427 123.7 174.487 124.2C173.547 124.7 172.727 125.26 172.027 125.88L170.737 123.45H168.697V138H172.597V129.12ZM197.503 122.97C199.163 122.97 200.353 123.42 201.073 124.32C201.813 125.2 202.183 126.52 202.183 128.28V138H198.283V129.06C198.283 128.12 198.133 127.41 197.833 126.93C197.553 126.45 197.103 126.21 196.483 126.21C195.883 126.21 195.333 126.35 194.833 126.63C194.333 126.91 193.693 127.33 192.913 127.89V128.28V138H189.013V129.06C189.013 128.12 188.863 127.41 188.563 126.93C188.283 126.45 187.833 126.21 187.213 126.21C186.613 126.21 186.063 126.35 185.562 126.63C185.063 126.91 184.413 127.34 183.613 127.92V138H179.713V123.45H182.263L182.923 125.01C183.823 124.37 184.753 123.87 185.713 123.51C186.673 123.15 187.513 122.97 188.233 122.97C190.213 122.97 191.553 123.63 192.253 124.95C193.153 124.33 194.073 123.85 195.012 123.51C195.953 123.15 196.783 122.97 197.503 122.97ZM207.297 121.38C207.917 121.38 208.437 121.17 208.857 120.75C209.297 120.33 209.517 119.81 209.517 119.19C209.517 118.57 209.297 118.05 208.857 117.63C208.437 117.21 207.917 117 207.297 117C206.697 117 206.187 117.21 205.767 117.63C205.347 118.05 205.137 118.57 205.137 119.19C205.137 119.81 205.347 120.33 205.767 120.75C206.187 121.17 206.697 121.38 207.297 121.38ZM209.277 138V123.45H205.377V138H209.277ZM216.484 127.92C217.204 127.4 217.864 126.99 218.464 126.69C219.064 126.37 219.704 126.21 220.384 126.21C221.044 126.21 221.554 126.46 221.914 126.96C222.294 127.46 222.484 128.16 222.484 129.06V138H226.384V128.88C226.384 127.02 226.014 125.57 225.274 124.53C224.534 123.49 223.244 122.97 221.404 122.97C220.604 122.97 219.694 123.15 218.674 123.51C217.654 123.87 216.694 124.37 215.794 125.01L215.134 123.45H212.584V138H216.484V127.92ZM242.626 130.68C242.626 129.26 242.386 127.98 241.906 126.84C241.426 125.68 240.686 124.76 239.686 124.08C238.686 123.4 237.456 123.06 235.996 123.06C234.496 123.06 233.196 123.38 232.096 124.02C230.996 124.64 230.146 125.53 229.546 126.69C228.966 127.85 228.676 129.2 228.676 130.74C228.676 133.12 229.386 134.99 230.806 136.35C232.246 137.69 234.346 138.36 237.106 138.36C238.286 138.36 239.306 138.21 240.166 137.91C241.026 137.59 241.826 137.14 242.566 136.56L241.426 133.74C240.686 134.16 239.996 134.48 239.356 134.7C238.716 134.92 237.996 135.03 237.196 135.03C235.816 135.03 234.786 134.76 234.106 134.22C233.446 133.68 233.016 132.9 232.816 131.88H242.626V130.68ZM232.846 129.27C233.006 128.33 233.356 127.62 233.896 127.14C234.436 126.64 235.106 126.39 235.906 126.39C236.706 126.39 237.356 126.63 237.856 127.11C238.376 127.59 238.736 128.31 238.936 129.27H232.846ZM258.575 116.82V138H256.535L255.635 136.68C254.355 137.8 252.955 138.36 251.435 138.36C249.175 138.36 247.385 137.68 246.065 136.32C244.765 134.94 244.115 133.08 244.115 130.74C244.115 129.22 244.405 127.88 244.985 126.72C245.585 125.56 246.445 124.66 247.565 124.02C248.685 123.38 250.015 123.06 251.555 123.06C252.035 123.06 252.545 123.15 253.085 123.33C253.625 123.49 254.145 123.72 254.645 124.02V117.15L258.575 116.82ZM248.135 130.74C248.135 132.02 248.435 133.06 249.035 133.86C249.655 134.64 250.505 135.03 251.585 135.03C252.105 135.03 252.605 134.93 253.085 134.73C253.585 134.53 254.105 134.23 254.645 133.83V127.62C254.125 127.18 253.625 126.87 253.145 126.69C252.665 126.49 252.145 126.39 251.585 126.39C250.525 126.39 249.685 126.8 249.065 127.62C248.445 128.42 248.135 129.46 248.135 130.74Z" fill="white"/>
<path d="M449.81 52.61L453.62 47.24V59H457.55V38.6H455.18L448.91 48.02L442.01 38.6H439.55V59H443.42V46.55L448.31 52.82L449.81 52.61ZM476.376 51.68C476.376 53.22 476.056 54.57 475.416 55.73C474.776 56.89 473.866 57.79 472.686 58.43C471.526 59.05 470.166 59.36 468.606 59.36C467.046 59.36 465.676 59.05 464.496 58.43C463.336 57.81 462.436 56.93 461.796 55.79C461.156 54.63 460.836 53.28 460.836 51.74C460.836 50.2 461.156 48.85 461.796 47.69C462.436 46.53 463.336 45.64 464.496 45.02C465.676 44.38 467.046 44.06 468.606 44.06C470.166 44.06 471.526 44.37 472.686 44.99C473.866 45.61 474.776 46.5 475.416 47.66C476.056 48.8 476.376 50.14 476.376 51.68ZM468.606 56.03C469.686 56.03 470.576 55.62 471.276 54.8C471.996 53.98 472.356 52.94 472.356 51.68C472.356 50.42 472.006 49.39 471.306 48.59C470.606 47.79 469.706 47.39 468.606 47.39C467.526 47.39 466.626 47.8 465.906 48.62C465.206 49.44 464.856 50.48 464.856 51.74C464.856 53 465.206 54.03 465.906 54.83C466.606 55.63 467.506 56.03 468.606 56.03ZM483.257 44.48V40.34L479.387 41.03V44.48H477.437V47.48H479.387V54.35C479.387 56.01 479.897 57.3 480.917 58.22C481.937 59.14 483.357 59.6 485.177 59.6C485.657 59.6 486.187 59.51 486.767 59.33C487.367 59.15 487.817 58.94 488.117 58.7L486.977 55.88C486.437 56.14 485.907 56.27 485.387 56.27C484.707 56.27 484.177 56.03 483.797 55.55C483.437 55.07 483.257 54.44 483.257 53.66V47.48H487.097L485.897 44.48H483.257ZM492.133 42.38C492.753 42.38 493.273 42.17 493.693 41.75C494.133 41.33 494.353 40.81 494.353 40.19C494.353 39.57 494.133 39.05 493.693 38.63C493.273 38.21 492.753 38 492.133 38C491.533 38 491.023 38.21 490.603 38.63C490.183 39.05 489.973 39.57 489.973 40.19C489.973 40.81 490.183 41.33 490.603 41.75C491.023 42.17 491.533 42.38 492.133 42.38ZM494.113 59V44.45H490.213V59H494.113ZM504.8 59L510.53 44.45H506.42L503.24 53.27L499.88 43.91L496.07 45.05L501.44 59H504.8ZM513.888 48.62C514.448 48.36 515.128 48.14 515.928 47.96C516.728 47.76 517.458 47.66 518.118 47.66C518.838 47.66 519.398 47.87 519.798 48.29C520.218 48.69 520.438 49.26 520.458 50H517.608C515.928 50 514.588 50.41 513.588 51.23C512.588 52.03 512.088 53.17 512.088 54.65C512.088 56.09 512.528 57.24 513.408 58.1C514.288 58.94 515.598 59.36 517.338 59.36C518.678 59.36 519.958 58.72 521.178 57.44L521.838 59H524.388V49.43C524.388 48.41 524.098 47.49 523.518 46.67C522.958 45.85 522.198 45.21 521.238 44.75C520.278 44.29 519.218 44.06 518.058 44.06C517.378 44.06 516.468 44.2 515.328 44.48C514.188 44.74 513.358 45.04 512.838 45.38L513.888 48.62ZM515.418 54.65C515.418 54.09 515.608 53.61 515.988 53.21C516.388 52.81 516.908 52.61 517.548 52.61H520.488V54.83C519.508 55.79 518.438 56.27 517.278 56.27C516.738 56.27 516.288 56.11 515.928 55.79C515.588 55.47 515.418 55.09 515.418 54.65ZM532.036 44.48V40.34L528.166 41.03V44.48H526.216V47.48H528.166V54.35C528.166 56.01 528.676 57.3 529.696 58.22C530.716 59.14 532.136 59.6 533.956 59.6C534.436 59.6 534.966 59.51 535.546 59.33C536.146 59.15 536.596 58.94 536.896 58.7L535.756 55.88C535.216 56.14 534.686 56.27 534.166 56.27C533.486 56.27 532.956 56.03 532.576 55.55C532.216 55.07 532.036 54.44 532.036 53.66V47.48H535.876L534.676 44.48H532.036ZM540.912 42.38C541.532 42.38 542.052 42.17 542.472 41.75C542.912 41.33 543.132 40.81 543.132 40.19C543.132 39.57 542.912 39.05 542.472 38.63C542.052 38.21 541.532 38 540.912 38C540.312 38 539.802 38.21 539.382 38.63C538.962 39.05 538.752 39.57 538.752 40.19C538.752 40.81 538.962 41.33 539.382 41.75C539.802 42.17 540.312 42.38 540.912 42.38ZM542.892 59V44.45H538.992V59H542.892ZM550.099 48.92C550.819 48.4 551.479 47.99 552.079 47.69C552.679 47.37 553.319 47.21 553.999 47.21C554.659 47.21 555.169 47.46 555.529 47.96C555.909 48.46 556.099 49.16 556.099 50.06V59H559.999V49.88C559.999 48.02 559.629 46.57 558.889 45.53C558.149 44.49 556.859 43.97 555.019 43.97C554.219 43.97 553.309 44.15 552.289 44.51C551.269 44.87 550.309 45.37 549.409 46.01L548.749 44.45H546.199V59H550.099V48.92ZM576.751 44.45V59.69C576.751 61.69 576.051 63.22 574.651 64.28C573.251 65.36 571.371 65.9 569.011 65.9C568.271 65.9 567.271 65.74 566.011 65.42C564.751 65.12 563.771 64.73 563.071 64.25L564.241 61.49C565.141 61.93 565.961 62.25 566.701 62.45C567.441 62.65 568.181 62.76 568.921 62.78C570.101 62.76 571.041 62.47 571.741 61.91C572.461 61.35 572.821 60.6 572.821 59.66V58.43C571.821 59.05 570.751 59.36 569.611 59.36C567.351 59.36 565.561 58.68 564.241 57.32C562.941 55.94 562.291 54.08 562.291 51.74C562.291 50.22 562.581 48.88 563.161 47.72C563.761 46.56 564.621 45.66 565.741 45.02C566.861 44.38 568.191 44.06 569.731 44.06C570.391 44.06 571.091 44.22 571.831 44.54C572.591 44.86 573.261 45.27 573.841 45.77L574.711 44.45H576.751ZM569.761 56.03C570.281 56.03 570.781 55.93 571.261 55.73C571.761 55.53 572.281 55.23 572.821 54.83V48.62C572.301 48.18 571.801 47.87 571.321 47.69C570.841 47.49 570.321 47.39 569.761 47.39C568.701 47.39 567.861 47.8 567.241 48.62C566.621 49.42 566.311 50.46 566.311 51.74C566.311 53.02 566.611 54.06 567.211 54.86C567.831 55.64 568.681 56.03 569.761 56.03Z" fill="white"/>
<path d="M737.29 39.5C736.49 39.06 735.57 38.73 734.53 38.51C733.49 38.29 732.61 38.18 731.89 38.18C729.93 38.18 728.2 38.64 726.7 39.56C725.22 40.46 724.07 41.72 723.25 43.34C722.45 44.96 722.05 46.81 722.05 48.89C722.05 50.89 722.42 52.69 723.16 54.29C723.9 55.87 725 57.12 726.46 58.04C727.92 58.96 729.68 59.42 731.74 59.42C732.62 59.42 733.6 59.3 734.68 59.06C735.78 58.82 736.71 58.5 737.47 58.1L736 55.22C734.5 55.84 733.01 56.15 731.53 56.15C730.41 56.15 729.44 55.83 728.62 55.19C727.8 54.53 727.17 53.65 726.73 52.55C726.31 51.43 726.1 50.2 726.1 48.86C726.1 47.36 726.34 46.05 726.82 44.93C727.32 43.81 728 42.95 728.86 42.35C729.72 41.75 730.69 41.45 731.77 41.45C732.45 41.45 733.02 41.5 733.48 41.6C733.94 41.68 734.56 41.84 735.34 42.08L736.09 42.29L737.29 39.5ZM754.224 51.68C754.224 53.22 753.904 54.57 753.264 55.73C752.624 56.89 751.714 57.79 750.534 58.43C749.374 59.05 748.014 59.36 746.454 59.36C744.894 59.36 743.524 59.05 742.344 58.43C741.184 57.81 740.284 56.93 739.644 55.79C739.004 54.63 738.684 53.28 738.684 51.74C738.684 50.2 739.004 48.85 739.644 47.69C740.284 46.53 741.184 45.64 742.344 45.02C743.524 44.38 744.894 44.06 746.454 44.06C748.014 44.06 749.374 44.37 750.534 44.99C751.714 45.61 752.624 46.5 753.264 47.66C753.904 48.8 754.224 50.14 754.224 51.68ZM746.454 56.03C747.534 56.03 748.424 55.62 749.124 54.8C749.844 53.98 750.204 52.94 750.204 51.68C750.204 50.42 749.854 49.39 749.154 48.59C748.454 47.79 747.554 47.39 746.454 47.39C745.374 47.39 744.474 47.8 743.754 48.62C743.054 49.44 742.704 50.48 742.704 51.74C742.704 53 743.054 54.03 743.754 54.83C744.454 55.63 745.354 56.03 746.454 56.03ZM760.534 48.92C761.254 48.4 761.914 47.99 762.514 47.69C763.114 47.37 763.754 47.21 764.434 47.21C765.094 47.21 765.604 47.46 765.964 47.96C766.344 48.46 766.534 49.16 766.534 50.06V59H770.434V49.88C770.434 48.02 770.064 46.57 769.324 45.53C768.584 44.49 767.294 43.97 765.454 43.97C764.654 43.97 763.744 44.15 762.724 44.51C761.704 44.87 760.744 45.37 759.844 46.01L759.184 44.45H756.634V59H760.534V48.92ZM778.097 44.48V40.34L774.227 41.03V44.48H772.277V47.48H774.227V54.35C774.227 56.01 774.737 57.3 775.757 58.22C776.777 59.14 778.197 59.6 780.017 59.6C780.497 59.6 781.027 59.51 781.607 59.33C782.207 59.15 782.657 58.94 782.957 58.7L781.817 55.88C781.277 56.14 780.747 56.27 780.227 56.27C779.547 56.27 779.017 56.03 778.637 55.55C778.277 55.07 778.097 54.44 778.097 53.66V47.48H781.937L780.737 44.48H778.097ZM798.102 51.68C798.102 50.26 797.862 48.98 797.382 47.84C796.902 46.68 796.162 45.76 795.162 45.08C794.162 44.4 792.932 44.06 791.472 44.06C789.972 44.06 788.672 44.38 787.572 45.02C786.472 45.64 785.622 46.53 785.022 47.69C784.442 48.85 784.152 50.2 784.152 51.74C784.152 54.12 784.862 55.99 786.282 57.35C787.722 58.69 789.822 59.36 792.582 59.36C793.762 59.36 794.782 59.21 795.642 58.91C796.502 58.59 797.302 58.14 798.042 57.56L796.902 54.74C796.162 55.16 795.472 55.48 794.832 55.7C794.192 55.92 793.472 56.03 792.672 56.03C791.292 56.03 790.262 55.76 789.582 55.22C788.922 54.68 788.492 53.9 788.292 52.88H798.102V51.68ZM788.322 50.27C788.482 49.33 788.832 48.62 789.372 48.14C789.912 47.64 790.582 47.39 791.382 47.39C792.182 47.39 792.832 47.63 793.332 48.11C793.852 48.59 794.212 49.31 794.412 50.27H788.322ZM818.282 43.97C819.942 43.97 821.132 44.42 821.852 45.32C822.592 46.2 822.962 47.52 822.962 49.28V59H819.062V50.06C819.062 49.12 818.912 48.41 818.612 47.93C818.332 47.45 817.882 47.21 817.262 47.21C816.662 47.21 816.112 47.35 815.612 47.63C815.112 47.91 814.472 48.33 813.692 48.89V49.28V59H809.792V50.06C809.792 49.12 809.642 48.41 809.342 47.93C809.062 47.45 808.612 47.21 807.992 47.21C807.392 47.21 806.842 47.35 806.342 47.63C805.842 47.91 805.192 48.34 804.392 48.92V59H800.492V44.45H803.042L803.702 46.01C804.602 45.37 805.532 44.87 806.492 44.51C807.452 44.15 808.292 43.97 809.012 43.97C810.992 43.97 812.332 44.63 813.032 45.95C813.932 45.33 814.852 44.85 815.792 44.51C816.732 44.15 817.562 43.97 818.282 43.97ZM832.936 44.06C835.196 44.06 836.976 44.75 838.276 46.13C839.596 47.49 840.256 49.34 840.256 51.68C840.256 53.2 839.956 54.54 839.356 55.7C838.776 56.86 837.926 57.76 836.806 58.4C835.686 59.04 834.356 59.36 832.816 59.36C831.996 59.36 831.126 59.13 830.206 58.67V65.27L826.336 65.57V44.45H828.316L829.096 45.44C830.276 44.52 831.556 44.06 832.936 44.06ZM832.786 56.03C833.846 56.03 834.686 55.63 835.306 54.83C835.926 54.01 836.236 52.96 836.236 51.68C836.236 50.4 835.926 49.37 835.306 48.59C834.706 47.79 833.866 47.39 832.786 47.39C831.946 47.39 831.086 47.68 830.206 48.26V55.19C831.026 55.75 831.886 56.03 832.786 56.03ZM857.29 51.68C857.29 53.22 856.97 54.57 856.33 55.73C855.69 56.89 854.78 57.79 853.6 58.43C852.44 59.05 851.08 59.36 849.52 59.36C847.96 59.36 846.59 59.05 845.41 58.43C844.25 57.81 843.35 56.93 842.71 55.79C842.07 54.63 841.75 53.28 841.75 51.74C841.75 50.2 842.07 48.85 842.71 47.69C843.35 46.53 844.25 45.64 845.41 45.02C846.59 44.38 847.96 44.06 849.52 44.06C851.08 44.06 852.44 44.37 853.6 44.99C854.78 45.61 855.69 46.5 856.33 47.66C856.97 48.8 857.29 50.14 857.29 51.68ZM849.52 56.03C850.6 56.03 851.49 55.62 852.19 54.8C852.91 53.98 853.27 52.94 853.27 51.68C853.27 50.42 852.92 49.39 852.22 48.59C851.52 47.79 850.62 47.39 849.52 47.39C848.44 47.39 847.54 47.8 846.82 48.62C846.12 49.44 845.77 50.48 845.77 51.74C845.77 53 846.12 54.03 846.82 54.83C847.52 55.63 848.42 56.03 849.52 56.03ZM863.601 50.12C864.441 49.38 865.341 48.77 866.301 48.29C867.281 47.81 868.101 47.57 868.761 47.57L867.981 44.45C867.261 44.45 866.431 44.7 865.491 45.2C864.551 45.7 863.731 46.26 863.031 46.88L861.741 44.45H859.701V59H863.601V50.12ZM872.126 48.62C872.686 48.36 873.366 48.14 874.166 47.96C874.966 47.76 875.696 47.66 876.356 47.66C877.076 47.66 877.636 47.87 878.036 48.29C878.456 48.69 878.676 49.26 878.696 50H875.846C874.166 50 872.826 50.41 871.826 51.23C870.826 52.03 870.326 53.17 870.326 54.65C870.326 56.09 870.766 57.24 871.646 58.1C872.526 58.94 873.836 59.36 875.576 59.36C876.916 59.36 878.196 58.72 879.416 57.44L880.076 59H882.626V49.43C882.626 48.41 882.336 47.49 881.756 46.67C881.196 45.85 880.436 45.21 879.476 44.75C878.516 44.29 877.456 44.06 876.296 44.06C875.616 44.06 874.706 44.2 873.566 44.48C872.426 44.74 871.596 45.04 871.076 45.38L872.126 48.62ZM873.656 54.65C873.656 54.09 873.846 53.61 874.226 53.21C874.626 52.81 875.146 52.61 875.786 52.61H878.726V54.83C877.746 55.79 876.676 56.27 875.516 56.27C874.976 56.27 874.526 56.11 874.166 55.79C873.826 55.47 873.656 55.09 873.656 54.65ZM889.704 50.12C890.544 49.38 891.444 48.77 892.404 48.29C893.384 47.81 894.204 47.57 894.864 47.57L894.084 44.45C893.364 44.45 892.534 44.7 891.594 45.2C890.654 45.7 889.834 46.26 889.134 46.88L887.844 44.45H885.804V59H889.704V50.12ZM899.79 59.69C899.57 60.29 899.13 60.79 898.47 61.19C897.83 61.59 897 62.01 895.98 62.45L897.36 65.66C898.7 65.34 899.94 64.75 901.08 63.89C902.22 63.05 903.01 62.06 903.45 60.92L909.96 44.45H905.85L902.67 53.27L899.31 43.91L895.47 45.05L900.48 57.98L899.79 59.69Z" fill="white"/>
</svg>
