<svg width="497" height="349" viewBox="0 0 497 349" fill="none" xmlns="http://www.w3.org/2000/svg">
<path d="M0 0H497V349H0V0Z" fill="#313235"/>
<path d="M18.4759 31.291H20.013C21.0377 31.291 21.9805 31.1256 22.8413 30.7947C23.7021 30.45 24.3921 29.9261 24.9112 29.2229C25.4441 28.5197 25.7105 27.658 25.7105 26.6377C25.7105 25.1073 25.1982 23.9767 24.1734 23.2459C23.1624 22.5014 21.837 22.1291 20.1974 22.1291H15.832V36.1926H18.4759V31.291ZM20.1155 24.3627C21.0309 24.3627 21.7208 24.5557 22.1854 24.9418C22.6636 25.3141 22.9028 25.9345 22.9028 26.8032C22.8481 27.5615 22.5816 28.1336 22.1035 28.5197C21.6253 28.892 20.9762 29.0781 20.1564 29.0781H18.4759V24.3627H20.1155ZM36.2613 31.1463C36.2613 30.1674 36.0973 29.2849 35.7694 28.499C35.4415 27.6993 34.9359 27.0652 34.2528 26.5964C33.5696 26.1275 32.7293 25.8932 31.7319 25.8932C30.7072 25.8932 29.819 26.1138 29.0676 26.555C28.3161 26.9824 27.7354 27.5959 27.3255 28.3956C26.9292 29.1954 26.7312 30.126 26.7312 31.1876C26.7312 32.8283 27.2162 34.1176 28.1863 35.0551C29.1701 35.9789 30.6047 36.4407 32.4902 36.4407C33.2963 36.4407 33.9932 36.3373 34.5807 36.1305C35.1681 35.9099 35.7147 35.5996 36.2203 35.1998L35.4415 33.2558C34.9359 33.5453 34.4645 33.766 34.0274 33.9176C33.59 34.0692 33.0982 34.1451 32.5517 34.1451C31.609 34.1451 30.9052 33.959 30.4408 33.5867C29.9899 33.2144 29.696 32.6767 29.5595 31.9735H36.2613V31.1463ZM29.58 30.1742C29.6892 29.5263 29.9284 29.0368 30.2973 28.7059C30.6662 28.3611 31.1239 28.1888 31.6704 28.1888C32.2169 28.1888 32.661 28.3543 33.0026 28.6852C33.3578 29.0161 33.6038 29.5124 33.7404 30.1742H29.58ZM40.5579 30.0708C41.1318 29.5607 41.7466 29.1402 42.4024 28.8093C43.072 28.4784 43.6321 28.3129 44.083 28.3129L43.5502 26.162C43.0583 26.162 42.4913 26.3343 41.8491 26.6791C41.207 27.0238 40.6468 27.4098 40.1685 27.8372L39.2872 26.162H37.8936V36.1926H40.5579V30.0708ZM44.8452 35.4067C45.2688 35.7376 45.8221 35.9926 46.5053 36.1719C47.1885 36.3512 47.7829 36.4407 48.2883 36.4407C49.6274 36.4407 50.6521 36.1719 51.3625 35.6342C52.0731 35.0826 52.4283 34.3037 52.4283 33.2972C52.4283 32.4974 52.1073 31.8219 51.465 31.2704C50.8229 30.7188 50.0168 30.2638 49.0466 29.9054C48.5412 29.7261 48.1518 29.5676 47.8784 29.4297C47.6189 29.2781 47.489 29.1126 47.489 28.9334C47.489 28.699 47.5984 28.499 47.8169 28.3336C48.0493 28.1543 48.3362 28.0647 48.6777 28.0647C49.115 28.0647 49.5317 28.1199 49.9279 28.2302C50.3378 28.3404 50.8024 28.5129 51.3215 28.7472L52.1208 26.9479C51.6564 26.6309 51.0893 26.3757 50.4198 26.1827C49.7504 25.9897 49.1833 25.8932 48.7187 25.8932C47.53 25.8932 46.5872 26.1689 45.8904 26.7204C45.1936 27.2582 44.8452 28.0027 44.8452 28.954C44.8452 29.7124 45.1595 30.3397 45.7879 30.8361C46.4165 31.3324 47.2021 31.7392 48.1448 32.0563C49.3063 32.4147 49.8869 32.8628 49.8869 33.4006C49.8869 33.6763 49.7162 33.8901 49.3745 34.0417C49.033 34.1933 48.6572 34.2692 48.2473 34.2692C47.5232 34.2692 46.6556 34.0417 45.6445 33.5867L44.8452 35.4067ZM64.0668 31.1463C64.0668 32.2079 63.8483 33.1386 63.4109 33.9383C62.9738 34.738 62.3521 35.3584 61.5459 35.7996C60.7535 36.2271 59.8243 36.4407 58.7586 36.4407C57.6929 36.4407 56.757 36.2271 55.9508 35.7996C55.1584 35.3721 54.5436 34.7655 54.1063 33.9796C53.6691 33.1799 53.4504 32.2492 53.4504 31.1876C53.4504 30.126 53.6691 29.1954 54.1063 28.3956C54.5436 27.5959 55.1584 26.9824 55.9508 26.555C56.757 26.1138 57.6929 25.8932 58.7586 25.8932C59.8243 25.8932 60.7535 26.1068 61.5459 26.5343C62.3521 26.9618 62.9738 27.5752 63.4109 28.375C63.8483 29.1609 64.0668 30.0847 64.0668 31.1463ZM58.7586 34.1451C59.4964 34.1451 60.1045 33.8624 60.5827 33.2972C61.0745 32.7319 61.3205 32.0149 61.3205 31.1463C61.3205 30.2777 61.0814 29.5676 60.6031 29.0161C60.125 28.4645 59.5101 28.1888 58.7586 28.1888C58.0208 28.1888 57.4059 28.4715 56.9141 29.0368C56.4359 29.602 56.1968 30.319 56.1968 31.1876C56.1968 32.0563 56.4359 32.7663 56.9141 33.3178C57.3924 33.8694 58.0072 34.1451 58.7586 34.1451ZM68.3781 29.2436C68.87 28.8851 69.3209 28.6025 69.7308 28.3956C70.1407 28.175 70.5779 28.0647 71.0424 28.0647C71.4933 28.0647 71.8418 28.237 72.0877 28.5818C72.3472 28.9265 72.4771 29.409 72.4771 30.0295V36.1926H75.1414V29.9054C75.1414 28.6231 74.8886 27.6236 74.3831 26.9066C73.8775 26.1896 72.9963 25.8311 71.7393 25.8311C71.1927 25.8311 70.5711 25.9552 69.8742 26.2034C69.1774 26.4516 68.5216 26.7963 67.9067 27.2375L67.4559 26.162H65.7138V36.1926H68.3781V29.2436ZM78.2855 29.0368C78.6679 28.8575 79.1325 28.7059 79.6791 28.5818C80.2255 28.4439 80.7243 28.375 81.1752 28.375C81.6671 28.375 82.0496 28.5197 82.3229 28.8093C82.6099 29.085 82.7601 29.4779 82.7738 29.9881H80.8268C79.6791 29.9881 78.7636 30.2708 78.0805 30.8361C77.3973 31.3876 77.0558 32.1735 77.0558 33.1937C77.0558 34.1865 77.3563 34.9792 77.9575 35.5721C78.5587 36.1512 79.4537 36.4407 80.6424 36.4407C81.5577 36.4407 82.4322 35.9996 83.2657 35.1171L83.7166 36.1926H85.4587V29.5952C85.4587 28.892 85.2605 28.2577 84.8643 27.6925C84.4817 27.1272 83.9625 26.6859 83.3067 26.3689C82.6509 26.0518 81.9266 25.8932 81.1342 25.8932C80.6696 25.8932 80.048 25.9897 79.2692 26.1827C78.4904 26.362 77.9233 26.5688 77.5681 26.8032L78.2855 29.0368ZM79.3307 33.1937C79.3307 32.8076 79.4605 32.4767 79.7201 32.201C79.9933 31.9253 80.3485 31.7874 80.7858 31.7874H82.7943V33.3178C82.1248 33.9796 81.3938 34.3105 80.6014 34.3105C80.2325 34.3105 79.925 34.2003 79.6791 33.9796C79.4467 33.759 79.3307 33.4971 79.3307 33.1937ZM90.4785 36.1926V21.5914L87.8346 21.8189V36.1926H90.4785ZM105.161 28.1475H100.795V24.2387H106.452L106.042 22.1291H98.1516V36.1926H100.795V30.2363H105.55L105.161 28.1475ZM109.296 24.735C109.72 24.735 110.075 24.5902 110.362 24.3007C110.662 24.0112 110.813 23.6527 110.813 23.2253C110.813 22.7978 110.662 22.4394 110.362 22.1498C110.075 21.8603 109.72 21.7155 109.296 21.7155C108.886 21.7155 108.538 21.8603 108.251 22.1498C107.964 22.4394 107.82 22.7978 107.82 23.2253C107.82 23.6527 107.964 24.0112 108.251 24.3007C108.538 24.5902 108.886 24.735 109.296 24.735ZM110.649 36.1926V26.162H107.984V36.1926H110.649ZM115.572 29.2436C116.064 28.8851 116.515 28.6025 116.925 28.3956C117.335 28.175 117.772 28.0647 118.237 28.0647C118.687 28.0647 119.036 28.237 119.282 28.5818C119.541 28.9265 119.671 29.409 119.671 30.0295V36.1926H122.336V29.9054C122.336 28.6231 122.083 27.6236 121.577 26.9066C121.072 26.1896 120.19 25.8311 118.933 25.8311C118.387 25.8311 117.765 25.9552 117.068 26.2034C116.372 26.4516 115.716 26.7963 115.101 27.2375L114.65 26.162H112.908V36.1926H115.572V29.2436ZM125.48 29.0368C125.862 28.8575 126.327 28.7059 126.873 28.5818C127.42 28.4439 127.918 28.375 128.369 28.375C128.861 28.375 129.244 28.5197 129.517 28.8093C129.804 29.085 129.954 29.4779 129.968 29.9881H128.021C126.873 29.9881 125.958 30.2708 125.275 30.8361C124.592 31.3876 124.25 32.1735 124.25 33.1937C124.25 34.1865 124.551 34.9792 125.152 35.5721C125.753 36.1512 126.648 36.4407 127.836 36.4407C128.752 36.4407 129.626 35.9996 130.46 35.1171L130.911 36.1926H132.653V29.5952C132.653 28.892 132.454 28.2577 132.058 27.6925C131.675 27.1272 131.157 26.6859 130.501 26.3689C129.845 26.0518 129.121 25.8932 128.328 25.8932C127.864 25.8932 127.242 25.9897 126.463 26.1827C125.685 26.362 125.118 26.5688 124.762 26.8032L125.48 29.0368ZM126.525 33.1937C126.525 32.8076 126.655 32.4767 126.914 32.201C127.188 31.9253 127.543 31.7874 127.98 31.7874H129.988V33.3178C129.318 33.9796 128.588 34.3105 127.795 34.3105C127.427 34.3105 127.119 34.2003 126.873 33.9796C126.641 33.759 126.525 33.4971 126.525 33.1937ZM137.488 29.2436C137.98 28.8851 138.431 28.6025 138.841 28.3956C139.251 28.175 139.688 28.0647 140.152 28.0647C140.603 28.0647 140.952 28.237 141.198 28.5818C141.458 28.9265 141.587 29.409 141.587 30.0295V36.1926H144.251V29.9054C144.251 28.6231 143.999 27.6236 143.493 26.9066C142.987 26.1896 142.106 25.8311 140.849 25.8311C140.302 25.8311 139.681 25.9552 138.984 26.2034C138.287 26.4516 137.632 26.7963 137.017 27.2375L136.566 26.162H134.824V36.1926H137.488V29.2436ZM154.549 26.9479C154.084 26.6309 153.51 26.3757 152.827 26.1827C152.143 25.9897 151.569 25.8932 151.106 25.8932C150.04 25.8932 149.104 26.1138 148.298 26.555C147.505 26.9824 146.89 27.5959 146.453 28.3956C146.029 29.1954 145.818 30.126 145.818 31.1876C145.818 32.2492 146.029 33.1799 146.453 33.9796C146.89 34.7655 147.505 35.3721 148.298 35.7996C149.104 36.2271 150.04 36.4407 151.106 36.4407C151.61 36.4407 152.205 36.3512 152.889 36.1719C153.571 35.9926 154.125 35.7376 154.549 35.4067L153.791 33.4626C153.27 33.697 152.807 33.8694 152.397 33.9796C151.987 34.0899 151.563 34.1451 151.126 34.1451C150.374 34.1451 149.759 33.8694 149.282 33.3178C148.803 32.7663 148.564 32.0563 148.564 31.1876C148.564 30.319 148.803 29.602 149.282 29.0368C149.774 28.4715 150.388 28.1888 151.126 28.1888C151.563 28.1888 151.987 28.244 152.397 28.3543C152.807 28.4645 153.27 28.637 153.791 28.8713L154.549 26.9479ZM165.014 31.1463C165.014 30.1674 164.85 29.2849 164.522 28.499C164.194 27.6993 163.69 27.0652 163.006 26.5964C162.323 26.1275 161.482 25.8932 160.485 25.8932C159.46 25.8932 158.572 26.1138 157.82 26.555C157.07 26.9824 156.488 27.5959 156.078 28.3956C155.682 29.1954 155.484 30.126 155.484 31.1876C155.484 32.8283 155.969 34.1176 156.939 35.0551C157.923 35.9789 159.357 36.4407 161.243 36.4407C162.05 36.4407 162.747 36.3373 163.333 36.1305C163.921 35.9099 164.468 35.5996 164.973 35.1998L164.194 33.2558C163.69 33.5453 163.218 33.766 162.78 33.9176C162.343 34.0692 161.851 34.1451 161.304 34.1451C160.362 34.1451 159.658 33.959 159.193 33.5867C158.743 33.2144 158.449 32.6767 158.312 31.9735H165.014V31.1463ZM158.333 30.1742C158.443 29.5263 158.681 29.0368 159.05 28.7059C159.419 28.3611 159.877 28.1888 160.423 28.1888C160.97 28.1888 161.415 28.3543 161.755 28.6852C162.111 29.0161 162.357 29.5124 162.493 30.1742H158.333ZM171.087 35.2619C171.551 35.5514 172.206 35.8271 173.054 36.0892C173.915 36.3373 174.632 36.4614 175.206 36.4614C176.299 36.4614 177.235 36.296 178.014 35.9651C178.806 35.6342 179.4 35.1792 179.797 34.6001C180.207 34.021 180.412 33.3523 180.412 32.594C180.412 31.9183 180.248 31.3324 179.92 30.8361C179.605 30.3259 179.209 29.8985 178.731 29.5538C178.252 29.1954 177.611 28.7817 176.805 28.3129L176.211 27.9613L175.555 27.5891C174.858 27.1754 174.352 26.8377 174.038 26.5757C173.737 26.3 173.587 25.9621 173.587 25.5623C173.587 25.0935 173.778 24.7419 174.161 24.5075C174.557 24.2593 175.063 24.1353 175.678 24.1353C176.211 24.1353 176.702 24.2111 177.153 24.3627C177.617 24.5144 178.129 24.7282 178.69 25.0039L179.572 22.853C178.123 22.1498 176.811 21.7982 175.637 21.7982C174.639 21.7982 173.778 21.9637 173.054 22.2946C172.343 22.6117 171.797 23.0598 171.415 23.6389C171.032 24.2041 170.841 24.8453 170.841 25.5623C170.841 26.2379 171.032 26.8514 171.415 27.4029C171.811 27.9406 172.276 28.4095 172.808 28.8093C173.354 29.2091 174.086 29.6847 175.001 30.2363L175.616 30.6086C176.313 30.9947 176.825 31.3324 177.153 31.622C177.494 31.8977 177.666 32.2079 177.666 32.5526C177.666 33.049 177.453 33.4281 177.03 33.6901C176.606 33.9521 175.985 34.083 175.165 34.083C174.632 34.083 174.045 33.9865 173.403 33.7935C172.76 33.5867 172.186 33.3523 171.681 33.0903L171.087 35.2619ZM184.907 36.1926V32.9042L185.973 31.9529L188.473 36.1926H191.527L187.879 30.2363L190.666 27.7752L189.17 25.8725L184.907 29.8227V21.5914L182.263 21.8189V36.1926H184.907ZM193.958 24.735C194.381 24.735 194.737 24.5902 195.024 24.3007C195.323 24.0112 195.474 23.6527 195.474 23.2253C195.474 22.7978 195.323 22.4394 195.024 22.1498C194.737 21.8603 194.381 21.7155 193.958 21.7155C193.548 21.7155 193.2 21.8603 192.913 22.1498C192.626 22.4394 192.482 22.7978 192.482 23.2253C192.482 23.6527 192.626 24.0112 192.913 24.3007C193.2 24.5902 193.548 24.735 193.958 24.735ZM195.311 36.1926V26.162H192.646V36.1926H195.311ZM200.418 36.1926V21.5914L197.774 21.8189V36.1926H200.418ZM205.722 36.1926V21.5914L203.078 21.8189V36.1926H205.722ZM207.604 35.4067C208.026 35.7376 208.58 35.9926 209.264 36.1719C209.946 36.3512 210.541 36.4407 211.047 36.4407C212.385 36.4407 213.41 36.1719 214.121 35.6342C214.831 35.0826 215.187 34.3037 215.187 33.2972C215.187 32.4974 214.865 31.8219 214.223 31.2704C213.58 30.7188 212.775 30.2638 211.805 29.9054C211.299 29.7261 210.91 29.5676 210.637 29.4297C210.377 29.2781 210.247 29.1126 210.247 28.9334C210.247 28.699 210.356 28.499 210.575 28.3336C210.807 28.1543 211.094 28.0647 211.436 28.0647C211.873 28.0647 212.289 28.1199 212.686 28.2302C213.096 28.3404 213.56 28.5129 214.08 28.7472L214.879 26.9479C214.414 26.6309 213.847 26.3757 213.178 26.1827C212.508 25.9897 211.941 25.8932 211.477 25.8932C210.288 25.8932 209.346 26.1689 208.649 26.7204C207.952 27.2582 207.604 28.0027 207.604 28.954C207.604 29.7124 207.917 30.3397 208.546 30.8361C209.174 31.3324 209.96 31.7392 210.903 32.0563C212.064 32.4147 212.645 32.8628 212.645 33.4006C212.645 33.6763 212.474 33.8901 212.133 34.0417C211.791 34.1933 211.416 34.2692 211.006 34.2692C210.281 34.2692 209.414 34.0417 208.403 33.5867L207.604 35.4067Z" fill="white"/>
<path d="M57.0018 113.748C57.9753 113.748 58.7567 113.55 59.3459 113.154C59.9351 112.757 60.2298 112.132 60.2298 111.279C60.2298 110.711 60.0804 110.241 59.7814 109.87C59.4912 109.5 59.0813 109.224 58.5517 109.043C58.9104 108.836 59.2008 108.591 59.4228 108.306C59.6449 108.013 59.7558 107.673 59.7558 107.285C59.7558 106.449 59.4868 105.855 58.9488 105.501C58.4108 105.139 57.6594 104.959 56.6944 104.959H54.2734V113.748H57.0018ZM56.656 105.825C57.3477 105.825 57.8644 105.928 58.2059 106.135C58.5561 106.342 58.7311 106.729 58.7311 107.298C58.7311 107.824 58.5219 108.203 58.1034 108.436C57.6935 108.66 57.1471 108.776 56.4638 108.785H55.2854V105.825H56.656ZM57.1171 109.612C57.7747 109.612 58.2871 109.75 58.6542 110.026C59.0215 110.301 59.205 110.728 59.205 111.305C59.205 112.365 58.4664 112.895 56.989 112.895H55.2854V109.612H57.1171ZM65.5949 111.913C65.2959 112.24 64.9501 112.512 64.5574 112.727C64.1731 112.942 63.8272 113.05 63.5198 113.05C63.1184 113.05 62.8323 112.921 62.6616 112.662C62.4907 112.404 62.4054 112.042 62.4054 111.577V107.479H61.3935V111.719C61.3935 112.391 61.5514 112.93 61.8674 113.335C62.1919 113.731 62.6829 113.929 63.3405 113.929C63.7332 113.929 64.1475 113.826 64.583 113.619C65.0185 113.412 65.3856 113.154 65.6846 112.843L65.8511 113.748H66.6069V107.466H65.5949V111.913ZM73.2842 104.635V113.748H72.6694L72.4772 113.27C72.221 113.477 71.9436 113.636 71.6446 113.748C71.3458 113.86 71.064 113.916 70.7992 113.916C69.8769 113.916 69.1512 113.615 68.6216 113.011C68.1008 112.4 67.8403 111.59 67.8403 110.581C67.8403 109.944 67.9599 109.379 68.1989 108.888C68.4466 108.388 68.7925 108 69.2365 107.725C69.6891 107.449 70.2186 107.311 70.8248 107.311C71.0469 107.311 71.2817 107.354 71.5293 107.44C71.7855 107.527 72.0289 107.643 72.2595 107.789V104.752L73.2842 104.635ZM70.7864 113.05C71.0938 113.05 71.3628 113.003 71.5934 112.908C71.8325 112.805 72.0545 112.649 72.2595 112.443V108.733C71.8496 108.362 71.3628 108.177 70.7992 108.177C70.1844 108.177 69.7104 108.401 69.3774 108.849C69.0443 109.289 68.8736 109.862 68.865 110.568C68.865 111.318 69.0273 111.921 69.3518 112.378C69.6848 112.826 70.1631 113.05 70.7864 113.05ZM80.0767 107.479V114.433C80.0767 114.873 79.9656 115.265 79.7437 115.61C79.5215 115.954 79.1971 116.226 78.7702 116.424C78.3431 116.622 77.8435 116.721 77.2715 116.721C76.9811 116.721 76.6096 116.665 76.1571 116.553C75.713 116.45 75.3629 116.316 75.1067 116.152L75.4141 115.403C75.7472 115.566 76.0418 115.687 76.298 115.765C76.5626 115.842 76.8744 115.881 77.233 115.881C77.771 115.881 78.2065 115.756 78.5396 115.506C78.8811 115.256 79.052 114.894 79.052 114.42V113.425C78.8214 113.58 78.5737 113.701 78.309 113.787C78.0528 113.873 77.8137 113.916 77.5917 113.916C76.6694 113.916 75.9435 113.615 75.4141 113.011C74.8932 112.4 74.6328 111.59 74.6328 110.581C74.6328 109.944 74.7523 109.379 74.9914 108.888C75.239 108.388 75.5849 108 76.029 107.725C76.4815 107.449 77.0109 107.311 77.6173 107.311C77.8735 107.311 78.1467 107.367 78.4371 107.479C78.7274 107.591 78.9964 107.742 79.2441 107.931L79.4619 107.479H80.0767ZM77.5789 113.05C77.8863 113.05 78.1553 113.003 78.3859 112.908C78.6249 112.805 78.847 112.649 79.052 112.443V108.733C78.6421 108.362 78.1553 108.177 77.5917 108.177C76.9769 108.177 76.5029 108.401 76.1699 108.849C75.8368 109.289 75.666 109.862 75.6575 110.568C75.6575 111.318 75.8197 111.921 76.1443 112.378C76.4773 112.826 76.9555 113.05 77.5789 113.05ZM86.9216 110.775C86.9216 109.741 86.7038 108.905 86.2683 108.268C85.8413 107.63 85.1752 107.311 84.2701 107.311C83.6723 107.311 83.1513 107.453 82.7073 107.738C82.2718 108.013 81.9388 108.401 81.7082 108.901C81.4861 109.392 81.3752 109.957 81.3752 110.594C81.3752 111.602 81.6526 112.408 82.2078 113.011C82.7628 113.615 83.5698 113.916 84.6287 113.916C85.0557 113.916 85.4442 113.86 85.7944 113.748C86.1445 113.628 86.4945 113.468 86.8447 113.27L86.5245 112.52C86.1402 112.71 85.8072 112.848 85.5254 112.934C85.252 113.02 84.949 113.063 84.6159 113.063C83.8814 113.063 83.335 112.861 82.9763 112.456C82.6261 112.042 82.4383 111.482 82.4127 110.775H86.9216ZM82.4384 110.077C82.498 109.491 82.6774 109.03 82.9763 108.694C83.2838 108.349 83.7021 108.177 84.2317 108.177C85.2136 108.177 85.7772 108.81 85.9225 110.077H82.4384ZM89.4709 107.582V105.695L88.459 105.98V107.582H87.5495L87.5623 108.358H88.459V112.119C88.459 112.705 88.6127 113.158 88.9201 113.477C89.2361 113.787 89.663 113.942 90.201 113.942C90.5255 113.942 90.8415 113.869 91.1489 113.722L90.9184 112.921C90.7048 113.007 90.517 113.05 90.3547 113.05C90.0559 113.05 89.8338 112.955 89.6887 112.766C89.5435 112.576 89.4709 112.313 89.4709 111.977V108.358H90.9312L90.5981 107.582H89.4709ZM92.754 106.225C92.942 106.225 93.1041 106.161 93.2408 106.031C93.3775 105.893 93.4457 105.73 93.4457 105.54C93.4457 105.351 93.3775 105.187 93.2408 105.049C93.1041 104.911 92.942 104.842 92.754 104.842C92.5577 104.842 92.3954 104.911 92.2673 105.049C92.1392 105.178 92.0752 105.342 92.0752 105.54C92.0752 105.738 92.1392 105.902 92.2673 106.031C92.3954 106.161 92.5577 106.225 92.754 106.225ZM93.2792 113.748V107.479H92.2545V113.748H93.2792ZM95.8933 109.302C96.1922 108.974 96.5338 108.703 96.9181 108.487C97.3109 108.272 97.661 108.164 97.9684 108.164C98.3698 108.164 98.6559 108.293 98.8267 108.552C98.9974 108.81 99.0828 109.172 99.0828 109.638V113.735H100.095V109.496C100.095 108.823 99.9325 108.289 99.608 107.893C99.292 107.488 98.8053 107.285 98.1478 107.285C97.7549 107.285 97.3408 107.389 96.9053 107.595C96.4698 107.802 96.1025 108.061 95.8037 108.371L95.6372 107.479H94.8814V113.748H95.8933V109.302ZM106.721 107.479V114.433C106.721 114.873 106.61 115.265 106.388 115.61C106.166 115.954 105.841 116.226 105.414 116.424C104.987 116.622 104.488 116.721 103.916 116.721C103.625 116.721 103.254 116.665 102.801 116.553C102.357 116.45 102.007 116.316 101.751 116.152L102.058 115.403C102.391 115.566 102.686 115.687 102.942 115.765C103.207 115.842 103.519 115.881 103.877 115.881C104.415 115.881 104.851 115.756 105.184 115.506C105.525 115.256 105.696 114.894 105.696 114.42V113.425C105.466 113.58 105.218 113.701 104.953 113.787C104.697 113.873 104.458 113.916 104.236 113.916C103.314 113.916 102.588 113.615 102.058 113.011C101.537 112.4 101.277 111.59 101.277 110.581C101.277 109.944 101.397 109.379 101.636 108.888C101.883 108.388 102.229 108 102.673 107.725C103.126 107.449 103.655 107.311 104.262 107.311C104.518 107.311 104.791 107.367 105.081 107.479C105.372 107.591 105.641 107.742 105.888 107.931L106.106 107.479H106.721ZM104.223 113.05C104.531 113.05 104.8 113.003 105.03 112.908C105.269 112.805 105.491 112.649 105.696 112.443V108.733C105.286 108.362 104.8 108.177 104.236 108.177C103.621 108.177 103.147 108.401 102.814 108.849C102.481 109.289 102.31 109.862 102.302 110.568C102.302 111.318 102.464 111.921 102.789 112.378C103.122 112.826 103.6 113.05 104.223 113.05Z" fill="white"/>
<path d="M12.9522 180.963C13.7806 180.963 14.4851 180.769 15.0657 180.381C15.6549 179.994 16.099 179.467 16.3979 178.804C16.6968 178.132 16.8462 177.37 16.8462 176.516C16.8462 175.224 16.5303 174.177 15.8983 173.375C15.2664 172.574 14.31 172.173 13.029 172.173H9.98047V180.963H12.9522ZM13.0803 173.039C13.9855 173.039 14.6686 173.359 15.1298 173.996C15.5995 174.633 15.8343 175.479 15.8343 176.529C15.8343 177.262 15.7148 177.9 15.4756 178.442C15.2366 178.976 14.8992 179.39 14.4637 179.683C14.0367 179.968 13.5372 180.11 12.965 180.11H10.9924V173.039H13.0803ZM23.352 177.99C23.352 176.956 23.1343 176.12 22.6988 175.482C22.2718 174.845 21.6057 174.526 20.7005 174.526C20.1027 174.526 19.5819 174.668 19.1378 174.952C18.7023 175.228 18.3692 175.616 18.1387 176.116C17.9167 176.607 17.8056 177.172 17.8056 177.809C17.8056 178.817 18.0832 179.623 18.6382 180.226C19.1932 180.83 20.0002 181.131 21.0592 181.131C21.4861 181.131 21.8747 181.075 22.2248 180.963C22.5749 180.843 22.9251 180.682 23.2752 180.485L22.9549 179.735C22.5707 179.925 22.2376 180.062 21.9558 180.149C21.6826 180.235 21.3794 180.278 21.0464 180.278C20.312 180.278 19.7654 180.075 19.4068 179.67C19.0567 179.257 18.8688 178.697 18.8432 177.99H23.352ZM18.8688 177.292C18.9286 176.706 19.1079 176.245 19.4068 175.909C19.7142 175.564 20.1327 175.392 20.6621 175.392C21.6442 175.392 22.2078 176.025 22.3529 177.292H18.8688ZM27.1695 174.526C28.0917 174.526 28.8134 174.832 29.3342 175.444C29.8638 176.047 30.1284 176.849 30.1284 177.848C30.1284 178.485 30.0047 179.054 29.7569 179.554C29.5179 180.045 29.1721 180.433 28.7194 180.717C28.2754 180.993 27.7502 181.131 27.1438 181.131C26.8877 181.131 26.6144 181.075 26.324 180.963C26.0422 180.86 25.7776 180.708 25.5299 180.511L25.3121 180.963H24.7101V171.967L25.722 171.837V175.004C25.9526 174.849 26.1959 174.733 26.4521 174.655C26.7083 174.569 26.9475 174.526 27.1695 174.526ZM27.1695 180.265C27.7843 180.265 28.2582 180.041 28.5913 179.593C28.9243 179.144 29.0952 178.568 29.1037 177.861C29.1037 177.12 28.9371 176.526 28.6041 176.077C28.2796 175.621 27.8057 175.392 27.1823 175.392C26.8748 175.392 26.6058 175.44 26.3753 175.534C26.1447 175.628 25.927 175.776 25.722 175.974V179.709C25.927 179.89 26.1447 180.028 26.3753 180.123C26.6058 180.217 26.8706 180.265 27.1695 180.265ZM32.6813 174.797V172.91L31.6694 173.195V174.797H30.7599L30.7727 175.573H31.6694V179.334C31.6694 179.92 31.8231 180.372 32.1305 180.692C32.4465 181.002 32.8734 181.157 33.4114 181.157C33.7359 181.157 34.0519 181.083 34.3593 180.937L34.1287 180.136C33.9152 180.222 33.7274 180.265 33.5651 180.265C33.2663 180.265 33.0442 180.171 32.899 179.981C32.7539 179.791 32.6813 179.528 32.6813 179.192V175.573H34.1415L33.8085 174.797H32.6813ZM42.7713 178.003L45.205 174.345V180.963H46.2298V172.173H45.5893L42.5663 176.659L39.4409 172.173H38.8388V180.963H39.8508V174.319L42.4254 178.068L42.7713 178.003ZM48.7494 175.844C49.0568 175.706 49.3386 175.603 49.5948 175.534C49.8594 175.457 50.1754 175.418 50.5427 175.418C51.0123 175.418 51.3539 175.551 51.5674 175.818C51.7894 176.086 51.9005 176.452 51.9005 176.917V177.266H50.2993C49.6246 177.266 49.0824 177.434 48.6725 177.77C48.2626 178.106 48.0577 178.576 48.0577 179.179C48.0577 179.757 48.237 180.226 48.5957 180.588C48.9628 180.95 49.4923 181.131 50.184 181.131C50.5085 181.131 50.8415 181.053 51.1831 180.898C51.5246 180.734 51.8108 180.545 52.0414 180.33L52.1695 180.963H52.9252V176.633C52.9252 176.228 52.8227 175.866 52.6178 175.547C52.4128 175.228 52.1267 174.978 51.7596 174.797C51.3923 174.616 50.9738 174.526 50.5042 174.526C50.2224 174.526 49.8638 174.578 49.4283 174.681C49.0012 174.784 48.6767 174.914 48.4548 175.069L48.7494 175.844ZM48.9928 179.179C48.9928 178.834 49.1037 178.546 49.3258 178.313C49.5564 178.071 49.8722 177.951 50.2737 177.951H51.9133V179.373C51.6827 179.648 51.4137 179.873 51.1063 180.045C50.8073 180.217 50.4914 180.304 50.1584 180.304C49.7741 180.304 49.4837 180.191 49.2874 179.968C49.0909 179.744 48.9928 179.48 48.9928 179.179ZM55.4906 176.516C55.7895 176.189 56.1311 175.918 56.5154 175.702C56.9082 175.486 57.2583 175.379 57.5657 175.379C57.9671 175.379 58.2532 175.508 58.424 175.767C58.5947 176.025 58.6802 176.387 58.6802 176.853V180.95H59.6921V176.71C59.6921 176.038 59.5298 175.504 59.2053 175.108C58.8893 174.703 58.4026 174.5 57.7451 174.5C57.3522 174.5 56.9381 174.603 56.5026 174.81C56.0671 175.017 55.6998 175.276 55.401 175.586L55.2345 174.694H54.4787V180.963H55.4906V176.516ZM61.7838 175.844C62.0913 175.706 62.3731 175.603 62.6293 175.534C62.8939 175.457 63.2099 175.418 63.5771 175.418C64.0467 175.418 64.3884 175.551 64.6019 175.818C64.8239 176.086 64.9349 176.452 64.9349 176.917V177.266H63.3338C62.6591 177.266 62.1169 177.434 61.707 177.77C61.2971 178.106 61.0921 178.576 61.0921 179.179C61.0921 179.757 61.2715 180.226 61.6301 180.588C61.9972 180.95 62.5268 181.131 63.2185 181.131C63.5429 181.131 63.876 181.053 64.2176 180.898C64.5591 180.734 64.8453 180.545 65.0758 180.33L65.2039 180.963H65.9597V176.633C65.9597 176.228 65.8572 175.866 65.6522 175.547C65.4473 175.228 65.1611 174.978 64.794 174.797C64.4268 174.616 64.0083 174.526 63.5387 174.526C63.2569 174.526 62.8983 174.578 62.4627 174.681C62.0357 174.784 61.7112 174.914 61.4892 175.069L61.7838 175.844ZM62.0272 179.179C62.0272 178.834 62.1381 178.546 62.3603 178.313C62.5908 178.071 62.9067 177.951 63.3081 177.951H64.9477V179.373C64.7172 179.648 64.4482 179.873 64.1407 180.045C63.8418 180.217 63.5259 180.304 63.1929 180.304C62.8086 180.304 62.5182 180.191 62.3218 179.968C62.1253 179.744 62.0272 179.48 62.0272 179.179ZM72.5728 174.694V181.648C72.5728 182.088 72.4618 182.479 72.2398 182.824C72.0177 183.169 71.6932 183.441 71.2663 183.639C70.8392 183.836 70.3397 183.936 69.7676 183.936C69.4772 183.936 69.1058 183.88 68.6532 183.768C68.2091 183.664 67.859 183.531 67.6028 183.367L67.9103 182.617C68.2433 182.782 68.5379 182.902 68.7941 182.979C69.0587 183.057 69.3705 183.096 69.7292 183.096C70.2672 183.096 70.7027 182.97 71.0357 182.721C71.3772 182.471 71.5481 182.11 71.5481 181.635V180.64C71.3175 180.795 71.0698 180.915 70.8052 181.002C70.549 181.088 70.3098 181.131 70.0878 181.131C69.1656 181.131 68.4397 180.83 67.9103 180.226C67.3893 179.615 67.1289 178.804 67.1289 177.796C67.1289 177.159 67.2484 176.594 67.4876 176.103C67.7352 175.603 68.081 175.215 68.5251 174.939C68.9777 174.664 69.5071 174.526 70.1135 174.526C70.3696 174.526 70.6429 174.581 70.9333 174.694C71.2235 174.806 71.4925 174.956 71.7402 175.146L71.958 174.694H72.5728ZM70.075 180.265C70.3825 180.265 70.6515 180.217 70.882 180.123C71.121 180.019 71.3432 179.864 71.5481 179.657V175.948C71.1382 175.577 70.6515 175.392 70.0878 175.392C69.473 175.392 68.9991 175.616 68.666 176.064C68.333 176.504 68.1621 177.076 68.1536 177.783C68.1536 178.533 68.3158 179.137 68.6404 179.593C68.9734 180.041 69.4516 180.265 70.075 180.265ZM79.4176 177.99C79.4176 176.956 79.1998 176.12 78.7643 175.482C78.3374 174.845 77.6713 174.526 76.7661 174.526C76.1684 174.526 75.6475 174.668 75.2034 174.952C74.7678 175.228 74.4348 175.616 74.2042 176.116C73.9822 176.607 73.8712 177.172 73.8712 177.809C73.8712 178.817 74.1488 179.623 74.7038 180.226C75.2589 180.83 76.0659 181.131 77.1247 181.131C77.5518 181.131 77.9403 181.075 78.2904 180.963C78.6406 180.843 78.9907 180.682 79.3408 180.485L79.0205 179.735C78.6362 179.925 78.3032 180.062 78.0214 180.149C77.7482 180.235 77.445 180.278 77.1119 180.278C76.3776 180.278 75.831 180.075 75.4724 179.67C75.1223 179.257 74.9344 178.697 74.9087 177.99H79.4176ZM74.9344 177.292C74.9942 176.706 75.1735 176.245 75.4724 175.909C75.7798 175.564 76.1982 175.392 76.7277 175.392C77.7097 175.392 78.2734 176.025 78.4185 177.292H74.9344ZM87.7056 174.5C88.3375 174.5 88.8072 174.703 89.1146 175.108C89.422 175.504 89.5757 176.038 89.5757 176.71V180.95H88.5638V176.853C88.5638 176.387 88.487 176.025 88.3332 175.767C88.1795 175.508 87.9148 175.379 87.5391 175.379C87.2743 175.379 86.9669 175.479 86.6168 175.676C86.2752 175.866 85.9549 176.112 85.6561 176.413C85.6646 176.474 85.6689 176.572 85.6689 176.71V180.95H84.657V176.853C84.657 176.387 84.5801 176.025 84.4264 175.767C84.2727 175.508 84.0079 175.379 83.6322 175.379C83.3589 175.379 83.0344 175.486 82.6587 175.702C82.2915 175.918 81.9585 176.189 81.6596 176.516V180.963H80.6477V174.694H81.4034L81.5699 175.586C81.8688 175.276 82.2232 175.017 82.6331 174.81C83.0515 174.603 83.4443 174.5 83.8116 174.5C84.2299 174.5 84.5758 174.594 84.8491 174.784C85.1309 174.974 85.3401 175.241 85.4768 175.586C85.7756 175.276 86.1301 175.017 86.5399 174.81C86.9498 174.603 87.3383 174.5 87.7056 174.5ZM96.2924 177.99C96.2924 176.956 96.0747 176.12 95.6391 175.482C95.2121 174.845 94.546 174.526 93.6409 174.526C93.0431 174.526 92.5221 174.668 92.0782 174.952C91.6426 175.228 91.3096 175.616 91.079 176.116C90.8569 176.607 90.746 177.172 90.746 177.809C90.746 178.817 91.0235 179.623 91.5786 180.226C92.1336 180.83 92.9406 181.131 93.9996 181.131C94.4265 181.131 94.815 181.075 95.1652 180.963C95.5153 180.843 95.8654 180.682 96.2156 180.485L95.8953 179.735C95.5111 179.925 95.178 180.062 94.8962 180.149C94.6229 180.235 94.3198 180.278 93.9868 180.278C93.2523 180.278 92.7058 180.075 92.3472 179.67C91.997 179.257 91.8092 178.697 91.7836 177.99H96.2924ZM91.8092 177.292C91.8689 176.706 92.0482 176.245 92.3472 175.909C92.6546 175.564 93.0729 175.392 93.6025 175.392C94.5844 175.392 95.148 176.025 95.2933 177.292H91.8092ZM98.5343 176.516C98.8331 176.189 99.1748 175.918 99.559 175.702C99.9519 175.486 100.302 175.379 100.609 175.379C101.011 175.379 101.297 175.508 101.468 175.767C101.638 176.025 101.724 176.387 101.724 176.853V180.95H102.736V176.71C102.736 176.038 102.573 175.504 102.249 175.108C101.933 174.703 101.446 174.5 100.789 174.5C100.396 174.5 99.9817 174.603 99.5462 174.81C99.1107 175.017 98.7435 175.276 98.4446 175.586L98.2781 174.694H97.5224V180.963H98.5343V176.516ZM105.622 174.797V172.91L104.61 173.195V174.797H103.7L103.713 175.573H104.61V179.334C104.61 179.92 104.763 180.372 105.071 180.692C105.387 181.002 105.814 181.157 106.352 181.157C106.676 181.157 106.992 181.083 107.3 180.937L107.069 180.136C106.856 180.222 106.668 180.265 106.506 180.265C106.207 180.265 105.985 180.171 105.839 179.981C105.694 179.791 105.622 179.528 105.622 179.192V175.573H107.082L106.749 174.797H105.622Z" fill="white"/>
<path d="M30.8231 248.281C29.414 248.281 28.2868 247.897 27.4414 247.131L27.8513 246.316C28.2954 246.695 28.748 246.967 29.2091 247.131C29.6788 247.295 30.221 247.376 30.8359 247.376C31.5618 247.376 32.1211 247.234 32.5139 246.95C32.9067 246.665 33.1031 246.265 33.1031 245.748C33.1031 245.447 33.0092 245.201 32.8213 245.011C32.6335 244.821 32.3858 244.671 32.0784 244.559C31.7709 244.446 31.3568 244.33 30.8359 244.21C30.1357 244.045 29.5593 243.873 29.1066 243.692C28.6626 243.512 28.2996 243.253 28.0178 242.917C27.7446 242.581 27.6079 242.141 27.6079 241.599C27.6079 241.081 27.7404 240.625 28.005 240.228C28.2784 239.824 28.6626 239.514 29.1578 239.298C29.6618 239.074 30.2424 238.962 30.8999 238.962C31.5233 238.962 32.104 239.061 32.642 239.259C33.1885 239.457 33.6497 239.741 34.0254 240.112L33.6283 240.926C33.2014 240.555 32.7658 240.289 32.3217 240.125C31.8862 239.953 31.4123 239.866 30.8999 239.866C30.1998 239.866 29.649 240.018 29.2475 240.319C28.8548 240.612 28.6583 241.026 28.6583 241.56C28.6583 242.016 28.8334 242.361 29.1835 242.594C29.5337 242.826 30.0631 243.024 30.7718 243.188C31.549 243.378 32.1596 243.554 32.6035 243.718C33.0476 243.873 33.4149 244.11 33.7051 244.429C34.0041 244.749 34.1535 245.175 34.1535 245.709C34.1535 246.226 34.0169 246.678 33.7436 247.066C33.4789 247.454 33.0947 247.755 32.5907 247.971C32.0869 248.178 31.4977 248.281 30.8231 248.281ZM38.2421 241.728C39.0362 241.728 39.6255 241.935 40.0097 242.348C40.4026 242.753 40.599 243.373 40.599 244.21V248.178H39.587V247.105C39.4247 247.476 39.1771 247.764 38.8441 247.971C38.5111 248.169 38.1268 248.268 37.6913 248.268C37.2899 248.268 36.9185 248.187 36.5769 248.023C36.2438 247.859 35.979 247.631 35.7827 247.338C35.5863 247.044 35.4881 246.721 35.4881 246.368C35.4881 245.894 35.6076 245.528 35.8467 245.269C36.0859 245.002 36.4786 244.813 37.0252 244.701C37.5718 244.581 38.3317 244.52 39.3052 244.52H39.587V244.093C39.587 243.567 39.4803 243.188 39.2668 242.956C39.0533 242.714 38.7074 242.594 38.2293 242.594C37.5119 242.594 36.7988 242.817 36.0901 243.266L35.7443 242.503C36.0687 242.271 36.4573 242.086 36.9099 241.947C37.371 241.801 37.8151 241.728 38.2421 241.728ZM37.8322 247.441C38.3445 247.441 38.763 247.269 39.0875 246.924C39.4205 246.571 39.587 246.119 39.587 245.567V245.192H39.3565C38.6049 245.192 38.0329 245.227 37.64 245.295C37.2472 245.356 36.9654 245.463 36.7946 245.618C36.6323 245.765 36.5512 245.984 36.5512 246.278C36.5512 246.614 36.6707 246.894 36.9099 247.118C37.1575 247.334 37.4649 247.441 37.8322 247.441ZM46.9686 241.896H48.0062L45.3162 248.178H44.3427L41.6656 241.896H42.7672L44.8551 247.04L46.9686 241.896ZM49.0781 248.178V241.883H50.1156V248.178H49.0781ZM48.9756 239.156H50.2309V240.332H48.9756V239.156ZM55.1935 241.728C56.6878 241.728 57.4351 242.559 57.4351 244.222V248.178H56.3976V244.287C56.3976 243.702 56.2823 243.275 56.0517 243.007C55.8296 242.74 55.4709 242.607 54.9757 242.607C54.4035 242.607 53.9466 242.784 53.6051 243.137C53.2635 243.49 53.0928 243.968 53.0928 244.571V248.178H52.0552V241.883H53.0799V242.917C53.2849 242.529 53.5709 242.236 53.9382 242.038C54.3053 241.831 54.7238 241.728 55.1935 241.728ZM64.9203 241.883V247.751C64.9203 248.691 64.6812 249.397 64.203 249.871C63.7247 250.353 63.016 250.595 62.0767 250.595C60.9835 250.595 60.0656 250.311 59.3227 249.742L59.6685 248.966C60.0869 249.242 60.4797 249.441 60.847 249.561C61.2141 249.681 61.624 249.742 62.0767 249.742C62.6744 249.742 63.127 249.578 63.4345 249.251C63.7419 248.931 63.8956 248.462 63.8956 247.842V246.73C63.7163 247.135 63.4387 247.445 63.063 247.661C62.6957 247.877 62.2602 247.984 61.7564 247.984C61.2099 247.984 60.7231 247.855 60.2962 247.596C59.8777 247.338 59.5489 246.972 59.3099 246.497C59.0793 246.023 58.964 245.476 58.964 244.856C58.964 244.235 59.0793 243.689 59.3099 243.214C59.5489 242.74 59.8777 242.374 60.2962 242.116C60.7231 241.857 61.2099 241.728 61.7564 241.728C62.2516 241.728 62.6829 241.835 63.0502 242.051C63.4173 242.267 63.6949 242.572 63.8828 242.969V241.883H64.9203ZM61.9614 247.118C62.5591 247.118 63.0288 246.92 63.3704 246.523C63.7119 246.119 63.8828 245.563 63.8828 244.856C63.8828 244.158 63.7119 243.611 63.3704 243.214C63.0374 242.81 62.5676 242.607 61.9614 242.607C61.355 242.607 60.8768 242.81 60.5267 243.214C60.1851 243.611 60.0144 244.158 60.0144 244.856C60.0144 245.563 60.1851 246.119 60.5267 246.523C60.8768 246.92 61.355 247.118 61.9614 247.118ZM77.9698 239.065H78.828V248.178H77.8673L77.8801 241.12L74.9468 246.73H74.2038L71.2577 241.172L71.2705 248.178H70.297V239.065H71.1681L74.5881 245.67L77.9698 239.065ZM83.5011 248.268C82.9119 248.268 82.3909 248.135 81.9384 247.868C81.4943 247.6 81.1484 247.221 80.9008 246.73C80.6617 246.23 80.5421 245.653 80.5421 244.998C80.5421 244.343 80.6617 243.77 80.9008 243.279C81.1484 242.779 81.4943 242.396 81.9384 242.128C82.3909 241.861 82.9119 241.728 83.5011 241.728C84.0903 241.728 84.6111 241.861 85.0638 242.128C85.5164 242.396 85.8622 242.779 86.1014 243.279C86.349 243.77 86.4728 244.343 86.4728 244.998C86.4728 245.653 86.349 246.23 86.1014 246.73C85.8622 247.221 85.5164 247.6 85.0638 247.868C84.6111 248.135 84.0903 248.268 83.5011 248.268ZM83.5011 247.402C84.1159 247.402 84.5855 247.199 84.9101 246.795C85.2431 246.381 85.4097 245.783 85.4097 244.998C85.4097 244.231 85.2431 243.641 84.9101 243.227C84.5771 242.804 84.1073 242.594 83.5011 242.594C82.8947 242.594 82.4251 242.804 82.0921 243.227C81.759 243.641 81.5925 244.231 81.5925 244.998C81.5925 245.774 81.7547 246.368 82.0793 246.782C82.4123 247.195 82.8862 247.402 83.5011 247.402ZM91.1569 241.728C92.6514 241.728 93.3986 242.559 93.3986 244.222V248.178H92.361V244.287C92.361 243.702 92.2457 243.275 92.0152 243.007C91.7932 242.74 91.4345 242.607 90.9392 242.607C90.3671 242.607 89.9102 242.784 89.5686 243.137C89.2271 243.49 89.0562 243.968 89.0562 244.571V248.178H88.0187V241.883H89.0434V242.917C89.2484 242.529 89.5345 242.236 89.9016 242.038C90.2689 241.831 90.6873 241.728 91.1569 241.728ZM100.525 245.192H95.965C95.9992 245.925 96.1956 246.481 96.5543 246.859C96.9129 247.23 97.4211 247.415 98.0786 247.415C98.8045 247.415 99.4705 247.166 100.077 246.665L100.423 247.428C100.149 247.687 99.7994 247.893 99.3723 248.049C98.9454 248.195 98.5098 248.268 98.0658 248.268C97.0922 248.268 96.3237 247.98 95.7601 247.402C95.205 246.824 94.9275 246.028 94.9275 245.011C94.9275 244.365 95.0513 243.796 95.2989 243.305C95.5467 242.804 95.8925 242.417 96.3365 242.141C96.7892 241.866 97.3015 241.728 97.8736 241.728C98.702 241.728 99.351 242.003 99.8206 242.555C100.29 243.098 100.525 243.848 100.525 244.804V245.192ZM97.8864 242.542C97.34 242.542 96.9001 242.714 96.5671 243.059C96.2426 243.404 96.0505 243.89 95.9906 244.52H99.6157C99.5986 243.883 99.4407 243.395 99.1417 243.059C98.8429 242.714 98.4244 242.542 97.8864 242.542ZM106.449 241.896H107.487L103.798 250.504H102.735L103.785 248.1L101.146 241.896H102.248L104.336 247.04L106.449 241.896Z" fill="white"/>
<path d="M484.189 301.82H116.562" stroke="#ECF0F4"/>
<path d="M117.203 66.5685V300.528" stroke="#ECF0F4" stroke-linecap="round" stroke-dasharray="4 4"/>
<path d="M373.391 66.5685V300.528" stroke="#ECF0F4" stroke-linecap="round" stroke-dasharray="4 4"/>
<path d="M181.25 66.5685V300.528" stroke="#ECF0F4" stroke-linecap="round" stroke-dasharray="4 4"/>
<path d="M437.438 66.5685V300.528" stroke="#ECF0F4" stroke-linecap="round" stroke-dasharray="4 4"/>
<path d="M245.297 66.5685V300.528" stroke="#ECF0F4" stroke-linecap="round" stroke-dasharray="4 4"/>
<path d="M309.344 66.5685V300.528" stroke="#ECF0F4" stroke-linecap="round" stroke-dasharray="4 4"/>
<path d="M376.156 321.229H374.69V315.029H373.916L369.195 321.229L369.35 322.153H373.577V324.129H374.69V322.153H376.029L376.156 321.229ZM373.577 316.991V321.229H370.393L373.577 316.991Z" fill="white"/>
<path d="M181.799 323.148V315.1H181.053L178.559 316.266L179.052 317.176L180.672 316.409V323.148H181.799Z" fill="white"/>
<path d="M244.37 314.916C243.826 314.916 243.351 314.987 242.947 315.129C242.553 315.262 242.177 315.437 241.82 315.655L242.144 316.565C242.547 316.337 242.905 316.162 243.215 316.039C243.525 315.906 243.905 315.84 244.356 315.84C244.939 315.84 245.394 315.968 245.723 316.224C246.061 316.471 246.23 316.835 246.23 317.319C246.23 317.717 246.108 318.091 245.864 318.442C245.619 318.792 245.207 319.219 244.624 319.721L241.637 322.338V323.148H247.752L247.569 322.267H243.116L245.216 320.489C245.976 319.844 246.517 319.272 246.836 318.769C247.155 318.266 247.315 317.745 247.315 317.205C247.315 316.503 247.047 315.948 246.512 315.541C245.985 315.124 245.272 314.916 244.37 314.916Z" fill="white"/>
<path d="M308.429 314.916C307.47 314.916 306.535 315.209 305.625 315.797L306.174 316.537C306.456 316.337 306.785 316.172 307.16 316.039C307.536 315.897 307.944 315.826 308.386 315.826C308.922 315.826 309.349 315.968 309.668 316.252C309.998 316.537 310.162 316.878 310.162 317.276C310.162 317.779 309.95 318.181 309.528 318.484C309.105 318.778 308.532 318.925 307.809 318.925H307.217L307.386 319.764H307.724C308.617 319.764 309.274 319.926 309.697 320.248C310.119 320.569 310.331 321.024 310.331 321.613C310.331 321.954 310.232 322.258 310.035 322.523C309.838 322.778 309.579 322.978 309.26 323.12C308.95 323.253 308.617 323.319 308.259 323.319C307.8 323.319 307.4 323.267 307.062 323.162C306.733 323.058 306.385 322.892 306.019 322.665L305.441 323.461C305.845 323.679 306.287 323.859 306.766 324.001C307.254 324.153 307.738 324.229 308.217 324.229C308.856 324.229 309.42 324.11 309.908 323.873C310.396 323.646 310.773 323.333 311.035 322.935C311.308 322.528 311.444 322.077 311.444 321.584C311.444 321.015 311.284 320.527 310.965 320.12C310.655 319.702 310.26 319.437 309.781 319.323C310.204 319.172 310.556 318.911 310.838 318.541C311.129 318.163 311.275 317.736 311.275 317.262C311.275 316.844 311.167 316.456 310.951 316.096C310.734 315.735 310.41 315.451 309.978 315.243C309.556 315.024 309.04 314.916 308.429 314.916Z" fill="white"/>
<path d="M436.611 319.963C436.78 319.793 437.002 319.636 437.273 319.494C437.555 319.343 437.861 319.266 438.189 319.266C438.735 319.266 439.171 319.442 439.499 319.793C439.829 320.143 439.993 320.626 439.993 321.243C439.993 321.868 439.795 322.371 439.401 322.75C439.016 323.12 438.499 323.305 437.851 323.305C437.4 323.305 437.005 323.253 436.667 323.148C436.339 323.043 435.987 322.883 435.61 322.665L435.047 323.461C435.452 323.679 435.892 323.859 436.371 324.001C436.85 324.153 437.326 324.229 437.794 324.229C438.49 324.229 439.087 324.096 439.584 323.831C440.082 323.566 440.458 323.205 440.711 322.75C440.975 322.295 441.106 321.792 441.106 321.243C441.097 320.399 440.843 319.707 440.345 319.167C439.848 318.627 439.105 318.356 438.119 318.356C437.884 318.356 437.636 318.399 437.372 318.484C437.118 318.561 436.879 318.669 436.653 318.811L436.78 316.025H440.443L440.57 315.1H435.765L435.54 319.963H436.611Z" fill="white"/>
<path d="M353.311 100.822C355.434 100.822 357.154 102.558 357.154 104.7V115.041C357.154 117.182 355.434 118.919 353.311 118.919H120.405C118.283 118.919 116.562 117.182 116.562 115.041V104.7C116.562 102.558 118.283 100.822 120.405 100.822H353.311Z" fill="#FC3366"/>
<path d="M371.133 168.037C373.255 168.037 374.975 169.773 374.975 171.915V182.256C374.975 184.397 373.255 186.133 371.133 186.133H120.405C118.283 186.133 116.562 184.397 116.562 182.256V171.915C116.562 169.773 118.283 168.037 120.405 168.037H371.133Z" fill="#EE9D30"/>
<path d="M335.494 235.252C337.616 235.252 339.336 236.988 339.336 239.13V249.47C339.336 251.612 337.616 253.348 335.494 253.348H120.409C118.287 253.348 116.566 251.612 116.566 249.47V239.13C116.566 236.988 118.287 235.252 120.409 235.252H335.494Z" fill="#38C976"/>
<path d="M327.71 105.516C327.175 105.516 326.663 105.601 326.175 105.772C325.685 105.942 325.197 106.189 324.709 106.511L325.569 107.748C326.273 107.255 326.973 107.009 327.668 107.009C328.063 107.009 328.382 107.108 328.626 107.307C328.87 107.497 328.993 107.734 328.993 108.018C328.993 108.369 328.823 108.653 328.485 108.871C328.147 109.08 327.696 109.184 327.133 109.184H326.203L326.456 110.62H327.048C327.762 110.62 328.292 110.748 328.64 111.004C328.987 111.25 329.162 111.596 329.162 112.042C329.162 112.431 329.001 112.743 328.683 112.98C328.362 113.217 327.982 113.336 327.541 113.336C327.128 113.336 326.756 113.288 326.428 113.194C326.099 113.089 325.747 112.923 325.371 112.696L324.441 113.933C324.92 114.189 325.432 114.402 325.977 114.573C326.522 114.743 327.034 114.829 327.513 114.829C328.17 114.829 328.753 114.706 329.26 114.459C329.768 114.213 330.157 113.876 330.43 113.45C330.701 113.023 330.838 112.549 330.838 112.028C330.838 111.658 330.768 111.317 330.627 111.004C330.486 110.691 330.312 110.435 330.106 110.236C329.908 110.037 329.715 109.914 329.528 109.866C329.819 109.734 330.081 109.492 330.317 109.141C330.551 108.781 330.669 108.397 330.669 107.99C330.669 107.535 330.557 107.122 330.331 106.753C330.106 106.373 329.768 106.075 329.317 105.857C328.875 105.629 328.339 105.516 327.71 105.516ZM332.732 113.748C333.022 113.748 333.262 113.649 333.45 113.45C333.647 113.25 333.746 113.004 333.746 112.71C333.746 112.416 333.647 112.17 333.45 111.971C333.262 111.772 333.022 111.672 332.732 111.672C332.44 111.672 332.191 111.772 331.985 111.971C331.788 112.17 331.689 112.416 331.689 112.71C331.689 113.004 331.788 113.25 331.985 113.45C332.191 113.649 332.44 113.748 332.732 113.748ZM337.804 114.729L340.566 106.44L340.03 105.7H334.31L334.535 107.193H338.551L336.099 114.232L337.804 114.729ZM345.182 103.653L340.983 113.748L342.885 113.805L347.098 103.71L345.182 103.653ZM349.819 110.819C349.895 110.648 350.041 110.497 350.256 110.364C350.472 110.222 350.731 110.151 351.031 110.151C351.445 110.151 351.783 110.288 352.045 110.563C352.309 110.838 352.44 111.203 352.44 111.658C352.44 112.151 352.271 112.544 351.933 112.838C351.605 113.132 351.186 113.279 350.679 113.279C350.275 113.279 349.909 113.231 349.58 113.137C349.252 113.032 348.889 112.871 348.495 112.653L347.593 113.947C348.054 114.203 348.551 114.412 349.086 114.573C349.632 114.743 350.148 114.829 350.636 114.829C351.341 114.829 351.952 114.696 352.468 114.431C352.995 114.165 353.398 113.791 353.68 113.307C353.962 112.824 354.103 112.274 354.103 111.658C354.094 111.108 353.972 110.611 353.736 110.165C353.502 109.71 353.15 109.35 352.679 109.084C352.211 108.809 351.637 108.672 350.96 108.672C350.538 108.672 350.191 108.743 349.918 108.885L350.002 107.193H353.412L353.609 105.7H348.452L348.199 110.819H349.819Z" fill="white"/>
<path d="M356.163 178.603H354.684V172.844H353.317L348.695 178.603L348.935 180.124H352.838V181.944H354.684V180.124H355.98L356.163 178.603ZM352.838 175.802V178.603H350.668L352.838 175.802ZM360.78 170.868L356.581 180.963L358.483 181.02L362.696 170.925L360.78 170.868ZM365.417 178.034C365.491 177.863 365.637 177.712 365.853 177.579C366.069 177.437 366.327 177.366 366.628 177.366C367.041 177.366 367.379 177.503 367.643 177.778C367.905 178.053 368.037 178.418 368.037 178.873C368.037 179.365 367.868 179.76 367.53 180.053C367.201 180.346 366.783 180.494 366.276 180.494C365.871 180.494 365.505 180.446 365.177 180.352C364.848 180.247 364.487 180.087 364.092 179.868L363.19 181.162C363.65 181.418 364.148 181.626 364.684 181.788C365.228 181.958 365.744 182.044 366.234 182.044C366.938 182.044 367.548 181.91 368.066 181.645C368.591 181.38 368.995 181.006 369.277 180.522C369.559 180.039 369.7 179.489 369.7 178.873C369.69 178.324 369.568 177.826 369.334 177.38C369.098 176.925 368.746 176.564 368.277 176.299C367.807 176.024 367.234 175.887 366.558 175.887C366.135 175.887 365.787 175.958 365.515 176.1L365.6 174.408H369.01L369.207 172.915H364.05L363.796 178.034H365.417Z" fill="white"/>
<path d="M308.132 239.945C307.597 239.945 307.084 240.031 306.596 240.201C306.108 240.372 305.619 240.619 305.131 240.941L305.99 242.178C306.695 241.685 307.394 241.438 308.09 241.438C308.484 241.438 308.803 241.538 309.048 241.737C309.293 241.927 309.414 242.163 309.414 242.448C309.414 242.798 309.245 243.082 308.907 243.301C308.569 243.509 308.118 243.614 307.555 243.614H306.625L306.878 245.05H307.47C308.183 245.05 308.715 245.178 309.062 245.434C309.409 245.681 309.583 246.026 309.583 246.472C309.583 246.861 309.423 247.173 309.104 247.41C308.785 247.647 308.405 247.765 307.963 247.765C307.549 247.765 307.179 247.718 306.85 247.623C306.521 247.519 306.169 247.353 305.793 247.126L304.863 248.363C305.342 248.619 305.855 248.832 306.399 249.002C306.943 249.173 307.456 249.258 307.935 249.258C308.592 249.258 309.175 249.136 309.682 248.889C310.189 248.642 310.579 248.306 310.852 247.879C311.124 247.453 311.26 246.978 311.26 246.457C311.26 246.088 311.19 245.746 311.049 245.434C310.908 245.121 310.734 244.865 310.528 244.666C310.33 244.467 310.138 244.344 309.95 244.296C310.241 244.163 310.504 243.921 310.739 243.571C310.973 243.21 311.091 242.826 311.091 242.419C311.091 241.964 310.978 241.552 310.753 241.182C310.528 240.804 310.189 240.505 309.738 240.287C309.297 240.059 308.761 239.945 308.132 239.945ZM313.153 248.178C313.444 248.178 313.684 248.078 313.872 247.879C314.069 247.68 314.168 247.433 314.168 247.14C314.168 246.846 314.069 246.6 313.872 246.4C313.684 246.201 313.444 246.102 313.153 246.102C312.863 246.102 312.613 246.201 312.407 246.4C312.209 246.6 312.111 246.846 312.111 247.14C312.111 247.433 312.209 247.68 312.407 247.879C312.613 248.078 312.863 248.178 313.153 248.178ZM318.551 242.462C319.133 242.462 319.659 242.595 320.129 242.86C320.598 243.125 320.965 243.481 321.228 243.926C321.5 244.372 321.637 244.865 321.637 245.405C321.637 245.983 321.505 246.495 321.242 246.941C320.979 247.387 320.617 247.737 320.158 247.993C319.696 248.24 319.175 248.363 318.594 248.363C317.879 248.363 317.245 248.22 316.691 247.936C316.146 247.643 315.719 247.216 315.409 246.656C315.099 246.088 314.944 245.4 314.944 244.595C314.944 243.552 315.23 242.642 315.804 241.865C316.376 241.078 317.086 240.457 317.931 240.002C318.777 239.547 319.612 239.268 320.439 239.163L320.693 240.685C318.946 241.168 317.762 241.87 317.142 242.789C317.593 242.571 318.062 242.462 318.551 242.462ZM318.537 246.841C318.95 246.841 319.298 246.708 319.58 246.443C319.862 246.178 320.003 245.855 320.003 245.476C320.003 245.03 319.862 244.661 319.58 244.367C319.298 244.063 318.941 243.912 318.509 243.912C317.785 243.912 317.165 244.106 316.649 244.495C316.658 245.291 316.832 245.883 317.17 246.273C317.509 246.651 317.963 246.841 318.537 246.841ZM326.334 238.083L322.135 248.178L324.037 248.235L328.25 238.14L326.334 238.083ZM330.971 245.249C331.047 245.078 331.191 244.927 331.408 244.794C331.624 244.652 331.882 244.581 332.183 244.581C332.597 244.581 332.935 244.718 333.197 244.993C333.46 245.268 333.592 245.633 333.592 246.088C333.592 246.58 333.423 246.974 333.085 247.268C332.755 247.561 332.338 247.709 331.831 247.709C331.427 247.709 331.061 247.661 330.732 247.566C330.402 247.462 330.041 247.301 329.647 247.083L328.745 248.377C329.205 248.633 329.703 248.841 330.238 249.002C330.783 249.173 331.3 249.258 331.788 249.258C332.493 249.258 333.104 249.125 333.62 248.86C334.147 248.595 334.55 248.22 334.832 247.737C335.114 247.254 335.255 246.704 335.255 246.088C335.246 245.538 335.123 245.041 334.888 244.595C334.654 244.14 334.302 243.779 333.831 243.514C333.361 243.239 332.789 243.102 332.112 243.102C331.69 243.102 331.343 243.173 331.07 243.315L331.154 241.623H334.564L334.761 240.13H329.604L329.351 245.249H330.971Z" fill="white"/>
<rect x="0.5" y="0.5" width="496" height="348" stroke="white"/>
</svg>
