<svg width="497" height="349" viewBox="0 0 497 349" fill="none" xmlns="http://www.w3.org/2000/svg">
<g clip-path="url(#clip0)">
<path d="M0 0H497V349H0V0Z" fill="#313235"/>
<path d="M54.8647 40.6592H50.4993V36.3864H56.1559L55.746 34.0805H47.8555V49.4534H50.4993V42.9425H55.2541L54.8647 40.6592ZM58.9999 36.929C59.4234 36.929 59.7787 36.7707 60.0657 36.4542C60.3662 36.1377 60.5165 35.7459 60.5165 35.2787C60.5165 34.8114 60.3662 34.4196 60.0657 34.1031C59.7787 33.7866 59.4234 33.6283 58.9999 33.6283C58.59 33.6283 58.2416 33.7866 57.9547 34.1031C57.6678 34.4196 57.5243 34.8114 57.5243 35.2787C57.5243 35.7459 57.6678 36.1377 57.9547 36.4542C58.2416 36.7707 58.59 36.929 58.9999 36.929ZM60.3526 49.4534V38.4889H57.6883V49.4534H60.3526ZM65.2761 41.8574C65.768 41.4656 66.2188 41.1565 66.6287 40.9305C67.0386 40.6893 67.4758 40.5688 67.9404 40.5688C68.3913 40.5688 68.7397 40.7571 68.9856 41.1339C69.2453 41.5108 69.3751 42.0382 69.3751 42.7164V49.4534H72.0394V42.5808C72.0394 41.1792 71.7867 40.0865 71.2811 39.3027C70.7755 38.519 69.8942 38.1272 68.6372 38.1272C68.0907 38.1272 67.469 38.2628 66.7722 38.5341C66.0754 38.8054 65.4195 39.1822 64.8047 39.6645L64.3538 38.4889H62.6118V49.4534H65.2761V41.8574ZM75.1834 41.6313C75.566 41.4353 76.0305 41.2696 76.5771 41.1339C77.1236 40.9832 77.6223 40.9079 78.0732 40.9079C78.5651 40.9079 78.9477 41.0661 79.2209 41.3826C79.5078 41.684 79.6581 42.1135 79.6718 42.6712H77.7248C76.5771 42.6712 75.6616 42.9802 74.9785 43.5981C74.2954 44.201 73.9537 45.0601 73.9537 46.1754C73.9537 47.2605 74.2544 48.1271 74.8555 48.7752C75.4566 49.4082 76.3516 49.7247 77.5403 49.7247C78.4558 49.7247 79.3302 49.2425 80.1637 48.2778L80.6146 49.4534H82.3566V42.2417C82.3566 41.473 82.1585 40.7797 81.7623 40.1618C81.3797 39.5439 80.8605 39.0616 80.2047 38.715C79.5488 38.3684 78.8247 38.195 78.0322 38.195C77.5676 38.195 76.946 38.3005 76.1672 38.5115C75.3884 38.7075 74.8213 38.9335 74.4661 39.1897L75.1834 41.6313ZM76.2287 46.1754C76.2287 45.7533 76.3584 45.3916 76.6181 45.0902C76.8913 44.7888 77.2466 44.6381 77.6838 44.6381H79.6923V46.311C79.0227 47.0344 78.2918 47.3962 77.4993 47.3962C77.1304 47.3962 76.823 47.2756 76.5771 47.0344C76.3448 46.7932 76.2287 46.507 76.2287 46.1754ZM87.192 41.8574C87.6839 41.4656 88.1347 41.1565 88.5446 40.9305C88.9545 40.6893 89.3917 40.5688 89.8563 40.5688C90.3072 40.5688 90.6556 40.7571 90.9016 41.1339C91.1611 41.5108 91.291 42.0382 91.291 42.7164V49.4534H93.9553V42.5808C93.9553 41.1792 93.7024 40.0865 93.197 39.3027C92.6914 38.519 91.8101 38.1272 90.5531 38.1272C90.0066 38.1272 89.3849 38.2628 88.6881 38.5341C87.9913 38.8054 87.3355 39.1822 86.7206 39.6645L86.2697 38.4889H84.5277V49.4534H87.192V41.8574ZM104.252 39.348C103.787 39.0014 103.214 38.7224 102.53 38.5115C101.847 38.3005 101.273 38.195 100.809 38.195C99.7432 38.195 98.8072 38.4362 98.0011 38.9184C97.2086 39.3857 96.5937 40.0563 96.1566 40.9305C95.733 41.8047 95.5212 42.822 95.5212 43.9825C95.5212 45.1429 95.733 46.1602 96.1566 47.0344C96.5937 47.8935 97.2086 48.5566 98.0011 49.0239C98.8072 49.4911 99.7432 49.7247 100.809 49.7247C101.314 49.7247 101.909 49.6268 102.592 49.4308C103.275 49.2348 103.828 48.9561 104.252 48.5943L103.494 46.4693C102.974 46.7254 102.51 46.9139 102.1 47.0344C101.69 47.155 101.267 47.2153 100.829 47.2153C100.078 47.2153 99.463 46.9139 98.9849 46.311C98.5066 45.7081 98.2675 44.932 98.2675 43.9825C98.2675 43.033 98.5066 42.2492 98.9849 41.6313C99.4767 41.0134 100.092 40.7044 100.829 40.7044C101.267 40.7044 101.69 40.7647 102.1 40.8853C102.51 41.0058 102.974 41.1943 103.494 41.4504L104.252 39.348ZM107.115 36.929C107.538 36.929 107.894 36.7707 108.181 36.4542C108.481 36.1377 108.631 35.7459 108.631 35.2787C108.631 34.8114 108.481 34.4196 108.181 34.1031C107.894 33.7866 107.538 33.6283 107.115 33.6283C106.705 33.6283 106.356 33.7866 106.07 34.1031C105.783 34.4196 105.639 34.8114 105.639 35.2787C105.639 35.7459 105.783 36.1377 106.07 36.4542C106.356 36.7707 106.705 36.929 107.115 36.929ZM108.467 49.4534V38.4889H105.803V49.4534H108.467ZM111.69 41.6313C112.072 41.4353 112.537 41.2696 113.084 41.1339C113.63 40.9832 114.129 40.9079 114.58 40.9079C115.072 40.9079 115.454 41.0661 115.727 41.3826C116.014 41.684 116.165 42.1135 116.178 42.6712H114.231C113.084 42.6712 112.168 42.9802 111.485 43.5981C110.802 44.201 110.46 45.0601 110.46 46.1754C110.46 47.2605 110.761 48.1271 111.362 48.7752C111.963 49.4082 112.858 49.7247 114.047 49.7247C114.962 49.7247 115.837 49.2425 116.67 48.2778L117.121 49.4534H118.863V42.2417C118.863 41.473 118.665 40.7797 118.269 40.1618C117.886 39.5439 117.367 39.0616 116.711 38.715C116.055 38.3684 115.331 38.195 114.539 38.195C114.074 38.195 113.452 38.3005 112.674 38.5115C111.895 38.7075 111.328 38.9335 110.973 39.1897L111.69 41.6313ZM112.735 46.1754C112.735 45.7533 112.865 45.3916 113.124 45.0902C113.398 44.7888 113.753 44.6381 114.19 44.6381H116.199V46.311C115.529 47.0344 114.798 47.3962 114.006 47.3962C113.637 47.3962 113.329 47.2756 113.084 47.0344C112.851 46.7932 112.735 46.507 112.735 46.1754ZM123.883 49.4534V33.4927L121.239 33.7414V49.4534H123.883ZM137.356 33.7187C136.017 33.7488 134.828 34.1106 133.79 34.8039C132.752 35.4972 131.946 36.4542 131.372 37.675C130.811 38.8958 130.532 40.2824 130.532 41.8348C130.532 43.3268 130.798 44.6758 131.331 45.8815C131.877 47.0722 132.663 48.0217 133.688 48.73C134.725 49.4233 135.949 49.7699 137.356 49.7699C138.709 49.7398 139.898 49.3856 140.923 48.7074C141.96 48.014 142.767 47.0645 143.341 45.8589C143.915 44.6381 144.202 43.2439 144.202 41.6765C144.202 40.1844 143.928 38.8355 143.382 37.6298C142.849 36.4241 142.063 35.4746 141.025 34.7813C139.986 34.073 138.763 33.7187 137.356 33.7187ZM133.298 41.8122C133.298 40.6969 133.483 39.7172 133.852 38.8732C134.234 38.0141 134.733 37.3585 135.348 36.9064C135.976 36.4391 136.66 36.2056 137.397 36.2056C138.203 36.2056 138.914 36.4391 139.529 36.9064C140.144 37.3736 140.615 38.0216 140.943 38.8506C141.271 39.6796 141.435 40.6215 141.435 41.6765C141.435 42.8973 141.25 43.9372 140.882 44.7963C140.525 45.6403 140.034 46.2733 139.406 46.6953C138.791 47.1023 138.101 47.3057 137.336 47.3057C136.516 47.3057 135.799 47.0797 135.184 46.6275C134.582 46.1602 134.118 45.5123 133.79 44.6833C133.462 43.8393 133.298 42.8822 133.298 41.8122ZM152.734 46.0849C152.242 46.4768 151.791 46.7932 151.381 47.0344C150.971 47.2605 150.533 47.3736 150.07 47.3736C149.619 47.3736 149.263 47.1852 149.004 46.8084C148.758 46.4315 148.635 45.9041 148.635 45.2259V38.4889H145.971V45.3615C145.971 46.7632 146.223 47.8558 146.729 48.6396C147.234 49.4233 148.115 49.8151 149.373 49.8151C149.919 49.8151 150.541 49.6795 151.238 49.4082C151.935 49.1369 152.591 48.7601 153.205 48.2778L153.656 49.4534H155.398V38.4889H152.734V46.0849ZM160.714 38.5115V35.3917L158.07 35.9117V38.5115H156.738V40.7722H158.07V45.9493C158.07 47.2002 158.419 48.1723 159.116 48.8656C159.812 49.559 160.782 49.9056 162.026 49.9056C162.354 49.9056 162.716 49.8377 163.112 49.7021C163.522 49.5665 163.829 49.4082 164.034 49.2273L163.256 47.1023C162.887 47.2982 162.524 47.3962 162.169 47.3962C161.704 47.3962 161.343 47.2153 161.083 46.8536C160.837 46.4919 160.714 46.0171 160.714 45.4293V40.7722H163.338L162.518 38.5115H160.714ZM168.315 49.4534V33.4927L165.671 33.7414V49.4534H168.315ZM180.772 43.9372C180.772 45.0977 180.553 46.115 180.116 46.9892C179.678 47.8634 179.057 48.5416 178.251 49.0239C177.458 49.4911 176.53 49.7247 175.464 49.7247C174.398 49.7247 173.462 49.4911 172.655 49.0239C171.863 48.5566 171.249 47.8935 170.812 47.0344C170.374 46.1602 170.156 45.1429 170.156 43.9825C170.156 42.822 170.374 41.8047 170.812 40.9305C171.249 40.0563 171.863 39.3857 172.655 38.9184C173.462 38.4362 174.398 38.195 175.464 38.195C176.53 38.195 177.458 38.4286 178.251 38.8958C179.057 39.3631 179.678 40.0337 180.116 40.9079C180.553 41.7669 180.772 42.7768 180.772 43.9372ZM175.464 47.2153C176.202 47.2153 176.809 46.9063 177.288 46.2884C177.78 45.6705 178.026 44.8868 178.026 43.9372C178.026 42.9877 177.786 42.2116 177.309 41.6087C176.83 41.0058 176.215 40.7044 175.464 40.7044C174.726 40.7044 174.111 41.0134 173.62 41.6313C173.14 42.2492 172.902 43.033 172.902 43.9825C172.902 44.932 173.14 45.7081 173.62 46.311C174.097 46.9139 174.712 47.2153 175.464 47.2153ZM192.42 43.9372C192.42 45.0977 192.202 46.115 191.764 46.9892C191.327 47.8634 190.706 48.5416 189.899 49.0239C189.107 49.4911 188.177 49.7247 187.112 49.7247C186.046 49.7247 185.111 49.4911 184.304 49.0239C183.512 48.5566 182.897 47.8935 182.459 47.0344C182.022 46.1602 181.803 45.1429 181.803 43.9825C181.803 42.822 182.022 41.8047 182.459 40.9305C182.897 40.0563 183.512 39.3857 184.304 38.9184C185.111 38.4362 186.046 38.195 187.112 38.195C188.177 38.195 189.107 38.4286 189.899 38.8958C190.706 39.3631 191.327 40.0337 191.764 40.9079C192.202 41.7669 192.42 42.7768 192.42 43.9372ZM187.112 47.2153C187.849 47.2153 188.458 46.9063 188.936 46.2884C189.427 45.6705 189.673 44.8868 189.673 43.9372C189.673 42.9877 189.435 42.2116 188.956 41.6087C188.478 41.0058 187.863 40.7044 187.112 40.7044C186.374 40.7044 185.759 41.0134 185.267 41.6313C184.789 42.2492 184.55 43.033 184.55 43.9825C184.55 44.932 184.789 45.7081 185.267 46.311C185.746 46.9139 186.361 47.2153 187.112 47.2153ZM196.916 49.4534V45.8589L197.981 44.8189L200.482 49.4534H203.536L199.887 42.9425L202.675 40.2523L201.179 38.1724L196.916 42.4904V33.4927L194.272 33.7414V49.4534H196.916ZM209.872 49.4534H212.516V43.6207H215.017L217.968 49.4534H220.796L217.373 42.8521C218.098 42.4603 218.672 41.9177 219.095 41.2244C219.533 40.531 219.751 39.7248 219.751 38.8054C219.751 37.2681 219.232 36.1 218.193 35.3013C217.168 34.4874 215.85 34.0805 214.238 34.0805H209.872V49.4534ZM214.156 36.5221C216.014 36.5221 216.943 37.3284 216.943 38.941C216.943 39.7248 216.691 40.305 216.185 40.6818C215.693 41.0435 215.031 41.2244 214.197 41.2244H212.516V36.5221H214.156ZM223.09 41.6313C223.473 41.4353 223.938 41.2696 224.484 41.1339C225.031 40.9832 225.529 40.9079 225.98 40.9079C226.472 40.9079 226.855 41.0661 227.128 41.3826C227.415 41.684 227.566 42.1135 227.579 42.6712H225.632C224.484 42.6712 223.569 42.9802 222.885 43.5981C222.203 44.201 221.861 45.0601 221.861 46.1754C221.861 47.2605 222.162 48.1271 222.762 48.7752C223.364 49.4082 224.258 49.7247 225.447 49.7247C226.363 49.7247 227.238 49.2425 228.07 48.2778L228.521 49.4534H230.263V42.2417C230.263 41.473 230.066 40.7797 229.669 40.1618C229.287 39.5439 228.767 39.0616 228.111 38.715C227.456 38.3684 226.732 38.195 225.939 38.195C225.475 38.195 224.853 38.3005 224.074 38.5115C223.295 38.7075 222.729 38.9335 222.373 39.1897L223.09 41.6313ZM224.135 46.1754C224.135 45.7533 224.266 45.3916 224.525 45.0902C224.799 44.7888 225.154 44.6381 225.591 44.6381H227.599V46.311C226.93 47.0344 226.199 47.3962 225.406 47.3962C225.037 47.3962 224.73 47.2756 224.484 47.0344C224.252 46.7932 224.135 46.507 224.135 46.1754ZM235.488 38.5115V35.3917L232.844 35.9117V38.5115H231.512V40.7722H232.844V45.9493C232.844 47.2002 233.193 48.1723 233.89 48.8656C234.587 49.559 235.556 49.9056 236.8 49.9056C237.128 49.9056 237.49 49.8377 237.886 49.7021C238.296 49.5665 238.604 49.4082 238.808 49.2273L238.03 47.1023C237.661 47.2982 237.298 47.3962 236.943 47.3962C236.478 47.3962 236.117 47.2153 235.857 46.8536C235.611 46.4919 235.488 46.0171 235.488 45.4293V40.7722H238.112L237.292 38.5115H235.488ZM241.552 36.929C241.976 36.929 242.331 36.7707 242.618 36.4542C242.919 36.1377 243.069 35.7459 243.069 35.2787C243.069 34.8114 242.919 34.4196 242.618 34.1031C242.331 33.7866 241.976 33.6283 241.552 33.6283C241.142 33.6283 240.794 33.7866 240.507 34.1031C240.22 34.4196 240.077 34.8114 240.077 35.2787C240.077 35.7459 240.22 36.1377 240.507 36.4542C240.794 36.7707 241.142 36.929 241.552 36.929ZM242.905 49.4534V38.4889H240.241V49.4534H242.905ZM247.829 41.8574C248.321 41.4656 248.772 41.1565 249.181 40.9305C249.591 40.6893 250.028 40.5688 250.493 40.5688C250.944 40.5688 251.292 40.7571 251.538 41.1339C251.797 41.5108 251.928 42.0382 251.928 42.7164V49.4534H254.592V42.5808C254.592 41.1792 254.338 40.0865 253.834 39.3027C253.328 38.519 252.447 38.1272 251.19 38.1272C250.643 38.1272 250.022 38.2628 249.325 38.5341C248.628 38.8054 247.972 39.1822 247.357 39.6645L246.906 38.4889H245.164V49.4534H247.829V41.8574ZM266.036 38.4889V49.9734C266.036 51.4806 265.558 52.6336 264.601 53.4323C263.644 54.2462 262.361 54.6531 260.748 54.6531C260.242 54.6531 259.56 54.5326 258.699 54.2914C257.838 54.0653 257.168 53.7714 256.69 53.4097L257.49 51.3298C258.104 51.6614 258.664 51.9025 259.17 52.0533C259.676 52.204 260.181 52.2868 260.687 52.3019C261.492 52.2868 262.135 52.0684 262.613 51.6463C263.105 51.2243 263.351 50.6591 263.351 49.9508V49.0239C262.668 49.4911 261.937 49.7247 261.158 49.7247C259.615 49.7247 258.391 49.2122 257.49 48.1874C256.602 47.1475 256.157 45.7458 256.157 43.9825C256.157 42.837 256.356 41.8273 256.752 40.9531C257.162 40.0789 257.75 39.4007 258.514 38.9184C259.279 38.4362 260.188 38.195 261.24 38.195C261.691 38.195 262.169 38.3155 262.675 38.5567C263.193 38.7979 263.652 39.1068 264.048 39.4836L264.642 38.4889H266.036ZM261.261 47.2153C261.615 47.2153 261.957 47.14 262.285 46.9892C262.627 46.8385 262.982 46.6124 263.351 46.311V41.6313C262.996 41.2997 262.654 41.0661 262.326 40.9305C261.998 40.7797 261.644 40.7044 261.261 40.7044C260.537 40.7044 259.963 41.0134 259.539 41.6313C259.115 42.2342 258.904 43.0178 258.904 43.9825C258.904 44.9471 259.109 45.7307 259.519 46.3336C259.943 46.9214 260.523 47.2153 261.261 47.2153Z" fill="white"/>
<path d="M117.262 270.772C117.262 271.652 117.431 272.445 117.769 273.15C118.107 273.853 118.572 274.409 119.164 274.813C119.765 275.205 120.437 275.403 121.179 275.403C121.921 275.403 122.588 275.205 123.18 274.813C123.781 274.409 124.25 273.853 124.589 273.15C124.927 272.435 125.096 271.631 125.096 270.741C125.096 269.88 124.927 269.103 124.589 268.409C124.26 267.714 123.795 267.176 123.194 266.793C122.602 266.399 121.935 266.202 121.193 266.202C120.441 266.202 119.765 266.399 119.164 266.793C118.572 267.186 118.107 267.73 117.769 268.425C117.431 269.118 117.262 269.901 117.262 270.772ZM118.938 270.725C118.938 270.185 119.032 269.703 119.22 269.28C119.418 268.854 119.685 268.522 120.023 268.285C120.371 268.036 120.756 267.912 121.179 267.912C121.611 267.912 121.996 268.036 122.334 268.285C122.682 268.534 122.954 268.88 123.151 269.326C123.349 269.761 123.447 270.253 123.447 270.803C123.447 271.351 123.349 271.844 123.151 272.279C122.964 272.714 122.696 273.056 122.348 273.305C122.01 273.554 121.625 273.678 121.193 273.678C120.761 273.678 120.371 273.554 120.023 273.305C119.685 273.045 119.418 272.693 119.22 272.248C119.032 271.792 118.938 271.285 118.938 270.725ZM129.723 275.201V266.404H128.497L125.595 267.819L126.286 269.326L127.892 268.642V275.201H129.723Z" fill="white"/>
<path d="M150.141 270.772C150.141 271.652 150.31 272.445 150.648 273.15C150.986 273.853 151.451 274.409 152.043 274.813C152.644 275.205 153.315 275.403 154.058 275.403C154.799 275.403 155.467 275.205 156.059 274.813C156.659 274.409 157.129 273.853 157.468 273.15C157.806 272.435 157.975 271.631 157.975 270.741C157.975 269.88 157.806 269.103 157.468 268.409C157.138 267.714 156.673 267.176 156.073 266.793C155.481 266.399 154.813 266.202 154.072 266.202C153.32 266.202 152.644 266.399 152.043 266.793C151.451 267.186 150.986 267.73 150.648 268.425C150.31 269.118 150.141 269.901 150.141 270.772ZM151.817 270.725C151.817 270.185 151.911 269.703 152.099 269.28C152.296 268.854 152.564 268.522 152.902 268.285C153.249 268.036 153.635 267.912 154.058 267.912C154.489 267.912 154.875 268.036 155.213 268.285C155.56 268.534 155.833 268.88 156.03 269.326C156.228 269.761 156.326 270.253 156.326 270.803C156.326 271.351 156.228 271.844 156.03 272.279C155.842 272.714 155.574 273.056 155.227 273.305C154.889 273.554 154.503 273.678 154.072 273.678C153.639 273.678 153.249 273.554 152.902 273.305C152.564 273.045 152.296 272.693 152.099 272.248C151.911 271.792 151.817 271.285 151.817 270.725ZM161.587 266.202C160.592 266.202 159.685 266.471 158.868 267.01L159.192 268.627C160.028 268.098 160.766 267.834 161.404 267.834C161.874 267.834 162.245 267.937 162.517 268.145C162.799 268.341 162.94 268.631 162.94 269.015C162.94 269.315 162.827 269.637 162.602 269.979C162.376 270.321 162.02 270.719 161.531 271.176L158.684 273.849V275.201H164.912L164.743 273.663H161.178L162.517 272.435C163.241 271.761 163.748 271.18 164.039 270.694C164.331 270.206 164.476 269.622 164.476 268.938C164.476 268.419 164.359 267.953 164.123 267.539C163.889 267.123 163.556 266.797 163.123 266.56C162.691 266.321 162.179 266.202 161.587 266.202Z" fill="white"/>
<path d="M183.883 270.772C183.883 271.652 184.052 272.445 184.39 273.15C184.728 273.853 185.193 274.409 185.785 274.813C186.386 275.205 187.057 275.403 187.8 275.403C188.542 275.403 189.209 275.205 189.801 274.813C190.401 274.409 190.872 273.853 191.21 273.15C191.548 272.435 191.717 271.631 191.717 270.741C191.717 269.88 191.548 269.103 191.21 268.409C190.881 267.714 190.416 267.176 189.815 266.793C189.223 266.399 188.556 266.202 187.814 266.202C187.062 266.202 186.386 266.399 185.785 266.793C185.193 267.186 184.728 267.73 184.39 268.425C184.052 269.118 183.883 269.901 183.883 270.772ZM185.56 270.725C185.56 270.185 185.653 269.703 185.841 269.28C186.039 268.854 186.306 268.522 186.645 268.285C186.992 268.036 187.377 267.912 187.8 267.912C188.232 267.912 188.617 268.036 188.955 268.285C189.302 268.534 189.575 268.88 189.773 269.326C189.97 269.761 190.068 270.253 190.068 270.803C190.068 271.351 189.97 271.844 189.773 272.279C189.584 272.714 189.317 273.056 188.969 273.305C188.631 273.554 188.246 273.678 187.814 273.678C187.381 273.678 186.992 273.554 186.645 273.305C186.306 273.045 186.039 272.693 185.841 272.248C185.653 271.792 185.56 271.285 185.56 270.725ZM195.345 266.202C194.809 266.202 194.297 266.295 193.809 266.482C193.319 266.668 192.831 266.937 192.343 267.29L193.203 268.642C193.907 268.103 194.607 267.834 195.302 267.834C195.697 267.834 196.016 267.943 196.26 268.161C196.504 268.367 196.627 268.627 196.627 268.938C196.627 269.321 196.458 269.631 196.12 269.87C195.781 270.098 195.33 270.212 194.767 270.212H193.837L194.091 271.782H194.682C195.396 271.782 195.926 271.922 196.275 272.202C196.622 272.47 196.796 272.849 196.796 273.336C196.796 273.76 196.636 274.102 196.317 274.362C195.997 274.621 195.616 274.751 195.175 274.751C194.762 274.751 194.39 274.698 194.062 274.595C193.733 274.481 193.381 274.3 193.006 274.051L192.076 275.403C192.555 275.683 193.066 275.916 193.611 276.103C194.156 276.289 194.668 276.382 195.147 276.382C195.804 276.382 196.387 276.247 196.894 275.978C197.402 275.709 197.791 275.341 198.064 274.875C198.336 274.409 198.473 273.89 198.473 273.321C198.473 272.916 198.402 272.543 198.261 272.202C198.12 271.86 197.946 271.58 197.74 271.362C197.543 271.145 197.349 271.009 197.162 270.958C197.453 270.813 197.716 270.548 197.951 270.165C198.186 269.771 198.304 269.352 198.304 268.907C198.304 268.409 198.191 267.958 197.965 267.554C197.74 267.139 197.402 266.813 196.951 266.575C196.509 266.326 195.974 266.202 195.345 266.202Z" fill="white"/>
<path d="M217.066 270.772C217.066 271.652 217.235 272.445 217.574 273.15C217.912 273.853 218.377 274.409 218.969 274.813C219.569 275.205 220.241 275.403 220.983 275.403C221.725 275.403 222.392 275.205 222.984 274.813C223.585 274.409 224.055 273.853 224.393 273.15C224.731 272.435 224.901 271.631 224.901 270.741C224.901 269.88 224.731 269.103 224.393 268.409C224.064 267.714 223.599 267.176 222.998 266.793C222.407 266.399 221.739 266.202 220.998 266.202C220.246 266.202 219.569 266.399 218.969 266.793C218.377 267.186 217.912 267.73 217.574 268.425C217.235 269.118 217.066 269.901 217.066 270.772ZM218.743 270.725C218.743 270.185 218.837 269.703 219.025 269.28C219.222 268.854 219.49 268.522 219.828 268.285C220.175 268.036 220.561 267.912 220.983 267.912C221.415 267.912 221.801 268.036 222.139 268.285C222.486 268.534 222.759 268.88 222.956 269.326C223.153 269.761 223.252 270.253 223.252 270.803C223.252 271.351 223.153 271.844 222.956 272.279C222.768 272.714 222.5 273.056 222.153 273.305C221.815 273.554 221.429 273.678 220.998 273.678C220.565 273.678 220.175 273.554 219.828 273.305C219.49 273.045 219.222 272.693 219.025 272.248C218.837 271.792 218.743 271.285 218.743 270.725ZM232.867 272.621H231.387V266.326H230.02L225.399 272.621L225.638 274.284H229.541V276.274H231.387V274.284H232.683L232.867 272.621ZM229.541 269.559V272.621H227.371L229.541 269.559Z" fill="white"/>
<path d="M251.121 270.772C251.121 271.652 251.29 272.445 251.628 273.15C251.967 273.853 252.431 274.409 253.023 274.813C253.624 275.205 254.297 275.403 255.038 275.403C255.78 275.403 256.447 275.205 257.039 274.813C257.64 274.409 258.11 273.853 258.448 273.15C258.786 272.435 258.955 271.631 258.955 270.741C258.955 269.88 258.786 269.103 258.448 268.409C258.119 267.714 257.654 267.176 257.053 266.793C256.461 266.399 255.794 266.202 255.052 266.202C254.3 266.202 253.624 266.399 253.023 266.793C252.431 267.186 251.967 267.73 251.628 268.425C251.29 269.118 251.121 269.901 251.121 270.772ZM252.798 270.725C252.798 270.185 252.891 269.703 253.08 269.28C253.277 268.854 253.545 268.522 253.883 268.285C254.23 268.036 254.615 267.912 255.038 267.912C255.47 267.912 255.855 268.036 256.194 268.285C256.541 268.534 256.814 268.88 257.011 269.326C257.208 269.761 257.307 270.253 257.307 270.803C257.307 271.351 257.208 271.844 257.011 272.279C256.823 272.714 256.555 273.056 256.208 273.305C255.869 273.554 255.484 273.678 255.052 273.678C254.621 273.678 254.23 273.554 253.883 273.305C253.545 273.045 253.277 272.693 253.08 272.248C252.891 271.792 252.798 271.285 252.798 270.725ZM261.892 271.999C261.968 271.813 262.113 271.646 262.329 271.502C262.546 271.347 262.803 271.269 263.104 271.269C263.518 271.269 263.856 271.419 264.119 271.72C264.381 272.019 264.513 272.419 264.513 272.916C264.513 273.455 264.344 273.884 264.006 274.207C263.677 274.527 263.259 274.688 262.752 274.688C262.348 274.688 261.982 274.636 261.653 274.533C261.324 274.418 260.962 274.242 260.568 274.004L259.666 275.419C260.126 275.699 260.624 275.926 261.16 276.103C261.704 276.289 262.222 276.382 262.71 276.382C263.414 276.382 264.025 276.237 264.541 275.947C265.068 275.656 265.471 275.248 265.753 274.719C266.035 274.191 266.176 273.589 266.176 272.916C266.167 272.315 266.044 271.771 265.809 271.285C265.575 270.787 265.223 270.393 264.753 270.103C264.283 269.802 263.71 269.653 263.034 269.653C262.611 269.653 262.264 269.73 261.991 269.886L262.076 268.036H265.485L265.683 266.404H260.526L260.272 271.999H261.892Z" fill="white"/>
<path d="M284.746 270.772C284.746 271.652 284.915 272.445 285.253 273.15C285.592 273.853 286.056 274.409 286.648 274.813C287.249 275.206 287.922 275.403 288.663 275.403C289.405 275.403 290.072 275.206 290.664 274.813C291.265 274.409 291.735 273.853 292.073 273.15C292.411 272.435 292.58 271.631 292.58 270.741C292.58 269.88 292.411 269.103 292.073 268.409C291.744 267.714 291.279 267.176 290.678 266.793C290.086 266.399 289.419 266.202 288.677 266.202C287.925 266.202 287.249 266.399 286.648 266.793C286.056 267.186 285.592 267.73 285.253 268.425C284.915 269.119 284.746 269.901 284.746 270.772ZM286.423 270.725C286.423 270.185 286.516 269.703 286.705 269.28C286.902 268.854 287.17 268.522 287.508 268.285C287.855 268.036 288.24 267.912 288.663 267.912C289.095 267.912 289.48 268.036 289.819 268.285C290.166 268.534 290.439 268.88 290.636 269.326C290.833 269.761 290.932 270.253 290.932 270.803C290.932 271.351 290.833 271.844 290.636 272.279C290.447 272.714 290.18 273.056 289.833 273.305C289.494 273.554 289.109 273.678 288.677 273.678C288.246 273.678 287.855 273.554 287.508 273.305C287.17 273.045 286.902 272.693 286.705 272.248C286.516 271.792 286.423 271.285 286.423 270.725ZM296.898 268.953C297.481 268.953 298.006 269.097 298.476 269.388C298.946 269.678 299.313 270.067 299.575 270.554C299.848 271.04 299.984 271.58 299.984 272.17C299.984 272.802 299.852 273.362 299.589 273.849C299.327 274.335 298.964 274.719 298.505 274.999C298.045 275.268 297.523 275.403 296.941 275.403C296.227 275.403 295.593 275.248 295.038 274.937C294.494 274.615 294.066 274.149 293.756 273.538C293.446 272.917 293.291 272.165 293.291 271.285C293.291 270.144 293.578 269.15 294.151 268.3C294.723 267.44 295.433 266.762 296.278 266.264C297.124 265.767 297.96 265.46 298.786 265.347L299.04 267.01C297.293 267.539 296.109 268.305 295.489 269.311C295.94 269.072 296.41 268.953 296.898 268.953ZM296.884 273.74C297.298 273.74 297.645 273.595 297.927 273.305C298.209 273.014 298.35 272.662 298.35 272.248C298.35 271.761 298.209 271.357 297.927 271.036C297.645 270.704 297.288 270.539 296.856 270.539C296.132 270.539 295.512 270.75 294.996 271.176C295.005 272.046 295.179 272.693 295.517 273.119C295.856 273.533 296.312 273.74 296.884 273.74Z" fill="white"/>
<path d="M318.828 270.772C318.828 271.652 318.997 272.445 319.335 273.15C319.674 273.853 320.139 274.409 320.73 274.813C321.331 275.205 322.004 275.403 322.745 275.403C323.487 275.403 324.154 275.205 324.746 274.813C325.347 274.409 325.817 273.853 326.155 273.15C326.493 272.435 326.662 271.631 326.662 270.741C326.662 269.88 326.493 269.103 326.155 268.409C325.826 267.714 325.361 267.176 324.76 266.793C324.168 266.399 323.501 266.202 322.759 266.202C322.007 266.202 321.331 266.399 320.73 266.793C320.139 267.186 319.674 267.73 319.335 268.425C318.997 269.118 318.828 269.901 318.828 270.772ZM320.505 270.725C320.505 270.185 320.598 269.703 320.787 269.28C320.984 268.854 321.252 268.522 321.59 268.285C321.937 268.036 322.322 267.912 322.745 267.912C323.177 267.912 323.562 268.036 323.901 268.285C324.248 268.534 324.521 268.88 324.718 269.326C324.915 269.761 325.014 270.253 325.014 270.803C325.014 271.351 324.915 271.844 324.718 272.279C324.53 272.714 324.262 273.056 323.915 273.305C323.577 273.554 323.191 273.678 322.759 273.678C322.328 273.678 321.937 273.554 321.59 273.305C321.252 273.045 320.984 272.693 320.787 272.248C320.598 271.792 320.505 271.285 320.505 270.725ZM330.656 276.274L333.418 267.212L332.882 266.404H327.162L327.387 268.036H331.403L328.951 275.73L330.656 276.274Z" fill="white"/>
<path d="M352.262 270.772C352.262 271.652 352.431 272.445 352.769 273.15C353.107 273.853 353.572 274.409 354.164 274.813C354.765 275.206 355.437 275.403 356.179 275.403C356.92 275.403 357.588 275.206 358.18 274.813C358.78 274.409 359.25 273.853 359.589 273.15C359.927 272.435 360.096 271.631 360.096 270.741C360.096 269.88 359.927 269.103 359.589 268.409C359.259 267.714 358.794 267.176 358.194 266.793C357.602 266.399 356.935 266.202 356.193 266.202C355.441 266.202 354.765 266.399 354.164 266.793C353.572 267.186 353.107 267.73 352.769 268.425C352.431 269.119 352.262 269.901 352.262 270.772ZM353.938 270.725C353.938 270.185 354.032 269.704 354.22 269.28C354.418 268.854 354.685 268.522 355.023 268.285C355.371 268.036 355.756 267.912 356.179 267.912C356.61 267.912 356.996 268.036 357.334 268.285C357.681 268.534 357.954 268.88 358.151 269.326C358.349 269.761 358.447 270.253 358.447 270.803C358.447 271.351 358.349 271.844 358.151 272.279C357.963 272.715 357.695 273.056 357.348 273.305C357.01 273.554 356.625 273.678 356.193 273.678C355.761 273.678 355.371 273.554 355.023 273.305C354.685 273.045 354.418 272.693 354.22 272.248C354.032 271.792 353.938 271.285 353.938 270.725ZM364.09 265.208C363.507 265.208 362.996 265.332 362.554 265.581C362.112 265.818 361.77 266.144 361.525 266.56C361.291 266.974 361.173 267.43 361.173 267.927C361.173 268.351 361.281 268.746 361.497 269.109C361.723 269.47 362.019 269.74 362.385 269.917C361.971 270.072 361.605 270.387 361.286 270.865C360.967 271.331 360.807 271.817 360.807 272.326C360.807 272.895 360.939 273.414 361.201 273.88C361.464 274.347 361.844 274.72 362.343 274.999C362.841 275.268 363.422 275.403 364.09 275.403C364.747 275.403 365.321 275.268 365.809 274.999C366.307 274.72 366.688 274.347 366.95 273.88C367.213 273.403 367.345 272.886 367.345 272.326C367.345 271.817 367.185 271.331 366.866 270.865C366.547 270.387 366.18 270.072 365.767 269.917C366.133 269.73 366.429 269.46 366.654 269.109C366.88 268.746 366.992 268.351 366.992 267.927C366.992 267.43 366.871 266.974 366.626 266.56C366.392 266.144 366.053 265.818 365.612 265.581C365.18 265.332 364.673 265.208 364.09 265.208ZM364.062 266.855C364.419 266.855 364.719 266.964 364.963 267.181C365.217 267.388 365.344 267.636 365.344 267.927C365.344 268.279 365.236 268.565 365.02 268.782C364.814 269 364.504 269.144 364.09 269.217C363.676 269.144 363.357 269.004 363.132 268.798C362.915 268.58 362.808 268.3 362.808 267.959C362.808 267.658 362.929 267.399 363.174 267.181C363.419 266.964 363.715 266.855 364.062 266.855ZM364.09 270.725C364.597 270.818 364.992 271.015 365.273 271.316C365.564 271.615 365.71 271.963 365.71 272.357C365.71 272.781 365.546 273.123 365.217 273.383C364.888 273.641 364.507 273.771 364.076 273.771C363.634 273.771 363.253 273.641 362.934 273.383C362.615 273.123 362.455 272.781 362.455 272.357C362.455 271.963 362.596 271.615 362.878 271.316C363.16 271.015 363.563 270.818 364.09 270.725Z" fill="white"/>
<path d="M385.898 270.772C385.898 271.652 386.068 272.445 386.406 273.15C386.744 273.853 387.209 274.409 387.801 274.813C388.401 275.205 389.073 275.403 389.816 275.403C390.557 275.403 391.225 275.205 391.816 274.813C392.417 274.409 392.887 273.853 393.225 273.15C393.563 272.435 393.733 271.631 393.733 270.741C393.733 269.88 393.563 269.103 393.225 268.409C392.896 267.714 392.431 267.176 391.83 266.793C391.239 266.399 390.571 266.202 389.83 266.202C389.078 266.202 388.401 266.399 387.801 266.793C387.209 267.186 386.744 267.73 386.406 268.425C386.068 269.118 385.898 269.901 385.898 270.772ZM387.575 270.725C387.575 270.185 387.669 269.703 387.857 269.28C388.054 268.854 388.322 268.522 388.66 268.285C389.007 268.036 389.393 267.912 389.816 267.912C390.247 267.912 390.633 268.036 390.971 268.285C391.318 268.534 391.591 268.88 391.788 269.326C391.985 269.761 392.084 270.253 392.084 270.803C392.084 271.351 391.985 271.844 391.788 272.279C391.6 272.714 391.332 273.056 390.985 273.305C390.647 273.554 390.261 273.678 389.83 273.678C389.397 273.678 389.007 273.554 388.66 273.305C388.322 273.045 388.054 272.693 387.857 272.248C387.669 271.792 387.575 271.285 387.575 270.725ZM397.487 266.202C398.2 266.202 398.829 266.362 399.375 266.684C399.928 266.995 400.361 267.461 400.671 268.083C400.981 268.693 401.136 269.439 401.136 270.321C401.136 271.46 400.849 272.46 400.277 273.321C399.703 274.17 398.995 274.844 398.149 275.341C397.304 275.838 396.467 276.144 395.641 276.258L395.388 274.595C397.135 274.067 398.318 273.299 398.938 272.295C398.487 272.532 398.017 272.652 397.529 272.652C396.946 272.652 396.42 272.507 395.951 272.217C395.481 271.926 395.11 271.537 394.838 271.051C394.574 270.564 394.444 270.026 394.444 269.435C394.444 268.802 394.574 268.242 394.838 267.756C395.101 267.269 395.462 266.89 395.923 266.622C396.383 266.342 396.904 266.202 397.487 266.202ZM396.078 269.357C396.078 269.843 396.219 270.253 396.501 270.585C396.782 270.906 397.139 271.067 397.572 271.067C398.294 271.067 398.914 270.854 399.431 270.43C399.421 269.559 399.248 268.916 398.91 268.502C398.572 268.077 398.116 267.865 397.543 267.865C397.13 267.865 396.782 268.009 396.501 268.3C396.219 268.59 396.078 268.942 396.078 269.357Z" fill="white"/>
<path d="M424.644 275.201V266.404H423.418L420.516 267.819L421.206 269.326L422.812 268.642V275.201H424.644ZM425.915 270.772C425.915 271.652 426.084 272.445 426.422 273.15C426.76 273.853 427.225 274.409 427.817 274.813C428.418 275.205 429.089 275.403 429.832 275.403C430.573 275.403 431.241 275.205 431.833 274.813C432.433 274.409 432.903 273.853 433.242 273.15C433.58 272.435 433.749 271.631 433.749 270.741C433.749 269.88 433.58 269.103 433.242 268.409C432.912 267.714 432.447 267.176 431.847 266.793C431.255 266.399 430.588 266.202 429.846 266.202C429.094 266.202 428.418 266.399 427.817 266.793C427.225 267.186 426.76 267.73 426.422 268.425C426.084 269.118 425.915 269.901 425.915 270.772ZM427.591 270.725C427.591 270.185 427.685 269.703 427.873 269.28C428.071 268.854 428.338 268.522 428.676 268.285C429.024 268.036 429.409 267.912 429.832 267.912C430.264 267.912 430.649 268.036 430.987 268.285C431.334 268.534 431.607 268.88 431.804 269.326C432.002 269.761 432.1 270.253 432.1 270.803C432.1 271.351 432.002 271.844 431.804 272.279C431.616 272.714 431.348 273.056 431.001 273.305C430.663 273.554 430.278 273.678 429.846 273.678C429.413 273.678 429.024 273.554 428.676 273.305C428.338 273.045 428.071 272.693 427.873 272.248C427.685 271.792 427.591 271.285 427.591 270.725Z" fill="white"/>
<path d="M452.169 254.714H81.9805" stroke="#ECF0F4"/>
<path d="M437.436 87.463L121.047 87.4629" stroke="#ECF0F4" stroke-linecap="round" stroke-dasharray="4 4"/>
<path d="M437.436 143.134H121.047" stroke="#ECF0F4" stroke-linecap="round" stroke-dasharray="4 4"/>
<path d="M437.436 198.806H121.047" stroke="#ECF0F4" stroke-linecap="round" stroke-dasharray="4 4"/>
<path d="M120.828 251.605C120.828 249.771 122.176 248.285 123.839 248.285C125.501 248.285 126.849 249.771 126.849 251.605V253.716H120.828V251.605Z" fill="#20CB8A"/>
<path d="M154.547 251.605C154.547 249.771 155.896 248.285 157.558 248.285C159.221 248.285 160.569 249.771 160.569 251.605V253.716H154.547V251.605Z" fill="#20CB8A"/>
<path d="M188.266 251.605C188.266 249.771 189.613 248.285 191.276 248.285C192.938 248.285 194.286 249.771 194.286 251.605V253.716H188.266V251.605Z" fill="#20CB8A"/>
<path d="M323.141 251.605C323.141 249.771 324.488 248.285 326.151 248.285C327.813 248.285 329.161 249.771 329.161 251.605V253.716H323.141V251.605Z" fill="#20CB8A"/>
<path d="M221.602 228.192C221.602 226.241 223.035 224.66 224.804 224.66C226.573 224.66 228.006 226.241 228.006 228.192V254.332H221.602V228.192Z" fill="#20CB8A"/>
<path d="M356.859 109.363C356.859 107.529 358.207 106.042 359.87 106.042C361.532 106.042 362.88 107.529 362.88 109.363V254.403H356.859V109.363Z" fill="#20CB8A"/>
<path d="M255.699 172.54C255.699 170.706 257.047 169.218 258.709 169.218C260.372 169.218 261.721 170.706 261.721 172.54V253.996H255.699V172.54Z" fill="#20CB8A"/>
<path d="M390.578 227.605C390.578 225.77 391.926 224.284 393.588 224.284C395.251 224.284 396.6 225.77 396.6 227.605V253.956H390.578V227.605Z" fill="#20CB8A"/>
<path d="M289.418 109.363C289.418 107.529 290.767 106.042 292.429 106.042C294.092 106.042 295.44 107.529 295.44 109.363V254.403H289.418V109.363Z" fill="#20CB8A"/>
<path d="M424.293 172.595C424.293 170.761 425.642 169.273 427.304 169.273C428.967 169.273 430.315 170.761 430.315 172.595V254.051H424.293V172.595Z" fill="#20CB8A"/>
<path d="M87.8119 88.1691C87.2765 88.1691 86.7645 88.2624 86.2761 88.4489C85.7876 88.6354 85.2991 88.9049 84.8107 89.2571L85.6702 90.6093C86.3747 90.0705 87.0745 89.8011 87.7696 89.8011C88.1641 89.8011 88.4835 89.9099 88.7278 90.1275C88.972 90.3348 89.0941 90.5938 89.0941 90.9046C89.0941 91.2881 88.925 91.5989 88.5869 91.8372C88.2487 92.0652 87.7978 92.1791 87.2342 92.1791H86.3042L86.5579 93.7489H87.1497C87.8635 93.7489 88.3943 93.8888 88.7419 94.1685C89.0894 94.438 89.2632 94.8162 89.2632 95.3031C89.2632 95.728 89.1035 96.07 88.7841 96.3289C88.4648 96.5881 88.0843 96.7175 87.6428 96.7175C87.2295 96.7175 86.8585 96.6658 86.5297 96.5621C86.2009 96.4482 85.8486 96.2668 85.4729 96.0181L84.543 97.3703C85.022 97.6501 85.534 97.8832 86.0788 98.0697C86.6236 98.2562 87.1356 98.3495 87.6146 98.3495C88.2721 98.3495 88.8546 98.2148 89.3618 97.9454C89.8691 97.6761 90.2589 97.3081 90.5313 96.8418C90.8038 96.3756 90.9399 95.8576 90.9399 95.2876C90.9399 94.8835 90.8695 94.5105 90.7286 94.1685C90.5877 93.8266 90.4138 93.5468 90.2072 93.3292C90.01 93.1116 89.8174 92.977 89.6295 92.9251C89.9207 92.7802 90.1838 92.5159 90.4186 92.1325C90.6534 91.7388 90.7708 91.3192 90.7708 90.8735C90.7708 90.3762 90.6581 89.9254 90.4327 89.5213C90.2072 89.1069 89.8691 88.7805 89.4182 88.5421C88.9766 88.2935 88.4412 88.1691 87.8119 88.1691ZM91.7201 92.7386C91.7201 93.6195 91.8892 94.4121 92.2274 95.1166C92.5655 95.8213 93.0305 96.3756 93.6223 96.7797C94.2236 97.1735 94.8952 97.3703 95.6372 97.3703C96.3794 97.3703 97.0462 97.1735 97.638 96.7797C98.2393 96.3756 98.7089 95.8213 99.047 95.1166C99.3852 94.4017 99.5543 93.5987 99.5543 92.7075C99.5543 91.8476 99.3852 91.0705 99.047 90.3762C98.7184 89.682 98.2534 89.1432 97.6521 88.7597C97.0603 88.3661 96.3935 88.1691 95.6513 88.1691C94.8999 88.1691 94.2236 88.3661 93.6223 88.7597C93.0305 89.1535 92.5655 89.6975 92.2274 90.3917C91.8892 91.086 91.7201 91.8682 91.7201 92.7386ZM93.3969 92.692C93.3969 92.1532 93.4909 91.6714 93.6787 91.2465C93.8759 90.8218 94.1437 90.4902 94.4818 90.2518C94.8295 90.0031 95.2145 89.8788 95.6372 89.8788C96.0694 89.8788 96.4545 90.0031 96.7926 90.2518C97.1403 90.5005 97.4126 90.8477 97.6098 91.2932C97.8071 91.7284 97.9057 92.2206 97.9057 92.7697C97.9057 93.3189 97.8071 93.8111 97.6098 94.2462C97.4221 94.6814 97.1543 95.0234 96.8067 95.2721C96.4685 95.5207 96.0835 95.6451 95.6513 95.6451C95.2192 95.6451 94.8295 95.5207 94.4818 95.2721C94.1437 95.0131 93.8759 94.6608 93.6787 94.2152C93.4909 93.7593 93.3969 93.2515 93.3969 92.692ZM107.62 86.1331L103.421 97.1682L105.267 97.2304L109.466 86.1952L107.62 86.1331ZM100.265 88.8841C100.265 89.4125 100.373 89.8788 100.589 90.2829C100.815 90.687 101.106 90.9979 101.463 91.2155C101.82 91.4227 102.2 91.5263 102.604 91.5263C103.008 91.5263 103.388 91.4175 103.745 91.1999C104.102 90.9823 104.389 90.6715 104.605 90.2674C104.83 89.8633 104.943 89.4022 104.943 88.8841C104.943 88.3556 104.835 87.8946 104.619 87.5008C104.403 87.0967 104.112 86.7911 103.745 86.5838C103.388 86.3662 103.008 86.2574 102.604 86.2574C102.2 86.2574 101.82 86.3662 101.463 86.5838C101.106 86.8014 100.815 87.1122 100.589 87.5163C100.373 87.9101 100.265 88.3661 100.265 88.8841ZM101.801 88.8685C101.801 88.5163 101.881 88.2365 102.04 88.0292C102.2 87.8221 102.388 87.7184 102.604 87.7184C102.839 87.7184 103.032 87.8221 103.182 88.0292C103.341 88.2365 103.421 88.5266 103.421 88.8996C103.421 89.2623 103.337 89.5524 103.168 89.77C103.008 89.9773 102.82 90.0809 102.604 90.0809C102.36 90.0809 102.163 89.9773 102.012 89.77C101.871 89.5629 101.801 89.2623 101.801 88.8685ZM108.043 94.5416C108.043 95.07 108.151 95.5363 108.367 95.9404C108.592 96.3342 108.884 96.6398 109.241 96.8574C109.598 97.0647 109.978 97.1682 110.382 97.1682C110.776 97.1682 111.152 97.0594 111.509 96.8418C111.866 96.6243 112.153 96.3134 112.369 95.9093C112.585 95.5052 112.693 95.0441 112.693 94.526C112.693 93.9873 112.585 93.521 112.369 93.1272C112.153 92.7335 111.866 92.433 111.509 92.2257C111.162 92.0186 110.786 91.9149 110.382 91.9149C109.978 91.9149 109.598 92.0237 109.241 92.2413C108.884 92.4485 108.592 92.7542 108.367 93.1583C108.151 93.5521 108.043 94.0131 108.043 94.5416ZM109.565 94.5105C109.565 94.1582 109.645 93.8785 109.804 93.6712C109.973 93.464 110.166 93.3603 110.382 93.3603C110.607 93.3603 110.795 93.4691 110.945 93.6867C111.105 93.894 111.185 94.179 111.185 94.5416C111.185 94.9043 111.105 95.1943 110.945 95.4119C110.786 95.6295 110.598 95.7383 110.382 95.7383C110.138 95.7383 109.94 95.6348 109.79 95.4275C109.64 95.2099 109.565 94.9043 109.565 94.5105Z" fill="white"/>
<path d="M87.7971 146.101C86.8014 146.101 85.8949 146.369 85.0777 146.909L85.4018 148.526C86.2378 147.997 86.9751 147.733 87.6139 147.733C88.0837 147.733 88.4546 147.836 88.7271 148.044C89.0089 148.24 89.1498 148.53 89.1498 148.914C89.1498 149.214 89.0371 149.536 88.8116 149.878C88.5862 150.22 88.2292 150.618 87.7408 151.075L84.8945 153.748V155.1H91.1224L90.9533 153.561H87.3885L88.7271 152.334C89.4504 151.66 89.9577 151.079 90.2488 150.593C90.54 150.105 90.6856 149.52 90.6856 148.836C90.6856 148.318 90.5681 147.852 90.3334 147.438C90.0986 147.022 89.765 146.696 89.3329 146.458C88.9009 146.22 88.3889 146.101 87.7971 146.101ZM91.7608 150.671C91.7608 151.551 91.9299 152.343 92.2681 153.049C92.6062 153.752 93.0712 154.307 93.663 154.712C94.2641 155.104 94.9357 155.302 95.6779 155.302C96.4199 155.302 97.0869 155.104 97.6787 154.712C98.2798 154.307 98.7496 153.752 99.0877 153.049C99.4259 152.334 99.595 151.53 99.595 150.639C99.595 149.779 99.4259 149.002 99.0877 148.308C98.7589 147.613 98.2939 147.075 97.6928 146.692C97.101 146.297 96.434 146.101 95.692 146.101C94.9405 146.101 94.2641 146.297 93.663 146.692C93.0712 147.084 92.6062 147.628 92.2681 148.324C91.9299 149.017 91.7608 149.8 91.7608 150.671ZM93.4375 150.624C93.4375 150.084 93.5314 149.602 93.7194 149.178C93.9166 148.753 94.1843 148.421 94.5225 148.184C94.87 147.935 95.2552 147.811 95.6779 147.811C96.1099 147.811 96.4951 147.935 96.8333 148.184C97.1808 148.432 97.4533 148.779 97.6505 149.225C97.8478 149.66 97.9464 150.152 97.9464 150.702C97.9464 151.25 97.8478 151.743 97.6505 152.178C97.4626 152.613 97.1949 152.955 96.8474 153.204C96.5092 153.453 96.124 153.577 95.692 153.577C95.2598 153.577 94.87 153.453 94.5225 153.204C94.1843 152.944 93.9166 152.592 93.7194 152.147C93.5314 151.691 93.4375 151.183 93.4375 150.624ZM107.661 144.065L103.462 155.1L105.308 155.162L109.507 144.127L107.661 144.065ZM100.306 146.816C100.306 147.344 100.414 147.811 100.63 148.215C100.855 148.619 101.146 148.93 101.503 149.147C101.86 149.354 102.241 149.458 102.645 149.458C103.049 149.458 103.429 149.349 103.786 149.132C104.143 148.914 104.429 148.603 104.646 148.199C104.871 147.795 104.984 147.333 104.984 146.816C104.984 146.288 104.876 145.825 104.66 145.433C104.444 145.029 104.152 144.722 103.786 144.516C103.429 144.298 103.049 144.189 102.645 144.189C102.241 144.189 101.86 144.298 101.503 144.516C101.146 144.733 100.855 145.044 100.63 145.448C100.414 145.841 100.306 146.297 100.306 146.816ZM101.842 146.8C101.842 146.447 101.921 146.167 102.081 145.961C102.241 145.753 102.429 145.65 102.645 145.65C102.88 145.65 103.072 145.753 103.222 145.961C103.382 146.167 103.462 146.458 103.462 146.832C103.462 147.193 103.377 147.484 103.208 147.702C103.049 147.908 102.861 148.013 102.645 148.013C102.4 148.013 102.203 147.908 102.053 147.702C101.912 147.494 101.842 147.193 101.842 146.8ZM108.084 152.473C108.084 153.002 108.192 153.468 108.408 153.872C108.633 154.265 108.924 154.572 109.281 154.789C109.638 154.996 110.019 155.1 110.423 155.1C110.817 155.1 111.193 154.991 111.55 154.774C111.907 154.556 112.193 154.245 112.409 153.841C112.625 153.437 112.733 152.975 112.733 152.458C112.733 151.918 112.625 151.452 112.409 151.059C112.193 150.665 111.907 150.364 111.55 150.158C111.202 149.95 110.826 149.847 110.423 149.847C110.019 149.847 109.638 149.956 109.281 150.173C108.924 150.379 108.633 150.686 108.408 151.09C108.192 151.483 108.084 151.945 108.084 152.473ZM109.605 152.442C109.605 152.089 109.685 151.809 109.845 151.603C110.014 151.395 110.206 151.292 110.423 151.292C110.648 151.292 110.836 151.401 110.986 151.619C111.146 151.825 111.226 152.11 111.226 152.473C111.226 152.835 111.146 153.126 110.986 153.344C110.826 153.561 110.638 153.67 110.423 153.67C110.178 153.67 109.981 153.566 109.831 153.359C109.68 153.142 109.605 152.835 109.605 152.442Z" fill="white"/>
<path d="M88.812 213.031V204.234H87.5862L84.6836 205.649L85.374 207.156L86.9803 206.472V213.031H88.812ZM90.0824 208.602C90.0824 209.482 90.2515 210.275 90.5897 210.98C90.9279 211.683 91.3928 212.239 91.9846 212.643C92.5858 213.036 93.2575 213.233 93.9995 213.233C94.7416 213.233 95.4085 213.036 96.0003 212.643C96.6015 212.239 97.0712 211.683 97.4094 210.98C97.7475 210.265 97.9166 209.461 97.9166 208.571C97.9166 207.71 97.7475 206.933 97.4094 206.239C97.0805 205.544 96.6156 205.006 96.0144 204.623C95.4226 204.229 94.7557 204.032 94.0136 204.032C93.2621 204.032 92.5858 204.229 91.9846 204.623C91.3928 205.016 90.9279 205.56 90.5897 206.255C90.2515 206.948 90.0824 207.731 90.0824 208.602ZM91.7592 208.555C91.7592 208.015 91.8531 207.533 92.041 207.11C92.2382 206.684 92.506 206.352 92.8441 206.115C93.1916 205.866 93.5768 205.742 93.9995 205.742C94.4316 205.742 94.8168 205.866 95.1549 206.115C95.5024 206.364 95.7749 206.71 95.9722 207.156C96.1694 207.591 96.2681 208.083 96.2681 208.633C96.2681 209.181 96.1694 209.674 95.9722 210.109C95.7842 210.544 95.5165 210.886 95.169 211.135C94.8308 211.384 94.4457 211.508 94.0136 211.508C93.5816 211.508 93.1916 211.384 92.8441 211.135C92.506 210.875 92.2382 210.523 92.041 210.078C91.8531 209.622 91.7592 209.115 91.7592 208.555ZM105.982 201.996L101.784 213.031L103.629 213.093L107.828 202.058L105.982 201.996ZM98.6274 204.747C98.6274 205.276 98.7354 205.742 98.9515 206.146C99.1769 206.55 99.4681 206.861 99.8251 207.078C100.182 207.285 100.562 207.389 100.966 207.389C101.37 207.389 101.751 207.281 102.108 207.063C102.465 206.845 102.751 206.535 102.967 206.13C103.193 205.726 103.305 205.264 103.305 204.747C103.305 204.219 103.197 203.757 102.981 203.364C102.765 202.96 102.474 202.653 102.108 202.447C101.751 202.229 101.37 202.12 100.966 202.12C100.562 202.12 100.182 202.229 99.8251 202.447C99.4681 202.664 99.1769 202.975 98.9515 203.379C98.7354 203.772 98.6274 204.229 98.6274 204.747ZM100.163 204.732C100.163 204.378 100.243 204.099 100.403 203.892C100.562 203.685 100.75 203.581 100.966 203.581C101.201 203.581 101.394 203.685 101.544 203.892C101.704 204.099 101.784 204.39 101.784 204.763C101.784 205.124 101.699 205.415 101.53 205.633C101.37 205.839 101.182 205.944 100.966 205.944C100.722 205.944 100.525 205.839 100.375 205.633C100.234 205.425 100.163 205.124 100.163 204.732ZM106.405 210.405C106.405 210.933 106.513 211.399 106.729 211.803C106.955 212.196 107.246 212.503 107.603 212.72C107.96 212.927 108.34 213.031 108.744 213.031C109.139 213.031 109.514 212.922 109.871 212.705C110.228 212.487 110.515 212.176 110.731 211.772C110.947 211.368 111.055 210.906 111.055 210.389C111.055 209.849 110.947 209.383 110.731 208.99C110.515 208.596 110.228 208.295 109.871 208.089C109.524 207.881 109.148 207.778 108.744 207.778C108.34 207.778 107.96 207.887 107.603 208.104C107.246 208.311 106.955 208.617 106.729 209.021C106.513 209.414 106.405 209.876 106.405 210.405ZM107.927 210.374C107.927 210.02 108.007 209.74 108.166 209.534C108.336 209.327 108.528 209.223 108.744 209.223C108.97 209.223 109.158 209.332 109.308 209.55C109.468 209.756 109.547 210.041 109.547 210.405C109.547 210.766 109.468 211.057 109.308 211.275C109.148 211.493 108.96 211.601 108.744 211.601C108.5 211.601 108.303 211.497 108.152 211.291C108.002 211.073 107.927 210.766 107.927 210.374Z" fill="white"/>
<path d="M55.0805 230.464H47.5563L48.1904 230.06L55.0805 224.682V223.688H45.4992V224.931H52.9247L51.9807 225.568L45.4992 230.713V231.692H55.0805V230.464ZM53.0797 216.24C53.4367 216.603 53.7326 217.023 53.9674 217.499C54.2022 217.965 54.3196 218.385 54.3196 218.758C54.3196 219.245 54.1787 219.592 53.8969 219.799C53.6151 220.007 53.2206 220.11 52.7133 220.11H48.2467V221.338H52.8683C53.601 221.338 54.1881 221.146 54.6296 220.763C55.0617 220.369 55.2778 219.774 55.2778 218.976C55.2778 218.499 55.165 217.996 54.9396 217.468C54.7142 216.939 54.4323 216.494 54.0942 216.131L55.0805 215.929V215.012H48.2327V216.24H53.0797ZM48.0354 204.486C48.0354 203.718 48.2561 203.149 48.6976 202.776C49.1297 202.403 49.7121 202.216 50.4448 202.216H55.0664V203.444H50.5998C50.0926 203.444 49.698 203.538 49.4162 203.724C49.1344 203.911 48.9935 204.231 48.9935 204.688C48.9935 205.008 49.1015 205.382 49.3176 205.807C49.5242 206.221 49.7919 206.609 50.1207 206.972C50.1865 206.961 50.2946 206.957 50.4448 206.957H55.0664V208.185H50.5998C50.0926 208.185 49.698 208.278 49.4162 208.465C49.1344 208.651 48.9935 208.972 48.9935 209.428C48.9935 209.759 49.111 210.153 49.3458 210.609C49.5806 211.055 49.8765 211.459 50.2335 211.822H55.0805V213.05H48.2467V212.133L49.219 211.931C48.8808 211.567 48.599 211.138 48.3736 210.641C48.1481 210.132 48.0354 209.656 48.0354 209.211C48.0354 208.702 48.1388 208.282 48.3454 207.952C48.552 207.61 48.8433 207.355 49.219 207.19C48.8808 206.827 48.599 206.397 48.3736 205.9C48.1481 205.403 48.0354 204.931 48.0354 204.486ZM48.0636 197.191C48.0636 196.072 48.397 195.196 49.064 194.564C49.7215 193.921 50.5951 193.6 51.6848 193.6C52.3799 193.6 52.9999 193.75 53.5447 194.051C54.0801 194.341 54.5028 194.76 54.8128 195.31C55.1134 195.848 55.2637 196.486 55.2637 197.222C55.2637 197.533 55.2026 197.863 55.0805 198.216C54.9678 198.558 54.8034 198.879 54.5873 199.18L55.0805 199.444V200.175H45.2737L45.1328 198.947H48.5849C48.4158 198.667 48.289 198.372 48.2045 198.061C48.1106 197.75 48.0636 197.459 48.0636 197.191ZM54.3196 197.191C54.3196 196.445 54.0754 195.869 53.5869 195.465C53.0985 195.061 52.4691 194.854 51.6988 194.844C50.891 194.844 50.2428 195.046 49.7544 195.45C49.2565 195.843 49.0076 196.418 49.0076 197.175C49.0076 197.548 49.0592 197.874 49.1626 198.154C49.266 198.434 49.4256 198.698 49.6417 198.947H53.7137C53.911 198.698 54.0613 198.434 54.1646 198.154C54.268 197.874 54.3196 197.552 54.3196 197.191ZM51.8398 185.839C50.7125 185.839 49.8014 186.103 49.1062 186.632C48.4111 187.15 48.0636 187.958 48.0636 189.056C48.0636 189.782 48.2186 190.414 48.5285 190.952C48.8292 191.481 49.2519 191.885 49.7967 192.165C50.3321 192.435 50.9473 192.569 51.6425 192.569C52.7415 192.569 53.6199 192.233 54.2774 191.559C54.9349 190.886 55.2637 189.907 55.2637 188.621C55.2637 188.104 55.2026 187.632 55.0805 187.207C54.9489 186.783 54.7752 186.357 54.5592 185.932L53.7419 186.321C53.9485 186.787 54.0989 187.191 54.1928 187.533C54.2867 187.865 54.3337 188.232 54.3337 188.637C54.3337 189.528 54.113 190.191 53.6715 190.626C53.2206 191.051 52.61 191.279 51.8398 191.31V185.839ZM51.0789 191.279C50.4401 191.207 49.9376 190.989 49.5712 190.626C49.1955 190.253 49.0076 189.746 49.0076 189.103C49.0076 187.912 49.698 187.228 51.0789 187.051V191.279ZM50.3744 183.119C50.0456 182.767 49.7591 182.336 49.5149 181.829C49.2612 181.322 49.1344 180.86 49.1344 180.446L48.2467 180.741C48.2467 181.104 48.3642 181.524 48.599 182C48.8338 182.476 49.0828 182.886 49.3458 183.228L48.2467 183.616V184.347H55.0805V183.119H50.3744ZM51.6848 168.826C52.3799 168.826 52.9999 168.981 53.5447 169.292C54.0801 169.593 54.5028 170.028 54.8128 170.597C55.1134 171.168 55.2637 171.831 55.2637 172.587C55.2637 173.313 55.1134 173.945 54.8128 174.483C54.5028 175.023 54.0754 175.437 53.5306 175.726C52.9763 176.006 52.347 176.146 51.6425 176.146C50.9473 176.136 50.3321 175.986 49.7967 175.695C49.2519 175.396 48.8292 174.965 48.5285 174.405C48.2186 173.846 48.0636 173.193 48.0636 172.447C48.0636 171.318 48.3924 170.432 49.0499 169.789C49.698 169.148 50.5764 168.826 51.6848 168.826ZM54.3196 172.525C54.3196 171.779 54.0754 171.188 53.5869 170.753C53.089 170.318 52.4597 170.096 51.6988 170.084C50.891 170.084 50.2428 170.292 49.7544 170.706C49.2565 171.122 49.0076 171.707 49.0076 172.462C49.0076 173.209 49.2565 173.799 49.7544 174.234C50.2428 174.67 50.8675 174.893 51.6284 174.903C52.4268 174.903 53.0749 174.696 53.5728 174.281C54.0707 173.867 54.3196 173.282 54.3196 172.525ZM49.2049 166.928H55.0805V165.7H49.2049V163.913L48.3595 164.317V165.7H47.3591C46.5794 165.7 46.1896 165.348 46.1896 164.643C46.1896 164.54 46.2037 164.42 46.2318 164.286C46.26 164.151 46.2929 164.043 46.3305 163.959L45.4287 163.68C45.363 163.814 45.3066 163.985 45.2596 164.192C45.2126 164.4 45.1892 164.606 45.1892 164.814C45.1892 165.467 45.3817 165.985 45.7669 166.368C46.1426 166.741 46.6498 166.928 47.2886 166.928H48.3595V168.078L49.2049 168.063V166.928ZM51.4593 157.381V155.889C51.4593 154.707 51.2057 153.739 50.6984 152.982C50.1818 152.226 49.4256 151.843 48.4299 151.832C47.4248 151.832 46.6875 152.185 46.2178 152.889C45.7387 153.594 45.4992 154.542 45.4992 155.733V158.608H55.0805V157.381H51.4593ZM46.4432 155.718C46.4432 154.858 46.5982 154.206 46.9082 153.759C47.2088 153.314 47.7301 153.091 48.4722 153.091C49.1673 153.112 49.6839 153.371 50.0221 153.868C50.3509 154.365 50.5153 155.024 50.5153 155.842V157.381H46.4432V155.718ZM49.5008 149.711C49.3505 149.338 49.2378 148.996 49.1626 148.685C49.0781 148.363 49.0358 147.98 49.0358 147.535C49.0358 146.964 49.1814 146.55 49.4726 146.292C49.7638 146.022 50.163 145.888 50.6703 145.888H51.0507V147.83C51.0507 148.649 51.2339 149.307 51.6002 149.804C51.9666 150.302 52.4785 150.55 53.136 150.55C53.7654 150.55 54.2774 150.333 54.6719 149.898C55.0664 149.451 55.2637 148.81 55.2637 147.97C55.2637 147.576 55.1791 147.172 55.01 146.758C54.8316 146.343 54.6249 145.996 54.3901 145.717L55.0805 145.561V144.644H50.3603C49.9187 144.644 49.5242 144.769 49.1767 145.017C48.8292 145.266 48.5567 145.612 48.3595 146.059C48.1622 146.504 48.0636 147.011 48.0636 147.582C48.0636 147.924 48.1199 148.359 48.2327 148.887C48.3454 149.404 48.4863 149.799 48.6554 150.069L49.5008 149.711ZM53.136 149.416C52.7603 149.416 52.4456 149.28 52.192 149.012C51.929 148.732 51.7975 148.348 51.7975 147.862V145.872H53.3474C53.648 146.152 53.8922 146.478 54.0801 146.851C54.268 147.213 54.3619 147.597 54.3619 148.001C54.3619 148.468 54.2398 148.819 53.9956 149.058C53.7513 149.296 53.4649 149.416 53.136 149.416ZM50.3744 141.531C50.0456 141.179 49.7591 140.748 49.5149 140.241C49.2612 139.733 49.1344 139.272 49.1344 138.857L48.2467 139.153C48.2467 139.515 48.3642 139.935 48.599 140.412C48.8338 140.888 49.0828 141.298 49.3458 141.64L48.2467 142.029V142.759H55.0805V141.531H50.3744ZM48.3595 136.119H46.3023L46.6123 137.346H48.3595V138.45L49.2049 138.434V137.346H53.3051C53.9439 137.346 54.4371 137.16 54.7846 136.787C55.1228 136.404 55.2919 135.885 55.2919 135.233C55.2919 134.839 55.212 134.456 55.0523 134.083L54.1787 134.362C54.2726 134.621 54.3196 134.849 54.3196 135.046C54.3196 135.409 54.2163 135.678 54.0096 135.854C53.803 136.031 53.5165 136.119 53.1501 136.119H49.2049V134.347L48.3595 134.751V136.119ZM46.88 132.135C46.88 131.907 46.8095 131.71 46.6686 131.544C46.5184 131.378 46.3398 131.296 46.1332 131.296C45.9266 131.296 45.748 131.378 45.5978 131.544C45.4475 131.71 45.3723 131.907 45.3723 132.135C45.3723 132.373 45.4475 132.57 45.5978 132.726C45.7387 132.881 45.9171 132.959 46.1332 132.959C46.3493 132.959 46.5277 132.881 46.6686 132.726C46.8095 132.57 46.88 132.373 46.88 132.135ZM55.0805 131.498H48.2467V132.741H55.0805V131.498ZM53.8406 124.3C54.0096 124.663 54.1317 124.989 54.2069 125.279C54.2821 125.569 54.3196 125.942 54.3196 126.398C54.3196 127.155 54.0707 127.74 53.5728 128.155C53.0749 128.569 52.4268 128.776 51.6284 128.776C50.8675 128.766 50.2428 128.543 49.7544 128.108C49.2565 127.673 49.0076 127.082 49.0076 126.336C49.0076 125.901 49.0451 125.549 49.1203 125.279C49.1955 125 49.3129 124.652 49.4726 124.238L48.6835 123.865C48.5051 124.166 48.3595 124.564 48.2467 125.062C48.1247 125.549 48.0636 125.963 48.0636 126.305C48.0636 127.051 48.2186 127.704 48.5285 128.264C48.8292 128.823 49.2519 129.258 49.7967 129.569C50.3321 129.87 50.9473 130.02 51.6425 130.02C52.347 130.02 52.9763 129.875 53.5306 129.585C54.0754 129.295 54.5028 128.875 54.8128 128.326C55.1134 127.776 55.2637 127.129 55.2637 126.383C55.2637 126.041 55.2026 125.621 55.0805 125.124C54.9678 124.627 54.8221 124.222 54.6437 123.912L53.8406 124.3ZM46.88 121.829C46.88 121.601 46.8095 121.404 46.6686 121.238C46.5184 121.072 46.3398 120.989 46.1332 120.989C45.9266 120.989 45.748 121.072 45.5978 121.238C45.4475 121.404 45.3723 121.601 45.3723 121.829C45.3723 122.067 45.4475 122.264 45.5978 122.419C45.7387 122.575 45.9171 122.653 46.1332 122.653C46.3493 122.653 46.5277 122.575 46.6686 122.419C46.8095 122.264 46.88 122.067 46.88 121.829ZM55.0805 121.192H48.2467V122.435H55.0805V121.192ZM48.0636 116.17C48.0636 115.051 48.397 114.176 49.064 113.544C49.7215 112.901 50.5951 112.58 51.6848 112.58C52.3799 112.58 52.9999 112.73 53.5447 113.031C54.0801 113.321 54.5028 113.74 54.8128 114.29C55.1134 114.828 55.2637 115.466 55.2637 116.201C55.2637 116.75 55.0898 117.325 54.7423 117.926H58.0113L58.1663 119.154H48.2467V118.424L48.7258 118.16C48.5192 117.849 48.3595 117.517 48.2467 117.165C48.1247 116.813 48.0636 116.481 48.0636 116.17ZM54.3196 116.17C54.3196 115.424 54.0754 114.849 53.5869 114.445C53.0985 114.041 52.4691 113.834 51.6988 113.823C50.891 113.823 50.2428 114.025 49.7544 114.429C49.2565 114.823 49.0076 115.398 49.0076 116.155C49.0076 116.528 49.0592 116.854 49.1626 117.134C49.266 117.414 49.4256 117.678 49.6417 117.926H53.7137C53.911 117.678 54.0613 117.414 54.1646 117.134C54.268 116.854 54.3196 116.533 54.3196 116.17ZM49.5008 110.444C49.3505 110.071 49.2378 109.73 49.1626 109.419C49.0781 109.097 49.0358 108.714 49.0358 108.269C49.0358 107.699 49.1814 107.284 49.4726 107.025C49.7638 106.756 50.163 106.621 50.6703 106.621H51.0507V108.564C51.0507 109.382 51.2339 110.04 51.6002 110.538C51.9666 111.035 52.4785 111.284 53.136 111.284C53.7654 111.284 54.2774 111.066 54.6719 110.631C55.0664 110.185 55.2637 109.543 55.2637 108.704C55.2637 108.31 55.1791 107.906 55.01 107.491C54.8316 107.077 54.6249 106.73 54.3901 106.45L55.0805 106.295V105.378H50.3603C49.9187 105.378 49.5242 105.502 49.1767 105.751C48.8292 105.999 48.5567 106.346 48.3595 106.792C48.1622 107.237 48.0636 107.745 48.0636 108.315C48.0636 108.657 48.1199 109.092 48.2327 109.621C48.3454 110.139 48.4863 110.532 48.6554 110.802L49.5008 110.444ZM53.136 110.149C52.7603 110.149 52.4456 110.014 52.192 109.745C51.929 109.465 51.7975 109.082 51.7975 108.595V106.605H53.3474C53.648 106.885 53.8922 107.212 54.0801 107.585C54.268 107.947 54.3619 108.331 54.3619 108.735C54.3619 109.201 54.2398 109.553 53.9956 109.792C53.7513 110.03 53.4649 110.149 53.136 110.149ZM50.2335 102.265C49.8765 101.902 49.5806 101.488 49.3458 101.021C49.111 100.545 48.9935 100.12 48.9935 99.7468C48.9935 99.2598 49.1344 98.9126 49.4162 98.7055C49.698 98.4982 50.0926 98.3946 50.5998 98.3946H55.0664V97.1668H50.4448C49.7121 97.1668 49.1297 97.3636 48.6976 97.7574C48.2561 98.1407 48.0354 98.7313 48.0354 99.5292C48.0354 100.006 48.1481 100.508 48.3736 101.037C48.599 101.565 48.8808 102.011 49.219 102.374L48.2467 102.576V103.493H55.0805V102.265H50.2335ZM48.3595 93.6651H46.3023L46.6123 94.8929H48.3595V95.9964L49.2049 95.9809V94.8929H53.3051C53.9439 94.8929 54.4371 94.7064 54.7846 94.3334C55.1228 93.95 55.2919 93.4319 55.2919 92.7791C55.2919 92.3853 55.212 92.002 55.0523 91.629L54.1787 91.9088C54.2726 92.1677 54.3196 92.3958 54.3196 92.5926C54.3196 92.9553 54.2163 93.2246 54.0096 93.4008C53.803 93.577 53.5165 93.6651 53.1501 93.6651H49.2049V91.8932L48.3595 92.2973V93.6651ZM54.686 90.6761C54.8644 90.3963 55.0053 90.0128 55.1087 89.5259C55.212 89.0389 55.2637 88.6192 55.2637 88.267C55.2637 87.2929 55.0898 86.5469 54.7423 86.0289C54.3948 85.5004 53.9063 85.2362 53.2769 85.2362C52.394 85.2362 51.6707 86.0806 51.1071 87.7696C50.938 88.3292 50.7642 88.7591 50.5857 89.0597C50.4073 89.3601 50.1959 89.5155 49.9517 89.5259C49.6605 89.5259 49.4256 89.3808 49.2471 89.0907C49.0592 88.7902 48.9653 88.4069 48.9653 87.9406C48.9653 87.5571 49.0076 87.2152 49.0922 86.9148C49.1767 86.6143 49.2894 86.2931 49.4303 85.9512L48.6695 85.5626C48.491 85.8319 48.3454 86.2049 48.2327 86.6817C48.1199 87.1479 48.0636 87.5571 48.0636 87.9095C48.0636 88.7799 48.2374 89.4689 48.5849 89.9767C48.9231 90.474 49.3928 90.7227 49.9939 90.7227C50.4918 90.7227 50.9004 90.4947 51.2198 90.0388C51.5391 89.5829 51.8068 88.9923 52.0229 88.267C52.3986 87.0236 52.8402 86.4019 53.3474 86.4019C53.6667 86.4019 53.9157 86.5676 54.0942 86.8993C54.2726 87.2307 54.3619 87.6815 54.3619 88.2515C54.3619 88.9042 54.2022 89.5829 53.8828 90.2875L54.686 90.6761Z" fill="white"/>
<path d="M116.902 239.784C116.902 240.433 117.019 241.016 117.251 241.536C117.483 242.049 117.804 242.452 118.214 242.746C118.624 243.033 119.089 243.175 119.608 243.175C120.12 243.175 120.581 243.028 120.991 242.735C121.401 242.441 121.722 242.034 121.954 241.514C122.187 240.994 122.303 240.41 122.303 239.762C122.303 239.136 122.187 238.575 121.954 238.077C121.722 237.58 121.401 237.191 120.991 236.913C120.581 236.626 120.12 236.484 119.608 236.484C119.089 236.484 118.624 236.626 118.214 236.913C117.804 237.191 117.483 237.584 117.251 238.089C117.019 238.586 116.902 239.151 116.902 239.784ZM117.702 239.75C117.702 239.269 117.784 238.839 117.948 238.462C118.112 238.077 118.337 237.779 118.624 237.569C118.918 237.35 119.246 237.241 119.608 237.241C119.97 237.241 120.294 237.35 120.581 237.569C120.875 237.788 121.1 238.093 121.257 238.484C121.421 238.876 121.503 239.317 121.503 239.807C121.503 240.304 121.421 240.752 121.257 241.152C121.1 241.543 120.875 241.853 120.581 242.079C120.294 242.298 119.97 242.407 119.608 242.407C119.246 242.407 118.918 242.294 118.624 242.068C118.337 241.834 118.112 241.518 117.948 241.118C117.784 240.711 117.702 240.255 117.702 239.75ZM128.223 235.003L125.088 243.028L125.877 243.074L129.012 235.048L128.223 235.003ZM124.596 235.093C124.302 235.093 124.032 235.172 123.786 235.331C123.54 235.489 123.342 235.715 123.192 236.009C123.048 236.296 122.977 236.631 122.977 237.015C122.977 237.61 123.127 238.077 123.428 238.416C123.728 238.756 124.121 238.925 124.606 238.925C124.9 238.925 125.17 238.846 125.416 238.688C125.662 238.53 125.856 238.308 126 238.021C126.15 237.734 126.225 237.399 126.225 237.015C126.225 236.42 126.071 235.952 125.764 235.613C125.463 235.267 125.074 235.093 124.596 235.093ZM124.596 235.794C124.842 235.794 125.047 235.896 125.211 236.099C125.375 236.303 125.457 236.608 125.457 237.015C125.457 237.422 125.371 237.727 125.2 237.93C125.036 238.127 124.838 238.224 124.606 238.224C124.353 238.224 124.145 238.123 123.981 237.919C123.817 237.716 123.735 237.41 123.735 237.004C123.735 236.604 123.821 236.303 123.991 236.099C124.162 235.896 124.364 235.794 124.596 235.794ZM129.535 239.208C129.235 239.208 128.958 239.287 128.705 239.445C128.459 239.603 128.264 239.825 128.121 240.112C127.978 240.399 127.906 240.734 127.906 241.118C127.906 241.713 128.056 242.181 128.356 242.52C128.664 242.859 129.057 243.028 129.535 243.028C129.829 243.028 130.098 242.949 130.344 242.791C130.59 242.633 130.785 242.411 130.928 242.124C131.072 241.837 131.144 241.502 131.144 241.118C131.144 240.523 130.994 240.056 130.693 239.716C130.393 239.377 130.006 239.208 129.535 239.208ZM129.535 239.897C129.774 239.897 129.975 240.003 130.139 240.214C130.303 240.417 130.385 240.718 130.385 241.118C130.385 241.518 130.301 241.823 130.129 242.034C129.965 242.237 129.768 242.339 129.535 242.339C129.289 242.339 129.081 242.237 128.91 242.034C128.746 241.823 128.664 241.514 128.664 241.107C128.664 240.7 128.75 240.399 128.92 240.202C129.092 239.999 129.297 239.897 129.535 239.897Z" fill="white"/>
<path d="M150.207 239.784C150.207 240.433 150.324 241.016 150.555 241.536C150.787 242.049 151.109 242.452 151.519 242.746C151.929 243.033 152.394 243.175 152.912 243.175C153.425 243.175 153.886 243.028 154.296 242.735C154.706 242.441 155.027 242.034 155.259 241.514C155.491 240.994 155.607 240.41 155.607 239.762C155.607 239.136 155.491 238.575 155.259 238.077C155.027 237.58 154.706 237.191 154.296 236.913C153.886 236.626 153.425 236.484 152.912 236.484C152.394 236.484 151.929 236.626 151.519 236.913C151.109 237.191 150.787 237.584 150.555 238.089C150.324 238.586 150.207 239.151 150.207 239.784ZM151.006 239.75C151.006 239.269 151.088 238.839 151.252 238.462C151.416 238.077 151.642 237.779 151.929 237.569C152.222 237.35 152.55 237.241 152.912 237.241C153.275 237.241 153.599 237.35 153.886 237.569C154.179 237.788 154.405 238.093 154.562 238.484C154.726 238.876 154.808 239.317 154.808 239.807C154.808 240.304 154.726 240.752 154.562 241.152C154.405 241.543 154.179 241.853 153.886 242.079C153.599 242.298 153.275 242.407 152.912 242.407C152.55 242.407 152.222 242.294 151.929 242.068C151.642 241.834 151.416 241.518 151.252 241.118C151.088 240.711 151.006 240.255 151.006 239.75ZM161.528 235.003L158.392 243.028L159.181 243.074L162.317 235.048L161.528 235.003ZM157.9 235.093C157.607 235.093 157.337 235.172 157.091 235.331C156.845 235.489 156.648 235.715 156.496 236.009C156.353 236.296 156.281 236.631 156.281 237.015C156.281 237.61 156.432 238.077 156.732 238.416C157.033 238.756 157.426 238.925 157.911 238.925C158.205 238.925 158.474 238.846 158.72 238.688C158.966 238.53 159.161 238.308 159.304 238.021C159.455 237.734 159.53 237.399 159.53 237.015C159.53 236.42 159.376 235.952 159.068 235.613C158.769 235.267 158.379 235.093 157.9 235.093ZM157.9 235.794C158.146 235.794 158.351 235.896 158.515 236.099C158.679 236.303 158.761 236.608 158.761 237.015C158.761 237.422 158.677 237.727 158.505 237.93C158.341 238.127 158.144 238.224 157.911 238.224C157.658 238.224 157.449 238.123 157.285 237.919C157.121 237.716 157.039 237.41 157.039 237.004C157.039 236.604 157.125 236.303 157.296 236.099C157.467 235.896 157.668 235.794 157.9 235.794ZM162.84 239.208C162.54 239.208 162.263 239.287 162.009 239.445C161.764 239.603 161.569 239.825 161.425 240.112C161.282 240.399 161.21 240.734 161.21 241.118C161.21 241.713 161.361 242.181 161.661 242.52C161.969 242.859 162.362 243.028 162.84 243.028C163.134 243.028 163.403 242.949 163.649 242.791C163.895 242.633 164.09 242.411 164.233 242.124C164.377 241.837 164.448 241.502 164.448 241.118C164.448 240.523 164.299 240.056 163.997 239.716C163.698 239.377 163.311 239.208 162.84 239.208ZM162.84 239.897C163.079 239.897 163.28 240.003 163.444 240.214C163.608 240.417 163.69 240.718 163.69 241.118C163.69 241.518 163.606 241.823 163.434 242.034C163.27 242.237 163.073 242.339 162.84 242.339C162.594 242.339 162.386 242.237 162.214 242.034C162.05 241.823 161.968 241.514 161.968 241.107C161.968 240.7 162.054 240.399 162.225 240.202C162.396 239.999 162.601 239.897 162.84 239.897Z" fill="white"/>
<path d="M183.512 239.784C183.512 240.433 183.628 241.016 183.86 241.536C184.092 242.049 184.413 242.452 184.823 242.746C185.233 243.033 185.698 243.175 186.217 243.175C186.729 243.175 187.191 243.028 187.6 242.735C188.01 242.441 188.332 242.034 188.564 241.514C188.796 240.994 188.912 240.41 188.912 239.762C188.912 239.136 188.796 238.575 188.564 238.077C188.332 237.58 188.01 237.191 187.6 236.913C187.191 236.626 186.729 236.484 186.217 236.484C185.698 236.484 185.233 236.626 184.823 236.913C184.413 237.191 184.092 237.584 183.86 238.089C183.628 238.586 183.512 239.151 183.512 239.784ZM184.311 239.75C184.311 239.269 184.393 238.839 184.557 238.462C184.721 238.077 184.946 237.779 185.233 237.569C185.527 237.35 185.855 237.241 186.217 237.241C186.58 237.241 186.904 237.35 187.191 237.569C187.484 237.788 187.709 238.093 187.867 238.484C188.031 238.876 188.113 239.317 188.113 239.807C188.113 240.304 188.031 240.752 187.867 241.152C187.709 241.543 187.484 241.853 187.191 242.079C186.904 242.298 186.58 242.407 186.217 242.407C185.855 242.407 185.527 242.294 185.233 242.068C184.946 241.834 184.721 241.518 184.557 241.118C184.393 240.711 184.311 240.255 184.311 239.75ZM194.833 235.003L191.697 243.028L192.486 243.074L195.622 235.048L194.833 235.003ZM191.205 235.093C190.912 235.093 190.641 235.172 190.395 235.331C190.149 235.489 189.952 235.715 189.801 236.009C189.658 236.296 189.586 236.631 189.586 237.015C189.586 237.61 189.737 238.077 190.037 238.416C190.338 238.756 190.731 238.925 191.215 238.925C191.51 238.925 191.779 238.846 192.025 238.688C192.271 238.53 192.465 238.308 192.609 238.021C192.76 237.734 192.834 237.399 192.834 237.015C192.834 236.42 192.681 235.952 192.373 235.613C192.073 235.267 191.684 235.093 191.205 235.093ZM191.205 235.794C191.451 235.794 191.656 235.896 191.82 236.099C191.984 236.303 192.066 236.608 192.066 237.015C192.066 237.422 191.981 237.727 191.81 237.93C191.646 238.127 191.448 238.224 191.215 238.224C190.963 238.224 190.754 238.123 190.59 237.919C190.426 237.716 190.344 237.41 190.344 237.004C190.344 236.604 190.43 236.303 190.6 236.099C190.772 235.896 190.973 235.794 191.205 235.794ZM196.144 239.208C195.844 239.208 195.568 239.287 195.314 239.445C195.068 239.603 194.874 239.825 194.73 240.112C194.587 240.399 194.515 240.734 194.515 241.118C194.515 241.713 194.666 242.181 194.966 242.52C195.273 242.859 195.666 243.028 196.144 243.028C196.439 243.028 196.708 242.949 196.954 242.791C197.2 242.633 197.394 242.411 197.538 242.124C197.681 241.837 197.753 241.502 197.753 241.118C197.753 240.523 197.603 240.056 197.302 239.716C197.002 239.377 196.616 239.208 196.144 239.208ZM196.144 239.897C196.384 239.897 196.585 240.003 196.749 240.214C196.913 240.417 196.995 240.718 196.995 241.118C196.995 241.518 196.91 241.823 196.739 242.034C196.575 242.237 196.377 242.339 196.144 242.339C195.898 242.339 195.691 242.237 195.519 242.034C195.355 241.823 195.273 241.514 195.273 241.107C195.273 240.7 195.359 240.399 195.529 240.202C195.701 239.999 195.906 239.897 196.144 239.897Z" fill="white"/>
<path d="M318.008 239.784C318.008 240.433 318.124 241.016 318.356 241.536C318.588 242.049 318.91 242.452 319.319 242.746C319.729 243.033 320.194 243.175 320.713 243.175C321.226 243.175 321.687 243.028 322.097 242.735C322.506 242.441 322.828 242.034 323.06 241.514C323.292 240.994 323.408 240.41 323.408 239.762C323.408 239.136 323.292 238.575 323.06 238.077C322.828 237.58 322.506 237.191 322.097 236.913C321.687 236.626 321.226 236.484 320.713 236.484C320.194 236.484 319.729 236.626 319.319 236.913C318.91 237.191 318.588 237.584 318.356 238.089C318.124 238.586 318.008 239.151 318.008 239.784ZM318.807 239.75C318.807 239.269 318.889 238.839 319.053 238.462C319.217 238.077 319.442 237.779 319.729 237.569C320.023 237.35 320.351 237.241 320.713 237.241C321.076 237.241 321.4 237.35 321.687 237.569C321.98 237.788 322.205 238.093 322.363 238.484C322.527 238.876 322.609 239.317 322.609 239.807C322.609 240.304 322.527 240.752 322.363 241.152C322.205 241.543 321.98 241.853 321.687 242.079C321.4 242.298 321.076 242.407 320.713 242.407C320.351 242.407 320.023 242.294 319.729 242.068C319.442 241.834 319.217 241.518 319.053 241.118C318.889 240.711 318.807 240.255 318.807 239.75ZM329.329 235.003L326.193 243.028L326.982 243.074L330.118 235.048L329.329 235.003ZM325.701 235.093C325.408 235.093 325.137 235.172 324.892 235.331C324.646 235.489 324.448 235.715 324.297 236.009C324.154 236.296 324.082 236.631 324.082 237.015C324.082 237.61 324.233 238.077 324.533 238.416C324.834 238.756 325.227 238.925 325.711 238.925C326.006 238.925 326.275 238.846 326.521 238.688C326.767 238.53 326.961 238.308 327.105 238.021C327.256 237.734 327.33 237.399 327.33 237.015C327.33 236.42 327.177 235.952 326.869 235.613C326.57 235.267 326.18 235.093 325.701 235.093ZM325.701 235.794C325.947 235.794 326.152 235.896 326.316 236.099C326.48 236.303 326.562 236.608 326.562 237.015C326.562 237.422 326.477 237.727 326.306 237.93C326.142 238.127 325.944 238.224 325.711 238.224C325.459 238.224 325.25 238.123 325.086 237.919C324.922 237.716 324.84 237.41 324.84 237.004C324.84 236.604 324.926 236.303 325.096 236.099C325.268 235.896 325.469 235.794 325.701 235.794ZM330.64 239.208C330.341 239.208 330.064 239.287 329.81 239.445C329.564 239.603 329.37 239.825 329.226 240.112C329.083 240.399 329.011 240.734 329.011 241.118C329.011 241.713 329.162 242.181 329.462 242.52C329.769 242.859 330.163 243.028 330.64 243.028C330.935 243.028 331.204 242.949 331.45 242.791C331.696 242.633 331.89 242.411 332.034 242.124C332.177 241.837 332.249 241.502 332.249 241.118C332.249 240.523 332.099 240.056 331.798 239.716C331.499 239.377 331.112 239.208 330.64 239.208ZM330.64 239.897C330.88 239.897 331.081 240.003 331.245 240.214C331.409 240.417 331.491 240.718 331.491 241.118C331.491 241.518 331.406 241.823 331.235 242.034C331.071 242.237 330.873 242.339 330.64 242.339C330.394 242.339 330.187 242.237 330.015 242.034C329.851 241.823 329.769 241.514 329.769 241.107C329.769 240.7 329.855 240.399 330.025 240.202C330.197 239.999 330.402 239.897 330.64 239.897Z" fill="white"/>
<path d="M219.235 216.476C219.358 216.34 219.518 216.216 219.717 216.103C219.922 215.983 220.143 215.922 220.383 215.922C220.779 215.922 221.096 216.062 221.336 216.34C221.575 216.619 221.694 217.003 221.694 217.493C221.694 217.991 221.551 218.391 221.264 218.692C220.984 218.986 220.608 219.132 220.137 219.132C219.809 219.132 219.522 219.091 219.276 219.008C219.037 218.925 218.78 218.798 218.508 218.624L218.098 219.257C218.391 219.431 218.712 219.573 219.061 219.686C219.409 219.806 219.754 219.867 220.096 219.867C220.602 219.867 221.035 219.761 221.397 219.551C221.76 219.34 222.033 219.053 222.217 218.692C222.408 218.33 222.504 217.93 222.504 217.493C222.498 216.822 222.313 216.273 221.951 215.843C221.588 215.414 221.049 215.199 220.332 215.199C220.161 215.199 219.979 215.233 219.788 215.301C219.604 215.361 219.43 215.447 219.266 215.56L219.358 213.345H222.022L222.115 212.61H218.62L218.456 216.476H219.235ZM228.428 210.983L225.293 219.008L226.082 219.053L229.217 211.028L228.428 210.983ZM224.801 211.073C224.506 211.073 224.237 211.152 223.991 211.31C223.745 211.469 223.547 211.695 223.397 211.989C223.253 212.275 223.182 212.61 223.182 212.995C223.182 213.589 223.332 214.057 223.633 214.396C223.932 214.735 224.326 214.905 224.811 214.905C225.104 214.905 225.375 214.826 225.621 214.668C225.866 214.509 226.061 214.287 226.205 214.001C226.354 213.714 226.43 213.379 226.43 212.995C226.43 212.4 226.276 211.932 225.969 211.593C225.668 211.247 225.279 211.073 224.801 211.073ZM224.801 211.774C225.047 211.774 225.252 211.876 225.416 212.079C225.58 212.282 225.662 212.588 225.662 212.995C225.662 213.402 225.576 213.707 225.405 213.91C225.241 214.107 225.043 214.204 224.811 214.204C224.557 214.204 224.35 214.102 224.186 213.899C224.022 213.695 223.94 213.39 223.94 212.983C223.94 212.583 224.024 212.282 224.196 212.079C224.366 211.876 224.568 211.774 224.801 211.774ZM229.74 215.187C229.439 215.187 229.162 215.267 228.91 215.425C228.664 215.583 228.469 215.805 228.326 216.092C228.182 216.379 228.111 216.713 228.111 217.098C228.111 217.693 228.261 218.16 228.562 218.499C228.869 218.839 229.261 219.008 229.74 219.008C230.033 219.008 230.304 218.929 230.55 218.771C230.795 218.612 230.99 218.391 231.134 218.104C231.277 217.817 231.349 217.482 231.349 217.098C231.349 216.503 231.198 216.035 230.898 215.696C230.597 215.357 230.211 215.187 229.74 215.187ZM229.74 215.877C229.978 215.877 230.181 215.983 230.345 216.194C230.509 216.397 230.591 216.698 230.591 217.098C230.591 217.498 230.505 217.803 230.334 218.013C230.17 218.217 229.972 218.319 229.74 218.319C229.494 218.319 229.285 218.217 229.115 218.013C228.951 217.803 228.869 217.493 228.869 217.086C228.869 216.68 228.953 216.379 229.125 216.182C229.296 215.979 229.5 215.877 229.74 215.877Z" fill="white"/>
<path d="M387.036 216.476C387.159 216.34 387.319 216.216 387.518 216.103C387.722 215.983 387.944 215.922 388.184 215.922C388.579 215.922 388.897 216.062 389.137 216.34C389.376 216.619 389.495 217.003 389.495 217.493C389.495 217.991 389.352 218.391 389.065 218.692C388.784 218.986 388.409 219.132 387.938 219.132C387.61 219.132 387.323 219.091 387.077 219.008C386.837 218.925 386.581 218.798 386.308 218.624L385.898 219.257C386.192 219.431 386.513 219.573 386.862 219.686C387.21 219.806 387.555 219.867 387.897 219.867C388.403 219.867 388.836 219.761 389.198 219.551C389.561 219.34 389.833 219.053 390.018 218.692C390.209 218.33 390.305 217.93 390.305 217.493C390.298 216.822 390.114 216.273 389.751 215.843C389.389 215.414 388.85 215.199 388.132 215.199C387.962 215.199 387.78 215.233 387.589 215.301C387.405 215.361 387.231 215.447 387.067 215.56L387.159 213.345H389.823L389.915 212.61H386.421L386.257 216.476H387.036ZM396.229 210.983L393.093 219.008L393.882 219.053L397.018 211.028L396.229 210.983ZM392.602 211.073C392.307 211.073 392.038 211.152 391.792 211.31C391.546 211.469 391.348 211.695 391.198 211.989C391.054 212.275 390.982 212.61 390.982 212.995C390.982 213.589 391.132 214.057 391.433 214.396C391.733 214.735 392.126 214.905 392.612 214.905C392.905 214.905 393.175 214.826 393.421 214.668C393.667 214.509 393.862 214.287 394.005 214.001C394.155 213.714 394.231 213.379 394.231 212.995C394.231 212.4 394.077 211.932 393.77 211.593C393.469 211.247 393.079 211.073 392.602 211.073ZM392.602 211.774C392.847 211.774 393.052 211.876 393.216 212.079C393.38 212.282 393.462 212.588 393.462 212.995C393.462 213.402 393.376 213.707 393.206 213.91C393.042 214.107 392.844 214.204 392.612 214.204C392.358 214.204 392.151 214.102 391.987 213.899C391.823 213.695 391.741 213.39 391.741 212.983C391.741 212.583 391.825 212.282 391.997 212.079C392.167 211.876 392.368 211.774 392.602 211.774ZM397.541 215.187C397.24 215.187 396.963 215.267 396.711 215.425C396.465 215.583 396.27 215.805 396.127 216.092C395.983 216.379 395.911 216.713 395.911 217.098C395.911 217.693 396.061 218.16 396.362 218.499C396.67 218.839 397.062 219.008 397.541 219.008C397.834 219.008 398.104 218.929 398.35 218.771C398.596 218.612 398.791 218.391 398.934 218.104C399.078 217.817 399.15 217.482 399.15 217.098C399.15 216.503 398.998 216.035 398.699 215.696C398.398 215.357 398.012 215.187 397.541 215.187ZM397.541 215.877C397.779 215.877 397.981 215.983 398.145 216.194C398.309 216.397 398.391 216.698 398.391 217.098C398.391 217.498 398.305 217.803 398.135 218.013C397.971 218.217 397.773 218.319 397.541 218.319C397.295 218.319 397.086 218.217 396.916 218.013C396.752 217.803 396.67 217.493 396.67 217.086C396.67 216.68 396.754 216.379 396.926 216.182C397.096 215.979 397.301 215.877 397.541 215.877Z" fill="white"/>
<path d="M252.24 162.49V156.092H251.697L249.883 157.019L250.241 157.742L251.42 157.132V162.49H252.24ZM255.626 155.222C255.204 155.222 254.837 155.308 254.53 155.482C254.223 155.655 253.987 155.884 253.823 156.171C253.667 156.45 253.587 156.755 253.587 157.087C253.587 157.433 253.687 157.747 253.884 158.025C254.083 158.303 254.335 158.515 254.643 158.658C254.411 158.719 254.192 158.846 253.987 159.042C253.782 159.239 253.618 159.472 253.495 159.743C253.372 160.007 253.311 160.27 253.311 160.534C253.311 160.926 253.4 161.28 253.577 161.597C253.761 161.913 254.028 162.166 254.376 162.354C254.725 162.542 255.142 162.637 255.626 162.637C256.106 162.637 256.518 162.542 256.866 162.354C257.215 162.158 257.479 161.902 257.655 161.586C257.84 161.262 257.932 160.912 257.932 160.534C257.932 160.241 257.871 159.962 257.748 159.698C257.625 159.434 257.461 159.212 257.256 159.031C257.051 158.85 256.833 158.726 256.6 158.658C256.895 158.507 257.143 158.296 257.348 158.025C257.553 157.747 257.655 157.433 257.655 157.087C257.655 156.755 257.573 156.45 257.41 156.171C257.253 155.884 257.02 155.655 256.713 155.482C256.413 155.308 256.05 155.222 255.626 155.222ZM255.596 155.945C255.999 155.945 256.313 156.058 256.539 156.284C256.764 156.503 256.877 156.777 256.877 157.109C256.877 157.41 256.764 157.679 256.539 157.912C256.321 158.138 256.016 158.285 255.626 158.353C255.231 158.285 254.919 158.138 254.694 157.912C254.476 157.679 254.366 157.41 254.366 157.109C254.366 156.786 254.472 156.51 254.684 156.284C254.903 156.058 255.206 155.945 255.596 155.945ZM255.626 158.997C256.112 159.065 256.485 159.242 256.743 159.528C257.01 159.807 257.143 160.15 257.143 160.557C257.143 160.957 256.993 161.28 256.692 161.529C256.399 161.778 256.044 161.902 255.626 161.902C255.19 161.902 254.825 161.778 254.53 161.529C254.243 161.28 254.1 160.957 254.1 160.557C254.1 160.15 254.23 159.807 254.489 159.528C254.749 159.242 255.128 159.065 255.626 158.997ZM263.841 154.464L260.705 162.49L261.494 162.535L264.63 154.51L263.841 154.464ZM260.213 154.555C259.92 154.555 259.65 154.634 259.404 154.792C259.158 154.95 258.961 155.176 258.81 155.47C258.666 155.757 258.594 156.092 258.594 156.476C258.594 157.071 258.746 157.539 259.045 157.878C259.346 158.217 259.74 158.387 260.224 158.387C260.518 158.387 260.787 158.308 261.033 158.149C261.279 157.991 261.474 157.769 261.617 157.482C261.769 157.196 261.843 156.861 261.843 156.476C261.843 155.882 261.689 155.414 261.382 155.075C261.082 154.729 260.693 154.555 260.213 154.555ZM260.213 155.256C260.459 155.256 260.664 155.357 260.828 155.561C260.992 155.764 261.074 156.069 261.074 156.476C261.074 156.883 260.99 157.189 260.818 157.392C260.654 157.588 260.457 157.686 260.224 157.686C259.971 157.686 259.763 157.584 259.599 157.381C259.435 157.177 259.353 156.872 259.353 156.465C259.353 156.065 259.439 155.764 259.609 155.561C259.781 155.357 259.982 155.256 260.213 155.256ZM265.153 158.669C264.853 158.669 264.576 158.748 264.323 158.907C264.077 159.065 263.882 159.287 263.739 159.574C263.595 159.86 263.523 160.195 263.523 160.58C263.523 161.174 263.675 161.642 263.974 161.981C264.282 162.32 264.675 162.49 265.153 162.49C265.447 162.49 265.716 162.411 265.962 162.253C266.208 162.094 266.403 161.872 266.546 161.586C266.69 161.299 266.762 160.964 266.762 160.58C266.762 159.985 266.612 159.517 266.311 159.178C266.011 158.839 265.624 158.669 265.153 158.669ZM265.153 159.359C265.392 159.359 265.593 159.465 265.757 159.675C265.921 159.879 266.003 160.18 266.003 160.58C266.003 160.979 265.919 161.285 265.747 161.495C265.583 161.699 265.386 161.8 265.153 161.8C264.907 161.8 264.699 161.699 264.528 161.495C264.364 161.285 264.282 160.975 264.282 160.568C264.282 160.161 264.368 159.86 264.538 159.664C264.71 159.461 264.915 159.359 265.153 159.359Z" fill="white"/>
<path d="M286.609 93.7751C286.213 93.7751 285.867 93.8316 285.574 93.9446C285.287 94.0502 285.014 94.1895 284.754 94.3629L284.99 95.0863C285.283 94.9055 285.543 94.766 285.769 94.6681C285.994 94.5625 286.271 94.5098 286.599 94.5098C287.023 94.5098 287.353 94.6116 287.593 94.815C287.839 95.011 287.962 95.3011 287.962 95.6854C287.962 96.0019 287.873 96.2996 287.695 96.5784C287.517 96.8572 287.218 97.1963 286.794 97.5957L284.621 99.6756V100.32H289.068L288.935 99.6191H285.697L287.224 98.2061C287.777 97.6936 288.171 97.2378 288.402 96.8384C288.634 96.4389 288.751 96.0245 288.751 95.595C288.751 95.0373 288.556 94.5964 288.167 94.2725C287.784 93.9408 287.265 93.7751 286.609 93.7751ZM291.308 101.1L293.572 94.3177L293.306 93.922H289.371L289.473 94.6568H292.67L290.539 100.84L291.308 101.1ZM299.367 92.2943L296.231 100.32L297.02 100.365L300.156 92.3395L299.367 92.2943ZM295.74 92.3847C295.445 92.3847 295.176 92.4639 294.93 92.6221C294.684 92.7804 294.486 93.0064 294.336 93.3003C294.192 93.5867 294.12 93.922 294.12 94.3064C294.12 94.9016 294.27 95.3689 294.571 95.708C294.871 96.0471 295.264 96.2167 295.75 96.2167C296.043 96.2167 296.313 96.1376 296.559 95.9793C296.805 95.8211 297 95.5988 297.143 95.3124C297.293 95.026 297.369 94.6907 297.369 94.3064C297.369 93.7111 297.215 93.2438 296.908 92.9047C296.607 92.5581 296.217 92.3847 295.74 92.3847ZM295.74 93.0856C295.985 93.0856 296.19 93.1873 296.354 93.3908C296.518 93.5942 296.6 93.8994 296.6 94.3064C296.6 94.7133 296.515 95.0185 296.344 95.222C296.18 95.4179 295.982 95.5159 295.75 95.5159C295.496 95.5159 295.289 95.4141 295.125 95.2107C294.961 95.0072 294.879 94.702 294.879 94.2951C294.879 93.8956 294.963 93.5942 295.135 93.3908C295.305 93.1873 295.506 93.0856 295.74 93.0856ZM300.679 96.4993C300.378 96.4993 300.101 96.5784 299.849 96.7366C299.603 96.8949 299.408 97.1172 299.265 97.4036C299.121 97.69 299.049 98.0253 299.049 98.4096C299.049 99.0049 299.199 99.4721 299.5 99.8112C299.808 100.15 300.2 100.32 300.679 100.32C300.972 100.32 301.242 100.241 301.488 100.083C301.734 99.9243 301.929 99.702 302.072 99.4156C302.216 99.1292 302.288 98.7939 302.288 98.4096C302.288 97.8143 302.137 97.347 301.837 97.0079C301.536 96.6688 301.15 96.4993 300.679 96.4993ZM300.679 97.1888C300.917 97.1888 301.119 97.2943 301.283 97.5053C301.447 97.7088 301.529 98.0101 301.529 98.4096C301.529 98.809 301.444 99.1142 301.273 99.3252C301.109 99.5286 300.911 99.6304 300.679 99.6304C300.433 99.6304 300.224 99.5286 300.054 99.3252C299.89 99.1142 299.808 98.8052 299.808 98.3983C299.808 97.9914 299.892 97.69 300.064 97.494C300.234 97.2905 300.439 97.1888 300.679 97.1888Z" fill="white"/>
<path d="M353.218 93.7751C352.823 93.7751 352.477 93.8316 352.183 93.9446C351.897 94.0502 351.624 94.1895 351.364 94.3629L351.599 95.0863C351.893 94.9055 352.153 94.766 352.378 94.6681C352.604 94.5625 352.88 94.5098 353.208 94.5098C353.632 94.5098 353.963 94.6116 354.202 94.815C354.448 95.011 354.571 95.3011 354.571 95.6854C354.571 96.0019 354.483 96.2996 354.305 96.5784C354.127 96.8572 353.827 97.1963 353.403 97.5957L351.23 99.6756V100.32H355.678L355.545 99.6191H352.306L353.833 98.2061C354.387 97.6936 354.78 97.2378 355.012 96.8384C355.244 96.4389 355.36 96.0245 355.36 95.595C355.36 95.0373 355.165 94.5964 354.776 94.2725C354.393 93.9408 353.874 93.7751 353.218 93.7751ZM357.917 101.1L360.182 94.3177L359.915 93.922H355.98L356.083 94.6568H359.28L357.148 100.84L357.917 101.1ZM365.977 92.2943L362.841 100.32L363.63 100.365L366.766 92.3395L365.977 92.2943ZM362.349 92.3847C362.054 92.3847 361.785 92.4639 361.539 92.6221C361.293 92.7804 361.095 93.0064 360.945 93.3003C360.802 93.5867 360.73 93.922 360.73 94.3064C360.73 94.9016 360.88 95.3689 361.181 95.708C361.48 96.0471 361.874 96.2167 362.359 96.2167C362.652 96.2167 362.923 96.1376 363.169 95.9793C363.415 95.8211 363.609 95.5988 363.753 95.3124C363.903 95.026 363.978 94.6907 363.978 94.3064C363.978 93.7111 363.825 93.2438 363.517 92.9047C363.216 92.5581 362.827 92.3847 362.349 92.3847ZM362.349 93.0856C362.595 93.0856 362.8 93.1873 362.964 93.3908C363.128 93.5942 363.21 93.8994 363.21 94.3064C363.21 94.7133 363.124 95.0185 362.954 95.222C362.79 95.4179 362.591 95.5159 362.359 95.5159C362.106 95.5159 361.898 95.4141 361.734 95.2107C361.57 95.0072 361.488 94.702 361.488 94.2951C361.488 93.8956 361.573 93.5942 361.744 93.3908C361.915 93.1873 362.116 93.0856 362.349 93.0856ZM367.288 96.4993C366.987 96.4993 366.71 96.5784 366.458 96.7366C366.212 96.8949 366.017 97.1172 365.874 97.4036C365.731 97.69 365.659 98.0253 365.659 98.4096C365.659 99.0049 365.809 99.4721 366.11 99.8112C366.417 100.15 366.809 100.32 367.288 100.32C367.582 100.32 367.852 100.241 368.098 100.083C368.344 99.9243 368.538 99.702 368.682 99.4156C368.825 99.1292 368.897 98.7939 368.897 98.4096C368.897 97.8143 368.746 97.347 368.446 97.0079C368.145 96.6688 367.76 96.4993 367.288 96.4993ZM367.288 97.1888C367.526 97.1888 367.729 97.2943 367.893 97.5053C368.057 97.7088 368.139 98.0101 368.139 98.4096C368.139 98.809 368.053 99.1142 367.883 99.3252C367.719 99.5286 367.52 99.6304 367.288 99.6304C367.042 99.6304 366.833 99.5286 366.663 99.3252C366.499 99.1142 366.417 98.8052 366.417 98.3983C366.417 97.9914 366.502 97.69 366.673 97.494C366.844 97.2905 367.049 97.1888 367.288 97.1888Z" fill="white"/>
<path d="M420.041 162.49V156.092H419.497L417.684 157.019L418.042 157.742L419.221 157.132V162.49H420.041ZM423.427 155.222C423.005 155.222 422.638 155.308 422.331 155.482C422.023 155.655 421.788 155.884 421.624 156.171C421.467 156.45 421.388 156.755 421.388 157.087C421.388 157.433 421.488 157.747 421.685 158.025C421.884 158.303 422.136 158.515 422.444 158.658C422.212 158.719 421.993 158.846 421.788 159.042C421.583 159.239 421.419 159.472 421.296 159.743C421.173 160.007 421.111 160.27 421.111 160.534C421.111 160.926 421.201 161.28 421.378 161.597C421.562 161.913 421.829 162.166 422.177 162.354C422.526 162.542 422.943 162.637 423.427 162.637C423.906 162.637 424.319 162.542 424.667 162.354C425.016 162.158 425.28 161.902 425.456 161.586C425.641 161.262 425.733 160.912 425.733 160.534C425.733 160.241 425.671 159.962 425.549 159.698C425.426 159.434 425.262 159.212 425.057 159.031C424.852 158.85 424.634 158.726 424.401 158.658C424.695 158.507 424.944 158.296 425.149 158.025C425.354 157.747 425.456 157.433 425.456 157.087C425.456 156.755 425.374 156.45 425.21 156.171C425.054 155.884 424.821 155.655 424.514 155.482C424.214 155.308 423.851 155.222 423.427 155.222ZM423.397 155.945C423.8 155.945 424.114 156.058 424.339 156.284C424.565 156.503 424.677 156.777 424.677 157.109C424.677 157.41 424.565 157.679 424.339 157.912C424.122 158.138 423.817 158.285 423.427 158.353C423.031 158.285 422.72 158.138 422.495 157.912C422.277 157.679 422.167 157.41 422.167 157.109C422.167 156.786 422.273 156.51 422.485 156.284C422.704 156.058 423.007 155.945 423.397 155.945ZM423.427 158.997C423.913 159.065 424.286 159.242 424.544 159.528C424.811 159.807 424.944 160.15 424.944 160.557C424.944 160.957 424.794 161.28 424.493 161.529C424.2 161.778 423.845 161.902 423.427 161.902C422.99 161.902 422.625 161.778 422.331 161.529C422.044 161.28 421.9 160.957 421.9 160.557C421.9 160.15 422.031 159.807 422.29 159.528C422.55 159.242 422.929 159.065 423.427 158.997ZM431.642 154.464L428.506 162.49L429.295 162.535L432.431 154.51L431.642 154.464ZM428.014 154.555C427.721 154.555 427.451 154.634 427.205 154.792C426.959 154.95 426.762 155.176 426.61 155.47C426.467 155.757 426.395 156.092 426.395 156.476C426.395 157.071 426.546 157.539 426.846 157.878C427.147 158.217 427.54 158.387 428.025 158.387C428.319 158.387 428.588 158.308 428.834 158.149C429.08 157.991 429.275 157.769 429.418 157.482C429.569 157.196 429.644 156.861 429.644 156.476C429.644 155.882 429.49 155.414 429.183 155.075C428.883 154.729 428.493 154.555 428.014 154.555ZM428.014 155.256C428.26 155.256 428.465 155.357 428.629 155.561C428.793 155.764 428.875 156.069 428.875 156.476C428.875 156.883 428.791 157.189 428.619 157.392C428.455 157.588 428.258 157.686 428.025 157.686C427.772 157.686 427.563 157.584 427.399 157.381C427.235 157.177 427.153 156.872 427.153 156.465C427.153 156.065 427.239 155.764 427.41 155.561C427.581 155.357 427.782 155.256 428.014 155.256ZM432.954 158.669C432.654 158.669 432.377 158.748 432.124 158.907C431.878 159.065 431.683 159.287 431.539 159.574C431.396 159.86 431.324 160.195 431.324 160.58C431.324 161.174 431.475 161.642 431.775 161.981C432.083 162.32 432.476 162.49 432.954 162.49C433.248 162.49 433.517 162.411 433.763 162.253C434.009 162.094 434.204 161.872 434.347 161.586C434.491 161.299 434.562 160.964 434.562 160.58C434.562 159.985 434.413 159.517 434.112 159.178C433.812 158.839 433.425 158.669 432.954 158.669ZM432.954 159.359C433.193 159.359 433.394 159.465 433.558 159.675C433.722 159.879 433.804 160.18 433.804 160.58C433.804 160.979 433.72 161.285 433.548 161.495C433.384 161.699 433.187 161.8 432.954 161.8C432.708 161.8 432.5 161.699 432.328 161.495C432.164 161.285 432.083 160.975 432.083 160.568C432.083 160.161 432.168 159.86 432.339 159.664C432.51 159.461 432.715 159.359 432.954 159.359Z" fill="white"/>
<path d="M419.491 307.15V309.896C419.061 310.066 418.615 310.151 418.154 310.151C417.593 310.151 417.086 310.007 416.632 309.718C416.187 309.422 415.833 309.002 415.572 308.459C415.318 307.917 415.191 307.285 415.191 306.565C415.191 305.81 415.333 305.157 415.618 304.606C415.91 304.047 416.29 303.623 416.759 303.335C417.236 303.038 417.747 302.89 418.292 302.89C418.646 302.89 418.934 302.919 419.157 302.979C419.38 303.029 419.645 303.118 419.952 303.246L420.241 302.521C420.018 302.368 419.703 302.249 419.295 302.165C418.896 302.071 418.554 302.025 418.269 302.025C417.516 302.025 416.832 302.22 416.217 302.61C415.602 302.991 415.118 303.53 414.765 304.225C414.411 304.912 414.234 305.696 414.234 306.577C414.234 307.417 414.396 308.175 414.719 308.854C415.041 309.523 415.499 310.053 416.09 310.443C416.69 310.833 417.382 311.028 418.166 311.028C418.55 311.028 418.949 310.969 419.364 310.85C419.78 310.74 420.11 310.6 420.356 310.431L420.367 306.399H417.843L417.762 307.15H419.491ZM422.604 306.603C422.865 306.306 423.184 306.048 423.561 305.827C423.937 305.598 424.279 305.484 424.587 305.484L424.368 304.683C424.099 304.683 423.788 304.789 423.434 305.001C423.08 305.212 422.777 305.437 422.523 305.675L422.235 304.683H421.693V310.85H422.604V306.603ZM430.077 307.925C430.077 306.908 429.881 306.086 429.489 305.458C429.105 304.831 428.505 304.517 427.691 304.517C427.153 304.517 426.684 304.657 426.284 304.937C425.892 305.208 425.592 305.59 425.385 306.081C425.185 306.565 425.085 307.12 425.085 307.747C425.085 308.739 425.335 309.532 425.834 310.125C426.334 310.719 427.06 311.015 428.013 311.015C428.398 311.015 428.747 310.96 429.062 310.85C429.378 310.731 429.693 310.575 430.008 310.38L429.72 309.642C429.374 309.829 429.074 309.964 428.82 310.049C428.574 310.134 428.302 310.176 428.002 310.176C427.341 310.176 426.849 309.977 426.526 309.579C426.211 309.172 426.042 308.621 426.019 307.925H430.077ZM426.042 307.239C426.096 306.662 426.257 306.209 426.526 305.878C426.803 305.539 427.179 305.369 427.656 305.369C428.54 305.369 429.047 305.992 429.178 307.239H426.042ZM431.656 305.814C431.933 305.679 432.187 305.577 432.417 305.509C432.655 305.433 432.94 305.395 433.27 305.395C433.693 305.395 434 305.526 434.193 305.789C434.392 306.052 434.492 306.412 434.492 306.87V307.213H433.051C432.444 307.213 431.956 307.379 431.587 307.709C431.218 308.04 431.034 308.502 431.034 309.095C431.034 309.663 431.195 310.125 431.518 310.481C431.848 310.837 432.325 311.015 432.947 311.015C433.24 311.015 433.539 310.939 433.847 310.787C434.154 310.625 434.412 310.439 434.619 310.227L434.734 310.85H435.415V306.59C435.415 306.192 435.322 305.836 435.138 305.522C434.953 305.208 434.696 304.962 434.365 304.784C434.035 304.606 433.658 304.517 433.236 304.517C432.982 304.517 432.659 304.568 432.267 304.67C431.883 304.772 431.591 304.899 431.391 305.051L431.656 305.814ZM431.875 309.095C431.875 308.756 431.975 308.472 432.175 308.243C432.383 308.006 432.667 307.887 433.028 307.887H434.504V309.286C434.296 309.557 434.054 309.778 433.778 309.947C433.509 310.117 433.224 310.202 432.924 310.202C432.579 310.202 432.317 310.091 432.14 309.871C431.964 309.651 431.875 309.392 431.875 309.095ZM437.999 304.784V302.928L437.089 303.207V304.784H436.27L436.282 305.547H437.089V309.248C437.089 309.824 437.227 310.269 437.504 310.583C437.788 310.888 438.172 311.041 438.657 311.041C438.949 311.041 439.233 310.969 439.51 310.825L439.302 310.036C439.11 310.121 438.941 310.163 438.795 310.163C438.526 310.163 438.326 310.07 438.195 309.884C438.065 309.697 437.999 309.439 437.999 309.108V305.547H439.314L439.014 304.784H437.999Z" fill="white"/>
<path d="M112.59 300.79H106.434V301.578H109.062V309.437H109.984V301.578H112.693L112.59 300.79ZM118.186 306.512C118.186 305.495 117.991 304.673 117.599 304.045C117.214 303.418 116.615 303.104 115.8 303.104C115.262 303.104 114.793 303.244 114.394 303.524C114.002 303.795 113.702 304.177 113.494 304.669C113.295 305.152 113.195 305.707 113.195 306.334C113.195 307.326 113.445 308.119 113.944 308.712C114.444 309.306 115.17 309.603 116.123 309.603C116.507 309.603 116.857 309.547 117.172 309.437C117.487 309.319 117.802 309.162 118.117 308.967L117.829 308.229C117.483 308.416 117.184 308.551 116.93 308.636C116.684 308.721 116.411 308.763 116.111 308.763C115.45 308.763 114.959 308.564 114.636 308.166C114.321 307.759 114.152 307.208 114.129 306.512H118.186ZM114.152 305.826C114.205 305.249 114.367 304.796 114.636 304.465C114.912 304.126 115.289 303.956 115.766 303.956C116.649 303.956 117.157 304.58 117.287 305.826H114.152ZM120.204 305.19C120.466 304.893 120.784 304.635 121.161 304.414C121.538 304.185 121.88 304.071 122.187 304.071L121.968 303.27C121.699 303.27 121.388 303.376 121.034 303.588C120.681 303.8 120.377 304.024 120.124 304.262L119.835 303.27H119.293V309.437H120.204V305.19ZM123.942 305.19C124.203 304.893 124.522 304.635 124.899 304.414C125.275 304.185 125.617 304.071 125.925 304.071L125.706 303.27C125.437 303.27 125.126 303.376 124.772 303.588C124.418 303.8 124.115 304.024 123.861 304.262L123.573 303.27H123.031V309.437H123.942V305.19ZM127.218 302.036C127.388 302.036 127.534 301.973 127.657 301.845C127.779 301.71 127.841 301.549 127.841 301.362C127.841 301.176 127.779 301.015 127.657 300.879C127.534 300.743 127.388 300.676 127.218 300.676C127.042 300.676 126.896 300.743 126.78 300.879C126.665 301.006 126.607 301.167 126.607 301.362C126.607 301.557 126.665 301.718 126.78 301.845C126.896 301.973 127.042 302.036 127.218 302.036ZM127.691 309.437V303.27H126.769V309.437H127.691ZM131.462 303.104C132.292 303.104 132.941 303.405 133.41 304.007C133.886 304.601 134.125 305.389 134.125 306.373C134.125 307 134.013 307.559 133.79 308.051C133.575 308.534 133.264 308.916 132.857 309.196C132.457 309.467 131.984 309.603 131.439 309.603C131.208 309.603 130.962 309.547 130.701 309.437C130.447 309.336 130.209 309.187 129.986 308.992L129.79 309.437H129.248V300.587L130.159 300.459V303.575C130.366 303.422 130.585 303.308 130.816 303.232C131.047 303.147 131.262 303.104 131.462 303.104ZM131.462 308.751C132.015 308.751 132.442 308.53 132.741 308.089C133.041 307.648 133.195 307.08 133.202 306.385C133.202 305.656 133.053 305.071 132.753 304.63C132.461 304.181 132.034 303.956 131.473 303.956C131.196 303.956 130.954 304.003 130.747 304.096C130.539 304.19 130.343 304.334 130.159 304.529V308.204C130.343 308.382 130.539 308.517 130.747 308.611C130.954 308.704 131.193 308.751 131.462 308.751ZM136.261 309.437V300.459L135.351 300.587V309.437H136.261ZM142.46 306.512C142.46 305.495 142.264 304.673 141.872 304.045C141.487 303.418 140.888 303.104 140.073 303.104C139.535 303.104 139.067 303.244 138.667 303.524C138.275 303.795 137.975 304.177 137.768 304.669C137.568 305.152 137.468 305.707 137.468 306.334C137.468 307.326 137.718 308.119 138.217 308.712C138.717 309.306 139.443 309.603 140.396 309.603C140.78 309.603 141.13 309.547 141.445 309.437C141.76 309.319 142.075 309.162 142.391 308.967L142.102 308.229C141.756 308.416 141.457 308.551 141.203 308.636C140.957 308.721 140.684 308.763 140.385 308.763C139.724 308.763 139.232 308.564 138.909 308.166C138.594 307.759 138.425 307.208 138.402 306.512H142.46ZM138.425 305.826C138.479 305.249 138.64 304.796 138.909 304.465C139.186 304.126 139.562 303.956 140.039 303.956C140.923 303.956 141.43 304.58 141.56 305.826H138.425Z" fill="white"/>
<path d="M-0.000322223 -8.34465e-06V-1.41296H-1.28125V-8.34465e-06H-0.000322223ZM497 -8.34465e-06H498.281V-1.41296H497V-8.34465e-06ZM497 349V350.413H498.281V349H497ZM-0.000322223 349H-1.28125V350.413H-0.000322223V349ZM-0.000322223 1.41295H497V-1.41296H-0.000322223V1.41295ZM495.719 -8.34465e-06V349H498.281V-8.34465e-06H495.719ZM497 347.587H-0.000322223V350.413H497V347.587ZM1.28061 349V-8.34465e-06H-1.28125V349H1.28061Z" fill="white"/>
</g>
<defs>
<clipPath id="clip0">
<rect width="497" height="349" fill="white"/>
</clipPath>
</defs>
</svg>
