<svg width="800" height="400" viewBox="0 0 800 400" fill="none" xmlns="http://www.w3.org/2000/svg">
<path d="M39.48 173.42V178.82C39.48 179.58 39.56 180.13 39.72 180.47C39.88 180.81 40.16 181.04 40.56 181.16C40.96 181.28 41.61 181.36 42.51 181.4V182C41.47 181.94 40 181.91 38.1 181.91C36.38 181.91 35.1 181.94 34.26 182V181.4C34.98 181.36 35.5 181.28 35.82 181.16C36.16 181.04 36.39 180.81 36.51 180.47C36.63 180.13 36.69 179.58 36.69 178.82V163.94C36.69 163.18 36.63 162.63 36.51 162.29C36.39 161.95 36.16 161.72 35.82 161.6C35.5 161.48 34.98 161.4 34.26 161.36V160.76C35.1 160.82 36.32 160.85 37.92 160.85L41.16 160.82C41.54 160.8 41.97 160.79 42.45 160.79C44.79 160.79 46.58 161.33 47.82 162.41C49.06 163.47 49.68 164.9 49.68 166.7C49.68 167.8 49.43 168.86 48.93 169.88C48.45 170.88 47.62 171.72 46.44 172.4C45.28 173.08 43.73 173.42 41.79 173.42H39.48ZM41.7 161.36C41.08 161.36 40.61 161.43 40.29 161.57C39.99 161.71 39.78 161.96 39.66 162.32C39.54 162.68 39.48 163.22 39.48 163.94V172.82H41.49C43.45 172.82 44.8 172.3 45.54 171.26C46.3 170.2 46.68 168.79 46.68 167.03C46.68 165.09 46.29 163.66 45.51 162.74C44.75 161.82 43.48 161.36 41.7 161.36ZM55.6252 179.21C55.6252 180.03 55.7952 180.6 56.1352 180.92C56.4752 181.22 57.0652 181.37 57.9052 181.37V182C56.0652 181.92 54.8552 181.88 54.2752 181.88C53.6952 181.88 52.4852 181.92 50.6452 182V181.37C51.4852 181.37 52.0752 181.22 52.4152 180.92C52.7552 180.6 52.9252 180.03 52.9252 179.21V162.08C52.9252 161.16 52.7552 160.49 52.4152 160.07C52.0752 159.65 51.4852 159.44 50.6452 159.44V158.81C51.2652 158.87 51.8852 158.9 52.5052 158.9C53.7652 158.9 54.8052 158.76 55.6252 158.48V179.21ZM63.1591 182.21C61.8991 182.21 60.9591 181.9 60.3391 181.28C59.7391 180.64 59.4391 179.76 59.4391 178.64C59.4391 177.74 59.6791 177 60.1591 176.42C60.6591 175.84 61.2391 175.38 61.8991 175.04C62.5791 174.7 63.4691 174.34 64.5691 173.96C65.6891 173.58 66.5191 173.23 67.0591 172.91C67.5991 172.59 67.8691 172.16 67.8691 171.62V169.76C67.8691 168.6 67.6191 167.81 67.1191 167.39C66.6391 166.95 65.9591 166.73 65.0791 166.73C63.6791 166.73 62.6891 167.09 62.1091 167.81C62.5091 167.91 62.8391 168.12 63.0991 168.44C63.3791 168.76 63.5191 169.16 63.5191 169.64C63.5191 170.14 63.3591 170.54 63.0391 170.84C62.7191 171.12 62.3091 171.26 61.8091 171.26C61.2491 171.26 60.8291 171.09 60.5491 170.75C60.2691 170.39 60.1291 169.96 60.1291 169.46C60.1291 168.98 60.2391 168.58 60.4591 168.26C60.6991 167.94 61.0491 167.62 61.5091 167.3C61.9891 166.96 62.5991 166.68 63.3391 166.46C64.0791 166.24 64.8891 166.13 65.7691 166.13C67.3291 166.13 68.5091 166.5 69.3091 167.24C69.8091 167.7 70.1391 168.26 70.2991 168.92C70.4791 169.56 70.5691 170.41 70.5691 171.47V179.81C70.5691 180.31 70.6391 180.67 70.7791 180.89C70.9191 181.11 71.1591 181.22 71.4991 181.22C71.7391 181.22 71.9591 181.17 72.1591 181.07C72.3791 180.95 72.6091 180.79 72.8491 180.59L73.1791 181.1C72.6591 181.5 72.2091 181.79 71.8291 181.97C71.4691 182.13 71.0091 182.21 70.4491 182.21C69.4891 182.21 68.8191 181.97 68.4391 181.49C68.0591 181.01 67.8691 180.36 67.8691 179.54C67.2691 180.54 66.5791 181.24 65.7991 181.64C65.0191 182.02 64.1391 182.21 63.1591 182.21ZM64.4791 181.01C65.7991 181.01 66.9291 180.25 67.8691 178.73V172.85C67.6891 173.13 67.4391 173.36 67.1191 173.54C66.7991 173.72 66.3091 173.96 65.6491 174.26C64.8891 174.58 64.2691 174.89 63.7891 175.19C63.3291 175.47 62.9291 175.86 62.5891 176.36C62.2491 176.86 62.0791 177.5 62.0791 178.28C62.0791 179.18 62.2991 179.86 62.7391 180.32C63.1791 180.78 63.7591 181.01 64.4791 181.01ZM85.2748 166.64C86.1548 166.64 86.9148 166.61 87.5548 166.55V167.15C87.1548 167.19 86.7948 167.37 86.4748 167.69C86.1748 168.01 85.8848 168.53 85.6048 169.25L80.6848 182.15L79.6648 184.76C79.2848 185.74 78.8548 186.44 78.3748 186.86C78.0748 187.14 77.7148 187.34 77.2948 187.46C76.8748 187.58 76.4548 187.64 76.0348 187.64C75.4348 187.64 74.9448 187.48 74.5648 187.16C74.1848 186.84 73.9948 186.4 73.9948 185.84C73.9948 185.36 74.1348 184.97 74.4148 184.67C74.6948 184.39 75.0848 184.25 75.5848 184.25C76.0248 184.25 76.3848 184.37 76.6648 184.61C76.9648 184.87 77.1148 185.22 77.1148 185.66C77.1148 186.26 76.8448 186.71 76.3048 187.01C76.3448 187.03 76.4048 187.04 76.4848 187.04C77.5848 187.04 78.4348 186.26 79.0348 184.7L80.0848 181.97L74.6548 168.86C74.3148 168.18 73.9748 167.73 73.6348 167.51C73.2948 167.29 72.9548 167.18 72.6148 167.18V166.55C73.4748 166.67 74.4548 166.73 75.5548 166.73C76.5548 166.73 77.8548 166.67 79.4548 166.55V167.18C78.7348 167.18 78.2048 167.24 77.8648 167.36C77.5448 167.48 77.3848 167.77 77.3848 168.23C77.3848 168.65 77.5048 169.14 77.7448 169.7L81.3448 178.64L84.6748 169.97C84.8948 169.37 85.0048 168.91 85.0048 168.59C85.0048 168.13 84.8248 167.79 84.4648 167.57C84.1048 167.35 83.5348 167.21 82.7548 167.15V166.55C83.8148 166.61 84.6548 166.64 85.2748 166.64ZM95.6269 158.54C96.6669 158.54 97.5369 158.81 98.2369 159.35C98.8569 159.85 99.1669 160.47 99.1669 161.21C99.1669 161.67 99.0169 162.05 98.7169 162.35C98.4169 162.65 98.0369 162.8 97.5769 162.8C97.1169 162.8 96.7269 162.66 96.4069 162.38C96.0869 162.08 95.9269 161.68 95.9269 161.18C95.9269 160.76 96.0369 160.42 96.2569 160.16C96.4969 159.9 96.8069 159.73 97.1869 159.65C97.1269 159.45 96.9669 159.29 96.7069 159.17C96.4469 159.05 96.1169 158.99 95.7169 158.99C95.2769 158.99 94.8869 159.09 94.5469 159.29C94.2069 159.49 93.9469 159.76 93.7669 160.1C93.5469 160.5 93.3969 161.09 93.3169 161.87C93.2569 162.65 93.2269 163.96 93.2269 165.8V166.58H96.4369V167.18H93.2269V178.91C93.2269 179.83 93.4869 180.47 94.0069 180.83C94.5469 181.19 95.3469 181.37 96.4069 181.37V182L95.6869 181.97C93.6469 181.91 92.3469 181.88 91.7869 181.88C91.2669 181.88 90.0869 181.92 88.2469 182V181.37C89.0869 181.37 89.6769 181.22 90.0169 180.92C90.3569 180.6 90.5269 180.03 90.5269 179.21V167.18H88.1269V166.58H90.5269C90.5269 164.82 90.6369 163.46 90.8569 162.5C91.0769 161.54 91.4769 160.72 92.0569 160.04C92.4569 159.58 92.9669 159.22 93.5869 158.96C94.2069 158.68 94.8869 158.54 95.6269 158.54ZM101.898 182.21C100.638 182.21 99.6978 181.9 99.0778 181.28C98.4778 180.64 98.1778 179.76 98.1778 178.64C98.1778 177.74 98.4178 177 98.8978 176.42C99.3978 175.84 99.9778 175.38 100.638 175.04C101.318 174.7 102.208 174.34 103.308 173.96C104.428 173.58 105.258 173.23 105.798 172.91C106.338 172.59 106.608 172.16 106.608 171.62V169.76C106.608 168.6 106.358 167.81 105.858 167.39C105.378 166.95 104.698 166.73 103.818 166.73C102.418 166.73 101.428 167.09 100.848 167.81C101.248 167.91 101.578 168.12 101.838 168.44C102.118 168.76 102.258 169.16 102.258 169.64C102.258 170.14 102.098 170.54 101.778 170.84C101.458 171.12 101.048 171.26 100.548 171.26C99.9878 171.26 99.5678 171.09 99.2878 170.75C99.0078 170.39 98.8678 169.96 98.8678 169.46C98.8678 168.98 98.9778 168.58 99.1978 168.26C99.4378 167.94 99.7878 167.62 100.248 167.3C100.728 166.96 101.338 166.68 102.078 166.46C102.818 166.24 103.628 166.13 104.508 166.13C106.068 166.13 107.248 166.5 108.048 167.24C108.548 167.7 108.878 168.26 109.038 168.92C109.218 169.56 109.308 170.41 109.308 171.47V179.81C109.308 180.31 109.378 180.67 109.518 180.89C109.658 181.11 109.898 181.22 110.238 181.22C110.478 181.22 110.698 181.17 110.898 181.07C111.118 180.95 111.348 180.79 111.588 180.59L111.918 181.1C111.398 181.5 110.948 181.79 110.568 181.97C110.208 182.13 109.748 182.21 109.188 182.21C108.228 182.21 107.558 181.97 107.178 181.49C106.798 181.01 106.608 180.36 106.608 179.54C106.008 180.54 105.318 181.24 104.538 181.64C103.758 182.02 102.878 182.21 101.898 182.21ZM103.218 181.01C104.538 181.01 105.668 180.25 106.608 178.73V172.85C106.428 173.13 106.178 173.36 105.858 173.54C105.538 173.72 105.048 173.96 104.388 174.26C103.628 174.58 103.008 174.89 102.528 175.19C102.068 175.47 101.668 175.86 101.328 176.36C100.988 176.86 100.818 177.5 100.818 178.28C100.818 179.18 101.038 179.86 101.478 180.32C101.918 180.78 102.498 181.01 103.218 181.01ZM115.939 159.05C116.459 159.05 116.909 159.24 117.289 159.62C117.669 160 117.859 160.45 117.859 160.97C117.859 161.49 117.669 161.94 117.289 162.32C116.909 162.7 116.459 162.89 115.939 162.89C115.419 162.89 114.969 162.7 114.589 162.32C114.209 161.94 114.019 161.49 114.019 160.97C114.019 160.45 114.209 160 114.589 159.62C114.969 159.24 115.419 159.05 115.939 159.05ZM117.499 179.21C117.499 180.03 117.669 180.6 118.009 180.92C118.349 181.22 118.939 181.37 119.779 181.37V182C117.939 181.92 116.729 181.88 116.149 181.88C115.569 181.88 114.359 181.92 112.519 182V181.37C113.359 181.37 113.949 181.22 114.289 180.92C114.629 180.6 114.799 180.03 114.799 179.21V169.82C114.799 168.9 114.629 168.23 114.289 167.81C113.949 167.39 113.359 167.18 112.519 167.18V166.55C113.159 166.61 113.779 166.64 114.379 166.64C115.639 166.64 116.679 166.5 117.499 166.22V179.21ZM130.338 166.13C131.138 166.13 131.788 166.36 132.288 166.82C132.808 167.28 133.068 167.84 133.068 168.5C133.068 169.02 132.908 169.47 132.588 169.85C132.288 170.21 131.878 170.39 131.358 170.39C130.918 170.39 130.538 170.25 130.218 169.97C129.918 169.69 129.768 169.31 129.768 168.83C129.768 168.17 130.108 167.63 130.788 167.21C130.648 167.01 130.438 166.91 130.158 166.91C129.378 166.91 128.668 167.22 128.028 167.84C127.388 168.44 126.888 169.18 126.528 170.06C126.168 170.94 125.988 171.77 125.988 172.55V178.91C125.988 179.83 126.248 180.47 126.768 180.83C127.308 181.19 128.108 181.37 129.168 181.37V182L128.448 181.97C126.408 181.91 125.108 181.88 124.548 181.88C124.028 181.88 122.848 181.92 121.008 182V181.37C121.848 181.37 122.438 181.22 122.778 180.92C123.118 180.6 123.288 180.03 123.288 179.21V169.82C123.288 168.9 123.118 168.23 122.778 167.81C122.438 167.39 121.848 167.18 121.008 167.18V166.55C121.648 166.61 122.268 166.64 122.868 166.64C124.128 166.64 125.168 166.5 125.988 166.22V169.97C126.348 168.97 126.918 168.08 127.698 167.3C128.498 166.52 129.378 166.13 130.338 166.13ZM149.174 160.76C152.714 160.76 155.364 161.65 157.124 163.43C158.884 165.19 159.764 167.76 159.764 171.14C159.764 173.32 159.334 175.23 158.474 176.87C157.614 178.51 156.364 179.78 154.724 180.68C153.104 181.56 151.164 182 148.904 182L147.164 181.97C146.044 181.93 145.224 181.91 144.704 181.91C143.064 181.91 141.824 181.94 140.984 182V181.4C141.704 181.36 142.224 181.28 142.544 181.16C142.884 181.04 143.114 180.81 143.234 180.47C143.354 180.13 143.414 179.58 143.414 178.82V163.94C143.414 163.18 143.354 162.63 143.234 162.29C143.114 161.95 142.884 161.72 142.544 161.6C142.224 161.48 141.704 161.4 140.984 161.36V160.76C141.684 160.82 142.654 160.85 143.894 160.85L146.444 160.82C147.804 160.78 148.714 160.76 149.174 160.76ZM148.424 161.3C147.804 161.3 147.334 161.37 147.014 161.51C146.714 161.65 146.504 161.9 146.384 162.26C146.264 162.62 146.204 163.16 146.204 163.88V178.88C146.204 179.6 146.264 180.14 146.384 180.5C146.504 180.86 146.714 181.11 147.014 181.25C147.334 181.39 147.814 181.46 148.454 181.46C150.574 181.46 152.244 181.08 153.464 180.32C154.684 179.54 155.534 178.41 156.014 176.93C156.514 175.45 156.764 173.56 156.764 171.26C156.764 168.96 156.494 167.09 155.954 165.65C155.414 164.19 154.534 163.1 153.314 162.38C152.114 161.66 150.484 161.3 148.424 161.3ZM165.394 159.05C165.914 159.05 166.364 159.24 166.744 159.62C167.124 160 167.314 160.45 167.314 160.97C167.314 161.49 167.124 161.94 166.744 162.32C166.364 162.7 165.914 162.89 165.394 162.89C164.874 162.89 164.424 162.7 164.044 162.32C163.664 161.94 163.474 161.49 163.474 160.97C163.474 160.45 163.664 160 164.044 159.62C164.424 159.24 164.874 159.05 165.394 159.05ZM166.954 179.21C166.954 180.03 167.124 180.6 167.464 180.92C167.804 181.22 168.394 181.37 169.234 181.37V182C167.394 181.92 166.184 181.88 165.604 181.88C165.024 181.88 163.814 181.92 161.974 182V181.37C162.814 181.37 163.404 181.22 163.744 180.92C164.084 180.6 164.254 180.03 164.254 179.21V169.82C164.254 168.9 164.084 168.23 163.744 167.81C163.404 167.39 162.814 167.18 161.974 167.18V166.55C162.614 166.61 163.234 166.64 163.834 166.64C165.094 166.64 166.134 166.5 166.954 166.22V179.21ZM175.833 166.13C176.553 166.13 177.193 166.24 177.753 166.46C178.313 166.68 178.763 166.94 179.103 167.24C179.323 167.4 179.503 167.48 179.643 167.48C180.003 167.48 180.223 167.04 180.303 166.16H180.993C180.913 167.14 180.873 168.84 180.873 171.26H180.183C179.963 169.94 179.533 168.85 178.893 167.99C178.273 167.13 177.343 166.7 176.103 166.7C175.383 166.7 174.793 166.91 174.333 167.33C173.873 167.73 173.643 168.29 173.643 169.01C173.643 169.71 173.883 170.3 174.363 170.78C174.843 171.24 175.613 171.8 176.673 172.46C176.853 172.56 177.123 172.73 177.483 172.97C178.403 173.57 179.143 174.1 179.703 174.56C180.263 175.02 180.713 175.55 181.053 176.15C181.413 176.75 181.593 177.44 181.593 178.22C181.593 179.54 181.093 180.57 180.093 181.31C179.113 182.05 177.903 182.42 176.463 182.42C175.563 182.42 174.773 182.28 174.093 182C173.653 181.78 173.243 181.51 172.863 181.19C172.783 181.11 172.693 181.07 172.593 181.07C172.453 181.07 172.323 181.17 172.203 181.37C172.103 181.57 172.023 181.85 171.963 182.21H171.273C171.353 181.07 171.393 179.07 171.393 176.21H172.083C172.303 178.09 172.703 179.5 173.283 180.44C173.863 181.36 174.853 181.82 176.253 181.82C176.953 181.82 177.573 181.59 178.113 181.13C178.653 180.67 178.923 179.95 178.923 178.97C178.923 178.19 178.653 177.53 178.113 176.99C177.593 176.45 176.733 175.8 175.533 175.04C174.553 174.42 173.793 173.91 173.253 173.51C172.733 173.11 172.293 172.62 171.933 172.04C171.573 171.46 171.393 170.78 171.393 170C171.393 168.74 171.813 167.78 172.653 167.12C173.493 166.46 174.553 166.13 175.833 166.13ZM193.151 166.13C194.211 166.13 195.161 166.42 196.001 167C196.861 167.58 197.531 168.43 198.011 169.55C198.491 170.67 198.731 172.01 198.731 173.57C198.731 175.11 198.481 176.55 197.981 177.89C197.501 179.23 196.741 180.32 195.701 181.16C194.681 182 193.401 182.42 191.861 182.42C191.101 182.42 190.411 182.27 189.791 181.97C189.171 181.67 188.691 181.28 188.351 180.8V184.64C188.351 185.46 188.591 186.02 189.071 186.32C189.551 186.64 190.271 186.8 191.231 186.8V187.43L190.541 187.4C188.681 187.34 187.471 187.31 186.911 187.31C186.431 187.31 185.351 187.35 183.671 187.43V186.8C184.411 186.8 184.921 186.66 185.201 186.38C185.501 186.12 185.651 185.64 185.651 184.94V169.82C185.651 168.9 185.481 168.23 185.141 167.81C184.801 167.39 184.211 167.18 183.371 167.18V166.55C183.991 166.61 184.611 166.64 185.231 166.64C186.491 166.64 187.531 166.5 188.351 166.22V169.4C188.791 168.36 189.431 167.56 190.271 167C191.111 166.42 192.071 166.13 193.151 166.13ZM191.531 181.73C194.391 181.73 195.821 179.15 195.821 173.99C195.821 169.35 194.661 167.03 192.341 167.03C191.441 167.03 190.631 167.36 189.911 168.02C189.191 168.66 188.671 169.59 188.351 170.81V179.81C188.631 180.39 189.041 180.86 189.581 181.22C190.121 181.56 190.771 181.73 191.531 181.73ZM205.482 179.21C205.482 180.03 205.652 180.6 205.992 180.92C206.332 181.22 206.922 181.37 207.762 181.37V182C205.922 181.92 204.712 181.88 204.132 181.88C203.552 181.88 202.342 181.92 200.502 182V181.37C201.342 181.37 201.932 181.22 202.272 180.92C202.612 180.6 202.782 180.03 202.782 179.21V162.08C202.782 161.16 202.612 160.49 202.272 160.07C201.932 159.65 201.342 159.44 200.502 159.44V158.81C201.122 158.87 201.742 158.9 202.362 158.9C203.622 158.9 204.662 158.76 205.482 158.48V179.21ZM213.016 182.21C211.756 182.21 210.816 181.9 210.196 181.28C209.596 180.64 209.296 179.76 209.296 178.64C209.296 177.74 209.536 177 210.016 176.42C210.516 175.84 211.096 175.38 211.756 175.04C212.436 174.7 213.326 174.34 214.426 173.96C215.546 173.58 216.376 173.23 216.916 172.91C217.456 172.59 217.726 172.16 217.726 171.62V169.76C217.726 168.6 217.476 167.81 216.976 167.39C216.496 166.95 215.816 166.73 214.936 166.73C213.536 166.73 212.546 167.09 211.966 167.81C212.366 167.91 212.696 168.12 212.956 168.44C213.236 168.76 213.376 169.16 213.376 169.64C213.376 170.14 213.216 170.54 212.896 170.84C212.576 171.12 212.166 171.26 211.666 171.26C211.106 171.26 210.686 171.09 210.406 170.75C210.126 170.39 209.986 169.96 209.986 169.46C209.986 168.98 210.096 168.58 210.316 168.26C210.556 167.94 210.906 167.62 211.366 167.3C211.846 166.96 212.456 166.68 213.196 166.46C213.936 166.24 214.746 166.13 215.626 166.13C217.186 166.13 218.366 166.5 219.166 167.24C219.666 167.7 219.996 168.26 220.156 168.92C220.336 169.56 220.426 170.41 220.426 171.47V179.81C220.426 180.31 220.496 180.67 220.636 180.89C220.776 181.11 221.016 181.22 221.356 181.22C221.596 181.22 221.816 181.17 222.016 181.07C222.236 180.95 222.466 180.79 222.706 180.59L223.036 181.1C222.516 181.5 222.066 181.79 221.686 181.97C221.326 182.13 220.866 182.21 220.306 182.21C219.346 182.21 218.676 181.97 218.296 181.49C217.916 181.01 217.726 180.36 217.726 179.54C217.126 180.54 216.436 181.24 215.656 181.64C214.876 182.02 213.996 182.21 213.016 182.21ZM214.336 181.01C215.656 181.01 216.786 180.25 217.726 178.73V172.85C217.546 173.13 217.296 173.36 216.976 173.54C216.656 173.72 216.166 173.96 215.506 174.26C214.746 174.58 214.126 174.89 213.646 175.19C213.186 175.47 212.786 175.86 212.446 176.36C212.106 176.86 211.936 177.5 211.936 178.28C211.936 179.18 212.156 179.86 212.596 180.32C213.036 180.78 213.616 181.01 214.336 181.01ZM235.132 166.64C236.012 166.64 236.772 166.61 237.412 166.55V167.15C237.012 167.19 236.652 167.37 236.332 167.69C236.032 168.01 235.742 168.53 235.462 169.25L230.542 182.15L229.522 184.76C229.142 185.74 228.712 186.44 228.232 186.86C227.932 187.14 227.572 187.34 227.152 187.46C226.732 187.58 226.312 187.64 225.892 187.64C225.292 187.64 224.802 187.48 224.422 187.16C224.042 186.84 223.852 186.4 223.852 185.84C223.852 185.36 223.992 184.97 224.272 184.67C224.552 184.39 224.942 184.25 225.442 184.25C225.882 184.25 226.242 184.37 226.522 184.61C226.822 184.87 226.972 185.22 226.972 185.66C226.972 186.26 226.702 186.71 226.162 187.01C226.202 187.03 226.262 187.04 226.342 187.04C227.442 187.04 228.292 186.26 228.892 184.7L229.942 181.97L224.512 168.86C224.172 168.18 223.832 167.73 223.492 167.51C223.152 167.29 222.812 167.18 222.472 167.18V166.55C223.332 166.67 224.312 166.73 225.412 166.73C226.412 166.73 227.712 166.67 229.312 166.55V167.18C228.592 167.18 228.062 167.24 227.722 167.36C227.402 167.48 227.242 167.77 227.242 168.23C227.242 168.65 227.362 169.14 227.602 169.7L231.202 178.64L234.532 169.97C234.752 169.37 234.862 168.91 234.862 168.59C234.862 168.13 234.682 167.79 234.322 167.57C233.962 167.35 233.392 167.21 232.612 167.15V166.55C233.672 166.61 234.512 166.64 235.132 166.64Z" fill="white"/>
<path d="M52.65 221.36C51.95 221.4 51.43 221.51 51.09 221.69C50.75 221.85 50.52 222.13 50.4 222.53C50.28 222.91 50.22 223.48 50.22 224.24V233.27C50.22 234.71 50.12 235.95 49.92 236.99C49.74 238.01 49.43 238.89 48.99 239.63C48.49 240.49 47.75 241.17 46.77 241.67C45.81 242.17 44.72 242.42 43.5 242.42C41.3 242.42 39.62 241.88 38.46 240.8C37.58 239.98 36.99 239.05 36.69 238.01C36.39 236.97 36.24 235.42 36.24 233.36V223.94C36.24 223.18 36.18 222.63 36.06 222.29C35.94 221.95 35.71 221.72 35.37 221.6C35.05 221.48 34.53 221.4 33.81 221.36V220.76C34.65 220.82 35.93 220.85 37.65 220.85C39.27 220.85 40.54 220.82 41.46 220.76V221.36C40.74 221.4 40.21 221.48 39.87 221.6C39.55 221.72 39.33 221.95 39.21 222.29C39.09 222.63 39.03 223.18 39.03 223.94V233.87C39.03 235.47 39.14 236.8 39.36 237.86C39.58 238.92 40.03 239.77 40.71 240.41C41.41 241.05 42.43 241.37 43.77 241.37C45.89 241.37 47.38 240.69 48.24 239.33C49.1 237.97 49.53 236.06 49.53 233.6V224.24C49.53 223.16 49.33 222.42 48.93 222.02C48.55 221.62 47.84 221.4 46.8 221.36V220.76C47.52 220.82 48.54 220.85 49.86 220.85C51.06 220.85 51.99 220.82 52.65 220.76V221.36ZM58.6568 226.13C59.3768 226.13 60.0168 226.24 60.5768 226.46C61.1368 226.68 61.5868 226.94 61.9268 227.24C62.1468 227.4 62.3268 227.48 62.4668 227.48C62.8268 227.48 63.0468 227.04 63.1268 226.16H63.8168C63.7368 227.14 63.6968 228.84 63.6968 231.26H63.0068C62.7868 229.94 62.3568 228.85 61.7168 227.99C61.0968 227.13 60.1668 226.7 58.9268 226.7C58.2068 226.7 57.6168 226.91 57.1568 227.33C56.6968 227.73 56.4668 228.29 56.4668 229.01C56.4668 229.71 56.7068 230.3 57.1868 230.78C57.6668 231.24 58.4368 231.8 59.4968 232.46C59.6768 232.56 59.9468 232.73 60.3068 232.97C61.2268 233.57 61.9668 234.1 62.5268 234.56C63.0868 235.02 63.5368 235.55 63.8768 236.15C64.2368 236.75 64.4168 237.44 64.4168 238.22C64.4168 239.54 63.9168 240.57 62.9168 241.31C61.9368 242.05 60.7268 242.42 59.2868 242.42C58.3868 242.42 57.5968 242.28 56.9168 242C56.4768 241.78 56.0668 241.51 55.6868 241.19C55.6068 241.11 55.5168 241.07 55.4168 241.07C55.2768 241.07 55.1468 241.17 55.0268 241.37C54.9268 241.57 54.8468 241.85 54.7868 242.21H54.0968C54.1768 241.07 54.2168 239.07 54.2168 236.21H54.9068C55.1268 238.09 55.5268 239.5 56.1068 240.44C56.6868 241.36 57.6768 241.82 59.0768 241.82C59.7768 241.82 60.3968 241.59 60.9368 241.13C61.4768 240.67 61.7468 239.95 61.7468 238.97C61.7468 238.19 61.4768 237.53 60.9368 236.99C60.4168 236.45 59.5568 235.8 58.3568 235.04C57.3768 234.42 56.6168 233.91 56.0768 233.51C55.5568 233.11 55.1168 232.62 54.7568 232.04C54.3968 231.46 54.2168 230.78 54.2168 230C54.2168 228.74 54.6368 227.78 55.4768 227.12C56.3168 226.46 57.3768 226.13 58.6568 226.13ZM79.4248 238.4C79.0648 239.5 78.3848 240.45 77.3848 241.25C76.4048 242.03 75.2148 242.42 73.8148 242.42C72.3948 242.42 71.1648 242.1 70.1248 241.46C69.0848 240.8 68.2848 239.89 67.7248 238.73C67.1848 237.55 66.9148 236.19 66.9148 234.65C66.9148 232.91 67.1948 231.4 67.7548 230.12C68.3148 228.84 69.1048 227.86 70.1248 227.18C71.1448 226.48 72.3348 226.13 73.6948 226.13C75.4948 226.13 76.8748 226.68 77.8348 227.78C78.8148 228.86 79.3048 230.51 79.3048 232.73H69.9148C69.8548 233.29 69.8248 233.93 69.8248 234.65C69.8248 235.97 70.0348 237.12 70.4548 238.1C70.8948 239.08 71.4648 239.84 72.1648 240.38C72.8848 240.9 73.6348 241.16 74.4148 241.16C75.3748 241.16 76.2248 240.93 76.9648 240.47C77.7048 240.01 78.3248 239.24 78.8248 238.16L79.4248 238.4ZM73.5748 226.7C72.6348 226.7 71.8248 227.16 71.1448 228.08C70.4648 229 70.0448 230.36 69.8848 232.16H76.4248C76.4648 230.6 76.2348 229.3 75.7348 228.26C75.2548 227.22 74.5348 226.7 73.5748 226.7ZM95.8612 218.54C96.9012 218.54 97.7712 218.81 98.4712 219.35C99.0912 219.85 99.4012 220.47 99.4012 221.21C99.4012 221.67 99.2512 222.05 98.9512 222.35C98.6512 222.65 98.2712 222.8 97.8112 222.8C97.3512 222.8 96.9612 222.66 96.6412 222.38C96.3212 222.08 96.1612 221.68 96.1612 221.18C96.1612 220.76 96.2712 220.42 96.4912 220.16C96.7312 219.9 97.0412 219.73 97.4212 219.65C97.3612 219.45 97.2012 219.29 96.9412 219.17C96.6812 219.05 96.3512 218.99 95.9512 218.99C95.5112 218.99 95.1212 219.09 94.7812 219.29C94.4412 219.49 94.1812 219.76 94.0012 220.1C93.7812 220.5 93.6312 221.09 93.5512 221.87C93.4912 222.65 93.4612 223.96 93.4612 225.8V226.58H96.6712V227.18H93.4612V238.91C93.4612 239.83 93.7212 240.47 94.2412 240.83C94.7812 241.19 95.5812 241.37 96.6412 241.37V242L95.9213 241.97C93.8812 241.91 92.5812 241.88 92.0212 241.88C91.5012 241.88 90.3212 241.92 88.4812 242V241.37C89.3212 241.37 89.9112 241.22 90.2512 240.92C90.5912 240.6 90.7612 240.03 90.7612 239.21V227.18H88.3612V226.58H90.7612C90.7612 224.82 90.8712 223.46 91.0912 222.5C91.3112 221.54 91.7112 220.72 92.2912 220.04C92.6912 219.58 93.2012 219.22 93.8212 218.96C94.4412 218.68 95.1212 218.54 95.8612 218.54ZM104.964 226.13C107.004 226.13 108.644 226.81 109.884 228.17C111.144 229.51 111.774 231.55 111.774 234.29C111.774 237.03 111.144 239.07 109.884 240.41C108.644 241.75 107.004 242.42 104.964 242.42C102.924 242.42 101.274 241.75 100.014 240.41C98.7741 239.07 98.1541 237.03 98.1541 234.29C98.1541 231.55 98.7741 229.51 100.014 228.17C101.274 226.81 102.924 226.13 104.964 226.13ZM104.964 226.73C103.764 226.73 102.814 227.35 102.114 228.59C101.414 229.81 101.064 231.71 101.064 234.29C101.064 236.87 101.414 238.77 102.114 239.99C102.814 241.21 103.764 241.82 104.964 241.82C106.164 241.82 107.114 241.21 107.814 239.99C108.514 238.77 108.864 236.87 108.864 234.29C108.864 231.71 108.514 229.81 107.814 228.59C107.114 227.35 106.164 226.73 104.964 226.73ZM123.08 226.13C123.88 226.13 124.53 226.36 125.03 226.82C125.55 227.28 125.81 227.84 125.81 228.5C125.81 229.02 125.65 229.47 125.33 229.85C125.03 230.21 124.62 230.39 124.1 230.39C123.66 230.39 123.28 230.25 122.96 229.97C122.66 229.69 122.51 229.31 122.51 228.83C122.51 228.17 122.85 227.63 123.53 227.21C123.39 227.01 123.18 226.91 122.9 226.91C122.12 226.91 121.41 227.22 120.77 227.84C120.13 228.44 119.63 229.18 119.27 230.06C118.91 230.94 118.73 231.77 118.73 232.55V238.91C118.73 239.83 118.99 240.47 119.51 240.83C120.05 241.19 120.85 241.37 121.91 241.37V242L121.19 241.97C119.15 241.91 117.85 241.88 117.29 241.88C116.77 241.88 115.59 241.92 113.75 242V241.37C114.59 241.37 115.18 241.22 115.52 240.92C115.86 240.6 116.03 240.03 116.03 239.21V229.82C116.03 228.9 115.86 228.23 115.52 227.81C115.18 227.39 114.59 227.18 113.75 227.18V226.55C114.39 226.61 115.01 226.64 115.61 226.64C116.87 226.64 117.91 226.5 118.73 226.22V229.97C119.09 228.97 119.66 228.08 120.44 227.3C121.24 226.52 122.12 226.13 123.08 226.13ZM137.137 229.73C137.637 228.47 138.327 227.56 139.207 227C140.107 226.42 141.117 226.13 142.237 226.13C143.637 226.13 144.697 226.51 145.417 227.27C145.797 227.67 146.067 228.17 146.227 228.77C146.387 229.37 146.467 230.18 146.467 231.2V239.21C146.467 240.03 146.637 240.6 146.977 240.92C147.317 241.22 147.907 241.37 148.747 241.37V242C146.907 241.92 145.707 241.88 145.147 241.88C144.587 241.88 143.467 241.92 141.787 242V241.37C142.527 241.37 143.037 241.22 143.317 240.92C143.617 240.6 143.767 240.03 143.767 239.21V230.54C143.767 229.42 143.607 228.57 143.287 227.99C142.967 227.39 142.317 227.09 141.337 227.09C140.517 227.09 139.787 227.32 139.147 227.78C138.527 228.24 138.037 228.89 137.677 229.73C137.317 230.55 137.137 231.48 137.137 232.52V239.21C137.137 240.03 137.277 240.6 137.557 240.92C137.857 241.22 138.377 241.37 139.117 241.37V242C137.437 241.92 136.317 241.88 135.757 241.88C135.197 241.88 133.997 241.92 132.157 242V241.37C132.997 241.37 133.587 241.22 133.927 240.92C134.267 240.6 134.437 240.03 134.437 239.21V222.11C134.437 221.19 134.267 220.52 133.927 220.1C133.587 219.68 132.997 219.47 132.157 219.47V218.84C132.797 218.9 133.417 218.93 134.017 218.93C135.277 218.93 136.317 218.79 137.137 218.51V229.73ZM162.784 238.4C162.424 239.5 161.744 240.45 160.744 241.25C159.764 242.03 158.574 242.42 157.174 242.42C155.754 242.42 154.524 242.1 153.484 241.46C152.444 240.8 151.644 239.89 151.084 238.73C150.544 237.55 150.274 236.19 150.274 234.65C150.274 232.91 150.554 231.4 151.114 230.12C151.674 228.84 152.464 227.86 153.484 227.18C154.504 226.48 155.694 226.13 157.054 226.13C158.854 226.13 160.234 226.68 161.194 227.78C162.174 228.86 162.664 230.51 162.664 232.73H153.274C153.214 233.29 153.184 233.93 153.184 234.65C153.184 235.97 153.394 237.12 153.814 238.1C154.254 239.08 154.824 239.84 155.524 240.38C156.244 240.9 156.994 241.16 157.774 241.16C158.734 241.16 159.584 240.93 160.324 240.47C161.064 240.01 161.684 239.24 162.184 238.16L162.784 238.4ZM156.934 226.7C155.994 226.7 155.184 227.16 154.504 228.08C153.824 229 153.404 230.36 153.244 232.16H159.784C159.824 230.6 159.594 229.3 159.094 228.26C158.614 227.22 157.894 226.7 156.934 226.7ZM168.66 242.21C167.4 242.21 166.46 241.9 165.84 241.28C165.24 240.64 164.94 239.76 164.94 238.64C164.94 237.74 165.18 237 165.66 236.42C166.16 235.84 166.74 235.38 167.4 235.04C168.08 234.7 168.97 234.34 170.07 233.96C171.19 233.58 172.02 233.23 172.56 232.91C173.1 232.59 173.37 232.16 173.37 231.62V229.76C173.37 228.6 173.12 227.81 172.62 227.39C172.14 226.95 171.46 226.73 170.58 226.73C169.18 226.73 168.19 227.09 167.61 227.81C168.01 227.91 168.34 228.12 168.6 228.44C168.88 228.76 169.02 229.16 169.02 229.64C169.02 230.14 168.86 230.54 168.54 230.84C168.22 231.12 167.81 231.26 167.31 231.26C166.75 231.26 166.33 231.09 166.05 230.75C165.77 230.39 165.63 229.96 165.63 229.46C165.63 228.98 165.74 228.58 165.96 228.26C166.2 227.94 166.55 227.62 167.01 227.3C167.49 226.96 168.1 226.68 168.84 226.46C169.58 226.24 170.39 226.13 171.27 226.13C172.83 226.13 174.01 226.5 174.81 227.24C175.31 227.7 175.64 228.26 175.8 228.92C175.98 229.56 176.07 230.41 176.07 231.47V239.81C176.07 240.31 176.14 240.67 176.28 240.89C176.42 241.11 176.66 241.22 177 241.22C177.24 241.22 177.46 241.17 177.66 241.07C177.88 240.95 178.11 240.79 178.35 240.59L178.68 241.1C178.16 241.5 177.71 241.79 177.33 241.97C176.97 242.13 176.51 242.21 175.95 242.21C174.99 242.21 174.32 241.97 173.94 241.49C173.56 241.01 173.37 240.36 173.37 239.54C172.77 240.54 172.08 241.24 171.3 241.64C170.52 242.02 169.64 242.21 168.66 242.21ZM169.98 241.01C171.3 241.01 172.43 240.25 173.37 238.73V232.85C173.19 233.13 172.94 233.36 172.62 233.54C172.3 233.72 171.81 233.96 171.15 234.26C170.39 234.58 169.77 234.89 169.29 235.19C168.83 235.47 168.43 235.86 168.09 236.36C167.75 236.86 167.58 237.5 167.58 238.28C167.58 239.18 167.8 239.86 168.24 240.32C168.68 240.78 169.26 241.01 169.98 241.01ZM192.931 238.73C192.931 239.65 193.101 240.32 193.441 240.74C193.781 241.16 194.371 241.37 195.211 241.37V242C194.591 241.94 193.971 241.91 193.351 241.91C192.091 241.91 191.051 242.05 190.231 242.33V239.66C189.871 240.56 189.331 241.25 188.611 241.73C187.891 242.19 187.011 242.42 185.971 242.42C184.051 242.42 182.541 241.73 181.441 240.35C180.361 238.97 179.831 236.95 179.851 234.29C179.851 232.55 180.151 231.07 180.751 229.85C181.371 228.61 182.191 227.68 183.211 227.06C184.251 226.44 185.391 226.13 186.631 226.13C187.391 226.13 188.081 226.28 188.701 226.58C189.341 226.86 189.851 227.3 190.231 227.9V222.08C190.231 221.16 190.061 220.49 189.721 220.07C189.381 219.65 188.791 219.44 187.951 219.44V218.81C188.591 218.87 189.211 218.9 189.811 218.9C191.071 218.9 192.111 218.76 192.931 218.48V238.73ZM186.841 241.52C187.621 241.52 188.321 241.22 188.941 240.62C189.561 240.02 189.991 239.17 190.231 238.07V229.13C189.691 227.59 188.571 226.82 186.871 226.82C185.631 226.82 184.631 227.46 183.871 228.74C183.111 230 182.741 231.85 182.761 234.29C182.741 236.69 183.081 238.5 183.781 239.72C184.481 240.92 185.501 241.52 186.841 241.52ZM201.183 239.21C201.183 240.03 201.353 240.6 201.693 240.92C202.033 241.22 202.623 241.37 203.463 241.37V242C201.623 241.92 200.413 241.88 199.833 241.88C199.253 241.88 198.043 241.92 196.203 242V241.37C197.043 241.37 197.633 241.22 197.973 240.92C198.313 240.6 198.483 240.03 198.483 239.21V222.08C198.483 221.16 198.313 220.49 197.973 220.07C197.633 219.65 197.043 219.44 196.203 219.44V218.81C196.823 218.87 197.443 218.9 198.063 218.9C199.323 218.9 200.363 218.76 201.183 218.48V239.21ZM208.117 219.05C208.637 219.05 209.087 219.24 209.467 219.62C209.847 220 210.037 220.45 210.037 220.97C210.037 221.49 209.847 221.94 209.467 222.32C209.087 222.7 208.637 222.89 208.117 222.89C207.597 222.89 207.147 222.7 206.767 222.32C206.387 221.94 206.197 221.49 206.197 220.97C206.197 220.45 206.387 220 206.767 219.62C207.147 219.24 207.597 219.05 208.117 219.05ZM209.677 239.21C209.677 240.03 209.847 240.6 210.187 240.92C210.527 241.22 211.117 241.37 211.957 241.37V242C210.117 241.92 208.907 241.88 208.327 241.88C207.747 241.88 206.537 241.92 204.697 242V241.37C205.537 241.37 206.127 241.22 206.467 240.92C206.807 240.6 206.977 240.03 206.977 239.21V229.82C206.977 228.9 206.807 228.23 206.467 227.81C206.127 227.39 205.537 227.18 204.697 227.18V226.55C205.337 226.61 205.957 226.64 206.557 226.64C207.817 226.64 208.857 226.5 209.677 226.22V239.21ZM223.266 226.13C224.666 226.13 225.726 226.51 226.446 227.27C226.826 227.67 227.096 228.17 227.256 228.77C227.416 229.37 227.496 230.18 227.496 231.2V239.21C227.496 240.03 227.666 240.6 228.006 240.92C228.346 241.22 228.936 241.37 229.776 241.37V242C227.936 241.92 226.736 241.88 226.176 241.88C225.616 241.88 224.496 241.92 222.816 242V241.37C223.556 241.37 224.066 241.22 224.346 240.92C224.646 240.6 224.796 240.03 224.796 239.21V230.54C224.796 229.42 224.636 228.57 224.316 227.99C223.996 227.39 223.346 227.09 222.366 227.09C221.546 227.09 220.816 227.33 220.176 227.81C219.536 228.29 219.036 228.95 218.676 229.79C218.336 230.61 218.166 231.53 218.166 232.55V239.21C218.166 240.03 218.306 240.6 218.586 240.92C218.886 241.22 219.406 241.37 220.146 241.37V242C218.466 241.92 217.346 241.88 216.786 241.88C216.226 241.88 215.026 241.92 213.186 242V241.37C214.026 241.37 214.616 241.22 214.956 240.92C215.296 240.6 215.466 240.03 215.466 239.21V229.82C215.466 228.9 215.296 228.23 214.956 227.81C214.616 227.39 214.026 227.18 213.186 227.18V226.55C213.826 226.61 214.446 226.64 215.046 226.64C216.306 226.64 217.346 226.5 218.166 226.22V229.76C218.666 228.48 219.356 227.56 220.236 227C221.136 226.42 222.146 226.13 223.266 226.13ZM243.806 238.4C243.446 239.5 242.766 240.45 241.766 241.25C240.786 242.03 239.596 242.42 238.196 242.42C236.776 242.42 235.546 242.1 234.506 241.46C233.466 240.8 232.666 239.89 232.106 238.73C231.566 237.55 231.296 236.19 231.296 234.65C231.296 232.91 231.576 231.4 232.136 230.12C232.696 228.84 233.486 227.86 234.506 227.18C235.526 226.48 236.716 226.13 238.076 226.13C239.876 226.13 241.256 226.68 242.216 227.78C243.196 228.86 243.686 230.51 243.686 232.73H234.296C234.236 233.29 234.206 233.93 234.206 234.65C234.206 235.97 234.416 237.12 234.836 238.1C235.276 239.08 235.846 239.84 236.546 240.38C237.266 240.9 238.016 241.16 238.796 241.16C239.756 241.16 240.606 240.93 241.346 240.47C242.086 240.01 242.706 239.24 243.206 238.16L243.806 238.4ZM237.956 226.7C237.016 226.7 236.206 227.16 235.526 228.08C234.846 229 234.426 230.36 234.266 232.16H240.806C240.846 230.6 240.616 229.3 240.116 228.26C239.636 227.22 238.916 226.7 237.956 226.7ZM251.032 226.13C251.752 226.13 252.392 226.24 252.952 226.46C253.512 226.68 253.962 226.94 254.302 227.24C254.522 227.4 254.702 227.48 254.842 227.48C255.202 227.48 255.422 227.04 255.502 226.16H256.192C256.112 227.14 256.072 228.84 256.072 231.26H255.382C255.162 229.94 254.732 228.85 254.092 227.99C253.472 227.13 252.542 226.7 251.302 226.7C250.582 226.7 249.992 226.91 249.532 227.33C249.072 227.73 248.842 228.29 248.842 229.01C248.842 229.71 249.082 230.3 249.562 230.78C250.042 231.24 250.812 231.8 251.872 232.46C252.052 232.56 252.322 232.73 252.682 232.97C253.602 233.57 254.342 234.1 254.902 234.56C255.462 235.02 255.912 235.55 256.252 236.15C256.612 236.75 256.792 237.44 256.792 238.22C256.792 239.54 256.292 240.57 255.292 241.31C254.312 242.05 253.102 242.42 251.662 242.42C250.762 242.42 249.972 242.28 249.292 242C248.852 241.78 248.442 241.51 248.062 241.19C247.982 241.11 247.892 241.07 247.792 241.07C247.652 241.07 247.522 241.17 247.402 241.37C247.302 241.57 247.222 241.85 247.162 242.21H246.472C246.552 241.07 246.592 239.07 246.592 236.21H247.282C247.502 238.09 247.902 239.5 248.482 240.44C249.062 241.36 250.052 241.82 251.452 241.82C252.152 241.82 252.772 241.59 253.312 241.13C253.852 240.67 254.122 239.95 254.122 238.97C254.122 238.19 253.852 237.53 253.312 236.99C252.792 236.45 251.932 235.8 250.732 235.04C249.752 234.42 248.992 233.91 248.452 233.51C247.932 233.11 247.492 232.62 247.132 232.04C246.772 231.46 246.592 230.78 246.592 230C246.592 228.74 247.012 227.78 247.852 227.12C248.692 226.46 249.752 226.13 251.032 226.13Z" fill="white"/>
<path d="M359.01 139.48C359.49 140.72 360.18 141.36 361.08 141.4V142C360.28 141.94 359.21 141.91 357.87 141.91C356.15 141.91 354.87 141.94 354.03 142V141.4C354.79 141.36 355.33 141.27 355.65 141.13C355.99 140.97 356.16 140.69 356.16 140.29C356.16 139.95 356.04 139.48 355.8 138.88L353.97 133.96H346.71L345.48 137.14C345.08 138.22 344.88 139.04 344.88 139.6C344.88 140.22 345.09 140.67 345.51 140.95C345.95 141.23 346.61 141.38 347.49 141.4V142C346.35 141.94 345.2 141.91 344.04 141.91C343.14 141.91 342.39 141.94 341.79 142V141.4C342.79 141.16 343.58 140.29 344.16 138.79L351.21 120.61H351.69L359.01 139.48ZM353.73 133.36L350.37 124.39L346.95 133.36H353.73ZM385.587 130.78C387.787 131.08 389.357 131.72 390.297 132.7C391.237 133.66 391.707 134.82 391.707 136.18C391.707 137.32 391.417 138.33 390.837 139.21C390.257 140.09 389.427 140.78 388.347 141.28C387.267 141.76 385.987 142 384.507 142C383.967 142 383.507 141.99 383.127 141.97C381.847 141.93 380.587 141.91 379.347 141.91C377.707 141.91 376.467 141.94 375.627 142V141.4C376.347 141.36 376.867 141.28 377.187 141.16C377.527 141.04 377.757 140.81 377.877 140.47C377.997 140.13 378.057 139.58 378.057 138.82V123.94C378.057 123.18 377.997 122.63 377.877 122.29C377.757 121.95 377.527 121.72 377.187 121.6C376.867 121.48 376.347 121.4 375.627 121.36V120.76C376.467 120.82 377.687 120.85 379.287 120.85L382.527 120.82C382.907 120.8 383.337 120.79 383.817 120.79C385.857 120.79 387.417 121.22 388.497 122.08C389.597 122.94 390.147 124.08 390.147 125.5C390.147 126.66 389.777 127.7 389.037 128.62C388.317 129.54 387.167 130.24 385.587 130.72V130.78ZM383.067 121.36C382.447 121.36 381.977 121.43 381.657 121.57C381.357 121.71 381.147 121.96 381.027 122.32C380.907 122.68 380.847 123.22 380.847 123.94V130.72H382.857C384.497 130.72 385.637 130.28 386.277 129.4C386.937 128.5 387.267 127.31 387.267 125.83C387.267 124.33 386.937 123.21 386.277 122.47C385.617 121.73 384.547 121.36 383.067 121.36ZM383.097 141.31C386.837 141.31 388.707 139.56 388.707 136.06C388.707 134.48 388.277 133.28 387.417 132.46C386.577 131.64 385.227 131.23 383.367 131.23H380.847V138.82C380.847 139.54 380.907 140.07 381.027 140.41C381.147 140.75 381.357 140.99 381.657 141.13C381.977 141.25 382.457 141.31 383.097 141.31ZM417.659 120.34C418.859 120.34 419.879 120.51 420.719 120.85C421.559 121.19 422.379 121.67 423.179 122.29C423.399 122.47 423.589 122.56 423.749 122.56C424.149 122.56 424.409 121.96 424.529 120.76H425.219C425.139 122.06 425.099 124.36 425.099 127.66H424.409C424.189 126.36 423.989 125.43 423.809 124.87C423.629 124.29 423.329 123.74 422.909 123.22C422.309 122.44 421.539 121.86 420.599 121.48C419.679 121.08 418.679 120.88 417.599 120.88C416.299 120.88 415.159 121.31 414.179 122.17C413.219 123.03 412.469 124.26 411.929 125.86C411.389 127.44 411.119 129.3 411.119 131.44C411.119 133.62 411.409 135.49 411.989 137.05C412.569 138.61 413.369 139.8 414.389 140.62C415.429 141.42 416.599 141.82 417.899 141.82C418.899 141.82 419.869 141.63 420.809 141.25C421.749 140.87 422.489 140.3 423.029 139.54C423.429 138.98 423.719 138.38 423.899 137.74C424.079 137.1 424.249 136.12 424.409 134.8H425.099C425.099 138.24 425.139 140.64 425.219 142H424.529C424.469 141.36 424.379 140.91 424.259 140.65C424.159 140.37 424.009 140.23 423.809 140.23C423.649 140.23 423.439 140.31 423.179 140.47C422.279 141.11 421.419 141.6 420.599 141.94C419.779 142.26 418.789 142.42 417.629 142.42C415.729 142.42 414.059 141.99 412.619 141.13C411.199 140.27 410.089 139.03 409.289 137.41C408.509 135.77 408.119 133.82 408.119 131.56C408.119 129.36 408.519 127.41 409.319 125.71C410.139 124.01 411.269 122.69 412.709 121.75C414.169 120.81 415.819 120.34 417.659 120.34ZM450.104 120.76C453.644 120.76 456.294 121.65 458.054 123.43C459.814 125.19 460.694 127.76 460.694 131.14C460.694 133.32 460.264 135.23 459.404 136.87C458.544 138.51 457.294 139.78 455.654 140.68C454.034 141.56 452.094 142 449.834 142L448.094 141.97C446.974 141.93 446.154 141.91 445.634 141.91C443.994 141.91 442.754 141.94 441.914 142V141.4C442.634 141.36 443.154 141.28 443.474 141.16C443.814 141.04 444.044 140.81 444.164 140.47C444.284 140.13 444.344 139.58 444.344 138.82V123.94C444.344 123.18 444.284 122.63 444.164 122.29C444.044 121.95 443.814 121.72 443.474 121.6C443.154 121.48 442.634 121.4 441.914 121.36V120.76C442.614 120.82 443.584 120.85 444.824 120.85L447.374 120.82C448.734 120.78 449.644 120.76 450.104 120.76ZM449.354 121.3C448.734 121.3 448.264 121.37 447.944 121.51C447.644 121.65 447.434 121.9 447.314 122.26C447.194 122.62 447.134 123.16 447.134 123.88V138.88C447.134 139.6 447.194 140.14 447.314 140.5C447.434 140.86 447.644 141.11 447.944 141.25C448.264 141.39 448.744 141.46 449.384 141.46C451.504 141.46 453.174 141.08 454.394 140.32C455.614 139.54 456.464 138.41 456.944 136.93C457.444 135.45 457.694 133.56 457.694 131.26C457.694 128.96 457.424 127.09 456.884 125.65C456.344 124.19 455.464 123.1 454.244 122.38C453.044 121.66 451.414 121.3 449.354 121.3ZM492.425 138.16C492.425 139.3 492.495 140.58 492.635 142C491.275 141.94 488.985 141.91 485.765 141.91C481.925 141.91 479.025 141.94 477.065 142V141.4C477.785 141.36 478.305 141.28 478.625 141.16C478.965 141.04 479.195 140.81 479.315 140.47C479.435 140.13 479.495 139.58 479.495 138.82V123.94C479.495 123.18 479.435 122.63 479.315 122.29C479.195 121.95 478.965 121.72 478.625 121.6C478.305 121.48 477.785 121.4 477.065 121.36V120.76C479.025 120.82 481.925 120.85 485.765 120.85C488.705 120.85 490.795 120.82 492.035 120.76C491.895 122.08 491.825 123.26 491.825 124.3C491.825 125.08 491.855 125.7 491.915 126.16H491.225C491.085 124.86 490.905 123.9 490.685 123.28C490.465 122.64 490.095 122.18 489.575 121.9C489.055 121.6 488.265 121.45 487.205 121.45H484.715C483.995 121.45 483.465 121.51 483.125 121.63C482.805 121.73 482.585 121.95 482.465 122.29C482.345 122.63 482.285 123.18 482.285 123.94V131.02H484.265C484.965 131.02 485.505 130.86 485.885 130.54C486.265 130.2 486.515 129.81 486.635 129.37C486.775 128.91 486.885 128.34 486.965 127.66L487.055 127.06H487.745C487.685 127.9 487.655 128.84 487.655 129.88V131.32C487.655 132.34 487.715 133.76 487.835 135.58H487.145C487.125 135.44 487.065 134.96 486.965 134.14C486.865 133.3 486.585 132.67 486.125 132.25C485.685 131.83 485.065 131.62 484.265 131.62H482.285V138.82C482.285 139.58 482.345 140.13 482.465 140.47C482.585 140.81 482.805 141.04 483.125 141.16C483.465 141.26 483.995 141.31 484.715 141.31H486.905C488.145 141.31 489.085 141.15 489.725 140.83C490.385 140.49 490.865 139.96 491.165 139.24C491.465 138.5 491.685 137.42 491.825 136H492.515C492.455 136.54 492.425 137.26 492.425 138.16ZM523.787 120.76C523.647 122.18 523.577 123.46 523.577 124.6C523.577 125.6 523.607 126.42 523.667 127.06H522.977C522.817 125.52 522.617 124.38 522.377 123.64C522.137 122.88 521.717 122.33 521.117 121.99C520.517 121.63 519.597 121.45 518.357 121.45H516.467C515.747 121.45 515.217 121.51 514.877 121.63C514.557 121.73 514.337 121.95 514.217 122.29C514.097 122.63 514.037 123.18 514.037 123.94V131.32H516.227C516.927 131.32 517.467 131.16 517.847 130.84C518.227 130.5 518.477 130.11 518.597 129.67C518.737 129.21 518.847 128.64 518.927 127.96L519.017 127.36H519.707C519.647 128.2 519.617 129.14 519.617 130.18V131.62C519.617 132.64 519.677 134.06 519.797 135.88H519.107C519.087 135.74 519.027 135.26 518.927 134.44C518.827 133.6 518.547 132.97 518.087 132.55C517.647 132.13 517.027 131.92 516.227 131.92H514.037V138.82C514.037 139.58 514.117 140.13 514.277 140.47C514.437 140.81 514.717 141.04 515.117 141.16C515.517 141.28 516.167 141.36 517.067 141.4V142C516.027 141.94 514.557 141.91 512.657 141.91C510.937 141.91 509.657 141.94 508.817 142V141.4C509.537 141.36 510.057 141.28 510.377 141.16C510.717 141.04 510.947 140.81 511.067 140.47C511.187 140.13 511.247 139.58 511.247 138.82V123.94C511.247 123.18 511.187 122.63 511.067 122.29C510.947 121.95 510.717 121.72 510.377 121.6C510.057 121.48 509.537 121.4 508.817 121.36V120.76C510.777 120.82 513.677 120.85 517.517 120.85C520.457 120.85 522.547 120.82 523.787 120.76ZM548.655 120.34C549.835 120.34 550.805 120.51 551.565 120.85C552.325 121.17 553.155 121.65 554.055 122.29C554.315 122.49 554.515 122.59 554.655 122.59C555.035 122.59 555.285 121.98 555.405 120.76H556.095C556.015 122.06 555.975 124.36 555.975 127.66H555.285C555.105 126.6 554.915 125.73 554.715 125.05C554.515 124.35 554.205 123.74 553.785 123.22C553.205 122.5 552.445 121.93 551.505 121.51C550.585 121.09 549.615 120.88 548.595 120.88C547.275 120.88 546.115 121.31 545.115 122.17C544.115 123.03 543.345 124.26 542.805 125.86C542.265 127.44 541.995 129.29 541.995 131.41C541.995 135.01 542.565 137.65 543.705 139.33C544.865 140.99 546.675 141.82 549.135 141.82C550.335 141.82 551.375 141.51 552.255 140.89C552.615 140.65 552.845 140.42 552.945 140.2C553.065 139.96 553.125 139.64 553.125 139.24V136.36C553.125 135.52 553.045 134.91 552.885 134.53C552.725 134.15 552.445 133.89 552.045 133.75C551.645 133.61 550.995 133.52 550.095 133.48V132.88C551.135 132.94 552.545 132.97 554.325 132.97C555.685 132.97 556.725 132.94 557.445 132.88V133.48C556.985 133.52 556.645 133.6 556.425 133.72C556.225 133.84 556.085 134.07 556.005 134.41C555.945 134.75 555.915 135.3 555.915 136.06V142H555.315C555.295 141.6 555.215 141.22 555.075 140.86C554.935 140.48 554.745 140.29 554.505 140.29C554.385 140.29 554.265 140.32 554.145 140.38C554.025 140.44 553.815 140.58 553.515 140.8C552.815 141.34 552.085 141.74 551.325 142C550.585 142.28 549.755 142.42 548.835 142.42C546.775 142.42 545.005 142 543.525 141.16C542.065 140.3 540.945 139.07 540.165 137.47C539.385 135.87 538.995 133.96 538.995 131.74C538.995 129.46 539.405 127.46 540.225 125.74C541.065 124 542.215 122.67 543.675 121.75C545.135 120.81 546.795 120.34 548.655 120.34ZM593.389 121.36C592.669 121.4 592.139 121.48 591.799 121.6C591.479 121.72 591.259 121.95 591.139 122.29C591.019 122.63 590.959 123.18 590.959 123.94V138.82C590.959 139.58 591.019 140.13 591.139 140.47C591.259 140.81 591.479 141.04 591.799 141.16C592.139 141.28 592.669 141.36 593.389 141.4V142C592.549 141.94 591.269 141.91 589.549 141.91C587.929 141.91 586.659 141.94 585.739 142V141.4C586.459 141.36 586.979 141.28 587.299 141.16C587.639 141.04 587.869 140.81 587.989 140.47C588.109 140.13 588.169 139.58 588.169 138.82V131.62H578.419V138.82C578.419 139.58 578.479 140.13 578.599 140.47C578.719 140.81 578.939 141.04 579.259 141.16C579.599 141.28 580.129 141.36 580.849 141.4V142C579.929 141.94 578.659 141.91 577.039 141.91C575.319 141.91 574.039 141.94 573.199 142V141.4C573.919 141.36 574.439 141.28 574.759 141.16C575.099 141.04 575.329 140.81 575.449 140.47C575.569 140.13 575.629 139.58 575.629 138.82V123.94C575.629 123.18 575.569 122.63 575.449 122.29C575.329 121.95 575.099 121.72 574.759 121.6C574.439 121.48 573.919 121.4 573.199 121.36V120.76C574.039 120.82 575.319 120.85 577.039 120.85C578.639 120.85 579.909 120.82 580.849 120.76V121.36C580.129 121.4 579.599 121.48 579.259 121.6C578.939 121.72 578.719 121.95 578.599 122.29C578.479 122.63 578.419 123.18 578.419 123.94V131.02H588.169V123.94C588.169 123.18 588.109 122.63 587.989 122.29C587.869 121.95 587.639 121.72 587.299 121.6C586.979 121.48 586.459 121.4 585.739 121.36V120.76C586.659 120.82 587.929 120.85 589.549 120.85C591.269 120.85 592.549 120.82 593.389 120.76V121.36ZM617.025 121.36C616.305 121.4 615.775 121.48 615.435 121.6C615.115 121.72 614.895 121.95 614.775 122.29C614.655 122.63 614.595 123.18 614.595 123.94V138.82C614.595 139.58 614.655 140.13 614.775 140.47C614.895 140.81 615.115 141.04 615.435 141.16C615.775 141.28 616.305 141.36 617.025 141.4V142C616.105 141.94 614.835 141.91 613.215 141.91C611.495 141.91 610.215 141.94 609.375 142V141.4C610.095 141.36 610.615 141.28 610.935 141.16C611.275 141.04 611.505 140.81 611.625 140.47C611.745 140.13 611.805 139.58 611.805 138.82V123.94C611.805 123.18 611.745 122.63 611.625 122.29C611.505 121.95 611.275 121.72 610.935 121.6C610.615 121.48 610.095 121.4 609.375 121.36V120.76C610.215 120.82 611.495 120.85 613.215 120.85C614.815 120.85 616.085 120.82 617.025 120.76V121.36ZM631.152 147.07C632.552 147.03 633.582 146.51 634.242 145.51C634.922 144.51 635.262 142.82 635.262 140.44V123.94C635.262 123.18 635.202 122.63 635.082 122.29C634.962 121.95 634.732 121.72 634.392 121.6C634.072 121.48 633.552 121.4 632.832 121.36V120.76C633.672 120.82 634.932 120.85 636.612 120.85C638.252 120.85 639.542 120.82 640.482 120.76V121.36C639.762 121.4 639.232 121.48 638.892 121.6C638.572 121.72 638.352 121.95 638.232 122.29C638.112 122.63 638.052 123.18 638.052 123.94V134.92C638.052 136.62 638.022 138.13 637.962 139.45C637.902 140.75 637.762 141.85 637.542 142.75C637.182 144.21 636.442 145.39 635.322 146.29C634.222 147.19 632.832 147.64 631.152 147.64V147.07ZM671.988 139.57C672.328 140.07 672.698 140.47 673.098 140.77C673.518 141.05 674.028 141.26 674.628 141.4V142C673.668 141.94 672.468 141.91 671.028 141.91C669.948 141.91 668.918 141.94 667.938 142V141.4C668.418 141.38 668.768 141.32 668.988 141.22C669.208 141.12 669.318 140.97 669.318 140.77C669.318 140.57 669.218 140.33 669.018 140.05L664.638 133.45C664.058 132.57 663.568 132 663.168 131.74C662.768 131.46 662.208 131.3 661.488 131.26V138.82C661.488 139.58 661.548 140.13 661.668 140.47C661.788 140.81 662.008 141.04 662.328 141.16C662.668 141.28 663.198 141.36 663.918 141.4V142C662.998 141.94 661.728 141.91 660.108 141.91C658.388 141.91 657.108 141.94 656.268 142V141.4C656.988 141.36 657.508 141.28 657.828 141.16C658.168 141.04 658.398 140.81 658.518 140.47C658.638 140.13 658.698 139.58 658.698 138.82V123.94C658.698 123.18 658.638 122.63 658.518 122.29C658.398 121.95 658.168 121.72 657.828 121.6C657.508 121.48 656.988 121.4 656.268 121.36V120.76C657.108 120.82 658.388 120.85 660.108 120.85C661.708 120.85 662.978 120.82 663.918 120.76V121.36C663.198 121.4 662.668 121.48 662.328 121.6C662.008 121.72 661.788 121.95 661.668 122.29C661.548 122.63 661.488 123.18 661.488 123.94V130.66C662.948 130.6 664.088 130.04 664.908 128.98L667.788 125.32C668.808 124.06 669.318 123.1 669.318 122.44C669.318 121.74 668.698 121.38 667.458 121.36V120.76C668.598 120.82 669.748 120.85 670.908 120.85C672.008 120.85 672.858 120.82 673.458 120.76V121.36C672.798 121.46 672.178 121.68 671.598 122.02C671.018 122.34 670.458 122.85 669.918 123.55L665.028 129.82L671.988 139.57ZM697.047 121.36C696.327 121.4 695.797 121.48 695.457 121.6C695.137 121.72 694.917 121.95 694.797 122.29C694.677 122.63 694.617 123.18 694.617 123.94V138.82C694.617 139.58 694.677 140.13 694.797 140.47C694.917 140.81 695.137 141.04 695.457 141.16C695.797 141.26 696.327 141.31 697.047 141.31H699.237C700.477 141.31 701.417 141.14 702.057 140.8C702.717 140.44 703.197 139.87 703.497 139.09C703.797 138.31 704.017 137.18 704.157 135.7H704.847C704.787 136.32 704.757 137.14 704.757 138.16C704.757 139.3 704.827 140.58 704.967 142C703.607 141.94 701.317 141.91 698.097 141.91C694.257 141.91 691.357 141.94 689.397 142V141.4C690.117 141.36 690.637 141.28 690.957 141.16C691.297 141.04 691.527 140.81 691.647 140.47C691.767 140.13 691.827 139.58 691.827 138.82V123.94C691.827 123.18 691.767 122.63 691.647 122.29C691.527 121.95 691.297 121.72 690.957 121.6C690.637 121.48 690.117 121.4 689.397 121.36V120.76C690.237 120.82 691.517 120.85 693.237 120.85C694.837 120.85 696.107 120.82 697.047 120.76V121.36ZM744.114 121.36C743.394 121.4 742.864 121.48 742.524 121.6C742.204 121.72 741.984 121.95 741.864 122.29C741.744 122.63 741.684 123.18 741.684 123.94V138.82C741.684 139.58 741.744 140.13 741.864 140.47C741.984 140.81 742.204 141.04 742.524 141.16C742.864 141.28 743.394 141.36 744.114 141.4V142C743.194 141.94 741.924 141.91 740.304 141.91C738.584 141.91 737.304 141.94 736.464 142V141.4C737.184 141.36 737.704 141.28 738.024 141.16C738.364 141.04 738.594 140.81 738.714 140.47C738.834 140.13 738.894 139.58 738.894 138.82V122.74L731.664 142.15H731.184L723.624 122.68V138.52C723.624 139.3 723.684 139.88 723.804 140.26C723.944 140.64 724.204 140.92 724.584 141.1C724.964 141.26 725.554 141.36 726.354 141.4V142C725.634 141.94 724.614 141.91 723.294 141.91C722.094 141.91 721.164 141.94 720.504 142V141.4C721.204 141.36 721.724 141.26 722.064 141.1C722.404 140.92 722.634 140.64 722.754 140.26C722.874 139.86 722.934 139.28 722.934 138.52V123.94C722.934 123.18 722.874 122.63 722.754 122.29C722.634 121.95 722.404 121.72 722.064 121.6C721.744 121.48 721.224 121.4 720.504 121.36V120.76C721.164 120.82 722.094 120.85 723.294 120.85C724.334 120.85 725.184 120.82 725.844 120.76L732.444 138.13L738.894 120.85H740.304C741.924 120.85 743.194 120.82 744.114 120.76V121.36Z" fill="white"/>
<path d="M359.1 190.36C358.4 190.4 357.88 190.51 357.54 190.69C357.2 190.85 356.97 191.13 356.85 191.53C356.73 191.91 356.67 192.48 356.67 193.24V211.15H355.98L343.38 191.68V207.52C343.38 208.3 343.44 208.88 343.56 209.26C343.7 209.64 343.96 209.92 344.34 210.1C344.72 210.26 345.31 210.36 346.11 210.4V211C345.39 210.94 344.37 210.91 343.05 210.91C341.85 210.91 340.92 210.94 340.26 211V210.4C340.96 210.36 341.48 210.26 341.82 210.1C342.16 209.92 342.39 209.64 342.51 209.26C342.63 208.86 342.69 208.28 342.69 207.52V192.94C342.69 192.18 342.63 191.63 342.51 191.29C342.39 190.95 342.16 190.72 341.82 190.6C341.5 190.48 340.98 190.4 340.26 190.36V189.76C340.92 189.82 341.85 189.85 343.05 189.85C343.95 189.85 344.73 189.82 345.39 189.76L355.98 206.08V193.24C355.98 192.46 355.91 191.88 355.77 191.5C355.65 191.12 355.4 190.85 355.02 190.69C354.64 190.51 354.05 190.4 353.25 190.36V189.76C353.97 189.82 354.99 189.85 356.31 189.85C357.51 189.85 358.44 189.82 359.1 189.76V190.36ZM384.782 189.34C386.682 189.34 388.342 189.77 389.762 190.63C391.202 191.49 392.312 192.74 393.092 194.38C393.892 196 394.292 197.94 394.292 200.2C394.292 202.4 393.882 204.35 393.062 206.05C392.262 207.75 391.132 209.07 389.672 210.01C388.232 210.95 386.592 211.42 384.752 211.42C382.852 211.42 381.182 210.99 379.742 210.13C378.322 209.27 377.212 208.03 376.412 206.41C375.632 204.77 375.242 202.82 375.242 200.56C375.242 198.36 375.642 196.41 376.442 194.71C377.262 193.01 378.392 191.69 379.832 190.75C381.292 189.81 382.942 189.34 384.782 189.34ZM384.662 189.88C383.382 189.88 382.252 190.33 381.272 191.23C380.312 192.11 379.562 193.35 379.022 194.95C378.502 196.55 378.242 198.38 378.242 200.44C378.242 202.52 378.532 204.35 379.112 205.93C379.712 207.51 380.512 208.73 381.512 209.59C382.512 210.45 383.632 210.88 384.872 210.88C386.152 210.88 387.272 210.44 388.232 209.56C389.212 208.66 389.962 207.41 390.482 205.81C391.022 204.21 391.292 202.38 391.292 200.32C391.292 198.24 390.992 196.41 390.392 194.83C389.812 193.25 389.022 192.03 388.022 191.17C387.022 190.31 385.902 189.88 384.662 189.88ZM415.839 202.42V207.82C415.839 208.58 415.919 209.13 416.079 209.47C416.239 209.81 416.519 210.04 416.919 210.16C417.319 210.28 417.969 210.36 418.869 210.4V211C417.829 210.94 416.359 210.91 414.459 210.91C412.739 210.91 411.459 210.94 410.619 211V210.4C411.339 210.36 411.859 210.28 412.179 210.16C412.519 210.04 412.749 209.81 412.869 209.47C412.989 209.13 413.049 208.58 413.049 207.82V192.94C413.049 192.18 412.989 191.63 412.869 191.29C412.749 190.95 412.519 190.72 412.179 190.6C411.859 190.48 411.339 190.4 410.619 190.36V189.76C411.459 189.82 412.679 189.85 414.279 189.85L417.519 189.82C417.899 189.8 418.329 189.79 418.809 189.79C421.149 189.79 422.939 190.33 424.179 191.41C425.419 192.47 426.039 193.9 426.039 195.7C426.039 196.8 425.789 197.86 425.289 198.88C424.809 199.88 423.979 200.72 422.799 201.4C421.639 202.08 420.089 202.42 418.149 202.42H415.839ZM418.059 190.36C417.439 190.36 416.969 190.43 416.649 190.57C416.349 190.71 416.139 190.96 416.019 191.32C415.899 191.68 415.839 192.22 415.839 192.94V201.82H417.849C419.809 201.82 421.159 201.3 421.899 200.26C422.659 199.2 423.039 197.79 423.039 196.03C423.039 194.09 422.649 192.66 421.869 191.74C421.109 190.82 419.839 190.36 418.059 190.36ZM462.507 211.87C462.067 213.39 461.437 214.53 460.617 215.29C459.637 216.19 458.287 216.64 456.567 216.64C455.647 216.64 454.747 216.5 453.867 216.22C452.987 215.94 451.877 215.5 450.537 214.9C449.057 214.26 447.847 213.78 446.907 213.46L446.187 213.25C445.327 213.55 444.497 213.7 443.697 213.7C442.777 213.7 442.317 213.5 442.317 213.1C442.317 212.68 442.857 212.47 443.937 212.47C444.637 212.47 445.387 212.55 446.187 212.71C446.827 212.53 447.567 212.25 448.407 211.87C448.927 211.63 449.317 211.46 449.577 211.36C447.877 211.2 446.397 210.67 445.137 209.77C443.897 208.87 442.927 207.64 442.227 206.08C441.547 204.5 441.207 202.66 441.207 200.56C441.207 198.36 441.607 196.41 442.407 194.71C443.227 193.01 444.357 191.69 445.797 190.75C447.257 189.81 448.907 189.34 450.747 189.34C452.647 189.34 454.307 189.77 455.727 190.63C457.167 191.49 458.277 192.74 459.057 194.38C459.857 196 460.257 197.94 460.257 200.2C460.257 202.28 459.897 204.14 459.177 205.78C458.457 207.4 457.447 208.7 456.147 209.68C454.847 210.64 453.357 211.2 451.677 211.36V211.39C451.197 211.45 450.777 211.53 450.417 211.63C450.077 211.75 449.617 211.93 449.037 212.17C448.317 212.49 447.717 212.72 447.237 212.86C449.457 213.3 451.337 213.65 452.877 213.91C454.437 214.17 455.727 214.3 456.747 214.3C458.167 214.3 459.287 214.09 460.107 213.67C460.947 213.27 461.597 212.61 462.057 211.69L462.507 211.87ZM444.207 200.44C444.207 202.52 444.497 204.35 445.077 205.93C445.677 207.51 446.477 208.73 447.477 209.59C448.477 210.45 449.597 210.88 450.837 210.88C452.117 210.88 453.237 210.44 454.197 209.56C455.177 208.66 455.927 207.41 456.447 205.81C456.987 204.21 457.257 202.38 457.257 200.32C457.257 198.24 456.957 196.41 456.357 194.83C455.777 193.25 454.987 192.03 453.987 191.17C452.987 190.31 451.867 189.88 450.627 189.88C449.347 189.88 448.217 190.33 447.237 191.23C446.277 192.11 445.527 193.35 444.987 194.95C444.467 196.55 444.207 198.38 444.207 200.44ZM495.124 209.5C494.664 210.18 494.204 210.67 493.744 210.97C493.284 211.27 492.674 211.42 491.914 211.42C491.094 211.42 490.414 211.18 489.874 210.7C489.354 210.22 488.964 209.38 488.704 208.18L488.044 205.18C487.804 204.14 487.574 203.34 487.354 202.78C487.154 202.22 486.844 201.77 486.424 201.43C486.004 201.09 485.414 200.92 484.654 200.92H481.804V207.82C481.804 208.58 481.864 209.13 481.984 209.47C482.104 209.81 482.324 210.04 482.644 210.16C482.984 210.28 483.514 210.36 484.234 210.4V211C483.314 210.94 482.044 210.91 480.424 210.91C478.704 210.91 477.424 210.94 476.584 211V210.4C477.304 210.36 477.824 210.28 478.144 210.16C478.484 210.04 478.714 209.81 478.834 209.47C478.954 209.13 479.014 208.58 479.014 207.82V192.94C479.014 192.18 478.954 191.63 478.834 191.29C478.714 190.95 478.484 190.72 478.144 190.6C477.824 190.48 477.304 190.4 476.584 190.36V189.76C477.424 189.82 478.644 189.85 480.244 189.85L483.484 189.82C483.864 189.8 484.294 189.79 484.774 189.79C487.094 189.79 488.874 190.28 490.114 191.26C491.374 192.22 492.004 193.47 492.004 195.01C492.004 195.79 491.814 196.58 491.434 197.38C491.074 198.16 490.454 198.87 489.574 199.51C488.714 200.13 487.584 200.55 486.184 200.77L486.544 200.83C487.864 201.05 488.824 201.45 489.424 202.03C490.024 202.61 490.464 203.53 490.744 204.79L491.494 207.85C491.694 208.77 491.904 209.41 492.124 209.77C492.344 210.13 492.644 210.31 493.024 210.31C493.364 210.31 493.644 210.22 493.864 210.04C494.104 209.86 494.374 209.57 494.674 209.17L495.124 209.5ZM484.024 190.36C483.404 190.36 482.934 190.43 482.614 190.57C482.314 190.71 482.104 190.96 481.984 191.32C481.864 191.68 481.804 192.22 481.804 192.94V200.32H483.814C485.794 200.32 487.154 199.88 487.894 199C488.634 198.12 489.004 196.9 489.004 195.34C489.004 193.7 488.614 192.46 487.834 191.62C487.054 190.78 485.784 190.36 484.024 190.36ZM515.576 189.43C516.456 189.43 517.146 189.53 517.646 189.73C518.166 189.91 518.696 190.18 519.236 190.54C519.676 190.82 520.016 190.96 520.256 190.96C520.436 190.96 520.576 190.86 520.676 190.66C520.776 190.44 520.856 190.1 520.916 189.64H521.606C521.506 190.8 521.456 192.84 521.456 195.76H520.766C520.646 194.14 520.176 192.78 519.356 191.68C518.556 190.56 517.386 190 515.846 190C514.766 190 513.886 190.33 513.206 190.99C512.526 191.63 512.186 192.46 512.186 193.48C512.186 194.24 512.356 194.9 512.696 195.46C513.056 196.02 513.506 196.5 514.046 196.9C514.586 197.3 515.356 197.81 516.356 198.43L517.226 198.97C518.486 199.75 519.476 200.44 520.196 201.04C520.936 201.62 521.526 202.29 521.966 203.05C522.406 203.81 522.626 204.7 522.626 205.72C522.626 207.54 522.026 208.95 520.826 209.95C519.626 210.93 518.106 211.42 516.266 211.42C515.306 211.42 514.516 211.32 513.896 211.12C513.296 210.92 512.716 210.65 512.156 210.31C511.716 210.03 511.376 209.89 511.136 209.89C510.956 209.89 510.816 210 510.716 210.22C510.616 210.42 510.536 210.75 510.476 211.21H509.786C509.866 210.11 509.906 207.71 509.906 204.01H510.596C510.736 206.03 511.236 207.67 512.096 208.93C512.956 210.19 514.276 210.82 516.056 210.82C517.136 210.82 518.056 210.49 518.816 209.83C519.576 209.15 519.956 208.15 519.956 206.83C519.956 205.71 519.576 204.76 518.816 203.98C518.076 203.2 516.896 202.32 515.276 201.34C514.096 200.62 513.136 199.98 512.396 199.42C511.676 198.86 511.086 198.19 510.626 197.41C510.166 196.61 509.936 195.68 509.936 194.62C509.936 192.94 510.476 191.66 511.556 190.78C512.636 189.88 513.976 189.43 515.576 189.43ZM554.596 189.76C554.456 191.18 554.386 192.46 554.386 193.6C554.386 194.6 554.416 195.42 554.476 196.06H553.786C553.626 194.52 553.426 193.38 553.186 192.64C552.946 191.88 552.526 191.33 551.926 190.99C551.326 190.63 550.406 190.45 549.166 190.45H547.546V207.52C547.546 208.36 547.626 208.97 547.786 209.35C547.946 209.73 548.226 209.99 548.626 210.13C549.026 210.27 549.676 210.36 550.576 210.4V211C549.536 210.94 548.066 210.91 546.166 210.91C544.166 210.91 542.686 210.94 541.726 211V210.4C542.626 210.36 543.276 210.27 543.676 210.13C544.076 209.99 544.356 209.73 544.516 209.35C544.676 208.97 544.756 208.36 544.756 207.52V190.45H543.136C541.896 190.45 540.976 190.63 540.376 190.99C539.776 191.33 539.356 191.88 539.116 192.64C538.876 193.38 538.676 194.52 538.516 196.06H537.826C537.886 195.42 537.916 194.6 537.916 193.6C537.916 192.46 537.846 191.18 537.706 189.76C539.366 189.82 542.186 189.85 546.166 189.85C550.126 189.85 552.936 189.82 554.596 189.76ZM587.857 190.36C587.157 190.4 586.637 190.51 586.297 190.69C585.957 190.85 585.727 191.13 585.607 191.53C585.487 191.91 585.427 192.48 585.427 193.24V202.27C585.427 203.71 585.327 204.95 585.127 205.99C584.947 207.01 584.637 207.89 584.197 208.63C583.697 209.49 582.957 210.17 581.977 210.67C581.017 211.17 579.927 211.42 578.707 211.42C576.507 211.42 574.827 210.88 573.667 209.8C572.787 208.98 572.197 208.05 571.897 207.01C571.597 205.97 571.447 204.42 571.447 202.36V192.94C571.447 192.18 571.387 191.63 571.267 191.29C571.147 190.95 570.917 190.72 570.577 190.6C570.257 190.48 569.737 190.4 569.017 190.36V189.76C569.857 189.82 571.137 189.85 572.857 189.85C574.477 189.85 575.747 189.82 576.667 189.76V190.36C575.947 190.4 575.417 190.48 575.077 190.6C574.757 190.72 574.537 190.95 574.417 191.29C574.297 191.63 574.237 192.18 574.237 192.94V202.87C574.237 204.47 574.347 205.8 574.567 206.86C574.787 207.92 575.237 208.77 575.917 209.41C576.617 210.05 577.637 210.37 578.977 210.37C581.097 210.37 582.587 209.69 583.447 208.33C584.307 206.97 584.737 205.06 584.737 202.6V193.24C584.737 192.16 584.537 191.42 584.137 191.02C583.757 190.62 583.047 190.4 582.007 190.36V189.76C582.727 189.82 583.747 189.85 585.067 189.85C586.267 189.85 587.197 189.82 587.857 189.76V190.36ZM617.962 189.85C618.862 189.85 619.612 189.82 620.212 189.76V190.36C619.212 190.6 618.422 191.47 617.842 192.97L610.792 211.15H610.552H610.312L602.992 192.28C602.512 191.04 601.822 190.4 600.922 190.36V189.76C601.722 189.82 602.792 189.85 604.132 189.85C605.852 189.85 607.132 189.82 607.972 189.76V190.36C607.212 190.4 606.662 190.5 606.322 190.66C606.002 190.8 605.842 191.07 605.842 191.47C605.842 191.81 605.962 192.28 606.202 192.88L611.632 207.31L616.522 194.62C616.922 193.54 617.122 192.72 617.122 192.16C617.122 191.54 616.902 191.09 616.462 190.81C616.042 190.53 615.392 190.38 614.512 190.36V189.76C615.652 189.82 616.802 189.85 617.962 189.85ZM656.407 189.85C657.307 189.85 658.057 189.82 658.657 189.76V190.36C657.537 190.62 656.747 191.49 656.287 192.97L650.617 211.15H650.377H650.137L644.917 195.7L640.147 211.15H639.907H639.667L633.307 192.28C632.887 191.04 632.197 190.4 631.237 190.36V189.76C632.057 189.82 633.127 189.85 634.447 189.85C635.887 189.85 636.967 189.82 637.687 189.76V190.36C637.147 190.4 636.767 190.5 636.547 190.66C636.327 190.82 636.217 191.07 636.217 191.41C636.217 191.73 636.327 192.22 636.547 192.88L640.927 206.26L644.587 194.65L643.777 192.28C643.377 191.04 642.787 190.4 642.007 190.36V189.76C642.727 189.82 643.697 189.85 644.917 189.85C646.637 189.85 647.917 189.82 648.757 189.76V190.36C647.997 190.4 647.467 190.49 647.167 190.63C646.867 190.75 646.717 191.02 646.717 191.44C646.717 191.8 646.817 192.28 647.017 192.88L651.337 206.23L655.027 194.62C655.347 193.64 655.507 192.83 655.507 192.19C655.507 191.53 655.307 191.07 654.907 190.81C654.507 190.53 653.857 190.38 652.957 190.36V189.76C654.097 189.82 655.247 189.85 656.407 189.85ZM687.47 208.87C687.85 209.45 688.17 209.84 688.43 210.04C688.69 210.24 689.04 210.35 689.48 210.37V211C688.12 210.92 687.26 210.88 686.9 210.88C686.24 210.88 684.83 210.92 682.67 211V210.37C683.45 210.37 684 210.34 684.32 210.28C684.64 210.2 684.8 210.07 684.8 209.89C684.8 209.73 684.73 209.55 684.59 209.35L679.46 201.49L676.22 206.32C675.46 207.46 675.08 208.34 675.08 208.96C675.08 209.48 675.31 209.85 675.77 210.07C676.23 210.27 676.89 210.38 677.75 210.4V211C676.61 210.94 675.26 210.91 673.7 210.91C672.6 210.91 671.75 210.94 671.15 211V210.4C671.75 210.32 672.32 210.05 672.86 209.59C673.42 209.13 673.98 208.48 674.54 207.64L679.07 200.89L673.19 191.89C672.81 191.31 672.49 190.92 672.23 190.72C671.97 190.52 671.62 190.41 671.18 190.39V189.76C672.54 189.84 673.4 189.88 673.76 189.88C675.1 189.88 676.51 189.84 677.99 189.76V190.39C677.27 190.39 676.75 190.45 676.43 190.57C676.13 190.67 675.98 190.83 675.98 191.05C675.98 191.17 676.07 191.39 676.25 191.71L680.93 198.85L683.87 194.44C684.73 193.18 685.16 192.22 685.16 191.56C685.16 191.14 684.97 190.84 684.59 190.66C684.21 190.48 683.63 190.38 682.85 190.36V189.76C683.99 189.82 685.14 189.85 686.3 189.85C687.4 189.85 688.25 189.82 688.85 189.76V190.36C688.25 190.44 687.67 190.71 687.11 191.17C686.57 191.63 686.02 192.28 685.46 193.12L681.26 199.39L687.47 208.87ZM717.138 189.85C718.038 189.85 718.788 189.82 719.388 189.76V190.36C718.988 190.46 718.598 190.72 718.218 191.14C717.838 191.54 717.428 192.17 716.988 193.03L712.278 202.36V207.82C712.278 208.58 712.338 209.13 712.458 209.47C712.578 209.81 712.798 210.04 713.118 210.16C713.458 210.28 713.988 210.36 714.708 210.4V211C713.788 210.94 712.518 210.91 710.898 210.91C709.178 210.91 707.898 210.94 707.058 211V210.4C707.778 210.36 708.298 210.28 708.618 210.16C708.958 210.04 709.188 209.81 709.308 209.47C709.428 209.13 709.488 208.58 709.488 207.82V203.32L703.398 192.07C703.038 191.41 702.718 190.97 702.438 190.75C702.178 190.51 701.918 190.39 701.658 190.39V189.76C702.438 189.82 703.318 189.85 704.298 189.85C706.238 189.85 707.638 189.82 708.498 189.76V190.39C707.098 190.39 706.398 190.77 706.398 191.53C706.398 191.83 706.498 192.18 706.698 192.58L711.678 202.15L715.518 194.53C716.058 193.47 716.328 192.61 716.328 191.95C716.328 191.39 716.108 190.99 715.668 190.75C715.228 190.51 714.568 190.38 713.688 190.36V189.76C714.828 189.82 715.978 189.85 717.138 189.85ZM748.477 190.36L736.507 210.31H742.387C743.627 210.31 744.567 210.14 745.207 209.8C745.867 209.44 746.347 208.87 746.647 208.09C746.947 207.31 747.167 206.18 747.307 204.7H747.997C747.937 205.32 747.907 206.14 747.907 207.16C747.907 208.3 747.977 209.58 748.117 211C746.637 210.94 744.147 210.91 740.647 210.91C737.227 210.91 734.757 210.94 733.237 211V210.4L745.297 190.45H739.447C738.207 190.45 737.257 190.63 736.597 190.99C735.957 191.33 735.487 191.89 735.187 192.67C734.887 193.45 734.667 194.58 734.527 196.06H733.837C733.897 195.42 733.927 194.6 733.927 193.6C733.927 192.46 733.857 191.18 733.717 189.76C735.197 189.82 737.687 189.85 741.187 189.85C744.587 189.85 747.017 189.82 748.477 189.76V190.36Z" fill="white"/>
<path d="M420.59 277.91C420.59 278.85 420.8 279.5 421.22 279.86C421.66 280.2 422.41 280.37 423.47 280.37V281C421.31 280.92 419.93 280.88 419.33 280.88C418.77 280.88 417.47 280.91 415.43 280.97L414.71 281V280.37C415.77 280.37 416.56 280.19 417.08 279.83C417.62 279.47 417.89 278.83 417.89 277.91V270.65C417.89 269.69 417.79 268.99 417.59 268.55C417.39 268.09 417.05 267.79 416.57 267.65C416.11 267.49 415.39 267.41 414.41 267.41V266.75C415.87 266.71 417.07 266.58 418.01 266.36C418.97 266.14 419.83 265.76 420.59 265.22V277.91ZM444.894 265.13C446.294 265.13 447.394 265.46 448.194 266.12C448.994 266.78 449.394 267.71 449.394 268.91C449.394 269.73 449.174 270.53 448.734 271.31C448.314 272.07 447.794 272.77 447.174 273.41C446.574 274.05 445.774 274.82 444.774 275.72C443.954 276.48 443.344 277.06 442.944 277.46C442.544 277.84 442.184 278.25 441.864 278.69H447.954C448.494 278.69 448.894 278.65 449.154 278.57C449.434 278.47 449.624 278.32 449.724 278.12C449.824 277.9 449.904 277.58 449.964 277.16H450.474C450.474 279 450.514 280.33 450.594 281.15C450.154 281.05 448.664 281 446.124 281H439.104V280.49C439.444 280.13 440.024 279.56 440.844 278.78C441.984 277.72 442.934 276.77 443.694 275.93C444.454 275.07 445.104 274.1 445.644 273.02C446.204 271.94 446.484 270.79 446.484 269.57C446.484 267.41 445.484 266.33 443.484 266.33C441.844 266.33 440.504 267.27 439.464 269.15L438.984 268.88C439.504 267.8 440.244 266.91 441.204 266.21C442.164 265.49 443.394 265.13 444.894 265.13ZM472.21 265.13C473.47 265.13 474.5 265.44 475.3 266.06C476.12 266.68 476.53 267.51 476.53 268.55C476.53 269.65 476.09 270.64 475.21 271.52C474.35 272.4 473.3 273.06 472.06 273.5C473.6 273.54 474.91 273.95 475.99 274.73C477.07 275.51 477.61 276.62 477.61 278.06C477.61 279.5 477.05 280.79 475.93 281.93C474.83 283.07 473.42 283.95 471.7 284.57C470 285.21 468.27 285.53 466.51 285.53V284.99C467.93 284.95 469.27 284.65 470.53 284.09C471.79 283.55 472.81 282.76 473.59 281.72C474.37 280.7 474.76 279.48 474.76 278.06C474.76 276.88 474.47 275.91 473.89 275.15C473.31 274.37 472.54 273.94 471.58 273.86C471.5 273.9 471.29 273.99 470.95 274.13C470.63 274.25 470.37 274.31 470.17 274.31C469.85 274.31 469.69 274.18 469.69 273.92C469.69 273.74 469.76 273.6 469.9 273.5C470.06 273.4 470.25 273.35 470.47 273.35C470.59 273.35 470.75 273.37 470.95 273.41C471.17 273.43 471.36 273.45 471.52 273.47C472.3 272.87 472.88 272.2 473.26 271.46C473.64 270.72 473.83 269.95 473.83 269.15C473.83 268.23 473.6 267.55 473.14 267.11C472.68 266.67 472.04 266.45 471.22 266.45C470.38 266.45 469.62 266.68 468.94 267.14C468.26 267.58 467.69 268.24 467.23 269.12L466.72 268.88C467.88 266.38 469.71 265.13 472.21 265.13ZM505.472 279.53C505.212 279.47 504.212 279.42 502.472 279.38V285.23H500.072V279.38H492.242V278.75L501.992 265.13H502.472V277.37H502.832C503.372 277.37 503.772 277.33 504.032 277.25C504.312 277.15 504.502 277 504.602 276.8C504.702 276.58 504.782 276.26 504.842 275.84H505.352C505.352 277.52 505.392 278.75 505.472 279.53ZM500.072 277.37V268.79L494.012 277.37H500.072ZM530.047 264.05C530.047 266.09 530.087 267.55 530.167 268.43C529.747 268.33 528.357 268.28 525.997 268.28H522.817L522.457 274.07C523.017 273.79 523.557 273.57 524.077 273.41C524.597 273.25 525.227 273.17 525.967 273.17C527.707 273.17 529.027 273.6 529.927 274.46C530.827 275.3 531.277 276.41 531.277 277.79C531.277 279.27 530.787 280.59 529.807 281.75C528.847 282.93 527.597 283.84 526.057 284.48C524.537 285.12 522.977 285.44 521.377 285.44V284.9C522.597 284.88 523.737 284.61 524.797 284.09C525.877 283.57 526.747 282.8 527.407 281.78C528.087 280.76 528.427 279.53 528.427 278.09C528.427 276.83 528.097 275.85 527.437 275.15C526.777 274.43 525.847 274.07 524.647 274.07C524.167 274.07 523.757 274.11 523.417 274.19C523.077 274.27 522.667 274.4 522.187 274.58L521.887 274.4L522.457 265.46C522.857 265.54 523.397 265.58 524.077 265.58H527.467C528.007 265.58 528.407 265.54 528.667 265.46C528.947 265.36 529.137 265.21 529.237 265.01C529.337 264.79 529.417 264.47 529.477 264.05H530.047ZM554.509 267.86C555.469 267.86 556.359 268.12 557.179 268.64C557.999 269.16 558.659 269.92 559.159 270.92C559.659 271.9 559.909 273.06 559.909 274.4C559.909 275.86 559.609 277.12 559.009 278.18C558.429 279.24 557.639 280.05 556.639 280.61C555.639 281.15 554.529 281.42 553.309 281.42C551.389 281.42 549.889 280.67 548.809 279.17C547.729 277.67 547.189 275.58 547.189 272.9C547.189 270.1 547.719 267.73 548.779 265.79C549.859 263.83 551.169 262.34 552.709 261.32C554.249 260.28 555.799 259.61 557.359 259.31L557.479 259.91C556.259 260.31 555.159 260.85 554.179 261.53C553.219 262.21 552.369 263.26 551.629 264.68C550.889 266.1 550.419 267.97 550.219 270.29C550.679 269.45 551.309 268.84 552.109 268.46C552.909 268.06 553.709 267.86 554.509 267.86ZM553.609 280.82C554.589 280.82 555.399 280.31 556.039 279.29C556.679 278.27 556.999 276.71 556.999 274.61C556.999 272.57 556.699 271.08 556.099 270.14C555.499 269.2 554.719 268.73 553.759 268.73C553.059 268.73 552.359 268.94 551.659 269.36C550.979 269.76 550.469 270.41 550.129 271.31C550.109 271.63 550.099 272.14 550.099 272.84C550.099 275.72 550.439 277.77 551.119 278.99C551.799 280.21 552.629 280.82 553.609 280.82ZM586.448 266.21C586.148 266.91 585.628 267.98 584.888 269.42C584.108 270.92 583.478 272.22 582.998 273.32C582.518 274.4 582.108 275.65 581.768 277.07C581.428 278.47 581.258 279.96 581.258 281.54C581.258 281.94 581.278 282.42 581.318 282.98C581.358 283.42 581.378 283.73 581.378 283.91C581.378 284.37 581.248 284.74 580.988 285.02C580.728 285.3 580.388 285.44 579.968 285.44C579.528 285.44 579.188 285.28 578.948 284.96C578.728 284.64 578.618 284.24 578.618 283.76C578.618 282.22 578.848 280.7 579.308 279.2C579.788 277.7 580.358 276.32 581.018 275.06C581.698 273.78 582.578 272.25 583.658 270.47L585.068 268.1H577.958C577.418 268.1 577.008 268.15 576.728 268.25C576.468 268.33 576.288 268.48 576.188 268.7C576.088 268.9 576.008 269.21 575.948 269.63H575.438C575.438 267.65 575.398 266.25 575.318 265.43C575.778 265.53 577.268 265.58 579.788 265.58H586.448V266.21ZM609.024 268.97C610.144 269.79 611.014 270.48 611.634 271.04C612.254 271.58 612.784 272.24 613.224 273.02C613.684 273.8 613.914 274.69 613.914 275.69C613.914 276.81 613.634 277.81 613.074 278.69C612.514 279.55 611.744 280.22 610.764 280.7C609.784 281.18 608.674 281.42 607.434 281.42C605.734 281.42 604.304 280.99 603.144 280.13C601.984 279.25 601.404 278 601.404 276.38C601.404 275 601.844 273.77 602.724 272.69C603.604 271.61 604.764 270.71 606.204 269.99C604.984 268.99 604.044 268.04 603.384 267.14C602.724 266.24 602.394 265.2 602.394 264.02C602.394 263.1 602.634 262.29 603.114 261.59C603.594 260.87 604.254 260.32 605.094 259.94C605.934 259.54 606.864 259.34 607.884 259.34C609.304 259.34 610.484 259.7 611.424 260.42C612.364 261.14 612.834 262.15 612.834 263.45C612.834 264.53 612.504 265.52 611.844 266.42C611.184 267.32 610.244 268.17 609.024 268.97ZM607.554 259.88C606.734 259.88 606.054 260.17 605.514 260.75C604.994 261.33 604.734 262.11 604.734 263.09C604.734 264.23 605.054 265.21 605.694 266.03C606.354 266.83 607.314 267.7 608.574 268.64C609.814 267.46 610.434 265.86 610.434 263.84C610.434 262.64 610.184 261.68 609.684 260.96C609.184 260.24 608.474 259.88 607.554 259.88ZM607.614 280.88C608.674 280.88 609.564 280.53 610.284 279.83C611.004 279.13 611.364 278.17 611.364 276.95C611.364 276.01 611.144 275.17 610.704 274.43C610.284 273.67 609.774 273.02 609.174 272.48C608.594 271.94 607.754 271.23 606.654 270.35C604.914 271.61 604.044 273.47 604.044 275.93C604.044 277.35 604.334 278.53 604.914 279.47C605.494 280.41 606.394 280.88 607.614 280.88ZM636.61 265.13C638.53 265.13 640.03 265.83 641.11 267.23C642.19 268.61 642.73 270.55 642.73 273.05C642.73 275.59 642.19 277.75 641.11 279.53C640.05 281.31 638.74 282.67 637.18 283.61C635.64 284.57 634.1 285.18 632.56 285.44L632.44 284.84C634.26 284.32 635.8 283.46 637.06 282.26C638.32 281.06 639.16 279.13 639.58 276.47C639.12 277.25 638.5 277.82 637.72 278.18C636.94 278.52 636.17 278.69 635.41 278.69C634.45 278.69 633.56 278.43 632.74 277.91C631.92 277.39 631.26 276.64 630.76 275.66C630.26 274.66 630.01 273.49 630.01 272.15C630.01 270.69 630.3 269.43 630.88 268.37C631.48 267.31 632.28 266.51 633.28 265.97C634.28 265.41 635.39 265.13 636.61 265.13ZM636.16 277.82C636.84 277.82 637.51 277.63 638.17 277.25C638.85 276.87 639.36 276.26 639.7 275.42C639.78 274.78 639.82 274.01 639.82 273.11C639.82 270.45 639.48 268.56 638.8 267.44C638.12 266.3 637.29 265.73 636.31 265.73C635.33 265.73 634.52 266.24 633.88 267.26C633.24 268.28 632.92 269.84 632.92 271.94C632.92 273.98 633.22 275.47 633.82 276.41C634.42 277.35 635.2 277.82 636.16 277.82ZM666.785 265.13C668.185 265.13 669.435 265.46 670.535 266.12C671.635 266.76 672.495 267.68 673.115 268.88C673.735 270.08 674.045 271.46 674.045 273.02C674.045 274.62 673.725 276.06 673.085 277.34C672.445 278.6 671.545 279.6 670.385 280.34C669.245 281.06 667.935 281.42 666.455 281.42C665.075 281.42 663.835 281.1 662.735 280.46C661.635 279.8 660.765 278.87 660.125 277.67C659.505 276.47 659.195 275.08 659.195 273.5C659.195 271.92 659.505 270.5 660.125 269.24C660.765 267.96 661.655 266.96 662.795 266.24C663.955 265.5 665.285 265.13 666.785 265.13ZM666.515 265.67C665.655 265.67 664.885 265.98 664.205 266.6C663.545 267.2 663.025 268.09 662.645 269.27C662.285 270.43 662.105 271.81 662.105 273.41C662.105 275.95 662.535 277.83 663.395 279.05C664.255 280.27 665.365 280.88 666.725 280.88C667.585 280.88 668.345 280.57 669.005 279.95C669.685 279.33 670.205 278.44 670.565 277.28C670.945 276.1 671.135 274.71 671.135 273.11C671.135 270.59 670.705 268.72 669.845 267.5C668.985 266.28 667.875 265.67 666.515 265.67Z" fill="white"/>
<rect x="0.5" y="0.5" width="799" height="399" stroke="white"/>
</svg>
