<svg width="497" height="300" viewBox="0 0 497 300" fill="none" xmlns="http://www.w3.org/2000/svg">
<path d="M24.296 123V110.112H28.832C29.444 110.112 30.014 110.214 30.542 110.418C31.082 110.61 31.55 110.886 31.946 111.246C32.342 111.606 32.654 112.038 32.882 112.542C33.11 113.034 33.224 113.58 33.224 114.18C33.224 114.792 33.11 115.35 32.882 115.854C32.654 116.346 32.342 116.772 31.946 117.132C31.55 117.492 31.082 117.774 30.542 117.978C30.014 118.17 29.444 118.266 28.832 118.266H26.726V123H24.296ZM28.868 115.962C29.504 115.962 29.984 115.782 30.308 115.422C30.632 115.062 30.794 114.648 30.794 114.18C30.794 113.952 30.752 113.73 30.668 113.514C30.596 113.298 30.476 113.112 30.308 112.956C30.152 112.788 29.954 112.656 29.714 112.56C29.474 112.464 29.192 112.416 28.868 112.416H26.726V115.962H28.868ZM34.4803 114.18H36.6943V115.404H36.8383C36.9463 115.188 37.0903 114.99 37.2703 114.81C37.4503 114.63 37.6483 114.474 37.8643 114.342C38.0923 114.21 38.3323 114.108 38.5843 114.036C38.8483 113.964 39.1063 113.928 39.3583 113.928C39.6703 113.928 39.9343 113.958 40.1503 114.018C40.3783 114.078 40.5703 114.156 40.7263 114.252L40.0963 116.394C39.9523 116.322 39.7903 116.268 39.6103 116.232C39.4423 116.184 39.2323 116.16 38.9803 116.16C38.6563 116.16 38.3623 116.226 38.0983 116.358C37.8343 116.478 37.6063 116.652 37.4143 116.88C37.2343 117.108 37.0903 117.378 36.9823 117.69C36.8863 117.99 36.8383 118.32 36.8383 118.68V123H34.4803V114.18ZM45.2615 113.892C45.9455 113.892 46.5695 114.012 47.1335 114.252C47.7095 114.48 48.2015 114.804 48.6095 115.224C49.0295 115.632 49.3535 116.124 49.5815 116.7C49.8215 117.276 49.9415 117.906 49.9415 118.59C49.9415 119.274 49.8215 119.904 49.5815 120.48C49.3535 121.056 49.0295 121.554 48.6095 121.974C48.2015 122.382 47.7095 122.706 47.1335 122.946C46.5695 123.174 45.9455 123.288 45.2615 123.288C44.5775 123.288 43.9475 123.174 43.3715 122.946C42.8075 122.706 42.3155 122.382 41.8955 121.974C41.4875 121.554 41.1635 121.056 40.9235 120.48C40.6955 119.904 40.5815 119.274 40.5815 118.59C40.5815 117.906 40.6955 117.276 40.9235 116.7C41.1635 116.124 41.4875 115.632 41.8955 115.224C42.3155 114.804 42.8075 114.48 43.3715 114.252C43.9475 114.012 44.5775 113.892 45.2615 113.892ZM45.2615 121.11C45.5615 121.11 45.8495 121.056 46.1255 120.948C46.4135 120.828 46.6655 120.66 46.8815 120.444C47.0975 120.228 47.2655 119.964 47.3855 119.652C47.5175 119.34 47.5835 118.986 47.5835 118.59C47.5835 118.194 47.5175 117.84 47.3855 117.528C47.2655 117.216 47.0975 116.952 46.8815 116.736C46.6655 116.52 46.4135 116.358 46.1255 116.25C45.8495 116.13 45.5615 116.07 45.2615 116.07C44.9495 116.07 44.6555 116.13 44.3795 116.25C44.1035 116.358 43.8575 116.52 43.6415 116.736C43.4255 116.952 43.2515 117.216 43.1195 117.528C42.9995 117.84 42.9395 118.194 42.9395 118.59C42.9395 118.986 42.9995 119.34 43.1195 119.652C43.2515 119.964 43.4255 120.228 43.6415 120.444C43.8575 120.66 44.1035 120.828 44.3795 120.948C44.6555 121.056 44.9495 121.11 45.2615 121.11ZM57.8466 121.938H57.7026C57.4866 122.31 57.1506 122.628 56.6946 122.892C56.2386 123.156 55.6746 123.288 55.0026 123.288C54.4386 123.288 53.8986 123.174 53.3826 122.946C52.8786 122.706 52.4286 122.382 52.0326 121.974C51.6486 121.554 51.3426 121.056 51.1146 120.48C50.8866 119.904 50.7726 119.274 50.7726 118.59C50.7726 117.906 50.8866 117.276 51.1146 116.7C51.3426 116.124 51.6486 115.632 52.0326 115.224C52.4286 114.804 52.8786 114.48 53.3826 114.252C53.8986 114.012 54.4386 113.892 55.0026 113.892C55.6746 113.892 56.2386 114.024 56.6946 114.288C57.1506 114.552 57.4866 114.87 57.7026 115.242H57.8466L57.7026 113.982V110.112H60.0606V123H57.8466V121.938ZM55.4886 121.11C55.8006 121.11 56.0946 121.056 56.3706 120.948C56.6586 120.828 56.9106 120.66 57.1266 120.444C57.3426 120.228 57.5166 119.964 57.6486 119.652C57.7806 119.34 57.8466 118.986 57.8466 118.59C57.8466 118.194 57.7806 117.84 57.6486 117.528C57.5166 117.216 57.3426 116.952 57.1266 116.736C56.9106 116.52 56.6586 116.358 56.3706 116.25C56.0946 116.13 55.8006 116.07 55.4886 116.07C55.1766 116.07 54.8766 116.13 54.5886 116.25C54.3126 116.37 54.0666 116.538 53.8506 116.754C53.6346 116.97 53.4606 117.234 53.3286 117.546C53.1966 117.858 53.1306 118.206 53.1306 118.59C53.1306 118.974 53.1966 119.322 53.3286 119.634C53.4606 119.946 53.6346 120.21 53.8506 120.426C54.0666 120.642 54.3126 120.81 54.5886 120.93C54.8766 121.05 55.1766 121.11 55.4886 121.11ZM67.9916 121.848H67.8476C67.5716 122.292 67.1996 122.646 66.7316 122.91C66.2636 123.162 65.7296 123.288 65.1296 123.288C64.0136 123.288 63.1796 122.946 62.6276 122.262C62.0876 121.578 61.8176 120.666 61.8176 119.526V114.18H64.1756V119.238C64.1756 119.874 64.3136 120.348 64.5896 120.66C64.8776 120.96 65.2916 121.11 65.8316 121.11C66.1556 121.11 66.4376 121.044 66.6776 120.912C66.9296 120.768 67.1396 120.582 67.3076 120.354C67.4876 120.114 67.6196 119.838 67.7036 119.526C67.7996 119.202 67.8476 118.86 67.8476 118.5V114.18H70.2056V123H67.9916V121.848ZM80.3276 120.75C79.9436 121.494 79.4036 122.106 78.7076 122.586C78.0236 123.054 77.1656 123.288 76.1336 123.288C75.4496 123.288 74.8196 123.174 74.2436 122.946C73.6796 122.706 73.1876 122.376 72.7676 121.956C72.3596 121.536 72.0356 121.044 71.7956 120.48C71.5676 119.904 71.4536 119.274 71.4536 118.59C71.4536 117.906 71.5676 117.276 71.7956 116.7C72.0356 116.124 72.3596 115.632 72.7676 115.224C73.1876 114.804 73.6796 114.48 74.2436 114.252C74.8196 114.012 75.4496 113.892 76.1336 113.892C77.1536 113.892 78.0116 114.126 78.7076 114.594C79.4036 115.062 79.9136 115.668 80.2376 116.412L78.0776 117.312C77.8736 116.904 77.6096 116.598 77.2856 116.394C76.9736 116.178 76.5776 116.07 76.0976 116.07C75.7856 116.07 75.4916 116.13 75.2156 116.25C74.9396 116.37 74.6936 116.538 74.4776 116.754C74.2736 116.97 74.1116 117.234 73.9916 117.546C73.8716 117.858 73.8116 118.206 73.8116 118.59C73.8116 118.974 73.8716 119.322 73.9916 119.634C74.1116 119.946 74.2736 120.21 74.4776 120.426C74.6936 120.642 74.9396 120.81 75.2156 120.93C75.4916 121.05 75.7856 121.11 76.0976 121.11C76.5896 121.11 77.0036 121.002 77.3396 120.786C77.6876 120.558 77.9636 120.234 78.1676 119.814L80.3276 120.75ZM82.4703 116.196H80.9223V114.18H82.4703V111.48H84.8283V114.18H86.9883V116.196H84.8283V119.616C84.8283 119.82 84.8463 120.012 84.8823 120.192C84.9303 120.36 85.0143 120.504 85.1343 120.624C85.3023 120.816 85.5423 120.912 85.8543 120.912C86.0583 120.912 86.2203 120.894 86.3403 120.858C86.4603 120.81 86.5743 120.75 86.6823 120.678L87.3483 122.748C87.0723 122.88 86.7723 122.976 86.4483 123.036C86.1363 123.108 85.7883 123.144 85.4043 123.144C84.9603 123.144 84.5583 123.078 84.1983 122.946C83.8503 122.802 83.5563 122.61 83.3163 122.37C82.7523 121.83 82.4703 121.062 82.4703 120.066V116.196ZM96.0031 123.288C95.4511 123.288 94.9231 123.21 94.4191 123.054C93.9151 122.898 93.4531 122.664 93.0331 122.352C92.6131 122.04 92.2471 121.662 91.9351 121.218C91.6231 120.762 91.3771 120.234 91.1971 119.634L93.4831 118.734C93.6511 119.382 93.9451 119.922 94.3651 120.354C94.7851 120.774 95.3371 120.984 96.0211 120.984C96.2731 120.984 96.5131 120.954 96.7411 120.894C96.9811 120.822 97.1911 120.726 97.3711 120.606C97.5631 120.474 97.7131 120.312 97.8211 120.12C97.9291 119.928 97.9831 119.706 97.9831 119.454C97.9831 119.214 97.9411 118.998 97.8571 118.806C97.7731 118.614 97.6291 118.434 97.4251 118.266C97.2331 118.098 96.9751 117.936 96.6511 117.78C96.3391 117.624 95.9491 117.462 95.4811 117.294L94.6891 117.006C94.3411 116.886 93.9871 116.724 93.6271 116.52C93.2791 116.316 92.9611 116.07 92.6731 115.782C92.3851 115.494 92.1451 115.158 91.9531 114.774C91.7731 114.378 91.6831 113.934 91.6831 113.442C91.6831 112.938 91.7791 112.47 91.9711 112.038C92.1751 111.594 92.4571 111.21 92.8171 110.886C93.1891 110.55 93.6271 110.292 94.1311 110.112C94.6471 109.92 95.2171 109.824 95.8411 109.824C96.4891 109.824 97.0471 109.914 97.5151 110.094C97.9951 110.262 98.3971 110.484 98.7211 110.76C99.0571 111.024 99.3271 111.318 99.5311 111.642C99.7351 111.966 99.8851 112.272 99.9811 112.56L97.8391 113.46C97.7191 113.1 97.4971 112.776 97.1731 112.488C96.8611 112.2 96.4291 112.056 95.8771 112.056C95.3491 112.056 94.9111 112.182 94.5631 112.434C94.2151 112.674 94.0411 112.992 94.0411 113.388C94.0411 113.772 94.2091 114.102 94.5451 114.378C94.8811 114.642 95.4151 114.9 96.1471 115.152L96.9571 115.422C97.4731 115.602 97.9411 115.812 98.3611 116.052C98.7931 116.28 99.1591 116.556 99.4591 116.88C99.7711 117.204 100.005 117.576 100.161 117.996C100.329 118.404 100.413 118.878 100.413 119.418C100.413 120.09 100.275 120.672 99.9991 121.164C99.7351 121.644 99.3931 122.04 98.9731 122.352C98.5531 122.664 98.0791 122.898 97.5511 123.054C97.0231 123.21 96.5071 123.288 96.0031 123.288ZM107.383 122.064H107.239C106.963 122.4 106.627 122.688 106.231 122.928C105.847 123.168 105.349 123.288 104.737 123.288C104.281 123.288 103.849 123.21 103.441 123.054C103.045 122.91 102.697 122.706 102.397 122.442C102.097 122.178 101.863 121.86 101.695 121.488C101.527 121.116 101.443 120.708 101.443 120.264C101.443 119.808 101.533 119.4 101.713 119.04C101.893 118.668 102.145 118.35 102.469 118.086C102.793 117.822 103.171 117.624 103.603 117.492C104.047 117.348 104.527 117.276 105.043 117.276C105.619 117.276 106.093 117.324 106.465 117.42C106.837 117.504 107.143 117.594 107.383 117.69V117.42C107.383 116.952 107.197 116.568 106.825 116.268C106.453 115.956 105.991 115.8 105.439 115.8C104.623 115.8 103.933 116.142 103.369 116.826L101.659 115.656C102.595 114.48 103.873 113.892 105.493 113.892C106.861 113.892 107.905 114.216 108.625 114.864C109.345 115.5 109.705 116.448 109.705 117.708V123H107.383V122.064ZM107.383 119.418C107.107 119.286 106.819 119.184 106.519 119.112C106.231 119.028 105.913 118.986 105.565 118.986C105.001 118.986 104.563 119.112 104.251 119.364C103.951 119.604 103.801 119.904 103.801 120.264C103.801 120.624 103.945 120.912 104.233 121.128C104.533 121.344 104.875 121.452 105.259 121.452C105.571 121.452 105.859 121.398 106.123 121.29C106.387 121.17 106.609 121.02 106.789 120.84C106.981 120.648 107.125 120.432 107.221 120.192C107.329 119.94 107.383 119.682 107.383 119.418ZM113.613 115.332H113.757C114.033 114.888 114.405 114.54 114.873 114.288C115.341 114.024 115.875 113.892 116.475 113.892C117.027 113.892 117.513 113.982 117.933 114.162C118.353 114.342 118.695 114.6 118.959 114.936C119.235 115.26 119.439 115.656 119.571 116.124C119.715 116.58 119.787 117.09 119.787 117.654V123H117.429V117.942C117.429 117.306 117.285 116.838 116.997 116.538C116.721 116.226 116.313 116.07 115.773 116.07C115.449 116.07 115.161 116.142 114.909 116.286C114.669 116.418 114.459 116.604 114.279 116.844C114.111 117.072 113.979 117.348 113.883 117.672C113.799 117.984 113.757 118.32 113.757 118.68V123H111.399V114.18H113.613V115.332ZM124.959 123.288C124.383 123.288 123.867 123.216 123.411 123.072C122.967 122.928 122.577 122.742 122.241 122.514C121.917 122.274 121.641 122.004 121.413 121.704C121.185 121.392 121.011 121.08 120.891 120.768L122.997 119.868C123.201 120.324 123.471 120.666 123.807 120.894C124.155 121.11 124.539 121.218 124.959 121.218C125.391 121.218 125.733 121.14 125.985 120.984C126.237 120.828 126.363 120.642 126.363 120.426C126.363 120.186 126.255 119.994 126.039 119.85C125.835 119.694 125.475 119.556 124.959 119.436L123.717 119.166C123.441 119.106 123.153 119.01 122.853 118.878C122.565 118.746 122.301 118.578 122.061 118.374C121.821 118.17 121.623 117.924 121.467 117.636C121.311 117.348 121.233 117.012 121.233 116.628C121.233 116.196 121.323 115.812 121.503 115.476C121.695 115.14 121.953 114.858 122.277 114.63C122.601 114.39 122.979 114.21 123.411 114.09C123.855 113.958 124.329 113.892 124.833 113.892C125.673 113.892 126.423 114.06 127.083 114.396C127.743 114.72 128.229 115.242 128.541 115.962L126.507 116.79C126.339 116.442 126.093 116.19 125.769 116.034C125.445 115.878 125.121 115.8 124.797 115.8C124.461 115.8 124.167 115.872 123.915 116.016C123.663 116.148 123.537 116.322 123.537 116.538C123.537 116.742 123.639 116.904 123.843 117.024C124.059 117.144 124.347 117.252 124.707 117.348L126.057 117.672C126.957 117.888 127.623 118.236 128.055 118.716C128.499 119.184 128.721 119.742 128.721 120.39C128.721 120.774 128.631 121.14 128.451 121.488C128.271 121.836 128.013 122.148 127.677 122.424C127.353 122.688 126.957 122.898 126.489 123.054C126.033 123.21 125.523 123.288 124.959 123.288ZM134.052 110.112H139.092C139.644 110.112 140.16 110.202 140.64 110.382C141.12 110.55 141.534 110.79 141.882 111.102C142.242 111.402 142.524 111.756 142.728 112.164C142.932 112.572 143.034 113.01 143.034 113.478C143.034 114.162 142.866 114.738 142.53 115.206C142.206 115.662 141.798 116.01 141.306 116.25V116.394C141.966 116.634 142.494 117.012 142.89 117.528C143.298 118.032 143.502 118.662 143.502 119.418C143.502 119.97 143.388 120.468 143.16 120.912C142.944 121.344 142.644 121.716 142.26 122.028C141.876 122.34 141.426 122.58 140.91 122.748C140.406 122.916 139.86 123 139.272 123H134.052V110.112ZM138.912 115.368C139.476 115.368 139.908 115.218 140.208 114.918C140.52 114.606 140.676 114.24 140.676 113.82C140.676 113.4 140.526 113.04 140.226 112.74C139.926 112.44 139.512 112.29 138.984 112.29H136.482V115.368H138.912ZM139.182 120.768C139.794 120.768 140.262 120.618 140.586 120.318C140.91 120.006 141.072 119.61 141.072 119.13C141.072 118.65 140.904 118.254 140.568 117.942C140.244 117.618 139.758 117.456 139.11 117.456H136.482V120.768H139.182ZM149.08 113.892C149.764 113.892 150.388 114.012 150.952 114.252C151.528 114.48 152.02 114.804 152.428 115.224C152.848 115.632 153.172 116.124 153.4 116.7C153.64 117.276 153.76 117.906 153.76 118.59C153.76 119.274 153.64 119.904 153.4 120.48C153.172 121.056 152.848 121.554 152.428 121.974C152.02 122.382 151.528 122.706 150.952 122.946C150.388 123.174 149.764 123.288 149.08 123.288C148.396 123.288 147.766 123.174 147.19 122.946C146.626 122.706 146.134 122.382 145.714 121.974C145.306 121.554 144.982 121.056 144.742 120.48C144.514 119.904 144.4 119.274 144.4 118.59C144.4 117.906 144.514 117.276 144.742 116.7C144.982 116.124 145.306 115.632 145.714 115.224C146.134 114.804 146.626 114.48 147.19 114.252C147.766 114.012 148.396 113.892 149.08 113.892ZM149.08 121.11C149.38 121.11 149.668 121.056 149.944 120.948C150.232 120.828 150.484 120.66 150.7 120.444C150.916 120.228 151.084 119.964 151.204 119.652C151.336 119.34 151.402 118.986 151.402 118.59C151.402 118.194 151.336 117.84 151.204 117.528C151.084 117.216 150.916 116.952 150.7 116.736C150.484 116.52 150.232 116.358 149.944 116.25C149.668 116.13 149.38 116.07 149.08 116.07C148.768 116.07 148.474 116.13 148.198 116.25C147.922 116.358 147.676 116.52 147.46 116.736C147.244 116.952 147.07 117.216 146.938 117.528C146.818 117.84 146.758 118.194 146.758 118.59C146.758 118.986 146.818 119.34 146.938 119.652C147.07 119.964 147.244 120.228 147.46 120.444C147.676 120.66 147.922 120.828 148.198 120.948C148.474 121.056 148.768 121.11 149.08 121.11ZM155.007 123V110.112H157.365V123H155.007ZM165.686 121.938H165.542C165.326 122.31 164.99 122.628 164.534 122.892C164.078 123.156 163.514 123.288 162.842 123.288C162.278 123.288 161.738 123.174 161.222 122.946C160.718 122.706 160.268 122.382 159.872 121.974C159.488 121.554 159.182 121.056 158.954 120.48C158.726 119.904 158.612 119.274 158.612 118.59C158.612 117.906 158.726 117.276 158.954 116.7C159.182 116.124 159.488 115.632 159.872 115.224C160.268 114.804 160.718 114.48 161.222 114.252C161.738 114.012 162.278 113.892 162.842 113.892C163.514 113.892 164.078 114.024 164.534 114.288C164.99 114.552 165.326 114.87 165.542 115.242H165.686L165.542 113.982V110.112H167.9V123H165.686V121.938ZM163.328 121.11C163.64 121.11 163.934 121.056 164.21 120.948C164.498 120.828 164.75 120.66 164.966 120.444C165.182 120.228 165.356 119.964 165.488 119.652C165.62 119.34 165.686 118.986 165.686 118.59C165.686 118.194 165.62 117.84 165.488 117.528C165.356 117.216 165.182 116.952 164.966 116.736C164.75 116.52 164.498 116.358 164.21 116.25C163.934 116.13 163.64 116.07 163.328 116.07C163.016 116.07 162.716 116.13 162.428 116.25C162.152 116.37 161.906 116.538 161.69 116.754C161.474 116.97 161.3 117.234 161.168 117.546C161.036 117.858 160.97 118.206 160.97 118.59C160.97 118.974 161.036 119.322 161.168 119.634C161.3 119.946 161.474 120.21 161.69 120.426C161.906 120.642 162.152 120.81 162.428 120.93C162.716 121.05 163.016 121.11 163.328 121.11Z" fill="white"/>
<path d="M29.012 165.288C28.256 165.288 27.566 165.168 26.942 164.928C26.33 164.676 25.808 164.316 25.376 163.848C24.944 163.38 24.608 162.816 24.368 162.156C24.128 161.484 24.008 160.722 24.008 159.87V152.112H26.438V160.014C26.438 160.446 26.492 160.842 26.6 161.202C26.708 161.562 26.87 161.874 27.086 162.138C27.302 162.402 27.572 162.612 27.896 162.768C28.22 162.912 28.592 162.984 29.012 162.984C29.444 162.984 29.822 162.912 30.146 162.768C30.47 162.612 30.74 162.402 30.956 162.138C31.172 161.874 31.334 161.562 31.442 161.202C31.55 160.842 31.604 160.446 31.604 160.014V152.112H34.034V159.87C34.034 160.674 33.914 161.412 33.674 162.084C33.446 162.744 33.11 163.314 32.666 163.794C32.234 164.262 31.706 164.628 31.082 164.892C30.47 165.156 29.78 165.288 29.012 165.288ZM39.361 165.288C38.785 165.288 38.269 165.216 37.813 165.072C37.369 164.928 36.979 164.742 36.643 164.514C36.319 164.274 36.043 164.004 35.815 163.704C35.587 163.392 35.413 163.08 35.293 162.768L37.399 161.868C37.603 162.324 37.873 162.666 38.209 162.894C38.557 163.11 38.941 163.218 39.361 163.218C39.793 163.218 40.135 163.14 40.387 162.984C40.639 162.828 40.765 162.642 40.765 162.426C40.765 162.186 40.657 161.994 40.441 161.85C40.237 161.694 39.877 161.556 39.361 161.436L38.119 161.166C37.843 161.106 37.555 161.01 37.255 160.878C36.967 160.746 36.703 160.578 36.463 160.374C36.223 160.17 36.025 159.924 35.869 159.636C35.713 159.348 35.635 159.012 35.635 158.628C35.635 158.196 35.725 157.812 35.905 157.476C36.097 157.14 36.355 156.858 36.679 156.63C37.003 156.39 37.381 156.21 37.813 156.09C38.257 155.958 38.731 155.892 39.235 155.892C40.075 155.892 40.825 156.06 41.485 156.396C42.145 156.72 42.631 157.242 42.943 157.962L40.909 158.79C40.741 158.442 40.495 158.19 40.171 158.034C39.847 157.878 39.523 157.8 39.199 157.8C38.863 157.8 38.569 157.872 38.317 158.016C38.065 158.148 37.939 158.322 37.939 158.538C37.939 158.742 38.041 158.904 38.245 159.024C38.461 159.144 38.749 159.252 39.109 159.348L40.459 159.672C41.359 159.888 42.025 160.236 42.457 160.716C42.901 161.184 43.123 161.742 43.123 162.39C43.123 162.774 43.033 163.14 42.853 163.488C42.673 163.836 42.415 164.148 42.079 164.424C41.755 164.688 41.359 164.898 40.891 165.054C40.435 165.21 39.925 165.288 39.361 165.288ZM52.8301 162.876C52.4221 163.596 51.8701 164.178 51.1741 164.622C50.4901 165.066 49.6501 165.288 48.6541 165.288C47.9821 165.288 47.3581 165.174 46.7821 164.946C46.2181 164.706 45.7261 164.376 45.3061 163.956C44.8861 163.536 44.5561 163.044 44.3161 162.48C44.0881 161.904 43.9741 161.274 43.9741 160.59C43.9741 159.954 44.0881 159.354 44.3161 158.79C44.5441 158.214 44.8621 157.716 45.2701 157.296C45.6781 156.864 46.1581 156.522 46.7101 156.27C47.2741 156.018 47.8921 155.892 48.5641 155.892C49.2721 155.892 49.9021 156.012 50.4541 156.252C51.0061 156.48 51.4681 156.804 51.8401 157.224C52.2121 157.632 52.4941 158.118 52.6861 158.682C52.8781 159.246 52.9741 159.858 52.9741 160.518C52.9741 160.602 52.9741 160.674 52.9741 160.734C52.9621 160.806 52.9561 160.872 52.9561 160.932C52.9441 160.992 52.9381 161.058 52.9381 161.13H46.2961C46.3441 161.49 46.4401 161.802 46.5841 162.066C46.7401 162.318 46.9261 162.534 47.1421 162.714C47.3701 162.882 47.6161 163.008 47.8801 163.092C48.1441 163.164 48.4141 163.2 48.6901 163.2C49.2301 163.2 49.6741 163.08 50.0221 162.84C50.3821 162.588 50.6641 162.276 50.8681 161.904L52.8301 162.876ZM50.6881 159.456C50.6761 159.3 50.6221 159.126 50.5261 158.934C50.4421 158.742 50.3101 158.562 50.1301 158.394C49.9621 158.226 49.7461 158.088 49.4821 157.98C49.2301 157.872 48.9241 157.818 48.5641 157.818C48.0601 157.818 47.6161 157.962 47.2321 158.25C46.8481 158.538 46.5781 158.94 46.4221 159.456H50.6881ZM62.0795 151.968C62.4155 151.968 62.7275 151.998 63.0155 152.058C63.3035 152.118 63.5615 152.196 63.7895 152.292L63.1235 154.398C63.0035 154.338 62.8715 154.29 62.7275 154.254C62.5955 154.218 62.4275 154.2 62.2235 154.2C61.8755 154.2 61.5995 154.314 61.3955 154.542C61.1915 154.758 61.0895 155.064 61.0895 155.46V156.18H63.2855V158.196H61.0895V165H58.7315V158.196H57.1475V156.18H58.7315V155.316C58.7315 154.776 58.8095 154.302 58.9655 153.894C59.1335 153.474 59.3675 153.126 59.6675 152.85C59.9675 152.562 60.3215 152.346 60.7295 152.202C61.1375 152.046 61.5875 151.968 62.0795 151.968ZM68.3289 155.892C69.0129 155.892 69.6369 156.012 70.2009 156.252C70.7769 156.48 71.2689 156.804 71.6769 157.224C72.0969 157.632 72.4209 158.124 72.6489 158.7C72.8889 159.276 73.0089 159.906 73.0089 160.59C73.0089 161.274 72.8889 161.904 72.6489 162.48C72.4209 163.056 72.0969 163.554 71.6769 163.974C71.2689 164.382 70.7769 164.706 70.2009 164.946C69.6369 165.174 69.0129 165.288 68.3289 165.288C67.6449 165.288 67.0149 165.174 66.4389 164.946C65.8749 164.706 65.3829 164.382 64.9629 163.974C64.5549 163.554 64.2309 163.056 63.9909 162.48C63.7629 161.904 63.6489 161.274 63.6489 160.59C63.6489 159.906 63.7629 159.276 63.9909 158.7C64.2309 158.124 64.5549 157.632 64.9629 157.224C65.3829 156.804 65.8749 156.48 66.4389 156.252C67.0149 156.012 67.6449 155.892 68.3289 155.892ZM68.3289 163.11C68.6289 163.11 68.9169 163.056 69.1929 162.948C69.4809 162.828 69.7329 162.66 69.9489 162.444C70.1649 162.228 70.3329 161.964 70.4529 161.652C70.5849 161.34 70.6509 160.986 70.6509 160.59C70.6509 160.194 70.5849 159.84 70.4529 159.528C70.3329 159.216 70.1649 158.952 69.9489 158.736C69.7329 158.52 69.4809 158.358 69.1929 158.25C68.9169 158.13 68.6289 158.07 68.3289 158.07C68.0169 158.07 67.7229 158.13 67.4469 158.25C67.1709 158.358 66.9249 158.52 66.7089 158.736C66.4929 158.952 66.3189 159.216 66.1869 159.528C66.0669 159.84 66.0069 160.194 66.0069 160.59C66.0069 160.986 66.0669 161.34 66.1869 161.652C66.3189 161.964 66.4929 162.228 66.7089 162.444C66.9249 162.66 67.1709 162.828 67.4469 162.948C67.7229 163.056 68.0169 163.11 68.3289 163.11ZM74.1682 156.18H76.3822V157.404H76.5262C76.6342 157.188 76.7782 156.99 76.9582 156.81C77.1382 156.63 77.3362 156.474 77.5522 156.342C77.7802 156.21 78.0202 156.108 78.2722 156.036C78.5362 155.964 78.7942 155.928 79.0462 155.928C79.3582 155.928 79.6222 155.958 79.8382 156.018C80.0662 156.078 80.2582 156.156 80.4142 156.252L79.7842 158.394C79.6402 158.322 79.4782 158.268 79.2982 158.232C79.1302 158.184 78.9202 158.16 78.6682 158.16C78.3442 158.16 78.0502 158.226 77.7862 158.358C77.5222 158.478 77.2942 158.652 77.1022 158.88C76.9222 159.108 76.7782 159.378 76.6702 159.69C76.5742 159.99 76.5262 160.32 76.5262 160.68V165H74.1682V156.18ZM85.0934 152.112H87.4514V155.73L87.3074 157.332H87.4514C87.7034 156.912 88.0634 156.57 88.5314 156.306C89.0114 156.03 89.5454 155.892 90.1334 155.892C91.2734 155.892 92.1134 156.228 92.6534 156.9C93.2054 157.572 93.4814 158.49 93.4814 159.654V165H91.1234V159.942C91.1234 159.33 90.9794 158.868 90.6914 158.556C90.4034 158.232 90.0014 158.07 89.4854 158.07C89.1614 158.07 88.8734 158.142 88.6214 158.286C88.3694 158.418 88.1534 158.604 87.9734 158.844C87.8054 159.084 87.6734 159.366 87.5774 159.69C87.4934 160.002 87.4514 160.338 87.4514 160.698V165H85.0934V152.112ZM103.601 162.876C103.193 163.596 102.641 164.178 101.945 164.622C101.261 165.066 100.421 165.288 99.4253 165.288C98.7533 165.288 98.1293 165.174 97.5533 164.946C96.9893 164.706 96.4973 164.376 96.0773 163.956C95.6573 163.536 95.3273 163.044 95.0873 162.48C94.8593 161.904 94.7453 161.274 94.7453 160.59C94.7453 159.954 94.8593 159.354 95.0873 158.79C95.3153 158.214 95.6333 157.716 96.0413 157.296C96.4493 156.864 96.9293 156.522 97.4813 156.27C98.0453 156.018 98.6633 155.892 99.3353 155.892C100.043 155.892 100.673 156.012 101.225 156.252C101.777 156.48 102.239 156.804 102.611 157.224C102.983 157.632 103.265 158.118 103.457 158.682C103.649 159.246 103.745 159.858 103.745 160.518C103.745 160.602 103.745 160.674 103.745 160.734C103.733 160.806 103.727 160.872 103.727 160.932C103.715 160.992 103.709 161.058 103.709 161.13H97.0673C97.1153 161.49 97.2113 161.802 97.3553 162.066C97.5113 162.318 97.6973 162.534 97.9133 162.714C98.1413 162.882 98.3873 163.008 98.6513 163.092C98.9153 163.164 99.1853 163.2 99.4613 163.2C100.001 163.2 100.445 163.08 100.793 162.84C101.153 162.588 101.435 162.276 101.639 161.904L103.601 162.876ZM101.459 159.456C101.447 159.3 101.393 159.126 101.297 158.934C101.213 158.742 101.081 158.562 100.901 158.394C100.733 158.226 100.517 158.088 100.253 157.98C100.001 157.872 99.6953 157.818 99.3353 157.818C98.8313 157.818 98.3873 157.962 98.0033 158.25C97.6193 158.538 97.3493 158.94 97.1933 159.456H101.459ZM110.595 164.064H110.451C110.175 164.4 109.839 164.688 109.443 164.928C109.059 165.168 108.561 165.288 107.949 165.288C107.493 165.288 107.061 165.21 106.653 165.054C106.257 164.91 105.909 164.706 105.609 164.442C105.309 164.178 105.075 163.86 104.907 163.488C104.739 163.116 104.655 162.708 104.655 162.264C104.655 161.808 104.745 161.4 104.925 161.04C105.105 160.668 105.357 160.35 105.681 160.086C106.005 159.822 106.383 159.624 106.815 159.492C107.259 159.348 107.739 159.276 108.255 159.276C108.831 159.276 109.305 159.324 109.677 159.42C110.049 159.504 110.355 159.594 110.595 159.69V159.42C110.595 158.952 110.409 158.568 110.037 158.268C109.665 157.956 109.203 157.8 108.651 157.8C107.835 157.8 107.145 158.142 106.581 158.826L104.871 157.656C105.807 156.48 107.085 155.892 108.705 155.892C110.073 155.892 111.117 156.216 111.837 156.864C112.557 157.5 112.917 158.448 112.917 159.708V165H110.595V164.064ZM110.595 161.418C110.319 161.286 110.031 161.184 109.731 161.112C109.443 161.028 109.125 160.986 108.777 160.986C108.213 160.986 107.775 161.112 107.463 161.364C107.163 161.604 107.013 161.904 107.013 162.264C107.013 162.624 107.157 162.912 107.445 163.128C107.745 163.344 108.087 163.452 108.471 163.452C108.783 163.452 109.071 163.398 109.335 163.29C109.599 163.17 109.821 163.02 110.001 162.84C110.193 162.648 110.337 162.432 110.433 162.192C110.541 161.94 110.595 161.682 110.595 161.418ZM121.094 163.938H120.95C120.734 164.31 120.398 164.628 119.942 164.892C119.486 165.156 118.922 165.288 118.25 165.288C117.686 165.288 117.146 165.174 116.63 164.946C116.126 164.706 115.676 164.382 115.28 163.974C114.896 163.554 114.59 163.056 114.362 162.48C114.134 161.904 114.02 161.274 114.02 160.59C114.02 159.906 114.134 159.276 114.362 158.7C114.59 158.124 114.896 157.632 115.28 157.224C115.676 156.804 116.126 156.48 116.63 156.252C117.146 156.012 117.686 155.892 118.25 155.892C118.922 155.892 119.486 156.024 119.942 156.288C120.398 156.552 120.734 156.87 120.95 157.242H121.094L120.95 155.982V152.112H123.308V165H121.094V163.938ZM118.736 163.11C119.048 163.11 119.342 163.056 119.618 162.948C119.906 162.828 120.158 162.66 120.374 162.444C120.59 162.228 120.764 161.964 120.896 161.652C121.028 161.34 121.094 160.986 121.094 160.59C121.094 160.194 121.028 159.84 120.896 159.528C120.764 159.216 120.59 158.952 120.374 158.736C120.158 158.52 119.906 158.358 119.618 158.25C119.342 158.13 119.048 158.07 118.736 158.07C118.424 158.07 118.124 158.13 117.836 158.25C117.56 158.37 117.314 158.538 117.098 158.754C116.882 158.97 116.708 159.234 116.576 159.546C116.444 159.858 116.378 160.206 116.378 160.59C116.378 160.974 116.444 161.322 116.576 161.634C116.708 161.946 116.882 162.21 117.098 162.426C117.314 162.642 117.56 162.81 117.836 162.93C118.124 163.05 118.424 163.11 118.736 163.11ZM125.137 165V152.112H127.495V165H125.137ZM130.648 154.902C130.444 154.902 130.246 154.866 130.054 154.794C129.874 154.71 129.712 154.602 129.568 154.47C129.436 154.326 129.328 154.164 129.244 153.984C129.172 153.804 129.136 153.606 129.136 153.39C129.136 153.174 129.172 152.976 129.244 152.796C129.328 152.616 129.436 152.46 129.568 152.328C129.712 152.184 129.874 152.076 130.054 152.004C130.246 151.92 130.444 151.878 130.648 151.878C131.068 151.878 131.428 152.028 131.728 152.328C132.028 152.616 132.178 152.97 132.178 153.39C132.178 153.81 132.028 154.17 131.728 154.47C131.428 154.758 131.068 154.902 130.648 154.902ZM129.478 165V156.18H131.836V165H129.478ZM136.026 157.332H136.17C136.446 156.888 136.818 156.54 137.286 156.288C137.754 156.024 138.288 155.892 138.888 155.892C139.44 155.892 139.926 155.982 140.346 156.162C140.766 156.342 141.108 156.6 141.372 156.936C141.648 157.26 141.852 157.656 141.984 158.124C142.128 158.58 142.2 159.09 142.2 159.654V165H139.842V159.942C139.842 159.306 139.698 158.838 139.41 158.538C139.134 158.226 138.726 158.07 138.186 158.07C137.862 158.07 137.574 158.142 137.322 158.286C137.082 158.418 136.872 158.604 136.692 158.844C136.524 159.072 136.392 159.348 136.296 159.672C136.212 159.984 136.17 160.32 136.17 160.68V165H133.812V156.18H136.026V157.332ZM152.32 162.876C151.912 163.596 151.36 164.178 150.664 164.622C149.98 165.066 149.14 165.288 148.144 165.288C147.472 165.288 146.848 165.174 146.272 164.946C145.708 164.706 145.216 164.376 144.796 163.956C144.376 163.536 144.046 163.044 143.806 162.48C143.578 161.904 143.464 161.274 143.464 160.59C143.464 159.954 143.578 159.354 143.806 158.79C144.034 158.214 144.352 157.716 144.76 157.296C145.168 156.864 145.648 156.522 146.2 156.27C146.764 156.018 147.382 155.892 148.054 155.892C148.762 155.892 149.392 156.012 149.944 156.252C150.496 156.48 150.958 156.804 151.33 157.224C151.702 157.632 151.984 158.118 152.176 158.682C152.368 159.246 152.464 159.858 152.464 160.518C152.464 160.602 152.464 160.674 152.464 160.734C152.452 160.806 152.446 160.872 152.446 160.932C152.434 160.992 152.428 161.058 152.428 161.13H145.786C145.834 161.49 145.93 161.802 146.074 162.066C146.23 162.318 146.416 162.534 146.632 162.714C146.86 162.882 147.106 163.008 147.37 163.092C147.634 163.164 147.904 163.2 148.18 163.2C148.72 163.2 149.164 163.08 149.512 162.84C149.872 162.588 150.154 162.276 150.358 161.904L152.32 162.876ZM150.178 159.456C150.166 159.3 150.112 159.126 150.016 158.934C149.932 158.742 149.8 158.562 149.62 158.394C149.452 158.226 149.236 158.088 148.972 157.98C148.72 157.872 148.414 157.818 148.054 157.818C147.55 157.818 147.106 157.962 146.722 158.25C146.338 158.538 146.068 158.94 145.912 159.456H150.178ZM157.37 165.288C156.794 165.288 156.278 165.216 155.822 165.072C155.378 164.928 154.988 164.742 154.652 164.514C154.328 164.274 154.052 164.004 153.824 163.704C153.596 163.392 153.422 163.08 153.302 162.768L155.408 161.868C155.612 162.324 155.882 162.666 156.218 162.894C156.566 163.11 156.95 163.218 157.37 163.218C157.802 163.218 158.144 163.14 158.396 162.984C158.648 162.828 158.774 162.642 158.774 162.426C158.774 162.186 158.666 161.994 158.45 161.85C158.246 161.694 157.886 161.556 157.37 161.436L156.128 161.166C155.852 161.106 155.564 161.01 155.264 160.878C154.976 160.746 154.712 160.578 154.472 160.374C154.232 160.17 154.034 159.924 153.878 159.636C153.722 159.348 153.644 159.012 153.644 158.628C153.644 158.196 153.734 157.812 153.914 157.476C154.106 157.14 154.364 156.858 154.688 156.63C155.012 156.39 155.39 156.21 155.822 156.09C156.266 155.958 156.74 155.892 157.244 155.892C158.084 155.892 158.834 156.06 159.494 156.396C160.154 156.72 160.64 157.242 160.952 157.962L158.918 158.79C158.75 158.442 158.504 158.19 158.18 158.034C157.856 157.878 157.532 157.8 157.208 157.8C156.872 157.8 156.578 157.872 156.326 158.016C156.074 158.148 155.948 158.322 155.948 158.538C155.948 158.742 156.05 158.904 156.254 159.024C156.47 159.144 156.758 159.252 157.118 159.348L158.468 159.672C159.368 159.888 160.034 160.236 160.466 160.716C160.91 161.184 161.132 161.742 161.132 162.39C161.132 162.774 161.042 163.14 160.862 163.488C160.682 163.836 160.424 164.148 160.088 164.424C159.764 164.688 159.368 164.898 158.9 165.054C158.444 165.21 157.934 165.288 157.37 165.288Z" fill="white"/>
<path d="M237.058 91.112H239.83L244.672 104H241.99L240.928 100.922H235.96L234.898 104H232.216L237.058 91.112ZM240.136 98.69L238.984 95.468L238.516 93.902H238.372L237.904 95.468L236.752 98.69H240.136ZM253.736 91.112H258.776C259.328 91.112 259.844 91.202 260.324 91.382C260.804 91.55 261.218 91.79 261.566 92.102C261.926 92.402 262.208 92.756 262.412 93.164C262.616 93.572 262.718 94.01 262.718 94.478C262.718 95.162 262.55 95.738 262.214 96.206C261.89 96.662 261.482 97.01 260.99 97.25V97.394C261.65 97.634 262.178 98.012 262.574 98.528C262.982 99.032 263.186 99.662 263.186 100.418C263.186 100.97 263.072 101.468 262.844 101.912C262.628 102.344 262.328 102.716 261.944 103.028C261.56 103.34 261.11 103.58 260.594 103.748C260.09 103.916 259.544 104 258.956 104H253.736V91.112ZM258.596 96.368C259.16 96.368 259.592 96.218 259.892 95.918C260.204 95.606 260.36 95.24 260.36 94.82C260.36 94.4 260.21 94.04 259.91 93.74C259.61 93.44 259.196 93.29 258.668 93.29H256.166V96.368H258.596ZM258.866 101.768C259.478 101.768 259.946 101.618 260.27 101.318C260.594 101.006 260.756 100.61 260.756 100.13C260.756 99.65 260.588 99.254 260.252 98.942C259.928 98.618 259.442 98.456 258.794 98.456H256.166V101.768H258.866ZM283.528 101.93C282.892 102.698 282.142 103.286 281.278 103.694C280.414 104.09 279.448 104.288 278.38 104.288C277.42 104.288 276.526 104.114 275.698 103.766C274.882 103.418 274.174 102.944 273.574 102.344C272.974 101.744 272.5 101.036 272.152 100.22C271.804 99.392 271.63 98.504 271.63 97.556C271.63 96.608 271.804 95.726 272.152 94.91C272.5 94.082 272.974 93.368 273.574 92.768C274.174 92.168 274.882 91.694 275.698 91.346C276.526 90.998 277.42 90.824 278.38 90.824C279.412 90.824 280.318 91.004 281.098 91.364C281.89 91.724 282.592 92.246 283.204 92.93L281.494 94.586C281.11 94.142 280.666 93.788 280.162 93.524C279.67 93.26 279.082 93.128 278.398 93.128C277.798 93.128 277.234 93.236 276.706 93.452C276.178 93.656 275.716 93.95 275.32 94.334C274.936 94.718 274.63 95.186 274.402 95.738C274.174 96.278 274.06 96.884 274.06 97.556C274.06 98.228 274.174 98.84 274.402 99.392C274.63 99.932 274.936 100.394 275.32 100.778C275.716 101.162 276.178 101.462 276.706 101.678C277.234 101.882 277.798 101.984 278.398 101.984C279.118 101.984 279.754 101.84 280.306 101.552C280.87 101.252 281.368 100.832 281.8 100.292L283.528 101.93ZM293.033 91.112H297.389C298.409 91.112 299.327 91.268 300.143 91.58C300.959 91.892 301.655 92.336 302.231 92.912C302.807 93.476 303.245 94.154 303.545 94.946C303.857 95.738 304.013 96.608 304.013 97.556C304.013 98.516 303.857 99.392 303.545 100.184C303.245 100.976 302.807 101.654 302.231 102.218C301.655 102.782 300.959 103.22 300.143 103.532C299.327 103.844 298.409 104 297.389 104H293.033V91.112ZM297.281 101.696C297.989 101.696 298.613 101.6 299.153 101.408C299.693 101.204 300.143 100.922 300.503 100.562C300.863 100.202 301.133 99.77 301.313 99.266C301.493 98.75 301.584 98.18 301.584 97.556C301.584 96.932 301.493 96.368 301.313 95.864C301.133 95.348 300.863 94.91 300.503 94.55C300.143 94.19 299.693 93.914 299.153 93.722C298.613 93.518 297.989 93.416 297.281 93.416H295.463V101.696H297.281ZM315.956 93.416V96.404H321.122V98.708H315.956V101.696H321.698V104H313.526V91.112H321.698V93.416H315.956ZM331.487 91.112H339.659V93.416H333.917V96.548H339.083V98.852H333.917V104H331.487V91.112ZM354.848 96.926H361.166C361.202 97.07 361.232 97.244 361.256 97.448C361.28 97.652 361.292 97.856 361.292 98.06C361.292 98.888 361.166 99.668 360.914 100.4C360.662 101.132 360.266 101.786 359.726 102.362C359.15 102.974 358.46 103.448 357.656 103.784C356.852 104.12 355.934 104.288 354.902 104.288C353.966 104.288 353.084 104.12 352.256 103.784C351.428 103.448 350.708 102.98 350.096 102.38C349.484 101.78 348.998 101.072 348.638 100.256C348.278 99.428 348.098 98.528 348.098 97.556C348.098 96.584 348.278 95.69 348.638 94.874C348.998 94.046 349.484 93.332 350.096 92.732C350.708 92.132 351.428 91.664 352.256 91.328C353.084 90.992 353.966 90.824 354.902 90.824C355.946 90.824 356.876 91.004 357.692 91.364C358.52 91.724 359.228 92.222 359.816 92.858L358.142 94.496C357.722 94.052 357.254 93.716 356.738 93.488C356.222 93.248 355.604 93.128 354.884 93.128C354.296 93.128 353.738 93.236 353.21 93.452C352.682 93.656 352.22 93.95 351.824 94.334C351.428 94.718 351.11 95.186 350.87 95.738C350.642 96.278 350.528 96.884 350.528 97.556C350.528 98.228 350.642 98.84 350.87 99.392C351.11 99.932 351.428 100.394 351.824 100.778C352.232 101.162 352.7 101.462 353.228 101.678C353.756 101.882 354.32 101.984 354.92 101.984C355.604 101.984 356.18 101.888 356.648 101.696C357.128 101.492 357.536 101.234 357.872 100.922C358.112 100.706 358.316 100.436 358.484 100.112C358.664 99.776 358.802 99.404 358.898 98.996H354.848V96.926ZM370.855 91.112H373.285V96.26H378.703V91.112H381.133V104H378.703V98.564H373.285V104H370.855V91.112ZM391.278 91.112H393.708V104H391.278V91.112ZM406.19 104.288C405.17 104.288 404.276 104.012 403.508 103.46C402.752 102.908 402.224 102.146 401.924 101.174L404.156 100.256C404.312 100.832 404.564 101.264 404.912 101.552C405.26 101.84 405.686 101.984 406.19 101.984C406.754 101.984 407.192 101.804 407.504 101.444C407.816 101.084 407.972 100.58 407.972 99.932V91.112H410.402V99.914C410.402 100.634 410.288 101.27 410.06 101.822C409.844 102.362 409.544 102.818 409.16 103.19C408.788 103.55 408.344 103.82 407.828 104C407.324 104.192 406.778 104.288 406.19 104.288ZM420.327 91.112H422.757V96.638H422.901L427.617 91.112H430.551V91.256L425.889 96.584L431.037 103.856V104H428.067L424.233 98.51L422.757 100.22V104H420.327V91.112ZM439.923 91.112H442.353V101.696H447.807V104H439.923V91.112ZM457.094 91.112H459.488L463.43 97.934H463.574L467.516 91.112H469.928V104H467.516V97.646L467.66 95.486H467.516L464.24 101.264H462.782L459.488 95.486H459.344L459.488 97.646V104H457.094V91.112Z" fill="white"/>
<path d="M227.296 143.112H230.122L235.306 151.752H235.45L235.306 149.268V143.112H237.718V156H235.162L229.69 146.874H229.546L229.69 149.358V156H227.296V143.112ZM253.609 156.288C252.649 156.288 251.755 156.114 250.927 155.766C250.111 155.418 249.403 154.944 248.803 154.344C248.203 153.732 247.729 153.018 247.381 152.202C247.045 151.374 246.877 150.492 246.877 149.556C246.877 148.62 247.045 147.744 247.381 146.928C247.729 146.1 248.203 145.386 248.803 144.786C249.403 144.174 250.111 143.694 250.927 143.346C251.755 142.998 252.649 142.824 253.609 142.824C254.569 142.824 255.457 142.998 256.273 143.346C257.101 143.694 257.815 144.174 258.415 144.786C259.015 145.386 259.483 146.1 259.819 146.928C260.167 147.744 260.341 148.62 260.341 149.556C260.341 150.492 260.167 151.374 259.819 152.202C259.483 153.018 259.015 153.732 258.415 154.344C257.815 154.944 257.101 155.418 256.273 155.766C255.457 156.114 254.569 156.288 253.609 156.288ZM253.609 153.984C254.209 153.984 254.767 153.876 255.283 153.66C255.811 153.444 256.267 153.144 256.651 152.76C257.047 152.376 257.353 151.914 257.569 151.374C257.797 150.822 257.911 150.216 257.911 149.556C257.911 148.896 257.797 148.296 257.569 147.756C257.353 147.204 257.047 146.736 256.651 146.352C256.267 145.968 255.811 145.668 255.283 145.452C254.767 145.236 254.209 145.128 253.609 145.128C253.009 145.128 252.445 145.236 251.917 145.452C251.401 145.668 250.945 145.968 250.549 146.352C250.165 146.736 249.859 147.204 249.631 147.756C249.415 148.296 249.307 148.896 249.307 149.556C249.307 150.216 249.415 150.822 249.631 151.374C249.859 151.914 250.165 152.376 250.549 152.76C250.945 153.144 251.401 153.444 251.917 153.66C252.445 153.876 253.009 153.984 253.609 153.984ZM269.863 156V143.112H274.399C275.011 143.112 275.581 143.214 276.109 143.418C276.649 143.61 277.117 143.886 277.513 144.246C277.909 144.606 278.221 145.038 278.449 145.542C278.677 146.034 278.791 146.58 278.791 147.18C278.791 147.792 278.677 148.35 278.449 148.854C278.221 149.346 277.909 149.772 277.513 150.132C277.117 150.492 276.649 150.774 276.109 150.978C275.581 151.17 275.011 151.266 274.399 151.266H272.293V156H269.863ZM274.435 148.962C275.071 148.962 275.551 148.782 275.875 148.422C276.199 148.062 276.361 147.648 276.361 147.18C276.361 146.952 276.319 146.73 276.235 146.514C276.163 146.298 276.043 146.112 275.875 145.956C275.719 145.788 275.521 145.656 275.281 145.56C275.041 145.464 274.759 145.416 274.435 145.416H272.293V148.962H274.435ZM296.611 155.712C296.191 155.892 295.747 156.03 295.279 156.126C294.811 156.234 294.325 156.288 293.821 156.288C292.861 156.288 291.967 156.114 291.139 155.766C290.323 155.418 289.615 154.944 289.015 154.344C288.415 153.732 287.941 153.018 287.593 152.202C287.257 151.374 287.089 150.492 287.089 149.556C287.089 148.62 287.257 147.744 287.593 146.928C287.941 146.1 288.415 145.386 289.015 144.786C289.615 144.174 290.323 143.694 291.139 143.346C291.967 142.998 292.861 142.824 293.821 142.824C294.781 142.824 295.669 142.998 296.485 143.346C297.313 143.694 298.027 144.174 298.627 144.786C299.227 145.386 299.695 146.1 300.031 146.928C300.379 147.744 300.553 148.62 300.553 149.556C300.553 150.552 300.367 151.476 299.995 152.328C299.623 153.18 299.101 153.912 298.429 154.524L299.419 156L297.619 157.206L296.611 155.712ZM293.875 151.608L295.675 150.384L297.079 152.508C297.403 152.136 297.655 151.704 297.835 151.212C298.027 150.708 298.123 150.156 298.123 149.556C298.123 148.896 298.009 148.296 297.781 147.756C297.565 147.204 297.259 146.736 296.863 146.352C296.479 145.968 296.023 145.668 295.495 145.452C294.979 145.236 294.421 145.128 293.821 145.128C293.221 145.128 292.657 145.236 292.129 145.452C291.613 145.668 291.157 145.968 290.761 146.352C290.377 146.736 290.071 147.204 289.843 147.756C289.627 148.296 289.519 148.896 289.519 149.556C289.519 150.216 289.627 150.822 289.843 151.374C290.071 151.914 290.377 152.376 290.761 152.76C291.157 153.144 291.613 153.444 292.129 153.66C292.657 153.876 293.221 153.984 293.821 153.984C294.085 153.984 294.337 153.96 294.577 153.912C294.817 153.864 295.051 153.798 295.279 153.714L293.875 151.608ZM310.075 143.112H314.773C315.421 143.112 316.009 143.214 316.537 143.418C317.065 143.622 317.515 143.904 317.887 144.264C318.271 144.624 318.565 145.056 318.769 145.56C318.973 146.052 319.075 146.592 319.075 147.18C319.075 147.612 319.003 148.02 318.859 148.404C318.715 148.776 318.517 149.118 318.265 149.43C318.013 149.73 317.719 150 317.383 150.24C317.047 150.468 316.693 150.648 316.321 150.78L316.303 150.906L319.759 155.856V156H316.969L313.639 151.158H312.505V156H310.075V143.112ZM314.755 148.926C315.307 148.926 315.757 148.758 316.105 148.422C316.465 148.086 316.645 147.66 316.645 147.144C316.645 146.916 316.603 146.694 316.519 146.478C316.447 146.262 316.333 146.07 316.177 145.902C316.021 145.734 315.823 145.602 315.583 145.506C315.355 145.398 315.091 145.344 314.791 145.344H312.505V148.926H314.755ZM332.189 156.288C331.637 156.288 331.109 156.21 330.605 156.054C330.101 155.898 329.639 155.664 329.219 155.352C328.799 155.04 328.433 154.662 328.121 154.218C327.809 153.762 327.563 153.234 327.383 152.634L329.669 151.734C329.837 152.382 330.131 152.922 330.551 153.354C330.971 153.774 331.523 153.984 332.207 153.984C332.459 153.984 332.699 153.954 332.927 153.894C333.167 153.822 333.377 153.726 333.557 153.606C333.749 153.474 333.899 153.312 334.007 153.12C334.115 152.928 334.169 152.706 334.169 152.454C334.169 152.214 334.127 151.998 334.043 151.806C333.959 151.614 333.815 151.434 333.611 151.266C333.419 151.098 333.161 150.936 332.837 150.78C332.525 150.624 332.135 150.462 331.667 150.294L330.875 150.006C330.527 149.886 330.173 149.724 329.813 149.52C329.465 149.316 329.147 149.07 328.859 148.782C328.571 148.494 328.331 148.158 328.139 147.774C327.959 147.378 327.869 146.934 327.869 146.442C327.869 145.938 327.965 145.47 328.157 145.038C328.361 144.594 328.643 144.21 329.003 143.886C329.375 143.55 329.813 143.292 330.317 143.112C330.833 142.92 331.403 142.824 332.027 142.824C332.675 142.824 333.233 142.914 333.701 143.094C334.181 143.262 334.583 143.484 334.907 143.76C335.243 144.024 335.513 144.318 335.717 144.642C335.921 144.966 336.071 145.272 336.167 145.56L334.025 146.46C333.905 146.1 333.683 145.776 333.359 145.488C333.047 145.2 332.615 145.056 332.063 145.056C331.535 145.056 331.097 145.182 330.749 145.434C330.401 145.674 330.227 145.992 330.227 146.388C330.227 146.772 330.395 147.102 330.731 147.378C331.067 147.642 331.601 147.9 332.333 148.152L333.143 148.422C333.659 148.602 334.127 148.812 334.547 149.052C334.979 149.28 335.345 149.556 335.645 149.88C335.957 150.204 336.191 150.576 336.347 150.996C336.515 151.404 336.599 151.878 336.599 152.418C336.599 153.09 336.461 153.672 336.185 154.164C335.921 154.644 335.579 155.04 335.159 155.352C334.739 155.664 334.265 155.898 333.737 156.054C333.209 156.21 332.693 156.288 332.189 156.288ZM348.171 156V145.416H344.571V143.112H354.201V145.416H350.601V156H348.171ZM367.849 156.288C367.093 156.288 366.403 156.168 365.779 155.928C365.167 155.676 364.645 155.316 364.213 154.848C363.781 154.38 363.445 153.816 363.205 153.156C362.965 152.484 362.845 151.722 362.845 150.87V143.112H365.275V151.014C365.275 151.446 365.329 151.842 365.437 152.202C365.545 152.562 365.707 152.874 365.923 153.138C366.139 153.402 366.409 153.612 366.733 153.768C367.057 153.912 367.429 153.984 367.849 153.984C368.281 153.984 368.659 153.912 368.983 153.768C369.307 153.612 369.577 153.402 369.793 153.138C370.009 152.874 370.171 152.562 370.279 152.202C370.387 151.842 370.441 151.446 370.441 151.014V143.112H372.871V150.87C372.871 151.674 372.751 152.412 372.511 153.084C372.283 153.744 371.947 154.314 371.503 154.794C371.071 155.262 370.543 155.628 369.919 155.892C369.307 156.156 368.617 156.288 367.849 156.288ZM380.928 143.112H383.556L386.22 150.87L386.688 152.526H386.832L387.336 150.87L390.108 143.112H392.736L388.038 156H385.482L380.928 143.112ZM400.069 143.112H402.643L404.641 150.636L404.929 152.022H405.073L405.451 150.636L407.305 144.84H409.573L411.445 150.636L411.805 152.004H411.949L412.219 150.636L414.091 143.112H416.665L413.245 156H410.905L408.889 149.79L408.511 148.368H408.367L407.989 149.79L405.973 156H403.633L400.069 143.112ZM428.676 149.268L424.77 143.112H427.776L430.278 147.324H430.422L432.924 143.112H435.93L432.024 149.268L436.254 156H433.23L430.422 151.356H430.278L427.47 156H424.446L428.676 149.268ZM447.939 150.006L443.601 143.112H446.499L449.073 147.378H449.217L451.701 143.112H454.635L450.369 150.006V156H447.939V150.006ZM462.977 153.552L469.511 145.416H463.265V143.112H472.337V145.56L465.875 153.696H472.409V156H462.977V153.552Z" fill="white"/>
<path d="M271.762 208V198.46L269.584 199.378L268.72 197.38L272.338 195.688H274.12V208H271.762ZM284.012 208V205.858C284.72 205.162 285.374 204.514 285.974 203.914C286.226 203.662 286.484 203.404 286.748 203.14C287.012 202.876 287.258 202.63 287.486 202.402C287.714 202.174 287.918 201.97 288.098 201.79C288.278 201.598 288.416 201.448 288.512 201.34C288.704 201.112 288.872 200.908 289.016 200.728C289.172 200.548 289.292 200.374 289.376 200.206C289.472 200.026 289.544 199.852 289.592 199.684C289.64 199.504 289.664 199.312 289.664 199.108C289.664 198.712 289.508 198.37 289.196 198.082C288.884 197.782 288.458 197.632 287.918 197.632C287.378 197.632 286.958 197.788 286.658 198.1C286.358 198.4 286.154 198.742 286.046 199.126L283.904 198.244C284 197.92 284.156 197.59 284.372 197.254C284.588 196.906 284.864 196.6 285.2 196.336C285.536 196.06 285.932 195.838 286.388 195.67C286.856 195.49 287.378 195.4 287.954 195.4C288.578 195.4 289.142 195.496 289.646 195.688C290.15 195.868 290.576 196.12 290.924 196.444C291.272 196.768 291.542 197.152 291.734 197.596C291.926 198.028 292.022 198.496 292.022 199C292.022 199.768 291.83 200.476 291.446 201.124C291.074 201.76 290.618 202.354 290.078 202.906L288.53 204.454C288.122 204.862 287.66 205.318 287.144 205.822L287.216 205.93H292.202V208H284.012ZM305.606 208.288C305.102 208.288 304.616 208.222 304.148 208.09C303.692 207.958 303.272 207.76 302.888 207.496C302.504 207.22 302.162 206.878 301.862 206.47C301.574 206.062 301.352 205.588 301.196 205.048L303.41 204.166C303.566 204.766 303.83 205.222 304.202 205.534C304.574 205.834 305.042 205.984 305.606 205.984C305.858 205.984 306.098 205.948 306.326 205.876C306.554 205.792 306.752 205.678 306.92 205.534C307.088 205.39 307.22 205.222 307.316 205.03C307.424 204.826 307.478 204.598 307.478 204.346C307.478 203.818 307.28 203.404 306.884 203.104C306.5 202.804 305.966 202.654 305.282 202.654H304.22V200.512H305.192C305.432 200.512 305.666 200.482 305.894 200.422C306.122 200.362 306.32 200.272 306.488 200.152C306.668 200.02 306.806 199.858 306.902 199.666C307.01 199.462 307.064 199.228 307.064 198.964C307.064 198.556 306.92 198.226 306.632 197.974C306.344 197.71 305.954 197.578 305.462 197.578C304.934 197.578 304.526 197.722 304.238 198.01C303.962 198.286 303.77 198.598 303.662 198.946L301.502 198.064C301.61 197.764 301.772 197.458 301.988 197.146C302.204 196.822 302.474 196.534 302.798 196.282C303.134 196.018 303.524 195.808 303.968 195.652C304.412 195.484 304.922 195.4 305.498 195.4C306.086 195.4 306.62 195.484 307.1 195.652C307.592 195.82 308.012 196.054 308.36 196.354C308.708 196.642 308.978 196.99 309.17 197.398C309.362 197.794 309.458 198.226 309.458 198.694C309.458 199.054 309.41 199.378 309.314 199.666C309.23 199.954 309.116 200.212 308.972 200.44C308.828 200.668 308.66 200.866 308.468 201.034C308.288 201.19 308.102 201.316 307.91 201.412V201.556C308.486 201.784 308.96 202.15 309.332 202.654C309.716 203.158 309.908 203.794 309.908 204.562C309.908 205.102 309.806 205.6 309.602 206.056C309.398 206.5 309.104 206.89 308.72 207.226C308.348 207.562 307.898 207.82 307.37 208C306.842 208.192 306.254 208.288 305.606 208.288ZM324.583 208V205.732H318.895V203.824L324.367 195.688H326.923V203.536H328.471V205.732H326.923V208H324.583ZM324.583 199.198H324.439L321.505 203.536H324.583V199.198ZM341.916 208.288C341.448 208.288 340.98 208.222 340.512 208.09C340.056 207.958 339.63 207.754 339.234 207.478C338.838 207.202 338.49 206.86 338.19 206.452C337.902 206.032 337.686 205.534 337.542 204.958L339.684 204.13C339.816 204.73 340.068 205.21 340.44 205.57C340.824 205.93 341.31 206.11 341.898 206.11C342.186 206.11 342.45 206.062 342.69 205.966C342.942 205.858 343.158 205.714 343.338 205.534C343.53 205.354 343.674 205.144 343.77 204.904C343.878 204.652 343.932 204.376 343.932 204.076C343.932 203.788 343.878 203.524 343.77 203.284C343.674 203.032 343.536 202.816 343.356 202.636C343.176 202.444 342.96 202.3 342.708 202.204C342.468 202.096 342.198 202.042 341.898 202.042C341.526 202.042 341.196 202.126 340.908 202.294C340.62 202.45 340.374 202.648 340.17 202.888L337.884 201.844L338.604 195.688H345.534V197.758H340.566L340.098 200.638L340.242 200.674C340.482 200.47 340.776 200.296 341.124 200.152C341.472 200.008 341.892 199.936 342.384 199.936C342.9 199.936 343.392 200.038 343.86 200.242C344.328 200.434 344.742 200.71 345.102 201.07C345.462 201.43 345.75 201.868 345.966 202.384C346.182 202.888 346.29 203.452 346.29 204.076C346.29 204.688 346.182 205.252 345.966 205.768C345.75 206.284 345.444 206.728 345.048 207.1C344.664 207.472 344.202 207.766 343.662 207.982C343.134 208.186 342.552 208.288 341.916 208.288ZM360.509 200.08C360.977 200.08 361.433 200.182 361.877 200.386C362.321 200.578 362.717 200.848 363.065 201.196C363.413 201.544 363.689 201.964 363.893 202.456C364.109 202.948 364.217 203.488 364.217 204.076C364.217 204.688 364.097 205.252 363.857 205.768C363.617 206.284 363.293 206.728 362.885 207.1C362.489 207.472 362.027 207.766 361.499 207.982C360.983 208.186 360.437 208.288 359.861 208.288C359.189 208.288 358.583 208.174 358.043 207.946C357.503 207.706 357.035 207.394 356.639 207.01C356.255 206.614 355.955 206.158 355.739 205.642C355.535 205.114 355.433 204.562 355.433 203.986C355.433 203.158 355.595 202.402 355.919 201.718C356.255 201.022 356.675 200.314 357.179 199.594L360.167 195.328L361.985 196.588L359.465 200.152L359.555 200.26C359.831 200.14 360.149 200.08 360.509 200.08ZM359.825 206.11C360.089 206.11 360.347 206.062 360.599 205.966C360.851 205.87 361.073 205.732 361.265 205.552C361.457 205.372 361.607 205.162 361.715 204.922C361.835 204.67 361.895 204.394 361.895 204.094C361.895 203.794 361.835 203.518 361.715 203.266C361.607 203.014 361.457 202.798 361.265 202.618C361.073 202.438 360.851 202.3 360.599 202.204C360.347 202.108 360.089 202.06 359.825 202.06C359.549 202.06 359.285 202.108 359.033 202.204C358.793 202.3 358.571 202.438 358.367 202.618C358.175 202.798 358.019 203.014 357.899 203.266C357.791 203.518 357.737 203.794 357.737 204.094C357.737 204.394 357.791 204.67 357.899 204.922C358.019 205.162 358.175 205.372 358.367 205.552C358.571 205.732 358.793 205.87 359.033 205.966C359.285 206.062 359.549 206.11 359.825 206.11ZM373.812 207.19L378.942 198.028L378.888 197.92H373.218L373.254 195.688H381.606V198.028L375.792 208.288L373.812 207.19ZM395.064 208.288C394.404 208.288 393.798 208.192 393.246 208C392.706 207.808 392.238 207.55 391.842 207.226C391.446 206.89 391.14 206.5 390.924 206.056C390.708 205.6 390.6 205.108 390.6 204.58C390.6 204.22 390.648 203.884 390.744 203.572C390.852 203.26 390.99 202.978 391.158 202.726C391.338 202.474 391.542 202.252 391.77 202.06C391.998 201.868 392.238 201.706 392.49 201.574V201.43C392.094 201.166 391.746 200.818 391.446 200.386C391.158 199.954 391.014 199.45 391.014 198.874C391.014 198.382 391.116 197.926 391.32 197.506C391.524 197.074 391.806 196.702 392.166 196.39C392.526 196.078 392.952 195.838 393.444 195.67C393.936 195.49 394.476 195.4 395.064 195.4C395.652 195.4 396.192 195.49 396.684 195.67C397.176 195.838 397.602 196.078 397.962 196.39C398.322 196.702 398.604 197.074 398.808 197.506C399.012 197.926 399.114 198.382 399.114 198.874C399.114 199.45 398.964 199.954 398.664 200.386C398.376 200.818 398.034 201.166 397.638 201.43V201.574C397.89 201.706 398.13 201.868 398.358 202.06C398.586 202.252 398.784 202.474 398.952 202.726C399.132 202.978 399.27 203.26 399.366 203.572C399.474 203.884 399.528 204.22 399.528 204.58C399.528 205.108 399.42 205.6 399.204 206.056C398.988 206.5 398.682 206.89 398.286 207.226C397.89 207.55 397.416 207.808 396.864 208C396.324 208.192 395.724 208.288 395.064 208.288ZM395.064 200.548C395.568 200.548 395.988 200.41 396.324 200.134C396.66 199.846 396.828 199.474 396.828 199.018C396.828 198.55 396.66 198.184 396.324 197.92C395.988 197.644 395.568 197.506 395.064 197.506C394.56 197.506 394.14 197.644 393.804 197.92C393.468 198.184 393.3 198.55 393.3 199.018C393.3 199.474 393.468 199.846 393.804 200.134C394.14 200.41 394.56 200.548 395.064 200.548ZM395.064 206.11C395.676 206.11 396.18 205.954 396.576 205.642C396.972 205.318 397.17 204.886 397.17 204.346C397.17 204.094 397.116 203.866 397.008 203.662C396.9 203.446 396.75 203.26 396.558 203.104C396.378 202.948 396.156 202.828 395.892 202.744C395.64 202.66 395.364 202.618 395.064 202.618C394.764 202.618 394.482 202.66 394.218 202.744C393.966 202.828 393.744 202.948 393.552 203.104C393.372 203.26 393.228 203.446 393.12 203.662C393.012 203.866 392.958 204.094 392.958 204.346C392.958 204.886 393.156 205.318 393.552 205.642C393.948 205.954 394.452 206.11 395.064 206.11ZM412.234 203.59C411.766 203.59 411.31 203.494 410.866 203.302C410.422 203.11 410.026 202.84 409.678 202.492C409.33 202.132 409.048 201.712 408.832 201.232C408.628 200.74 408.526 200.2 408.526 199.612C408.526 199 408.646 198.436 408.886 197.92C409.126 197.392 409.444 196.942 409.84 196.57C410.248 196.198 410.71 195.91 411.226 195.706C411.754 195.49 412.306 195.382 412.882 195.382C413.542 195.382 414.142 195.502 414.682 195.742C415.234 195.97 415.702 196.282 416.086 196.678C416.482 197.062 416.782 197.518 416.986 198.046C417.202 198.562 417.31 199.108 417.31 199.684C417.31 200.512 417.142 201.274 416.806 201.97C416.482 202.654 416.068 203.356 415.564 204.076L412.576 208.342L410.758 207.1L413.278 203.518L413.188 203.41C412.912 203.53 412.594 203.59 412.234 203.59ZM412.918 197.56C412.642 197.56 412.378 197.608 412.126 197.704C411.886 197.8 411.67 197.938 411.478 198.118C411.286 198.298 411.13 198.514 411.01 198.766C410.902 199.006 410.848 199.276 410.848 199.576C410.848 199.888 410.902 200.17 411.01 200.422C411.13 200.662 411.286 200.872 411.478 201.052C411.67 201.232 411.886 201.37 412.126 201.466C412.378 201.562 412.642 201.61 412.918 201.61C413.182 201.61 413.44 201.562 413.692 201.466C413.944 201.37 414.166 201.232 414.358 201.052C414.562 200.872 414.718 200.662 414.826 200.422C414.946 200.17 415.006 199.888 415.006 199.576C415.006 199.276 414.946 199.006 414.826 198.766C414.718 198.514 414.562 198.298 414.358 198.118C414.166 197.938 413.944 197.8 413.692 197.704C413.44 197.608 413.182 197.56 412.918 197.56ZM431.549 208.288C430.757 208.288 430.043 208.126 429.407 207.802C428.771 207.466 428.225 207.01 427.769 206.434C427.325 205.858 426.983 205.18 426.743 204.4C426.503 203.608 426.383 202.756 426.383 201.844C426.383 200.932 426.503 200.086 426.743 199.306C426.983 198.514 427.325 197.83 427.769 197.254C428.225 196.678 428.771 196.228 429.407 195.904C430.043 195.568 430.757 195.4 431.549 195.4C432.341 195.4 433.055 195.568 433.691 195.904C434.327 196.228 434.867 196.678 435.311 197.254C435.767 197.83 436.115 198.514 436.355 199.306C436.595 200.086 436.715 200.932 436.715 201.844C436.715 202.756 436.595 203.608 436.355 204.4C436.115 205.18 435.767 205.858 435.311 206.434C434.867 207.01 434.327 207.466 433.691 207.802C433.055 208.126 432.341 208.288 431.549 208.288ZM431.549 206.056C431.981 206.056 432.371 205.954 432.719 205.75C433.067 205.534 433.361 205.24 433.601 204.868C433.853 204.484 434.039 204.034 434.159 203.518C434.291 203.002 434.357 202.444 434.357 201.844C434.357 201.232 434.291 200.674 434.159 200.17C434.039 199.654 433.853 199.21 433.601 198.838C433.361 198.454 433.067 198.16 432.719 197.956C432.371 197.74 431.981 197.632 431.549 197.632C431.105 197.632 430.709 197.74 430.361 197.956C430.013 198.16 429.719 198.454 429.479 198.838C429.239 199.21 429.053 199.654 428.921 200.17C428.801 200.674 428.741 201.232 428.741 201.844C428.741 202.444 428.801 203.002 428.921 203.518C429.053 204.034 429.239 204.484 429.479 204.868C429.719 205.24 430.013 205.534 430.361 205.75C430.709 205.954 431.105 206.056 431.549 206.056Z" fill="white"/>
<rect x="0.5" y="0.5" width="496" height="299" stroke="white"/>
</svg>
