<svg width="497" height="300" viewBox="0 0 497 300" fill="none" xmlns="http://www.w3.org/2000/svg">
<path d="M13.952 117.78V123H12.296V110.112H16.688C17.804 110.112 18.752 110.484 19.532 111.228C20.324 111.972 20.72 112.878 20.72 113.946C20.72 115.038 20.324 115.95 19.532 116.682C18.764 117.414 17.816 117.78 16.688 117.78H13.952ZM13.952 111.696V116.196H16.724C17.384 116.196 17.93 115.974 18.362 115.53C18.806 115.086 19.028 114.558 19.028 113.946C19.028 113.346 18.806 112.824 18.362 112.38C17.93 111.924 17.384 111.696 16.724 111.696H13.952ZM23.6442 123H21.9882V114.18H23.5722V115.62H23.6442C23.8122 115.152 24.1542 114.756 24.6702 114.432C25.1982 114.096 25.7142 113.928 26.2182 113.928C26.6982 113.928 27.1062 114 27.4422 114.144L26.9382 115.746C26.7342 115.662 26.4102 115.62 25.9662 115.62C25.3422 115.62 24.7962 115.872 24.3282 116.376C23.8722 116.88 23.6442 117.468 23.6442 118.14V123ZM27.2983 118.59C27.2983 117.234 27.7243 116.112 28.5763 115.224C29.4403 114.336 30.5263 113.892 31.8343 113.892C33.1423 113.892 34.2223 114.336 35.0743 115.224C35.9383 116.112 36.3703 117.234 36.3703 118.59C36.3703 119.958 35.9383 121.08 35.0743 121.956C34.2223 122.844 33.1423 123.288 31.8343 123.288C30.5263 123.288 29.4403 122.844 28.5763 121.956C27.7243 121.068 27.2983 119.946 27.2983 118.59ZM28.9543 118.59C28.9543 119.538 29.2303 120.306 29.7823 120.894C30.3343 121.482 31.0183 121.776 31.8343 121.776C32.6503 121.776 33.3343 121.482 33.8863 120.894C34.4383 120.306 34.7143 119.538 34.7143 118.59C34.7143 117.654 34.4383 116.892 33.8863 116.304C33.3223 115.704 32.6383 115.404 31.8343 115.404C31.0303 115.404 30.3463 115.704 29.7823 116.304C29.2303 116.892 28.9543 117.654 28.9543 118.59ZM41.6546 121.776C42.4706 121.776 43.1366 121.482 43.6526 120.894C44.1926 120.306 44.4626 119.538 44.4626 118.59C44.4626 117.666 44.1926 116.904 43.6526 116.304C43.1246 115.704 42.4586 115.404 41.6546 115.404C40.8626 115.404 40.1966 115.704 39.6566 116.304C39.1166 116.904 38.8466 117.666 38.8466 118.59C38.8466 119.526 39.1166 120.288 39.6566 120.876C40.1966 121.476 40.8626 121.776 41.6546 121.776ZM41.3846 123.288C40.2326 123.288 39.2426 122.832 38.4146 121.92C37.5986 120.996 37.1906 119.886 37.1906 118.59C37.1906 117.294 37.5986 116.184 38.4146 115.26C39.2426 114.348 40.2326 113.892 41.3846 113.892C42.0326 113.892 42.6206 114.03 43.1486 114.306C43.6886 114.582 44.1026 114.948 44.3906 115.404H44.4626L44.3906 114.18V110.112H46.0466V123H44.4626V121.776H44.3906C44.1026 122.232 43.6886 122.598 43.1486 122.874C42.6206 123.15 42.0326 123.288 41.3846 123.288ZM55.6257 123H54.0417V121.776H53.9697C53.7177 122.208 53.3277 122.568 52.7997 122.856C52.2837 123.144 51.7437 123.288 51.1797 123.288C50.0997 123.288 49.2657 122.982 48.6777 122.37C48.1017 121.746 47.8137 120.864 47.8137 119.724V114.18H49.4697V119.616C49.5057 121.056 50.2317 121.776 51.6477 121.776C52.3077 121.776 52.8597 121.512 53.3037 120.984C53.7477 120.444 53.9697 119.802 53.9697 119.058V114.18H55.6257V123ZM61.4056 123.288C60.0976 123.288 59.0116 122.844 58.1476 121.956C57.2956 121.044 56.8696 119.922 56.8696 118.59C56.8696 117.234 57.2956 116.112 58.1476 115.224C59.0116 114.336 60.0976 113.892 61.4056 113.892C62.3056 113.892 63.0916 114.12 63.7636 114.576C64.4356 115.02 64.9396 115.638 65.2756 116.43L63.7636 117.06C63.2956 115.956 62.4736 115.404 61.2976 115.404C60.5416 115.404 59.8876 115.71 59.3356 116.322C58.7956 116.934 58.5256 117.69 58.5256 118.59C58.5256 119.49 58.7956 120.246 59.3356 120.858C59.8876 121.47 60.5416 121.776 61.2976 121.776C62.5096 121.776 63.3616 121.224 63.8536 120.12L65.3296 120.75C65.0056 121.542 64.4956 122.166 63.7996 122.622C63.1156 123.066 62.3176 123.288 61.4056 123.288ZM70.002 123.144C69.282 123.144 68.682 122.922 68.202 122.478C67.734 122.034 67.494 121.416 67.482 120.624V115.692H65.934V114.18H67.482V111.48H69.138V114.18H71.298V115.692H69.138V120.084C69.138 120.672 69.252 121.074 69.48 121.29C69.708 121.494 69.966 121.596 70.254 121.596C70.386 121.596 70.512 121.584 70.632 121.56C70.764 121.524 70.884 121.482 70.992 121.434L71.514 122.91C71.082 123.066 70.578 123.144 70.002 123.144ZM84.1675 119.562C84.1675 120.69 83.7535 121.596 82.9255 122.28C82.0855 122.952 81.0655 123.288 79.8655 123.288C78.7975 123.288 77.8555 122.976 77.0395 122.352C76.2235 121.728 75.6595 120.876 75.3475 119.796L76.9315 119.148C77.0395 119.532 77.1895 119.88 77.3815 120.192C77.5735 120.504 77.7955 120.774 78.0475 121.002C78.3115 121.218 78.5995 121.392 78.9115 121.524C79.2235 121.644 79.5535 121.704 79.9015 121.704C80.6575 121.704 81.2755 121.512 81.7555 121.128C82.2355 120.732 82.4755 120.21 82.4755 119.562C82.4755 119.022 82.2775 118.56 81.8815 118.176C81.5095 117.804 80.8135 117.444 79.7935 117.096C78.7615 116.724 78.1195 116.472 77.8675 116.34C76.4995 115.644 75.8155 114.618 75.8155 113.262C75.8155 112.314 76.1935 111.504 76.9495 110.832C77.7175 110.16 78.6595 109.824 79.7755 109.824C80.7595 109.824 81.6115 110.076 82.3315 110.58C83.0515 111.072 83.5315 111.69 83.7715 112.434L82.2235 113.082C82.0795 112.602 81.7915 112.206 81.3595 111.894C80.9395 111.57 80.4235 111.408 79.8115 111.408C79.1635 111.408 78.6175 111.588 78.1735 111.948C77.7295 112.284 77.5075 112.722 77.5075 113.262C77.5075 113.706 77.6815 114.09 78.0295 114.414C78.4135 114.738 79.2475 115.122 80.5315 115.566C81.8395 116.01 82.7695 116.556 83.3215 117.204C83.8855 117.84 84.1675 118.626 84.1675 119.562ZM86.8987 120.3C86.8987 120.732 87.0787 121.092 87.4387 121.38C87.8107 121.668 88.2427 121.812 88.7347 121.812C89.4307 121.812 90.0487 121.554 90.5887 121.038C91.1407 120.522 91.4167 119.916 91.4167 119.22C90.9007 118.812 90.1807 118.608 89.2567 118.608C88.5847 118.608 88.0207 118.77 87.5647 119.094C87.1207 119.418 86.8987 119.82 86.8987 120.3ZM89.0407 113.892C90.2647 113.892 91.2307 114.222 91.9387 114.882C92.6467 115.53 93.0007 116.424 93.0007 117.564V123H91.4167V121.776H91.3447C90.6607 122.784 89.7487 123.288 88.6087 123.288C87.6367 123.288 86.8207 123 86.1607 122.424C85.5127 121.848 85.1887 121.128 85.1887 120.264C85.1887 119.352 85.5307 118.626 86.2147 118.086C86.9107 117.546 87.8347 117.276 88.9867 117.276C89.9707 117.276 90.7807 117.456 91.4167 117.816V117.438C91.4167 116.862 91.1887 116.376 90.7327 115.98C90.2767 115.572 89.7427 115.368 89.1307 115.368C88.2067 115.368 87.4747 115.758 86.9347 116.538L85.4767 115.62C86.2807 114.468 87.4687 113.892 89.0407 113.892ZM94.6885 114.18H96.2725V115.404H96.3445C96.5965 114.972 96.9805 114.612 97.4965 114.324C98.0245 114.036 98.5705 113.892 99.1345 113.892C100.214 113.892 101.042 114.204 101.618 114.828C102.206 115.44 102.5 116.316 102.5 117.456V123H100.844V117.564C100.808 116.124 100.082 115.404 98.6665 115.404C98.0065 115.404 97.4545 115.674 97.0105 116.214C96.5665 116.742 96.3445 117.378 96.3445 118.122V123H94.6885V114.18ZM110.926 120.552C110.926 121.32 110.59 121.968 109.918 122.496C109.246 123.024 108.4 123.288 107.38 123.288C106.492 123.288 105.712 123.06 105.04 122.604C104.368 122.136 103.888 121.524 103.6 120.768L105.076 120.138C105.292 120.666 105.604 121.08 106.012 121.38C106.432 121.668 106.888 121.812 107.38 121.812C107.908 121.812 108.346 121.698 108.694 121.47C109.054 121.242 109.234 120.972 109.234 120.66C109.234 120.096 108.802 119.682 107.938 119.418L106.426 119.04C104.71 118.608 103.852 117.78 103.852 116.556C103.852 115.752 104.176 115.11 104.824 114.63C105.484 114.138 106.324 113.892 107.344 113.892C108.124 113.892 108.826 114.078 109.45 114.45C110.086 114.822 110.53 115.32 110.782 115.944L109.306 116.556C109.138 116.184 108.862 115.896 108.478 115.692C108.106 115.476 107.686 115.368 107.218 115.368C106.786 115.368 106.396 115.476 106.048 115.692C105.712 115.908 105.544 116.172 105.544 116.484C105.544 116.988 106.018 117.348 106.966 117.564L108.298 117.906C110.05 118.338 110.926 119.22 110.926 120.552ZM117.907 111.696V116.232H120.571C121.243 116.232 121.813 116.016 122.281 115.584C122.749 115.14 122.983 114.594 122.983 113.946C122.983 113.346 122.761 112.824 122.317 112.38C121.885 111.924 121.339 111.696 120.679 111.696H117.907ZM117.907 123H116.251V110.112H120.643C121.759 110.112 122.707 110.484 123.487 111.228C124.279 111.96 124.675 112.866 124.675 113.946C124.675 114.834 124.381 115.626 123.793 116.322C123.217 117.006 122.485 117.444 121.597 117.636L121.561 117.69L125.179 122.928V123H123.217L119.743 117.78H117.907V123ZM129.973 123.288C128.677 123.288 127.609 122.844 126.769 121.956C125.929 121.068 125.509 119.946 125.509 118.59C125.509 117.246 125.917 116.13 126.733 115.242C127.549 114.342 128.593 113.892 129.865 113.892C131.173 113.892 132.211 114.318 132.979 115.17C133.759 116.01 134.149 117.192 134.149 118.716L134.131 118.896H127.201C127.225 119.76 127.513 120.456 128.065 120.984C128.617 121.512 129.277 121.776 130.045 121.776C131.101 121.776 131.929 121.248 132.529 120.192L134.005 120.912C133.609 121.656 133.057 122.238 132.349 122.658C131.653 123.078 130.861 123.288 129.973 123.288ZM127.327 117.528H132.385C132.337 116.916 132.085 116.412 131.629 116.016C131.185 115.608 130.585 115.404 129.829 115.404C129.205 115.404 128.665 115.596 128.209 115.98C127.765 116.364 127.471 116.88 127.327 117.528ZM139.532 121.776C140.348 121.776 141.014 121.482 141.53 120.894C142.07 120.306 142.34 119.538 142.34 118.59C142.34 117.666 142.07 116.904 141.53 116.304C141.002 115.704 140.336 115.404 139.532 115.404C138.74 115.404 138.074 115.704 137.534 116.304C136.994 116.904 136.724 117.666 136.724 118.59C136.724 119.526 136.994 120.288 137.534 120.876C138.074 121.476 138.74 121.776 139.532 121.776ZM139.478 127.176C138.986 127.176 138.524 127.11 138.092 126.978C137.66 126.858 137.264 126.684 136.904 126.456C136.556 126.228 136.256 125.958 136.004 125.646C135.752 125.334 135.56 124.986 135.428 124.602L136.994 123.954C137.174 124.47 137.486 124.884 137.93 125.196C138.374 125.508 138.89 125.664 139.478 125.664C140.378 125.664 141.08 125.394 141.584 124.854C142.088 124.314 142.34 123.57 142.34 122.622V121.776H142.268C141.956 122.244 141.53 122.616 140.99 122.892C140.462 123.156 139.886 123.288 139.262 123.288C138.11 123.288 137.12 122.838 136.292 121.938C135.476 121.014 135.068 119.898 135.068 118.59C135.068 117.282 135.476 116.172 136.292 115.26C137.12 114.348 138.11 113.892 139.262 113.892C139.886 113.892 140.462 114.03 140.99 114.306C141.53 114.57 141.956 114.936 142.268 115.404H142.34V114.18H143.924V122.622C143.924 124.038 143.522 125.148 142.718 125.952C141.902 126.768 140.822 127.176 139.478 127.176ZM153.415 123H151.831V121.776H151.759C151.507 122.208 151.117 122.568 150.589 122.856C150.073 123.144 149.533 123.288 148.969 123.288C147.889 123.288 147.055 122.982 146.467 122.37C145.891 121.746 145.603 120.864 145.603 119.724V114.18H147.259V119.616C147.295 121.056 148.021 121.776 149.437 121.776C150.097 121.776 150.649 121.512 151.093 120.984C151.537 120.444 151.759 119.802 151.759 119.058V114.18H153.415V123ZM156.907 110.112V123H155.251V110.112H156.907ZM159.863 120.3C159.863 120.732 160.043 121.092 160.403 121.38C160.775 121.668 161.207 121.812 161.699 121.812C162.395 121.812 163.013 121.554 163.553 121.038C164.105 120.522 164.381 119.916 164.381 119.22C163.865 118.812 163.145 118.608 162.221 118.608C161.549 118.608 160.985 118.77 160.529 119.094C160.085 119.418 159.863 119.82 159.863 120.3ZM162.005 113.892C163.229 113.892 164.195 114.222 164.903 114.882C165.611 115.53 165.965 116.424 165.965 117.564V123H164.381V121.776H164.309C163.625 122.784 162.713 123.288 161.573 123.288C160.601 123.288 159.785 123 159.125 122.424C158.477 121.848 158.153 121.128 158.153 120.264C158.153 119.352 158.495 118.626 159.179 118.086C159.875 117.546 160.799 117.276 161.951 117.276C162.935 117.276 163.745 117.456 164.381 117.816V117.438C164.381 116.862 164.153 116.376 163.697 115.98C163.241 115.572 162.707 115.368 162.095 115.368C161.171 115.368 160.439 115.758 159.899 116.538L158.441 115.62C159.245 114.468 160.433 113.892 162.005 113.892ZM169.308 123H167.652V114.18H169.236V115.62H169.308C169.476 115.152 169.818 114.756 170.334 114.432C170.862 114.096 171.378 113.928 171.882 113.928C172.362 113.928 172.77 114 173.106 114.144L172.602 115.746C172.398 115.662 172.074 115.62 171.63 115.62C171.006 115.62 170.46 115.872 169.992 116.376C169.536 116.88 169.308 117.468 169.308 118.14V123Z" fill="white"/>
<path d="M16.778 165.288C15.35 165.288 14.198 164.82 13.322 163.884C12.446 162.96 12.008 161.736 12.008 160.212V152.112H13.664V160.284C13.664 161.34 13.94 162.174 14.492 162.786C15.044 163.398 15.806 163.704 16.778 163.704C17.75 163.704 18.512 163.398 19.064 162.786C19.616 162.174 19.892 161.34 19.892 160.284V152.112H21.548V160.212C21.548 161.772 21.116 163.008 20.252 163.92C19.388 164.832 18.23 165.288 16.778 165.288ZM30.1268 162.552C30.1268 163.32 29.7908 163.968 29.1188 164.496C28.4468 165.024 27.6008 165.288 26.5808 165.288C25.6928 165.288 24.9128 165.06 24.2408 164.604C23.5688 164.136 23.0888 163.524 22.8008 162.768L24.2768 162.138C24.4928 162.666 24.8048 163.08 25.2128 163.38C25.6328 163.668 26.0888 163.812 26.5808 163.812C27.1088 163.812 27.5468 163.698 27.8948 163.47C28.2548 163.242 28.4348 162.972 28.4348 162.66C28.4348 162.096 28.0028 161.682 27.1388 161.418L25.6268 161.04C23.9108 160.608 23.0528 159.78 23.0528 158.556C23.0528 157.752 23.3768 157.11 24.0248 156.63C24.6848 156.138 25.5248 155.892 26.5448 155.892C27.3248 155.892 28.0268 156.078 28.6508 156.45C29.2868 156.822 29.7308 157.32 29.9828 157.944L28.5068 158.556C28.3388 158.184 28.0628 157.896 27.6788 157.692C27.3068 157.476 26.8868 157.368 26.4188 157.368C25.9868 157.368 25.5968 157.476 25.2488 157.692C24.9128 157.908 24.7448 158.172 24.7448 158.484C24.7448 158.988 25.2188 159.348 26.1668 159.564L27.4988 159.906C29.2508 160.338 30.1268 161.22 30.1268 162.552ZM35.4361 165.288C34.1401 165.288 33.0721 164.844 32.2321 163.956C31.3921 163.068 30.9721 161.946 30.9721 160.59C30.9721 159.246 31.3801 158.13 32.1961 157.242C33.0121 156.342 34.0561 155.892 35.3281 155.892C36.6361 155.892 37.6741 156.318 38.4421 157.17C39.2221 158.01 39.6121 159.192 39.6121 160.716L39.5941 160.896H32.6641C32.6881 161.76 32.9761 162.456 33.5281 162.984C34.0801 163.512 34.7401 163.776 35.5081 163.776C36.5641 163.776 37.3921 163.248 37.9921 162.192L39.4681 162.912C39.0721 163.656 38.5201 164.238 37.8121 164.658C37.1161 165.078 36.3241 165.288 35.4361 165.288ZM32.7901 159.528H37.8481C37.8001 158.916 37.5481 158.412 37.0921 158.016C36.6481 157.608 36.0481 157.404 35.2921 157.404C34.6681 157.404 34.1281 157.596 33.6721 157.98C33.2281 158.364 32.9341 158.88 32.7901 159.528ZM48.438 151.968C49.038 151.968 49.53 152.07 49.914 152.274L49.464 153.732C49.176 153.588 48.852 153.516 48.492 153.516C48.084 153.516 47.748 153.66 47.484 153.948C47.232 154.224 47.106 154.596 47.106 155.064V156.18H49.41V157.692H47.106V165H45.45V157.692H43.794V156.18H45.45V154.902C45.45 154.026 45.726 153.318 46.278 152.778C46.842 152.238 47.562 151.968 48.438 151.968ZM49.7681 160.59C49.7681 159.234 50.1941 158.112 51.0461 157.224C51.9101 156.336 52.9961 155.892 54.3041 155.892C55.6121 155.892 56.6921 156.336 57.5441 157.224C58.4081 158.112 58.8401 159.234 58.8401 160.59C58.8401 161.958 58.4081 163.08 57.5441 163.956C56.6921 164.844 55.6121 165.288 54.3041 165.288C52.9961 165.288 51.9101 164.844 51.0461 163.956C50.1941 163.068 49.7681 161.946 49.7681 160.59ZM51.4241 160.59C51.4241 161.538 51.7001 162.306 52.2521 162.894C52.8041 163.482 53.4881 163.776 54.3041 163.776C55.1201 163.776 55.8041 163.482 56.3561 162.894C56.9081 162.306 57.1841 161.538 57.1841 160.59C57.1841 159.654 56.9081 158.892 56.3561 158.304C55.7921 157.704 55.1081 157.404 54.3041 157.404C53.5001 157.404 52.8161 157.704 52.2521 158.304C51.7001 158.892 51.4241 159.654 51.4241 160.59ZM61.6445 165H59.9885V156.18H61.5725V157.62H61.6445C61.8125 157.152 62.1545 156.756 62.6705 156.432C63.1985 156.096 63.7145 155.928 64.2185 155.928C64.6985 155.928 65.1065 156 65.4425 156.144L64.9385 157.746C64.7345 157.662 64.4105 157.62 63.9665 157.62C63.3425 157.62 62.7965 157.872 62.3285 158.376C61.8725 158.88 61.6445 159.468 61.6445 160.14V165ZM74.7847 165.288C74.1367 165.288 73.5427 165.15 73.0027 164.874C72.4747 164.598 72.0667 164.232 71.7787 163.776H71.7067V165H70.1227V152.112H71.7787V156.18L71.7067 157.404H71.7787C72.0667 156.948 72.4747 156.582 73.0027 156.306C73.5427 156.03 74.1367 155.892 74.7847 155.892C75.9487 155.892 76.9327 156.348 77.7367 157.26C78.5647 158.184 78.9787 159.294 78.9787 160.59C78.9787 161.898 78.5647 163.008 77.7367 163.92C76.9327 164.832 75.9487 165.288 74.7847 165.288ZM74.5147 163.776C75.3067 163.776 75.9727 163.476 76.5127 162.876C77.0527 162.288 77.3227 161.526 77.3227 160.59C77.3227 159.666 77.0527 158.904 76.5127 158.304C75.9727 157.704 75.3067 157.404 74.5147 157.404C73.7107 157.404 73.0387 157.704 72.4987 158.304C71.9707 158.904 71.7067 159.666 71.7067 160.59C71.7067 161.526 71.9707 162.294 72.4987 162.894C73.0387 163.482 73.7107 163.776 74.5147 163.776ZM79.8098 160.59C79.8098 159.234 80.2358 158.112 81.0878 157.224C81.9518 156.336 83.0378 155.892 84.3458 155.892C85.6538 155.892 86.7338 156.336 87.5858 157.224C88.4498 158.112 88.8818 159.234 88.8818 160.59C88.8818 161.958 88.4498 163.08 87.5858 163.956C86.7338 164.844 85.6538 165.288 84.3458 165.288C83.0378 165.288 81.9518 164.844 81.0878 163.956C80.2358 163.068 79.8098 161.946 79.8098 160.59ZM81.4658 160.59C81.4658 161.538 81.7418 162.306 82.2938 162.894C82.8458 163.482 83.5298 163.776 84.3458 163.776C85.1618 163.776 85.8458 163.482 86.3978 162.894C86.9498 162.306 87.2258 161.538 87.2258 160.59C87.2258 159.654 86.9498 158.892 86.3978 158.304C85.8338 157.704 85.1498 157.404 84.3458 157.404C83.5418 157.404 82.8578 157.704 82.2938 158.304C81.7418 158.892 81.4658 159.654 81.4658 160.59ZM94.166 163.776C94.982 163.776 95.648 163.482 96.164 162.894C96.704 162.306 96.974 161.538 96.974 160.59C96.974 159.666 96.704 158.904 96.164 158.304C95.636 157.704 94.97 157.404 94.166 157.404C93.374 157.404 92.708 157.704 92.168 158.304C91.628 158.904 91.358 159.666 91.358 160.59C91.358 161.526 91.628 162.288 92.168 162.876C92.708 163.476 93.374 163.776 94.166 163.776ZM93.896 165.288C92.744 165.288 91.754 164.832 90.926 163.92C90.11 162.996 89.702 161.886 89.702 160.59C89.702 159.294 90.11 158.184 90.926 157.26C91.754 156.348 92.744 155.892 93.896 155.892C94.544 155.892 95.132 156.03 95.66 156.306C96.2 156.582 96.614 156.948 96.902 157.404H96.974L96.902 156.18V152.112H98.558V165H96.974V163.776H96.902C96.614 164.232 96.2 164.598 95.66 164.874C95.132 165.15 94.544 165.288 93.896 165.288ZM108.281 156.18L102.755 168.888H101.045L103.097 164.442L99.4611 156.18H101.261L103.889 162.516H103.925L106.481 156.18H108.281ZM116.449 165.144C115.729 165.144 115.129 164.922 114.649 164.478C114.181 164.034 113.941 163.416 113.929 162.624V157.692H112.381V156.18H113.929V153.48H115.585V156.18H117.745V157.692H115.585V162.084C115.585 162.672 115.699 163.074 115.927 163.29C116.155 163.494 116.413 163.596 116.701 163.596C116.833 163.596 116.959 163.584 117.079 163.56C117.211 163.524 117.331 163.482 117.439 163.434L117.961 164.91C117.529 165.066 117.025 165.144 116.449 165.144ZM123.012 165.288C121.716 165.288 120.648 164.844 119.808 163.956C118.968 163.068 118.548 161.946 118.548 160.59C118.548 159.246 118.956 158.13 119.772 157.242C120.588 156.342 121.632 155.892 122.904 155.892C124.212 155.892 125.25 156.318 126.018 157.17C126.798 158.01 127.188 159.192 127.188 160.716L127.17 160.896H120.24C120.264 161.76 120.552 162.456 121.104 162.984C121.656 163.512 122.316 163.776 123.084 163.776C124.14 163.776 124.968 163.248 125.568 162.192L127.044 162.912C126.648 163.656 126.096 164.238 125.388 164.658C124.692 165.078 123.9 165.288 123.012 165.288ZM120.366 159.528H125.424C125.376 158.916 125.124 158.412 124.668 158.016C124.224 157.608 123.624 157.404 122.868 157.404C122.244 157.404 121.704 157.596 121.248 157.98C120.804 158.364 120.51 158.88 120.366 159.528ZM132.541 160.518L135.691 165H133.747L131.569 161.742L129.427 165H127.483L130.597 160.518L127.555 156.18H129.427L131.605 159.294L133.675 156.18H135.619L132.541 160.518ZM140.149 165.144C139.429 165.144 138.829 164.922 138.349 164.478C137.881 164.034 137.641 163.416 137.629 162.624V157.692H136.081V156.18H137.629V153.48H139.285V156.18H141.445V157.692H139.285V162.084C139.285 162.672 139.399 163.074 139.627 163.29C139.855 163.494 140.113 163.596 140.401 163.596C140.533 163.596 140.659 163.584 140.779 163.56C140.911 163.524 141.031 163.482 141.139 163.434L141.661 164.91C141.229 165.066 140.725 165.144 140.149 165.144Z" fill="white"/>
<path d="M241.976 91.146L239.87 96.96H244.154L242.048 91.146H241.976ZM238.052 102H236.216L241.076 89.112H242.948L247.808 102H245.972L244.73 98.508H239.312L238.052 102ZM256.875 102V89.112H261.537C262.557 89.112 263.433 89.448 264.165 90.12C264.897 90.78 265.263 91.614 265.263 92.622C265.263 93.894 264.681 94.788 263.517 95.304V95.376C264.177 95.592 264.705 95.97 265.101 96.51C265.497 97.038 265.695 97.644 265.695 98.328C265.695 99.384 265.311 100.26 264.543 100.956C263.799 101.652 262.881 102 261.789 102H256.875ZM258.531 90.696V94.638H261.537C262.125 94.638 262.617 94.44 263.013 94.044C263.409 93.636 263.607 93.174 263.607 92.658C263.607 92.154 263.415 91.698 263.031 91.29C262.647 90.894 262.173 90.696 261.609 90.696H258.531ZM258.531 96.186V100.416H261.861C262.461 100.416 262.971 100.206 263.391 99.786C263.799 99.366 264.003 98.868 264.003 98.292C264.003 97.728 263.793 97.236 263.373 96.816C262.953 96.396 262.425 96.186 261.789 96.186H258.531ZM280.832 102.288C278.924 102.288 277.328 101.646 276.044 100.362C274.772 99.078 274.136 97.476 274.136 95.556C274.136 93.636 274.772 92.04 276.044 90.768C277.316 89.472 278.912 88.824 280.832 88.824C282.776 88.824 284.354 89.526 285.566 90.93L284.378 92.082C283.454 90.966 282.272 90.408 280.832 90.408C279.404 90.408 278.21 90.888 277.25 91.848C276.302 92.796 275.828 94.032 275.828 95.556C275.828 97.08 276.302 98.316 277.25 99.264C278.21 100.224 279.404 100.704 280.832 100.704C282.332 100.704 283.634 100.074 284.738 98.814L285.944 99.984C285.332 100.716 284.582 101.286 283.694 101.694C282.806 102.09 281.852 102.288 280.832 102.288ZM295.434 102V89.112H299.376C301.344 89.112 302.922 89.706 304.11 90.894C305.31 92.082 305.91 93.636 305.91 95.556C305.91 97.488 305.31 99.048 304.11 100.236C302.922 101.412 301.344 102 299.376 102H295.434ZM297.09 90.696V100.416H299.376C300.876 100.416 302.058 99.99 302.922 99.138C303.786 98.274 304.218 97.08 304.218 95.556C304.218 94.044 303.786 92.856 302.922 91.992C302.058 91.128 300.876 90.696 299.376 90.696H297.09ZM322.958 89.112V90.696H317.09V94.782H322.382V96.33H317.09V100.416H322.958V102H315.434V89.112H322.958ZM334.401 96.474V102H332.745V89.112H340.269V90.696H334.401V94.926H339.693V96.474H334.401ZM361.755 96.078C361.755 97.878 361.221 99.312 360.153 100.38C358.953 101.652 357.375 102.288 355.419 102.288C353.547 102.288 351.963 101.64 350.667 100.344C349.371 99.048 348.723 97.452 348.723 95.556C348.723 93.66 349.371 92.064 350.667 90.768C351.963 89.472 353.547 88.824 355.419 88.824C356.367 88.824 357.261 88.992 358.101 89.328C358.941 89.664 359.631 90.138 360.171 90.75L358.983 91.938C358.587 91.458 358.071 91.086 357.435 90.822C356.811 90.546 356.139 90.408 355.419 90.408C354.015 90.408 352.827 90.894 351.855 91.866C350.895 92.85 350.415 94.08 350.415 95.556C350.415 97.032 350.895 98.262 351.855 99.246C352.827 100.218 354.015 100.704 355.419 100.704C356.703 100.704 357.771 100.344 358.623 99.624C359.475 98.904 359.967 97.914 360.099 96.654H355.419V95.106H361.665C361.725 95.442 361.755 95.766 361.755 96.078ZM372.978 102H371.322V89.112H372.978V94.638H379.422V89.112H381.078V102H379.422V96.186H372.978V102ZM392.873 102H391.217V89.112H392.873V102ZM405.104 102.288C404.132 102.288 403.292 102.024 402.584 101.496C401.876 100.968 401.378 100.236 401.09 99.3L402.656 98.652C403.064 100.02 403.88 100.704 405.104 100.704C405.776 100.704 406.316 100.47 406.724 100.002C407.144 99.522 407.354 98.904 407.354 98.148V89.112H409.01V98.004C409.01 99.336 408.656 100.386 407.948 101.154C407.252 101.91 406.304 102.288 405.104 102.288ZM426.346 89.112H428.488V89.184L423.7 94.71L428.812 101.928V102H426.778L422.584 95.988L420.604 98.274V102H418.948V89.112H420.604V95.754H420.676L426.346 89.112ZM444.937 102H437.701V89.112H439.357V100.416H444.937V102ZM455.877 102H454.221V89.112H455.877L460.359 96.96H460.431L464.913 89.112H466.569V102H464.913V94.35L464.985 92.19H464.913L460.881 99.264H459.909L455.877 92.19H455.805L455.877 94.35V102Z" fill="white"/>
<path d="M237.952 158H236.296V145.112H238.312L244.576 155.138H244.648L244.576 152.654V145.112H246.232V158H244.504L237.952 147.488H237.88L237.952 149.972V158ZM268.651 151.556C268.651 153.464 268.015 155.06 266.743 156.344C265.459 157.64 263.887 158.288 262.027 158.288C260.155 158.288 258.583 157.64 257.311 156.344C256.039 155.06 255.403 153.464 255.403 151.556C255.403 149.648 256.039 148.052 257.311 146.768C258.583 145.472 260.155 144.824 262.027 144.824C263.899 144.824 265.471 145.478 266.743 146.786C268.015 148.07 268.651 149.66 268.651 151.556ZM257.095 151.556C257.095 153.044 257.563 154.274 258.499 155.246C259.447 156.218 260.623 156.704 262.027 156.704C263.431 156.704 264.601 156.218 265.537 155.246C266.485 154.286 266.959 153.056 266.959 151.556C266.959 150.056 266.485 148.826 265.537 147.866C264.601 146.894 263.431 146.408 262.027 146.408C260.623 146.408 259.447 146.894 258.499 147.866C257.563 148.838 257.095 150.068 257.095 151.556ZM279.816 152.78V158H278.16V145.112H282.552C283.668 145.112 284.616 145.484 285.396 146.228C286.188 146.972 286.584 147.878 286.584 148.946C286.584 150.038 286.188 150.95 285.396 151.682C284.628 152.414 283.68 152.78 282.552 152.78H279.816ZM279.816 146.696V151.196H282.588C283.248 151.196 283.794 150.974 284.226 150.53C284.67 150.086 284.892 149.558 284.892 148.946C284.892 148.346 284.67 147.824 284.226 147.38C283.794 146.924 283.248 146.696 282.588 146.696H279.816ZM306.792 158.018L305.496 158.864L304.614 157.55C303.606 158.042 302.574 158.288 301.518 158.288C299.646 158.288 298.074 157.64 296.802 156.344C295.53 155.06 294.894 153.464 294.894 151.556C294.894 149.648 295.53 148.052 296.802 146.768C298.074 145.472 299.646 144.824 301.518 144.824C303.39 144.824 304.962 145.478 306.234 146.786C307.506 148.07 308.142 149.66 308.142 151.556C308.142 152.564 307.944 153.506 307.548 154.382C307.164 155.258 306.612 156.02 305.892 156.668L306.792 158.018ZM301.518 156.704C302.286 156.704 303.012 156.536 303.696 156.2L302.184 153.932L303.48 153.05L304.974 155.3C305.958 154.352 306.45 153.104 306.45 151.556C306.45 150.056 305.976 148.826 305.028 147.866C304.092 146.894 302.922 146.408 301.518 146.408C300.114 146.408 298.938 146.894 297.99 147.866C297.054 148.838 296.586 150.068 296.586 151.556C296.586 153.044 297.054 154.274 297.99 155.246C298.938 156.218 300.114 156.704 301.518 156.704ZM319.307 146.696V151.232H321.971C322.643 151.232 323.213 151.016 323.681 150.584C324.149 150.14 324.383 149.594 324.383 148.946C324.383 148.346 324.161 147.824 323.717 147.38C323.285 146.924 322.739 146.696 322.079 146.696H319.307ZM319.307 158H317.651V145.112H322.043C323.159 145.112 324.107 145.484 324.887 146.228C325.679 146.96 326.075 147.866 326.075 148.946C326.075 149.834 325.781 150.626 325.193 151.322C324.617 152.006 323.885 152.444 322.997 152.636L322.961 152.69L326.579 157.928V158H324.617L321.143 152.78H319.307V158ZM343.023 154.562C343.023 155.69 342.609 156.596 341.781 157.28C340.941 157.952 339.921 158.288 338.721 158.288C337.653 158.288 336.711 157.976 335.895 157.352C335.079 156.728 334.515 155.876 334.203 154.796L335.787 154.148C335.895 154.532 336.045 154.88 336.237 155.192C336.429 155.504 336.651 155.774 336.903 156.002C337.167 156.218 337.455 156.392 337.767 156.524C338.079 156.644 338.409 156.704 338.757 156.704C339.513 156.704 340.131 156.512 340.611 156.128C341.091 155.732 341.331 155.21 341.331 154.562C341.331 154.022 341.133 153.56 340.737 153.176C340.365 152.804 339.669 152.444 338.649 152.096C337.617 151.724 336.975 151.472 336.723 151.34C335.355 150.644 334.671 149.618 334.671 148.262C334.671 147.314 335.049 146.504 335.805 145.832C336.573 145.16 337.515 144.824 338.631 144.824C339.615 144.824 340.467 145.076 341.187 145.58C341.907 146.072 342.387 146.69 342.627 147.434L341.079 148.082C340.935 147.602 340.647 147.206 340.215 146.894C339.795 146.57 339.279 146.408 338.667 146.408C338.019 146.408 337.473 146.588 337.029 146.948C336.585 147.284 336.363 147.722 336.363 148.262C336.363 148.706 336.537 149.09 336.885 149.414C337.269 149.738 338.103 150.122 339.387 150.566C340.695 151.01 341.625 151.556 342.177 152.204C342.741 152.84 343.023 153.626 343.023 154.562ZM356.243 146.696V158H354.587V146.696H350.987V145.112H359.843V146.696H356.243ZM373.257 158.288C371.829 158.288 370.677 157.82 369.801 156.884C368.925 155.96 368.487 154.736 368.487 153.212V145.112H370.143V153.284C370.143 154.34 370.419 155.174 370.971 155.786C371.523 156.398 372.285 156.704 373.257 156.704C374.229 156.704 374.991 156.398 375.543 155.786C376.095 155.174 376.371 154.34 376.371 153.284V145.112H378.027V153.212C378.027 154.772 377.595 156.008 376.731 156.92C375.867 157.832 374.709 158.288 373.257 158.288ZM392.343 158H390.615L386.079 145.112H387.915L391.443 155.57H391.515L395.187 145.112H397.023L392.343 158ZM418.65 145.112H420.378L416.94 158H415.248L412.476 149.504H412.404L409.632 158H407.94L404.358 145.112H406.086L408.804 155.246H408.876L411.666 146.84H413.214L416.004 155.246H416.076L418.65 145.112ZM430.099 158H428.155L432.475 151.34L428.407 145.112H430.387L433.519 150.044H433.591L436.723 145.112H438.703L434.635 151.34L438.955 158H437.011L433.591 152.726H433.519L430.099 158ZM452.285 152.006V158H450.629V152.006L446.291 145.112H448.235L451.421 150.35H451.493L454.607 145.112H456.551L452.285 152.006ZM473.749 158H464.893V156.272L471.751 146.696H465.181V145.112H473.677V146.84L466.819 156.416H473.749V158Z" fill="white"/>
<path d="M278.4 197.688V210H276.744V199.74L274.35 200.784L273.72 199.38L277.338 197.688H278.4ZM296.031 208.416V210H288.183V208.344L291.369 205.122C292.437 204.03 293.175 203.214 293.583 202.674C293.991 202.122 294.195 201.546 294.195 200.946C294.195 200.406 293.985 199.944 293.565 199.56C293.145 199.176 292.605 198.984 291.945 198.984C291.381 198.984 290.895 199.152 290.487 199.488C290.079 199.824 289.815 200.232 289.695 200.712L288.183 200.1C288.423 199.344 288.885 198.708 289.569 198.192C290.253 197.664 291.057 197.4 291.981 197.4C293.097 197.4 294.027 197.742 294.771 198.426C295.515 199.11 295.887 199.95 295.887 200.946C295.887 202.134 295.233 203.418 293.925 204.798L290.325 208.416H296.031ZM313.208 206.508C313.208 207.588 312.806 208.488 312.002 209.208C311.21 209.928 310.226 210.288 309.05 210.288C308.126 210.288 307.292 210.012 306.548 209.46C305.792 208.884 305.282 208.134 305.018 207.21L306.53 206.58C306.722 207.264 307.034 207.792 307.466 208.164C307.91 208.524 308.438 208.704 309.05 208.704C309.722 208.704 310.304 208.494 310.796 208.074C311.276 207.642 311.516 207.12 311.516 206.508C311.516 205.896 311.264 205.38 310.76 204.96C310.268 204.54 309.674 204.33 308.978 204.33H307.916V202.782H308.852C309.512 202.782 310.052 202.602 310.472 202.242C310.892 201.87 311.102 201.39 311.102 200.802C311.102 200.262 310.904 199.824 310.508 199.488C310.112 199.152 309.59 198.984 308.942 198.984C307.898 198.984 307.184 199.518 306.8 200.586L305.27 199.938C305.546 199.182 306.008 198.57 306.656 198.102C307.304 197.634 308.066 197.4 308.942 197.4C310.034 197.4 310.952 197.724 311.696 198.372C312.428 198.996 312.794 199.806 312.794 200.802C312.794 201.99 312.242 202.872 311.138 203.448V203.52C311.786 203.796 312.29 204.198 312.65 204.726C313.022 205.254 313.208 205.848 313.208 206.508ZM329.713 207.408V210H328.057V207.408H322.207V206.148L327.913 197.688H329.713V205.86H331.297V207.408H329.713ZM324.079 205.86H328.057V200.118H327.985L324.079 205.86ZM348.768 206.148C348.768 207.324 348.36 208.308 347.544 209.1C346.728 209.892 345.72 210.288 344.52 210.288C343.56 210.288 342.69 209.988 341.91 209.388C341.13 208.788 340.614 207.978 340.362 206.958L341.838 206.364C342.018 207.084 342.342 207.654 342.81 208.074C343.29 208.494 343.848 208.704 344.484 208.704C345.252 208.704 345.876 208.47 346.356 208.002C346.848 207.522 347.094 206.91 347.094 206.166C347.094 205.41 346.848 204.792 346.356 204.312C345.876 203.832 345.258 203.592 344.502 203.592C343.626 203.592 342.936 203.946 342.432 204.654L340.758 203.934L341.55 197.688H348.012V199.272H342.936L342.486 202.8L342.558 202.818C343.17 202.326 343.914 202.08 344.79 202.08C345.894 202.08 346.83 202.47 347.598 203.25C348.378 204.03 348.768 204.996 348.768 206.148ZM362.492 202.188C363.488 202.188 364.376 202.584 365.156 203.376C365.948 204.156 366.344 205.086 366.344 206.166C366.344 207.27 365.924 208.236 365.084 209.064C364.232 209.88 363.248 210.288 362.132 210.288C360.944 210.288 359.942 209.88 359.126 209.064C358.31 208.248 357.902 207.282 357.902 206.166C357.902 205.17 358.304 204.036 359.108 202.764L362.69 197.4L364.022 198.318L360.98 202.53L361.016 202.566C361.388 202.314 361.88 202.188 362.492 202.188ZM359.576 206.184C359.576 206.892 359.822 207.492 360.314 207.984C360.806 208.464 361.412 208.704 362.132 208.704C362.852 208.704 363.452 208.464 363.932 207.984C364.424 207.492 364.67 206.892 364.67 206.184C364.67 205.488 364.418 204.894 363.914 204.402C363.422 203.91 362.828 203.664 362.132 203.664C361.448 203.664 360.848 203.91 360.332 204.402C359.828 204.894 359.576 205.488 359.576 206.184ZM383.31 199.38L377.334 210.288L375.858 209.532L381.564 199.272H375.336L375.372 197.688H383.31V199.38ZM400.665 206.598C400.665 207.654 400.263 208.53 399.459 209.226C398.643 209.934 397.653 210.288 396.489 210.288C395.325 210.288 394.335 209.934 393.519 209.226C392.715 208.53 392.313 207.654 392.313 206.598C392.313 205.95 392.487 205.362 392.835 204.834C393.183 204.294 393.681 203.868 394.329 203.556V203.484C393.849 203.172 393.459 202.788 393.159 202.332C392.871 201.876 392.727 201.396 392.727 200.892C392.727 199.896 393.081 199.062 393.789 198.39C394.485 197.73 395.385 197.4 396.489 197.4C397.593 197.4 398.493 197.73 399.189 198.39C399.897 199.062 400.251 199.896 400.251 200.892C400.251 201.396 400.101 201.876 399.801 202.332C399.513 202.788 399.129 203.172 398.649 203.484V203.556C399.297 203.868 399.795 204.294 400.143 204.834C400.491 205.362 400.665 205.95 400.665 206.598ZM394.419 200.856C394.419 201.432 394.611 201.9 394.995 202.26C395.379 202.608 395.877 202.782 396.489 202.782C397.101 202.782 397.599 202.608 397.983 202.26C398.367 201.9 398.559 201.432 398.559 200.856C398.559 200.28 398.367 199.824 397.983 199.488C397.599 199.152 397.101 198.984 396.489 198.984C395.877 198.984 395.379 199.152 394.995 199.488C394.611 199.824 394.419 200.28 394.419 200.856ZM394.005 206.508C394.005 206.832 394.065 207.126 394.185 207.39C394.317 207.654 394.491 207.888 394.707 208.092C394.935 208.284 395.199 208.434 395.499 208.542C395.799 208.65 396.129 208.704 396.489 208.704C396.849 208.704 397.179 208.65 397.479 208.542C397.779 208.434 398.037 208.284 398.253 208.092C398.481 207.888 398.655 207.654 398.775 207.39C398.907 207.126 398.973 206.832 398.973 206.508C398.973 205.884 398.733 205.368 398.253 204.96C397.773 204.54 397.185 204.33 396.489 204.33C395.793 204.33 395.199 204.54 394.707 204.96C394.239 205.38 394.005 205.896 394.005 206.508ZM413.511 205.5C412.527 205.5 411.633 205.11 410.829 204.33C410.049 203.526 409.659 202.59 409.659 201.522C409.659 200.406 410.079 199.446 410.919 198.642C411.759 197.814 412.743 197.4 413.871 197.4C415.059 197.4 416.061 197.808 416.877 198.624C417.693 199.44 418.101 200.406 418.101 201.522C418.101 202.518 417.699 203.652 416.895 204.924L413.313 210.288L411.981 209.37L415.023 205.158L414.987 205.122C414.603 205.374 414.111 205.5 413.511 205.5ZM416.427 201.504C416.427 200.808 416.175 200.214 415.671 199.722C415.179 199.23 414.579 198.984 413.871 198.984C413.163 198.984 412.563 199.23 412.071 199.722C411.579 200.214 411.333 200.808 411.333 201.504C411.333 202.2 411.579 202.794 412.071 203.286C412.587 203.778 413.187 204.024 413.871 204.024C414.555 204.024 415.155 203.778 415.671 203.286C416.175 202.806 416.427 202.212 416.427 201.504ZM427.165 203.844C427.165 201.972 427.627 200.43 428.551 199.218C429.475 198.006 430.663 197.4 432.115 197.4C433.567 197.4 434.755 198.012 435.679 199.236C436.603 200.448 437.065 201.984 437.065 203.844C437.065 205.692 436.603 207.234 435.679 208.47C434.755 209.682 433.567 210.288 432.115 210.288C430.663 210.288 429.475 209.682 428.551 208.47C427.627 207.234 427.165 205.692 427.165 203.844ZM435.373 203.844C435.373 202.428 435.073 201.264 434.473 200.352C433.885 199.44 433.099 198.984 432.115 198.984C431.131 198.984 430.345 199.44 429.757 200.352C429.157 201.264 428.857 202.428 428.857 203.844C428.857 205.26 429.157 206.43 429.757 207.354C430.345 208.254 431.131 208.704 432.115 208.704C433.099 208.704 433.885 208.248 434.473 207.336C435.073 206.412 435.373 205.248 435.373 203.844Z" fill="white"/>
<rect x="0.5" y="0.5" width="496" height="299" stroke="white"/>
</svg>
