<svg width="497" height="328" viewBox="0 0 497 328" fill="none" xmlns="http://www.w3.org/2000/svg">
<path d="M0 0H497V328H0V0Z" fill="#313235"/>
<path d="M93.96 45.12H85.16V46.752H88.472V56H90.568V46.752H94.296L93.96 45.12ZM96.0851 50.464C96.3838 50.3253 96.7465 50.208 97.1731 50.112C97.5998 50.0053 97.9891 49.952 98.3411 49.952C98.7251 49.952 99.0238 50.064 99.2371 50.288C99.4611 50.5013 99.5785 50.8053 99.5891 51.2H98.0691C97.1731 51.2 96.4585 51.4187 95.9251 51.856C95.3918 52.2827 95.1251 52.8907 95.1251 53.68C95.1251 54.448 95.3598 55.0613 95.8291 55.52C96.2985 55.968 96.9971 56.192 97.9251 56.192C98.6398 56.192 99.3225 55.8507 99.9731 55.168L100.325 56H101.685V50.896C101.685 50.352 101.53 49.8613 101.221 49.424C100.922 48.9867 100.517 48.6453 100.005 48.4C99.4931 48.1547 98.9278 48.032 98.3091 48.032C97.9465 48.032 97.4611 48.1067 96.8531 48.256C96.2451 48.3947 95.8025 48.5547 95.5251 48.736L96.0851 50.464ZM96.9011 53.68C96.9011 53.3813 97.0025 53.1253 97.2051 52.912C97.4185 52.6987 97.6958 52.592 98.0371 52.592H99.6051V53.776C99.0825 54.288 98.5118 54.544 97.8931 54.544C97.6051 54.544 97.3651 54.4587 97.1731 54.288C96.9918 54.1173 96.9011 53.9147 96.9011 53.68ZM102.932 55.392C103.263 55.648 103.695 55.8453 104.228 55.984C104.761 56.1227 105.225 56.192 105.62 56.192C106.665 56.192 107.465 55.984 108.02 55.568C108.575 55.1413 108.852 54.5387 108.852 53.76C108.852 53.1413 108.601 52.6187 108.1 52.192C107.599 51.7653 106.969 51.4133 106.212 51.136C105.817 50.9973 105.513 50.8747 105.3 50.768C105.097 50.6507 104.996 50.5227 104.996 50.384C104.996 50.2027 105.081 50.048 105.252 49.92C105.433 49.7813 105.657 49.712 105.924 49.712C106.265 49.712 106.591 49.7547 106.9 49.84C107.22 49.9253 107.583 50.0587 107.988 50.24L108.612 48.848C108.249 48.6027 107.807 48.4053 107.284 48.256C106.761 48.1067 106.319 48.032 105.956 48.032C105.028 48.032 104.292 48.2453 103.748 48.672C103.204 49.088 102.932 49.664 102.932 50.4C102.932 50.9867 103.177 51.472 103.668 51.856C104.159 52.24 104.772 52.5547 105.508 52.8C106.415 53.0773 106.868 53.424 106.868 53.84C106.868 54.0533 106.735 54.2187 106.468 54.336C106.201 54.4533 105.908 54.512 105.588 54.512C105.023 54.512 104.345 54.336 103.556 53.984L102.932 55.392ZM112.354 56V53.456L113.186 52.72L115.138 56H117.522L114.674 51.392L116.85 49.488L115.682 48.016L112.354 51.072V44.704L110.29 44.88V56H112.354ZM126.597 56C128.197 55.9787 129.429 55.488 130.293 54.528C131.168 53.5573 131.605 52.2133 131.605 50.496C131.605 49.4293 131.419 48.496 131.045 47.696C130.683 46.8853 130.123 46.256 129.365 45.808C128.619 45.3493 127.696 45.12 126.597 45.12H122.469V56H126.597ZM126.677 46.88C127.616 46.88 128.315 47.1947 128.773 47.824C129.232 48.4427 129.461 49.3333 129.461 50.496C129.461 51.7973 129.205 52.752 128.693 53.36C128.192 53.9573 127.483 54.256 126.565 54.256H124.533V46.88H126.677ZM134.076 47.136C134.407 47.136 134.684 47.024 134.908 46.8C135.143 46.576 135.26 46.2987 135.26 45.968C135.26 45.6373 135.143 45.36 134.908 45.136C134.684 44.912 134.407 44.8 134.076 44.8C133.756 44.8 133.484 44.912 133.26 45.136C133.036 45.36 132.924 45.6373 132.924 45.968C132.924 46.2987 133.036 46.576 133.26 46.8C133.484 47.024 133.756 47.136 134.076 47.136ZM135.132 56V48.24H133.052V56H135.132ZM137.408 49.856V56H139.488V49.856H141.616L140.96 48.256H139.488V47.952C139.488 47.5253 139.573 47.1893 139.744 46.944C139.914 46.688 140.176 46.56 140.528 46.56C140.752 46.56 141.04 46.6293 141.392 46.768L141.984 45.264C141.813 45.1253 141.573 45.008 141.264 44.912C140.954 44.816 140.677 44.768 140.432 44.768C139.482 44.768 138.741 45.024 138.208 45.536C137.674 46.048 137.408 46.7573 137.408 47.664V48.256H136.208V49.856H137.408ZM143.376 49.856V56H145.456V49.856H147.584L146.928 48.256H145.456V47.952C145.456 47.5253 145.542 47.1893 145.712 46.944C145.883 46.688 146.144 46.56 146.496 46.56C146.72 46.56 147.008 46.6293 147.36 46.768L147.952 45.264C147.782 45.1253 147.542 45.008 147.232 44.912C146.923 44.816 146.646 44.768 146.4 44.768C145.451 44.768 144.71 45.024 144.176 45.536C143.643 46.048 143.376 46.7573 143.376 47.664V48.256H142.176V49.856H143.376ZM149.857 47.136C150.188 47.136 150.465 47.024 150.689 46.8C150.924 46.576 151.041 46.2987 151.041 45.968C151.041 45.6373 150.924 45.36 150.689 45.136C150.465 44.912 150.188 44.8 149.857 44.8C149.537 44.8 149.265 44.912 149.041 45.136C148.817 45.36 148.705 45.6373 148.705 45.968C148.705 46.2987 148.817 46.576 149.041 46.8C149.265 47.024 149.537 47.136 149.857 47.136ZM150.913 56V48.24H148.833V56H150.913ZM159.013 48.848C158.65 48.6027 158.202 48.4053 157.669 48.256C157.136 48.1067 156.688 48.032 156.325 48.032C155.493 48.032 154.762 48.2027 154.133 48.544C153.514 48.8747 153.034 49.3493 152.693 49.968C152.362 50.5867 152.197 51.3067 152.197 52.128C152.197 52.9493 152.362 53.6693 152.693 54.288C153.034 54.896 153.514 55.3653 154.133 55.696C154.762 56.0267 155.493 56.192 156.325 56.192C156.72 56.192 157.184 56.1227 157.717 55.984C158.25 55.8453 158.682 55.648 159.013 55.392L158.421 53.888C158.016 54.0693 157.653 54.2027 157.333 54.288C157.013 54.3733 156.682 54.416 156.341 54.416C155.754 54.416 155.274 54.2027 154.901 53.776C154.528 53.3493 154.341 52.8 154.341 52.128C154.341 51.456 154.528 50.9013 154.901 50.464C155.285 50.0267 155.765 49.808 156.341 49.808C156.682 49.808 157.013 49.8507 157.333 49.936C157.653 50.0213 158.016 50.1547 158.421 50.336L159.013 48.848ZM165.44 53.616C165.056 53.8933 164.704 54.1173 164.384 54.288C164.064 54.448 163.722 54.528 163.36 54.528C163.008 54.528 162.73 54.3947 162.528 54.128C162.336 53.8613 162.24 53.488 162.24 53.008V48.24H160.16V53.104C160.16 54.096 160.357 54.8693 160.752 55.424C161.146 55.9787 161.834 56.256 162.816 56.256C163.242 56.256 163.728 56.16 164.272 55.968C164.816 55.776 165.328 55.5093 165.808 55.168L166.16 56H167.52V48.24H165.44V53.616ZM171.51 56V44.704L169.446 44.88V56H171.51ZM175.811 48.256V46.048L173.747 46.416V48.256H172.707V49.856H173.747V53.52C173.747 54.4053 174.019 55.0933 174.563 55.584C175.107 56.0747 175.864 56.32 176.835 56.32C177.091 56.32 177.374 56.272 177.683 56.176C178.003 56.08 178.243 55.968 178.403 55.84L177.795 54.336C177.507 54.4747 177.224 54.544 176.947 54.544C176.584 54.544 176.302 54.416 176.099 54.16C175.907 53.904 175.811 53.568 175.811 53.152V49.856H177.859L177.219 48.256H175.811ZM181.105 56.368C180.987 56.688 180.753 56.9547 180.401 57.168C180.059 57.3813 179.617 57.6053 179.073 57.84L179.809 59.552C180.523 59.3813 181.185 59.0667 181.793 58.608C182.401 58.16 182.822 57.632 183.057 57.024L186.529 48.24H184.337L182.641 52.944L180.849 47.952L178.801 48.56L181.473 55.456L181.105 56.368ZM191.641 56H193.705V51.872H195.657L197.961 56H200.169L197.497 51.328C198.063 51.0507 198.511 50.6667 198.841 50.176C199.183 49.6853 199.353 49.1147 199.353 48.464C199.353 47.376 198.948 46.5493 198.137 45.984C197.337 45.408 196.308 45.12 195.049 45.12H191.641V56ZM194.985 46.848C196.436 46.848 197.161 47.4187 197.161 48.56C197.161 49.1147 196.964 49.5253 196.569 49.792C196.185 50.048 195.668 50.176 195.017 50.176H193.705V46.848H194.985ZM201.96 50.464C202.259 50.3253 202.621 50.208 203.048 50.112C203.475 50.0053 203.864 49.952 204.216 49.952C204.6 49.952 204.899 50.064 205.112 50.288C205.336 50.5013 205.453 50.8053 205.464 51.2H203.944C203.048 51.2 202.333 51.4187 201.8 51.856C201.267 52.2827 201 52.8907 201 53.68C201 54.448 201.235 55.0613 201.704 55.52C202.173 55.968 202.872 56.192 203.8 56.192C204.515 56.192 205.197 55.8507 205.848 55.168L206.2 56H207.56V50.896C207.56 50.352 207.405 49.8613 207.096 49.424C206.797 48.9867 206.392 48.6453 205.88 48.4C205.368 48.1547 204.803 48.032 204.184 48.032C203.821 48.032 203.336 48.1067 202.728 48.256C202.12 48.3947 201.677 48.5547 201.4 48.736L201.96 50.464ZM202.776 53.68C202.776 53.3813 202.877 53.1253 203.08 52.912C203.293 52.6987 203.571 52.592 203.912 52.592H205.48V53.776C204.957 54.288 204.387 54.544 203.768 54.544C203.48 54.544 203.24 54.4587 203.048 54.288C202.867 54.1173 202.776 53.9147 202.776 53.68ZM211.639 48.256V46.048L209.575 46.416V48.256H208.535V49.856H209.575V53.52C209.575 54.4053 209.847 55.0933 210.391 55.584C210.935 56.0747 211.692 56.32 212.663 56.32C212.919 56.32 213.202 56.272 213.511 56.176C213.831 56.08 214.071 55.968 214.231 55.84L213.623 54.336C213.335 54.4747 213.052 54.544 212.775 54.544C212.412 54.544 212.13 54.416 211.927 54.16C211.735 53.904 211.639 53.568 211.639 53.152V49.856H213.687L213.047 48.256H211.639ZM216.373 47.136C216.703 47.136 216.981 47.024 217.205 46.8C217.439 46.576 217.557 46.2987 217.557 45.968C217.557 45.6373 217.439 45.36 217.205 45.136C216.981 44.912 216.703 44.8 216.373 44.8C216.053 44.8 215.781 44.912 215.557 45.136C215.333 45.36 215.221 45.6373 215.221 45.968C215.221 46.2987 215.333 46.576 215.557 46.8C215.781 47.024 216.053 47.136 216.373 47.136ZM217.429 56V48.24H215.349V56H217.429ZM221.273 50.624C221.657 50.3467 222.009 50.128 222.329 49.968C222.649 49.7973 222.99 49.712 223.353 49.712C223.705 49.712 223.977 49.8453 224.169 50.112C224.371 50.3787 224.473 50.752 224.473 51.232V56H226.553V51.136C226.553 50.144 226.355 49.3707 225.961 48.816C225.566 48.2613 224.878 47.984 223.897 47.984C223.47 47.984 222.985 48.08 222.441 48.272C221.897 48.464 221.385 48.7307 220.905 49.072L220.553 48.24H219.193V56H221.273V50.624ZM235.487 48.24V56.368C235.487 57.4347 235.114 58.2507 234.367 58.816C233.62 59.392 232.618 59.68 231.359 59.68C230.964 59.68 230.431 59.5947 229.759 59.424C229.087 59.264 228.564 59.056 228.191 58.8L228.815 57.328C229.295 57.5627 229.732 57.7333 230.127 57.84C230.522 57.9467 230.916 58.0053 231.311 58.016C231.94 58.0053 232.442 57.8507 232.815 57.552C233.199 57.2533 233.391 56.8533 233.391 56.352V55.696C232.858 56.0267 232.287 56.192 231.679 56.192C230.474 56.192 229.519 55.8293 228.815 55.104C228.122 54.368 227.775 53.376 227.775 52.128C227.775 51.3173 227.93 50.6027 228.239 49.984C228.559 49.3653 229.018 48.8853 229.615 48.544C230.212 48.2027 230.922 48.032 231.743 48.032C232.095 48.032 232.468 48.1173 232.863 48.288C233.268 48.4587 233.626 48.6773 233.935 48.944L234.399 48.24H235.487ZM231.759 54.416C232.036 54.416 232.303 54.3627 232.559 54.256C232.826 54.1493 233.103 53.9893 233.391 53.776V50.464C233.114 50.2293 232.847 50.064 232.591 49.968C232.335 49.8613 232.058 49.808 231.759 49.808C231.194 49.808 230.746 50.0267 230.415 50.464C230.084 50.8907 229.919 51.4453 229.919 52.128C229.919 52.8107 230.079 53.3653 230.399 53.792C230.73 54.208 231.183 54.416 231.759 54.416Z" fill="white"/>
<path d="M38.4694 97.795C38.2568 97.663 37.9598 97.5603 37.5784 97.487C37.1971 97.4063 36.8708 97.366 36.5994 97.366C35.8954 97.366 35.2758 97.5383 34.7404 97.883C34.2051 98.2277 33.7944 98.7007 33.5084 99.302C33.2224 99.896 33.0794 100.563 33.0794 101.304C33.0794 102.008 33.2114 102.653 33.4754 103.24C33.7394 103.827 34.1318 104.292 34.6524 104.637C35.1731 104.982 35.8001 105.154 36.5334 105.154C36.8488 105.154 37.1934 105.11 37.5674 105.022C37.9488 104.941 38.2531 104.842 38.4804 104.725L38.1504 104.065C37.9231 104.168 37.6774 104.248 37.4134 104.307C37.1568 104.366 36.8524 104.395 36.5004 104.395C35.9871 104.395 35.5398 104.259 35.1584 103.988C34.7771 103.709 34.4874 103.335 34.2894 102.866C34.0914 102.389 33.9924 101.865 33.9924 101.293C33.9924 100.684 34.1061 100.138 34.3334 99.654C34.5608 99.17 34.8724 98.7923 35.2684 98.521C35.6718 98.2497 36.1154 98.114 36.5994 98.114C36.9441 98.114 37.2228 98.1397 37.4354 98.191C37.6481 98.235 37.9011 98.312 38.1944 98.422L38.4694 97.795ZM40.2915 101.326C40.5408 101.069 40.8452 100.846 41.2045 100.655C41.5638 100.457 41.8902 100.358 42.1835 100.358L41.9745 99.665C41.7178 99.665 41.4208 99.7567 41.0835 99.94C40.7462 100.123 40.4565 100.318 40.2145 100.523L39.9395 99.665H39.4225V105H40.2915V101.326ZM47.4219 102.47C47.4219 101.59 47.2349 100.879 46.8609 100.336C46.4942 99.7933 45.9222 99.522 45.1449 99.522C44.6316 99.522 44.1842 99.643 43.8029 99.885C43.4289 100.12 43.1429 100.45 42.9449 100.875C42.7542 101.293 42.6589 101.773 42.6589 102.316C42.6589 103.174 42.8972 103.86 43.3739 104.373C43.8506 104.886 44.5436 105.143 45.4529 105.143C45.8196 105.143 46.1532 105.095 46.4539 105C46.7546 104.897 47.0552 104.762 47.3559 104.593L47.0809 103.955C46.7509 104.116 46.4649 104.234 46.2229 104.307C45.9882 104.38 45.7279 104.417 45.4419 104.417C44.8112 104.417 44.3419 104.245 44.0339 103.9C43.7332 103.548 43.5719 103.071 43.5499 102.47H47.4219ZM43.5719 101.876C43.6232 101.377 43.7772 100.985 44.0339 100.699C44.2979 100.406 44.6572 100.259 45.1119 100.259C45.9552 100.259 46.4392 100.798 46.5639 101.876H43.5719ZM48.9292 100.644C49.1932 100.527 49.4352 100.439 49.6552 100.38C49.8825 100.314 50.1538 100.281 50.4692 100.281C50.8725 100.281 51.1658 100.395 51.3492 100.622C51.5398 100.849 51.6352 101.161 51.6352 101.557V101.854H50.2602C49.6808 101.854 49.2152 101.997 48.8632 102.283C48.5112 102.569 48.3352 102.969 48.3352 103.482C48.3352 103.973 48.4892 104.373 48.7972 104.681C49.1125 104.989 49.5672 105.143 50.1612 105.143C50.4398 105.143 50.7258 105.077 51.0192 104.945C51.3125 104.806 51.5582 104.644 51.7562 104.461L51.8662 105H52.5152V101.315C52.5152 100.97 52.4272 100.662 52.2512 100.391C52.0752 100.12 51.8295 99.907 51.5142 99.753C51.1988 99.599 50.8395 99.522 50.4362 99.522C50.1942 99.522 49.8862 99.566 49.5122 99.654C49.1455 99.742 48.8668 99.852 48.6762 99.984L48.9292 100.644ZM49.1382 103.482C49.1382 103.189 49.2335 102.943 49.4242 102.745C49.6222 102.54 49.8935 102.437 50.2382 102.437H51.6462V103.647C51.4482 103.882 51.2172 104.072 50.9532 104.219C50.6965 104.366 50.4252 104.439 50.1392 104.439C49.8092 104.439 49.5598 104.344 49.3912 104.153C49.2225 103.962 49.1382 103.739 49.1382 103.482ZM54.9823 99.753V98.147L54.1133 98.389V99.753H53.3323L53.3433 100.413H54.1133V103.614C54.1133 104.113 54.2453 104.498 54.5093 104.769C54.7806 105.033 55.1473 105.165 55.6093 105.165C55.8879 105.165 56.1593 105.103 56.4233 104.978L56.2253 104.296C56.0419 104.369 55.8806 104.406 55.7413 104.406C55.4846 104.406 55.2939 104.325 55.1693 104.164C55.0446 104.003 54.9823 103.779 54.9823 103.493V100.413H56.2363L55.9503 99.753H54.9823ZM57.8017 98.598C57.963 98.598 58.1024 98.543 58.2197 98.433C58.337 98.3157 58.3957 98.1763 58.3957 98.015C58.3957 97.8537 58.337 97.7143 58.2197 97.597C58.1024 97.4797 57.963 97.421 57.8017 97.421C57.633 97.421 57.4937 97.4797 57.3837 97.597C57.2737 97.707 57.2187 97.8463 57.2187 98.015C57.2187 98.1837 57.2737 98.323 57.3837 98.433C57.4937 98.543 57.633 98.598 57.8017 98.598ZM58.2527 105V99.665H57.3727V105H58.2527ZM60.4975 101.216C60.7542 100.937 61.0475 100.706 61.3775 100.523C61.7149 100.34 62.0155 100.248 62.2795 100.248C62.6242 100.248 62.8699 100.358 63.0165 100.578C63.1632 100.798 63.2365 101.106 63.2365 101.502V104.989H64.1055V101.381C64.1055 100.809 63.9662 100.354 63.6875 100.017C63.4162 99.6723 62.9982 99.5 62.4335 99.5C62.0962 99.5 61.7405 99.588 61.3665 99.764C60.9925 99.94 60.6772 100.16 60.4205 100.424L60.2775 99.665H59.6285V105H60.4975V101.216ZM69.7958 99.665V105.583C69.7958 105.957 69.7005 106.291 69.5098 106.584C69.3191 106.877 69.0405 107.108 68.6738 107.277C68.3071 107.446 67.8781 107.53 67.3868 107.53C67.1375 107.53 66.8185 107.482 66.4298 107.387C66.0485 107.299 65.7478 107.185 65.5278 107.046L65.7918 106.408C66.0778 106.547 66.3308 106.65 66.5508 106.716C66.7781 106.782 67.0458 106.815 67.3538 106.815C67.8158 106.815 68.1898 106.709 68.4758 106.496C68.7691 106.283 68.9158 105.975 68.9158 105.572V104.725C68.7178 104.857 68.5051 104.96 68.2778 105.033C68.0578 105.106 67.8525 105.143 67.6618 105.143C66.8698 105.143 66.2465 104.886 65.7918 104.373C65.3445 103.852 65.1208 103.163 65.1208 102.305C65.1208 101.762 65.2235 101.282 65.4288 100.864C65.6415 100.439 65.9385 100.109 66.3198 99.874C66.7085 99.6393 67.1631 99.522 67.6838 99.522C67.9038 99.522 68.1385 99.5697 68.3878 99.665C68.6371 99.7603 68.8681 99.8887 69.0808 100.05L69.2678 99.665H69.7958ZM67.6508 104.406C67.9148 104.406 68.1458 104.366 68.3438 104.285C68.5491 104.197 68.7398 104.065 68.9158 103.889V100.732C68.5638 100.417 68.1458 100.259 67.6618 100.259C67.1338 100.259 66.7268 100.45 66.4408 100.831C66.1548 101.205 66.0081 101.693 66.0008 102.294C66.0008 102.932 66.1401 103.445 66.4188 103.834C66.7048 104.215 67.1155 104.406 67.6508 104.406ZM74.2592 100.644C74.5232 100.527 74.7652 100.439 74.9852 100.38C75.2126 100.314 75.4839 100.281 75.7992 100.281C76.2026 100.281 76.4959 100.395 76.6792 100.622C76.8699 100.849 76.9652 101.161 76.9652 101.557V101.854H75.5902C75.0109 101.854 74.5452 101.997 74.1932 102.283C73.8412 102.569 73.6652 102.969 73.6652 103.482C73.6652 103.973 73.8192 104.373 74.1272 104.681C74.4426 104.989 74.8972 105.143 75.4912 105.143C75.7699 105.143 76.0559 105.077 76.3492 104.945C76.6426 104.806 76.8882 104.644 77.0862 104.461L77.1962 105H77.8452V101.315C77.8452 100.97 77.7572 100.662 77.5812 100.391C77.4052 100.12 77.1596 99.907 76.8442 99.753C76.5289 99.599 76.1696 99.522 75.7662 99.522C75.5242 99.522 75.2162 99.566 74.8422 99.654C74.4756 99.742 74.1969 99.852 74.0062 99.984L74.2592 100.644ZM74.4682 103.482C74.4682 103.189 74.5636 102.943 74.7542 102.745C74.9522 102.54 75.2236 102.437 75.5682 102.437H76.9762V103.647C76.7782 103.882 76.5472 104.072 76.2832 104.219C76.0266 104.366 75.7552 104.439 75.4692 104.439C75.1392 104.439 74.8899 104.344 74.7212 104.153C74.5526 103.962 74.4682 103.739 74.4682 103.482ZM84.4197 105C85.2557 105 85.9267 104.831 86.4327 104.494C86.9387 104.157 87.1917 103.625 87.1917 102.899C87.1917 102.415 87.0634 102.015 86.8067 101.7C86.5574 101.385 86.2054 101.15 85.7507 100.996C86.0587 100.82 86.308 100.611 86.4987 100.369C86.6894 100.12 86.7847 99.83 86.7847 99.5C86.7847 98.7887 86.5537 98.2827 86.0917 97.982C85.6297 97.674 84.9844 97.52 84.1557 97.52H82.0767V105H84.4197ZM84.1227 98.257C84.7167 98.257 85.1604 98.345 85.4537 98.521C85.7544 98.697 85.9047 99.027 85.9047 99.511C85.9047 99.9583 85.725 100.281 85.3657 100.479C85.0137 100.67 84.5444 100.769 83.9577 100.776H82.9457V98.257H84.1227ZM84.5187 101.48C85.0834 101.48 85.5234 101.597 85.8387 101.832C86.154 102.067 86.3117 102.43 86.3117 102.921C86.3117 103.823 85.6774 104.274 84.4087 104.274H82.9457V101.48H84.5187ZM91.799 103.438C91.5423 103.717 91.2453 103.948 90.908 104.131C90.578 104.314 90.281 104.406 90.017 104.406C89.6723 104.406 89.4267 104.296 89.28 104.076C89.1333 103.856 89.06 103.548 89.06 103.152V99.665H88.191V103.273C88.191 103.845 88.3267 104.303 88.598 104.648C88.8767 104.985 89.2983 105.154 89.863 105.154C90.2003 105.154 90.556 105.066 90.93 104.89C91.304 104.714 91.6193 104.494 91.876 104.23L92.019 105H92.668V99.654H91.799V103.438ZM98.4023 97.245V105H97.8743L97.7093 104.593C97.4893 104.769 97.2509 104.905 96.9943 105C96.7376 105.095 96.4956 105.143 96.2683 105.143C95.4763 105.143 94.8529 104.886 94.3983 104.373C93.9509 103.852 93.7273 103.163 93.7273 102.305C93.7273 101.762 93.8299 101.282 94.0353 100.864C94.2479 100.439 94.5449 100.109 94.9263 99.874C95.3149 99.6393 95.7696 99.522 96.2903 99.522C96.4809 99.522 96.6826 99.5587 96.8953 99.632C97.1153 99.7053 97.3243 99.8043 97.5223 99.929V97.344L98.4023 97.245ZM96.2573 104.406C96.5213 104.406 96.7523 104.366 96.9503 104.285C97.1556 104.197 97.3463 104.065 97.5223 103.889V100.732C97.1703 100.417 96.7523 100.259 96.2683 100.259C95.7403 100.259 95.3333 100.45 95.0473 100.831C94.7613 101.205 94.6146 101.693 94.6073 102.294C94.6073 102.932 94.7466 103.445 95.0253 103.834C95.3113 104.215 95.7219 104.406 96.2573 104.406ZM104.235 99.665V105.583C104.235 105.957 104.14 106.291 103.949 106.584C103.759 106.877 103.48 107.108 103.113 107.277C102.747 107.446 102.318 107.53 101.826 107.53C101.577 107.53 101.258 107.482 100.869 107.387C100.488 107.299 100.187 107.185 99.9673 107.046L100.231 106.408C100.517 106.547 100.77 106.65 100.99 106.716C101.218 106.782 101.485 106.815 101.793 106.815C102.255 106.815 102.629 106.709 102.915 106.496C103.209 106.283 103.355 105.975 103.355 105.572V104.725C103.157 104.857 102.945 104.96 102.717 105.033C102.497 105.106 102.292 105.143 102.101 105.143C101.309 105.143 100.686 104.886 100.231 104.373C99.7839 103.852 99.5603 103.163 99.5603 102.305C99.5603 101.762 99.6629 101.282 99.8683 100.864C100.081 100.439 100.378 100.109 100.759 99.874C101.148 99.6393 101.603 99.522 102.123 99.522C102.343 99.522 102.578 99.5697 102.827 99.665C103.077 99.7603 103.308 99.8887 103.52 100.05L103.707 99.665H104.235ZM102.09 104.406C102.354 104.406 102.585 104.366 102.783 104.285C102.989 104.197 103.179 104.065 103.355 103.889V100.732C103.003 100.417 102.585 100.259 102.101 100.259C101.573 100.259 101.166 100.45 100.88 100.831C100.594 101.205 100.448 101.693 100.44 102.294C100.44 102.932 100.58 103.445 100.858 103.834C101.144 104.215 101.555 104.406 102.09 104.406ZM110.113 102.47C110.113 101.59 109.926 100.879 109.552 100.336C109.186 99.7933 108.614 99.522 107.836 99.522C107.323 99.522 106.876 99.643 106.494 99.885C106.12 100.12 105.834 100.45 105.636 100.875C105.446 101.293 105.35 101.773 105.35 102.316C105.35 103.174 105.589 103.86 106.065 104.373C106.542 104.886 107.235 105.143 108.144 105.143C108.511 105.143 108.845 105.095 109.145 105C109.446 104.897 109.747 104.762 110.047 104.593L109.772 103.955C109.442 104.116 109.156 104.234 108.914 104.307C108.68 104.38 108.419 104.417 108.133 104.417C107.503 104.417 107.033 104.245 106.725 103.9C106.425 103.548 106.263 103.071 106.241 102.47H110.113ZM106.263 101.876C106.315 101.377 106.469 100.985 106.725 100.699C106.989 100.406 107.349 100.259 107.803 100.259C108.647 100.259 109.131 100.798 109.255 101.876H106.263ZM112.303 99.753V98.147L111.434 98.389V99.753H110.653L110.664 100.413H111.434V103.614C111.434 104.113 111.566 104.498 111.83 104.769C112.101 105.033 112.468 105.165 112.93 105.165C113.208 105.165 113.48 105.103 113.744 104.978L113.546 104.296C113.362 104.369 113.201 104.406 113.062 104.406C112.805 104.406 112.614 104.325 112.49 104.164C112.365 104.003 112.303 103.779 112.303 103.493V100.413H113.557L113.271 99.753H112.303Z" fill="white"/>
<path d="M20.8192 149.307H17.3432V142.52H16.4742V150H20.9072L20.8192 149.307ZM22.1376 143.598C22.299 143.598 22.4383 143.543 22.5556 143.433C22.673 143.316 22.7316 143.176 22.7316 143.015C22.7316 142.854 22.673 142.714 22.5556 142.597C22.4383 142.48 22.299 142.421 22.1376 142.421C21.969 142.421 21.8296 142.48 21.7196 142.597C21.6096 142.707 21.5546 142.846 21.5546 143.015C21.5546 143.184 21.6096 143.323 21.7196 143.433C21.8296 143.543 21.969 143.598 22.1376 143.598ZM22.5886 150V144.665H21.7086V150H22.5886ZM24.8335 146.216C25.0902 145.937 25.3835 145.706 25.7135 145.523C26.0508 145.34 26.3515 145.248 26.6155 145.248C26.9602 145.248 27.2058 145.358 27.3525 145.578C27.4992 145.798 27.5725 146.106 27.5725 146.502V149.989H28.4415V146.381C28.4415 145.809 28.3022 145.354 28.0235 145.017C27.7522 144.672 27.3342 144.5 26.7695 144.5C26.4322 144.5 26.0765 144.588 25.7025 144.764C25.3285 144.94 25.0132 145.16 24.7565 145.424L24.6135 144.665H23.9645V150H24.8335V146.216ZM30.7658 150V147.998L31.5028 147.261L33.2628 150H34.2858L32.0858 146.689L33.7138 145.072L33.1858 144.522L30.7658 146.953V142.234L29.8968 142.344V150H30.7658ZM35.4042 143.598C35.5656 143.598 35.7049 143.543 35.8222 143.433C35.9396 143.316 35.9982 143.176 35.9982 143.015C35.9982 142.854 35.9396 142.714 35.8222 142.597C35.7049 142.48 35.5656 142.421 35.4042 142.421C35.2356 142.421 35.0962 142.48 34.9862 142.597C34.8762 142.707 34.8212 142.846 34.8212 143.015C34.8212 143.184 34.8762 143.323 34.9862 143.433C35.0962 143.543 35.2356 143.598 35.4042 143.598ZM35.8552 150V144.665H34.9752V150H35.8552ZM38.1001 146.216C38.3568 145.937 38.6501 145.706 38.9801 145.523C39.3174 145.34 39.6181 145.248 39.8821 145.248C40.2268 145.248 40.4724 145.358 40.6191 145.578C40.7658 145.798 40.8391 146.106 40.8391 146.502V149.989H41.7081V146.381C41.7081 145.809 41.5688 145.354 41.2901 145.017C41.0188 144.672 40.6008 144.5 40.0361 144.5C39.6988 144.5 39.3431 144.588 38.9691 144.764C38.5951 144.94 38.2798 145.16 38.0231 145.424L37.8801 144.665H37.2311V150H38.1001V146.216ZM47.3984 144.665V150.583C47.3984 150.957 47.303 151.291 47.1124 151.584C46.9217 151.877 46.643 152.108 46.2764 152.277C45.9097 152.446 45.4807 152.53 44.9894 152.53C44.74 152.53 44.421 152.482 44.0324 152.387C43.651 152.299 43.3504 152.185 43.1304 152.046L43.3944 151.408C43.6804 151.547 43.9334 151.65 44.1534 151.716C44.3807 151.782 44.6484 151.815 44.9564 151.815C45.4184 151.815 45.7924 151.709 46.0784 151.496C46.3717 151.283 46.5184 150.975 46.5184 150.572V149.725C46.3204 149.857 46.1077 149.96 45.8804 150.033C45.6604 150.106 45.455 150.143 45.2644 150.143C44.4724 150.143 43.849 149.886 43.3944 149.373C42.947 148.852 42.7234 148.163 42.7234 147.305C42.7234 146.762 42.826 146.282 43.0314 145.864C43.244 145.439 43.541 145.109 43.9224 144.874C44.311 144.639 44.7657 144.522 45.2864 144.522C45.5064 144.522 45.741 144.57 45.9904 144.665C46.2397 144.76 46.4707 144.889 46.6834 145.05L46.8704 144.665H47.3984ZM45.2534 149.406C45.5174 149.406 45.7484 149.366 45.9464 149.285C46.1517 149.197 46.3424 149.065 46.5184 148.889V145.732C46.1664 145.417 45.7484 145.259 45.2644 145.259C44.7364 145.259 44.3294 145.45 44.0434 145.831C43.7574 146.205 43.6107 146.693 43.6034 147.294C43.6034 147.932 43.7427 148.445 44.0214 148.834C44.3074 149.215 44.718 149.406 45.2534 149.406ZM54.0838 150C54.9198 150 55.5908 149.831 56.0968 149.494C56.6028 149.157 56.8558 148.625 56.8558 147.899C56.8558 147.415 56.7274 147.015 56.4708 146.7C56.2214 146.385 55.8694 146.15 55.4148 145.996C55.7228 145.82 55.9721 145.611 56.1628 145.369C56.3534 145.12 56.4488 144.83 56.4488 144.5C56.4488 143.789 56.2178 143.283 55.7558 142.982C55.2938 142.674 54.6484 142.52 53.8198 142.52H51.7408V150H54.0838ZM53.7868 143.257C54.3808 143.257 54.8244 143.345 55.1178 143.521C55.4184 143.697 55.5688 144.027 55.5688 144.511C55.5688 144.958 55.3891 145.281 55.0298 145.479C54.6778 145.67 54.2084 145.769 53.6218 145.776H52.6098V143.257H53.7868ZM54.1828 146.48C54.7474 146.48 55.1874 146.597 55.5028 146.832C55.8181 147.067 55.9758 147.43 55.9758 147.921C55.9758 148.823 55.3414 149.274 54.0728 149.274H52.6098V146.48H54.1828ZM58.3501 145.644C58.6141 145.527 58.8561 145.439 59.0761 145.38C59.3034 145.314 59.5747 145.281 59.8901 145.281C60.2934 145.281 60.5867 145.395 60.7701 145.622C60.9607 145.849 61.0561 146.161 61.0561 146.557V146.854H59.6811C59.1017 146.854 58.6361 146.997 58.2841 147.283C57.9321 147.569 57.7561 147.969 57.7561 148.482C57.7561 148.973 57.9101 149.373 58.2181 149.681C58.5334 149.989 58.9881 150.143 59.5821 150.143C59.8607 150.143 60.1467 150.077 60.4401 149.945C60.7334 149.806 60.9791 149.644 61.1771 149.461L61.2871 150H61.9361V146.315C61.9361 145.97 61.8481 145.662 61.6721 145.391C61.4961 145.12 61.2504 144.907 60.9351 144.753C60.6197 144.599 60.2604 144.522 59.8571 144.522C59.6151 144.522 59.3071 144.566 58.9331 144.654C58.5664 144.742 58.2877 144.852 58.0971 144.984L58.3501 145.644ZM58.5591 148.482C58.5591 148.189 58.6544 147.943 58.8451 147.745C59.0431 147.54 59.3144 147.437 59.6591 147.437H61.0671V148.647C60.8691 148.882 60.6381 149.072 60.3741 149.219C60.1174 149.366 59.8461 149.439 59.5601 149.439C59.2301 149.439 58.9807 149.344 58.8121 149.153C58.6434 148.962 58.5591 148.739 58.5591 148.482ZM64.1391 146.216C64.3958 145.937 64.6891 145.706 65.0191 145.523C65.3565 145.34 65.6571 145.248 65.9211 145.248C66.2658 145.248 66.5115 145.358 66.6581 145.578C66.8048 145.798 66.8781 146.106 66.8781 146.502V149.989H67.7471V146.381C67.7471 145.809 67.6078 145.354 67.3291 145.017C67.0578 144.672 66.6398 144.5 66.0751 144.5C65.7378 144.5 65.3821 144.588 65.0081 144.764C64.6341 144.94 64.3188 145.16 64.0621 145.424L63.9191 144.665H63.2701V150H64.1391V146.216ZM70.0714 150V147.998L70.8084 147.261L72.5684 150H73.5914L71.3914 146.689L73.0194 145.072L72.4914 144.522L70.0714 146.953V142.234L69.2024 142.344V150H70.0714ZM79.0373 142.52L76.2653 150H77.1123L77.8933 147.877H81.0503L81.8863 150.077L82.7443 149.934L79.8733 142.52H79.0373ZM80.7973 147.173H78.1353L79.4443 143.664L80.7973 147.173ZM87.2694 149.032C87.0127 149.164 86.7817 149.259 86.5764 149.318C86.3711 149.377 86.1071 149.406 85.7844 149.406C85.2491 149.406 84.8347 149.212 84.5414 148.823C84.2481 148.434 84.1014 147.928 84.1014 147.305C84.1087 146.711 84.2664 146.223 84.5744 145.842C84.8824 145.453 85.3004 145.259 85.8284 145.259C86.1364 145.259 86.3857 145.288 86.5764 145.347C86.7744 145.406 87.0201 145.497 87.3134 145.622L87.5774 145.006C87.3647 144.867 87.0824 144.753 86.7304 144.665C86.3857 144.57 86.0924 144.522 85.8504 144.522C85.3224 144.522 84.8604 144.643 84.4644 144.885C84.0684 145.12 83.7604 145.45 83.5404 145.875C83.3277 146.293 83.2214 146.773 83.2214 147.316C83.2214 147.866 83.3241 148.357 83.5294 148.79C83.7347 149.215 84.0317 149.549 84.4204 149.791C84.8091 150.026 85.2674 150.143 85.7954 150.143C86.0374 150.143 86.3344 150.095 86.6864 150C87.0384 149.912 87.3244 149.798 87.5444 149.659L87.2694 149.032ZM92.3075 149.032C92.0508 149.164 91.8198 149.259 91.6145 149.318C91.4092 149.377 91.1452 149.406 90.8225 149.406C90.2872 149.406 89.8728 149.212 89.5795 148.823C89.2862 148.434 89.1395 147.928 89.1395 147.305C89.1468 146.711 89.3045 146.223 89.6125 145.842C89.9205 145.453 90.3385 145.259 90.8665 145.259C91.1745 145.259 91.4238 145.288 91.6145 145.347C91.8125 145.406 92.0582 145.497 92.3515 145.622L92.6155 145.006C92.4028 144.867 92.1205 144.753 91.7685 144.665C91.4238 144.57 91.1305 144.522 90.8885 144.522C90.3605 144.522 89.8985 144.643 89.5025 144.885C89.1065 145.12 88.7985 145.45 88.5785 145.875C88.3658 146.293 88.2595 146.773 88.2595 147.316C88.2595 147.866 88.3622 148.357 88.5675 148.79C88.7728 149.215 89.0698 149.549 89.4585 149.791C89.8472 150.026 90.3055 150.143 90.8335 150.143C91.0755 150.143 91.3725 150.095 91.7245 150C92.0765 149.912 92.3625 149.798 92.5825 149.659L92.3075 149.032ZM98.4786 147.349C98.4786 147.892 98.3686 148.376 98.1486 148.801C97.9359 149.219 97.6279 149.549 97.2246 149.791C96.8212 150.026 96.3519 150.143 95.8166 150.143C95.3032 150.143 94.8559 150.026 94.4746 149.791C94.0932 149.549 93.7999 149.215 93.5946 148.79C93.3966 148.357 93.2976 147.866 93.2976 147.316C93.3049 146.773 93.4112 146.293 93.6166 145.875C93.8292 145.45 94.1336 145.12 94.5296 144.885C94.9256 144.643 95.3876 144.522 95.9156 144.522C96.7149 144.522 97.3419 144.779 97.7966 145.292C98.2512 145.798 98.4786 146.484 98.4786 147.349ZM95.8606 149.406C96.3886 149.406 96.8066 149.215 97.1146 148.834C97.4226 148.445 97.5802 147.954 97.5876 147.36C97.5876 146.729 97.4409 146.223 97.1476 145.842C96.8542 145.453 96.4399 145.259 95.9046 145.259C95.3766 145.259 94.9586 145.453 94.6506 145.842C94.3426 146.223 94.1849 146.711 94.1776 147.305C94.1776 147.928 94.3242 148.434 94.6176 148.823C94.9109 149.212 95.3252 149.406 95.8606 149.406ZM103.089 148.438C102.832 148.717 102.535 148.948 102.198 149.131C101.868 149.314 101.571 149.406 101.307 149.406C100.962 149.406 100.717 149.296 100.57 149.076C100.423 148.856 100.35 148.548 100.35 148.152V144.665H99.481V148.273C99.481 148.845 99.6167 149.303 99.888 149.648C100.167 149.985 100.588 150.154 101.153 150.154C101.49 150.154 101.846 150.066 102.22 149.89C102.594 149.714 102.909 149.494 103.166 149.23L103.309 150H103.958V144.654H103.089V148.438ZM106.216 146.216C106.473 145.937 106.766 145.706 107.096 145.523C107.434 145.34 107.734 145.248 107.998 145.248C108.343 145.248 108.589 145.358 108.735 145.578C108.882 145.798 108.955 146.106 108.955 146.502V149.989H109.824V146.381C109.824 145.809 109.685 145.354 109.406 145.017C109.135 144.672 108.717 144.5 108.152 144.5C107.815 144.5 107.459 144.588 107.085 144.764C106.711 144.94 106.396 145.16 106.139 145.424L105.996 144.665H105.347V150H106.216V146.216ZM112.303 144.753V143.147L111.434 143.389V144.753H110.653L110.664 145.413H111.434V148.614C111.434 149.113 111.566 149.498 111.83 149.769C112.101 150.033 112.468 150.165 112.93 150.165C113.208 150.165 113.48 150.103 113.744 149.978L113.546 149.296C113.362 149.369 113.201 149.406 113.062 149.406C112.805 149.406 112.614 149.325 112.49 149.164C112.365 149.003 112.303 148.779 112.303 148.493V145.413H113.557L113.271 144.753H112.303Z" fill="white"/>
<path d="M51.4192 194.637C51.6172 194.769 51.9289 194.886 52.3542 194.989C52.7795 195.092 53.1535 195.143 53.4762 195.143C54.0189 195.143 54.4882 195.059 54.8842 194.89C55.2875 194.721 55.5919 194.49 55.7972 194.197C56.0099 193.904 56.1162 193.566 56.1162 193.185C56.1162 192.833 56.0429 192.532 55.8962 192.283C55.7495 192.026 55.5332 191.799 55.2472 191.601C54.9685 191.403 54.5982 191.198 54.1362 190.985C53.6229 190.75 53.2342 190.556 52.9702 190.402C52.7062 190.248 52.5009 190.079 52.3542 189.896C52.2149 189.705 52.1452 189.478 52.1452 189.214C52.1452 188.862 52.2882 188.587 52.5742 188.389C52.8675 188.191 53.2562 188.092 53.7402 188.092C54.0629 188.092 54.3342 188.125 54.5542 188.191C54.7815 188.257 55.0309 188.352 55.3022 188.477L55.5992 187.806C55.3425 187.674 55.0455 187.564 54.7082 187.476C54.3782 187.388 54.0372 187.344 53.6852 187.344C53.2085 187.344 52.7869 187.428 52.4202 187.597C52.0609 187.758 51.7822 187.982 51.5842 188.268C51.3935 188.554 51.2982 188.873 51.2982 189.225C51.2982 189.724 51.4559 190.145 51.7712 190.49C52.0939 190.835 52.5962 191.154 53.2782 191.447C53.7549 191.652 54.1289 191.836 54.4002 191.997C54.6789 192.151 54.8915 192.327 55.0382 192.525C55.1849 192.716 55.2582 192.939 55.2582 193.196C55.2582 193.555 55.1005 193.849 54.7852 194.076C54.4772 194.296 54.0372 194.406 53.4652 194.406C53.1425 194.406 52.8125 194.362 52.4752 194.274C52.1452 194.179 51.8629 194.072 51.6282 193.955L51.4192 194.637ZM61.5908 192.47C61.5908 191.59 61.4038 190.879 61.0298 190.336C60.6632 189.793 60.0912 189.522 59.3138 189.522C58.8005 189.522 58.3532 189.643 57.9718 189.885C57.5978 190.12 57.3118 190.45 57.1138 190.875C56.9232 191.293 56.8278 191.773 56.8278 192.316C56.8278 193.174 57.0662 193.86 57.5428 194.373C58.0195 194.886 58.7125 195.143 59.6218 195.143C59.9885 195.143 60.3222 195.095 60.6228 195C60.9235 194.897 61.2242 194.762 61.5248 194.593L61.2498 193.955C60.9198 194.116 60.6338 194.234 60.3918 194.307C60.1572 194.38 59.8968 194.417 59.6108 194.417C58.9802 194.417 58.5108 194.245 58.2028 193.9C57.9022 193.548 57.7408 193.071 57.7188 192.47H61.5908ZM57.7408 191.876C57.7922 191.377 57.9462 190.985 58.2028 190.699C58.4668 190.406 58.8262 190.259 59.2808 190.259C60.1242 190.259 60.6082 190.798 60.7328 191.876H57.7408ZM63.7801 189.753V188.147L62.9111 188.389V189.753H62.1301L62.1411 190.413H62.9111V193.614C62.9111 194.113 63.0431 194.498 63.3071 194.769C63.5784 195.033 63.9451 195.165 64.4071 195.165C64.6858 195.165 64.9571 195.103 65.2211 194.978L65.0231 194.296C64.8398 194.369 64.6784 194.406 64.5391 194.406C64.2824 194.406 64.0918 194.325 63.9671 194.164C63.8424 194.003 63.7801 193.779 63.7801 193.493V190.413H65.0341L64.7481 189.753H63.7801ZM67.3035 189.753V188.147L66.4345 188.389V189.753H65.6535L65.6645 190.413H66.4345V193.614C66.4345 194.113 66.5665 194.498 66.8305 194.769C67.1019 195.033 67.4685 195.165 67.9305 195.165C68.2092 195.165 68.4805 195.103 68.7445 194.978L68.5465 194.296C68.3632 194.369 68.2019 194.406 68.0625 194.406C67.8059 194.406 67.6152 194.325 67.4905 194.164C67.3659 194.003 67.3035 193.779 67.3035 193.493V190.413H68.5575L68.2715 189.753H67.3035ZM70.123 188.598C70.2843 188.598 70.4236 188.543 70.541 188.433C70.6583 188.316 70.717 188.176 70.717 188.015C70.717 187.854 70.6583 187.714 70.541 187.597C70.4236 187.48 70.2843 187.421 70.123 187.421C69.9543 187.421 69.815 187.48 69.705 187.597C69.595 187.707 69.54 187.846 69.54 188.015C69.54 188.184 69.595 188.323 69.705 188.433C69.815 188.543 69.9543 188.598 70.123 188.598ZM70.574 195V189.665H69.694V195H70.574ZM72.8188 191.216C73.0755 190.937 73.3688 190.706 73.6988 190.523C74.0362 190.34 74.3368 190.248 74.6008 190.248C74.9455 190.248 75.1912 190.358 75.3378 190.578C75.4845 190.798 75.5578 191.106 75.5578 191.502V194.989H76.4268V191.381C76.4268 190.809 76.2875 190.354 76.0088 190.017C75.7375 189.672 75.3195 189.5 74.7548 189.5C74.4175 189.5 74.0618 189.588 73.6878 189.764C73.3138 189.94 72.9985 190.16 72.7418 190.424L72.5988 189.665H71.9498V195H72.8188V191.216ZM82.1171 189.665V195.583C82.1171 195.957 82.0218 196.291 81.8311 196.584C81.6404 196.877 81.3618 197.108 80.9951 197.277C80.6284 197.446 80.1994 197.53 79.7081 197.53C79.4588 197.53 79.1398 197.482 78.7511 197.387C78.3698 197.299 78.0691 197.185 77.8491 197.046L78.1131 196.408C78.3991 196.547 78.6521 196.65 78.8721 196.716C79.0994 196.782 79.3671 196.815 79.6751 196.815C80.1371 196.815 80.5111 196.709 80.7971 196.496C81.0904 196.283 81.2371 195.975 81.2371 195.572V194.725C81.0391 194.857 80.8264 194.96 80.5991 195.033C80.3791 195.106 80.1738 195.143 79.9831 195.143C79.1911 195.143 78.5678 194.886 78.1131 194.373C77.6658 193.852 77.4421 193.163 77.4421 192.305C77.4421 191.762 77.5448 191.282 77.7501 190.864C77.9628 190.439 78.2598 190.109 78.6411 189.874C79.0298 189.639 79.4844 189.522 80.0051 189.522C80.2251 189.522 80.4598 189.57 80.7091 189.665C80.9584 189.76 81.1894 189.889 81.4021 190.05L81.5891 189.665H82.1171ZM79.9721 194.406C80.2361 194.406 80.4671 194.366 80.6651 194.285C80.8704 194.197 81.0611 194.065 81.2371 193.889V190.732C80.8851 190.417 80.4671 190.259 79.9831 190.259C79.4551 190.259 79.0481 190.45 78.7621 190.831C78.4761 191.205 78.3294 191.693 78.3221 192.294C78.3221 192.932 78.4614 193.445 78.7401 193.834C79.0261 194.215 79.4368 194.406 79.9721 194.406ZM86.5805 190.644C86.8445 190.527 87.0865 190.439 87.3065 190.38C87.5339 190.314 87.8052 190.281 88.1205 190.281C88.5239 190.281 88.8172 190.395 89.0005 190.622C89.1912 190.849 89.2865 191.161 89.2865 191.557V191.854H87.9115C87.3322 191.854 86.8665 191.997 86.5145 192.283C86.1625 192.569 85.9865 192.969 85.9865 193.482C85.9865 193.973 86.1405 194.373 86.4485 194.681C86.7639 194.989 87.2185 195.143 87.8125 195.143C88.0912 195.143 88.3772 195.077 88.6705 194.945C88.9639 194.806 89.2095 194.644 89.4075 194.461L89.5175 195H90.1665V191.315C90.1665 190.97 90.0785 190.662 89.9025 190.391C89.7265 190.12 89.4809 189.907 89.1655 189.753C88.8502 189.599 88.4909 189.522 88.0875 189.522C87.8455 189.522 87.5375 189.566 87.1635 189.654C86.7969 189.742 86.5182 189.852 86.3275 189.984L86.5805 190.644ZM86.7895 193.482C86.7895 193.189 86.8849 192.943 87.0755 192.745C87.2735 192.54 87.5449 192.437 87.8895 192.437H89.2975V193.647C89.0995 193.882 88.8685 194.072 88.6045 194.219C88.3479 194.366 88.0765 194.439 87.7905 194.439C87.4605 194.439 87.2112 194.344 87.0425 194.153C86.8739 193.962 86.7895 193.739 86.7895 193.482ZM98.864 191.799V194.175C98.4533 194.322 98.028 194.395 97.588 194.395C97.0527 194.395 96.5687 194.27 96.136 194.021C95.7107 193.764 95.3733 193.401 95.124 192.932C94.882 192.463 94.761 191.916 94.761 191.293C94.761 190.64 94.8967 190.076 95.168 189.599C95.4467 189.115 95.8097 188.748 96.257 188.499C96.7117 188.242 97.1993 188.114 97.72 188.114C98.0573 188.114 98.3323 188.14 98.545 188.191C98.7577 188.235 99.0107 188.312 99.304 188.422L99.579 187.795C99.3663 187.663 99.0657 187.56 98.677 187.487C98.2957 187.406 97.9693 187.366 97.698 187.366C96.9793 187.366 96.3267 187.535 95.74 187.872C95.1533 188.202 94.6913 188.668 94.354 189.269C94.0167 189.863 93.848 190.541 93.848 191.304C93.848 192.03 94.002 192.686 94.31 193.273C94.618 193.852 95.0543 194.311 95.619 194.648C96.191 194.985 96.851 195.154 97.599 195.154C97.9657 195.154 98.347 195.103 98.743 195C99.139 194.905 99.4543 194.784 99.689 194.637L99.7 191.15H97.291L97.214 191.799H98.864ZM105.815 192.349C105.815 192.892 105.705 193.376 105.485 193.801C105.273 194.219 104.965 194.549 104.561 194.791C104.158 195.026 103.689 195.143 103.153 195.143C102.64 195.143 102.193 195.026 101.811 194.791C101.43 194.549 101.137 194.215 100.931 193.79C100.733 193.357 100.634 192.866 100.634 192.316C100.642 191.773 100.748 191.293 100.953 190.875C101.166 190.45 101.47 190.12 101.866 189.885C102.262 189.643 102.724 189.522 103.252 189.522C104.052 189.522 104.679 189.779 105.133 190.292C105.588 190.798 105.815 191.484 105.815 192.349ZM103.197 194.406C103.725 194.406 104.143 194.215 104.451 193.834C104.759 193.445 104.917 192.954 104.924 192.36C104.924 191.729 104.778 191.223 104.484 190.842C104.191 190.453 103.777 190.259 103.241 190.259C102.713 190.259 102.295 190.453 101.987 190.842C101.679 191.223 101.522 191.711 101.514 192.305C101.514 192.928 101.661 193.434 101.954 193.823C102.248 194.212 102.662 194.406 103.197 194.406ZM107.313 190.644C107.577 190.527 107.819 190.439 108.039 190.38C108.266 190.314 108.538 190.281 108.853 190.281C109.256 190.281 109.55 190.395 109.733 190.622C109.924 190.849 110.019 191.161 110.019 191.557V191.854H108.644C108.065 191.854 107.599 191.997 107.247 192.283C106.895 192.569 106.719 192.969 106.719 193.482C106.719 193.973 106.873 194.373 107.181 194.681C107.496 194.989 107.951 195.143 108.545 195.143C108.824 195.143 109.11 195.077 109.403 194.945C109.696 194.806 109.942 194.644 110.14 194.461L110.25 195H110.899V191.315C110.899 190.97 110.811 190.662 110.635 190.391C110.459 190.12 110.213 189.907 109.898 189.753C109.583 189.599 109.223 189.522 108.82 189.522C108.578 189.522 108.27 189.566 107.896 189.654C107.529 189.742 107.251 189.852 107.06 189.984L107.313 190.644ZM107.522 193.482C107.522 193.189 107.617 192.943 107.808 192.745C108.006 192.54 108.277 192.437 108.622 192.437H110.03V193.647C109.832 193.882 109.601 194.072 109.337 194.219C109.08 194.366 108.809 194.439 108.523 194.439C108.193 194.439 107.944 194.344 107.775 194.153C107.606 193.962 107.522 193.739 107.522 193.482ZM113.212 195V187.234L112.343 187.344V195H113.212Z" fill="white"/>
<path d="M32.1685 241H33.0375V237.931H34.0935C34.3502 237.931 34.6105 237.916 34.8745 237.887L36.5905 241H37.5475L35.6445 237.656C36.0478 237.487 36.3668 237.242 36.6015 236.919C36.8362 236.589 36.9572 236.182 36.9645 235.698C36.9645 234.95 36.7152 234.4 36.2165 234.048C35.7178 233.696 35.0468 233.52 34.2035 233.52H32.1685V241ZM34.2145 234.257C34.8085 234.257 35.2668 234.367 35.5895 234.587C35.9122 234.8 36.0735 235.181 36.0735 235.731C36.0662 236.259 35.8828 236.64 35.5235 236.875C35.1715 237.102 34.7058 237.216 34.1265 237.216H33.0375V234.257H34.2145ZM43.1993 238.349C43.1993 238.892 43.0893 239.376 42.8693 239.801C42.6566 240.219 42.3486 240.549 41.9453 240.791C41.5419 241.026 41.0726 241.143 40.5373 241.143C40.0239 241.143 39.5766 241.026 39.1953 240.791C38.8139 240.549 38.5206 240.215 38.3153 239.79C38.1173 239.357 38.0183 238.866 38.0183 238.316C38.0256 237.773 38.1319 237.293 38.3373 236.875C38.5499 236.45 38.8543 236.12 39.2503 235.885C39.6463 235.643 40.1083 235.522 40.6363 235.522C41.4356 235.522 42.0626 235.779 42.5173 236.292C42.9719 236.798 43.1993 237.484 43.1993 238.349ZM40.5813 240.406C41.1093 240.406 41.5273 240.215 41.8353 239.834C42.1433 239.445 42.3009 238.954 42.3083 238.36C42.3083 237.729 42.1616 237.223 41.8683 236.842C41.5749 236.453 41.1606 236.259 40.6253 236.259C40.0973 236.259 39.6793 236.453 39.3713 236.842C39.0633 237.223 38.9056 237.711 38.8983 238.305C38.8983 238.928 39.0449 239.434 39.3383 239.823C39.6316 240.212 40.0459 240.406 40.5813 240.406ZM47.8097 239.438C47.5531 239.717 47.2561 239.948 46.9187 240.131C46.5887 240.314 46.2917 240.406 46.0277 240.406C45.6831 240.406 45.4374 240.296 45.2907 240.076C45.1441 239.856 45.0707 239.548 45.0707 239.152V235.665H44.2017V239.273C44.2017 239.845 44.3374 240.303 44.6087 240.648C44.8874 240.985 45.3091 241.154 45.8737 241.154C46.2111 241.154 46.5667 241.066 46.9407 240.89C47.3147 240.714 47.6301 240.494 47.8867 240.23L48.0297 241H48.6787V235.654H47.8097V239.438ZM50.937 237.216C51.1937 236.937 51.487 236.706 51.817 236.523C52.1543 236.34 52.455 236.248 52.719 236.248C53.0637 236.248 53.3093 236.358 53.456 236.578C53.6027 236.798 53.676 237.106 53.676 237.502V240.989H54.545V237.381C54.545 236.809 54.4057 236.354 54.127 236.017C53.8557 235.672 53.4377 235.5 52.873 235.5C52.5357 235.5 52.18 235.588 51.806 235.764C51.432 235.94 51.1167 236.16 50.86 236.424L50.717 235.665H50.068V241H50.937V237.216ZM60.2353 233.245V241H59.7073L59.5423 240.593C59.3223 240.769 59.0839 240.905 58.8273 241C58.5706 241.095 58.3286 241.143 58.1013 241.143C57.3093 241.143 56.6859 240.886 56.2313 240.373C55.7839 239.852 55.5603 239.163 55.5603 238.305C55.5603 237.762 55.6629 237.282 55.8683 236.864C56.0809 236.439 56.3779 236.109 56.7593 235.874C57.1479 235.639 57.6026 235.522 58.1233 235.522C58.3139 235.522 58.5156 235.559 58.7283 235.632C58.9483 235.705 59.1573 235.804 59.3553 235.929V233.344L60.2353 233.245ZM58.0903 240.406C58.3543 240.406 58.5853 240.366 58.7833 240.285C58.9886 240.197 59.1793 240.065 59.3553 239.889V236.732C59.0033 236.417 58.5853 236.259 58.1013 236.259C57.5733 236.259 57.1663 236.45 56.8803 236.831C56.5943 237.205 56.4476 237.693 56.4403 238.294C56.4403 238.932 56.5796 239.445 56.8583 239.834C57.1443 240.215 57.5549 240.406 58.0903 240.406ZM64.5107 233.52V238.349C64.5107 238.884 64.6243 239.361 64.8517 239.779C65.0863 240.197 65.4163 240.527 65.8417 240.769C66.2743 241.011 66.7767 241.132 67.3487 241.132C67.9207 241.132 68.4193 241.015 68.8447 240.78C69.2773 240.538 69.6073 240.204 69.8347 239.779C70.0693 239.354 70.1867 238.877 70.1867 238.349V233.52H69.3067V238.25C69.3067 238.888 69.1307 239.405 68.7787 239.801C68.4267 240.197 67.95 240.395 67.3487 240.395C66.7547 240.395 66.278 240.197 65.9187 239.801C65.5593 239.405 65.3797 238.888 65.3797 238.25V233.52H64.5107ZM73.9667 235.522C74.7587 235.522 75.3784 235.782 75.8257 236.303C76.2804 236.816 76.5077 237.498 76.5077 238.349C76.5077 238.892 76.4014 239.376 76.1887 239.801C75.9834 240.219 75.6864 240.549 75.2977 240.791C74.9164 241.026 74.4654 241.143 73.9447 241.143C73.556 241.143 73.149 241.007 72.7237 240.736V243.288L71.8547 243.409V235.665H72.3717L72.5587 236.039C72.7787 235.878 73.0134 235.753 73.2627 235.665C73.512 235.57 73.7467 235.522 73.9667 235.522ZM73.9667 240.406C74.4947 240.406 74.9017 240.215 75.1877 239.834C75.4737 239.453 75.6204 238.961 75.6277 238.36C75.6277 237.729 75.4847 237.223 75.1987 236.842C74.92 236.453 74.513 236.259 73.9777 236.259C73.7137 236.259 73.4827 236.299 73.2847 236.38C73.0867 236.461 72.8997 236.585 72.7237 236.754V239.933C72.8997 240.087 73.0867 240.204 73.2847 240.285C73.4827 240.366 73.71 240.406 73.9667 240.406ZM83.8094 236.897H81.3344V234.169H84.5134L84.4034 233.52H80.4654V241H81.3344V237.546H83.9084L83.8094 236.897ZM89.8643 238.47C89.8643 237.59 89.6773 236.879 89.3033 236.336C88.9366 235.793 88.3646 235.522 87.5873 235.522C87.0739 235.522 86.6266 235.643 86.2453 235.885C85.8713 236.12 85.5853 236.45 85.3873 236.875C85.1966 237.293 85.1013 237.773 85.1013 238.316C85.1013 239.174 85.3396 239.86 85.8163 240.373C86.2929 240.886 86.9859 241.143 87.8953 241.143C88.2619 241.143 88.5956 241.095 88.8963 241C89.1969 240.897 89.4976 240.762 89.7983 240.593L89.5233 239.955C89.1933 240.116 88.9073 240.234 88.6653 240.307C88.4306 240.38 88.1703 240.417 87.8843 240.417C87.2536 240.417 86.7843 240.245 86.4763 239.9C86.1756 239.548 86.0143 239.071 85.9923 238.47H89.8643ZM86.0143 237.876C86.0656 237.377 86.2196 236.985 86.4763 236.699C86.7403 236.406 87.0996 236.259 87.5543 236.259C88.3976 236.259 88.8816 236.798 89.0063 237.876H86.0143ZM91.3715 236.644C91.6355 236.527 91.8775 236.439 92.0975 236.38C92.3249 236.314 92.5962 236.281 92.9115 236.281C93.3149 236.281 93.6082 236.395 93.7915 236.622C93.9822 236.849 94.0775 237.161 94.0775 237.557V237.854H92.7025C92.1232 237.854 91.6575 237.997 91.3055 238.283C90.9535 238.569 90.7775 238.969 90.7775 239.482C90.7775 239.973 90.9315 240.373 91.2395 240.681C91.5549 240.989 92.0095 241.143 92.6035 241.143C92.8822 241.143 93.1682 241.077 93.4615 240.945C93.7549 240.806 94.0005 240.644 94.1985 240.461L94.3085 241H94.9575V237.315C94.9575 236.97 94.8695 236.662 94.6935 236.391C94.5175 236.12 94.2719 235.907 93.9565 235.753C93.6412 235.599 93.2819 235.522 92.8785 235.522C92.6365 235.522 92.3285 235.566 91.9545 235.654C91.5879 235.742 91.3092 235.852 91.1185 235.984L91.3715 236.644ZM91.5805 239.482C91.5805 239.189 91.6759 238.943 91.8665 238.745C92.0645 238.54 92.3359 238.437 92.6805 238.437H94.0885V239.647C93.8905 239.882 93.6595 240.072 93.3955 240.219C93.1389 240.366 92.8675 240.439 92.5815 240.439C92.2515 240.439 92.0022 240.344 91.8335 240.153C91.6649 239.962 91.5805 239.739 91.5805 239.482ZM97.4246 235.753V234.147L96.5556 234.389V235.753H95.7746L95.7856 236.413H96.5556V239.614C96.5556 240.113 96.6876 240.498 96.9516 240.769C97.223 241.033 97.5896 241.165 98.0516 241.165C98.3303 241.165 98.6016 241.103 98.8656 240.978L98.6676 240.296C98.4843 240.369 98.323 240.406 98.1836 240.406C97.927 240.406 97.7363 240.325 97.6116 240.164C97.487 240.003 97.4246 239.779 97.4246 239.493V236.413H98.6786L98.3926 235.753H97.4246ZM103.379 239.438C103.122 239.717 102.825 239.948 102.488 240.131C102.158 240.314 101.861 240.406 101.597 240.406C101.252 240.406 101.007 240.296 100.86 240.076C100.713 239.856 100.64 239.548 100.64 239.152V235.665H99.7711V239.273C99.7711 239.845 99.9067 240.303 100.178 240.648C100.457 240.985 100.878 241.154 101.443 241.154C101.78 241.154 102.136 241.066 102.51 240.89C102.884 240.714 103.199 240.494 103.456 240.23L103.599 241H104.248V235.654H103.379V239.438ZM106.506 237.326C106.756 237.069 107.06 236.846 107.419 236.655C107.779 236.457 108.105 236.358 108.398 236.358L108.189 235.665C107.933 235.665 107.636 235.757 107.298 235.94C106.961 236.123 106.671 236.318 106.429 236.523L106.154 235.665H105.637V241H106.506V237.326ZM113.637 238.47C113.637 237.59 113.45 236.879 113.076 236.336C112.709 235.793 112.137 235.522 111.36 235.522C110.846 235.522 110.399 235.643 110.018 235.885C109.644 236.12 109.358 236.45 109.16 236.875C108.969 237.293 108.874 237.773 108.874 238.316C108.874 239.174 109.112 239.86 109.589 240.373C110.065 240.886 110.758 241.143 111.668 241.143C112.034 241.143 112.368 241.095 112.669 241C112.969 240.897 113.27 240.762 113.571 240.593L113.296 239.955C112.966 240.116 112.68 240.234 112.438 240.307C112.203 240.38 111.943 240.417 111.657 240.417C111.026 240.417 110.557 240.245 110.249 239.9C109.948 239.548 109.787 239.071 109.765 238.47H113.637ZM109.787 237.876C109.838 237.377 109.992 236.985 110.249 236.699C110.513 236.406 110.872 236.259 111.327 236.259C112.17 236.259 112.654 236.798 112.779 237.876H109.787Z" fill="white"/>
<line x1="404" y1="264.5" x2="124" y2="264.5" stroke="#ECF0F4"/>
<line x1="124.5" y1="82.5" x2="124.5" y2="263.5" stroke="#ECF0F4" stroke-linecap="round" stroke-dasharray="4 4"/>
<line x1="324.5" y1="82.5" x2="324.5" y2="263.5" stroke="#ECF0F4" stroke-linecap="round" stroke-dasharray="4 4"/>
<line x1="174.5" y1="82.5" x2="174.5" y2="263.5" stroke="#ECF0F4" stroke-linecap="round" stroke-dasharray="4 4"/>
<line x1="374.5" y1="82.5" x2="374.5" y2="263.5" stroke="#ECF0F4" stroke-linecap="round" stroke-dasharray="4 4"/>
<line x1="224.5" y1="82.5" x2="224.5" y2="263.5" stroke="#ECF0F4" stroke-linecap="round" stroke-dasharray="4 4"/>
<line x1="274.5" y1="82.5" x2="274.5" y2="263.5" stroke="#ECF0F4" stroke-linecap="round" stroke-dasharray="4 4"/>
<path d="M336.648 95C338.305 95 339.648 96.3431 339.648 98L339.648 106C339.648 107.657 338.305 109 336.648 109L126.996 109C125.339 109 123.996 107.657 123.996 106L123.996 98C123.996 96.3431 125.339 95 126.996 95L336.648 95Z" fill="#FC3366"/>
<path d="M365.871 140C367.528 140 368.871 141.343 368.871 143L368.871 151C368.871 152.657 367.528 154 365.871 154L127.002 154C125.345 154 124.002 152.657 124.002 151L124.002 143C124.002 141.343 125.345 140 127.002 140L365.871 140Z" fill="#EE9D30"/>
<path d="M336.652 185C338.309 185 339.652 186.343 339.652 188L339.652 196C339.652 197.657 338.309 199 336.652 199L127 199C125.343 199 124 197.657 124 196L124 188C124 186.343 125.343 185 127 185L336.652 185Z" fill="#FAFAFF"/>
<path d="M372.133 231C373.79 231 375.133 232.343 375.133 234L375.133 242C375.133 243.657 373.79 245 372.133 245L127.002 245C125.346 245 124.002 243.657 124.002 242L124.002 234C124.002 232.343 125.346 231 127.002 231L372.133 231Z" fill="#20CB8A"/>
<path d="M173.348 283V273.944H172.5L169.668 275.256L170.228 276.28L172.068 275.416V283H173.348Z" fill="white"/>
<path d="M373.335 279.416C373.527 279.224 373.778 279.048 374.087 278.888C374.407 278.717 374.754 278.632 375.127 278.632C375.746 278.632 376.242 278.829 376.615 279.224C376.989 279.619 377.175 280.163 377.175 280.856C377.175 281.56 376.951 282.125 376.503 282.552C376.066 282.968 375.479 283.176 374.743 283.176C374.231 283.176 373.783 283.117 373.399 283C373.026 282.883 372.626 282.701 372.199 282.456L371.559 283.352C372.018 283.597 372.519 283.8 373.063 283.96C373.607 284.131 374.146 284.216 374.679 284.216C375.469 284.216 376.146 284.067 376.711 283.768C377.277 283.469 377.703 283.064 377.991 282.552C378.29 282.04 378.439 281.475 378.439 280.856C378.429 279.907 378.141 279.128 377.575 278.52C377.01 277.912 376.167 277.608 375.047 277.608C374.781 277.608 374.498 277.656 374.199 277.752C373.911 277.837 373.639 277.96 373.383 278.12L373.527 274.984H377.687L377.831 273.944H372.375L372.119 279.416H373.335Z" fill="white"/>
<path d="M328.869 280.84H327.205V273.864H326.325L320.965 280.84L321.141 281.88H325.941V284.104H327.205V281.88H328.725L328.869 280.84ZM325.941 276.072V280.84H322.325L325.941 276.072Z" fill="white"/>
<path d="M273.689 273.736C272.601 273.736 271.54 274.067 270.505 274.728L271.129 275.56C271.449 275.336 271.822 275.149 272.249 275C272.676 274.84 273.14 274.76 273.641 274.76C274.249 274.76 274.734 274.92 275.097 275.24C275.47 275.56 275.657 275.944 275.657 276.392C275.657 276.957 275.417 277.411 274.937 277.752C274.457 278.083 273.806 278.248 272.985 278.248H272.313L272.505 279.192H272.889C273.902 279.192 274.649 279.373 275.129 279.736C275.609 280.099 275.849 280.611 275.849 281.272C275.849 281.656 275.737 281.997 275.513 282.296C275.289 282.584 274.996 282.808 274.633 282.968C274.281 283.117 273.902 283.192 273.497 283.192C272.974 283.192 272.521 283.133 272.137 283.016C271.764 282.899 271.369 282.712 270.953 282.456L270.297 283.352C270.756 283.597 271.257 283.8 271.801 283.96C272.356 284.131 272.905 284.216 273.449 284.216C274.174 284.216 274.814 284.083 275.369 283.816C275.924 283.56 276.35 283.208 276.649 282.76C276.958 282.301 277.113 281.795 277.113 281.24C277.113 280.6 276.932 280.051 276.569 279.592C276.217 279.123 275.769 278.824 275.225 278.696C275.705 278.525 276.105 278.232 276.425 277.816C276.756 277.389 276.921 276.909 276.921 276.376C276.921 275.907 276.798 275.469 276.553 275.064C276.308 274.659 275.94 274.339 275.449 274.104C274.969 273.859 274.382 273.736 273.689 273.736Z" fill="white"/>
<path d="M223.676 273.736C223.057 273.736 222.519 273.816 222.06 273.976C221.612 274.125 221.185 274.323 220.78 274.568L221.148 275.592C221.607 275.336 222.012 275.139 222.364 275C222.716 274.851 223.148 274.776 223.66 274.776C224.321 274.776 224.839 274.92 225.212 275.208C225.596 275.485 225.788 275.896 225.788 276.44C225.788 276.888 225.649 277.309 225.372 277.704C225.095 278.099 224.625 278.579 223.964 279.144L220.572 282.088V283H227.516L227.308 282.008H222.252L224.636 280.008C225.5 279.283 226.113 278.637 226.476 278.072C226.839 277.507 227.02 276.92 227.02 276.312C227.02 275.523 226.716 274.899 226.108 274.44C225.511 273.971 224.7 273.736 223.676 273.736Z" fill="white"/>
<path d="M315.253 83.174H314.098V78.719H313.031L309.423 83.174L309.61 84.351H312.657V85.759H314.098V84.351H315.11L315.253 83.174ZM312.657 81.007V83.174H310.963L312.657 81.007ZM316.612 85C316.84 85 317.027 84.923 317.173 84.769C317.327 84.615 317.404 84.4243 317.404 84.197C317.404 83.9697 317.327 83.779 317.173 83.625C317.027 83.471 316.84 83.394 316.612 83.394C316.385 83.394 316.191 83.471 316.029 83.625C315.875 83.779 315.798 83.9697 315.798 84.197C315.798 84.4243 315.875 84.615 316.029 84.769C316.191 84.923 316.385 85 316.612 85ZM320.287 78.631C319.869 78.631 319.469 78.697 319.088 78.829C318.707 78.961 318.325 79.1517 317.944 79.401L318.615 80.358C319.165 79.9767 319.711 79.786 320.254 79.786C320.562 79.786 320.811 79.863 321.002 80.017C321.193 80.1637 321.288 80.347 321.288 80.567C321.288 80.8383 321.156 81.0583 320.892 81.227C320.628 81.3883 320.276 81.469 319.836 81.469H319.11L319.308 82.58H319.77C320.327 82.58 320.742 82.679 321.013 82.877C321.284 83.0677 321.42 83.3353 321.42 83.68C321.42 83.9807 321.295 84.2227 321.046 84.406C320.797 84.5893 320.5 84.681 320.155 84.681C319.832 84.681 319.543 84.6443 319.286 84.571C319.029 84.4903 318.754 84.362 318.461 84.186L317.735 85.143C318.109 85.341 318.509 85.506 318.934 85.638C319.359 85.77 319.759 85.836 320.133 85.836C320.646 85.836 321.101 85.7407 321.497 85.55C321.893 85.3593 322.197 85.099 322.41 84.769C322.623 84.439 322.729 84.0723 322.729 83.669C322.729 83.383 322.674 83.119 322.564 82.877C322.454 82.635 322.318 82.437 322.157 82.283C322.003 82.129 321.853 82.0337 321.706 81.997C321.933 81.8943 322.139 81.7073 322.322 81.436C322.505 81.1573 322.597 80.8603 322.597 80.545C322.597 80.193 322.509 79.874 322.333 79.588C322.157 79.2947 321.893 79.0637 321.541 78.895C321.196 78.719 320.778 78.631 320.287 78.631ZM326.451 77.19L323.173 85L324.658 85.044L327.947 77.234L326.451 77.19ZM330.071 82.734C330.13 82.602 330.243 82.4847 330.412 82.382C330.581 82.272 330.782 82.217 331.017 82.217C331.34 82.217 331.604 82.3233 331.809 82.536C332.014 82.7487 332.117 83.031 332.117 83.383C332.117 83.7643 331.985 84.0687 331.721 84.296C331.464 84.5233 331.138 84.637 330.742 84.637C330.427 84.637 330.141 84.6003 329.884 84.527C329.627 84.4463 329.345 84.3217 329.037 84.153L328.333 85.154C328.692 85.352 329.081 85.5133 329.499 85.638C329.924 85.77 330.328 85.836 330.709 85.836C331.259 85.836 331.736 85.7333 332.139 85.528C332.55 85.3227 332.865 85.033 333.085 84.659C333.305 84.285 333.415 83.8597 333.415 83.383C333.408 82.9577 333.312 82.5727 333.129 82.228C332.946 81.876 332.671 81.5973 332.304 81.392C331.937 81.1793 331.49 81.073 330.962 81.073C330.632 81.073 330.361 81.128 330.148 81.238L330.214 79.929H332.876L333.03 78.774H329.004L328.806 82.734H330.071Z" fill="white"/>
<path d="M343.312 128.174H342.157V123.719H341.09L337.482 128.174L337.669 129.351H340.716V130.759H342.157V129.351H343.169L343.312 128.174ZM340.716 126.007V128.174H339.022L340.716 126.007ZM344.671 130C344.899 130 345.086 129.923 345.232 129.769C345.386 129.615 345.463 129.424 345.463 129.197C345.463 128.97 345.386 128.779 345.232 128.625C345.086 128.471 344.899 128.394 344.671 128.394C344.444 128.394 344.25 128.471 344.088 128.625C343.934 128.779 343.857 128.97 343.857 129.197C343.857 129.424 343.934 129.615 344.088 129.769C344.25 129.923 344.444 130 344.671 130ZM348.632 130.759L350.788 124.346L350.37 123.774H345.904L346.08 124.929H349.215L347.301 130.374L348.632 130.759ZM354.392 122.19L351.114 130L352.599 130.044L355.888 122.234L354.392 122.19ZM358.012 127.734C358.071 127.602 358.184 127.485 358.353 127.382C358.522 127.272 358.723 127.217 358.958 127.217C359.281 127.217 359.545 127.323 359.75 127.536C359.955 127.749 360.058 128.031 360.058 128.383C360.058 128.764 359.926 129.069 359.662 129.296C359.405 129.523 359.079 129.637 358.683 129.637C358.368 129.637 358.082 129.6 357.825 129.527C357.568 129.446 357.286 129.322 356.978 129.153L356.274 130.154C356.633 130.352 357.022 130.513 357.44 130.638C357.865 130.77 358.269 130.836 358.65 130.836C359.2 130.836 359.677 130.733 360.08 130.528C360.491 130.323 360.806 130.033 361.026 129.659C361.246 129.285 361.356 128.86 361.356 128.383C361.349 127.958 361.253 127.573 361.07 127.228C360.887 126.876 360.612 126.597 360.245 126.392C359.878 126.179 359.431 126.073 358.903 126.073C358.573 126.073 358.302 126.128 358.089 126.238L358.155 124.929H360.817L360.971 123.774H356.945L356.747 127.734H358.012Z" fill="white"/>
<path d="M315.253 173.174H314.098V168.719H313.031L309.423 173.174L309.61 174.351H312.657V175.759H314.098V174.351H315.11L315.253 173.174ZM312.657 171.007V173.174H310.963L312.657 171.007ZM316.612 175C316.84 175 317.027 174.923 317.173 174.769C317.327 174.615 317.404 174.424 317.404 174.197C317.404 173.97 317.327 173.779 317.173 173.625C317.027 173.471 316.84 173.394 316.612 173.394C316.385 173.394 316.191 173.471 316.029 173.625C315.875 173.779 315.798 173.97 315.798 174.197C315.798 174.424 315.875 174.615 316.029 174.769C316.191 174.923 316.385 175 316.612 175ZM320.287 168.631C319.869 168.631 319.469 168.697 319.088 168.829C318.707 168.961 318.325 169.152 317.944 169.401L318.615 170.358C319.165 169.977 319.711 169.786 320.254 169.786C320.562 169.786 320.811 169.863 321.002 170.017C321.193 170.164 321.288 170.347 321.288 170.567C321.288 170.838 321.156 171.058 320.892 171.227C320.628 171.388 320.276 171.469 319.836 171.469H319.11L319.308 172.58H319.77C320.327 172.58 320.742 172.679 321.013 172.877C321.284 173.068 321.42 173.335 321.42 173.68C321.42 173.981 321.295 174.223 321.046 174.406C320.797 174.589 320.5 174.681 320.155 174.681C319.832 174.681 319.543 174.644 319.286 174.571C319.029 174.49 318.754 174.362 318.461 174.186L317.735 175.143C318.109 175.341 318.509 175.506 318.934 175.638C319.359 175.77 319.759 175.836 320.133 175.836C320.646 175.836 321.101 175.741 321.497 175.55C321.893 175.359 322.197 175.099 322.41 174.769C322.623 174.439 322.729 174.072 322.729 173.669C322.729 173.383 322.674 173.119 322.564 172.877C322.454 172.635 322.318 172.437 322.157 172.283C322.003 172.129 321.853 172.034 321.706 171.997C321.933 171.894 322.139 171.707 322.322 171.436C322.505 171.157 322.597 170.86 322.597 170.545C322.597 170.193 322.509 169.874 322.333 169.588C322.157 169.295 321.893 169.064 321.541 168.895C321.196 168.719 320.778 168.631 320.287 168.631ZM326.451 167.19L323.173 175L324.658 175.044L327.947 167.234L326.451 167.19ZM330.071 172.734C330.13 172.602 330.243 172.485 330.412 172.382C330.581 172.272 330.782 172.217 331.017 172.217C331.34 172.217 331.604 172.323 331.809 172.536C332.014 172.749 332.117 173.031 332.117 173.383C332.117 173.764 331.985 174.069 331.721 174.296C331.464 174.523 331.138 174.637 330.742 174.637C330.427 174.637 330.141 174.6 329.884 174.527C329.627 174.446 329.345 174.322 329.037 174.153L328.333 175.154C328.692 175.352 329.081 175.513 329.499 175.638C329.924 175.77 330.328 175.836 330.709 175.836C331.259 175.836 331.736 175.733 332.139 175.528C332.55 175.323 332.865 175.033 333.085 174.659C333.305 174.285 333.415 173.86 333.415 173.383C333.408 172.958 333.312 172.573 333.129 172.228C332.946 171.876 332.671 171.597 332.304 171.392C331.937 171.179 331.49 171.073 330.962 171.073C330.632 171.073 330.361 171.128 330.148 171.238L330.214 169.929H332.876L333.03 168.774H329.004L328.806 172.734H330.071Z" fill="white"/>
<path d="M346.387 218.734C346.445 218.602 346.559 218.485 346.728 218.382C346.896 218.272 347.098 218.217 347.333 218.217C347.655 218.217 347.919 218.323 348.125 218.536C348.33 218.749 348.433 219.031 348.433 219.383C348.433 219.764 348.301 220.069 348.037 220.296C347.78 220.523 347.454 220.637 347.058 220.637C346.742 220.637 346.456 220.6 346.2 220.527C345.943 220.446 345.661 220.322 345.353 220.153L344.649 221.154C345.008 221.352 345.397 221.513 345.815 221.638C346.24 221.77 346.643 221.836 347.025 221.836C347.575 221.836 348.051 221.733 348.455 221.528C348.865 221.323 349.181 221.033 349.401 220.659C349.621 220.285 349.731 219.86 349.731 219.383C349.723 218.958 349.628 218.573 349.445 218.228C349.261 217.876 348.986 217.597 348.62 217.392C348.253 217.179 347.806 217.073 347.278 217.073C346.948 217.073 346.676 217.128 346.464 217.238L346.53 215.929H349.192L349.346 214.774H345.32L345.122 218.734H346.387ZM353.39 213.19L350.112 221L351.597 221.044L354.886 213.234L353.39 213.19ZM357.011 218.734C357.069 218.602 357.183 218.485 357.352 218.382C357.52 218.272 357.722 218.217 357.957 218.217C358.279 218.217 358.543 218.323 358.749 218.536C358.954 218.749 359.057 219.031 359.057 219.383C359.057 219.764 358.925 220.069 358.661 220.296C358.404 220.523 358.078 220.637 357.682 220.637C357.366 220.637 357.08 220.6 356.824 220.527C356.567 220.446 356.285 220.322 355.977 220.153L355.273 221.154C355.632 221.352 356.021 221.513 356.439 221.638C356.864 221.77 357.267 221.836 357.649 221.836C358.199 221.836 358.675 221.733 359.079 221.528C359.489 221.323 359.805 221.033 360.025 220.659C360.245 220.285 360.355 219.86 360.355 219.383C360.347 218.958 360.252 218.573 360.069 218.228C359.885 217.876 359.61 217.597 359.244 217.392C358.877 217.179 358.43 217.073 357.902 217.073C357.572 217.073 357.3 217.128 357.088 217.238L357.154 215.929H359.816L359.97 214.774H355.944L355.746 218.734H357.011Z" fill="white"/>
<path d="M0 0V-1H-1V0H0ZM497 0H498V-1H497V0ZM497 328V329H498V328H497ZM0 328H-1V329H0V328ZM0 1H497V-1H0V1ZM496 0V328H498V0H496ZM497 327H0V329H497V327ZM1 328V0H-1V328H1Z" fill="white"/>
</svg>
