<svg width="497" height="328" viewBox="0 0 497 328" fill="none" xmlns="http://www.w3.org/2000/svg">
<path d="M0 0H497V328H0V0Z" fill="#313235"/>
<path d="M24.872 34V24.416H21.192V22.72H30.616V24.416H26.936V34H24.872ZM33.9625 25.984C35.0612 25.984 35.8772 26.2507 36.4105 26.784C36.9438 27.3173 37.2105 28.1387 37.2105 29.248V34H35.3065V32.8C35.1252 33.216 34.8372 33.5413 34.4425 33.776C34.0585 34.0107 33.6105 34.128 33.0985 34.128C32.5758 34.128 32.1012 34.0213 31.6745 33.808C31.2478 33.5947 30.9118 33.3013 30.6665 32.928C30.4212 32.5547 30.2985 32.1387 30.2985 31.68C30.2985 31.104 30.4425 30.6507 30.7305 30.32C31.0292 29.9893 31.5092 29.7493 32.1705 29.6C32.8318 29.4507 33.7438 29.376 34.9065 29.376H35.3065V29.008C35.3065 28.4747 35.1892 28.0907 34.9545 27.856C34.7305 27.6213 34.3518 27.504 33.8185 27.504C33.4025 27.504 32.9652 27.5787 32.5065 27.728C32.0585 27.8667 31.6158 28.064 31.1785 28.32L30.6185 26.944C31.0558 26.6667 31.5838 26.4373 32.2025 26.256C32.8212 26.0747 33.4078 25.984 33.9625 25.984ZM33.4985 32.688C34.0318 32.688 34.4638 32.512 34.7945 32.16C35.1358 31.7973 35.3065 31.3333 35.3065 30.768V30.432H35.0185C34.3038 30.432 33.7492 30.464 33.3545 30.528C32.9598 30.592 32.6772 30.704 32.5065 30.864C32.3358 31.024 32.2505 31.2427 32.2505 31.52C32.2505 31.8613 32.3678 32.144 32.6025 32.368C32.8372 32.5813 33.1358 32.688 33.4985 32.688ZM42.1231 34.128C41.4298 34.128 40.7898 34.0427 40.2031 33.872C39.6271 33.7013 39.1365 33.456 38.7311 33.136L39.2911 31.744C40.1231 32.352 41.0778 32.656 42.1551 32.656C42.6138 32.656 42.9605 32.5813 43.1951 32.432C43.4405 32.2827 43.5631 32.0693 43.5631 31.792C43.5631 31.5573 43.4778 31.376 43.3071 31.248C43.1471 31.12 42.8538 31.0027 42.4271 30.896L41.1471 30.608C40.4218 30.448 39.8831 30.1867 39.5311 29.824C39.1791 29.4613 39.0031 28.992 39.0031 28.416C39.0031 27.936 39.1365 27.5147 39.4031 27.152C39.6805 26.7787 40.0591 26.4907 40.5391 26.288C41.0298 26.0853 41.5951 25.984 42.2351 25.984C42.7898 25.984 43.3231 26.0693 43.8351 26.24C44.3578 26.4107 44.8165 26.6507 45.2111 26.96L44.6511 28.32C43.8405 27.7333 43.0298 27.44 42.2191 27.44C41.7818 27.44 41.4405 27.52 41.1951 27.68C40.9498 27.84 40.8271 28.064 40.8271 28.352C40.8271 28.5653 40.9018 28.7413 41.0511 28.88C41.2111 29.0187 41.4618 29.1253 41.8031 29.2L43.1311 29.504C43.9098 29.6747 44.4805 29.9467 44.8431 30.32C45.2058 30.6827 45.3871 31.1627 45.3871 31.76C45.3871 32.4853 45.0938 33.0613 44.5071 33.488C43.9205 33.9147 43.1258 34.128 42.1231 34.128ZM54.8488 34H52.3688L49.0088 30.432V34H47.0088V22.72H49.0088V29.6L52.1608 26.192H54.5928L51.0728 29.936L54.8488 34ZM62.7626 34V24.416H59.0826V22.72H68.5066V24.416H64.8266V34H62.7626ZM69.7431 34V26.176H71.7431V34H69.7431ZM69.6311 22.544H71.8391V24.512H69.6311V22.544ZM83.1016 25.984C83.987 25.984 84.6483 26.2507 85.0856 26.784C85.523 27.3067 85.7416 28.112 85.7416 29.2V34H83.7416V29.28C83.7416 28.6827 83.6403 28.2507 83.4376 27.984C83.235 27.7067 82.9096 27.568 82.4616 27.568C81.9283 27.568 81.5123 27.7493 81.2136 28.112C80.915 28.4747 80.7656 28.9813 80.7656 29.632V34H78.7656V29.28C78.7656 28.6827 78.6643 28.2507 78.4616 27.984C78.2696 27.7067 77.9443 27.568 77.4856 27.568C76.963 27.568 76.5523 27.7493 76.2536 28.112C75.955 28.4747 75.8056 28.9813 75.8056 29.632V34H73.8056V26.176H75.7576V27.28C75.9923 26.8533 76.3176 26.5333 76.7336 26.32C77.1496 26.096 77.6243 25.984 78.1576 25.984C79.3416 25.984 80.1256 26.4747 80.5096 27.456C80.755 26.9973 81.107 26.64 81.5656 26.384C82.0243 26.1173 82.5363 25.984 83.1016 25.984ZM94.6384 30.448H89.3104C89.3744 31.1733 89.593 31.712 89.9664 32.064C90.3397 32.416 90.873 32.592 91.5664 32.592C92.4304 32.592 93.2197 32.3147 93.9344 31.76L94.5104 33.136C94.1477 33.4347 93.689 33.6747 93.1344 33.856C92.5904 34.0373 92.041 34.128 91.4864 34.128C90.2064 34.128 89.193 33.7653 88.4464 33.04C87.7104 32.3147 87.3424 31.3227 87.3424 30.064C87.3424 29.264 87.5024 28.5547 87.8224 27.936C88.1424 27.3173 88.5904 26.8373 89.1664 26.496C89.753 26.1547 90.4144 25.984 91.1504 25.984C92.2277 25.984 93.0757 26.3307 93.6944 27.024C94.3237 27.7173 94.6384 28.672 94.6384 29.888V30.448ZM91.1984 27.392C90.665 27.392 90.233 27.5627 89.9024 27.904C89.5824 28.2453 89.385 28.736 89.3104 29.376H92.9264C92.905 28.7253 92.745 28.2347 92.4464 27.904C92.1477 27.5627 91.7317 27.392 91.1984 27.392Z" fill="white"/>
<path d="M38.66 226.631C38.2346 226.631 37.8643 226.686 37.549 226.796C37.241 226.899 36.9476 227.034 36.669 227.203L36.922 227.907C37.2373 227.731 37.516 227.595 37.758 227.5C38 227.397 38.297 227.346 38.649 227.346C39.1036 227.346 39.4593 227.445 39.716 227.643C39.98 227.834 40.112 228.116 40.112 228.49C40.112 228.798 40.0166 229.088 39.826 229.359C39.6353 229.63 39.3126 229.96 38.858 230.349L36.526 232.373V233H41.3L41.157 232.318H37.681L39.32 230.943C39.914 230.444 40.3356 230.001 40.585 229.612C40.8343 229.223 40.959 228.82 40.959 228.402C40.959 227.859 40.75 227.43 40.332 227.115C39.9213 226.792 39.364 226.631 38.66 226.631ZM41.8776 229.843C41.8776 230.474 42.0023 231.042 42.2516 231.548C42.501 232.047 42.8456 232.439 43.2856 232.725C43.7256 233.004 44.2243 233.143 44.7816 233.143C45.3316 233.143 45.8266 233 46.2666 232.714C46.7066 232.428 47.0513 232.032 47.3006 231.526C47.55 231.02 47.6746 230.452 47.6746 229.821C47.6746 229.212 47.55 228.666 47.3006 228.182C47.0513 227.698 46.7066 227.32 46.2666 227.049C45.8266 226.77 45.3316 226.631 44.7816 226.631C44.2243 226.631 43.7256 226.77 43.2856 227.049C42.8456 227.32 42.501 227.702 42.2516 228.193C42.0023 228.677 41.8776 229.227 41.8776 229.843ZM42.7356 229.81C42.7356 229.341 42.8236 228.923 42.9996 228.556C43.1756 228.182 43.4176 227.892 43.7256 227.687C44.041 227.474 44.393 227.368 44.7816 227.368C45.1703 227.368 45.5186 227.474 45.8266 227.687C46.142 227.9 46.384 228.197 46.5526 228.578C46.7286 228.959 46.8166 229.388 46.8166 229.865C46.8166 230.349 46.7286 230.785 46.5526 231.174C46.384 231.555 46.142 231.856 45.8266 232.076C45.5186 232.289 45.1703 232.395 44.7816 232.395C44.393 232.395 44.041 232.285 43.7256 232.065C43.4176 231.838 43.1756 231.53 42.9996 231.141C42.8236 230.745 42.7356 230.301 42.7356 229.81ZM51.0205 232.692C51.2185 232.831 51.4899 232.941 51.8345 233.022C52.1792 233.103 52.4762 233.143 52.7255 233.143C53.4149 233.143 53.9429 233.007 54.3095 232.736C54.6835 232.465 54.8705 232.083 54.8705 231.592C54.8705 230.903 54.2729 230.338 53.0775 229.898C52.6815 229.766 52.3772 229.63 52.1645 229.491C51.9519 229.352 51.8419 229.187 51.8345 228.996C51.8345 228.769 51.9372 228.585 52.1425 228.446C52.3552 228.299 52.6265 228.226 52.9565 228.226C53.2279 228.226 53.4699 228.259 53.6825 228.325C53.8952 228.391 54.1225 228.479 54.3645 228.589L54.6395 227.995C54.4489 227.856 54.1849 227.742 53.8475 227.654C53.5175 227.566 53.2279 227.522 52.9785 227.522C52.3625 227.522 51.8749 227.658 51.5155 227.929C51.1635 228.193 50.9875 228.56 50.9875 229.029C50.9875 229.418 51.1489 229.737 51.4715 229.986C51.7942 230.235 52.2122 230.444 52.7255 230.613C53.6055 230.906 54.0455 231.251 54.0455 231.647C54.0455 231.896 53.9282 232.091 53.6935 232.23C53.4589 232.369 53.1399 232.439 52.7365 232.439C52.2745 232.439 51.7942 232.314 51.2955 232.065L51.0205 232.692ZM60.3477 230.47C60.3477 229.59 60.1607 228.879 59.7867 228.336C59.42 227.793 58.848 227.522 58.0707 227.522C57.5573 227.522 57.11 227.643 56.7287 227.885C56.3547 228.12 56.0687 228.45 55.8707 228.875C55.68 229.293 55.5847 229.773 55.5847 230.316C55.5847 231.174 55.823 231.86 56.2997 232.373C56.7763 232.886 57.4693 233.143 58.3787 233.143C58.7453 233.143 59.079 233.095 59.3797 233C59.6803 232.897 59.981 232.762 60.2817 232.593L60.0067 231.955C59.6767 232.116 59.3907 232.234 59.1487 232.307C58.914 232.38 58.6537 232.417 58.3677 232.417C57.737 232.417 57.2677 232.245 56.9597 231.9C56.659 231.548 56.4977 231.071 56.4757 230.47H60.3477ZM56.4977 229.876C56.549 229.377 56.703 228.985 56.9597 228.699C57.2237 228.406 57.583 228.259 58.0377 228.259C58.881 228.259 59.365 228.798 59.4897 229.876H56.4977ZM65.1219 232.032C64.8653 232.164 64.6343 232.259 64.4289 232.318C64.2236 232.377 63.9596 232.406 63.6369 232.406C63.1016 232.406 62.6873 232.212 62.3939 231.823C62.1006 231.434 61.9539 230.928 61.9539 230.305C61.9613 229.711 62.1189 229.223 62.4269 228.842C62.7349 228.453 63.1529 228.259 63.6809 228.259C63.9889 228.259 64.2383 228.288 64.4289 228.347C64.6269 228.406 64.8726 228.497 65.1659 228.622L65.4299 228.006C65.2173 227.867 64.9349 227.753 64.5829 227.665C64.2383 227.57 63.9449 227.522 63.7029 227.522C63.1749 227.522 62.7129 227.643 62.3169 227.885C61.9209 228.12 61.6129 228.45 61.3929 228.875C61.1803 229.293 61.0739 229.773 61.0739 230.316C61.0739 230.866 61.1766 231.357 61.3819 231.79C61.5873 232.215 61.8843 232.549 62.2729 232.791C62.6616 233.026 63.1199 233.143 63.6479 233.143C63.8899 233.143 64.1869 233.095 64.5389 233C64.8909 232.912 65.1769 232.798 65.3969 232.659L65.1219 232.032Z" fill="white"/>
<path d="M38.6689 185.631C37.9209 185.631 37.1912 185.858 36.4799 186.313L36.9089 186.885C37.1289 186.731 37.3856 186.603 37.6789 186.5C37.9722 186.39 38.2912 186.335 38.6359 186.335C39.0539 186.335 39.3876 186.445 39.6369 186.665C39.8936 186.885 40.0219 187.149 40.0219 187.457C40.0219 187.846 39.8569 188.157 39.5269 188.392C39.1969 188.619 38.7496 188.733 38.1849 188.733H37.7229L37.8549 189.382H38.1189C38.8156 189.382 39.3289 189.507 39.6589 189.756C39.9889 190.005 40.1539 190.357 40.1539 190.812C40.1539 191.076 40.0769 191.311 39.9229 191.516C39.7689 191.714 39.5672 191.868 39.3179 191.978C39.0759 192.081 38.8156 192.132 38.5369 192.132C38.1776 192.132 37.8659 192.092 37.6019 192.011C37.3452 191.93 37.0739 191.802 36.7879 191.626L36.3369 192.242C36.6522 192.411 36.9969 192.55 37.3709 192.66C37.7522 192.777 38.1299 192.836 38.5039 192.836C39.0026 192.836 39.4426 192.744 39.8239 192.561C40.2052 192.385 40.4986 192.143 40.7039 191.835C40.9166 191.52 41.0229 191.171 41.0229 190.79C41.0229 190.35 40.8982 189.972 40.6489 189.657C40.4069 189.334 40.0989 189.129 39.7249 189.041C40.0549 188.924 40.3299 188.722 40.5499 188.436C40.7772 188.143 40.8909 187.813 40.8909 187.446C40.8909 187.123 40.8066 186.823 40.6379 186.544C40.4692 186.265 40.2162 186.045 39.8789 185.884C39.5489 185.715 39.1456 185.631 38.6689 185.631ZM41.7917 188.843C41.7917 189.474 41.9164 190.042 42.1657 190.548C42.415 191.047 42.7597 191.439 43.1997 191.725C43.6397 192.004 44.1384 192.143 44.6957 192.143C45.2457 192.143 45.7407 192 46.1807 191.714C46.6207 191.428 46.9654 191.032 47.2147 190.526C47.464 190.02 47.5887 189.452 47.5887 188.821C47.5887 188.212 47.464 187.666 47.2147 187.182C46.9654 186.698 46.6207 186.32 46.1807 186.049C45.7407 185.77 45.2457 185.631 44.6957 185.631C44.1384 185.631 43.6397 185.77 43.1997 186.049C42.7597 186.32 42.415 186.702 42.1657 187.193C41.9164 187.677 41.7917 188.227 41.7917 188.843ZM42.6497 188.81C42.6497 188.341 42.7377 187.923 42.9137 187.556C43.0897 187.182 43.3317 186.892 43.6397 186.687C43.955 186.474 44.307 186.368 44.6957 186.368C45.0844 186.368 45.4327 186.474 45.7407 186.687C46.056 186.9 46.298 187.197 46.4667 187.578C46.6427 187.959 46.7307 188.388 46.7307 188.865C46.7307 189.349 46.6427 189.785 46.4667 190.174C46.298 190.555 46.056 190.856 45.7407 191.076C45.4327 191.289 45.0844 191.395 44.6957 191.395C44.307 191.395 43.955 191.285 43.6397 191.065C43.3317 190.838 43.0897 190.53 42.9137 190.141C42.7377 189.745 42.6497 189.301 42.6497 188.81ZM50.9346 191.692C51.1326 191.831 51.4039 191.941 51.7486 192.022C52.0933 192.103 52.3903 192.143 52.6396 192.143C53.3289 192.143 53.8569 192.007 54.2236 191.736C54.5976 191.465 54.7846 191.083 54.7846 190.592C54.7846 189.903 54.1869 189.338 52.9916 188.898C52.5956 188.766 52.2913 188.63 52.0786 188.491C51.8659 188.352 51.7559 188.187 51.7486 187.996C51.7486 187.769 51.8513 187.585 52.0566 187.446C52.2693 187.299 52.5406 187.226 52.8706 187.226C53.1419 187.226 53.3839 187.259 53.5966 187.325C53.8093 187.391 54.0366 187.479 54.2786 187.589L54.5536 186.995C54.3629 186.856 54.0989 186.742 53.7616 186.654C53.4316 186.566 53.1419 186.522 52.8926 186.522C52.2766 186.522 51.7889 186.658 51.4296 186.929C51.0776 187.193 50.9016 187.56 50.9016 188.029C50.9016 188.418 51.0629 188.737 51.3856 188.986C51.7083 189.235 52.1263 189.444 52.6396 189.613C53.5196 189.906 53.9596 190.251 53.9596 190.647C53.9596 190.896 53.8423 191.091 53.6076 191.23C53.3729 191.369 53.0539 191.439 52.6506 191.439C52.1886 191.439 51.7083 191.314 51.2096 191.065L50.9346 191.692ZM60.2617 189.47C60.2617 188.59 60.0747 187.879 59.7007 187.336C59.3341 186.793 58.7621 186.522 57.9847 186.522C57.4714 186.522 57.0241 186.643 56.6427 186.885C56.2687 187.12 55.9827 187.45 55.7847 187.875C55.5941 188.293 55.4987 188.773 55.4987 189.316C55.4987 190.174 55.7371 190.86 56.2137 191.373C56.6904 191.886 57.3834 192.143 58.2927 192.143C58.6594 192.143 58.9931 192.095 59.2937 192C59.5944 191.897 59.8951 191.762 60.1957 191.593L59.9207 190.955C59.5907 191.116 59.3047 191.234 59.0627 191.307C58.8281 191.38 58.5677 191.417 58.2817 191.417C57.6511 191.417 57.1817 191.245 56.8737 190.9C56.5731 190.548 56.4117 190.071 56.3897 189.47H60.2617ZM56.4117 188.876C56.4631 188.377 56.6171 187.985 56.8737 187.699C57.1377 187.406 57.4971 187.259 57.9517 187.259C58.7951 187.259 59.2791 187.798 59.4037 188.876H56.4117ZM65.036 191.032C64.7793 191.164 64.5483 191.259 64.343 191.318C64.1377 191.377 63.8737 191.406 63.551 191.406C63.0157 191.406 62.6013 191.212 62.308 190.823C62.0147 190.434 61.868 189.928 61.868 189.305C61.8753 188.711 62.033 188.223 62.341 187.842C62.649 187.453 63.067 187.259 63.595 187.259C63.903 187.259 64.1523 187.288 64.343 187.347C64.541 187.406 64.7867 187.497 65.08 187.622L65.344 187.006C65.1313 186.867 64.849 186.753 64.497 186.665C64.1523 186.57 63.859 186.522 63.617 186.522C63.089 186.522 62.627 186.643 62.231 186.885C61.835 187.12 61.527 187.45 61.307 187.875C61.0943 188.293 60.988 188.773 60.988 189.316C60.988 189.866 61.0907 190.357 61.296 190.79C61.5013 191.215 61.7983 191.549 62.187 191.791C62.5757 192.026 63.034 192.143 63.562 192.143C63.804 192.143 64.101 192.095 64.453 192C64.805 191.912 65.091 191.798 65.311 191.659L65.036 191.032Z" fill="white"/>
<path d="M41.5425 149.515H40.3985V144.719H39.7935L36.1085 149.515L36.2295 150.23H39.5295V151.759H40.3985V150.23H41.4435L41.5425 149.515ZM39.5295 146.237V149.515H37.0435L39.5295 146.237ZM42.1301 147.843C42.1301 148.474 42.2548 149.042 42.5041 149.548C42.7534 150.047 43.0981 150.439 43.5381 150.725C43.9781 151.004 44.4768 151.143 45.0341 151.143C45.5841 151.143 46.0791 151 46.5191 150.714C46.9591 150.428 47.3038 150.032 47.5531 149.526C47.8024 149.02 47.9271 148.452 47.9271 147.821C47.9271 147.212 47.8024 146.666 47.5531 146.182C47.3038 145.698 46.9591 145.32 46.5191 145.049C46.0791 144.77 45.5841 144.631 45.0341 144.631C44.4768 144.631 43.9781 144.77 43.5381 145.049C43.0981 145.32 42.7534 145.702 42.5041 146.193C42.2548 146.677 42.1301 147.227 42.1301 147.843ZM42.9881 147.81C42.9881 147.341 43.0761 146.923 43.2521 146.556C43.4281 146.182 43.6701 145.892 43.9781 145.687C44.2934 145.474 44.6454 145.368 45.0341 145.368C45.4228 145.368 45.7711 145.474 46.0791 145.687C46.3944 145.9 46.6364 146.197 46.8051 146.578C46.9811 146.959 47.0691 147.388 47.0691 147.865C47.0691 148.349 46.9811 148.785 46.8051 149.174C46.6364 149.555 46.3944 149.856 46.0791 150.076C45.7711 150.289 45.4228 150.395 45.0341 150.395C44.6454 150.395 44.2934 150.285 43.9781 150.065C43.6701 149.838 43.4281 149.53 43.2521 149.141C43.0761 148.745 42.9881 148.301 42.9881 147.81ZM51.273 150.692C51.471 150.831 51.7423 150.941 52.087 151.022C52.4316 151.103 52.7286 151.143 52.978 151.143C53.6673 151.143 54.1953 151.007 54.562 150.736C54.936 150.465 55.123 150.083 55.123 149.592C55.123 148.903 54.5253 148.338 53.33 147.898C52.934 147.766 52.6296 147.63 52.417 147.491C52.2043 147.352 52.0943 147.187 52.087 146.996C52.087 146.769 52.1896 146.585 52.395 146.446C52.6076 146.299 52.879 146.226 53.209 146.226C53.4803 146.226 53.7223 146.259 53.935 146.325C54.1476 146.391 54.375 146.479 54.617 146.589L54.892 145.995C54.7013 145.856 54.4373 145.742 54.1 145.654C53.77 145.566 53.4803 145.522 53.231 145.522C52.615 145.522 52.1273 145.658 51.768 145.929C51.416 146.193 51.24 146.56 51.24 147.029C51.24 147.418 51.4013 147.737 51.724 147.986C52.0466 148.235 52.4646 148.444 52.978 148.613C53.858 148.906 54.298 149.251 54.298 149.647C54.298 149.896 54.1806 150.091 53.946 150.23C53.7113 150.369 53.3923 150.439 52.989 150.439C52.527 150.439 52.0466 150.314 51.548 150.065L51.273 150.692ZM60.6001 148.47C60.6001 147.59 60.4131 146.879 60.0391 146.336C59.6725 145.793 59.1005 145.522 58.3231 145.522C57.8098 145.522 57.3625 145.643 56.9811 145.885C56.6071 146.12 56.3211 146.45 56.1231 146.875C55.9325 147.293 55.8371 147.773 55.8371 148.316C55.8371 149.174 56.0755 149.86 56.5521 150.373C57.0288 150.886 57.7218 151.143 58.6311 151.143C58.9978 151.143 59.3315 151.095 59.6321 151C59.9328 150.897 60.2335 150.762 60.5341 150.593L60.2591 149.955C59.9291 150.116 59.6431 150.234 59.4011 150.307C59.1665 150.38 58.9061 150.417 58.6201 150.417C57.9895 150.417 57.5201 150.245 57.2121 149.9C56.9115 149.548 56.7501 149.071 56.7281 148.47H60.6001ZM56.7501 147.876C56.8015 147.377 56.9555 146.985 57.2121 146.699C57.4761 146.406 57.8355 146.259 58.2901 146.259C59.1335 146.259 59.6175 146.798 59.7421 147.876H56.7501ZM65.3744 150.032C65.1177 150.164 64.8867 150.259 64.6814 150.318C64.476 150.377 64.212 150.406 63.8894 150.406C63.354 150.406 62.9397 150.212 62.6464 149.823C62.353 149.434 62.2064 148.928 62.2064 148.305C62.2137 147.711 62.3714 147.223 62.6794 146.842C62.9874 146.453 63.4054 146.259 63.9334 146.259C64.2414 146.259 64.4907 146.288 64.6814 146.347C64.8794 146.406 65.125 146.497 65.4184 146.622L65.6824 146.006C65.4697 145.867 65.1874 145.753 64.8354 145.665C64.4907 145.57 64.1974 145.522 63.9554 145.522C63.4274 145.522 62.9654 145.643 62.5694 145.885C62.1734 146.12 61.8654 146.45 61.6454 146.875C61.4327 147.293 61.3264 147.773 61.3264 148.316C61.3264 148.866 61.429 149.357 61.6344 149.79C61.8397 150.215 62.1367 150.549 62.5254 150.791C62.914 151.026 63.3724 151.143 63.9004 151.143C64.1424 151.143 64.4394 151.095 64.7914 151C65.1434 150.912 65.4294 150.798 65.6494 150.659L65.3744 150.032Z" fill="white"/>
<path d="M37.7383 107.536C37.8703 107.404 38.0426 107.283 38.2553 107.173C38.4753 107.056 38.7136 106.997 38.9703 106.997C39.3956 106.997 39.7366 107.133 39.9933 107.404C40.25 107.675 40.3783 108.049 40.3783 108.526C40.3783 109.01 40.2243 109.399 39.9163 109.692C39.6156 109.978 39.2123 110.121 38.7063 110.121C38.3543 110.121 38.0463 110.081 37.7823 110C37.5256 109.919 37.2506 109.795 36.9573 109.626L36.5173 110.242C36.8326 110.411 37.1773 110.55 37.5513 110.66C37.9253 110.777 38.2956 110.836 38.6623 110.836C39.205 110.836 39.6706 110.733 40.0593 110.528C40.448 110.323 40.7413 110.044 40.9393 109.692C41.1446 109.34 41.2473 108.951 41.2473 108.526C41.24 107.873 41.042 107.338 40.6533 106.92C40.2646 106.502 39.6853 106.293 38.9153 106.293C38.732 106.293 38.5376 106.326 38.3323 106.392C38.1343 106.451 37.9473 106.535 37.7713 106.645L37.8703 104.489H40.7303L40.8293 103.774H37.0783L36.9023 107.536H37.7383ZM41.9743 106.843C41.9743 107.474 42.099 108.042 42.3483 108.548C42.5977 109.047 42.9423 109.439 43.3823 109.725C43.8223 110.004 44.321 110.143 44.8783 110.143C45.4283 110.143 45.9233 110 46.3633 109.714C46.8033 109.428 47.148 109.032 47.3973 108.526C47.6467 108.02 47.7713 107.452 47.7713 106.821C47.7713 106.212 47.6467 105.666 47.3973 105.182C47.148 104.698 46.8033 104.32 46.3633 104.049C45.9233 103.77 45.4283 103.631 44.8783 103.631C44.321 103.631 43.8223 103.77 43.3823 104.049C42.9423 104.32 42.5977 104.702 42.3483 105.193C42.099 105.677 41.9743 106.227 41.9743 106.843ZM42.8323 106.81C42.8323 106.341 42.9203 105.923 43.0963 105.556C43.2723 105.182 43.5143 104.892 43.8223 104.687C44.1377 104.474 44.4897 104.368 44.8783 104.368C45.267 104.368 45.6153 104.474 45.9233 104.687C46.2387 104.9 46.4807 105.197 46.6493 105.578C46.8253 105.959 46.9133 106.388 46.9133 106.865C46.9133 107.349 46.8253 107.785 46.6493 108.174C46.4807 108.555 46.2387 108.856 45.9233 109.076C45.6153 109.289 45.267 109.395 44.8783 109.395C44.4897 109.395 44.1377 109.285 43.8223 109.065C43.5143 108.838 43.2723 108.53 43.0963 108.141C42.9203 107.745 42.8323 107.301 42.8323 106.81ZM51.1172 109.692C51.3152 109.831 51.5866 109.941 51.9312 110.022C52.2759 110.103 52.5729 110.143 52.8222 110.143C53.5116 110.143 54.0396 110.007 54.4062 109.736C54.7802 109.465 54.9672 109.083 54.9672 108.592C54.9672 107.903 54.3696 107.338 53.1742 106.898C52.7782 106.766 52.4739 106.63 52.2612 106.491C52.0486 106.352 51.9386 106.187 51.9312 105.996C51.9312 105.769 52.0339 105.585 52.2392 105.446C52.4519 105.299 52.7232 105.226 53.0532 105.226C53.3246 105.226 53.5666 105.259 53.7792 105.325C53.9919 105.391 54.2192 105.479 54.4612 105.589L54.7362 104.995C54.5456 104.856 54.2816 104.742 53.9442 104.654C53.6142 104.566 53.3246 104.522 53.0752 104.522C52.4592 104.522 51.9716 104.658 51.6122 104.929C51.2602 105.193 51.0842 105.56 51.0842 106.029C51.0842 106.418 51.2456 106.737 51.5682 106.986C51.8909 107.235 52.3089 107.444 52.8222 107.613C53.7022 107.906 54.1422 108.251 54.1422 108.647C54.1422 108.896 54.0249 109.091 53.7902 109.23C53.5556 109.369 53.2366 109.439 52.8332 109.439C52.3712 109.439 51.8909 109.314 51.3922 109.065L51.1172 109.692ZM60.4444 107.47C60.4444 106.59 60.2574 105.879 59.8834 105.336C59.5167 104.793 58.9447 104.522 58.1674 104.522C57.654 104.522 57.2067 104.643 56.8254 104.885C56.4514 105.12 56.1654 105.45 55.9674 105.875C55.7767 106.293 55.6814 106.773 55.6814 107.316C55.6814 108.174 55.9197 108.86 56.3964 109.373C56.873 109.886 57.566 110.143 58.4754 110.143C58.842 110.143 59.1757 110.095 59.4764 110C59.777 109.897 60.0777 109.762 60.3784 109.593L60.1034 108.955C59.7734 109.116 59.4874 109.234 59.2454 109.307C59.0107 109.38 58.7504 109.417 58.4644 109.417C57.8337 109.417 57.3644 109.245 57.0564 108.9C56.7557 108.548 56.5944 108.071 56.5724 107.47H60.4444ZM56.5944 106.876C56.6457 106.377 56.7997 105.985 57.0564 105.699C57.3204 105.406 57.6797 105.259 58.1344 105.259C58.9777 105.259 59.4617 105.798 59.5864 106.876H56.5944ZM65.2186 109.032C64.962 109.164 64.731 109.259 64.5256 109.318C64.3203 109.377 64.0563 109.406 63.7336 109.406C63.1983 109.406 62.784 109.212 62.4906 108.823C62.1973 108.434 62.0506 107.928 62.0506 107.305C62.058 106.711 62.2156 106.223 62.5236 105.842C62.8316 105.453 63.2496 105.259 63.7776 105.259C64.0856 105.259 64.335 105.288 64.5256 105.347C64.7236 105.406 64.9693 105.497 65.2626 105.622L65.5266 105.006C65.314 104.867 65.0316 104.753 64.6796 104.665C64.335 104.57 64.0416 104.522 63.7996 104.522C63.2716 104.522 62.8096 104.643 62.4136 104.885C62.0176 105.12 61.7096 105.45 61.4896 105.875C61.277 106.293 61.1706 106.773 61.1706 107.316C61.1706 107.866 61.2733 108.357 61.4786 108.79C61.684 109.215 61.981 109.549 62.3696 109.791C62.7583 110.026 63.2166 110.143 63.7446 110.143C63.9866 110.143 64.2836 110.095 64.6356 110C64.9876 109.912 65.2736 109.798 65.4936 109.659L65.2186 109.032Z" fill="white"/>
<path d="M35.1029 69V62.774H34.5199L32.5729 63.676L32.9579 64.38L34.2229 63.786V69H35.1029ZM45.211 63.5C45.7537 63.5 46.157 63.6723 46.421 64.017C46.685 64.3543 46.817 64.809 46.817 65.381V68.989H45.948V65.502C45.948 65.106 45.882 64.798 45.75 64.578C45.618 64.358 45.3907 64.248 45.068 64.248C44.8407 64.248 44.5767 64.3323 44.276 64.501C43.9827 64.6623 43.7077 64.8713 43.451 65.128C43.4584 65.1793 43.462 65.2637 43.462 65.381V68.989H42.593V65.502C42.593 65.106 42.527 64.798 42.395 64.578C42.263 64.358 42.0357 64.248 41.713 64.248C41.4784 64.248 41.1997 64.3397 40.877 64.523C40.5617 64.7063 40.2757 64.9373 40.019 65.216V69H39.15V63.665H39.799L39.942 64.424C40.1987 64.16 40.503 63.94 40.855 63.764C41.2144 63.588 41.5517 63.5 41.867 63.5C42.2264 63.5 42.5234 63.5807 42.758 63.742C43 63.9033 43.1797 64.1307 43.297 64.424C43.5537 64.16 43.858 63.94 44.21 63.764C44.562 63.588 44.8957 63.5 45.211 63.5ZM48.581 62.598C48.7423 62.598 48.8817 62.543 48.999 62.433C49.1163 62.3157 49.175 62.1763 49.175 62.015C49.175 61.8537 49.1163 61.7143 48.999 61.597C48.8817 61.4797 48.7423 61.421 48.581 61.421C48.4123 61.421 48.273 61.4797 48.163 61.597C48.053 61.707 47.998 61.8463 47.998 62.015C47.998 62.1837 48.053 62.323 48.163 62.433C48.273 62.543 48.4123 62.598 48.581 62.598ZM49.032 69V63.665H48.152V69H49.032ZM51.2768 65.216C51.5335 64.9373 51.8268 64.7063 52.1568 64.523C52.4942 64.3397 52.7948 64.248 53.0588 64.248C53.4035 64.248 53.6492 64.358 53.7958 64.578C53.9425 64.798 54.0158 65.106 54.0158 65.502V68.989H54.8848V65.381C54.8848 64.809 54.7455 64.3543 54.4668 64.017C54.1955 63.6723 53.7775 63.5 53.2128 63.5C52.8755 63.5 52.5198 63.588 52.1458 63.764C51.7718 63.94 51.4565 64.16 51.1998 64.424L51.0568 63.665H50.4078V69H51.2768V65.216Z" fill="white"/>
<line x1="482" y1="271.5" x2="74" y2="271.5" stroke="#ECF0F4"/>
<line x1="481.5" y1="107.5" x2="74.5" y2="107.5" stroke="#ECF0F4" stroke-linecap="round" stroke-dasharray="4 4"/>
<line x1="481.5" y1="66.5" x2="74.5" y2="66.5" stroke="#ECF0F4" stroke-linecap="round" stroke-dasharray="4 4"/>
<line x1="481.5" y1="148.5" x2="74.5" y2="148.5" stroke="#ECF0F4" stroke-linecap="round" stroke-dasharray="4 4"/>
<line x1="481.5" y1="189.5" x2="74.5" y2="189.5" stroke="#ECF0F4" stroke-linecap="round" stroke-dasharray="4 4"/>
<line x1="481.5" y1="230.5" x2="74.5" y2="230.5" stroke="#ECF0F4" stroke-linecap="round" stroke-dasharray="4 4"/>
<path d="M108.892 280.795C108.68 280.663 108.383 280.56 108.001 280.487C107.62 280.406 107.294 280.366 107.022 280.366C106.318 280.366 105.699 280.538 105.163 280.883C104.628 281.228 104.217 281.701 103.931 282.302C103.645 282.896 103.502 283.563 103.502 284.304C103.502 285.008 103.634 285.653 103.898 286.24C104.162 286.827 104.555 287.292 105.075 287.637C105.596 287.982 106.223 288.154 106.956 288.154C107.272 288.154 107.616 288.11 107.99 288.022C108.372 287.941 108.676 287.842 108.903 287.725L108.573 287.065C108.346 287.168 108.1 287.248 107.836 287.307C107.58 287.366 107.275 287.395 106.923 287.395C106.41 287.395 105.963 287.259 105.581 286.988C105.2 286.709 104.91 286.335 104.712 285.866C104.514 285.389 104.415 284.865 104.415 284.293C104.415 283.684 104.529 283.138 104.756 282.654C104.984 282.17 105.295 281.792 105.691 281.521C106.095 281.25 106.538 281.114 107.022 281.114C107.367 281.114 107.646 281.14 107.858 281.191C108.071 281.235 108.324 281.312 108.617 281.422L108.892 280.795ZM110.714 284.326C110.964 284.069 111.268 283.846 111.627 283.655C111.987 283.457 112.313 283.358 112.606 283.358L112.397 282.665C112.141 282.665 111.844 282.757 111.506 282.94C111.169 283.123 110.879 283.318 110.637 283.523L110.362 282.665H109.845V288H110.714V284.326ZM117.845 285.47C117.845 284.59 117.658 283.879 117.284 283.336C116.917 282.793 116.345 282.522 115.568 282.522C115.054 282.522 114.607 282.643 114.226 282.885C113.852 283.12 113.566 283.45 113.368 283.875C113.177 284.293 113.082 284.773 113.082 285.316C113.082 286.174 113.32 286.86 113.797 287.373C114.273 287.886 114.966 288.143 115.876 288.143C116.242 288.143 116.576 288.095 116.877 288C117.177 287.897 117.478 287.762 117.779 287.593L117.504 286.955C117.174 287.116 116.888 287.234 116.646 287.307C116.411 287.38 116.151 287.417 115.865 287.417C115.234 287.417 114.765 287.245 114.457 286.9C114.156 286.548 113.995 286.071 113.973 285.47H117.845ZM113.995 284.876C114.046 284.377 114.2 283.985 114.457 283.699C114.721 283.406 115.08 283.259 115.535 283.259C116.378 283.259 116.862 283.798 116.987 284.876H113.995ZM119.352 283.644C119.616 283.527 119.858 283.439 120.078 283.38C120.305 283.314 120.577 283.281 120.892 283.281C121.295 283.281 121.589 283.395 121.772 283.622C121.963 283.849 122.058 284.161 122.058 284.557V284.854H120.683C120.104 284.854 119.638 284.997 119.286 285.283C118.934 285.569 118.758 285.969 118.758 286.482C118.758 286.973 118.912 287.373 119.22 287.681C119.535 287.989 119.99 288.143 120.584 288.143C120.863 288.143 121.149 288.077 121.442 287.945C121.735 287.806 121.981 287.644 122.179 287.461L122.289 288H122.938V284.315C122.938 283.97 122.85 283.662 122.674 283.391C122.498 283.12 122.252 282.907 121.937 282.753C121.622 282.599 121.262 282.522 120.859 282.522C120.617 282.522 120.309 282.566 119.935 282.654C119.568 282.742 119.29 282.852 119.099 282.984L119.352 283.644ZM119.561 286.482C119.561 286.189 119.656 285.943 119.847 285.745C120.045 285.54 120.316 285.437 120.661 285.437H122.069V286.647C121.871 286.882 121.64 287.072 121.376 287.219C121.119 287.366 120.848 287.439 120.562 287.439C120.232 287.439 119.983 287.344 119.814 287.153C119.645 286.962 119.561 286.739 119.561 286.482ZM125.405 282.753V281.147L124.536 281.389V282.753H123.755L123.766 283.413H124.536V286.614C124.536 287.113 124.668 287.498 124.932 287.769C125.203 288.033 125.57 288.165 126.032 288.165C126.311 288.165 126.582 288.103 126.846 287.978L126.648 287.296C126.465 287.369 126.303 287.406 126.164 287.406C125.907 287.406 125.717 287.325 125.592 287.164C125.467 287.003 125.405 286.779 125.405 286.493V283.413H126.659L126.373 282.753H125.405ZM128.225 281.598C128.386 281.598 128.525 281.543 128.643 281.433C128.76 281.316 128.819 281.176 128.819 281.015C128.819 280.854 128.76 280.714 128.643 280.597C128.525 280.48 128.386 280.421 128.225 280.421C128.056 280.421 127.917 280.48 127.807 280.597C127.697 280.707 127.642 280.846 127.642 281.015C127.642 281.184 127.697 281.323 127.807 281.433C127.917 281.543 128.056 281.598 128.225 281.598ZM128.676 288V282.665H127.796V288H128.676ZM130.92 284.216C131.177 283.937 131.47 283.706 131.8 283.523C132.138 283.34 132.438 283.248 132.702 283.248C133.047 283.248 133.293 283.358 133.439 283.578C133.586 283.798 133.659 284.106 133.659 284.502V287.989H134.528V284.381C134.528 283.809 134.389 283.354 134.11 283.017C133.839 282.672 133.421 282.5 132.856 282.5C132.519 282.5 132.163 282.588 131.789 282.764C131.415 282.94 131.1 283.16 130.843 283.424L130.7 282.665H130.051V288H130.92V284.216ZM140.219 282.665V288.583C140.219 288.957 140.123 289.291 139.933 289.584C139.742 289.877 139.463 290.108 139.097 290.277C138.73 290.446 138.301 290.53 137.81 290.53C137.56 290.53 137.241 290.482 136.853 290.387C136.471 290.299 136.171 290.185 135.951 290.046L136.215 289.408C136.501 289.547 136.754 289.65 136.974 289.716C137.201 289.782 137.469 289.815 137.777 289.815C138.239 289.815 138.613 289.709 138.899 289.496C139.192 289.283 139.339 288.975 139.339 288.572V287.725C139.141 287.857 138.928 287.96 138.701 288.033C138.481 288.106 138.275 288.143 138.085 288.143C137.293 288.143 136.669 287.886 136.215 287.373C135.767 286.852 135.544 286.163 135.544 285.305C135.544 284.762 135.646 284.282 135.852 283.864C136.064 283.439 136.361 283.109 136.743 282.874C137.131 282.639 137.586 282.522 138.107 282.522C138.327 282.522 138.561 282.57 138.811 282.665C139.06 282.76 139.291 282.889 139.504 283.05L139.691 282.665H140.219ZM138.074 287.406C138.338 287.406 138.569 287.366 138.767 287.285C138.972 287.197 139.163 287.065 139.339 286.889V283.732C138.987 283.417 138.569 283.259 138.085 283.259C137.557 283.259 137.15 283.45 136.864 283.831C136.578 284.205 136.431 284.693 136.424 285.294C136.424 285.932 136.563 286.445 136.842 286.834C137.128 287.215 137.538 287.406 138.074 287.406ZM108.893 304C109.729 304 110.4 303.831 110.906 303.494C111.412 303.157 111.665 302.625 111.665 301.899C111.665 301.415 111.537 301.015 111.28 300.7C111.031 300.385 110.679 300.15 110.224 299.996C110.532 299.82 110.781 299.611 110.972 299.369C111.163 299.12 111.258 298.83 111.258 298.5C111.258 297.789 111.027 297.283 110.565 296.982C110.103 296.674 109.458 296.52 108.629 296.52H106.55V304H108.893ZM108.596 297.257C109.19 297.257 109.634 297.345 109.927 297.521C110.228 297.697 110.378 298.027 110.378 298.511C110.378 298.958 110.198 299.281 109.839 299.479C109.487 299.67 109.018 299.769 108.431 299.776H107.419V297.257H108.596ZM108.992 300.48C109.557 300.48 109.997 300.597 110.312 300.832C110.627 301.067 110.785 301.43 110.785 301.921C110.785 302.823 110.151 303.274 108.882 303.274H107.419V300.48H108.992ZM116.272 302.438C116.015 302.717 115.718 302.948 115.381 303.131C115.051 303.314 114.754 303.406 114.49 303.406C114.145 303.406 113.9 303.296 113.753 303.076C113.606 302.856 113.533 302.548 113.533 302.152V298.665H112.664V302.273C112.664 302.845 112.8 303.303 113.071 303.648C113.35 303.985 113.771 304.154 114.336 304.154C114.673 304.154 115.029 304.066 115.403 303.89C115.777 303.714 116.092 303.494 116.349 303.23L116.492 304H117.141V298.654H116.272V302.438ZM122.875 296.245V304H122.347L122.182 303.593C121.962 303.769 121.724 303.905 121.467 304C121.211 304.095 120.969 304.143 120.741 304.143C119.949 304.143 119.326 303.886 118.871 303.373C118.424 302.852 118.2 302.163 118.2 301.305C118.2 300.762 118.303 300.282 118.508 299.864C118.721 299.439 119.018 299.109 119.399 298.874C119.788 298.639 120.243 298.522 120.763 298.522C120.954 298.522 121.156 298.559 121.368 298.632C121.588 298.705 121.797 298.804 121.995 298.929V296.344L122.875 296.245ZM120.73 303.406C120.994 303.406 121.225 303.366 121.423 303.285C121.629 303.197 121.819 303.065 121.995 302.889V299.732C121.643 299.417 121.225 299.259 120.741 299.259C120.213 299.259 119.806 299.45 119.52 299.831C119.234 300.205 119.088 300.693 119.08 301.294C119.08 301.932 119.22 302.445 119.498 302.834C119.784 303.215 120.195 303.406 120.73 303.406ZM128.708 298.665V304.583C128.708 304.957 128.613 305.291 128.422 305.584C128.232 305.877 127.953 306.108 127.586 306.277C127.22 306.446 126.791 306.53 126.299 306.53C126.05 306.53 125.731 306.482 125.342 306.387C124.961 306.299 124.66 306.185 124.44 306.046L124.704 305.408C124.99 305.547 125.243 305.65 125.463 305.716C125.691 305.782 125.958 305.815 126.266 305.815C126.728 305.815 127.102 305.709 127.388 305.496C127.682 305.283 127.828 304.975 127.828 304.572V303.725C127.63 303.857 127.418 303.96 127.19 304.033C126.97 304.106 126.765 304.143 126.574 304.143C125.782 304.143 125.159 303.886 124.704 303.373C124.257 302.852 124.033 302.163 124.033 301.305C124.033 300.762 124.136 300.282 124.341 299.864C124.554 299.439 124.851 299.109 125.232 298.874C125.621 298.639 126.076 298.522 126.596 298.522C126.816 298.522 127.051 298.57 127.3 298.665C127.55 298.76 127.781 298.889 127.993 299.05L128.18 298.665H128.708ZM126.563 303.406C126.827 303.406 127.058 303.366 127.256 303.285C127.462 303.197 127.652 303.065 127.828 302.889V299.732C127.476 299.417 127.058 299.259 126.574 299.259C126.046 299.259 125.639 299.45 125.353 299.831C125.067 300.205 124.921 300.693 124.913 301.294C124.913 301.932 125.053 302.445 125.331 302.834C125.617 303.215 126.028 303.406 126.563 303.406ZM134.586 301.47C134.586 300.59 134.399 299.879 134.025 299.336C133.659 298.793 133.087 298.522 132.309 298.522C131.796 298.522 131.349 298.643 130.967 298.885C130.593 299.12 130.307 299.45 130.109 299.875C129.919 300.293 129.823 300.773 129.823 301.316C129.823 302.174 130.062 302.86 130.538 303.373C131.015 303.886 131.708 304.143 132.617 304.143C132.984 304.143 133.318 304.095 133.618 304C133.919 303.897 134.22 303.762 134.52 303.593L134.245 302.955C133.915 303.116 133.629 303.234 133.387 303.307C133.153 303.38 132.892 303.417 132.606 303.417C131.976 303.417 131.506 303.245 131.198 302.9C130.898 302.548 130.736 302.071 130.714 301.47H134.586ZM130.736 300.876C130.788 300.377 130.942 299.985 131.198 299.699C131.462 299.406 131.822 299.259 132.276 299.259C133.12 299.259 133.604 299.798 133.728 300.876H130.736ZM136.776 298.753V297.147L135.907 297.389V298.753H135.126L135.137 299.413H135.907V302.614C135.907 303.113 136.039 303.498 136.303 303.769C136.574 304.033 136.941 304.165 137.403 304.165C137.681 304.165 137.953 304.103 138.217 303.978L138.019 303.296C137.835 303.369 137.674 303.406 137.535 303.406C137.278 303.406 137.087 303.325 136.963 303.164C136.838 303.003 136.776 302.779 136.776 302.493V299.413H138.03L137.744 298.753H136.776Z" fill="white"/>
<path d="M291.007 287.637C291.205 287.769 291.516 287.886 291.942 287.989C292.367 288.092 292.741 288.143 293.064 288.143C293.606 288.143 294.076 288.059 294.472 287.89C294.875 287.721 295.179 287.49 295.385 287.197C295.597 286.904 295.704 286.566 295.704 286.185C295.704 285.833 295.63 285.532 295.484 285.283C295.337 285.026 295.121 284.799 294.835 284.601C294.556 284.403 294.186 284.198 293.724 283.985C293.21 283.75 292.822 283.556 292.558 283.402C292.294 283.248 292.088 283.079 291.942 282.896C291.802 282.705 291.733 282.478 291.733 282.214C291.733 281.862 291.876 281.587 292.162 281.389C292.455 281.191 292.844 281.092 293.328 281.092C293.65 281.092 293.922 281.125 294.142 281.191C294.369 281.257 294.618 281.352 294.89 281.477L295.187 280.806C294.93 280.674 294.633 280.564 294.296 280.476C293.966 280.388 293.625 280.344 293.273 280.344C292.796 280.344 292.374 280.428 292.008 280.597C291.648 280.758 291.37 280.982 291.172 281.268C290.981 281.554 290.886 281.873 290.886 282.225C290.886 282.724 291.043 283.145 291.359 283.49C291.681 283.835 292.184 284.154 292.866 284.447C293.342 284.652 293.716 284.836 293.988 284.997C294.266 285.151 294.479 285.327 294.626 285.525C294.772 285.716 294.846 285.939 294.846 286.196C294.846 286.555 294.688 286.849 294.373 287.076C294.065 287.296 293.625 287.406 293.053 287.406C292.73 287.406 292.4 287.362 292.063 287.274C291.733 287.179 291.45 287.072 291.216 286.955L291.007 287.637ZM301.178 285.47C301.178 284.59 300.991 283.879 300.617 283.336C300.251 282.793 299.679 282.522 298.901 282.522C298.388 282.522 297.941 282.643 297.559 282.885C297.185 283.12 296.899 283.45 296.701 283.875C296.511 284.293 296.415 284.773 296.415 285.316C296.415 286.174 296.654 286.86 297.13 287.373C297.607 287.886 298.3 288.143 299.209 288.143C299.576 288.143 299.91 288.095 300.21 288C300.511 287.897 300.812 287.762 301.112 287.593L300.837 286.955C300.507 287.116 300.221 287.234 299.979 287.307C299.745 287.38 299.484 287.417 299.198 287.417C298.568 287.417 298.098 287.245 297.79 286.9C297.49 286.548 297.328 286.071 297.306 285.47H301.178ZM297.328 284.876C297.38 284.377 297.534 283.985 297.79 283.699C298.054 283.406 298.414 283.259 298.868 283.259C299.712 283.259 300.196 283.798 300.32 284.876H297.328ZM303.368 282.753V281.147L302.499 281.389V282.753H301.718L301.729 283.413H302.499V286.614C302.499 287.113 302.631 287.498 302.895 287.769C303.166 288.033 303.533 288.165 303.995 288.165C304.273 288.165 304.545 288.103 304.809 287.978L304.611 287.296C304.427 287.369 304.266 287.406 304.127 287.406C303.87 287.406 303.679 287.325 303.555 287.164C303.43 287.003 303.368 286.779 303.368 286.493V283.413H304.622L304.336 282.753H303.368ZM306.891 282.753V281.147L306.022 281.389V282.753H305.241L305.252 283.413H306.022V286.614C306.022 287.113 306.154 287.498 306.418 287.769C306.689 288.033 307.056 288.165 307.518 288.165C307.797 288.165 308.068 288.103 308.332 287.978L308.134 287.296C307.951 287.369 307.789 287.406 307.65 287.406C307.393 287.406 307.203 287.325 307.078 287.164C306.953 287.003 306.891 286.779 306.891 286.493V283.413H308.145L307.859 282.753H306.891ZM309.71 281.598C309.872 281.598 310.011 281.543 310.128 281.433C310.246 281.316 310.304 281.176 310.304 281.015C310.304 280.854 310.246 280.714 310.128 280.597C310.011 280.48 309.872 280.421 309.71 280.421C309.542 280.421 309.402 280.48 309.292 280.597C309.182 280.707 309.127 280.846 309.127 281.015C309.127 281.184 309.182 281.323 309.292 281.433C309.402 281.543 309.542 281.598 309.71 281.598ZM310.161 288V282.665H309.281V288H310.161ZM312.406 284.216C312.663 283.937 312.956 283.706 313.286 283.523C313.624 283.34 313.924 283.248 314.188 283.248C314.533 283.248 314.779 283.358 314.925 283.578C315.072 283.798 315.145 284.106 315.145 284.502V287.989H316.014V284.381C316.014 283.809 315.875 283.354 315.596 283.017C315.325 282.672 314.907 282.5 314.342 282.5C314.005 282.5 313.649 282.588 313.275 282.764C312.901 282.94 312.586 283.16 312.329 283.424L312.186 282.665H311.537V288H312.406V284.216ZM321.705 282.665V288.583C321.705 288.957 321.609 289.291 321.419 289.584C321.228 289.877 320.949 290.108 320.583 290.277C320.216 290.446 319.787 290.53 319.296 290.53C319.046 290.53 318.727 290.482 318.339 290.387C317.957 290.299 317.657 290.185 317.437 290.046L317.701 289.408C317.987 289.547 318.24 289.65 318.46 289.716C318.687 289.782 318.955 289.815 319.263 289.815C319.725 289.815 320.099 289.709 320.385 289.496C320.678 289.283 320.825 288.975 320.825 288.572V287.725C320.627 287.857 320.414 287.96 320.187 288.033C319.967 288.106 319.761 288.143 319.571 288.143C318.779 288.143 318.155 287.886 317.701 287.373C317.253 286.852 317.03 286.163 317.03 285.305C317.03 284.762 317.132 284.282 317.338 283.864C317.55 283.439 317.847 283.109 318.229 282.874C318.617 282.639 319.072 282.522 319.593 282.522C319.813 282.522 320.047 282.57 320.297 282.665C320.546 282.76 320.777 282.889 320.99 283.05L321.177 282.665H321.705ZM319.56 287.406C319.824 287.406 320.055 287.366 320.253 287.285C320.458 287.197 320.649 287.065 320.825 286.889V283.732C320.473 283.417 320.055 283.259 319.571 283.259C319.043 283.259 318.636 283.45 318.35 283.831C318.064 284.205 317.917 284.693 317.91 285.294C317.91 285.932 318.049 286.445 318.328 286.834C318.614 287.215 319.024 287.406 319.56 287.406ZM326.168 283.644C326.432 283.527 326.674 283.439 326.894 283.38C327.121 283.314 327.393 283.281 327.708 283.281C328.111 283.281 328.405 283.395 328.588 283.622C328.779 283.849 328.874 284.161 328.874 284.557V284.854H327.499C326.92 284.854 326.454 284.997 326.102 285.283C325.75 285.569 325.574 285.969 325.574 286.482C325.574 286.973 325.728 287.373 326.036 287.681C326.351 287.989 326.806 288.143 327.4 288.143C327.679 288.143 327.965 288.077 328.258 287.945C328.551 287.806 328.797 287.644 328.995 287.461L329.105 288H329.754V284.315C329.754 283.97 329.666 283.662 329.49 283.391C329.314 283.12 329.068 282.907 328.753 282.753C328.438 282.599 328.078 282.522 327.675 282.522C327.433 282.522 327.125 282.566 326.751 282.654C326.384 282.742 326.106 282.852 325.915 282.984L326.168 283.644ZM326.377 286.482C326.377 286.189 326.472 285.943 326.663 285.745C326.861 285.54 327.132 285.437 327.477 285.437H328.885V286.647C328.687 286.882 328.456 287.072 328.192 287.219C327.935 287.366 327.664 287.439 327.378 287.439C327.048 287.439 326.799 287.344 326.63 287.153C326.461 286.962 326.377 286.739 326.377 286.482ZM338.451 284.799V287.175C338.041 287.322 337.615 287.395 337.175 287.395C336.64 287.395 336.156 287.27 335.723 287.021C335.298 286.764 334.961 286.401 334.711 285.932C334.469 285.463 334.348 284.916 334.348 284.293C334.348 283.64 334.484 283.076 334.755 282.599C335.034 282.115 335.397 281.748 335.844 281.499C336.299 281.242 336.787 281.114 337.307 281.114C337.645 281.114 337.92 281.14 338.132 281.191C338.345 281.235 338.598 281.312 338.891 281.422L339.166 280.795C338.954 280.663 338.653 280.56 338.264 280.487C337.883 280.406 337.557 280.366 337.285 280.366C336.567 280.366 335.914 280.535 335.327 280.872C334.741 281.202 334.279 281.668 333.941 282.269C333.604 282.863 333.435 283.541 333.435 284.304C333.435 285.03 333.589 285.686 333.897 286.273C334.205 286.852 334.642 287.311 335.206 287.648C335.778 287.985 336.438 288.154 337.186 288.154C337.553 288.154 337.934 288.103 338.33 288C338.726 287.905 339.042 287.784 339.276 287.637L339.287 284.15H336.878L336.801 284.799H338.451ZM345.403 285.349C345.403 285.892 345.293 286.376 345.073 286.801C344.86 287.219 344.552 287.549 344.149 287.791C343.746 288.026 343.276 288.143 342.741 288.143C342.228 288.143 341.78 288.026 341.399 287.791C341.018 287.549 340.724 287.215 340.519 286.79C340.321 286.357 340.222 285.866 340.222 285.316C340.229 284.773 340.336 284.293 340.541 283.875C340.754 283.45 341.058 283.12 341.454 282.885C341.85 282.643 342.312 282.522 342.84 282.522C343.639 282.522 344.266 282.779 344.721 283.292C345.176 283.798 345.403 284.484 345.403 285.349ZM342.785 287.406C343.313 287.406 343.731 287.215 344.039 286.834C344.347 286.445 344.505 285.954 344.512 285.36C344.512 284.729 344.365 284.223 344.072 283.842C343.779 283.453 343.364 283.259 342.829 283.259C342.301 283.259 341.883 283.453 341.575 283.842C341.267 284.223 341.109 284.711 341.102 285.305C341.102 285.928 341.249 286.434 341.542 286.823C341.835 287.212 342.25 287.406 342.785 287.406ZM346.9 283.644C347.164 283.527 347.406 283.439 347.626 283.38C347.854 283.314 348.125 283.281 348.44 283.281C348.844 283.281 349.137 283.395 349.32 283.622C349.511 283.849 349.606 284.161 349.606 284.557V284.854H348.231C347.652 284.854 347.186 284.997 346.834 285.283C346.482 285.569 346.306 285.969 346.306 286.482C346.306 286.973 346.46 287.373 346.768 287.681C347.084 287.989 347.538 288.143 348.132 288.143C348.411 288.143 348.697 288.077 348.99 287.945C349.284 287.806 349.529 287.644 349.727 287.461L349.837 288H350.486V284.315C350.486 283.97 350.398 283.662 350.222 283.391C350.046 283.12 349.801 282.907 349.485 282.753C349.17 282.599 348.811 282.522 348.407 282.522C348.165 282.522 347.857 282.566 347.483 282.654C347.117 282.742 346.838 282.852 346.647 282.984L346.9 283.644ZM347.109 286.482C347.109 286.189 347.205 285.943 347.395 285.745C347.593 285.54 347.865 285.437 348.209 285.437H349.617V286.647C349.419 286.882 349.188 287.072 348.924 287.219C348.668 287.366 348.396 287.439 348.11 287.439C347.78 287.439 347.531 287.344 347.362 287.153C347.194 286.962 347.109 286.739 347.109 286.482ZM352.799 288V280.234L351.93 280.344V288H352.799Z" fill="white"/>
<path d="M400.158 288H401.027V284.931H402.083C402.34 284.931 402.6 284.916 402.864 284.887L404.58 288H405.537L403.634 284.656C404.038 284.487 404.357 284.242 404.591 283.919C404.826 283.589 404.947 283.182 404.954 282.698C404.954 281.95 404.705 281.4 404.206 281.048C403.708 280.696 403.037 280.52 402.193 280.52H400.158V288ZM402.204 281.257C402.798 281.257 403.257 281.367 403.579 281.587C403.902 281.8 404.063 282.181 404.063 282.731C404.056 283.259 403.873 283.64 403.513 283.875C403.161 284.102 402.696 284.216 402.116 284.216H401.027V281.257H402.204ZM411.189 285.349C411.189 285.892 411.079 286.376 410.859 286.801C410.646 287.219 410.338 287.549 409.935 287.791C409.532 288.026 409.062 288.143 408.527 288.143C408.014 288.143 407.566 288.026 407.185 287.791C406.804 287.549 406.51 287.215 406.305 286.79C406.107 286.357 406.008 285.866 406.008 285.316C406.015 284.773 406.122 284.293 406.327 283.875C406.54 283.45 406.844 283.12 407.24 282.885C407.636 282.643 408.098 282.522 408.626 282.522C409.425 282.522 410.052 282.779 410.507 283.292C410.962 283.798 411.189 284.484 411.189 285.349ZM408.571 287.406C409.099 287.406 409.517 287.215 409.825 286.834C410.133 286.445 410.291 285.954 410.298 285.36C410.298 284.729 410.151 284.223 409.858 283.842C409.565 283.453 409.15 283.259 408.615 283.259C408.087 283.259 407.669 283.453 407.361 283.842C407.053 284.223 406.895 284.711 406.888 285.305C406.888 285.928 407.035 286.434 407.328 286.823C407.621 287.212 408.036 287.406 408.571 287.406ZM415.799 286.438C415.543 286.717 415.246 286.948 414.908 287.131C414.578 287.314 414.281 287.406 414.017 287.406C413.673 287.406 413.427 287.296 413.28 287.076C413.134 286.856 413.06 286.548 413.06 286.152V282.665H412.191V286.273C412.191 286.845 412.327 287.303 412.598 287.648C412.877 287.985 413.299 288.154 413.863 288.154C414.201 288.154 414.556 288.066 414.93 287.89C415.304 287.714 415.62 287.494 415.876 287.23L416.019 288H416.668V282.654H415.799V286.438ZM418.927 284.216C419.183 283.937 419.477 283.706 419.807 283.523C420.144 283.34 420.445 283.248 420.709 283.248C421.053 283.248 421.299 283.358 421.446 283.578C421.592 283.798 421.666 284.106 421.666 284.502V287.989H422.535V284.381C422.535 283.809 422.395 283.354 422.117 283.017C421.845 282.672 421.427 282.5 420.863 282.5C420.525 282.5 420.17 282.588 419.796 282.764C419.422 282.94 419.106 283.16 418.85 283.424L418.707 282.665H418.058V288H418.927V284.216ZM428.225 280.245V288H427.697L427.532 287.593C427.312 287.769 427.074 287.905 426.817 288C426.56 288.095 426.318 288.143 426.091 288.143C425.299 288.143 424.676 287.886 424.221 287.373C423.774 286.852 423.55 286.163 423.55 285.305C423.55 284.762 423.653 284.282 423.858 283.864C424.071 283.439 424.368 283.109 424.749 282.874C425.138 282.639 425.592 282.522 426.113 282.522C426.304 282.522 426.505 282.559 426.718 282.632C426.938 282.705 427.147 282.804 427.345 282.929V280.344L428.225 280.245ZM426.08 287.406C426.344 287.406 426.575 287.366 426.773 287.285C426.978 287.197 427.169 287.065 427.345 286.889V283.732C426.993 283.417 426.575 283.259 426.091 283.259C425.563 283.259 425.156 283.45 424.87 283.831C424.584 284.205 424.437 284.693 424.43 285.294C424.43 285.932 424.569 286.445 424.848 286.834C425.134 287.215 425.545 287.406 426.08 287.406ZM432.5 280.52V285.349C432.5 285.884 432.614 286.361 432.841 286.779C433.076 287.197 433.406 287.527 433.831 287.769C434.264 288.011 434.766 288.132 435.338 288.132C435.91 288.132 436.409 288.015 436.834 287.78C437.267 287.538 437.597 287.204 437.824 286.779C438.059 286.354 438.176 285.877 438.176 285.349V280.52H437.296V285.25C437.296 285.888 437.12 286.405 436.768 286.801C436.416 287.197 435.94 287.395 435.338 287.395C434.744 287.395 434.268 287.197 433.908 286.801C433.549 286.405 433.369 285.888 433.369 285.25V280.52H432.5ZM441.956 282.522C442.748 282.522 443.368 282.782 443.815 283.303C444.27 283.816 444.497 284.498 444.497 285.349C444.497 285.892 444.391 286.376 444.178 286.801C443.973 287.219 443.676 287.549 443.287 287.791C442.906 288.026 442.455 288.143 441.934 288.143C441.546 288.143 441.139 288.007 440.713 287.736V290.288L439.844 290.409V282.665H440.361L440.548 283.039C440.768 282.878 441.003 282.753 441.252 282.665C441.502 282.57 441.736 282.522 441.956 282.522ZM441.956 287.406C442.484 287.406 442.891 287.215 443.177 286.834C443.463 286.453 443.61 285.961 443.617 285.36C443.617 284.729 443.474 284.223 443.188 283.842C442.91 283.453 442.503 283.259 441.967 283.259C441.703 283.259 441.472 283.299 441.274 283.38C441.076 283.461 440.889 283.585 440.713 283.754V286.933C440.889 287.087 441.076 287.204 441.274 287.285C441.472 287.366 441.7 287.406 441.956 287.406ZM409.088 299.897H406.613V297.169H409.792L409.682 296.52H405.744V304H406.613V300.546H409.187L409.088 299.897ZM415.143 301.47C415.143 300.59 414.956 299.879 414.582 299.336C414.215 298.793 413.643 298.522 412.866 298.522C412.353 298.522 411.905 298.643 411.524 298.885C411.15 299.12 410.864 299.45 410.666 299.875C410.475 300.293 410.38 300.773 410.38 301.316C410.38 302.174 410.618 302.86 411.095 303.373C411.572 303.886 412.265 304.143 413.174 304.143C413.541 304.143 413.874 304.095 414.175 304C414.476 303.897 414.776 303.762 415.077 303.593L414.802 302.955C414.472 303.116 414.186 303.234 413.944 303.307C413.709 303.38 413.449 303.417 413.163 303.417C412.532 303.417 412.063 303.245 411.755 302.9C411.454 302.548 411.293 302.071 411.271 301.47H415.143ZM411.293 300.876C411.344 300.377 411.498 299.985 411.755 299.699C412.019 299.406 412.378 299.259 412.833 299.259C413.676 299.259 414.16 299.798 414.285 300.876H411.293ZM416.65 299.644C416.914 299.527 417.156 299.439 417.376 299.38C417.604 299.314 417.875 299.281 418.19 299.281C418.594 299.281 418.887 299.395 419.07 299.622C419.261 299.849 419.356 300.161 419.356 300.557V300.854H417.981C417.402 300.854 416.936 300.997 416.584 301.283C416.232 301.569 416.056 301.969 416.056 302.482C416.056 302.973 416.21 303.373 416.518 303.681C416.834 303.989 417.288 304.143 417.882 304.143C418.161 304.143 418.447 304.077 418.74 303.945C419.034 303.806 419.279 303.644 419.477 303.461L419.587 304H420.236V300.315C420.236 299.97 420.148 299.662 419.972 299.391C419.796 299.12 419.551 298.907 419.235 298.753C418.92 298.599 418.561 298.522 418.157 298.522C417.915 298.522 417.607 298.566 417.233 298.654C416.867 298.742 416.588 298.852 416.397 298.984L416.65 299.644ZM416.859 302.482C416.859 302.189 416.955 301.943 417.145 301.745C417.343 301.54 417.615 301.437 417.959 301.437H419.367V302.647C419.169 302.882 418.938 303.072 418.674 303.219C418.418 303.366 418.146 303.439 417.86 303.439C417.53 303.439 417.281 303.344 417.112 303.153C416.944 302.962 416.859 302.739 416.859 302.482ZM422.703 298.753V297.147L421.834 297.389V298.753H421.053L421.064 299.413H421.834V302.614C421.834 303.113 421.966 303.498 422.23 303.769C422.502 304.033 422.868 304.165 423.33 304.165C423.609 304.165 423.88 304.103 424.144 303.978L423.946 303.296C423.763 303.369 423.602 303.406 423.462 303.406C423.206 303.406 423.015 303.325 422.89 303.164C422.766 303.003 422.703 302.779 422.703 302.493V299.413H423.957L423.671 298.753H422.703ZM428.658 302.438C428.401 302.717 428.104 302.948 427.767 303.131C427.437 303.314 427.14 303.406 426.876 303.406C426.531 303.406 426.286 303.296 426.139 303.076C425.992 302.856 425.919 302.548 425.919 302.152V298.665H425.05V302.273C425.05 302.845 425.186 303.303 425.457 303.648C425.736 303.985 426.157 304.154 426.722 304.154C427.059 304.154 427.415 304.066 427.789 303.89C428.163 303.714 428.478 303.494 428.735 303.23L428.878 304H429.527V298.654H428.658V302.438ZM431.785 300.326C432.034 300.069 432.339 299.846 432.698 299.655C433.057 299.457 433.384 299.358 433.677 299.358L433.468 298.665C433.211 298.665 432.914 298.757 432.577 298.94C432.24 299.123 431.95 299.318 431.708 299.523L431.433 298.665H430.916V304H431.785V300.326ZM438.916 301.47C438.916 300.59 438.729 299.879 438.355 299.336C437.988 298.793 437.416 298.522 436.639 298.522C436.125 298.522 435.678 298.643 435.297 298.885C434.923 299.12 434.637 299.45 434.439 299.875C434.248 300.293 434.153 300.773 434.153 301.316C434.153 302.174 434.391 302.86 434.868 303.373C435.344 303.886 436.037 304.143 436.947 304.143C437.313 304.143 437.647 304.095 437.948 304C438.248 303.897 438.549 303.762 438.85 303.593L438.575 302.955C438.245 303.116 437.959 303.234 437.717 303.307C437.482 303.38 437.222 303.417 436.936 303.417C436.305 303.417 435.836 303.245 435.528 302.9C435.227 302.548 435.066 302.071 435.044 301.47H438.916ZM435.066 300.876C435.117 300.377 435.271 299.985 435.528 299.699C435.792 299.406 436.151 299.259 436.606 299.259C437.449 299.259 437.933 299.798 438.058 300.876H435.066Z" fill="white"/>
<path d="M205.234 287.307H201.758V280.52H200.889V288H205.322L205.234 287.307ZM206.552 281.598C206.714 281.598 206.853 281.543 206.97 281.433C207.088 281.316 207.146 281.176 207.146 281.015C207.146 280.854 207.088 280.714 206.97 280.597C206.853 280.48 206.714 280.421 206.552 280.421C206.384 280.421 206.244 280.48 206.134 280.597C206.024 280.707 205.969 280.846 205.969 281.015C205.969 281.184 206.024 281.323 206.134 281.433C206.244 281.543 206.384 281.598 206.552 281.598ZM207.003 288V282.665H206.123V288H207.003ZM209.248 284.216C209.505 283.937 209.798 283.706 210.128 283.523C210.465 283.34 210.766 283.248 211.03 283.248C211.375 283.248 211.62 283.358 211.767 283.578C211.914 283.798 211.987 284.106 211.987 284.502V287.989H212.856V284.381C212.856 283.809 212.717 283.354 212.438 283.017C212.167 282.672 211.749 282.5 211.184 282.5C210.847 282.5 210.491 282.588 210.117 282.764C209.743 282.94 209.428 283.16 209.171 283.424L209.028 282.665H208.379V288H209.248V284.216ZM215.18 288V285.998L215.917 285.261L217.677 288H218.7L216.5 284.689L218.128 283.072L217.6 282.522L215.18 284.953V280.234L214.311 280.344V288H215.18ZM224.63 288C225.466 288 226.137 287.831 226.643 287.494C227.149 287.157 227.402 286.625 227.402 285.899C227.402 285.415 227.274 285.015 227.017 284.7C226.768 284.385 226.416 284.15 225.961 283.996C226.269 283.82 226.518 283.611 226.709 283.369C226.9 283.12 226.995 282.83 226.995 282.5C226.995 281.789 226.764 281.283 226.302 280.982C225.84 280.674 225.195 280.52 224.366 280.52H222.287V288H224.63ZM224.333 281.257C224.927 281.257 225.371 281.345 225.664 281.521C225.965 281.697 226.115 282.027 226.115 282.511C226.115 282.958 225.935 283.281 225.576 283.479C225.224 283.67 224.755 283.769 224.168 283.776H223.156V281.257H224.333ZM224.729 284.48C225.294 284.48 225.734 284.597 226.049 284.832C226.364 285.067 226.522 285.43 226.522 285.921C226.522 286.823 225.888 287.274 224.619 287.274H223.156V284.48H224.729ZM228.896 283.644C229.16 283.527 229.402 283.439 229.622 283.38C229.85 283.314 230.121 283.281 230.436 283.281C230.84 283.281 231.133 283.395 231.316 283.622C231.507 283.849 231.602 284.161 231.602 284.557V284.854H230.227C229.648 284.854 229.182 284.997 228.83 285.283C228.478 285.569 228.302 285.969 228.302 286.482C228.302 286.973 228.456 287.373 228.764 287.681C229.08 287.989 229.534 288.143 230.128 288.143C230.407 288.143 230.693 288.077 230.986 287.945C231.28 287.806 231.525 287.644 231.723 287.461L231.833 288H232.482V284.315C232.482 283.97 232.394 283.662 232.218 283.391C232.042 283.12 231.797 282.907 231.481 282.753C231.166 282.599 230.807 282.522 230.403 282.522C230.161 282.522 229.853 282.566 229.479 282.654C229.113 282.742 228.834 282.852 228.643 282.984L228.896 283.644ZM229.105 286.482C229.105 286.189 229.201 285.943 229.391 285.745C229.589 285.54 229.861 285.437 230.205 285.437H231.613V286.647C231.415 286.882 231.184 287.072 230.92 287.219C230.664 287.366 230.392 287.439 230.106 287.439C229.776 287.439 229.527 287.344 229.358 287.153C229.19 286.962 229.105 286.739 229.105 286.482ZM234.686 284.216C234.942 283.937 235.236 283.706 235.566 283.523C235.903 283.34 236.204 283.248 236.468 283.248C236.812 283.248 237.058 283.358 237.205 283.578C237.351 283.798 237.425 284.106 237.425 284.502V287.989H238.294V284.381C238.294 283.809 238.154 283.354 237.876 283.017C237.604 282.672 237.186 282.5 236.622 282.5C236.284 282.5 235.929 282.588 235.555 282.764C235.181 282.94 234.865 283.16 234.609 283.424L234.466 282.665H233.817V288H234.686V284.216ZM240.618 288V285.998L241.355 285.261L243.115 288H244.138L241.938 284.689L243.566 283.072L243.038 282.522L240.618 284.953V280.234L239.749 280.344V288H240.618ZM205.96 296.52L203.188 304H204.035L204.816 301.877H207.973L208.809 304.077L209.667 303.934L206.796 296.52H205.96ZM207.72 301.173H205.058L206.367 297.664L207.72 301.173ZM214.192 303.032C213.935 303.164 213.704 303.259 213.499 303.318C213.293 303.377 213.029 303.406 212.707 303.406C212.171 303.406 211.757 303.212 211.464 302.823C211.17 302.434 211.024 301.928 211.024 301.305C211.031 300.711 211.189 300.223 211.497 299.842C211.805 299.453 212.223 299.259 212.751 299.259C213.059 299.259 213.308 299.288 213.499 299.347C213.697 299.406 213.942 299.497 214.236 299.622L214.5 299.006C214.287 298.867 214.005 298.753 213.653 298.665C213.308 298.57 213.015 298.522 212.773 298.522C212.245 298.522 211.783 298.643 211.387 298.885C210.991 299.12 210.683 299.45 210.463 299.875C210.25 300.293 210.144 300.773 210.144 301.316C210.144 301.866 210.246 302.357 210.452 302.79C210.657 303.215 210.954 303.549 211.343 303.791C211.731 304.026 212.19 304.143 212.718 304.143C212.96 304.143 213.257 304.095 213.609 304C213.961 303.912 214.247 303.798 214.467 303.659L214.192 303.032ZM219.23 303.032C218.973 303.164 218.742 303.259 218.537 303.318C218.332 303.377 218.068 303.406 217.745 303.406C217.21 303.406 216.795 303.212 216.502 302.823C216.209 302.434 216.062 301.928 216.062 301.305C216.069 300.711 216.227 300.223 216.535 299.842C216.843 299.453 217.261 299.259 217.789 299.259C218.097 299.259 218.346 299.288 218.537 299.347C218.735 299.406 218.981 299.497 219.274 299.622L219.538 299.006C219.325 298.867 219.043 298.753 218.691 298.665C218.346 298.57 218.053 298.522 217.811 298.522C217.283 298.522 216.821 298.643 216.425 298.885C216.029 299.12 215.721 299.45 215.501 299.875C215.288 300.293 215.182 300.773 215.182 301.316C215.182 301.866 215.285 302.357 215.49 302.79C215.695 303.215 215.992 303.549 216.381 303.791C216.77 304.026 217.228 304.143 217.756 304.143C217.998 304.143 218.295 304.095 218.647 304C218.999 303.912 219.285 303.798 219.505 303.659L219.23 303.032ZM225.401 301.349C225.401 301.892 225.291 302.376 225.071 302.801C224.858 303.219 224.55 303.549 224.147 303.791C223.744 304.026 223.274 304.143 222.739 304.143C222.226 304.143 221.778 304.026 221.397 303.791C221.016 303.549 220.722 303.215 220.517 302.79C220.319 302.357 220.22 301.866 220.22 301.316C220.227 300.773 220.334 300.293 220.539 299.875C220.752 299.45 221.056 299.12 221.452 298.885C221.848 298.643 222.31 298.522 222.838 298.522C223.637 298.522 224.264 298.779 224.719 299.292C225.174 299.798 225.401 300.484 225.401 301.349ZM222.783 303.406C223.311 303.406 223.729 303.215 224.037 302.834C224.345 302.445 224.503 301.954 224.51 301.36C224.51 300.729 224.363 300.223 224.07 299.842C223.777 299.453 223.362 299.259 222.827 299.259C222.299 299.259 221.881 299.453 221.573 299.842C221.265 300.223 221.107 300.711 221.1 301.305C221.1 301.928 221.247 302.434 221.54 302.823C221.833 303.212 222.248 303.406 222.783 303.406ZM230.011 302.438C229.755 302.717 229.458 302.948 229.12 303.131C228.79 303.314 228.493 303.406 228.229 303.406C227.885 303.406 227.639 303.296 227.492 303.076C227.346 302.856 227.272 302.548 227.272 302.152V298.665H226.403V302.273C226.403 302.845 226.539 303.303 226.81 303.648C227.089 303.985 227.511 304.154 228.075 304.154C228.413 304.154 228.768 304.066 229.142 303.89C229.516 303.714 229.832 303.494 230.088 303.23L230.231 304H230.88V298.654H230.011V302.438ZM233.139 300.216C233.395 299.937 233.689 299.706 234.019 299.523C234.356 299.34 234.657 299.248 234.921 299.248C235.265 299.248 235.511 299.358 235.658 299.578C235.804 299.798 235.878 300.106 235.878 300.502V303.989H236.747V300.381C236.747 299.809 236.607 299.354 236.329 299.017C236.057 298.672 235.639 298.5 235.075 298.5C234.737 298.5 234.382 298.588 234.008 298.764C233.634 298.94 233.318 299.16 233.062 299.424L232.919 298.665H232.27V304H233.139V300.216ZM239.225 298.753V297.147L238.356 297.389V298.753H237.575L237.586 299.413H238.356V302.614C238.356 303.113 238.488 303.498 238.752 303.769C239.023 304.033 239.39 304.165 239.852 304.165C240.131 304.165 240.402 304.103 240.666 303.978L240.468 303.296C240.285 303.369 240.123 303.406 239.984 303.406C239.727 303.406 239.537 303.325 239.412 303.164C239.287 303.003 239.225 302.779 239.225 302.493V299.413H240.479L240.193 298.753H239.225Z" fill="white"/>
<path d="M115 112.914C115 111.257 116.343 109.914 118 109.914L126 109.914C127.657 109.914 129 111.257 129 112.914L129 269.001C129 270.658 127.657 272.001 126 272.001L118 272.001C116.343 272.001 115 270.658 115 269.001L115 112.914Z" fill="#FC3366"/>
<path d="M215 189.434C215 187.777 216.343 186.434 218 186.434L226 186.434C227.657 186.434 229 187.777 229 189.434L229 268.999C229 270.656 227.657 271.999 226 271.999L218 271.999C216.343 271.999 215 270.656 215 268.999L215 189.434Z" fill="#EE9D30"/>
<path d="M315 136.957C315 135.3 316.343 133.957 318 133.957L326 133.957C327.657 133.957 329 135.3 329 136.957L329 268.001C329 269.657 327.657 271.001 326 271.001L318 271.001C316.343 271.001 315 269.657 315 268.001L315 136.957Z" fill="#FAFAFF"/>
<path d="M415 189.131C415 187.474 416.343 186.131 418 186.131L426 186.131C427.657 186.131 429 187.474 429 189.131L429 268C429 269.657 427.657 271 426 271L418 271C416.343 271 415 269.657 415 268L415 189.131Z" fill="#20CB8A"/>
<path d="M117.071 99.515H115.927V94.719H115.322L111.637 99.515L111.758 100.23H115.058V101.759H115.927V100.23H116.972L117.071 99.515ZM115.058 96.237V99.515H112.572L115.058 96.237ZM119.991 94.631C120.482 94.631 120.922 94.7447 121.311 94.972C121.7 95.1993 122.004 95.5367 122.224 95.984C122.451 96.4313 122.565 96.9667 122.565 97.59C122.565 98.382 122.367 99.0787 121.971 99.68C121.575 100.281 121.073 100.754 120.464 101.099C119.855 101.451 119.236 101.667 118.605 101.748L118.407 101.066C118.854 101.015 119.302 100.879 119.749 100.659C120.204 100.439 120.603 100.138 120.948 99.757C121.293 99.3683 121.524 98.9173 121.641 98.404C121.128 98.822 120.585 99.031 120.013 99.031C119.529 99.031 119.107 98.9357 118.748 98.745C118.396 98.5543 118.125 98.294 117.934 97.964C117.751 97.634 117.659 97.2673 117.659 96.864C117.659 96.4387 117.758 96.0573 117.956 95.72C118.161 95.3827 118.44 95.1187 118.792 94.928C119.151 94.73 119.551 94.631 119.991 94.631ZM118.484 96.809C118.484 97.2637 118.62 97.6303 118.891 97.909C119.17 98.1877 119.547 98.327 120.024 98.327C120.332 98.327 120.633 98.2537 120.926 98.107C121.219 97.953 121.483 97.7587 121.718 97.524C121.689 96.82 121.524 96.2847 121.223 95.918C120.93 95.544 120.53 95.357 120.024 95.357C119.562 95.357 119.188 95.4963 118.902 95.775C118.623 96.0537 118.484 96.3983 118.484 96.809ZM123.849 101C124.01 101 124.146 100.941 124.256 100.824C124.373 100.707 124.432 100.567 124.432 100.406C124.432 100.245 124.373 100.109 124.256 99.999C124.146 99.8817 124.01 99.823 123.849 99.823C123.68 99.823 123.537 99.8817 123.42 99.999C123.303 100.109 123.244 100.245 123.244 100.406C123.244 100.575 123.303 100.718 123.42 100.835C123.537 100.945 123.68 101 123.849 101ZM127.094 94.631C126.346 94.631 125.616 94.8583 124.905 95.313L125.334 95.885C125.554 95.731 125.81 95.6027 126.104 95.5C126.397 95.39 126.716 95.335 127.061 95.335C127.479 95.335 127.812 95.445 128.062 95.665C128.318 95.885 128.447 96.149 128.447 96.457C128.447 96.8457 128.282 97.1573 127.952 97.392C127.622 97.6193 127.174 97.733 126.61 97.733H126.148L126.28 98.382H126.544C127.24 98.382 127.754 98.5067 128.084 98.756C128.414 99.0053 128.579 99.3573 128.579 99.812C128.579 100.076 128.502 100.311 128.348 100.516C128.194 100.714 127.992 100.868 127.743 100.978C127.501 101.081 127.24 101.132 126.962 101.132C126.602 101.132 126.291 101.092 126.027 101.011C125.77 100.93 125.499 100.802 125.213 100.626L124.762 101.242C125.077 101.411 125.422 101.55 125.796 101.66C126.177 101.777 126.555 101.836 126.929 101.836C127.427 101.836 127.867 101.744 128.249 101.561C128.63 101.385 128.923 101.143 129.129 100.835C129.341 100.52 129.448 100.171 129.448 99.79C129.448 99.35 129.323 98.9723 129.074 98.657C128.832 98.3343 128.524 98.129 128.15 98.041C128.48 97.9237 128.755 97.722 128.975 97.436C129.202 97.1427 129.316 96.8127 129.316 96.446C129.316 96.1233 129.231 95.8227 129.063 95.544C128.894 95.2653 128.641 95.0453 128.304 94.884C127.974 94.7153 127.57 94.631 127.094 94.631ZM130.272 100.692C130.47 100.831 130.741 100.941 131.086 101.022C131.43 101.103 131.727 101.143 131.977 101.143C132.666 101.143 133.194 101.007 133.561 100.736C133.935 100.465 134.122 100.083 134.122 99.592C134.122 98.9027 133.524 98.338 132.329 97.898C131.933 97.766 131.628 97.6303 131.416 97.491C131.203 97.3517 131.093 97.1867 131.086 96.996C131.086 96.7687 131.188 96.5853 131.394 96.446C131.606 96.2993 131.878 96.226 132.208 96.226C132.479 96.226 132.721 96.259 132.934 96.325C133.146 96.391 133.374 96.479 133.616 96.589L133.891 95.995C133.7 95.8557 133.436 95.742 133.099 95.654C132.769 95.566 132.479 95.522 132.23 95.522C131.614 95.522 131.126 95.6577 130.767 95.929C130.415 96.193 130.239 96.5597 130.239 97.029C130.239 97.4177 130.4 97.7367 130.723 97.986C131.045 98.2353 131.463 98.4443 131.977 98.613C132.857 98.9063 133.297 99.251 133.297 99.647C133.297 99.8963 133.179 100.091 132.945 100.23C132.71 100.369 132.391 100.439 131.988 100.439C131.526 100.439 131.045 100.314 130.547 100.065L130.272 100.692Z" fill="white"/>
<path d="M216.216 171.631C215.468 171.631 214.739 171.858 214.027 172.313L214.456 172.885C214.676 172.731 214.933 172.603 215.226 172.5C215.52 172.39 215.839 172.335 216.183 172.335C216.601 172.335 216.935 172.445 217.184 172.665C217.441 172.885 217.569 173.149 217.569 173.457C217.569 173.846 217.404 174.157 217.074 174.392C216.744 174.619 216.297 174.733 215.732 174.733H215.27L215.402 175.382H215.666C216.363 175.382 216.876 175.507 217.206 175.756C217.536 176.005 217.701 176.357 217.701 176.812C217.701 177.076 217.624 177.311 217.47 177.516C217.316 177.714 217.115 177.868 216.865 177.978C216.623 178.081 216.363 178.132 216.084 178.132C215.725 178.132 215.413 178.092 215.149 178.011C214.893 177.93 214.621 177.802 214.335 177.626L213.884 178.242C214.2 178.411 214.544 178.55 214.918 178.66C215.3 178.777 215.677 178.836 216.051 178.836C216.55 178.836 216.99 178.744 217.371 178.561C217.753 178.385 218.046 178.143 218.251 177.835C218.464 177.52 218.57 177.171 218.57 176.79C218.57 176.35 218.446 175.972 218.196 175.657C217.954 175.334 217.646 175.129 217.272 175.041C217.602 174.924 217.877 174.722 218.097 174.436C218.325 174.143 218.438 173.813 218.438 173.446C218.438 173.123 218.354 172.823 218.185 172.544C218.017 172.265 217.764 172.045 217.426 171.884C217.096 171.715 216.693 171.631 216.216 171.631ZM219.339 174.843C219.339 175.474 219.464 176.042 219.713 176.548C219.962 177.047 220.307 177.439 220.747 177.725C221.187 178.004 221.686 178.143 222.243 178.143C222.793 178.143 223.288 178 223.728 177.714C224.168 177.428 224.513 177.032 224.762 176.526C225.011 176.02 225.136 175.452 225.136 174.821C225.136 174.212 225.011 173.666 224.762 173.182C224.513 172.698 224.168 172.32 223.728 172.049C223.288 171.77 222.793 171.631 222.243 171.631C221.686 171.631 221.187 171.77 220.747 172.049C220.307 172.32 219.962 172.702 219.713 173.193C219.464 173.677 219.339 174.227 219.339 174.843ZM220.197 174.81C220.197 174.341 220.285 173.923 220.461 173.556C220.637 173.182 220.879 172.892 221.187 172.687C221.502 172.474 221.854 172.368 222.243 172.368C222.632 172.368 222.98 172.474 223.288 172.687C223.603 172.9 223.845 173.197 224.014 173.578C224.19 173.959 224.278 174.388 224.278 174.865C224.278 175.349 224.19 175.785 224.014 176.174C223.845 176.555 223.603 176.856 223.288 177.076C222.98 177.289 222.632 177.395 222.243 177.395C221.854 177.395 221.502 177.285 221.187 177.065C220.879 176.838 220.637 176.53 220.461 176.141C220.285 175.745 220.197 175.301 220.197 174.81ZM225.915 177.692C226.113 177.831 226.384 177.941 226.729 178.022C227.073 178.103 227.37 178.143 227.62 178.143C228.309 178.143 228.837 178.007 229.204 177.736C229.578 177.465 229.765 177.083 229.765 176.592C229.765 175.903 229.167 175.338 227.972 174.898C227.576 174.766 227.271 174.63 227.059 174.491C226.846 174.352 226.736 174.187 226.729 173.996C226.729 173.769 226.831 173.585 227.037 173.446C227.249 173.299 227.521 173.226 227.851 173.226C228.122 173.226 228.364 173.259 228.577 173.325C228.789 173.391 229.017 173.479 229.259 173.589L229.534 172.995C229.343 172.856 229.079 172.742 228.742 172.654C228.412 172.566 228.122 172.522 227.873 172.522C227.257 172.522 226.769 172.658 226.41 172.929C226.058 173.193 225.882 173.56 225.882 174.029C225.882 174.418 226.043 174.737 226.366 174.986C226.688 175.235 227.106 175.444 227.62 175.613C228.5 175.906 228.94 176.251 228.94 176.647C228.94 176.896 228.822 177.091 228.588 177.23C228.353 177.369 228.034 177.439 227.631 177.439C227.169 177.439 226.688 177.314 226.19 177.065L225.915 177.692Z" fill="white"/>
<path d="M316.335 124.515H315.191V119.719H314.586L310.901 124.515L311.022 125.23H314.322V126.759H315.191V125.23H316.236L316.335 124.515ZM314.322 121.237V124.515H311.836L314.322 121.237ZM318.891 119.631C318.143 119.631 317.413 119.858 316.702 120.313L317.131 120.885C317.351 120.731 317.608 120.603 317.901 120.5C318.194 120.39 318.513 120.335 318.858 120.335C319.276 120.335 319.61 120.445 319.859 120.665C320.116 120.885 320.244 121.149 320.244 121.457C320.244 121.846 320.079 122.157 319.749 122.392C319.419 122.619 318.972 122.733 318.407 122.733H317.945L318.077 123.382H318.341C319.038 123.382 319.551 123.507 319.881 123.756C320.211 124.005 320.376 124.357 320.376 124.812C320.376 125.076 320.299 125.311 320.145 125.516C319.991 125.714 319.789 125.868 319.54 125.978C319.298 126.081 319.038 126.132 318.759 126.132C318.4 126.132 318.088 126.092 317.824 126.011C317.567 125.93 317.296 125.802 317.01 125.626L316.559 126.242C316.874 126.411 317.219 126.55 317.593 126.66C317.974 126.777 318.352 126.836 318.726 126.836C319.225 126.836 319.665 126.744 320.046 126.561C320.427 126.385 320.721 126.143 320.926 125.835C321.139 125.52 321.245 125.171 321.245 124.79C321.245 124.35 321.12 123.972 320.871 123.657C320.629 123.334 320.321 123.129 319.947 123.041C320.277 122.924 320.552 122.722 320.772 122.436C320.999 122.143 321.113 121.813 321.113 121.446C321.113 121.123 321.029 120.823 320.86 120.544C320.691 120.265 320.438 120.045 320.101 119.884C319.771 119.715 319.368 119.631 318.891 119.631ZM322.586 126C322.747 126 322.883 125.941 322.993 125.824C323.11 125.707 323.169 125.567 323.169 125.406C323.169 125.245 323.11 125.109 322.993 124.999C322.883 124.882 322.747 124.823 322.586 124.823C322.417 124.823 322.274 124.882 322.157 124.999C322.04 125.109 321.981 125.245 321.981 125.406C321.981 125.575 322.04 125.718 322.157 125.835C322.274 125.945 322.417 126 322.586 126ZM325.831 119.631C325.083 119.631 324.353 119.858 323.642 120.313L324.071 120.885C324.291 120.731 324.547 120.603 324.841 120.5C325.134 120.39 325.453 120.335 325.798 120.335C326.216 120.335 326.549 120.445 326.799 120.665C327.055 120.885 327.184 121.149 327.184 121.457C327.184 121.846 327.019 122.157 326.689 122.392C326.359 122.619 325.911 122.733 325.347 122.733H324.885L325.017 123.382H325.281C325.977 123.382 326.491 123.507 326.821 123.756C327.151 124.005 327.316 124.357 327.316 124.812C327.316 125.076 327.239 125.311 327.085 125.516C326.931 125.714 326.729 125.868 326.48 125.978C326.238 126.081 325.977 126.132 325.699 126.132C325.339 126.132 325.028 126.092 324.764 126.011C324.507 125.93 324.236 125.802 323.95 125.626L323.499 126.242C323.814 126.411 324.159 126.55 324.533 126.66C324.914 126.777 325.292 126.836 325.666 126.836C326.164 126.836 326.604 126.744 326.986 126.561C327.367 126.385 327.66 126.143 327.866 125.835C328.078 125.52 328.185 125.171 328.185 124.79C328.185 124.35 328.06 123.972 327.811 123.657C327.569 123.334 327.261 123.129 326.887 123.041C327.217 122.924 327.492 122.722 327.712 122.436C327.939 122.143 328.053 121.813 328.053 121.446C328.053 121.123 327.968 120.823 327.8 120.544C327.631 120.265 327.378 120.045 327.041 119.884C326.711 119.715 326.307 119.631 325.831 119.631ZM329.008 125.692C329.206 125.831 329.478 125.941 329.822 126.022C330.167 126.103 330.464 126.143 330.713 126.143C331.403 126.143 331.931 126.007 332.297 125.736C332.671 125.465 332.858 125.083 332.858 124.592C332.858 123.903 332.261 123.338 331.065 122.898C330.669 122.766 330.365 122.63 330.152 122.491C329.94 122.352 329.83 122.187 329.822 121.996C329.822 121.769 329.925 121.585 330.13 121.446C330.343 121.299 330.614 121.226 330.944 121.226C331.216 121.226 331.458 121.259 331.67 121.325C331.883 121.391 332.11 121.479 332.352 121.589L332.627 120.995C332.437 120.856 332.173 120.742 331.835 120.654C331.505 120.566 331.216 120.522 330.966 120.522C330.35 120.522 329.863 120.658 329.503 120.929C329.151 121.193 328.975 121.56 328.975 122.029C328.975 122.418 329.137 122.737 329.459 122.986C329.782 123.235 330.2 123.444 330.713 123.613C331.593 123.906 332.033 124.251 332.033 124.647C332.033 124.896 331.916 125.091 331.681 125.23C331.447 125.369 331.128 125.439 330.724 125.439C330.262 125.439 329.782 125.314 329.283 125.065L329.008 125.692Z" fill="white"/>
<path d="M416.216 171.631C415.468 171.631 414.739 171.858 414.027 172.313L414.456 172.885C414.676 172.731 414.933 172.603 415.226 172.5C415.52 172.39 415.839 172.335 416.183 172.335C416.601 172.335 416.935 172.445 417.184 172.665C417.441 172.885 417.569 173.149 417.569 173.457C417.569 173.846 417.404 174.157 417.074 174.392C416.744 174.619 416.297 174.733 415.732 174.733H415.27L415.402 175.382H415.666C416.363 175.382 416.876 175.507 417.206 175.756C417.536 176.005 417.701 176.357 417.701 176.812C417.701 177.076 417.624 177.311 417.47 177.516C417.316 177.714 417.115 177.868 416.865 177.978C416.623 178.081 416.363 178.132 416.084 178.132C415.725 178.132 415.413 178.092 415.149 178.011C414.893 177.93 414.621 177.802 414.335 177.626L413.884 178.242C414.2 178.411 414.544 178.55 414.918 178.66C415.3 178.777 415.677 178.836 416.051 178.836C416.55 178.836 416.99 178.744 417.371 178.561C417.753 178.385 418.046 178.143 418.251 177.835C418.464 177.52 418.57 177.171 418.57 176.79C418.57 176.35 418.446 175.972 418.196 175.657C417.954 175.334 417.646 175.129 417.272 175.041C417.602 174.924 417.877 174.722 418.097 174.436C418.325 174.143 418.438 173.813 418.438 173.446C418.438 173.123 418.354 172.823 418.185 172.544C418.017 172.265 417.764 172.045 417.426 171.884C417.096 171.715 416.693 171.631 416.216 171.631ZM419.339 174.843C419.339 175.474 419.464 176.042 419.713 176.548C419.962 177.047 420.307 177.439 420.747 177.725C421.187 178.004 421.686 178.143 422.243 178.143C422.793 178.143 423.288 178 423.728 177.714C424.168 177.428 424.513 177.032 424.762 176.526C425.011 176.02 425.136 175.452 425.136 174.821C425.136 174.212 425.011 173.666 424.762 173.182C424.513 172.698 424.168 172.32 423.728 172.049C423.288 171.77 422.793 171.631 422.243 171.631C421.686 171.631 421.187 171.77 420.747 172.049C420.307 172.32 419.962 172.702 419.713 173.193C419.464 173.677 419.339 174.227 419.339 174.843ZM420.197 174.81C420.197 174.341 420.285 173.923 420.461 173.556C420.637 173.182 420.879 172.892 421.187 172.687C421.502 172.474 421.854 172.368 422.243 172.368C422.632 172.368 422.98 172.474 423.288 172.687C423.603 172.9 423.845 173.197 424.014 173.578C424.19 173.959 424.278 174.388 424.278 174.865C424.278 175.349 424.19 175.785 424.014 176.174C423.845 176.555 423.603 176.856 423.288 177.076C422.98 177.289 422.632 177.395 422.243 177.395C421.854 177.395 421.502 177.285 421.187 177.065C420.879 176.838 420.637 176.53 420.461 176.141C420.285 175.745 420.197 175.301 420.197 174.81ZM425.915 177.692C426.113 177.831 426.384 177.941 426.729 178.022C427.073 178.103 427.37 178.143 427.62 178.143C428.309 178.143 428.837 178.007 429.204 177.736C429.578 177.465 429.765 177.083 429.765 176.592C429.765 175.903 429.167 175.338 427.972 174.898C427.576 174.766 427.271 174.63 427.059 174.491C426.846 174.352 426.736 174.187 426.729 173.996C426.729 173.769 426.831 173.585 427.037 173.446C427.249 173.299 427.521 173.226 427.851 173.226C428.122 173.226 428.364 173.259 428.577 173.325C428.789 173.391 429.017 173.479 429.259 173.589L429.534 172.995C429.343 172.856 429.079 172.742 428.742 172.654C428.412 172.566 428.122 172.522 427.873 172.522C427.257 172.522 426.769 172.658 426.41 172.929C426.058 173.193 425.882 173.56 425.882 174.029C425.882 174.418 426.043 174.737 426.366 174.986C426.688 175.235 427.106 175.444 427.62 175.613C428.5 175.906 428.94 176.251 428.94 176.647C428.94 176.896 428.822 177.091 428.588 177.23C428.353 177.369 428.034 177.439 427.631 177.439C427.169 177.439 426.688 177.314 426.19 177.065L425.915 177.692Z" fill="white"/>
<path d="M0 0V-1H-1V0H0ZM497 0H498V-1H497V0ZM497 328V329H498V328H497ZM0 328H-1V329H0V328ZM0 1H497V-1H0V1ZM496 0V328H498V0H496ZM497 327H0V329H497V327ZM1 328V0H-1V328H1Z" fill="white"/>
</svg>
