<svg width="400" height="400" viewBox="0 0 400 400" fill="none" xmlns="http://www.w3.org/2000/svg">
<rect width="400" height="400" fill="black"/>
<path d="M185.929 224.799C186.679 221.951 184.146 219.289 179.035 219.748C173.021 220.392 170.53 220.08 166.796 218.982C163.906 217.857 162.447 217.866 160.325 219.748C158.646 222.383 159.624 223.341 162.294 224.799L170.876 227.095L179.035 228.32C183.143 228.257 185.179 227.647 185.929 224.799Z" stroke="white" stroke-width="3"/>
<path d="M172.895 188.829C172.895 191.503 170.931 193.451 168.768 193.451C166.605 193.451 164.641 191.503 164.641 188.829C164.641 186.154 166.605 184.206 168.768 184.206C170.931 184.206 172.895 186.154 172.895 188.829Z" stroke="white" stroke-width="3"/>
<path d="M170.736 227.096L162.435 228.168C157.173 228.686 154.784 228.393 152.306 226.025C151.251 224.111 151.253 223.041 152.306 221.127C154.018 219.273 155.74 218.901 160.185 219.443C161.31 216.076 162.602 209.783 162.435 209.967C162.269 210.151 158.008 215.304 155.12 216.841C152.923 218.063 151.69 218.285 149.493 216.841C147.484 215.21 148.761 212.73 149.493 212.096C150.225 211.462 154.832 209.565 157.09 205.667C158.44 202.681 159.438 201.319 161.732 199.544C164.486 198.435 166.084 198.14 169.047 198.167C176.157 198.423 178.633 200.331 180.689 205.667C182.708 208.833 182.372 209.275 187.341 210.942C192.31 212.61 190.24 219.05 187.341 217.703C184.442 216.355 180.177 214.8 178.029 212.361C176.034 209.079 175.289 208.337 175.778 212.361C175.974 214.609 177.246 217.726 178.754 219.443" stroke="white" stroke-width="3"/>
<circle cx="169.882" cy="207.118" r="29.3822" stroke="white" stroke-width="3"/>
<path d="M273.691 172.707L265.06 174.021V187.165H255.469V188.918H265.06L265.539 224.844C265.337 227.716 267.457 232.292 273.691 233.607C276.568 234.045 278.077 234.02 280.405 233.607C283.975 232.642 286.159 230.54 287.598 228.787C289.036 227.035 290.475 221.339 290.475 221.339L288.463 220.9C287.184 226.973 282.478 230.171 280.405 230.102C278.332 230.032 273.746 229.215 273.691 224.844V188.918H287.598V187.165H273.691V172.707Z" fill="white" stroke="white" stroke-width="3"/>
<path d="M209.586 188.092V186.34C215.959 186.812 219.518 186.66 225.89 185.463V195.978C225.89 195.978 226.37 194.226 228.288 191.597C230.206 188.968 231.165 188.092 234.042 186.34C236.92 184.587 240.189 184.996 241.715 185.463L241.74 185.471C243.271 185.94 246.039 186.788 247.469 188.53C249.268 190.721 248.806 192.122 247.949 194.226C246.877 196.647 244.592 198.169 242.195 197.731C239.797 197.293 237.879 195.139 237.879 192.912C237.879 191.159 238.502 190.73 239.797 189.407C239.797 189.407 241.268 188.953 239.797 188.53C238.326 188.107 234.58 190.283 233.141 191.597C232.459 192.22 227.058 196.959 225.89 201.674V224.457C227.8 228.681 230.155 229.671 235.961 229.714V231.467H210.065V229.714C214.589 229.6 216.149 228.474 217.259 224.457V196.417C217.259 196.417 216.779 191.159 216.299 190.283C215.82 189.407 212.482 188.552 209.586 188.092Z" fill="white" stroke="white" stroke-width="3"/>
<path d="M49 172.25V170.06L69.1406 170.498V172.25C65.6731 172.932 64.8651 173.968 64.8247 176.631L79.6904 218.254H80.1699L91.1993 184.956C89.5633 178.149 88.5291 174.475 83.0472 172.25V170.498H104.626V172.25C99.0555 172.151 97.5641 173.08 97.9128 176.631L112.779 218.254H113.258L125.246 183.642L126.206 176.631C126.036 173.35 124.431 172.294 118.053 172.25V170.498H136.755V172.25C133.617 172.883 132.103 173.613 130.521 176.631L110.86 233.15H108.942L92.6379 188.461L76.8132 233.15H75.8541L54.7545 176.631C53.4709 174.145 52.2402 173.162 49 172.25Z" fill="white" stroke="white" stroke-width="3"/>
<path d="M297.824 166.068V163.877C304.468 164.372 308.078 164.309 314.129 163.001V195.422C317.714 189.529 322.76 185.784 327.556 185.346C332.351 184.907 335.903 185.372 339.064 187.536C343.236 191.103 344.306 194.965 343.86 205.499V223.901C344.485 227.957 345.8 229.496 351.053 230.035V231.787H328.994V230.035C333.302 229.598 334.607 228.193 335.228 223.901V205.499C335.394 199.838 335.228 194.108 333.79 191.479C332.351 188.851 328.035 187.974 324.199 188.851C320.842 189.727 315.85 194.934 314.129 202.433V223.901C314.434 228.011 315.856 229.307 320.362 230.035V231.787H298.304V230.035C302.687 229.499 304.565 228.518 305.497 223.901V188.851L304.538 169.135C302.863 166.945 301.33 166.339 297.824 166.068Z" fill="white" stroke="white" stroke-width="3"/>
</svg>
